<svg xmlns="http://www.w3.org/2000/svg" xmlns:xlink="http://www.w3.org/1999/xlink" version="1.1"><metadata>Created by FontForge 20201107 at Wed Nov 14 01:26:20 2007 By Copyright (c) 2007 by La Tipomatika. All rights reserved.</metadata><defs><font id="NewCicle-GorditaItalic" horiz-adv-x="596"><font-face x-height="500" ascent="800" bbox="-29 -190 1184 861" cap-height="691" descent="-200" font-family="New Cicle" font-stretch="normal" font-style="italic" font-weight="700" panose-1="2 0 0 0 0 0 0 0 0 0" underline-position="-100" underline-thickness="50" unicode-range="U+0020-FB02" units-per-em="1000"/><glyph glyph-name=".notdef" horiz-adv-x="257"/><glyph glyph-name=".null" horiz-adv-x="0"/><glyph glyph-name="nonmarkingreturn" horiz-adv-x="257"/><glyph glyph-name="space" horiz-adv-x="257"/><glyph glyph-name="space" horiz-adv-x="257"/><glyph d="M120 27q-4 -14 -17.5 -25t-27.5 -11q-16 0 -23 11t-3 25q4 16 16.5 26t28.5 10q17 0 23 -10t3 -25v-1zM230 681h60l-158 -588h-60z" glyph-name="exclam" horiz-adv-x="176" unicode="!"/><glyph d="M206 681h70l-11 -75l-72 -97l-18 23zM277 681h70l-11 -75l-72 -97l-18 23z" glyph-name="quotedbl" horiz-adv-x="217" unicode="&quot;"/><glyph d="M142 277h95q13 20 25 39t26 39q3 6 7 12l6 10t5 9h-191l72 68h162q17 26 33 51.5t34 51.5q12 20 25.5 40.5t25.5 38.5h71l-115 -182h196l42 64t41 64q8 12 17.5 27t17.5 27h71l-115 -182h119l-73 -68h-87l-12 -18t-12 -19q-14 -20 -24 -35.5t-23 -36.5h185l-75 -68h-153 q-15 -24 -31 -49.5t-32 -50.5q-17 -26 -35 -55.5t-32 -53.5h-73l131 209h-199q-27 -45 -58.5 -93.5t-59.5 -94.5q-2 -4 -6.5 -10.5t-6.5 -10.5h-72l131 209h-126zM310 277h199q7 11 14.5 25t15.5 25q11 17 19.5 29.5t19.5 29.5h-198z" glyph-name="numbersign" horiz-adv-x="714" unicode="#"/><glyph d="M357 613q-47 -14 -82.5 -44.5t-46.5 -69.5q-11 -40 6.5 -74t59.5 -48zM275 63q47 9 83.5 39t47.5 72q11 43 -7.5 77t-60.5 47zM453 725l-11 -41q50 -3 86.5 -26.5t59.5 -61.5l-63 -42q-17 26 -41.5 44.5t-58.5 21.5l-69 -256q34 -9 60 -27t42.5 -42t21.5 -54t-4 -64 q-9 -35 -30.5 -65t-51 -54t-65 -40.5t-72.5 -22.5l-15 -57h-66l14 54q-51 6 -88.5 33.5t-54.5 69.5l65 43q11 -29 36 -52.5t60 -27.5l67 249q-35 9 -61.5 26.5t-42 42.5t-19.5 55t5 64q9 35 30 66t50 55t64.5 40.5t73.5 23.5l12 45h66z" glyph-name="dollar" horiz-adv-x="466" unicode="$"/><glyph d="M722 681h78l-577 -680h-76zM241 492q-5 -21 -3.5 -39.5t9.5 -33t22 -23t32 -8.5q17 0 34.5 8.5t33 23t27.5 33t17 39.5q12 45 -5 74.5t-51 29.5q-18 0 -36.5 -8t-34 -22t-27.5 -33t-18 -41zM174 492q10 36 30.5 67t47.5 54t58.5 36t64.5 13q31 0 55.5 -13t39 -36t18 -54 t-6.5 -67q-9 -35 -29.5 -66t-47 -54t-58 -36.5t-62.5 -13.5q-33 0 -57.5 13.5t-39.5 36.5t-18.5 54t5.5 66zM520 173q-11 -43 5.5 -73.5t51.5 -30.5q18 0 36.5 8t34 22.5t27.5 33.5t18 40q12 45 -6 74.5t-54 29.5q-17 0 -34.5 -8t-33 -22t-27.5 -33t-18 -41zM454 173 q9 36 29.5 67t47 54t57.5 36t62 13q32 0 56.5 -13t39.5 -36t18.5 -54t-5.5 -67q-9 -35 -29.5 -66t-48 -54t-59 -36.5t-63.5 -13.5q-31 0 -54.5 13.5t-38 36.5t-18 54t5.5 66z" glyph-name="percent" horiz-adv-x="773" unicode="%"/><glyph d="M242 0q-45 0 -79.5 15.5t-55.5 42t-27.5 61t4.5 73.5q15 57 67 107.5t142 85.5q5 2 6.5 2.5t3.5 1.5q-1 0 -3 5l1 -1q-1 1 -1 3q-18 27 -27.5 48t-13 37.5t-2 30.5t4.5 28q7 28 25.5 54t45 46t59.5 32.5t69 12.5q34 0 59 -11t40 -30t19 -44.5t-3 -53.5 q-12 -44 -47.5 -84.5t-106.5 -78.5l-10 -6t-9 -5q12 -23 23 -44t23 -41l20 -36t19 -37q4 3 10 9l-2 -3l3 3q1 2 2 2.5t2 2.5t2.5 3.5l2.5 2.5q5 5 5 7q12 13 25 27.5t27 41.5l57 -11q-26 -45 -54.5 -79t-49.5 -58q8 -20 12 -28t9 -16v1q2 -2 2 -6q2 -8 4 -11.5t4 -6.5 q2 -5 5.5 -10t6.5 -11l-25 -94q-12 17 -26 38t-20 32q-2 4 -4 5q-4 7 -10 16.5t-13 20.5q-1 1 -1 3q-1 -1 -2 -1.5t0 0.5q-2 -1 -2.5 -2.5t-2.5 -2.5q-48 -48 -103.5 -69t-109.5 -20zM511 546q9 35 -10.5 57t-57.5 22q-17 0 -35.5 -7t-35 -18.5t-29 -27t-16.5 -32.5 q-5 -19 -0.5 -36t15.5 -35l28 -47q1 1 1 0.5t2 0.5h-1q2 2 2.5 1.5t3.5 1.5q29 14 52 30.5t40 33t27.5 31t13.5 25.5zM258 61q42 -1 89 22t86 59l1 2q-14 24 -27 48.5t-27 49.5q-13 24 -26 49.5t-27 49.5q-82 -38 -125.5 -76.5t-53.5 -74.5q-6 -24 -1 -47.5t20 -41.5 t38.5 -29t52.5 -11zM439 149l-5 -5q1 -2 3 -4zM326 363q-2 -5 -2.5 -10t1.5 -8q4 -3 5 -3.5t4 1.5q2 0 8 5t14 11z" glyph-name="ampersand" horiz-adv-x="597" unicode="&amp;"/><glyph d="M212 676l73 5l-12 -78l-108 -88l-15 21l52 69z" glyph-name="quotesingle" horiz-adv-x="121" unicode="'"/><glyph d="M353 624q-25 -23 -49 -58t-46 -78.5t-41.5 -94.5t-34.5 -106q-16 -60 -23.5 -115t-7.5 -101t8 -80.5t23 -54.5l-55 -63q-21 27 -33 70t-14.5 96.5t5 116.5t25.5 131q18 65 43.5 126.5t56 114.5t65 96t69.5 72z" glyph-name="parenleft" horiz-adv-x="260" unicode="("/><glyph d="M268 697q20 -29 31.5 -72t14 -96.5t-4.5 -115t-25 -126.5q-18 -68 -44 -131t-57.5 -117t-66.5 -96.5t-70 -69.5l-23 63q27 20 53.5 54.5t51.5 80.5t46.5 101t37.5 115q15 55 23 106t9.5 95t-4 79t-18.5 58z" glyph-name="parenright" horiz-adv-x="246" unicode=")"/><glyph d="M361 367h-66l26 96q-23 -17 -45.5 -35t-40.5 -32l-36 46l87 69h-95l18 66h95l-50 68l60 48l50 -68l26 96h66l-26 -96l86 68l36 -47l-87 -68h96l-18 -67h-98q5 -7 10 -13.5t10 -13.5l32 -42l-59 -46l-51 69z" glyph-name="asterisk" horiz-adv-x="471" unicode="*"/><glyph d="M284 115h-66l39 144h-143l18 66h143l38 143h66l-38 -143h144l-18 -66h-144z" glyph-name="plus" horiz-adv-x="452" unicode="+"/><glyph d="M84 88h73l-21 -80l-117 -81l-10 27l57 64z" glyph-name="comma" horiz-adv-x="173" unicode=","/><glyph d="M100 259l18 66h353l-18 -66h-353z" glyph-name="hyphen" horiz-adv-x="421" unicode="-"/><glyph d="M51 88h88l-22 -88h-88z" glyph-name="period" horiz-adv-x="145" unicode="."/><glyph d="M101 0h-72l430 681h71z" glyph-name="slash" horiz-adv-x="378" unicode="/"/><glyph d="M191 339q-15 -59 -14 -110t16.5 -89t43.5 -60t66 -22q39 0 79 22t75 60t63.5 89t43.5 110q16 58 15 108.5t-16 88.5t-43 60t-67 22q-38 0 -78 -22t-75.5 -60t-64 -88.5t-44.5 -108.5zM124 339q19 72 56.5 135t84.5 110t100.5 74t105.5 27t91 -27t60.5 -74t24 -110 t-16.5 -135t-55.5 -135t-83.5 -110.5t-100.5 -75t-105.5 -27.5t-91 27.5t-61 75t-25 110.5t16 135z" glyph-name="zero" horiz-adv-x="586" unicode="0"/><glyph d="M174 549l196 132h56l-181 -681h-66l156 589q-18 -11 -37 -24.5t-37 -25.5q-26 -17 -57 -38.5t-53 -36.5z" glyph-name="one" horiz-adv-x="306" unicode="1"/><glyph d="M460 66l-17 -66h-411l15 58l362 312q24 20 40.5 44.5t24.5 53.5q8 31 3.5 58.5t-20 48t-40 32t-56.5 11.5t-65.5 -14t-65.5 -39l-35 48q44 32 92 52t92 20q45 0 80.5 -17t57 -46.5t28.5 -69t-5 -84.5q-11 -42 -38 -79.5t-60 -66.5q-52 -45 -106.5 -92.5t-107.5 -92.5 q-21 -19 -40.5 -35t-42.5 -36h315z" glyph-name="two" horiz-adv-x="475" unicode="2"/><glyph d="M190 612q43 36 85.5 54t92.5 18q43 0 77 -15t56 -41.5t29 -61.5t-4 -75q-14 -50 -48.5 -85t-82.5 -58q34 -28 49 -74t2 -92q-11 -38 -36.5 -71t-61 -58t-78 -39.5t-85.5 -14.5q-25 0 -49.5 8t-46 21.5t-38.5 31t-27 37.5l62 46q7 -15 19.5 -29t28.5 -24.5t33.5 -17 t35.5 -6.5q29 0 57.5 9t52.5 25t41 37t24 45q6 22 0.5 44t-19 40t-34.5 31t-46 17h-65l17 66h31q12 0 22 0.5t12 0.5q28 2 54.5 10t48 22.5t37.5 34t22 43.5q7 26 2 49t-20 40.5t-38 27.5t-52 10q-36 0 -64.5 -13t-59.5 -41z" glyph-name="three" horiz-adv-x="431" unicode="3"/><glyph d="M109 294l332 393l46 -34l-293 -348h185q5 17 8.5 34t8.5 34l21 78h65l-38 -146h67l-17 -66h-67l-64 -239h-65l64 239h-268z" glyph-name="four" horiz-adv-x="473" unicode="4"/><glyph d="M144 333l116 348h360l-18 -67h-294q-5 -14 -11 -28.5t-11 -28.5t-9.5 -26.5t-9 -24.5t-10 -25.5t-11.5 -29.5q35 22 73.5 33t74.5 11q47 0 79.5 -19.5t50 -52.5t19.5 -78t-12 -96t-43 -96.5t-68.5 -79.5t-85.5 -53.5t-92 -19.5q-55 0 -96 29.5t-61 78.5l61 48 q14 -41 43 -65.5t69 -24.5q33 0 65.5 14.5t60 39t49 58t31.5 71.5t10 71t-10.5 57.5t-32 38.5t-54.5 14q-46 0 -93 -26.5t-79 -70.5h-61z" glyph-name="five" horiz-adv-x="504" unicode="5"/><glyph d="M522 200q-12 -44 -38.5 -82t-63 -66t-80 -44t-87.5 -16q-42 0 -74.5 15.5t-53.5 43t-28 65t3 80.5q5 31 14 65.5t17 66.5l6 20q11 43 24.5 82.5t30.5 74.5q18 36 45.5 68t61.5 57t72.5 40t76.5 16q55 0 97 -25.5t67 -74.5l-75 -39q-14 32 -42.5 52t-63.5 20 q-27 0 -54 -10t-51 -27t-44 -41.5t-33 -52.5q-29 -65 -50 -141q35 29 76 46t87 19q42 0 77 -15t57.5 -42t31 -64t-2.5 -82zM457 207q7 30 2 55t-19.5 44t-38 29.5t-53.5 10.5t-59 -12t-54 -32.5t-43 -47.5t-26 -57q-8 -29 -2.5 -54t20 -44.5t37.5 -30.5t52 -11q30 0 59 11.5 t53.5 30.5t43 44.5t26.5 54.5z" glyph-name="six" horiz-adv-x="506" unicode="6"/><glyph d="M477 614h-282l18 67h390l-500 -681h-76z" glyph-name="seven" horiz-adv-x="443" unicode="7"/><glyph d="M75 195q7 26 21 51t33 47.5t41 41t45 32.5q-28 23 -38 59t3 82q10 36 33 68.5t54 56.5t67.5 38t73.5 14q39 0 68.5 -14t48 -38t24.5 -56.5t-4 -68.5q-12 -45 -41 -81.5t-70 -59.5q35 -27 48 -72t-1 -100q-11 -42 -37 -79t-61 -65t-76.5 -44t-84.5 -16q-42 0 -74 16 t-52 44t-26 65t5 79zM246 508q-6 -23 -2.5 -43t15.5 -35t30.5 -23.5t41.5 -8.5q24 0 47.5 8.5t43 23.5t34.5 35t21 43t2 43t-15.5 35t-30.5 23.5t-43 8.5q-23 0 -46.5 -8.5t-43 -23.5t-34 -35t-20.5 -43zM142 195q-8 -27 -3.5 -52t18 -44t35 -30t48.5 -11q29 0 57 11t52 30 t41 44t25 52q7 28 3 52.5t-17.5 43.5t-36 30t-51.5 11q-27 0 -54.5 -11t-51 -30t-41 -43.5t-24.5 -52.5z" glyph-name="eight" horiz-adv-x="459" unicode="8"/><glyph d="M157 476q12 43 38.5 81t62.5 66.5t78.5 45.5t86.5 17q43 0 75.5 -16.5t53.5 -45t28.5 -66t-0.5 -79.5q-6 -31 -15.5 -66.5t-17.5 -67.5l-7 -25q-11 -39 -23 -75.5t-28 -71.5q-18 -40 -47.5 -73t-65.5 -57t-76 -37t-80 -13q-49 0 -88.5 26t-62.5 68l72 48 q15 -35 42.5 -54.5t61.5 -19.5q29 0 56.5 10t52 27t44.5 40.5t33 50.5v-1q14 33 25.5 69t22.5 73q-36 -27 -80.5 -44.5t-89.5 -17.5q-42 0 -75 15.5t-54 42.5t-28.5 64t3.5 79zM220 471q-6 -29 -0.5 -53.5t19.5 -43.5t36.5 -29.5t51.5 -10.5q30 0 60 11t55 30.5t44 46 t27 56.5q7 28 2 53.5t-20 45t-38 30.5t-51 11q-31 0 -61 -12t-55 -32.5t-43.5 -47t-26.5 -55.5z" glyph-name="nine" horiz-adv-x="489" unicode="9"/><glyph d="M69 88h88l-22 -88h-88zM179 500h88l-23 -88h-88z" glyph-name="colon" horiz-adv-x="182" unicode=":"/><glyph d="M179 500h86l-23 -88h-86zM74 88h73l-20 -80l-119 -80l-8 26l56 64z" glyph-name="semicolon" horiz-adv-x="169" unicode=";"/><glyph d="M394 500l37 -47l-259 -205q17 -23 34.5 -46.5t36.5 -48.5q19 -26 40 -53.5t39 -51.5l-61 -49l-183 249z" glyph-name="less" horiz-adv-x="330" unicode="&lt;"/><glyph d="M177 442h343l-19 -69h-343zM128 258h343l-19 -68h-343z" glyph-name="equal" horiz-adv-x="440" unicode="="/><glyph d="M385 248l-317 -249l-34 49l257 200q-17 23 -35.5 47.5t-35.5 49.5q-8 11 -18.5 25.5t-21 29.5t-20.5 28.5t-17 24.5l60 47z" glyph-name="greater" horiz-adv-x="336" unicode="&gt;"/><glyph d="M172 0l-7 313l16 57h104q25 1 48.5 10.5t44 26t35 38t21.5 47.5t4 49t-15 40.5t-31 27.5t-44 10q-33 0 -67.5 -21.5t-64.5 -56.5l-36 48q39 44 87.5 70t98.5 26q39 0 68.5 -15.5t47.5 -41.5t23 -61t-6 -75q-10 -38 -33 -72t-54.5 -60t-69 -41t-75.5 -15h-33 q0 -27 1.5 -54t2.5 -56q2 -48 3 -99.5t3 -94.5h-72zM166 -78q5 18 19 28.5t29 10.5q18 0 26 -10.5t3 -28.5q-5 -17 -18.5 -29t-31.5 -12q-15 0 -23.5 12t-3.5 29z" glyph-name="question" horiz-adv-x="410" unicode="?"/><glyph d="M454 -88q-46 -11 -91 -11q-71 0 -126 27t-89.5 73.5t-44.5 108.5t9 133q19 72 63 134.5t103 109t128.5 73.5t140.5 27t124 -25t85 -67.5t41 -99t-8 -120.5q-12 -45 -31.5 -82.5t-38.5 -65.5q-22 -33 -47 -60q-21 -23 -47 -36t-52 -13q-19 0 -32.5 7t-23 18t-15.5 24.5 t-10 27.5q-10 -3 -24.5 -6.5t-30.5 -7t-32 -6.5t-28 -4q-19 -2 -41 4t-39 21.5t-24.5 43.5t4.5 71q4 14 8.5 26.5t11.5 26.5v-1q22 47 51 78.5t60 50t62.5 26.5t60.5 8q17 0 40.5 -1t46.5 -3q26 -2 54 -4q-32 -65 -52 -106t-31.5 -65.5t-16 -35t-5.5 -13.5l-1 -3 q-17 -46 -7 -77t33 -31q8 0 17.5 5.5t19.5 13.5q1 1 11.5 14t24.5 35t28.5 52t24.5 66q13 49 6.5 93.5t-30.5 78.5t-65.5 54t-99.5 20q-57 0 -112.5 -21.5t-103 -59t-83 -88t-50.5 -107.5t-7 -106.5t35.5 -87t71.5 -59t101 -21.5q16 0 38.5 3t54.5 13zM389 143q21 -1 45 2.5 t39 8.5q23 51 45.5 98.5t47.5 98.5h-28t-17.5 0.5t-10 0.5h-6.5q-37 1 -71 -19.5t-61 -78.5q-7 -13 -10.5 -22t-5.5 -17q-5 -20 -4 -33.5t6 -22t13.5 -12.5t17.5 -4z" glyph-name="at" horiz-adv-x="799" unicode="@"/><glyph d="M471 343q-2 29 -5 55l-6 52v-1q-5 32 -6.5 56t-5.5 60q-14 -23 -28 -44t-27 -43q-23 -35 -43 -66t-44 -69h165zM456 691h53l70 -691h-70l-31 275h-214q-42 -66 -88 -137.5t-88 -137.5h-70z" glyph-name="A" unicode="A"/><glyph d="M252 0h-208l184 691h225q39 -1 69.5 -15.5t49.5 -38.5t25.5 -55.5t-3.5 -66.5q-12 -47 -44 -85t-75 -63q35 -27 49 -71t1 -94q-11 -41 -36 -77t-59.5 -63t-76 -43t-84.5 -17h1zM277 625l-60 -224h158q26 1 50.5 9.5t45 23.5t35.5 36t21 45q6 21 1.5 40t-16.5 34t-32 24.5 t-45 11.5h-158zM286 68q29 1 56.5 12.5t50.5 29.5t40 41.5t24 50.5q7 25 2.5 48t-18 41t-35 29t-49.5 13h-158l-71 -265h158z" glyph-name="B" horiz-adv-x="512" unicode="B"/><glyph d="M659 543q-28 40 -67.5 62t-88.5 22q-50 0 -101 -22t-95 -60t-77.5 -89.5t-49.5 -110.5q-15 -58 -10.5 -109.5t27 -90.5t62 -62t92.5 -23q49 0 99 22t100 61l34 -46q-60 -49 -124.5 -77.5t-127.5 -28.5q-62 0 -111.5 28t-80 76t-39.5 112.5t11 137.5q19 70 60.5 133.5 t97 111.5t120.5 76.5t131 28.5q63 0 114 -28.5t83 -77.5z" glyph-name="C" horiz-adv-x="590" unicode="C"/><glyph d="M261 623l-148 -555h47t47 1q25 0 50 0.5t49 0.5q37 1 74.5 23t71.5 59.5t61 87.5t42 107t15 107t-14 87.5t-40.5 59t-63.5 22.5h-191zM212 691h259q51 -1 88 -28t57.5 -73.5t23 -109t-16.5 -133.5t-54.5 -133.5t-80.5 -109t-96.5 -74.5t-102.5 -30h-261z" glyph-name="D" horiz-adv-x="575" unicode="D"/><glyph d="M483 333h-293l-71 -265h342l-17 -68h-409l184 691h409l-18 -66h-342l-60 -224h293z" glyph-name="E" horiz-adv-x="485" unicode="E"/><glyph d="M486 333h-292l-43 -160q-11 -42 -22.5 -87t-22.5 -86h-67l184 691h409l-18 -65h-342l-60 -225h292z" glyph-name="F" horiz-adv-x="487" unicode="F"/><glyph d="M575 87q-57 -45 -119.5 -70.5t-125.5 -25.5q-65 0 -115.5 27.5t-80.5 75.5t-38 112t12 136q19 73 61.5 137t98.5 112t121 76t130 28q63 0 113.5 -28t84.5 -78l-59 -47q-28 40 -68.5 62t-89.5 22q-51 0 -102.5 -22t-96 -60.5t-78 -90t-49.5 -111.5q-16 -59 -10 -111 t30 -90.5t63.5 -61t90.5 -22.5q44 0 87.5 16t81.5 45l46 170h-183l17 66h251l-69 -258z" glyph-name="G" horiz-adv-x="604" unicode="G"/><glyph d="M196 333l-43 -160q-11 -42 -22.5 -87t-22.5 -86h-68l184 691h68l-78 -290h339l78 290h66l-184 -691h-66l88 333h-339z" glyph-name="H" horiz-adv-x="558" unicode="H"/><glyph d="M104 0h-68l184 691h68z" glyph-name="I" horiz-adv-x="138" unicode="I"/><glyph d="M296 175q-10 -38 -29.5 -71t-45 -58.5t-54.5 -40t-57 -14.5q-26 0 -47 15.5t-35 38.5l57 47q9 -14 19.5 -23.5t23.5 -9.5q14 0 29 8.5t28.5 23.5t25 36t18.5 46l139 518h67z" glyph-name="J" horiz-adv-x="305" unicode="J"/><glyph d="M287 691l-91 -338q95 85 190.5 169t190.5 169h89l-339 -302q38 -65 77 -132t80 -135q16 -28 35.5 -62t35.5 -60h-86l-202 337q-8 -8 -17.5 -16.5t-18.5 -16.5q-16 -14 -30.5 -27t-32.5 -28l-32 -120q-8 -31 -16.5 -65.5t-16.5 -63.5h-68l184 691h68z" glyph-name="K" horiz-adv-x="583" unicode="K"/><glyph d="M118 68h325l-17 -68h-391l184 691h66z" glyph-name="L" horiz-adv-x="453" unicode="L"/><glyph d="M692 691h63l-185 -691h-68l146 549q-66 -75 -135 -157t-132 -157h-42l-101 313q-17 -63 -34 -129t-34 -130l-77 -289h-67l184 691h61l117 -357z" glyph-name="M" horiz-adv-x="623" unicode="M"/><glyph d="M283 691l176 -545l146 545h68l-184 -691h-62l-177 548q-17 -63 -34 -128.5t-34 -129.5l-77 -290h-67l184 691h61z" glyph-name="N" horiz-adv-x="537" unicode="N"/><glyph d="M653 552q-23 36 -61.5 55t-87.5 19q-52 0 -103 -22t-94.5 -60t-76 -89t-48.5 -110q-16 -60 -11 -112t28 -90.5t62.5 -60.5t91.5 -22q53 0 104.5 22t95 60.5t76.5 90.5t49 112q17 62 10 115.5t-35 91.5zM578 88q-56 -47 -118 -72t-126 -25t-114 27t-80.5 74.5t-38.5 112.5 t12 140q19 73 61 136.5t97.5 111t120.5 75t131 27.5q67 0 117.5 -27.5t79.5 -74.5t35.5 -111t-12.5 -137q-21 -78 -63.5 -143.5t-101.5 -113.5z" glyph-name="O" horiz-adv-x="690" unicode="O"/><glyph d="M197 332l-42 -159q-11 -42 -22.5 -87t-22.5 -86h-66l184 691h204q42 0 74.5 -14t53 -38t27.5 -56t-3 -68q-10 -38 -34.5 -71.5t-58.5 -58.5t-74 -39t-82 -14h-138zM276 625l-60 -225h138q27 0 53.5 8.5t48.5 24t38.5 36.5t22.5 46q6 22 0.5 42t-19.5 35t-36 24t-50 9 h-136z" glyph-name="P" horiz-adv-x="480" unicode="P"/><glyph d="M625 562q-22 33 -55.5 52t-79.5 19q-47 0 -94 -20.5t-88 -56.5t-72 -84.5t-46 -103.5q-14 -52 -10.5 -98t21.5 -81t49.5 -57.5t73.5 -27.5q-8 14 -33 13l16 61q39 1 63 -19.5t27 -49.5q41 10 80.5 33.5t73 57.5t58.5 77t38 91q15 57 9.5 107t-31.5 87zM557 131 q-39 -33 -82.5 -54t-89.5 -31q-1 -20 3 -33t13 -13q8 0 16.5 9t18.5 21l38 -43q-25 -23 -47 -37.5t-44 -14.5q-16 0 -28.5 8.5t-21 23t-12 34t-2.5 40.5q-56 4 -99.5 30.5t-70 70t-33.5 101.5t11 125q19 70 58.5 129.5t91.5 103.5t111.5 69t118.5 25q60 0 106.5 -25 t74.5 -69.5t35.5 -104t-10.5 -128.5q-19 -71 -60.5 -132t-95.5 -105z" glyph-name="Q" horiz-adv-x="665" unicode="Q"/><glyph d="M184 312q-21 -79 -41.5 -156t-41.5 -156h-67l184 691h204q42 0 75 -13.5t54 -37.5t28 -56.5t-3 -69.5q-10 -38 -35 -70.5t-58.5 -57.5t-74 -39t-82.5 -14h-66q19 -31 39 -62.5t40 -63.5q30 -49 63.5 -105t62.5 -102h-87zM268 626l-60 -225h136q27 0 53.5 8.5t49 24t39 36 t22.5 44.5q6 22 0.5 42.5t-20 36t-36.5 24.5t-50 9h-134z" glyph-name="R" horiz-adv-x="474" unicode="R"/><glyph d="M122 141q15 -38 46.5 -60t78.5 -22q28 0 56 9t51.5 24.5t41 37t24.5 46.5q6 23 0.5 44.5t-19.5 39.5t-35 30.5t-47 17.5q-41 6 -73 23.5t-52.5 43.5t-27.5 59.5t3 69.5q11 41 37 75.5t62 60t79.5 40t88.5 14.5q60 0 101.5 -22.5t67.5 -64.5l-66 -44q-17 31 -47.5 48.5 t-72.5 17.5q-29 0 -58 -9.5t-54 -26t-43 -38.5t-25 -47t-2.5 -48t18.5 -41.5t36.5 -30t52.5 -14.5q41 -5 72.5 -23t51 -44t25.5 -59t-4 -69q-11 -39 -36.5 -73.5t-61 -60t-78 -40t-86.5 -14.5q-64 0 -107.5 29t-63.5 77z" glyph-name="S" horiz-adv-x="485" unicode="S"/><glyph d="M484 625l-82 -305q-21 -79 -42.5 -160.5t-41.5 -159.5h-67l166 625h-218l18 66h501l-18 -66h-216z" glyph-name="T" horiz-adv-x="575" unicode="T"/><glyph d="M152 180q-2 -23 8.5 -44.5t32 -38.5t51.5 -27t67 -10q35 0 69.5 10t64 27t51.5 38.5t33 44.5l137 511h68l-138 -512q-12 -39 -42 -73t-71.5 -59.5t-91 -40.5t-99.5 -15q-53 0 -95.5 15t-71 40.5t-41 59.5t-4.5 73l138 512h71z" glyph-name="U" horiz-adv-x="598" unicode="U"/><glyph d="M214 691h70l60 -576q39 62 77.5 120.5t77.5 121.5q54 84 108 168.5t106 165.5h71l-439 -691h-62z" glyph-name="V" horiz-adv-x="639" unicode="V"/><glyph d="M604 0h-63l-28 254q-20 -32 -40.5 -63.5t-40.5 -63.5q-19 -30 -40.5 -64t-39.5 -63h-62l-71 691h71l60 -578q17 27 35.5 56.5t35.5 56.5l82 130q-4 39 -7.5 80.5t-8.5 81.5q-4 42 -8 87.5t-7 85.5h70l28 -273q4 -39 8 -75.5t8 -73.5q4 -43 7.5 -77t8.5 -79 q35 56 70 111.5t72 112.5q55 88 113 178t113 176h72z" glyph-name="W" horiz-adv-x="915" unicode="W"/><glyph d="M212 691h77l90 -275q28 32 56 65.5t57 65.5q31 35 63 72t62 72h77l-294 -345q14 -41 26.5 -82.5t25.5 -84.5q14 -43 29 -90t29 -89h-77l-95 286q-32 -40 -65.5 -79t-68.5 -80q-26 -31 -54.5 -63.5t-53.5 -63.5h-77l299 353z" glyph-name="X" horiz-adv-x="541" unicode="X"/><glyph d="M837 691l-388 -382l-40 -150q-11 -39 -21 -80.5t-20 -78.5h-69l81 309q-12 26 -25 53t-26 56q-15 32 -32 68t-34.5 71.5t-34 70t-30.5 63.5h89l145 -315q22 22 42 42.5t42 42.5q57 57 116.5 115.5t116.5 114.5h88z" glyph-name="Y" horiz-adv-x="681" unicode="Y"/><glyph d="M154 68h342l-17 -68h-466l555 623h-349l19 68h470z" glyph-name="Z" horiz-adv-x="548" unicode="Z"/><glyph d="M174 66h17l-16 -66q-13 0 -27 4t-24.5 11.5t-16 18.5t-2.5 24l61 229q4 13 -2.5 21t-17.5 8h-33l18 66h33q11 0 22 9t14 20l59 220q10 23 38 36.5t59 13.5l-18 -68q-7 0 -12 -1.5t-6 0.5l-57 -215q-10 -16 -22 -26.5t-30 -13.5l-4 -15q14 -4 22 -14t9 -24z" glyph-name="bracketleft" horiz-adv-x="210" unicode="["/><glyph d="M210 681h71l68 -681h-72z" glyph-name="backslash" horiz-adv-x="371" unicode="\"/><glyph d="M115 303q16 34 48 39q1 3 2.5 7t3.5 9q-14 5 -22 15t-7 24l58 216h-18l18 68q35 0 53.5 -14.5t16.5 -35.5v-6l-57 -214q-3 -11 1.5 -20t16.5 -9h33l-18 -66h-33q-12 0 -21 -8t-13 -21l-61 -229q-3 -13 -13.5 -23.5t-25 -18t-30.5 -12t-30 -4.5l16 66q15 0 18 1z" glyph-name="bracketright" horiz-adv-x="183" unicode="]"/><glyph d="M453 687l182 -250l-61 -48l-147 203q-31 -24 -61.5 -48t-62.5 -49q-33 -26 -68 -53.5t-67 -52.5l-34 49z" glyph-name="asciicircum" horiz-adv-x="551" unicode="^"/><glyph d="M33 0l16 66h425l-16 -66h-425z" glyph-name="underscore" horiz-adv-x="513" unicode="_"/><glyph d="M162 632h109l52 -109h-50z" glyph-name="grave" horiz-adv-x="204" unicode="`"/><glyph d="M285 0l6 24q-27 -16 -54 -24.5t-56 -8.5q-34 0 -60.5 12.5t-43.5 33.5t-22.5 49.5t3.5 60.5q9 33 29.5 61.5t49 50t61.5 34t67 12.5h101l5 16q13 48 -1.5 82.5t-52.5 36.5q-20 0 -33.5 -2.5t-28.5 -7.5q-3 -1 -5 -1t-4 -1t-5.5 -1.5t-8.5 -2.5q-4 -2 -12 -2v60q2 1 7.5 3 t7.5 3q26 8 47 13t54 5q31 -1 54 -15t36.5 -38t17.5 -55t-4 -66l-2 -11q-24 -87 -43 -157q-8 -30 -16 -58.5t-14.5 -51.5t-10.5 -38t-4 -16h-65zM246 238q-20 0 -39.5 -7.5t-36.5 -20t-29 -29t-17 -34.5q-5 -19 -1.5 -35t14 -28t26.5 -19t36 -7q21 0 41 7t37 19t29.5 28.5 t17.5 35.5l25 90h-103z" glyph-name="a" horiz-adv-x="408" unicode="a"/><glyph d="M139 87q11 -6 42.5 -17t78.5 -13q35 1 70.5 16.5t66.5 41.5t54 60.5t34 73.5q10 38 5.5 72.5t-21.5 60.5t-44.5 41.5t-62.5 15.5q-20 0 -43.5 -5t-44.5 -11q-25 -7 -49 -15zM117 0h-66l182 681h67l-54 -200q59 25 134 25q50 0 88 -20.5t61 -56t29.5 -82t-7.5 -98.5 q-14 -53 -45 -99.5t-73 -81.5t-91.5 -56t-99.5 -22q-38 2 -68 8.5t-53 19.5z" glyph-name="b" horiz-adv-x="523" unicode="b"/><glyph d="M487 370q-19 31 -48.5 50t-67.5 19q-36 0 -71.5 -15t-66 -41t-53.5 -60.5t-33 -74.5q-11 -39 -6.5 -73.5t21 -60.5t44 -41t63.5 -15q35 0 73.5 17.5t74.5 49.5l37 -47q-49 -40 -100.5 -63.5t-102.5 -23.5q-49 0 -87 20.5t-61 55.5t-29.5 81.5t7.5 99.5t45.5 100t73.5 82 t91 55.5t98 20.5q52 0 92.5 -24.5t66.5 -63.5z" glyph-name="c" horiz-adv-x="478" unicode="c"/><glyph d="M490 408q-15 8 -48 19t-72 11q-37 -1 -73 -16.5t-67 -41t-54 -59t-33 -71.5q-10 -39 -5.5 -73.5t22 -61t45.5 -42.5t65 -17q23 0 47 5t44 11q23 7 43 17zM385 18q-29 -12 -63.5 -19t-71.5 -9q-50 1 -88 22t-61.5 56t-30 82t7.5 100t45.5 99t73.5 80.5t91.5 55t99.5 20.5 q40 0 69 -5.5t52 -20.5l54 202h67l-182 -681h-67z" glyph-name="d" horiz-adv-x="503" unicode="d"/><glyph d="M250 58q18 0 39.5 4.5t43 11t41 15.5t34.5 18l10 -63q-35 -21 -79.5 -34t-82.5 -18q-5 -1 -13.5 -1h-12.5q-42 0 -74.5 18.5t-52.5 51t-26 76.5t5 95l4 17q14 53 42.5 100t65.5 82t79 55.5t84 20.5t74 -17.5t50 -49.5t21.5 -76.5t-10.5 -98.5l-10 -37h-332 q-5 -35 -0.5 -65.5t17.5 -54t34 -37t49 -13.5zM433 294q3 31 -2.5 57.5t-18 46t-31 30.5t-42.5 11t-49 -10.5t-47.5 -29.5t-42 -45.5t-32.5 -59.5h265z" glyph-name="e" horiz-adv-x="456" unicode="e"/><glyph d="M455 613q-18 5 -27.5 5.5t-15.5 0.5q-18 -1 -36 -10.5t-33.5 -25t-28 -37t-18.5 -45.5l-3 -12h124l-18 -67h-124l-112 -422h-65q22 80 42 157q9 33 18 68.5t18.5 70t18 67t16.5 59.5h-71l18 67h70l6 23q11 35 32 66.5t47.5 55t57 37.5t59.5 14q14 0 27 -0.5t36 -3.5z" glyph-name="f" horiz-adv-x="328" unicode="f"/><glyph d="M227 135h4.5t7.5 1t11.5 1.5t14.5 0.5q42 0 76 -12.5t56 -34.5t30 -51.5t-1 -63.5t-33 -64.5t-57.5 -53t-74.5 -35.5t-83 -13q-41 0 -74.5 13t-55 35.5t-30 53t0.5 64.5q11 42 47 78.5t84 57.5q-1 9 0.5 18.5t4.5 20.5q4 13 10.5 25.5t14.5 21.5q-50 50 -28 131 q10 36 34 68.5t58 56.5t74.5 38t82.5 14q24 0 40.5 -3t30.5 -8h191l-81 -66h-34q10 -20 13 -46t-5 -54q-10 -37 -34.5 -69t-58.5 -55.5t-74 -37t-82 -13.5q-16 0 -27 2t-21 4q-8 2 -15 3t-12 1q-7 0 -13.5 -2.5t-8.5 -8.5q-3 -12 3 -15t14 -3zM84 -24q-5 -20 1.5 -38.5 t21.5 -32.5t38 -22t50 -8q29 0 57 8t50.5 22t38.5 32.5t21 38.5q5 19 -1 37.5t-21 32t-38.5 22t-52.5 8.5q-27 0 -54.5 -8.5t-50 -22t-39 -32t-21.5 -37.5zM218 329q-6 -23 -1 -43t19.5 -35t37 -24t50.5 -9q29 0 56.5 9t50 24t39 35t22.5 43q6 24 1 44.5t-19.5 35.5 t-37.5 23.5t-52 8.5q-28 0 -55 -8.5t-49.5 -23.5t-39 -35.5t-22.5 -44.5z" glyph-name="g" horiz-adv-x="551" unicode="g"/><glyph d="M285 683l-61 -225q31 25 62.5 37t69.5 12q36 0 63 -14.5t43.5 -40t21 -59t-4.5 -72.5l-83 -318h-66l86 318q5 25 1.5 47t-15 38t-29 25.5t-40.5 9.5q-20 0 -40.5 -9.5t-39.5 -24.5t-35.5 -34.5t-26.5 -39.5q-9 -32 -20 -75t-23 -89l-45 -169h-66l182 683h66z" glyph-name="h" horiz-adv-x="455" unicode="h"/><glyph d="M182 500h65l-132 -500h-65zM209 628q5 17 19.5 28t31.5 11q16 0 26 -11t5 -28q-5 -15 -20.5 -27t-31.5 -12q-17 0 -26 12t-4 27z" glyph-name="i" horiz-adv-x="170" unicode="i"/><glyph d="M343 624q5 17 19 27.5t31 10.5q14 0 23.5 -10.5t4.5 -27.5t-20 -28t-29 -11q-17 0 -25.5 11t-3.5 28zM14 -118q13 -2 24 -3q9 -1 17 -1.5t10 -0.5q18 1 36.5 10.5t34 25.5t28 36.5t18.5 43.5l136 508h66l-139 -517q-12 -35 -32.5 -66t-46.5 -54t-57 -37t-62 -15 q-8 0 -17 0.5t-18 1.5q-3 1 -7 1.5t-16 0.5z" glyph-name="j" horiz-adv-x="354" unicode="j"/><glyph d="M212 357q21 14 43.5 29.5t43.5 29.5l120 84h102l-208 -141q12 -42 25.5 -86.5t27.5 -86.5q14 -46 29 -95t29 -91h-77l-95 313q-15 -11 -30.5 -21t-32.5 -21l-35 -131q-9 -35 -18.5 -71.5t-17.5 -68.5h-67l182 681h66z" glyph-name="k" horiz-adv-x="440" unicode="k"/><glyph d="M252 751h66l-200 -751h-66z" glyph-name="l" horiz-adv-x="162" unicode="l"/><glyph d="M224 456q31 26 62.5 37.5t66.5 11.5q48 0 79 -24t45 -63q38 46 84.5 67.5t84.5 21.5q35 0 62 -14.5t43.5 -39.5t21.5 -59t-4 -73l-84 -319h-67l86 319q6 24 2.5 46t-14 38t-28 25.5t-40.5 9.5q-21 0 -42 -9t-40 -24t-34.5 -34t-25.5 -39l-89 -332h-66l85 317 q12 51 -11 85t-71 34q-20 0 -40 -9t-39 -24t-35 -34t-26 -39q-4 -15 -9 -35.5t-11 -43t-12 -45.5t-11 -41l-44 -167h-67l117 441l15 59h67z" glyph-name="m" horiz-adv-x="739" unicode="m"/><glyph d="M218 458q62 50 132 50q35 0 62 -14.5t43.5 -40t21.5 -59.5t-4 -73l-83 -321h-66l85 321q6 25 3.5 47t-12.5 38t-26.5 25.5t-38.5 9.5q-20 0 -42 -9t-42.5 -23.5t-38 -34t-27.5 -40.5q-4 -15 -9 -35.5t-11 -43t-12 -45.5t-11 -41l-45 -169h-67l132 500h67z" glyph-name="n" horiz-adv-x="433" unicode="n"/><glyph d="M147 247q-11 -39 -7 -73.5t20 -60.5t43 -41t62 -15q34 0 68.5 15t64 41t51.5 60.5t33 73.5q10 40 6.5 75t-19.5 61t-42 41t-60 15q-35 0 -70 -15t-65 -41t-52.5 -61t-32.5 -75zM80 247q14 54 45.5 101t72.5 82t89.5 55.5t97.5 20.5q48 0 85 -20.5t59.5 -55.5t28 -82 t-8.5 -101q-14 -53 -45 -99.5t-72 -81.5t-89 -55.5t-96 -20.5q-49 0 -86.5 20.5t-60 55.5t-28.5 81.5t8 99.5z" glyph-name="o" horiz-adv-x="513" unicode="o"/><glyph d="M122 88q13 -7 46.5 -18t72.5 -13q37 1 72.5 16.5t66 41.5t53 61t33.5 74q10 39 6 73t-20.5 59.5t-44.5 40.5t-64 15q-20 0 -44 -5.5t-44 -11.5q-24 -7 -48 -16zM227 478q29 11 64.5 19.5t69.5 8.5q49 -1 87.5 -22t61.5 -55.5t29.5 -80.5t-7.5 -98q-14 -54 -45.5 -101 t-73.5 -82t-91 -55.5t-99 -20.5q-36 0 -66.5 7t-52.5 20l-54 -203h-64l182 685h64z" glyph-name="p" horiz-adv-x="506" unicode="p"/><glyph d="M518 500h66l-183 -685h-66l55 205q-60 -28 -138 -28q-49 1 -87 22t-61 55.5t-30 81t7 98.5q14 53 46 99.5t74 81.5t91 55.5t98 20.5q79 0 123 -25zM494 408q-11 6 -43.5 19t-78.5 13q-36 0 -71.5 -15t-66.5 -41t-54.5 -61t-33.5 -74q-11 -39 -6 -73.5t22 -60t45 -40.5 t63 -16q19 0 43 4.5t45 10.5q25 6 50 15z" glyph-name="q" horiz-adv-x="515" unicode="q"/><glyph d="M377 427q-31 11 -40 11q-20 0 -42 -10t-42.5 -26t-37.5 -34.5t-27 -36.5q-8 -32 -19 -75t-24 -89l-44 -167h-67l132 500h67l-11 -44q29 24 62 37t68 13q6 0 24 -2.5t29 -6.5z" glyph-name="r" horiz-adv-x="286" unicode="r"/><glyph d="M431 392q-17 22 -45.5 34t-60.5 12q-42 0 -76 -18.5t-42 -48.5q-8 -29 15 -54t68 -33q32 -6 57 -20.5t41 -35t21.5 -46t-1.5 -52.5q-8 -30 -28 -55.5t-48 -44t-61.5 -28.5t-67.5 -10q-45 0 -86 20t-62 58l61 38q16 -21 43 -35.5t59 -14.5q22 0 42.5 5.5t37 15t28 22.5 t15.5 29q7 28 -18 54t-62 37q-32 5 -57 20t-41.5 35.5t-23 45t0.5 50.5q8 30 28.5 54.5t48.5 42t61.5 27t68.5 9.5q48 0 87 -20.5t61 -53.5z" glyph-name="s" horiz-adv-x="417" unicode="s"/><glyph d="M358 681l-50 -188h128l-18 -67h-128l-113 -426h-65q22 82 42 159q9 33 18 68.5t18.5 70.5t18 68t16.5 60h-72l18 67h70l50 188h67z" glyph-name="t" horiz-adv-x="340" unicode="t"/><glyph d="M339 41q-29 -23 -62.5 -36.5t-68.5 -13.5q-36 0 -62.5 14.5t-43 40t-20.5 60t5 73.5l83 321h65l-84 -321q-6 -24 -3 -46t12.5 -38.5t26.5 -26t40 -9.5q21 0 42.5 9t41 24t36 34.5t26.5 39.5l89 334h66l-133 -500h-65z" glyph-name="u" horiz-adv-x="450" unicode="u"/><glyph d="M143 500h69l57 -395q48 71 96 142.5t96 142.5q17 26 37.5 55.5t36.5 54.5h72l-336 -500h-59z" glyph-name="v" horiz-adv-x="500" unicode="v"/><glyph d="M464 0l-62 3l-21 160q-22 -33 -45.5 -66.5t-46.5 -66.5q-5 -7 -10.5 -15t-10.5 -15l-58 3l-69 497h70l55 -393q10 14 21 29t20 29q16 23 31 45.5t30 45.5q-4 31 -8.5 65.5t-9.5 66.5q-4 26 -8 57.5t-7 54.5h75l54 -394q64 95 132.5 197.5t131.5 196.5h72z" glyph-name="w" horiz-adv-x="705" unicode="w"/><glyph d="M149 500h82l66 -182q26 31 53 59.5t55 59.5q14 15 28.5 32t28.5 31h82l-221 -248q8 -23 16.5 -48t16.5 -49q13 -38 28 -79t27 -76h-80l-71 192q-43 -49 -84.5 -96.5t-83.5 -95.5h-80l225 259z" glyph-name="x" horiz-adv-x="444" unicode="x"/><glyph d="M-2 -117q24 -8 41 -8q39 0 84 40.5t99 133.5q-8 55 -17 110t-17 111q-8 57 -16.5 118.5t-16.5 117.5h69l51 -376q26 39 49.5 75.5t49.5 75.5q36 55 75 113t75 112h72l-313 -464l1 1q-9 -14 -18.5 -28t-18.5 -28l-35 -55q-18 -29 -41.5 -51.5t-49.5 -38.5t-53 -24t-51 -8 q-22 0 -46 8z" glyph-name="y" horiz-adv-x="479" unicode="y"/><glyph d="M51 60l381 373h-278l17 67h372l-16 -60l-381 -373h281l-16 -67h-375z" glyph-name="z" horiz-adv-x="452" unicode="z"/><glyph d="M174 66h17l-16 -66q-13 0 -27 4t-24.5 11.5t-16 18.5t-2.5 24l61 229q4 13 -2.5 21t-17.5 8h-33l18 66h33q11 0 22 9t14 20l59 220q10 23 38 36.5t59 13.5l-18 -68q-7 0 -12 -1.5t-6 0.5l-57 -215q-10 -16 -22 -26.5t-30 -13.5l-4 -15q14 -4 22 -14t9 -24z" glyph-name="braceleft" horiz-adv-x="223" unicode="{"/><glyph d="M230 705h51l-188 -704h-51z" glyph-name="bar" horiz-adv-x="131" unicode="|"/><glyph d="M115 303q16 34 48 39q1 3 2.5 7t3.5 9q-14 5 -22 15t-7 24l58 216h-18l18 68q35 0 53.5 -14.5t16.5 -35.5v-6l-57 -214q-3 -11 1.5 -20t16.5 -9h33l-18 -66h-33q-12 0 -21 -8t-13 -21l-61 -229q-3 -13 -13.5 -23.5t-25 -18t-30.5 -12t-30 -4.5l16 66q15 0 18 1z" glyph-name="braceright" horiz-adv-x="188" unicode="}"/><glyph d="M333 241q-11 23 -22.5 35.5t-22.5 12.5q-5 0 -13 -2.5t-13 -4.5h1q-14 -8 -31.5 -13t-32.5 -5q-18 0 -35.5 6.5t-32.5 20.5l38 83q11 -20 23.5 -30.5t24.5 -10.5q5 0 11 2l12 4h-1q16 8 33.5 12.5t32.5 4.5q36 0 68 -26z" glyph-name="asciitilde" horiz-adv-x="347" unicode="~"/><glyph d="M216 649q4 14 16.5 25t28.5 11q14 0 22 -11t4 -25q-4 -16 -17.5 -26t-27.5 -10q-17 0 -23 10t-3 25v1zM109 0h-60l155 584h60z" glyph-name="exclamdown" horiz-adv-x="160" unicode="¡"/><glyph d="M372 568h71l-18 -66q40 -6 70 -28.5t53 -55.5l-61 -48q-14 23 -34 41t-46 24l-100 -374q26 6 54.5 23t57.5 41l35 -47q-41 -33 -82 -55t-83 -29l-18 -65h-71l18 66q-41 7 -72 29.5t-50 56.5t-23.5 76.5t8.5 90.5t40.5 91t64 77t80 56.5t88.5 29.5zM147 248q-9 -34 -7 -65 t14 -56t32.5 -42.5t49.5 -23.5l100 374q-32 -6 -61.5 -23.5t-55 -42t-44.5 -56t-28 -65.5z" glyph-name="cent" horiz-adv-x="478" unicode="¢"/><glyph d="M273 285l-59 -219h319l-16 -66h-385l75 285h-114l18 66h114l88 330h66l-88 -330h173l-18 -66h-173z" glyph-name="sterling" horiz-adv-x="556" unicode="£"/><glyph glyph-name="currency" horiz-adv-x="833" unicode="¤"/><glyph d="M206 177h138l10 41h-138l18 68h138l5 18q-26 57 -56.5 119t-59.5 124q-15 32 -32.5 68.5t-31.5 65.5h89l141 -310q77 76 156.5 155.5t156.5 154.5h88l-383 -377l-5 -18h139l-18 -68h-139l-10 -41h139l-18 -68h-139q-2 -8 -3.5 -12t-3.5 -13t-7 -28t-15 -56h-68l29 109 h-138z" glyph-name="yen" horiz-adv-x="681" unicode="¥"/><glyph d="M145 388l85 317h51l-85 -317h-51zM187 352l-94 -351h-51l94 351h51z" glyph-name="brokenbar" horiz-adv-x="131" unicode="¦"/><glyph d="M422 486q-36 20 -77 20q-22 0 -43 -7q5 -21 19.5 -42t39.5 -35q45 -26 63.5 -68.5t5.5 -90.5q-7 -26 -24.5 -49.5t-39.5 -40.5l-2 -12t-2 -11q-8 -30 -26 -54t-42 -40t-51 -24.5t-53 -8.5q-47 0 -89 24l28 37q17 -10 34.5 -14t36.5 -4q20 0 39 5.5t35.5 16t28.5 26 t18 36.5q-17 -8 -32.5 -10t-30.5 -2q-24 0 -46.5 5.5t-41.5 17.5l28 39q36 -19 73 -19q28 0 52 10q-5 24 -19.5 45.5t-39.5 35.5q-46 25 -65 70t-7 90q16 55 66 87q0 14 4 26q7 28 24 50.5t39.5 38t49.5 23.5t55 8q46 0 89 -23l-29 -41q-18 11 -37.5 15.5t-37.5 4.5 q-38 0 -70 -19.5t-43 -57.5v-1q0 -1 -1 -2q28 9 58 9q48 0 91 -23zM371 230q7 8 11 17t7 18q9 34 -6 68t-51 55q-28 14 -45.5 37t-23.5 49q-10 -8 -18 -21t-11 -25q-8 -32 7 -65.5t51 -54.5q29 -15 46.5 -39t22.5 -50q4 3 10 11zM302 322q-34 19 -48 48t-6 58q2 4 4 8.5 t4 8.5q18 -46 67 -72v1q32 -19 46 -49t6 -60q-3 -10 -7 -16q-19 46 -66 74v-1zM471 535q-27 14 -54.5 22t-53.5 8q-20 0 -39 -3q12 21 36 32.5t51 11.5q35 0 80 -25l49 69q-29 16 -55 23t-51 7q-30 0 -60 -9t-55 -26.5t-43.5 -42.5t-27.5 -57q-2 -5 -3 -9.5t-2 -10.5 q-49 -36 -65 -93q-13 -49 7 -98t69 -77l1 1q38 -22 50 -58q-7 -2 -15 -3t-15 -1q-17 0 -37.5 6.5t-41.5 17.5l-47 -66q26 -17 52.5 -24.5t52.5 -7.5q11 0 20.5 0.5t20.5 3.5q-14 -23 -38.5 -34t-52.5 -11q-36 0 -76 23l-48 -63q55 -34 105 -34q29 0 59 9.5t56.5 28t46.5 45 t29 60.5q1 4 1.5 8t1.5 9q21 19 39.5 44.5t25.5 51.5q14 51 -6.5 98t-67.5 75q-17 11 -29 25t-18 29q5 1 18 1q38 0 81 -25zM425 445q-22 12 -39.5 19t-33.5 9q11 -12 28 -23q51 -29 72 -80.5t6 -106.5q-8 -29 -25 -54.5t-40 -46.5l-3 -12q-10 -38 -32 -67.5t-51 -49.5 t-62 -30.5t-64 -10.5q-27 0 -58 10t-65 31l70 91q25 -14 44.5 -20.5t35.5 -6.5q27 0 47 10h-5q-26 0 -57 9.5t-64 31.5l67 91q23 -13 44 -20t38 -7q-13 18 -33 31q-26 15 -44.5 36.5t-29 46.5t-12.5 52t5 54q15 57 65 99l4 14q9 36 30 64t48.5 47.5t60.5 29.5t66 10 q26 0 57 -9.5t67 -29.5l-70 -97q-53 30 -85 30q-11 0 -22 -2.5t-21 -6.5h3q26 0 58 -10t67 -28zM311 336q16 -8 28.5 -19t21.5 -23q-2 18 -14.5 35.5t-33.5 29.5v-1q-17 8 -29.5 19t-22.5 23q4 -17 16 -34t35 -30h-1z" glyph-name="section" horiz-adv-x="381" unicode="§"/><glyph d="M194 628q5 17 19.5 28t31.5 11q16 0 26 -11t5 -28q-5 -15 -20.5 -27t-31.5 -12q-17 0 -26 12t-4 27zM321 628q5 17 19 28t31 11t26.5 -11t4.5 -28q-5 -15 -20 -27t-32 -12t-25.5 12t-3.5 27z" glyph-name="dieresis" horiz-adv-x="263" unicode="¨"/><glyph glyph-name="copyright" horiz-adv-x="833" unicode="©"/><glyph d="M195 304q-17 -5 -30 -5q-31 0 -46.5 20.5t-7.5 49.5q8 28 34 47t58 19h18q1 8 -2 14t-8 6q-11 0 -23 -2.5t-35 -8.5l6 52q19 5 34 7.5t32 2.5q26 0 39.5 -22t5.5 -57q-2 -4 -7 -22.5t-11 -40t-11 -39.5t-6 -22zM184 395q-11 0 -21 -8.5t-12 -16.5q-3 -11 2.5 -20.5 t16.5 -9.5t21.5 9.5t13.5 20.5l6 25h-27z" glyph-name="ordfeminine" horiz-adv-x="179" unicode="ª"/><glyph d="M582 507l31 -51l-273 -187l24 -39q26 -44 52 -90t49 -88l-59 -44l-154 270zM422 507l30 -51l-272 -187q14 -26 29 -51t30 -52q16 -28 33.5 -58t32.5 -56l-59 -44l-155 270z" glyph-name="guillemotleft" horiz-adv-x="532" unicode="«"/><glyph d="M651 155h-66l46 172h-509l18 66h575z" glyph-name="logicalnot" horiz-adv-x="662" unicode="¬"/><glyph glyph-name="registered" horiz-adv-x="833" unicode="®"/><glyph d="M222 578q-5 -20 7.5 -36.5t33.5 -16.5q19 0 39 16.5t25 36.5q6 21 -5 38.5t-30 17.5q-21 0 -42.5 -17.5t-27.5 -38.5zM168 578q13 46 52 76.5t86 30.5q44 0 65.5 -30.5t8.5 -76.5q-6 -22 -18.5 -41t-30 -33t-38.5 -22t-43 -8q-47 0 -70 30t-12 74z" glyph-name="degree" horiz-adv-x="250" unicode="°"/><glyph d="M332 292h-66l38 143h-143l18 67h143l38 143h66l-38 -143h144l-18 -67h-144zM83 146l17 66h353l-17 -66h-353z" glyph-name="plusminus" horiz-adv-x="452" unicode="±"/><glyph d="M341 355l-15 -55h-225l12 47l197 169q11 8 19.5 21t11.5 24q7 27 -10 47t-43 20q-25 0 -73 -35l-30 43q32 22 61.5 35.5t56.5 13.5t47 -10t32.5 -26.5t16.5 -39.5t-3 -48q-6 -23 -23 -47.5t-33 -39.5l-138 -119h139z" glyph-name="twosuperior" horiz-adv-x="280" unicode="²"/><glyph d="M152 380q9 -12 22.5 -21t29.5 -9q24 0 48.5 16.5t31.5 40.5q6 23 -8.5 39.5t-37.5 19.5h-62l15 55h64q12 1 24 6t22.5 12.5t18 17t10.5 18.5q5 19 -11 34.5t-40 15.5q-34 0 -80 -37l-29 42q61 51 124 51q51 0 77.5 -30.5t15.5 -75.5q-8 -28 -23 -48.5t-41 -35.5 q13 -16 17.5 -38t-1.5 -46t-21 -44t-35 -35t-44 -23.5t-49 -8.5q-33 0 -56.5 14t-39.5 38l40 32h18z" glyph-name="threesuperior" horiz-adv-x="265" unicode="³"/><glyph d="M209 523h-52l111 109h106z" glyph-name="acute" horiz-adv-x="209" unicode="´"/><glyph d="M90 -185h-66l183 685h67l-95 -355q-2 -7 4 -21.5t18.5 -28.5t30.5 -25t39 -11q23 0 45 9.5t41 26t33 38.5t21 46q11 38 21.5 77t22.5 80q4 15 10 37t12.5 45.5t12 45t9.5 36.5h66l-88 -321q-11 -39 -33.5 -73.5t-52.5 -60t-65.5 -40t-71.5 -14.5q-32 0 -59 13.5t-44 36.5 z" glyph-name="mu" horiz-adv-x="496" unicode="µ"/><glyph d="M273 0l182 680h65l-182 -680h-65zM326 620q-35 -5 -64 -34.5t-40 -69.5q-11 -41 2.5 -70.5t45.5 -33.5zM173 0l91 343q-30 3 -54 18t-39 37.5t-19.5 52t4.5 61.5q9 35 30.5 66t50.5 54t63 36t69 13h52l-182 -681h-66z" glyph-name="paragraph" horiz-adv-x="382" unicode="¶"/><glyph d="M131 310q3 11 10.5 22t18.5 20t24 14.5t26 5.5t23.5 -5.5t17 -14.5t9.5 -20t0 -22q-3 -12 -11.5 -22.5t-20 -18.5t-24.5 -13t-26 -5q-26 0 -40 18t-7 41z" glyph-name="periodcentered" horiz-adv-x="225" unicode="·"/><glyph d="M170 569l164 112h58l-83 -311h-67l58 218q-21 -15 -43.5 -29t-42.5 -28q2 1 -2.5 -2.5t-6.5 -5.5z" glyph-name="onesuperior" horiz-adv-x="263" unicode="¹"/><glyph d="M171 398q-5 -20 5.5 -36.5t28.5 -16.5q17 0 35 16.5t23 36.5q6 22 -3 39.5t-26 17.5q-18 0 -37.5 -17.5t-25.5 -39.5zM120 398q6 23 19 43t30.5 34.5t37.5 22.5t41 8q40 0 60 -30.5t7 -77.5q-6 -22 -18.5 -40.5t-29 -32.5t-36 -22t-39.5 -8q-42 0 -62.5 29.5t-9.5 73.5z" glyph-name="ordmasculine" horiz-adv-x="232" unicode="º"/><glyph d="M402 278l-298 -270l-38 44l243 217q-27 29 -55 60t-56 61h1q-14 16 -31.5 33t-31.5 32l58 52zM563 278l-299 -270l-37 44l242 217q-26 29 -54.5 60t-56.5 61h1q-14 16 -31 33t-31 32l57 52z" glyph-name="guillemotright" horiz-adv-x="524" unicode="»"/><glyph d="M388 337l-144 -170h61l20 72h47l-20 -72h47l-12 -46h-47l-15 -54q-4 -15 -8 -34t-8 -33h-47l31 121h-119l10 36l168 200zM136 443l92 63h37l-82 -305h-47l64 238q-5 -4 -11.5 -8t-11.5 -8q-4 -2 -6.5 -3.5t-10.5 -8.5z" glyph-name="onequarter" horiz-adv-x="382" unicode="¼"/><glyph d="M124 444l92 63h37l-82 -306h-47l64 239q-5 -4 -11.5 -8t-11.5 -8q-4 -2 -6.5 -3.5t-10.5 -8.5zM200 46h137l-11 -46h-205l9 38l184 158q10 8 18 20.5t11 23.5q8 29 -7.5 48.5t-44.5 19.5q-28 0 -65 -28l-25 33q26 20 53 31t50 11q24 0 43 -9t30.5 -24.5t14.5 -36.5 t-3 -45q-6 -22 -20.5 -41.5t-32.5 -36.5z" glyph-name="onehalf" horiz-adv-x="355" unicode="½"/><glyph d="M112 225q7 -15 21 -23.5t31 -8.5q28 0 52 17t31 41q4 16 -3 28t-21.5 19.5t-35 9.5t-44.5 -2l14 49h58q26 2 47.5 16t27.5 36q6 23 -9.5 38.5t-42.5 15.5q-35 0 -73 -32l-24 33q26 21 54 33t55 12q23 0 42 -8t31 -21.5t16.5 -31.5t-1.5 -39q-7 -24 -23.5 -43.5 t-39.5 -31.5q15 -14 20.5 -35t-1.5 -46q-6 -22 -20 -41t-33.5 -33.5t-42 -22.5t-46.5 -8q-27 0 -48 13t-34 36zM246 122l10 37l171 200l35 -20l-142 -170h59l19 72h47l-19 -72h47l-13 -47h-47l-32 -120h-47l32 120h-120z" glyph-name="threequarters" horiz-adv-x="458" unicode="¾"/><glyph d="M417 681l8 -315l-16 -59h-107q-24 -1 -48.5 -10.5t-45 -26t-35.5 -39t-22 -48.5q-7 -25 -3 -47.5t16 -40t31.5 -27.5t44.5 -10q32 0 67 21t67 55l35 -48q-40 -43 -88.5 -69.5t-98.5 -26.5q-39 0 -69 15.5t-48.5 41.5t-24 61.5t5.5 74.5q10 39 34 73.5t56 61t69.5 42 t74.5 15.5h35q-1 36 -2.5 75t-2.5 79t-2 78.5t-2 73.5h71zM421 757q-5 -17 -19 -28.5t-29 -11.5q-18 0 -26.5 11.5t-3.5 28.5q5 18 19 29.5t32 11.5q15 0 23.5 -11.5t3.5 -29.5z" glyph-name="questiondown" horiz-adv-x="432" unicode="¿"/><glyph d="M471 343q-2 29 -5 55l-6 52v-1q-5 32 -6.5 56t-5.5 60q-14 -23 -28 -44t-27 -43q-23 -35 -43 -66t-44 -69h165zM456 691h53l70 -691h-70l-31 275h-214q-42 -66 -88 -137.5t-88 -137.5h-70zM372 823h109l52 -109h-50z" glyph-name="Agrave" unicode="À"/><glyph d="M471 343q-2 29 -5 55l-6 52v-1q-5 32 -6.5 56t-5.5 60q-14 -23 -28 -44t-27 -43q-23 -35 -43 -66t-44 -69h165zM456 691h53l70 -691h-70l-31 275h-214q-42 -66 -88 -137.5t-88 -137.5h-70zM506 714h-52l111 109h106z" glyph-name="Aacute" unicode="Á"/><glyph d="M471 343q-2 29 -5 55l-6 52v-1q-5 32 -6.5 56t-5.5 60q-14 -23 -28 -44t-27 -43q-23 -35 -43 -66t-44 -69h165zM456 691h53l70 -691h-70l-31 275h-214q-42 -66 -88 -137.5t-88 -137.5h-70z" glyph-name="Acircumflex" unicode="Â"/><glyph d="M574 702q-20 49 -46 49q-5 0 -12.5 -2t-12.5 -4h1q-32 -19 -66 -19q-17 0 -35 7t-33 21l38 84q12 -20 24.5 -31t23.5 -11q6 0 13.5 2.5t12.5 4.5h-1q14 8 31.5 12t32.5 4q18 0 36 -6t35 -20zM480 357q-2 29 -5 55l-6 52v-1q-5 32 -6.5 56t-5.5 60q-14 -23 -28 -44 t-27 -43q-23 -35 -43 -66t-44 -69h165zM465 705h53l70 -691h-70l-31 275h-214q-42 -66 -88 -137.5t-88 -137.5h-70z" glyph-name="Atilde" unicode="Ã"/><glyph d="M471 343q-2 29 -5 55l-6 52v-1q-5 32 -6.5 56t-5.5 60q-14 -23 -28 -44t-27 -43q-23 -35 -43 -66t-44 -69h165zM456 691h53l70 -691h-70l-31 275h-214q-42 -66 -88 -137.5t-88 -137.5h-70zM386 741q5 17 19.5 28t31.5 11q16 0 26 -11t5 -28q-5 -15 -20.5 -27t-31.5 -12 q-17 0 -26 12t-4 27zM513 741q5 17 19 28t31 11t26.5 -11t4.5 -28q-5 -15 -20 -27t-32 -12t-25.5 12t-3.5 27z" glyph-name="Adieresis" unicode="Ä"/><glyph d="M471 343q-2 29 -5 55l-6 52v-1q-5 32 -6.5 56t-5.5 60q-14 -23 -28 -44t-27 -43q-23 -35 -43 -66t-44 -69h165zM456 691h53l70 -691h-70l-31 275h-214q-42 -66 -88 -137.5t-88 -137.5h-70z" glyph-name="Aring" unicode="Å"/><glyph d="M682 625h-196q-22 -35 -45 -71.5t-45 -71.5q-23 -37 -43 -69t-44 -70h289zM1102 691l-18 -66h-343l-60 -224h293l-18 -68h-293l-71 -265h343l-17 -68h-410l72 275h-313q-21 -33 -42 -66.5t-43 -67.5l1 1q-23 -35 -47 -72t-44 -70h-72l439 691h643z" glyph-name="AE" horiz-adv-x="1081" unicode="Æ"/><glyph d="M682 543q-28 41 -67 63.5t-87 22.5q-52 0 -104 -23t-96 -62t-77.5 -91.5t-49.5 -110.5q-15 -57 -9.5 -108.5t28.5 -91t62.5 -62.5t92.5 -23q48 0 98.5 22.5t98.5 61.5l36 -46q-60 -51 -125 -76t-129 -26q-2 -2 0.5 -1t0.5 -1q13 -8 24 -24.5t5 -37.5q-4 -16 -22.5 -34.5 t-59.5 -37.5l-57 53q6 0 18.5 1t26 3.5t24 6.5t12.5 10q1 5 -2 8t-8 5t-11 2.5t-10 0.5h-22l15 52q-48 13 -84.5 44.5t-57.5 76.5t-25 101.5t13 120.5q20 75 62 139.5t98 112t121 74.5t131 27q63 0 113.5 -28t82.5 -79z" glyph-name="Ccedilla" horiz-adv-x="634" unicode="Ç"/><glyph d="M483 333h-293l-71 -265h342l-17 -68h-409l184 691h409l-18 -66h-342l-60 -224h293zM303 823h109l52 -109h-50z" glyph-name="Egrave" horiz-adv-x="485" unicode="È"/><glyph d="M483 333h-293l-71 -265h342l-17 -68h-409l184 691h409l-18 -66h-342l-60 -224h293zM423 714h-52l111 109h106z" glyph-name="Eacute" horiz-adv-x="485" unicode="É"/><glyph d="M483 333h-293l-71 -265h342l-17 -68h-409l184 691h409l-18 -66h-342l-60 -224h293zM468 861l90 -120l-56 -43l-56 79l-101 -79l-29 44z" glyph-name="Ecircumflex" horiz-adv-x="485" unicode="Ê"/><glyph d="M483 333h-293l-71 -265h342l-17 -68h-409l184 691h409l-18 -66h-342l-60 -224h293zM330 742q5 17 19.5 28t31.5 11q16 0 26 -11t5 -28q-5 -15 -20.5 -27t-31.5 -12q-17 0 -26 12t-4 27zM457 742q5 17 19 28t31 11t26.5 -11t4.5 -28q-5 -15 -20 -27t-32 -12t-25.5 12 t-3.5 27z" glyph-name="Edieresis" horiz-adv-x="485" unicode="Ë"/><glyph d="M112 0h-68l184 691h68zM159 823h109l52 -109h-50z" glyph-name="Igrave" horiz-adv-x="131" unicode="Ì"/><glyph d="M104 0h-68l184 691h68zM277 714h-52l111 109h106z" glyph-name="Iacute" horiz-adv-x="154" unicode="Í"/><glyph d="M104 0h-68l184 691h68z" glyph-name="Icircumflex" horiz-adv-x="138" unicode="Î"/><glyph d="M104 0h-68l184 691h68zM161 741q5 17 19.5 28t31.5 11q16 0 26 -11t5 -28q-5 -15 -20.5 -27t-31.5 -12q-17 0 -26 12t-4 27zM288 741q5 17 19 28t31 11t26.5 -11t4.5 -28q-5 -15 -20 -27t-32 -12t-25.5 12t-3.5 27z" glyph-name="Idieresis" horiz-adv-x="138" unicode="Ï"/><glyph d="M105 264l18 66h64l97 361h259q51 -1 88 -28t57.5 -73.5t23 -109t-16.5 -133.5t-54.5 -133.5t-80.5 -109t-96.5 -74.5t-102.5 -30h-261l69 264h-64zM333 623l-78 -293h167l-18 -66h-167l-52 -196h47t47 1q25 0 50 0.5t49 0.5q37 1 74.5 23t71.5 59.5t61 87.5t42 107 t15 107t-14 87.5t-40.5 59t-63.5 22.5h-191z" glyph-name="Eth" horiz-adv-x="653" unicode="Ð"/><glyph d="M283 691l176 -545l146 545h68l-184 -691h-62l-177 548q-17 -63 -34 -128.5t-34 -129.5l-77 -290h-67l184 691h61zM548 680q-10 23 -22 35.5t-23 12.5q-5 0 -13 -2.5t-13 -4.5h1q-13 -8 -30.5 -13t-32.5 -5q-17 0 -35 6.5t-33 20.5l38 83q21 -41 47 -41q8 0 24 7h-1 q34 16 66 16q17 0 34.5 -6.5t33.5 -19.5z" glyph-name="Ntilde" horiz-adv-x="537" unicode="Ñ"/><glyph d="M653 552q-23 36 -61.5 55t-87.5 19q-52 0 -103 -22t-94.5 -60t-76 -89t-48.5 -110q-16 -60 -11 -112t28 -90.5t62.5 -60.5t91.5 -22q53 0 104.5 22t95 60.5t76.5 90.5t49 112q17 62 10 115.5t-35 91.5zM578 88q-56 -47 -118 -72t-126 -25t-114 27t-80.5 74.5t-38.5 112.5 t12 140q19 73 61 136.5t97.5 111t120.5 75t131 27.5q67 0 117.5 -27.5t79.5 -74.5t35.5 -111t-12.5 -137q-21 -78 -63.5 -143.5t-101.5 -113.5zM394 823h109l52 -109h-50z" glyph-name="Ograve" horiz-adv-x="690" unicode="Ò"/><glyph d="M653 552q-23 36 -61.5 55t-87.5 19q-52 0 -103 -22t-94.5 -60t-76 -89t-48.5 -110q-16 -60 -11 -112t28 -90.5t62.5 -60.5t91.5 -22q53 0 104.5 22t95 60.5t76.5 90.5t49 112q17 62 10 115.5t-35 91.5zM578 88q-56 -47 -118 -72t-126 -25t-114 27t-80.5 74.5t-38.5 112.5 t12 140q19 73 61 136.5t97.5 111t120.5 75t131 27.5q67 0 117.5 -27.5t79.5 -74.5t35.5 -111t-12.5 -137q-21 -78 -63.5 -143.5t-101.5 -113.5zM561 714h-52l111 109h106z" glyph-name="Oacute" horiz-adv-x="690" unicode="Ó"/><glyph d="M653 552q-23 36 -61.5 55t-87.5 19q-52 0 -103 -22t-94.5 -60t-76 -89t-48.5 -110q-16 -60 -11 -112t28 -90.5t62.5 -60.5t91.5 -22q53 0 104.5 22t95 60.5t76.5 90.5t49 112q17 62 10 115.5t-35 91.5zM578 88q-56 -47 -118 -72t-126 -25t-114 27t-80.5 74.5t-38.5 112.5 t12 140q19 73 61 136.5t97.5 111t120.5 75t131 27.5q67 0 117.5 -27.5t79.5 -74.5t35.5 -111t-12.5 -137q-21 -78 -63.5 -143.5t-101.5 -113.5zM570 861l90 -120l-56 -43l-56 79l-101 -79l-29 44z" glyph-name="Ocircumflex" horiz-adv-x="690" unicode="Ô"/><glyph d="M653 552q-23 36 -61.5 55t-87.5 19q-52 0 -103 -22t-94.5 -60t-76 -89t-48.5 -110q-16 -60 -11 -112t28 -90.5t62.5 -60.5t91.5 -22q53 0 104.5 22t95 60.5t76.5 90.5t49 112q17 62 10 115.5t-35 91.5zM578 88q-56 -47 -118 -72t-126 -25t-114 27t-80.5 74.5t-38.5 112.5 t12 140q19 73 61 136.5t97.5 111t120.5 75t131 27.5q67 0 117.5 -27.5t79.5 -74.5t35.5 -111t-12.5 -137q-21 -78 -63.5 -143.5t-101.5 -113.5zM624 681q-10 23 -22 35.5t-23 12.5q-5 0 -13 -2.5t-13 -4.5h1q-13 -8 -30.5 -13t-32.5 -5q-17 0 -35 6.5t-33 20.5l38 83 q21 -41 47 -41q8 0 24 7h-1q34 16 66 16q17 0 34.5 -6.5t33.5 -19.5z" glyph-name="Otilde" horiz-adv-x="690" unicode="Õ"/><glyph d="M653 552q-23 36 -61.5 55t-87.5 19q-52 0 -103 -22t-94.5 -60t-76 -89t-48.5 -110q-16 -60 -11 -112t28 -90.5t62.5 -60.5t91.5 -22q53 0 104.5 22t95 60.5t76.5 90.5t49 112q17 62 10 115.5t-35 91.5zM578 88q-56 -47 -118 -72t-126 -25t-114 27t-80.5 74.5t-38.5 112.5 t12 140q19 73 61 136.5t97.5 111t120.5 75t131 27.5q67 0 117.5 -27.5t79.5 -74.5t35.5 -111t-12.5 -137q-21 -78 -63.5 -143.5t-101.5 -113.5zM433 742q5 17 19.5 28t31.5 11q16 0 26 -11t5 -28q-5 -15 -20.5 -27t-31.5 -12q-17 0 -26 12t-4 27zM560 742q5 17 19 28t31 11 t26.5 -11t4.5 -28q-5 -15 -20 -27t-32 -12t-25.5 12t-3.5 27z" glyph-name="Odieresis" horiz-adv-x="690" unicode="Ö"/><glyph d="M114 162l-34 47l128 102l-73 100l58 48l75 -101l128 101l35 -47l-129 -101q5 -7 10.5 -13.5t10.5 -14.5q14 -17 28.5 -37t25.5 -37l-59 -47l-75 102z" glyph-name="multiply" horiz-adv-x="367" unicode="×"/><glyph d="M578 88q-56 -47 -118 -72t-126 -25q-46 0 -82 12v-3h-75l19 33q-30 21 -52 53t-33 72.5t-11.5 88t13.5 98.5q19 73 61 136.5t97.5 111t120.5 75t131 27.5q21 0 42.5 -3.5t40.5 -9.5q2 2 3.5 4.5t3.5 4.5h70l-22 -36q63 -48 86 -129t-4 -181q-21 -78 -63.5 -143.5 t-101.5 -113.5zM653 552q-8 11 -15.5 20t-17.5 17q-24 -37 -48.5 -75.5t-47.5 -75.5q-59 -93 -116.5 -184.5t-116.5 -184.5q14 -5 29 -7t33 -2q53 0 104.5 22t95 60.5t76.5 90.5t49 112q17 62 10 115.5t-35 91.5zM504 626q-52 0 -103 -22t-94.5 -60t-76 -89t-48.5 -110 q-22 -81 -7 -145.5t60 -101.5q48 78 97.5 154.5t97.5 152.5q34 54 67 105.5t68 106.5q-14 5 -29 7t-32 2z" glyph-name="Oslash" horiz-adv-x="690" unicode="Ø"/><glyph d="M152 180q-2 -23 8.5 -44.5t32 -38.5t51.5 -27t67 -10q35 0 69.5 10t64 27t51.5 38.5t33 44.5l137 511h68l-138 -512q-12 -39 -42 -73t-71.5 -59.5t-91 -40.5t-99.5 -15q-53 0 -95.5 15t-71 40.5t-41 59.5t-4.5 73l138 512h71zM366 823h109l52 -109h-50z" glyph-name="Ugrave" horiz-adv-x="598" unicode="Ù"/><glyph d="M152 180q-2 -23 8.5 -44.5t32 -38.5t51.5 -27t67 -10q35 0 69.5 10t64 27t51.5 38.5t33 44.5l137 511h68l-138 -512q-12 -39 -42 -73t-71.5 -59.5t-91 -40.5t-99.5 -15q-53 0 -95.5 15t-71 40.5t-41 59.5t-4.5 73l138 512h71zM502 714h-52l111 109h106z" glyph-name="Uacute" horiz-adv-x="598" unicode="Ú"/><glyph d="M152 180q-2 -23 8.5 -44.5t32 -38.5t51.5 -27t67 -10q35 0 69.5 10t64 27t51.5 38.5t33 44.5l137 511h68l-138 -512q-12 -39 -42 -73t-71.5 -59.5t-91 -40.5t-99.5 -15q-53 0 -95.5 15t-71 40.5t-41 59.5t-4.5 73l138 512h71zM524 861l90 -120l-56 -43l-56 79l-101 -79 l-29 44z" glyph-name="Ucircumflex" horiz-adv-x="598" unicode="Û"/><glyph d="M152 180q-2 -23 8.5 -44.5t32 -38.5t51.5 -27t67 -10q35 0 69.5 10t64 27t51.5 38.5t33 44.5l137 511h68l-138 -512q-12 -39 -42 -73t-71.5 -59.5t-91 -40.5t-99.5 -15q-53 0 -95.5 15t-71 40.5t-41 59.5t-4.5 73l138 512h71zM387 741q5 17 19.5 28t31.5 11q16 0 26 -11 t5 -28q-5 -15 -20.5 -27t-31.5 -12q-17 0 -26 12t-4 27zM514 741q5 17 19 28t31 11t26.5 -11t4.5 -28q-5 -15 -20 -27t-32 -12t-25.5 12t-3.5 27z" glyph-name="Udieresis" horiz-adv-x="598" unicode="Ü"/><glyph d="M837 691l-388 -382l-40 -150q-11 -39 -21 -80.5t-20 -78.5h-69l81 309q-12 26 -25 53t-26 56q-15 32 -32 68t-34.5 71.5t-34 70t-30.5 63.5h89l145 -315q22 22 42 42.5t42 42.5q57 57 116.5 115.5t116.5 114.5h88zM552 714h-52l111 109h106z" glyph-name="Yacute" horiz-adv-x="681" unicode="Ý"/><glyph d="M249 487q63 29 137 29q51 -1 90 -22t62.5 -56.5t30 -82.5t-7.5 -100q-15 -55 -47 -103t-74.5 -84t-93 -56.5t-101.5 -20.5q-38 0 -67.5 8.5t-54.5 21.5l-56 -209h-66l236 880h67zM146 103q-3 -9 4.5 -16.5t23.5 -13.5t39 -9.5t50 -4.5q36 1 72.5 16.5t67.5 42t54.5 61.5 t34.5 75q10 39 5.5 74t-21.5 61.5t-45 42t-64 15.5q-25 0 -48 -3.5t-42.5 -9.5t-33 -13.5t-19.5 -15.5z" glyph-name="Thorn" horiz-adv-x="535" unicode="Þ"/><glyph d="M276 616l-60 -221h155q25 1 49.5 9.5t44.5 23.5t35 35t21 44q6 21 1.5 40t-16.5 34t-31.5 24t-43.5 11h-155zM67 -163h-67l225 844h223q38 -1 68.5 -15t49.5 -38t25 -55.5t-3 -65.5q-12 -46 -44 -83.5t-75 -62.5q35 -26 49.5 -70t1.5 -93q-11 -40 -36 -75t-59 -62 t-75 -42.5t-84 -16.5h-85l-49 64h151q28 1 55.5 12.5t50 29.5t39.5 41t24 49q7 25 2.5 48t-19.5 41t-39.5 29t-57.5 13h-139z" glyph-name="germandbls" horiz-adv-x="520" unicode="ß"/><glyph d="M306 0l6 24q-27 -16 -54 -24.5t-56 -8.5q-34 0 -60.5 12.5t-43.5 33.5t-22.5 49.5t3.5 60.5q9 33 29.5 61.5t49 50t61.5 34t67 12.5h101l5 16q13 48 -1.5 82.5t-52.5 36.5q-20 0 -33.5 -2.5t-28.5 -7.5q-3 -1 -5 -1t-4 -1t-5.5 -1.5t-8.5 -2.5q-4 -2 -12 -2v60q2 1 7.5 3 t7.5 3q26 8 47 13t54 5q31 -1 54 -15t36.5 -38t17.5 -55t-4 -66l-2 -11q-24 -87 -43 -157q-8 -30 -16 -58.5t-14.5 -51.5t-10.5 -38t-4 -16h-65zM267 238q-20 0 -39.5 -7.5t-36.5 -20t-29 -29t-17 -34.5q-5 -19 -1.5 -35t14 -28t26.5 -19t36 -7q21 0 41 7t37 19t29.5 28.5 t17.5 35.5l25 90h-103zM275 632h109l52 -109h-50z" glyph-name="agrave" horiz-adv-x="406" unicode="à"/><glyph d="M306 0l6 24q-27 -16 -54 -24.5t-56 -8.5q-34 0 -60.5 12.5t-43.5 33.5t-22.5 49.5t3.5 60.5q9 33 29.5 61.5t49 50t61.5 34t67 12.5h101l5 16q13 48 -1.5 82.5t-52.5 36.5q-20 0 -33.5 -2.5t-28.5 -7.5q-3 -1 -5 -1t-4 -1t-5.5 -1.5t-8.5 -2.5q-4 -2 -12 -2v60q2 1 7.5 3 t7.5 3q26 8 47 13t54 5q31 -1 54 -15t36.5 -38t17.5 -55t-4 -66l-2 -11q-24 -87 -43 -157q-8 -30 -16 -58.5t-14.5 -51.5t-10.5 -38t-4 -16h-65zM267 238q-20 0 -39.5 -7.5t-36.5 -20t-29 -29t-17 -34.5q-5 -19 -1.5 -35t14 -28t26.5 -19t36 -7q21 0 41 7t37 19t29.5 28.5 t17.5 35.5l25 90h-103zM378 523h-52l111 109h106z" glyph-name="aacute" horiz-adv-x="406" unicode="á"/><glyph d="M306 0l6 24q-27 -16 -54 -24.5t-56 -8.5q-34 0 -60.5 12.5t-43.5 33.5t-22.5 49.5t3.5 60.5q9 33 29.5 61.5t49 50t61.5 34t67 12.5h101l5 16q13 48 -1.5 82.5t-52.5 36.5q-20 0 -33.5 -2.5t-28.5 -7.5q-3 -1 -5 -1t-4 -1t-5.5 -1.5t-8.5 -2.5q-4 -2 -12 -2v60q2 1 7.5 3 t7.5 3q26 8 47 13t54 5q31 -1 54 -15t36.5 -38t17.5 -55t-4 -66l-2 -11q-24 -87 -43 -157q-8 -30 -16 -58.5t-14.5 -51.5t-10.5 -38t-4 -16h-65zM267 238q-20 0 -39.5 -7.5t-36.5 -20t-29 -29t-17 -34.5q-5 -19 -1.5 -35t14 -28t26.5 -19t36 -7q21 0 41 7t37 19t29.5 28.5 t17.5 35.5l25 90h-103zM414 670l90 -120l-56 -43l-56 79l-101 -79l-29 44z" glyph-name="acircumflex" horiz-adv-x="406" unicode="â"/><glyph d="M468 527q-24 38 -49 38q-6 0 -13 -2t-13 -4h1q-14 -8 -30.5 -11.5t-30.5 -3.5q-39 0 -70 22l36 77q13 -17 25 -27t23 -10q6 0 12.5 2t12.5 4q15 8 31 10.5t30 2.5q20 0 37 -5t34 -17zM313 14l6 24q-27 -16 -54 -24.5t-56 -8.5q-34 0 -60.5 12.5t-43.5 33.5t-22.5 49.5 t3.5 60.5q9 33 29.5 61.5t49 50t61.5 34t67 12.5h101l5 16q13 48 -1.5 82.5t-52.5 36.5q-20 0 -33.5 -2.5t-28.5 -7.5q-3 -1 -5 -1t-4 -1t-5.5 -1.5t-8.5 -2.5q-4 -2 -12 -2v60q2 1 7.5 3t7.5 3q26 8 47 13t54 5q31 -1 54 -15t36.5 -38t17.5 -55t-4 -66l-2 -11 q-24 -87 -43 -157q-8 -30 -16 -58.5t-14.5 -51.5t-10.5 -38t-4 -16h-65zM274 252q-20 0 -39.5 -7.5t-36.5 -20t-29 -29t-17 -34.5q-5 -19 -1.5 -35t14 -28t26.5 -19t36 -7q21 0 41 7t37 19t29.5 28.5t17.5 35.5l25 90h-103z" glyph-name="atilde" horiz-adv-x="406" unicode="ã"/><glyph d="M302 614q4 15 19 27t32 12q16 0 25.5 -12t5.5 -27q-5 -17 -20.5 -28.5t-31.5 -11.5q-17 0 -26 11.5t-4 28.5zM429 614q4 15 18.5 27t31.5 12t26 -12t5 -27q-5 -17 -20 -28.5t-32 -11.5t-25.5 11.5t-3.5 28.5zM313 14l6 24q-27 -16 -54 -24.5t-56 -8.5q-34 0 -60.5 12.5 t-43.5 33.5t-22.5 49.5t3.5 60.5q9 33 29.5 61.5t49 50t61.5 34t67 12.5h101l5 16q13 48 -1.5 82.5t-52.5 36.5q-20 0 -33.5 -2.5t-28.5 -7.5q-3 -1 -5 -1t-4 -1t-5.5 -1.5t-8.5 -2.5q-4 -2 -12 -2v60q2 1 7.5 3t7.5 3q26 8 47 13t54 5q31 -1 54 -15t36.5 -38t17.5 -55 t-4 -66l-2 -11q-24 -87 -43 -157q-8 -30 -16 -58.5t-14.5 -51.5t-10.5 -38t-4 -16h-65zM274 252q-20 0 -39.5 -7.5t-36.5 -20t-29 -29t-17 -34.5q-5 -19 -1.5 -35t14 -28t26.5 -19t36 -7q21 0 41 7t37 19t29.5 28.5t17.5 35.5l25 90h-103z" glyph-name="adieresis" horiz-adv-x="406" unicode="ä"/><glyph d="M308 23q-26 -16 -54 -24.5t-56 -8.5q-35 0 -62 12.5t-44 33.5t-22.5 49.5t3.5 61.5t29.5 61.5t49 49.5t62 33.5t68.5 12.5h96q4 10 11 21q11 49 -6 80.5t-53 33.5q-57 0 -123 -18l-1 64q37 10 72.5 15.5t70.5 5.5q42 -2 69 -24t38 -62q39 42 83.5 64.5t89.5 22.5 q42 0 74 -19.5t50 -53.5t21 -80t-11 -100l-10 -36h-329l-7 -26q0 -27 7 -51.5t20.5 -43t33 -29.5t42.5 -11q15 0 32.5 3.5t36.5 9.5t36.5 13l32.5 13l13 -58q-36 -17 -71.5 -28.5t-71.5 -17.5q-5 -1 -12 -1h-14q-78 0 -120 59q-1 -15 3.5 -26t21.5 -24h-105zM703 283 q4 33 0 61.5t-16 49.5t-31.5 33t-44.5 12t-50.5 -11.5t-48.5 -32t-41.5 -49.5t-28.5 -63h261zM356 238h-92q-21 0 -41 -7.5t-36.5 -20t-28.5 -29t-17 -34.5q-11 -38 11 -63.5t64 -25.5q20 0 40 7t37.5 19t30 28t17.5 35l7 25q-1 13 1 28t6 32z" glyph-name="ae" horiz-adv-x="743" unicode="æ"/><glyph d="M285 -12q14 -7 24.5 -24t5.5 -38q-5 -15 -23.5 -34.5t-56.5 -39.5l-51 51q9 1 21 2.5t22.5 4.5t18.5 6.5t9 7.5q4 13 -8 17t-20 4q-1 0 -2.5 -0.5t-3.5 -0.5h-18l16 52q-38 9 -67 32t-46 56.5t-20.5 75.5t9.5 89q14 53 45.5 99.5t73.5 81.5t91.5 55.5t99.5 20.5 q51 0 91.5 -23.5t66.5 -65.5l-59 -46q-21 31 -51 49.5t-66 18.5t-71.5 -15t-66.5 -40.5t-54 -60.5t-33 -74q-11 -40 -6.5 -74.5t21.5 -60.5t44.5 -41t63.5 -15q35 0 74 17.5t74 47.5l36 -47q-42 -35 -89 -57.5t-93 -27.5z" glyph-name="ccedilla" horiz-adv-x="493" unicode="ç"/><glyph d="M250 58q18 0 39.5 4.5t43 11t41 15.5t34.5 18l10 -63q-35 -21 -79.5 -34t-82.5 -18q-5 -1 -13.5 -1h-12.5q-42 0 -74.5 18.5t-52.5 51t-26 76.5t5 95l4 17q14 53 42.5 100t65.5 82t79 55.5t84 20.5t74 -17.5t50 -49.5t21.5 -76.5t-10.5 -98.5l-10 -37h-332 q-5 -35 -0.5 -65.5t17.5 -54t34 -37t49 -13.5zM433 294q3 31 -2.5 57.5t-18 46t-31 30.5t-42.5 11t-49 -10.5t-47.5 -29.5t-42 -45.5t-32.5 -59.5h265zM274 632h109l52 -109h-50z" glyph-name="egrave" horiz-adv-x="456" unicode="è"/><glyph d="M250 58q18 0 39.5 4.5t43 11t41 15.5t34.5 18l10 -63q-35 -21 -79.5 -34t-82.5 -18q-5 -1 -13.5 -1h-12.5q-42 0 -74.5 18.5t-52.5 51t-26 76.5t5 95l4 17q14 53 42.5 100t65.5 82t79 55.5t84 20.5t74 -17.5t50 -49.5t21.5 -76.5t-10.5 -98.5l-10 -37h-332 q-5 -35 -0.5 -65.5t17.5 -54t34 -37t49 -13.5zM433 294q3 31 -2.5 57.5t-18 46t-31 30.5t-42.5 11t-49 -10.5t-47.5 -29.5t-42 -45.5t-32.5 -59.5h265zM388 523h-52l111 109h106z" glyph-name="eacute" horiz-adv-x="456" unicode="é"/><glyph d="M250 58q18 0 39.5 4.5t43 11t41 15.5t34.5 18l10 -63q-35 -21 -79.5 -34t-82.5 -18q-5 -1 -13.5 -1h-12.5q-42 0 -74.5 18.5t-52.5 51t-26 76.5t5 95l4 17q14 53 42.5 100t65.5 82t79 55.5t84 20.5t74 -17.5t50 -49.5t21.5 -76.5t-10.5 -98.5l-10 -37h-332 q-5 -35 -0.5 -65.5t17.5 -54t34 -37t49 -13.5zM433 294q3 31 -2.5 57.5t-18 46t-31 30.5t-42.5 11t-49 -10.5t-47.5 -29.5t-42 -45.5t-32.5 -59.5h265zM401 670l90 -120l-56 -43l-56 79l-101 -79l-29 44z" glyph-name="ecircumflex" horiz-adv-x="456" unicode="ê"/><glyph d="M250 58q18 0 39.5 4.5t43 11t41 15.5t34.5 18l10 -63q-35 -21 -79.5 -34t-82.5 -18q-5 -1 -13.5 -1h-12.5q-42 0 -74.5 18.5t-52.5 51t-26 76.5t5 95l4 17q14 53 42.5 100t65.5 82t79 55.5t84 20.5t74 -17.5t50 -49.5t21.5 -76.5t-10.5 -98.5l-10 -37h-332 q-5 -35 -0.5 -65.5t17.5 -54t34 -37t49 -13.5zM433 294q3 31 -2.5 57.5t-18 46t-31 30.5t-42.5 11t-49 -10.5t-47.5 -29.5t-42 -45.5t-32.5 -59.5h265zM287 628q5 17 19.5 28t31.5 11q16 0 26 -11t5 -28q-5 -15 -20.5 -27t-31.5 -12q-17 0 -26 12t-4 27zM414 628q5 17 19 28 t31 11t26.5 -11t4.5 -28q-5 -15 -20 -27t-32 -12t-25.5 12t-3.5 27z" glyph-name="edieresis" horiz-adv-x="456" unicode="ë"/><glyph d="M212 500h65l-132 -500h-65zM152 646h109l52 -109h-50z" glyph-name="igrave" horiz-adv-x="211" unicode="ì"/><glyph d="M184 500h66l-132 -500h-66zM222 537h-52l111 109h106z" glyph-name="iacute" horiz-adv-x="211" unicode="í"/><glyph d="M184 500h65l-132 -500h-65zM271 684l90 -120l-56 -43l-56 79l-101 -79l-29 44z" glyph-name="icircumflex" horiz-adv-x="177" unicode="î"/><glyph d="M184 500h65l-132 -500h-65zM167 628q5 17 19.5 28t31.5 11t26.5 -11t4.5 -28q-5 -15 -20 -27t-32 -12t-26 12t-4 27zM257 628q5 17 19 28t32 11q16 0 25.5 -11t4.5 -28q-5 -15 -20 -27t-31 -12q-18 0 -26.5 12t-3.5 27z" glyph-name="idieresis" horiz-adv-x="177" unicode="ï"/><glyph d="M157 476q12 43 38.5 81t62.5 66.5t78.5 45.5t86.5 17q43 0 75.5 -16.5t53.5 -45t28.5 -66t-0.5 -79.5q-6 -31 -15.5 -66.5t-17.5 -67.5l-7 -25q-11 -39 -23 -75.5t-28 -71.5q-18 -40 -47.5 -73t-65.5 -57t-76 -37t-80 -13q-49 0 -88.5 26t-62.5 68l72 48 q15 -35 42.5 -54.5t61.5 -19.5q29 0 56.5 10t52 27t44.5 40.5t33 50.5v-1q14 33 25.5 69t22.5 73q-36 -27 -80.5 -44.5t-89.5 -17.5q-42 0 -75 15.5t-54 42.5t-28.5 64t3.5 79zM220 471q-6 -29 -0.5 -53.5t19.5 -43.5t36.5 -29.5t51.5 -10.5q30 0 60 11t55 30.5t44 46 t27 56.5q7 28 2 53.5t-20 45t-38 30.5t-51 11q-31 0 -61 -12t-55 -32.5t-43.5 -47t-26.5 -55.5z" glyph-name="eth" horiz-adv-x="489" unicode="ð"/><glyph d="M450 520q-10 19 -23 29t-24 10q-7 0 -13.5 -1.5t-11.5 -3.5h1q-16 -8 -31.5 -11.5t-31.5 -3.5q-17 0 -35.5 5t-34.5 16l37 77q11 -17 23.5 -27t22.5 -10q7 0 14 2t13 4h-1q15 8 31 11.5t32 3.5q17 0 34 -6.5t36 -18.5zM227 472q62 50 132 50q35 0 62 -14.5t43.5 -40 t21.5 -59.5t-4 -73l-83 -321h-66l85 321q6 25 3.5 47t-12.5 38t-26.5 25.5t-38.5 9.5q-20 0 -42 -9t-42.5 -23.5t-38 -34t-27.5 -40.5q-4 -15 -9 -35.5t-11 -43t-12 -45.5t-11 -41l-45 -169h-67l132 500h67z" glyph-name="ntilde" horiz-adv-x="433" unicode="ñ"/><glyph d="M147 247q-11 -39 -7 -73.5t20 -60.5t43 -41t62 -15q34 0 68.5 15t64 41t51.5 60.5t33 73.5q10 40 6.5 75t-19.5 61t-42 41t-60 15q-35 0 -70 -15t-65 -41t-52.5 -61t-32.5 -75zM80 247q14 54 45.5 101t72.5 82t89.5 55.5t97.5 20.5q48 0 85 -20.5t59.5 -55.5t28 -82 t-8.5 -101q-14 -53 -45 -99.5t-72 -81.5t-89 -55.5t-96 -20.5q-49 0 -86.5 20.5t-60 55.5t-28.5 81.5t8 99.5zM287 632h109l52 -109h-50z" glyph-name="ograve" horiz-adv-x="527" unicode="ò"/><glyph d="M147 247q-11 -39 -7 -73.5t20 -60.5t43 -41t62 -15q34 0 68.5 15t64 41t51.5 60.5t33 73.5q10 40 6.5 75t-19.5 61t-42 41t-60 15q-35 0 -70 -15t-65 -41t-52.5 -61t-32.5 -75zM80 247q14 54 45.5 101t72.5 82t89.5 55.5t97.5 20.5q48 0 85 -20.5t59.5 -55.5t28 -82 t-8.5 -101q-14 -53 -45 -99.5t-72 -81.5t-89 -55.5t-96 -20.5q-49 0 -86.5 20.5t-60 55.5t-28.5 81.5t8 99.5zM415 523h-52l111 109h106z" glyph-name="oacute" horiz-adv-x="527" unicode="ó"/><glyph d="M147 247q-11 -39 -7 -73.5t20 -60.5t43 -41t62 -15q34 0 68.5 15t64 41t51.5 60.5t33 73.5q10 40 6.5 75t-19.5 61t-42 41t-60 15q-35 0 -70 -15t-65 -41t-52.5 -61t-32.5 -75zM80 247q14 54 45.5 101t72.5 82t89.5 55.5t97.5 20.5q48 0 85 -20.5t59.5 -55.5t28 -82 t-8.5 -101q-14 -53 -45 -99.5t-72 -81.5t-89 -55.5t-96 -20.5q-49 0 -86.5 20.5t-60 55.5t-28.5 81.5t8 99.5zM430 670l90 -120l-56 -43l-56 79l-101 -79l-29 44z" glyph-name="ocircumflex" horiz-adv-x="513" unicode="ô"/><glyph d="M147 247q-11 -39 -7 -73.5t20 -60.5t43 -41t62 -15q34 0 68.5 15t64 41t51.5 60.5t33 73.5q10 40 6.5 75t-19.5 61t-42 41t-60 15q-35 0 -70 -15t-65 -41t-52.5 -61t-32.5 -75zM80 247q14 54 45.5 101t72.5 82t89.5 55.5t97.5 20.5q48 0 85 -20.5t59.5 -55.5t28 -82 t-8.5 -101q-14 -53 -45 -99.5t-72 -81.5t-89 -55.5t-96 -20.5q-49 0 -86.5 20.5t-60 55.5t-28.5 81.5t8 99.5zM501 522q-10 23 -22 35.5t-23 12.5q-5 0 -13 -2.5t-13 -4.5h1q-13 -8 -30.5 -13t-32.5 -5q-17 0 -35 6.5t-33 20.5l38 83q21 -41 47 -41q8 0 24 7h-1q34 16 66 16 q17 0 34.5 -6.5t33.5 -19.5z" glyph-name="otilde" horiz-adv-x="513" unicode="õ"/><glyph d="M147 247q-11 -39 -7 -73.5t20 -60.5t43 -41t62 -15q34 0 68.5 15t64 41t51.5 60.5t33 73.5q10 40 6.5 75t-19.5 61t-42 41t-60 15q-35 0 -70 -15t-65 -41t-52.5 -61t-32.5 -75zM80 247q14 54 45.5 101t72.5 82t89.5 55.5t97.5 20.5q48 0 85 -20.5t59.5 -55.5t28 -82 t-8.5 -101q-14 -53 -45 -99.5t-72 -81.5t-89 -55.5t-96 -20.5q-49 0 -86.5 20.5t-60 55.5t-28.5 81.5t8 99.5zM328 628q5 17 19.5 28t31.5 11q16 0 26 -11t5 -28q-5 -15 -20.5 -27t-31.5 -12q-17 0 -26 12t-4 27zM455 628q5 17 19 28t31 11t26.5 -11t4.5 -28q-5 -15 -20 -27 t-32 -12t-25.5 12t-3.5 27z" glyph-name="odieresis" horiz-adv-x="527" unicode="ö"/><glyph d="M217 220h88l-23 -88h-88zM280 453h88l-23 -87h-88zM103 273l18 66h353l-18 -66h-353z" glyph-name="divide" horiz-adv-x="425" unicode="÷"/><glyph d="M80 247q14 54 45.5 101t72.5 82t89.5 55.5t97.5 20.5q51 0 89.5 -24.5t63.5 -66.5l-64 -43q-19 31 -47 49t-60 18q-35 0 -70 -15t-65 -41t-52.5 -61t-32.5 -75q-8 -27 -9 -53.5t6 -49.5l-62 -44q-10 37 -11 73.5t9 73.5zM482 247q8 30 6 59.5t-11 57.5l64 45 q14 -37 16.5 -78t-8.5 -84q-14 -53 -45 -99.5t-72 -81.5t-89 -55.5t-96 -20.5q-55 0 -96.5 27t-64.5 75l61 45q18 -37 49 -58.5t69 -21.5q34 0 68.5 15t64 41t51.5 60.5t33 73.5z" glyph-name="oslash" horiz-adv-x="513" unicode="ø"/><glyph d="M339 41q-29 -23 -62.5 -36.5t-68.5 -13.5q-36 0 -62.5 14.5t-43 40t-20.5 60t5 73.5l83 321h65l-84 -321q-6 -24 -3 -46t12.5 -38.5t26.5 -26t40 -9.5q21 0 42.5 9t41 24t36 34.5t26.5 39.5l89 334h66l-133 -500h-65zM250 632h109l52 -109h-50z" glyph-name="ugrave" horiz-adv-x="450" unicode="ù"/><glyph d="M339 41q-29 -23 -62.5 -36.5t-68.5 -13.5q-36 0 -62.5 14.5t-43 40t-20.5 60t5 73.5l83 321h65l-84 -321q-6 -24 -3 -46t12.5 -38.5t26.5 -26t40 -9.5q21 0 42.5 9t41 24t36 34.5t26.5 39.5l89 334h66l-133 -500h-65zM362 523h-52l111 109h106z" glyph-name="uacute" horiz-adv-x="450" unicode="ú"/><glyph d="M339 41q-29 -23 -62.5 -36.5t-68.5 -13.5q-36 0 -62.5 14.5t-43 40t-20.5 60t5 73.5l83 321h65l-84 -321q-6 -24 -3 -46t12.5 -38.5t26.5 -26t40 -9.5q21 0 42.5 9t41 24t36 34.5t26.5 39.5l89 334h66l-133 -500h-65zM398 670l90 -120l-56 -43l-56 79l-101 -79l-29 44z" glyph-name="ucircumflex" horiz-adv-x="450" unicode="û"/><glyph d="M339 41q-29 -23 -62.5 -36.5t-68.5 -13.5q-36 0 -62.5 14.5t-43 40t-20.5 60t5 73.5l83 321h65l-84 -321q-6 -24 -3 -46t12.5 -38.5t26.5 -26t40 -9.5q21 0 42.5 9t41 24t36 34.5t26.5 39.5l89 334h66l-133 -500h-65zM284 628q5 17 19.5 28t31.5 11q16 0 26 -11t5 -28 q-5 -15 -20.5 -27t-31.5 -12q-17 0 -26 12t-4 27zM411 628q5 17 19 28t31 11t26.5 -11t4.5 -28q-5 -15 -20 -27t-32 -12t-25.5 12t-3.5 27z" glyph-name="udieresis" horiz-adv-x="450" unicode="ü"/><glyph d="M22 -117q24 -8 41 -8q39 0 84 40.5t99 133.5q-8 55 -17 110t-17 111q-8 57 -16.5 118.5t-16.5 117.5h69l51 -376q26 39 49.5 75.5t49.5 75.5q36 55 75 113t75 112h72l-313 -464l1 1q-9 -14 -18.5 -28t-18.5 -28l-35 -55q-18 -29 -41.5 -51.5t-49.5 -38.5t-53 -24t-51 -8 q-22 0 -46 8zM425 523h-52l111 109h106z" glyph-name="yacute" horiz-adv-x="535" unicode="ý"/><glyph d="M247 481q30 13 63.5 20t71.5 7q50 -1 88 -22t61.5 -55.5t30 -81t-7.5 -98.5q-15 -54 -46.5 -101.5t-73.5 -82.5t-91.5 -55.5t-99.5 -20.5q-38 0 -67 8.5t-52 20.5l-55 -206h-67l232 868h67zM146 101q-3 -8 4.5 -15.5t23.5 -13.5t38.5 -9.5t48.5 -4.5q36 1 71.5 16.5 t66.5 41.5t54 60.5t33 73.5q10 38 5.5 72.5t-21.5 60.5t-44.5 41.5t-62.5 15.5q-47 0 -86 -12.5t-53 -27.5z" glyph-name="thorn" horiz-adv-x="517" unicode="þ"/><glyph d="M22 -117q24 -8 41 -8q39 0 84 40.5t99 133.5q-8 55 -17 110t-17 111q-8 57 -16.5 118.5t-16.5 117.5h69l51 -376q26 39 49.5 75.5t49.5 75.5q36 55 75 113t75 112h72l-313 -464l1 1q-9 -14 -18.5 -28t-18.5 -28l-35 -55q-18 -29 -41.5 -51.5t-49.5 -38.5t-53 -24t-51 -8 q-22 0 -46 8zM337 628q5 17 19.5 28t31.5 11q16 0 26 -11t5 -28q-5 -15 -20.5 -27t-31.5 -12q-17 0 -26 12t-4 27zM464 628q5 17 19 28t31 11t26.5 -11t4.5 -28q-5 -15 -20 -27t-32 -12t-25.5 12t-3.5 27z" glyph-name="ydieresis" horiz-adv-x="535" unicode="ÿ"/><glyph d="M36 49l17 66h173l137 510h67l-154 -576h-240z" glyph-name="dotlessi" horiz-adv-x="343" unicode="ı"/><glyph d="M461 664l8 27h57l-8 -27h-57zM103 0h-74l214 338l95 353h67l-45 -165q8 12 15.5 23.5t15.5 22.5q17 28 38 60.5t37 58.5h73l-233 -369l-68 -254h324l-17 -68h-391l35 137z" glyph-name="Lslash" horiz-adv-x="570" unicode="Ł"/><glyph d="M335 681h67l-55 -206q14 16 27.5 32t27.5 33q12 14 25 29.5t24 28.5h77l-217 -258q-9 -32 -20 -75.5t-24 -91.5l-46 -173h-67l58 223q-14 -19 -30 -37t-30 -35q-9 -10 -18.5 -21t-17.5 -21h-81l214 252z" glyph-name="lslash" horiz-adv-x="380" unicode="ł"/><glyph d="M582 88q-56 -47 -118 -72t-128 -25q-63 0 -112.5 27t-80 74.5t-38.5 112.5t12 140q19 73 61 136.5t97.5 111t120 75t129.5 27.5q163 0 214 -129l34 125h411l-18 -66h-343l-60 -224h293l-18 -68h-293l-71 -265h343l-17 -68h-411l32 124q-9 -8 -18.5 -17.5t-20.5 -18.5z M657 552q-23 36 -61.5 55t-89.5 19t-101.5 -22t-94 -60t-76.5 -89t-49 -110q-16 -60 -11 -112t28 -90.5t62 -60.5t91 -22q49 0 97.5 21t91 56.5t76.5 83t54 100.5l12 48q11 56 3 102t-32 81z" glyph-name="OE" horiz-adv-x="1056" unicode="Œ"/><glyph d="M655 57q15 0 35 4.5t41 11t41 14.5l35 14l10 -58q-34 -17 -76 -31t-78 -20q-5 -1 -12 -1h-14q-59 0 -97.5 35.5t-51.5 92.5q-23 -27 -51 -50.5t-58.5 -41t-63 -27.5t-63.5 -10q-48 0 -85.5 20.5t-60.5 55.5t-29 81.5t8 99.5q14 54 45.5 101t73 82t90 55.5t96.5 20.5 q31 0 58 -10t48 -27t36.5 -40t24.5 -50q21 28 45.5 51.5t51.5 40.5t55 26.5t55 9.5q42 0 74 -19.5t50 -53.5t21 -80t-11 -100l-10 -36h-335q-6 -35 -1.5 -64.5t18 -50.5t35 -33.5t50.5 -12.5zM152 247q-11 -39 -7 -73.5t20 -60.5t43 -41t62 -15q34 0 68 15t63.5 41 t51.5 60.5t33 73.5q10 40 6.5 75t-19 61t-41.5 41t-60 15q-35 0 -70 -15t-65 -41t-52.5 -61t-32.5 -75zM838 283q4 33 0 61.5t-16 49.5t-31.5 33t-44.5 12q-23 0 -47.5 -12t-47.5 -33t-43.5 -49.5t-35.5 -61.5h266z" glyph-name="oe" horiz-adv-x="880" unicode="œ"/><glyph d="M122 141q15 -38 46.5 -60t78.5 -22q28 0 56 9t51.5 24.5t41 37t24.5 46.5q6 23 0.5 44.5t-19.5 39.5t-35 30.5t-47 17.5q-41 6 -73 23.5t-52.5 43.5t-27.5 59.5t3 69.5q11 41 37 75.5t62 60t79.5 40t88.5 14.5q60 0 101.5 -22.5t67.5 -64.5l-66 -44q-17 31 -47.5 48.5 t-72.5 17.5q-29 0 -58 -9.5t-54 -26t-43 -38.5t-25 -47t-2.5 -48t18.5 -41.5t36.5 -30t52.5 -14.5q41 -5 72.5 -23t51 -44t25.5 -59t-4 -69q-11 -39 -36.5 -73.5t-61 -60t-78 -40t-86.5 -14.5q-64 0 -107.5 29t-63.5 77zM423 698l-88 120l54 43l57 -79l100 79l30 -44z" glyph-name="Scaron" horiz-adv-x="485" unicode="Š"/><glyph d="M431 392q-17 22 -45.5 34t-60.5 12q-42 0 -76 -18.5t-42 -48.5q-8 -29 15 -54t68 -33q32 -6 57 -20.5t41 -35t21.5 -46t-1.5 -52.5q-8 -30 -28 -55.5t-48 -44t-61.5 -28.5t-67.5 -10q-45 0 -86 20t-62 58l61 38q16 -21 43 -35.5t59 -14.5q22 0 42.5 5.5t37 15t28 22.5 t15.5 29q7 28 -18 54t-62 37q-32 5 -57 20t-41.5 35.5t-23 45t0.5 50.5q8 30 28.5 54.5t48.5 42t61.5 27t68.5 9.5q48 0 87 -20.5t61 -53.5zM339 507l-88 120l54 43l57 -79l100 79l30 -44z" glyph-name="scaron" horiz-adv-x="417" unicode="š"/><glyph d="M837 691l-388 -382l-40 -150q-11 -39 -21 -80.5t-20 -78.5h-69l81 309q-12 26 -25 53t-26 56q-15 32 -32 68t-34.5 71.5t-34 70t-30.5 63.5h89l145 -315q22 22 42 42.5t42 42.5q57 57 116.5 115.5t116.5 114.5h88zM425 731q5 17 19.5 28t31.5 11q16 0 26 -11t5 -28 q-5 -15 -20.5 -27t-31.5 -12q-17 0 -26 12t-4 27zM552 731q5 17 19 28t31 11t26.5 -11t4.5 -28q-5 -15 -20 -27t-32 -12t-25.5 12t-3.5 27z" glyph-name="Ydieresis" horiz-adv-x="681" unicode="Ÿ"/><glyph d="M154 68h342l-17 -68h-466l555 623h-349l19 68h470zM454 698l-88 120l54 43l57 -79l100 79l30 -44z" glyph-name="Zcaron" horiz-adv-x="548" unicode="Ž"/><glyph d="M51 60l381 373h-278l17 67h372l-16 -60l-381 -373h281l-16 -67h-375zM356 507l-88 120l54 43l57 -79l100 79l30 -44z" glyph-name="zcaron" horiz-adv-x="452" unicode="ž"/><glyph d="M455 613q-18 5 -27.5 5.5t-15.5 0.5q-18 -1 -36 -10.5t-33.5 -25t-28 -37t-18.5 -45.5l-3 -12h124l-18 -67h-124l-55 -204q-14 -54 -28.5 -110.5t-28.5 -107.5l-58 6q19 78 38 154q8 32 17 67t18 69.5t17 66.5t16 59h-71l18 67h70l6 23q11 35 32 66.5t47.5 55t57 37.5 t59.5 14q14 0 27 -0.5t36 -3.5z" glyph-name="florin" horiz-adv-x="328" unicode="ƒ"/><glyph d="M313 670l90 -120l-56 -43l-56 79l-101 -79l-29 44z" glyph-name="circumflex" horiz-adv-x="268" unicode="ˆ"/><glyph d="M270 507l-88 120l54 43l57 -79l100 79l30 -44z" glyph-name="caron" horiz-adv-x="276" unicode="ˇ"/><glyph glyph-name="breve" horiz-adv-x="833" unicode="˘"/><glyph d="M201 646h88l-24 -88h-88z" glyph-name="dotaccent" horiz-adv-x="148" unicode="˙"/><glyph glyph-name="ring" horiz-adv-x="833" unicode="˚"/><glyph glyph-name="ogonek" horiz-adv-x="833" unicode="˛"/><glyph d="M404 522q-10 23 -22 35.5t-23 12.5q-5 0 -13 -2.5t-13 -4.5h1q-13 -8 -30.5 -13t-32.5 -5q-17 0 -35 6.5t-33 20.5l38 83q21 -41 47 -41q8 0 24 7h-1q34 16 66 16q17 0 34.5 -6.5t33.5 -19.5z" glyph-name="tilde" horiz-adv-x="334" unicode="˜"/><glyph d="M213 523h-54l111 109h107zM410 523h-53l111 109h107z" glyph-name="hungarumlaut" horiz-adv-x="418" unicode="˝"/><glyph d="M100 259l18 66h353l-18 -66h-353z" glyph-name="endash" horiz-adv-x="416" unicode="–"/><glyph d="M102 259l18 66h461l-18 -66h-461z" glyph-name="emdash" horiz-adv-x="532" unicode="—"/><glyph d="M260 532l-73 -30l-13 73l80 109l24 -14l-31 -78z" glyph-name="quoteleft" horiz-adv-x="150" unicode="‘"/><glyph d="M224 676l73 5l-12 -78l-108 -88l-16 21l52 69z" glyph-name="quoteright" horiz-adv-x="159" unicode="’"/><glyph d="M84 88h73l-21 -80l-117 -81l-10 27l57 64z" glyph-name="quotesinglbase" horiz-adv-x="172" unicode="‚"/><glyph d="M325 605q3 -14 5.5 -30t6.5 -30q0 -2 0.5 -4.5t0.5 -4.5l-26 -21l-60 88l30 78l71 -5zM256 605q3 -14 5.5 -30t6.5 -30q0 -2 0.5 -4.5t0.5 -4.5l-26 -21l-60 88l30 78l71 -5z" glyph-name="quotedblleft" horiz-adv-x="218" unicode="“"/><glyph d="M224 676l73 5l-12 -78l-108 -88l-14 21l51 69zM293 676l73 5l-12 -78l-108 -88l-14 21l51 69z" glyph-name="quotedblright" horiz-adv-x="237" unicode="”"/><glyph d="M73 89h73l-21 -78l-114 -82l-10 25l55 64zM145 89h71l-21 -80l-115 -82l-9 26l55 65z" glyph-name="quotedblbase" horiz-adv-x="231" unicode="„"/><glyph d="M174 529l14 52h178l33 124h51l-33 -124h187l-14 -52h-187l-141 -528h-51l141 528h-178z" glyph-name="dagger" horiz-adv-x="486" unicode="†"/><glyph d="M146 466h344l-18 -68h-344zM104 308h344l-18 -69h-344zM159 0l181 681h69l-182 -681h-68z" glyph-name="daggerdbl" horiz-adv-x="408" unicode="‡"/><glyph d="M131 376q4 15 13.5 28t22.5 23t27.5 16t29.5 6q29 0 45 -22t8 -51q-3 -14 -12.5 -26.5t-22.5 -22t-28 -15.5t-29 -6q-29 0 -45 21.5t-9 48.5z" glyph-name="bullet" horiz-adv-x="209" unicode="•"/><glyph d="M55 88h88l-22 -88h-88zM192 88h88l-22 -88h-88zM329 88h88l-22 -88h-88z" glyph-name="ellipsis" horiz-adv-x="435" unicode="…"/><glyph d="M684 681h78l-577 -680h-76zM781 186q-11 -44 5 -74t51 -30q18 0 36.5 8t34 22t27.5 33t18 41q12 44 -5.5 74t-54.5 30q-17 0 -34.5 -8t-32.5 -22t-27 -33t-18 -41zM714 186q10 35 30.5 66t47 54t57.5 36t62 13q32 0 57 -13t39.5 -36t18.5 -54t-6 -66q-9 -36 -29.5 -67 t-47.5 -54t-59 -36t-64 -13q-31 0 -55 13t-38.5 36t-18 54t5.5 67zM244 492q-5 -21 -3 -39.5t10 -33t22 -23t32 -8.5q16 0 34 8.5t33.5 23t27.5 33t17 39.5q6 22 4 41t-9.5 33t-21 22t-29.5 8q-18 0 -36.5 -8t-34.5 -22t-28 -33t-18 -41zM178 492q10 36 30.5 67t47.5 54 t58.5 36t64.5 13q31 0 55 -13t38.5 -36t18 -54t-6.5 -67q-9 -35 -29.5 -66t-47 -54t-57.5 -36.5t-62 -13.5q-33 0 -57.5 13.5t-39.5 36.5t-18.5 54t5.5 66zM469 186q-6 -22 -4 -41t9.5 -33t20.5 -22t31 -8t36.5 8t34 22t27.5 33t18 41q12 44 -6 74t-54 30q-18 0 -35.5 -8 t-32.5 -22t-27 -33t-18 -41zM402 186q10 35 30.5 66t47.5 54t58 36t62 13q32 0 57 -13t39.5 -36t18.5 -54t-6 -66q-9 -36 -29.5 -67t-47.5 -54t-59 -36t-64 -13q-31 0 -55 13t-39 36t-18.5 54t5.5 67z" glyph-name="perthousand" horiz-adv-x="1040" unicode="‰"/><glyph d="M413 500l35 -47l-258 -205q17 -23 34 -46.5t36 -48.5q19 -26 40 -53.5t39 -51.5l-59 -49l-184 249z" glyph-name="guilsinglleft" horiz-adv-x="352" unicode="‹"/><glyph d="M393 248l-317 -249l-34 49l258 200q-35 50 -74.5 103t-74.5 102l60 47z" glyph-name="guilsinglright" horiz-adv-x="343" unicode="›"/><glyph d="M101 0h-72l430 681h71z" glyph-name="fraction" horiz-adv-x="382" unicode="⁄"/><glyph d="M731 110q-65 -53 -137.5 -86t-144.5 -33q-58 0 -104 19t-78.5 53t-49 81t-14.5 103h-103l18 67h94v3q1 5 2.5 11t2.5 9q2 9 5.5 19t6.5 18l1 3h-95l18 68h107q30 54 72 98t91.5 75.5t103.5 49t108 17.5q72 0 127 -33t91 -86l-61 -48q-30 46 -73 72.5t-102 26.5 q-40 0 -80 -13t-77.5 -35.5t-70 -54.5t-57.5 -69h318l-18 -68h-334q-5 -9 -8 -19t-6 -21q-3 -8 -3 -16q-2 -3 -1.5 -4.5t0.5 -2.5h335l-18 -67h-321q3 -39 18 -73.5t40 -60t59 -40t74 -14.5q58 0 116 27.5t114 76.5z" glyph-name="Euro" horiz-adv-x="745" unicode="€"/><glyph d="M255 454h-57l44 165h-57l15 54h169l-15 -54h-55zM541 673l-59 -219h-56l26 97q-10 -11 -16.5 -20t-11.5 -14h-31l-10 32l-26 -95h-56l59 219h45l25 -76q7 8 17.5 21t17.5 21q3 3 6 6.5t6 7.5q5 5 10 10.5t9 9.5h45z" glyph-name="trademark" horiz-adv-x="417" unicode="™"/><glyph d="M100 259l18 66h353l-18 -66h-353z" glyph-name="minus" horiz-adv-x="417" unicode="−"/><glyph d="M455 613q-18 5 -27.5 5.5t-15.5 0.5q-18 -1 -36 -10.5t-33.5 -25t-28 -37t-18.5 -45.5l-3 -12h123l-130 -489h-65l112 422h-58l-55 -204q-14 -54 -28.5 -110.5t-28.5 -107.5h-64l112 422h-71l18 67h70l6 23q11 35 32 66.5t47.5 55t57 37.5t59.5 14q14 0 27 -0.5t36 -3.5z" glyph-name="fi" horiz-adv-x="505" unicode="ﬁ"/><glyph d="M490 685l-182 -685h-68l112 422h-77l-55 -204q-14 -54 -28.5 -110.5t-28.5 -107.5h-64l112 422h-71l18 67h70q0 2 0.5 3.5t0.5 3.5v3l4 13q11 36 32 67t47.5 54.5t57 37t60.5 14.5h60zM293 489h77l34 129q-35 -7 -65.5 -39.5t-42.5 -77.5zM412 619h22l-22 30l-6 -24z" glyph-name="fl" horiz-adv-x="490" unicode="ﬂ"/><glyph d="M220 -5q-42 7 -74 30t-51 57.5t-23.5 78t8.5 91.5t41 92t65.5 78.5t82 57.5t89.5 30l18 66h71l-18 -66q41 -7 71.5 -29.5t52.5 -56.5l-61 -49q-13 26 -33 43.5t-48 23.5l-102 -380q29 6 57 22.5t57 41.5l37 -47q-42 -34 -84.5 -56t-84.5 -29l-18 -67h-71zM148 252 q-9 -35 -7 -66.5t14 -57t33 -43t50 -23.5l102 380q-33 -7 -63.5 -24.5t-56 -42.5t-44.5 -56.5t-28 -66.5z" glyph-name="glyph107" horiz-adv-x="478"/><glyph glyph-name="glyph217" horiz-adv-x="0"/></font>
</defs>
</svg>
