<?xml version="1.0" standalone="no"?>
<!DOCTYPE svg PUBLIC "-//W3C//DTD SVG 1.1//EN" "http://www.w3.org/Graphics/SVG/1.1/DTD/svg11.dtd" >
<svg xmlns="http://www.w3.org/2000/svg" xmlns:xlink="http://www.w3.org/1999/xlink" version="1.1">
<metadata>
Created by FontForge 20201107 at Fri Feb 17 18:11:37 2017
 By 
Copyright (c) 1996-2015 Pushpananda Ekanayake (pushpanandae@gmail.com) Copyright (c) 2015 Sol Matas (sol@sonnenshine.com.ar) Copyright (c) 2015 Mooniak (hello@mooniak.com)
</metadata>
<defs>
<font id="AbhayaLibre-SemiBold" horiz-adv-x="583" >
  <font-face 
    font-family="Abhaya Libre SemiBold"
    font-weight="600"
    font-stretch="normal"
    units-per-em="1024"
    panose-1="2 0 7 3 0 0 0 0 0 0"
    ascent="819"
    descent="-205"
    x-height="427"
    cap-height="600"
    bbox="-580 -340 1647 855"
    underline-thickness="0"
    underline-position="0"
    unicode-range="U+0020-FB02"
  />
<missing-glyph horiz-adv-x="631" 
d="M50 -93v847h531v-847h-531zM264 101q0 23 21 31q6 2 11 2q23 0 31 -22q2 -6 2 -11q0 -23 -22 -31q-6 -2 -11 -2q-23 0 -30 22q-2 5 -2 11zM117 683v-709h397v709h-397zM187 479q49 63 123 64q87 0 121 -69q14 -29 15 -65q1 -89 -72 -126q-26 -12 -50 -13v-110h-55v158
q92 2 113 45q9 18 9 43q0 52 -41 75q-20 11 -42 11q-51 -1 -86 -47z" />
    <glyph glyph-name="fi" unicode="fi" horiz-adv-x="589" 
d="M250 26h-50v375h200v-323q0 -43 -37 -50q-12 -2 -28 -2v-26h233q0 23 -13 25q-5 1 -11 1h-47v401h-297v6q0 153 56 186q21 12 53 12q44 0 66 -42q3 -5 8 -17q18 -40 37 -50q14 -7 31 -7q38 0 49 31q3 8 3 15q0 42 -56 70q-48 24 -117 24q-149 0 -202 -101
q-24 -47 -24 -112v-15h-75v-26h75v-323q-2 -52 -76 -52v-26h246q0 23 -13 25q-5 1 -11 1z" />
    <glyph glyph-name="fl" unicode="fl" horiz-adv-x="599" 
d="M578 0q0 23 -13 25q-5 1 -11 1h-53v624h-131q-49 5 -81 5q-108 0 -156 -85q-29 -53 -29 -128v-15h-75v-26h75v-323q-2 -52 -76 -52v-26h242q0 23 -13 25q-5 1 -11 1h-46v375h106v26h-106v6q0 141 40 176q23 20 64 20q53 0 100 -19v-530q0 -42 -30 -50q-15 -4 -40 -4v-26
h244z" />
    <glyph glyph-name=".notdef" horiz-adv-x="631" 
d="M50 -93v847h531v-847h-531zM264 101q0 23 21 31q6 2 11 2q23 0 31 -22q2 -6 2 -11q0 -23 -22 -31q-6 -2 -11 -2q-23 0 -30 22q-2 5 -2 11zM117 683v-709h397v709h-397zM187 479q49 63 123 64q87 0 121 -69q14 -29 15 -65q1 -89 -72 -126q-26 -12 -50 -13v-110h-55v158
q92 2 113 45q9 18 9 43q0 52 -41 75q-20 11 -42 11q-51 -1 -86 -47z" />
    <glyph glyph-name=".null" horiz-adv-x="0" 
 />
    <glyph glyph-name="nonmarkingreturn" horiz-adv-x="341" 
 />
    <glyph glyph-name="space" unicode=" " horiz-adv-x="195" 
 />
    <glyph glyph-name="exclam" unicode="!" horiz-adv-x="261" 
d="M146 177q0 123 31 266q15 68 15 100q-2 66 -61 67q-61 -2 -62 -68q0 -30 20 -125q25 -119 25 -240h32zM189 54q0 36 -32 53q-13 7 -27 7q-37 0 -53 -34q-6 -13 -6 -26q0 -38 34 -54q12 -5 25 -5q36 0 53 33q6 13 6 26z" />
    <glyph glyph-name="quotedbl" unicode="&#x22;" horiz-adv-x="307" 
d="M88 657q-39 0 -47 -32q-1 -6 -1 -11q0 -13 18 -88q12 -47 15 -84h28q3 33 27 128q7 30 7 45q0 34 -35 41q-6 1 -12 1zM220 657q-39 0 -47 -32q-1 -6 -1 -11q0 -14 19 -89q11 -47 15 -83h28q3 34 26 129q7 29 7 44q0 34 -35 41q-6 1 -12 1z" />
    <glyph glyph-name="numbersign" unicode="#" horiz-adv-x="579" 
d="M318 -10h34l27 204h127v50h-121l16 122h118v50h-111l24 184h-34l-24 -184h-136l24 184h-34l-24 -184h-131v-50h124l-16 -122h-121v-50h115l-27 -204h34l27 204h136zM351 244h-136l16 122h136z" />
    <glyph glyph-name="dollar" unicode="$" horiz-adv-x="549" 
d="M172 489q0 71 72 88q11 3 22 4v-212q-91 54 -94 120zM399 129q-2 -94 -104 -108v232q82 -43 99 -91q5 -16 5 -33zM295 -91v83q127 9 180 81q28 38 28 88q0 82 -92 136q-14 9 -112 55q-3 1 -4 2v228q54 -3 69 -49q3 -8 7 -26q9 -43 27 -55q15 -9 37 -9q45 0 51 45
q1 6 1 12q0 58 -81 90q-50 19 -111 20v89h-29v-90q-118 -7 -170 -71q-29 -36 -29 -83q0 -81 94 -137q21 -12 105 -51v-248h-6q-63 0 -79 49q-4 10 -8 31q-9 46 -26 59q-16 11 -41 11q-45 0 -57 -39q-3 -11 -3 -21q0 -59 77 -92q59 -26 143 -26v-82h29z" />
    <glyph glyph-name="percent" unicode="%" horiz-adv-x="817" 
d="M198 -31l434 641l-32 21l-435 -641zM214 621q-90 0 -135 -69q-27 -43 -27 -100q0 -105 74 -150q38 -23 85 -23q91 0 135 70q27 43 27 100q0 111 -79 153q-36 19 -80 19zM213 299q-49 0 -62 62q-7 32 -7 88q0 124 41 145q12 6 27 6q48 0 61 -60q7 -34 7 -88
q0 -138 -52 -151q-8 -2 -15 -2zM601 332q-90 0 -135 -69q-27 -43 -27 -100q0 -105 74 -150q38 -23 85 -23q91 0 135 70q27 43 27 100q0 111 -79 153q-36 19 -80 19zM600 10q-49 0 -62 62q-7 33 -7 88q0 124 41 145q12 6 27 6q48 0 61 -60q7 -34 7 -88q0 -138 -52 -151
q-8 -2 -15 -2z" />
    <glyph glyph-name="ampersand" unicode="&#x26;" horiz-adv-x="591" 
d="M234 506q0 57 44 73q13 5 26 5q56 0 68 -50q3 -12 3 -24q0 -47 -50 -85q-25 -18 -56 -28q-35 69 -35 109zM270 20q-136 2 -137 182q0 101 50 133q7 5 14 7q66 -128 196 -281q-56 -41 -123 -41zM527 319h-1h3l31 1q23 0 26 12q2 7 2 15h-144v-26h55q0 -109 -45 -188
q-113 135 -174 242q81 25 112 89q11 24 11 46q0 68 -60 91q-23 9 -49 9q-89 0 -126 -61q-17 -28 -17 -65q1 -48 35 -120q-125 -36 -150 -141q-5 -23 -5 -47q0 -91 70 -144q56 -42 137 -42q102 1 172 52q2 -2 4 -4.5t4.5 -5.5t4 -4.5t4.5 -5t4.5 -4.5t4.5 -4.5t3.5 -4.5
t4.5 -5l4 -4h155q0 23 -16 25q-4 1 -9 1h-29q-37 40 -76 85q54 85 54 208z" />
    <glyph glyph-name="quotesingle" unicode="'" horiz-adv-x="180" 
d="M91 657q-41 0 -49 -31q-2 -6 -2 -12q0 -14 19 -85q13 -49 17 -87h28q4 36 29 127q8 31 8 46q0 33 -35 40q-8 2 -15 2z" />
    <glyph glyph-name="parenleft" unicode="(" horiz-adv-x="336" 
d="M312 650q-141 -38 -213 -183q-49 -101 -49 -221q0 -168 89 -282q68 -86 170 -114l10 26q-124 45 -158 242q-10 61 -10 130q0 208 85 313q37 45 85 63z" />
    <glyph glyph-name="parenright" unicode=")" horiz-adv-x="337" 
d="M25 650q141 -38 213 -183q49 -101 49 -221q0 -168 -89 -282q-68 -86 -170 -114l-10 26q124 45 158 242q10 61 10 130q0 208 -85 313q-37 45 -85 63z" />
    <glyph glyph-name="asterisk" unicode="*" horiz-adv-x="354" 
d="M178 650q-35 0 -40 -26q-1 -4 -1 -8q0 -10 18 -65q8 -28 12 -50q-12 10 -57 59q-28 29 -44 30q-24 0 -35 -29q-4 -10 -4 -18q1 -19 16 -28q8 -4 68 -17q27 -7 48 -14q-15 -6 -86 -22q-21 -5 -31 -10q-15 -10 -16 -26q0 -26 22 -41q9 -6 19 -6q18 0 53 40q31 36 47 49
q-3 -17 -24 -86q-6 -20 -6 -31q7 -29 40 -33q35 0 40 26q1 5 1 8q0 10 -18 66q-9 28 -13 50q10 -8 55 -57q30 -32 47 -33q24 0 35 29q4 10 4 18q-1 19 -16 28q-8 4 -67 17q-28 7 -48 14q10 4 85 21q20 6 30 11q16 10 17 26q0 25 -22 41q-10 6 -19 6q-19 0 -52 -39
q-33 -38 -49 -51q3 15 25 86q6 21 6 32q0 28 -32 32q-4 1 -8 1z" />
    <glyph glyph-name="plus" unicode="+" horiz-adv-x="460" 
d="M422 215v38h-167v179h-49v-179h-167v-38h167v-179h49v179h167z" />
    <glyph glyph-name="comma" unicode="," horiz-adv-x="191" 
d="M159 44q0 54 -40 69q-11 4 -23 4q-36 0 -51 -35q-5 -12 -5 -24q0 -38 37 -53q5 -2 10 -3q23 -6 24 -20q-1 -29 -42 -72l21 -15q64 76 69 149z" />
    <glyph glyph-name="short_dash1" unicode="-" horiz-adv-x="325" 
d="M43 231h217v-44h-217v44z" />
    <glyph glyph-name="period" unicode="." horiz-adv-x="197" 
d="M158 54q0 36 -32 53q-13 7 -27 7q-37 0 -53 -34q-6 -13 -6 -26q0 -38 34 -54q12 -5 25 -5q36 0 53 33q6 13 6 26z" />
    <glyph glyph-name="slash" unicode="/" horiz-adv-x="421" 
d="M70 -155l341 865h-70l-341 -865h70z" />
    <glyph glyph-name="zero" unicode="0" horiz-adv-x="541" 
d="M274 544q-118 0 -183 -93q-50 -73 -50 -181q0 -165 97 -238q56 -42 132 -42q118 0 182 95q49 73 49 182q0 175 -106 244q-52 33 -121 33zM273 16q-80 0 -106 97q-15 58 -15 154q0 209 79 243q19 8 41 8q79 0 104 -97q14 -56 14 -150q0 -214 -79 -248q-17 -7 -38 -7z" />
    <glyph glyph-name="one" unicode="1" horiz-adv-x="428" 
d="M226 534l-206 -134l18 -28l151 94v-431l-133 -9v-26h357q0 22 -20 26q-4 1 -8 1l-94 8v499h-65z" />
    <glyph glyph-name="two" unicode="2" horiz-adv-x="478" 
d="M85 82q0 34 73 77q16 9 50 28q112 61 152 103q50 51 50 109q0 97 -101 131q-42 14 -92 14q-99 0 -152 -51q-33 -32 -33 -76q0 -46 33 -57q8 -3 16 -3q45 0 54 44q2 11 4 33q5 54 22 70q17 14 47 14q75 0 93 -75q4 -19 4 -39q0 -99 -81 -163q-11 -8 -88 -58
q-71 -46 -92 -92q-14 -31 -14 -67v-24h392l1 176h-20l-17 -50q-12 -36 -40 -42q-12 -2 -33 -2h-228z" />
    <glyph glyph-name="three" unicode="3" horiz-adv-x="515" 
d="M446 511v23h-384l-2 -172h23l18 52q13 35 45 40l14 2l179 -1l-178 -204l24 -20q36 15 69 15q73 0 99 -75q11 -31 11 -68q-2 -156 -144 -157q-55 0 -67 49q-2 11 -4 33q-5 50 -22 63q-13 10 -34 10q-44 0 -52 -42q-1 -7 -1 -13q0 -73 84 -107q48 -19 109 -19q129 0 195 84
q39 51 39 113q0 81 -63 126q-48 34 -117 34q-34 0 -66 -7z" />
    <glyph glyph-name="four" unicode="4" horiz-adv-x="511" 
d="M470 -68q0 24 -13 26q-5 1 -11 1h-66v127h90v30h-90v203h-22l-11 -40q-11 -36 -34 -42q-10 -2 -23 -2h-8v-118l-229 1q218 182 285 273q45 60 45 101q-9 49 -58 54q-39 0 -58 -39q-6 -14 -18 -49q-38 -112 -93 -188q-59 -79 -148 -152l6 -30l268 -1v-128h-110v-27h298z
" />
    <glyph glyph-name="five" unicode="5" horiz-adv-x="495" 
d="M461 115q0 99 -77 151q-51 34 -121 34q-79 -1 -139 -40v190q82 -8 137 -8q106 0 134 27q25 27 25 105h-25q-9 -32 -38 -41q-23 -6 -70 -6q-29 0 -110 4q-55 2 -86 3v-287l33 -25q50 41 109 41q87 0 115 -84q10 -31 10 -68q0 -120 -75 -154q-25 -11 -55 -11q-54 0 -64 48
q-2 10 -4 33q-4 50 -21 64q-14 10 -36 10q-44 0 -53 -40q-1 -8 -1 -15q0 -64 68 -101q47 -25 111 -25q123 0 189 75q44 51 44 120z" />
    <glyph glyph-name="six" unicode="6" horiz-adv-x="525" 
d="M484 186q0 102 -79 154q-51 32 -117 32q-73 -1 -131 -42q9 189 70 237q26 21 63 21q58 0 69 -45q3 -9 5 -28q6 -43 22 -55q13 -8 34 -8q43 0 52 41q2 8 2 16q0 53 -65 83q-47 22 -109 22q-145 0 -211 -131q-41 -80 -41 -192q0 -192 102 -265q50 -36 117 -36q115 0 177 77
q40 52 40 119zM154 174q0 138 85 163q15 4 32 4q109 -2 110 -155q-1 -169 -113 -170q-93 0 -111 110q-3 23 -3 48z" />
    <glyph glyph-name="seven" unicode="7" horiz-adv-x="462" 
d="M466 510v24h-433l-2 -178h23l18 52q14 38 46 43q12 2 32 2h241q-38 -56 -105 -150q-133 -190 -162 -248q-24 -48 -24 -80q0 -44 42 -53q9 -2 17 -2q40 0 56 33q5 12 29 101q60 220 222 456z" />
    <glyph glyph-name="eight" unicode="8" horiz-adv-x="541" 
d="M256 -10q108 0 174 59q49 46 50 110q0 78 -93 139q-18 11 -42 25q81 44 96 120q3 13 3 26q0 90 -86 127q-41 18 -92 18q-103 0 -157 -61q-35 -40 -35 -97q0 -76 95 -136q11 -6 23 -13q-105 -32 -130 -117q-6 -22 -6 -43q0 -84 78 -128q52 -29 122 -29zM165 495
q0 66 68 84q21 6 45 6q73 0 110 -49q21 -29 21 -67q0 -67 -63 -113q-13 -10 -29 -18q-89 49 -117 77q-35 36 -35 80zM91 149q0 68 62 110q31 20 72 29q91 -50 118 -73q44 -41 45 -88q0 -74 -79 -99q-29 -9 -64 -9q-78 0 -123 49q-31 35 -31 81z" />
    <glyph glyph-name="nine" unicode="9" horiz-adv-x="527" 
d="M479 251q0 179 -99 253q-54 40 -128 40q-120 0 -177 -79q-34 -47 -34 -109q0 -107 88 -153q47 -25 109 -25q75 1 133 43q-4 -217 -83 -262q-24 -13 -53 -13q-57 0 -69 47q-3 9 -5 28q-6 45 -23 57q-13 8 -33 8q-43 0 -54 -37q-2 -8 -2 -17q0 -55 66 -88q47 -24 107 -24
q146 0 214 127q43 83 43 204zM144 371q2 146 109 147q96 0 113 -112q3 -22 3 -46q0 -133 -93 -149q-12 -2 -24 -2q-107 2 -108 162z" />
    <glyph glyph-name="colon" unicode=":" horiz-adv-x="205" 
d="M160 334q0 36 -32 52q-13 6 -26 6q-36 0 -52 -33q-5 -12 -5 -25q0 -39 34 -53q11 -5 23 -5q37 0 52 33q6 12 6 25zM160 102q0 36 -31 53q-13 7 -27 7q-35 0 -51 -33q-6 -13 -6 -27q0 -37 34 -52q11 -5 23 -5q37 0 52 32q6 13 6 25z" />
    <glyph glyph-name="semicolon" unicode=";" horiz-adv-x="191" 
d="M155 290q0 36 -32 52q-13 6 -26 6q-36 0 -52 -33q-5 -12 -5 -25q0 -37 34 -52q11 -5 23 -5q37 0 52 32q6 13 6 25zM159 59q0 56 -42 70q-9 3 -21 3q-37 0 -51 -34q-5 -12 -5 -25q0 -39 38 -52q5 -2 9 -3q23 -7 24 -20q-1 -29 -42 -72l21 -16q61 64 68 135q1 8 1 14z" />
    <glyph glyph-name="less" unicode="&#x3c;" horiz-adv-x="454" 
d="M399 72l16 37l-310 127l310 128l-14 34l-362 -148v-30z" />
    <glyph glyph-name="equal" unicode="=" horiz-adv-x="460" 
d="M422 270v38h-383v-38h383zM422 160v38h-383v-38h383z" />
    <glyph glyph-name="greater" unicode="&#x3e;" horiz-adv-x="454" 
d="M55 398l-16 -37l310 -127l-310 -128l13 -34l363 148v30z" />
    <glyph glyph-name="question" unicode="?" horiz-adv-x="461" 
d="M224 177q0 79 66 140q11 10 34 29q55 45 71 75q15 28 15 60q0 88 -97 117q-38 12 -84 12q-93 0 -144 -44q-28 -27 -29 -60q8 -49 53 -53q41 0 50 39l3 24q5 46 23 58q15 10 38 10q77 -2 78 -84q0 -71 -41 -135q-39 -60 -46 -76q-22 -49 -22 -112h32zM269 54q0 36 -32 53
q-13 7 -27 7q-37 0 -53 -34q-6 -13 -6 -26q0 -38 34 -54q12 -5 25 -5q36 0 53 33q6 13 6 26z" />
    <glyph glyph-name="at" unicode="@" horiz-adv-x="894" 
d="M674 -118l-12 25q-87 -42 -177 -42q-141 0 -236 97q-97 100 -97 255q0 171 100 265q78 73 199 73q134 0 218 -95t84 -252q0 -112 -54 -156q-21 -17 -43 -17q-44 2 -45 58v184q-2 141 -157 142q-110 0 -144 -50q-10 -15 -10 -30q0 -31 30 -39q6 -1 12 -1q35 0 46 33
q1 4 4 14q9 35 27 44q12 5 27 5q62 0 69 -71q1 -11 1 -23v-58q-200 -2 -233 -84q-8 -18 -8 -42q0 -79 73 -100q21 -6 44 -6q72 0 112 53q9 13 15 27q14 -80 125 -81q96 0 149 76q39 57 39 138q0 194 -139 291q-98 68 -234 68q-200 0 -311 -128q-91 -106 -91 -263
q0 -165 123 -268q114 -95 274 -95q116 0 220 53zM429 51q-44 0 -54 54q-2 12 -2 26q0 68 89 83q24 3 54 4v-78q-16 -67 -64 -85q-12 -4 -23 -4z" />
    <glyph glyph-name="A" unicode="A" horiz-adv-x="627" 
d="M627 0q0 23 -15 25q-5 1 -10 1h-32l-232 574h-53l-222 -574h-63v-26h180q0 22 -13 25q-6 1 -12 1h-52l74 194h205l75 -194h-67v-26h237zM370 249h-182l91 237z" />
    <glyph glyph-name="B" unicode="B" horiz-adv-x="600" 
d="M522 464q0 83 -84 118q-46 18 -108 18h-298v-26h80v-548h-80v-26h308q132 0 192 82q31 42 31 93q0 87 -81 129q-33 16 -74 22q79 28 105 93q9 23 9 45zM293 574q109 0 116 -105v-13q0 -74 -55 -104q-26 -13 -59 -13h-76v235h74zM317 312q87 0 116 -77q10 -28 10 -59
q0 -89 -56 -129q-31 -21 -73 -21h-95v286h98z" />
    <glyph glyph-name="C" unicode="C" horiz-adv-x="614" 
d="M547 43q-1 -41 14 -46q7 -2 18 -2v192h-27q-49 -167 -198 -168q-174 0 -187 245q-1 19 -1 38q0 204 112 261q36 18 81 18q140 -2 189 -165h28l-3 189q-24 0 -28 -16q-2 -11 -2 -32q-81 53 -193 53q-162 0 -248 -118q-60 -83 -60 -191q0 -129 81 -218q87 -93 229 -93
q100 1 195 53z" />
    <glyph glyph-name="D" unicode="D" horiz-adv-x="675" 
d="M32 600v-26h80v-548h-80v-26h285q136 0 225 84q87 83 87 215q0 170 -126 250q-80 51 -186 51h-285zM317 574q139 0 176 -136q15 -55 15 -134q-7 -273 -190 -278h-99v548h98z" />
    <glyph glyph-name="E" unicode="E" horiz-adv-x="561" 
d="M513 415l-4 185h-477v-26h80v-548h-80v-26h477l4 185h-23l-18 -56q-27 -89 -88 -101q-11 -2 -23 -2h-142v269h201v29h-201v250h142q79 0 109 -96q1 -4 2 -7l18 -56h23z" />
    <glyph glyph-name="F" unicode="F" horiz-adv-x="521" 
d="M339 0v26h-120v269h201v29h-201v250h142q82 -1 111 -103l18 -58h23l-4 187h-477v-26h80v-548h-80v-26h307z" />
    <glyph glyph-name="G" unicode="G" horiz-adv-x="694" 
d="M404 272v-26h87v-172q-54 -53 -133 -53q-165 0 -186 209q-3 32 -3 69q0 266 171 281q10 1 20 1q104 0 152 -75q25 -41 42 -109h28l-5 201l-90 -18q-65 30 -138 30q-127 0 -212 -81q-90 -85 -90 -226q0 -167 119 -254q81 -59 184 -59q84 0 148 37l100 -27v246h71v26h-265z
" />
    <glyph glyph-name="H" unicode="H" horiz-adv-x="725" 
d="M299 0q0 22 -16 25q-5 1 -10 1h-54v269h286v-269h-80v-26h268q-8 24 -27 26h-54v548h81v26h-268v-26h80v-250h-286v250h80v26h-267v-26h80v-548h-80v-26h267z" />
    <glyph glyph-name="I" unicode="I" horiz-adv-x="331" 
d="M299 0q0 22 -16 25q-5 1 -10 1h-54v548h80v26h-267v-26h80v-548h-80v-26h267z" />
    <glyph glyph-name="J" unicode="J" horiz-adv-x="386" 
d="M359 574v26h-276v-26h90v-399q0 -131 -28 -158q-12 -10 -28 -10q-26 0 -34 31q-2 4 -4 14q-8 40 -26 50q-13 6 -30 6q-32 0 -44 -30q-4 -8 -4 -18q0 -43 52 -65q33 -14 76 -14q101 0 148 76q30 51 30 126v391h78z" />
    <glyph glyph-name="K" unicode="K" horiz-adv-x="642" 
d="M299 0q0 22 -16 25q-5 1 -10 1h-54v236l45 41l218 -303h160q0 22 -16 25q-5 1 -10 1h-20l-254 349l167 155q42 37 59 42q9 2 18 2q23 0 25 16q1 5 1 10h-182v-26h80l-291 -266v266h80v26h-267v-26h80v-548h-80v-26h267z" />
    <glyph glyph-name="L" unicode="L" horiz-adv-x="502" 
d="M491 0l5 207h-24l-22 -78q-21 -76 -65 -95q-19 -8 -42 -8h-124v548h85v26h-272v-26h80v-548h-80v-26h459z" />
    <glyph glyph-name="M" unicode="M" horiz-adv-x="808" 
d="M786 600h-183l-200 -466l-223 466h-158v-26h80v-548h-80v-26h201q-8 24 -27 26h-53v410l216 -443h20l224 513v-480h-80v-26h263q0 22 -16 25q-5 1 -10 1h-54v548h80v26z" />
    <glyph glyph-name="N" unicode="N" horiz-adv-x="667" 
d="M455 574h83v-424l-369 450h-151v-26h80v-548h-80v-26h206q-8 24 -27 26h-58v444l389 -475l51 10v569h80v26h-204v-26z" />
    <glyph glyph-name="O" unicode="O" horiz-adv-x="705" 
d="M355 610q-126 0 -214 -82q-94 -87 -94 -225q0 -160 113 -249q83 -64 192 -64q125 0 213 82q93 88 93 227q0 165 -116 251q-81 60 -187 60zM355 18q-184 2 -185 281q1 282 182 283q181 -2 182 -278q-1 -285 -179 -286z" />
    <glyph glyph-name="P" unicode="P" horiz-adv-x="562" 
d="M308 574q90 0 110 -91q5 -22 5 -47q-6 -139 -127 -142h-77v280h89zM320 0q0 22 -16 25q-5 1 -10 1h-75v239h86q170 0 219 101q16 33 16 74q0 97 -85 138q-47 22 -112 22h-311v-26h80v-548h-80v-26h288z" />
    <glyph glyph-name="Q" unicode="Q" horiz-adv-x="708" 
d="M357 610q-127 0 -215 -82q-93 -88 -93 -227q0 -157 110 -245q84 -66 195 -66q40 0 77 9q50 -78 66 -97q45 -49 95 -50q83 2 134 119l-22 13q-52 -56 -96 -57q-22 0 -45 15.5t-36 29.5t-39 46l-1 1q111 50 153 163q20 56 20 119q0 161 -114 247q-81 62 -189 62zM341 122
q-55 -1 -100 -64q-70 66 -70 242q1 281 184 282q182 -2 183 -278q-1 -189 -79 -253q-65 70 -118 71zM355 18q-54 1 -91 23q37 40 71 41q38 -1 78 -56q-29 -8 -58 -8z" />
    <glyph glyph-name="R" unicode="R" horiz-adv-x="613" 
d="M299 0v26h-80v249h77l156 -275h161q0 23 -14 25q-5 1 -11 1h-28l-159 259q102 26 132 106q9 26 9 53q0 74 -65 119q-55 37 -134 37h-311v-26h80v-548h-80v-26h267zM301 574q84 0 113 -74q11 -28 11 -59q0 -75 -49 -114q-30 -23 -70 -23h-87v270h82z" />
    <glyph glyph-name="S" unicode="S" horiz-adv-x="545" 
d="M499 161q0 87 -94 142q-16 10 -113 55q-87 40 -109 82q-11 20 -11 45q0 63 61 87q25 9 54 9q83 0 126 -59q27 -39 27 -94h34v177q-27 0 -31 -18q-1 -7 -1 -16q-76 39 -166 39q-112 0 -172 -61q-41 -41 -41 -98q0 -84 94 -138q15 -9 112 -54q88 -42 111 -84q11 -21 11 -46
q0 -70 -64 -98q-30 -13 -65 -13q-127 0 -160 129q-8 28 -10 60h-34v-209q25 0 30 15q2 9 2 28q76 -51 179 -51q120 0 185 63q45 45 45 108z" />
    <glyph glyph-name="T" unicode="T" horiz-adv-x="567" 
d="M431 0q-8 24 -27 26h-69v548h42q83 -1 112 -102l22 -76h29l-5 204h-504l-4 -204h29l22 76q30 101 111 102h39v-548h-95v-26h298z" />
    <glyph glyph-name="U" unicode="U" horiz-adv-x="638" 
d="M10 574h80v-351q2 -232 241 -233q169 0 209 135q13 46 13 109v340h80v26h-196v-26h80v-346q-1 -208 -165 -209q-114 0 -143 108q-11 43 -11 103v344h79v26h-267v-26z" />
    <glyph glyph-name="V" unicode="V" horiz-adv-x="584" 
d="M326 -5l208 579h50v26h-169v-26h80l-161 -454l-177 454h80v26h-244v-26h56l194 -502q23 -60 37 -70q11 -7 31 -7h15z" />
    <glyph glyph-name="W" unicode="W" horiz-adv-x="856" 
d="M611 0l195 574h50v26h-163v-26h80l-151 -454l-158 454h80v26h-196l72 -195l-102 -288l-165 457h81v26h-241v-26h56l187 -507q21 -58 38 -66q8 -4 19 -4h12l131 363l108 -293q20 -55 34 -63q8 -4 20 -4h13z" />
    <glyph glyph-name="X" unicode="X" horiz-adv-x="617" 
d="M194 0v26h-80l168 234l155 -234h-73v-26h253q-8 24 -27 26h-30l-208 309l151 211q19 26 43 28h11q22 0 25 16q1 5 1 10h-175v-26h80l-153 -214l-144 214h73v26h-251v-26h60l191 -288l-168 -232q-21 -28 -62 -28q-22 0 -25 -16q-1 -5 -1 -10h186z" />
    <glyph glyph-name="Y" unicode="Y" horiz-adv-x="564" 
d="M423 0q-8 24 -27 26h-55v228l144 292q20 27 53 28q22 0 25 16q1 5 1 10h-177v-26h80l-145 -286l-154 286h76v26h-248v-26h52l185 -329v-219h-82v-26h272z" />
    <glyph glyph-name="Z" unicode="Z" horiz-adv-x="551" 
d="M521 0l2 207h-26l-24 -96q-22 -84 -98 -85h-227l369 553v21h-448l-8 -181h24l40 90q31 64 81 65h196l-379 -553v-21h498z" />
    <glyph glyph-name="bracketleft" unicode="[" horiz-adv-x="361" 
d="M339 -136h-257v781h257v-28h-159v-723l159 -2v-28z" />
    <glyph glyph-name="backslash" unicode="\" horiz-adv-x="427" 
d="M332 -155l-341 865h70l341 -865h-70z" />
    <glyph glyph-name="bracketright" unicode="]" horiz-adv-x="374" 
d="M35 -136h257v781h-257v-28h159v-723l-159 -2v-28z" />
    <glyph glyph-name="asciicircum" unicode="^" horiz-adv-x="540" 
d="M80 333l31 -20l159 259l159 -259l31 20l-180 291h-20z" />
    <glyph glyph-name="underscore" unicode="_" horiz-adv-x="492" 
d="M10 -69h472v44h-472v-44z" />
    <glyph glyph-name="grave" unicode="`" horiz-adv-x="500" 
d="M358 501q-34 33 -85 105q-19 27 -30 37q-14 12 -30 12q-30 0 -45 -29q-5 -11 -5 -22q1 -20 16 -34q12 -10 87 -46q47 -23 77 -42z" />
    <glyph glyph-name="a" unicode="a" horiz-adv-x="487" 
d="M390 -10q70 0 86 63q5 18 6 41l-26 1q-7 -71 -38 -72q-24 2 -25 51v210q-2 154 -169 155q-121 0 -158 -54q-11 -17 -11 -34q0 -32 30 -41q8 -2 16 -2q31 0 43 33q2 5 5 15q13 40 32 51q14 7 34 7q81 -2 82 -105v-64q-240 -3 -265 -109q-3 -14 -3 -29q0 -80 69 -107
q26 -10 57 -10q76 0 122 52q15 18 23 38q15 -89 90 -90zM196 31q-55 0 -65 65q-2 12 -2 26q0 68 72 86q37 9 96 10v-87q-17 -70 -70 -93q-16 -7 -31 -7z" />
    <glyph glyph-name="b" unicode="b" horiz-adv-x="552" 
d="M311 -10q92 0 151 69q55 65 55 164q0 116 -67 177q-45 39 -105 39q-110 0 -159 -108q-1 -2 -1 -3v322h-164v-26h68v-541q0 -44 -28 -53q-14 -4 -40 -4v-26h138l8 68q49 -77 144 -78zM307 396q85 0 101 -126q3 -27 3 -57q0 -153 -75 -188q-18 -9 -39 -9q-73 0 -100 86
q-12 40 -12 92q0 126 59 178q28 24 63 24z" />
    <glyph glyph-name="c" unicode="c" horiz-adv-x="443" 
d="M36 211q0 -131 97 -189q54 -32 123 -32q104 0 158 68q15 19 24 41l-26 8q-33 -72 -110 -86q-16 -3 -32 -3q-85 0 -115 96q-13 43 -13 101q1 198 116 199q50 0 61 -43q2 -7 4 -24q7 -43 23 -54q12 -7 29 -8q43 -1 51 34q2 7 2 13q0 47 -59 80q-49 27 -113 27
q-121 0 -181 -90q-39 -58 -39 -138z" />
    <glyph glyph-name="d" unicode="d" horiz-adv-x="557" 
d="M379 0h158q0 23 -13 25q-5 1 -11 1h-49l-1 624h-190v-25h94v-235q-49 50 -128 50q-104 0 -162 -87q-41 -64 -41 -149q0 -122 79 -181q44 -33 99 -33q104 0 150 101l4 10zM142 216q0 139 68 181q23 14 50 14q71 0 97 -85q12 -39 12 -91q0 -130 -61 -181q-26 -22 -59 -22
q-74 0 -98 98q-9 38 -9 86z" />
    <glyph glyph-name="e" unicode="e" horiz-adv-x="469" 
d="M251 414q64 0 81 -65q5 -19 5 -39q0 -49 -41 -60q-23 -6 -65 -4l-89 2q4 128 74 159q16 7 35 7zM430 99l-24 8q-33 -69 -102 -85q-16 -4 -32 -4q-125 0 -130 200v2l109 -2q137 -3 171 33q16 19 16 48q0 75 -75 114q-50 26 -113 26q-119 0 -177 -91q-37 -58 -37 -135
q0 -133 97 -191q53 -32 120 -32q113 0 163 81q8 14 14 28z" />
    <glyph glyph-name="f" unicode="f" horiz-adv-x="321" 
d="M271 25h-71v376h114v26h-114v6q0 162 39 189q12 8 28 8q28 0 47 -37q19 -39 25 -45q13 -12 28 -12q36 0 45 29q2 7 2 13q0 40 -51 63q-33 14 -76 14q-104 0 -152 -81q-31 -53 -31 -132v-15h-75v-26h75v-319q0 -45 -35 -54q-15 -3 -40 -3v-25h266q0 21 -13 24q-5 1 -11 1z
" />
    <glyph glyph-name="g" unicode="g" horiz-adv-x="491" 
d="M146 277q0 110 52 131q16 6 36 6q69 0 82 -74q5 -26 5 -62q0 -110 -49 -133q-17 -7 -39 -7q-69 0 -83 78q-4 25 -4 61zM236 439q-101 0 -155 -65q-34 -41 -34 -97q0 -74 72 -126q9 -7 18 -12q-59 0 -78 -53q-6 -16 -6 -33q1 -51 40 -79q-30 -32 -30 -66q0 -55 67 -82
q45 -18 108 -18q157 0 205 75q16 24 16 52q0 93 -104 106q-14 2 -27 2l-192 4q-40 3 -41 35q0 24 29 30q7 1 13 1l93 -1h3q97 0 152 66q35 44 35 101q-1 76 -57 120q14 34 42 35q13 0 31 -16q12 -11 23 -11q27 0 32 27q1 4 1 7q0 33 -32 46q-13 5 -27 5q-48 0 -77 -47
q-9 -15 -14 -32q-47 26 -106 26zM238 -166q-109 0 -135 54q-6 12 -6 25q1 25 20 49q17 -6 37 -6l174 -2q70 0 80 -29q3 -8 3 -17q0 -45 -85 -65q-40 -9 -88 -9z" />
    <glyph glyph-name="h" unicode="h" horiz-adv-x="567" 
d="M232 25h-40v226q0 91 60 127q22 13 45 13q59 0 78 -60q6 -22 6 -47v-202q0 -43 -18 -52q-12 -5 -39 -5v-25h222q0 22 -13 24q-5 1 -12 1h-43v252q0 115 -78 150q-26 12 -56 12q-78 0 -127 -57q-16 -20 -25 -42v310h-165v-25h69v-543q0 -45 -30 -53q-14 -4 -39 -4v-25h229
q0 21 -13 24q-5 1 -11 1z" />
    <glyph glyph-name="i" unicode="i" horiz-adv-x="290" 
d="M240 25h-45v402h-167v-25h71v-320q0 -45 -32 -54q-14 -3 -39 -3v-25h237q0 22 -13 24q-5 1 -12 1zM206 567q0 38 -34 56q-14 7 -29 7q-38 0 -55 -34q-7 -14 -7 -29q0 -40 35 -56q13 -6 27 -6q40 0 57 34q6 13 6 28z" />
    <glyph glyph-name="j" unicode="j" horiz-adv-x="275" 
d="M212 567q0 38 -33 56q-15 7 -29 7q-38 0 -56 -34q-7 -14 -7 -29q0 -39 35 -56q14 -6 28 -6q38 0 55 34q7 14 7 28zM35 427v-25h73v-372q0 -25 1 -73q1 -34 1 -46q-1 -76 -35 -77q-20 0 -27 27q-9 36 -15 43q-11 13 -31 13q-33 0 -41 -29q-1 -6 -1 -11q0 -38 44 -58
q25 -11 55 -11q88 0 125 83q20 48 20 116v420h-169z" />
    <glyph glyph-name="k" unicode="k" horiz-adv-x="511" 
d="M244 25h-48v151l46 43l133 -219h146q0 22 -13 24q-5 1 -12 1h-27l-161 257l86 81q35 33 52 37q9 2 18 2q23 0 25 15q1 5 1 10h-170v-25h74l-198 -186v434h-172v-25h76v-543q0 -45 -35 -53q-15 -4 -41 -4v-25h245q0 22 -13 24q-5 1 -12 1z" />
    <glyph glyph-name="l" unicode="l" horiz-adv-x="298" 
d="M251 25h-53v625h-172v-25h76v-542q0 -44 -28 -53q-16 -5 -48 -5v-25h249q0 21 -13 24q-5 1 -11 1z" />
    <glyph glyph-name="m" unicode="m" horiz-adv-x="813" 
d="M224 25h-34l1 241q7 81 60 115q20 12 39 12q44 0 63 -50q8 -23 8 -53v-208q0 -43 -21 -52q-13 -5 -39 -5v-25h214q0 22 -13 24q-5 1 -12 1h-34v252v7q13 75 64 102q16 8 32 8q47 0 66 -51q9 -24 9 -53v-208q0 -43 -20 -52q-12 -5 -39 -5v-25h224q0 22 -13 24q-5 1 -12 1
h-44v254q0 102 -67 143q-30 17 -64 17q-83 0 -129 -75q-8 -13 -14 -27q-21 76 -82 96q-18 6 -35 6q-81 0 -127 -71q-9 -15 -16 -30l-5 89h-158v-25h68v-320q0 -45 -29 -53q-14 -4 -39 -4v-25h223q0 22 -15 24q-4 1 -10 1z" />
    <glyph glyph-name="n" unicode="n" horiz-adv-x="566" 
d="M227 25h-37l1 241q7 81 64 114q21 12 43 12q60 0 77 -60q5 -20 5 -42v-208q0 -44 -24 -53q-14 -4 -39 -4v-25h228q0 22 -13 24q-5 1 -12 1h-43v252q0 107 -74 146q-29 16 -64 16q-74 0 -124 -59q-16 -20 -26 -43l-5 90h-158v-25h68v-320q0 -45 -29 -53q-14 -4 -39 -4v-25
h226q0 22 -13 24q-5 1 -12 1z" />
    <glyph glyph-name="o" unicode="o" horiz-adv-x="516" 
d="M142 215q10 191 116 199q95 0 112 -124q4 -32 4 -71q-2 -202 -115 -204q-100 0 -114 140q-3 27 -3 60zM261 439q-107 0 -172 -73q-53 -60 -53 -147q0 -121 86 -185q58 -44 134 -44q104 0 169 74q55 63 55 153q0 121 -88 183q-57 39 -131 39z" />
    <glyph glyph-name="p" unicode="p" horiz-adv-x="554" 
d="M187 -165v205q47 -48 124 -50q93 0 153 70q55 65 55 165q0 119 -68 178q-42 36 -102 36q-89 0 -138 -67q-16 -22 -25 -49l-5 104h-157v-25h67v-510q0 -44 -27 -53q-14 -4 -40 -4v-25h251q0 22 -13 24q-5 1 -12 1h-63zM308 396q88 0 102 -132q3 -24 3 -51q0 -156 -77 -189
q-18 -8 -38 -8q-66 0 -95 73q-17 44 -17 105q0 126 61 179q28 23 61 23z" />
    <glyph glyph-name="q" unicode="q" horiz-adv-x="557" 
d="M35 200q0 -124 81 -181q44 -29 96 -29q85 0 135 67q12 17 21 36l-1 -201q0 -43 -30 -52q-16 -5 -49 -5v-25h246q0 21 -13 24q-5 1 -11 1h-47v567h71v25h-157l-4 -38q-54 50 -133 50q-95 0 -153 -73q-52 -65 -52 -166zM368 234q0 -144 -68 -187q-24 -15 -51 -15
q-77 0 -100 100q-8 37 -8 83q0 143 70 184q23 12 49 12q88 0 104 -120q4 -27 4 -57z" />
    <glyph glyph-name="r" unicode="r" horiz-adv-x="405" 
d="M264 25h-73v193q0 104 53 151q16 14 29 15q14 0 28 -24q17 -30 34 -36q7 -2 15 -2q35 0 47 33q3 9 3 18q0 47 -47 59q-11 2 -22 2q-60 0 -108 -50q-22 -24 -34 -54l-5 97h-157v-25h68v-320q0 -45 -29 -53q-13 -4 -39 -4v-25h262q0 22 -13 24q-5 1 -12 1z" />
    <glyph glyph-name="s" unicode="s" horiz-adv-x="408" 
d="M192 17q68 0 87 43q6 13 6 27q0 45 -63 77q-13 7 -43 20q-79 34 -105 63q-28 32 -28 75q0 75 82 104q37 13 81 13q72 0 118 -28q0 29 15 33q5 1 11 1v-125h-28q-4 92 -101 93q-70 0 -87 -43q-4 -11 -4 -23q0 -43 61 -74q13 -6 42 -18q80 -34 106 -63q30 -34 30 -79
q0 -82 -86 -111q-35 -12 -78 -12q-79 1 -135 34q0 -26 -13 -30q-6 -1 -14 -1v152h31q2 -127 115 -128z" />
    <glyph glyph-name="t" unicode="t" horiz-adv-x="340" 
d="M18 400h70v-269q0 -131 109 -141q9 -1 17 -1q85 0 113 84q5 15 8 31l-27 5q-22 -89 -72 -90q-51 2 -52 77v304h145v25h-145v116l-96 -21v-95h-70v-25z" />
    <glyph glyph-name="u" unicode="u" horiz-adv-x="565" 
d="M516 25h-43v402h-165v-25h68v-231q-3 -85 -60 -120q-23 -14 -47 -14q-72 0 -84 77q-2 14 -2 28v285h-165v-25h69v-244q1 -167 143 -168q78 0 125 64q14 19 23 40l7 -94h156q0 22 -13 24q-5 1 -12 1z" />
    <glyph glyph-name="v" unicode="v" horiz-adv-x="469" 
d="M212 402v25h-209v-25h42l124 -336q21 -56 40 -65q12 -6 31 -6h22l143 375q12 28 28 31q5 1 10 1q19 0 21 8q2 6 2 17h-157v-25h78l-124 -324l-120 324h69z" />
    <glyph glyph-name="w" unicode="w" horiz-adv-x="695" 
d="M217 402v25h-211v-25h43l122 -336q21 -58 42 -67q10 -4 26 -4h26l89 273l70 -202q20 -57 36 -66q11 -5 29 -5h23l123 374q10 29 26 32q5 1 10 1q20 0 23 14q1 5 1 11h-146v-25h67l-104 -324l-110 324h66v25h-169l40 -116l-76 -234l-115 325h69z" />
    <glyph glyph-name="x" unicode="x" horiz-adv-x="454" 
d="M3 0h153v25h-73l120 155l105 -155h-59v-25h205q0 22 -15 24q-5 1 -10 1h-20l-141 209l101 138q20 27 51 31q15 1 18 11q1 6 1 13h-149v-25h68l-106 -144l-97 144h62v25h-213v-25h47l135 -199l-115 -148q-21 -26 -50 -30q-15 -2 -17 -12q-1 -6 -1 -13z" />
    <glyph glyph-name="y" unicode="y" horiz-adv-x="486" 
d="M114 -159q-17 0 -26 25q-12 33 -23 40q-10 7 -24 7q-33 0 -41 -30q-1 -5 -1 -10q0 -35 42 -55q23 -10 51 -10q81 0 138 96q23 38 44 91l149 375q10 27 23 30q6 1 13 1q21 0 24 13q1 5 1 13h-154v-26h74l-120 -302l-131 302h65v26h-211v-26h46l186 -410
q-52 -126 -100 -145q-12 -5 -25 -5z" />
    <glyph glyph-name="z" unicode="z" horiz-adv-x="421" 
d="M128 26l265 383v21h-347l-9 -138h19l29 63q23 48 64 49h144l-275 -382v-22h373l3 159h-19l-16 -65q-21 -64 -74 -68h-157z" />
    <glyph glyph-name="braceleft" unicode="{" horiz-adv-x="400" 
d="M247 148v-151q0 -66 19 -84q25 -21 114 -21v-28q-129 0 -169 16q-51 22 -58 95q-1 14 -1 29v149q0 55 -26 73q-17 11 -50 18v21q56 12 69 41q7 18 7 50v149q0 90 47 118q37 21 155 22h26v-28q-91 0 -113 -20q-20 -20 -20 -85v-151q0 -63 -50 -91q-10 -6 -26 -13v-5
q48 -21 63 -46q13 -24 13 -58z" />
    <glyph glyph-name="bar" unicode="|" horiz-adv-x="270" 
d="M102 -136v786h66v-786h-66z" />
    <glyph glyph-name="braceright" unicode="}" horiz-adv-x="394" 
d="M153 359v151q0 66 -19 84q-25 21 -114 21v28q129 0 169 -16q51 -22 58 -95q1 -14 1 -29v-149q0 -55 26 -73q17 -11 50 -18v-21q-56 -12 -69 -41q-7 -18 -7 -50v-149q0 -90 -47 -118q-37 -21 -155 -22h-26v28q91 0 113 20q20 20 20 85v151q0 63 50 91q10 6 26 13v5
q-48 21 -63 46q-13 24 -13 58z" />
    <glyph glyph-name="asciitilde" unicode="~" horiz-adv-x="490" 
d="M160 315q40 0 109 -38q56 -31 82 -31q53 2 78 70l25 -7q-16 -90 -76 -119q-21 -10 -43 -10q-39 0 -110 37q-59 32 -87 32q-53 -2 -77 -69l-25 7q18 93 83 120q20 8 41 8z" />
    <glyph glyph-name="uni00A0" unicode="&#xa0;" horiz-adv-x="202" 
 />
    <glyph glyph-name="exclamdown" unicode="&#xa1;" horiz-adv-x="268" 
d="M96 257q0 -123 -31 -266q-15 -68 -15 -100q2 -66 61 -67q61 2 62 68q0 30 -20 125q-25 119 -25 240h-32zM53 380q0 -36 32 -53q13 -7 27 -7q37 0 53 34q6 13 6 26q0 38 -34 54q-12 5 -25 5q-36 0 -53 -33q-6 -13 -6 -26z" />
    <glyph glyph-name="cent" unicode="&#xa2;" horiz-adv-x="463" 
d="M35 272q0 -130 97 -189q46 -27 103 -31v-72h29v71q104 3 154 73q13 18 20 37l-26 7q-32 -68 -104 -85q-19 -5 -39 -5h-5v397q47 0 57 -42q2 -8 4 -25q5 -43 21 -54q12 -7 28 -8q43 -1 51 34q2 7 2 13q0 46 -58 79q-46 26 -105 28v70h-29v-71q-115 -8 -168 -100
q-32 -55 -32 -127zM139 275q1 180 96 198v-390q-81 23 -94 147q-2 22 -2 45z" />
    <glyph glyph-name="sterling" unicode="&#xa3;" horiz-adv-x="572" 
d="M549 162h-21q-23 -70 -123 -73h-12q-64 0 -166 23q11 43 11 93q0 42 -5 93h155v29h-157q-7 65 -7 107q2 147 95 149q55 0 69 -47q3 -10 7 -30q8 -47 26 -59q14 -9 34 -9q44 0 55 37q3 10 3 19q0 64 -81 96q-50 20 -112 20q-123 0 -181 -77q-35 -46 -35 -107q0 -41 16 -99
h-65v-29h75q5 -14 14 -43q31 -90 34 -132q-37 7 -54 7q-59 0 -74 -45q-4 -12 -4 -23q0 -39 36 -56q15 -6 32 -6q61 1 97 70q10 -6 31 -20q78 -52 124 -62q19 -4 36 -4q104 0 136 97q11 35 11 81zM113 28q-29 0 -34 26q-1 4 -1 8q0 29 28 38q8 2 16 2q28 0 55 -14
q-8 -44 -46 -57q-10 -3 -18 -3z" />
    <glyph glyph-name="currency" unicode="&#xa4;" horiz-adv-x="604" 
d="M297 110q-78 0 -124 60q-34 45 -34 111q0 102 75 147q38 22 82 22q77 0 122 -59q35 -46 35 -111q0 -104 -77 -149q-36 -21 -79 -21zM295 76q78 1 133 48l86 -86l24 24l-87 87q43 55 43 133q-1 74 -39 126l85 86l-24 25l-84 -85q-56 49 -134 49q-77 -1 -133 -47l-85 84
l-24 -24l85 -85q-43 -55 -43 -132q1 -81 45 -134l-85 -84l25 -25l85 85q53 -45 127 -45z" />
    <glyph glyph-name="yen" unicode="&#xa5;" horiz-adv-x="570" 
d="M422 0q0 23 -13 25q-6 1 -12 1h-53l1 194h133v29h-132v50h132v29h-121l125 218q12 21 27 25q13 3 33 3q18 9 20 26h-179v-26h81l-136 -235l-142 235h66v26h-236v-26h49l156 -246h-115v-29h133v-50h-133v-29h132l-1 -194h-77v-26h262z" />
    <glyph glyph-name="brokenbar" unicode="&#xa6;" horiz-adv-x="270" 
d="M168 315v335h-66v-335h66zM168 -136v335h-66v-335h66z" />
    <glyph glyph-name="section" unicode="&#xa7;" horiz-adv-x="468" 
d="M136 319q1 39 37 60q16 -8 48 -22q80 -36 100 -60q14 -17 14 -36q-1 -40 -40 -61q-14 7 -44 21q-81 37 -101 62q-14 17 -14 36zM424 288q0 69 -86 116q-20 10 -61 29q-79 34 -99 58q-16 19 -16 40q0 39 40 56q17 7 35 7q52 0 65 -40q2 -5 5 -17q8 -34 23 -41q11 -5 24 -5
q37 2 38 42q0 47 -68 72q-39 14 -82 14q-105 0 -148 -55q-21 -28 -21 -64q1 -61 69 -103q-83 -22 -94 -87q-1 -8 -1 -16q0 -70 88 -120q19 -11 60 -30q77 -37 96 -60q12 -17 12 -34q0 -43 -41 -58q-15 -6 -33 -6q-50 0 -64 41q-2 6 -5 19q-8 35 -24 43q-9 4 -21 4
q-38 0 -43 -34q-1 -4 -1 -8q0 -52 71 -77q38 -14 83 -14q94 0 141 49q29 31 29 71q-1 60 -70 103q86 22 97 87q2 9 2 18z" />
    <glyph glyph-name="dieresis" unicode="&#xa8;" horiz-adv-x="500" 
d="M215 570q0 35 -31 52q-13 6 -25 6q-37 0 -53 -33q-5 -13 -5 -25q0 -37 34 -51q12 -5 24 -5q35 0 50 31q6 12 6 25zM400 570q0 36 -32 52q-13 6 -26 6q-35 0 -51 -32q-6 -13 -6 -26q0 -36 33 -51q12 -5 24 -5q37 0 52 32q6 12 6 24z" />
    <glyph glyph-name="copyright" unicode="&#xa9;" horiz-adv-x="649" 
d="M610 275q0 126 -87 208q-80 76 -198 76q-135 0 -218 -95q-68 -79 -68 -189q0 -127 88 -209q81 -76 198 -76q133 0 215 94q70 80 70 191zM70 275q0 123 84 196q70 61 171 61q124 0 197 -90q57 -71 57 -167q0 -119 -82 -194q-71 -64 -172 -64q-126 0 -199 91
q-56 71 -56 167zM330 455q-94 0 -144 -72q-32 -47 -32 -109q0 -95 70 -144q45 -32 105 -32q89 0 132 66q5 9 9 17l-22 9q-32 -63 -102 -64q-63 0 -85 84q-8 33 -8 73q0 99 42 134q16 13 34 13q34 0 41 -32q2 -6 3 -18q6 -39 24 -49q12 -7 29 -7q39 6 43 38q0 51 -62 78
q-35 15 -77 15z" />
    <glyph glyph-name="ordfeminine" unicode="&#xaa;" horiz-adv-x="309" 
d="M282 243v36h-260v-36h260zM293 393h-19q-5 -37 -20 -38q-14 2 -14 28v121q-2 95 -110 96q-79 0 -99 -38q-5 -9 -5 -19q5 -27 33 -30q29 0 37 27q8 28 12 32q8 8 22 8q41 -2 42 -66v-31q-137 0 -156 -58q-4 -12 -4 -25q0 -55 51 -69q13 -3 27 -3q59 1 83 52q18 -47 63 -52
q49 0 56 53q1 6 1 12zM116 361q-29 6 -31 46q0 43 51 52q16 3 36 3v-43q-14 -48 -46 -57q-6 -1 -10 -1z" />
    <glyph glyph-name="guillemotleft" unicode="&#xab;" horiz-adv-x="417" 
d="M218 378l-19 17q-21 -23 -130 -124q-24 -23 -34 -34q-14 -16 -14 -32q1 -19 14 -34q5 -6 107 -101q35 -33 57 -55l18 17q-12 18 -81 143q-10 18 -17 30q9 15 29 52q47 85 70 121zM396 378l-19 17q-21 -23 -130 -124q-24 -23 -34 -34q-14 -16 -14 -32q1 -17 14 -34
q5 -6 107 -101q35 -33 57 -55l19 17q-11 17 -84 146q-9 16 -15 27q9 15 29 52q47 85 70 121z" />
    <glyph glyph-name="logicalnot" unicode="&#xac;" horiz-adv-x="487" 
d="M399 114h49v221h-409v-38h360v-183z" />
    <glyph glyph-name="uni00AD" unicode="&#xad;" horiz-adv-x="368" 
d="M40 198h288v42h-288v-42z" />
    <glyph glyph-name="registered" unicode="&#xae;" horiz-adv-x="395" 
d="M370 473q0 85 -66 135q-47 36 -108 36q-91 0 -142 -68q-33 -45 -33 -103q0 -87 67 -137q47 -34 108 -34q90 0 140 67q34 46 34 104zM47 473q0 80 61 122q39 27 88 27q78 0 121 -61q27 -39 27 -88q0 -81 -62 -124q-38 -25 -86 -25q-81 0 -124 63q-25 38 -25 86zM305 376
q-2 13 -13 14h-7l-49 77q47 14 48 54q0 35 -41 48q-16 5 -35 5h-107v-15h21v-169h-21v-15h96v15h-24v73h18l49 -89zM173 559h21q26 0 32 -28q1 -5 1 -10q-6 -36 -32 -41h-22v79z" />
    <glyph glyph-name="macron" unicode="&#xaf;" horiz-adv-x="500" 
d="M96 540h308v52h-308v-52z" />
    <glyph glyph-name="degree" unicode="&#xb0;" horiz-adv-x="290" 
d="M76 542q0 43 36 64q16 9 33 9q39 0 60 -37q9 -17 9 -36q0 -42 -37 -61q-16 -8 -32 -8q-43 0 -62 38q-7 15 -7 31zM244 542q0 54 -45 84q-25 17 -54 17q-53 0 -83 -46q-16 -26 -16 -55q0 -54 46 -82q25 -14 53 -14q55 0 84 45q15 24 15 51z" />
    <glyph glyph-name="plusminus" unicode="&#xb1;" horiz-adv-x="460" 
d="M422 255v38h-167v139h-49v-139h-167v-38h167v-139h49v139h167zM422 33v38h-383v-38h383z" />
    <glyph glyph-name="twosuperior" unicode="&#xb2;" horiz-adv-x="352" 
d="M80 389q7 21 69 48q80 36 105 57q35 32 36 71q0 64 -76 85q-26 7 -55 7q-72 0 -109 -38q-19 -20 -19 -45q2 -38 41 -39q28 0 38 16t7.5 34.5t5 34.5t31.5 16q39 0 45 -42q2 -12 2 -26q0 -59 -58 -100q-9 -7 -28 -19q-55 -35 -70 -61q-14 -24 -14 -53v-10h265l1 113h-14
l-11 -27q-8 -20 -34 -22h-19h-139z" />
    <glyph glyph-name="threesuperior" unicode="&#xb3;" horiz-adv-x="369" 
d="M310 634v15h-258l-1 -115h15l11 28q9 21 33 23h16h101l-104 -107l15 -12q21 9 39 9q55 -2 56 -75q-2 -97 -71 -98q-30 0 -35 31q-1 5 -2 15q-4 38 -21 46q-10 5 -23 5q-37 -6 -41 -38q0 -51 64 -70q26 -7 56 -7q80 0 128 45q33 32 33 74q0 56 -56 81q-27 11 -61 11
q-14 0 -41 -4z" />
    <glyph glyph-name="acute" unicode="&#xb4;" horiz-adv-x="500" 
d="M368 570q16 16 17 34q0 30 -28 45q-11 6 -22 6q-17 -1 -30 -12q-10 -9 -50 -64q-34 -46 -66 -78l16 -19q26 17 118 62q33 16 45 26z" />
    <glyph glyph-name="uni00B5" unicode="&#xb5;" horiz-adv-x="565" 
d="M181 -107q0 14 -29 149q33 -51 89 -52q69 0 118 72q11 16 19 33l7 -95h157q0 22 -12 25q-5 1 -12 1h-45v401h-165v-26h68v-222q-1 -89 -59 -127q-24 -15 -48 -15q-72 0 -84 77q-2 14 -2 28v285h-165v-26h69v-244q0 -38 -12 -230q-2 -25 -2 -36q2 -63 53 -64q54 2 55 66z
" />
    <glyph glyph-name="paragraph" unicode="&#xb6;" horiz-adv-x="531" 
d="M227 -115q103 0 165 62q52 55 52 139l-1 488h75v26h-230q-155 0 -217 -96q-30 -48 -30 -107q0 -101 77 -154q55 -38 134 -38h20v-152q0 -116 -17 -134q-9 -7 -21 -7q-26 0 -35 34q-2 6 -4 17q-10 46 -30 59q-14 8 -34 8q-40 0 -53 -35q-3 -10 -3 -20q0 -50 67 -76
q39 -14 85 -14zM352 68q0 -107 -33 -137q-15 -13 -39 -17q21 26 21 145v515h51v-506z" />
    <glyph glyph-name="periodcentered" unicode="&#xb7;" horiz-adv-x="284" 
d="M204 230q0 38 -33 56q-15 7 -29 7q-38 0 -55 -34q-7 -14 -7 -29q0 -40 35 -56q13 -6 27 -6q38 0 55 34q7 14 7 28z" />
    <glyph glyph-name="cedilla" unicode="&#xb8;" horiz-adv-x="500" 
d="M161 -85l14 -9q25 17 50 17q42 0 48 -43q1 -7 1 -14q0 -52 -38 -64q-8 -3 -16 -3q-38 1 -68 39l-16 -12q36 -52 107 -53q74 0 107 47q14 20 14 44q0 53 -55 75q-25 10 -54 10q-30 0 -53 -10l29 66h-25z" />
    <glyph glyph-name="onesuperior" unicode="&#xb9;" horiz-adv-x="304" 
d="M159 649l-139 -96l15 -23l93 64v-241l-83 -7v-21h244q0 17 -16 20q-4 1 -8 1l-51 7v296h-55z" />
    <glyph glyph-name="ordmasculine" unicode="&#xba;" horiz-adv-x="305" 
d="M94 464q0 97 40 110q8 2 16 2q46 0 54 -60q3 -20 3 -50q0 -99 -39 -112q-8 -3 -17 -3q-47 0 -55 68q-2 19 -2 45zM153 600q-78 0 -117 -56q-24 -33 -24 -78q0 -80 63 -118q34 -20 74 -20q76 0 116 57q24 35 24 80q0 80 -64 116q-33 19 -72 19zM21 243h260v36h-260v-36z
" />
    <glyph glyph-name="guillemotright" unicode="&#xbb;" horiz-adv-x="417" 
d="M199 378l19 17q21 -23 130 -124q24 -23 34 -34q14 -16 14 -32q-1 -19 -14 -34q-5 -6 -107 -101q-35 -33 -57 -55l-18 17q12 18 81 143q10 18 17 30q-9 15 -29 52q-47 85 -70 121zM21 378l19 17q21 -23 130 -124q24 -23 34 -34q14 -16 14 -32q-1 -17 -14 -34
q-5 -6 -107 -101q-35 -33 -57 -55l-19 17q11 17 84 146q9 16 15 27q-9 15 -29 52q-47 85 -70 121z" />
    <glyph glyph-name="onequarter" unicode="&#xbc;" horiz-adv-x="740" 
d="M181 -31l434 641l-32 21l-435 -641zM179 613l-139 -96l15 -23l93 64v-241l-83 -7v-21h244q0 17 -16 20q-4 1 -8 1l-51 7v296h-55zM695 -45q-8 20 -20 22h-49v71h69v24h-69v128h-16l-8 -21q-12 -31 -40 -34q-6 -1 -13 -1h-8v-72l-144 1q126 95 133 100q98 82 99 130
q-7 35 -43 39q-29 0 -46 -32q-4 -8 -12 -27q-39 -88 -96 -148q-31 -32 -69 -62l5 -23l173 -1v-72h-75v-22h229z" />
    <glyph glyph-name="onehalf" unicode="&#xbd;" horiz-adv-x="755" 
d="M180 -31l434 641l-32 21l-435 -641zM179 613l-139 -96l15 -23l93 64v-241l-83 -7v-21h244q0 17 -16 20q-4 1 -8 1l-51 7v296h-55zM489 64q7 21 69 48q80 36 105 57q35 32 36 71q0 64 -76 85q-26 7 -55 7q-72 0 -109 -38q-19 -20 -19 -45q2 -38 41 -39q28 0 38 16
t7.5 34.5t5 34.5t31.5 16q39 0 45 -42q2 -11 2 -26q0 -59 -58 -100q-9 -7 -28 -19q-55 -35 -70 -61q-14 -24 -14 -53v-10h265l1 113h-14l-11 -27q-8 -20 -34 -22h-19h-139z" />
    <glyph glyph-name="threequarters" unicode="&#xbe;" horiz-adv-x="752" 
d="M310 598v15h-258l-1 -115h15l11 28q9 21 33 23h16h101l-104 -107l15 -12q21 9 39 9q55 -2 56 -75q-2 -97 -71 -98q-30 0 -35 31q-1 5 -2 15q-4 38 -21 46q-10 5 -23 5q-37 -6 -41 -38q0 -51 64 -70q26 -7 56 -7q80 0 128 45q33 32 33 74q0 56 -56 81q-27 11 -61 11
q-14 0 -41 -4zM193 -31l434 641l-32 21l-435 -641zM706 -45q-8 20 -20 22h-49v71h69v24h-69v128h-16l-8 -21q-12 -31 -40 -34q-6 -1 -13 -1h-8v-72l-144 1q126 95 133 100q98 82 99 130q-7 35 -43 39q-29 0 -46 -32q-4 -8 -12 -27q-39 -88 -96 -148q-31 -32 -69 -62l5 -23
l173 -1v-72h-75v-22h229z" />
    <glyph glyph-name="questiondown" unicode="&#xbf;" horiz-adv-x="488" 
d="M226 257q0 -79 -66 -140q-11 -10 -34 -29q-55 -45 -71 -75q-15 -28 -15 -60q0 -88 97 -117q38 -12 84 -12q93 0 144 44q28 27 29 60q-8 49 -53 53q-41 0 -50 -39l-3 -24q-5 -46 -23 -58q-15 -10 -38 -10q-77 2 -78 84q0 71 41 135q39 60 46 76q22 49 22 112h-32zM181 380
q0 -36 32 -53q13 -7 27 -7q37 0 53 34q6 13 6 26q0 38 -34 54q-12 5 -25 5q-36 0 -53 -33q-6 -13 -6 -26z" />
    <glyph glyph-name="Agrave" unicode="&#xc0;" horiz-adv-x="627" 
d="M627 0q0 23 -15 25q-5 1 -10 1h-32l-232 574h-53l-222 -574h-63v-26h180q0 22 -13 25q-6 1 -12 1h-52l74 194h205l75 -194h-67v-26h237zM370 249h-182l91 237zM406 631q-34 33 -85 105q-19 27 -30 37q-14 12 -30 12q-30 0 -45 -29q-5 -11 -5 -22q1 -20 16 -34
q12 -10 87 -46q47 -23 77 -42z" />
    <glyph glyph-name="Aacute" unicode="&#xc1;" horiz-adv-x="627" 
d="M627 0q0 23 -15 25q-5 1 -10 1h-32l-232 574h-53l-222 -574h-63v-26h180q0 22 -13 25q-6 1 -12 1h-52l74 194h205l75 -194h-67v-26h237zM370 249h-182l91 237zM405 700q16 16 17 34q0 30 -28 45q-11 6 -22 6q-17 -1 -30 -12q-10 -9 -50 -64q-34 -46 -66 -78l16 -19
q26 17 118 62q33 16 45 26z" />
    <glyph glyph-name="Acircumflex" unicode="&#xc2;" horiz-adv-x="627" 
d="M627 0q0 23 -15 25q-5 1 -10 1h-32l-232 574h-53l-222 -574h-63v-26h180q0 22 -13 25q-6 1 -12 1h-52l74 194h205l75 -194h-67v-26h237zM370 249h-182l91 237zM435 629l12 18q-15 16 -75 89q-38 37 -61 40q-27 0 -56 -35q-6 -7 -20 -25q-34 -43 -58 -70l12 -16
q58 35 124 65q53 -24 122 -66z" />
    <glyph glyph-name="Atilde" unicode="&#xc3;" horiz-adv-x="627" 
d="M627 0q0 23 -15 25q-5 1 -10 1h-32l-232 574h-53l-222 -574h-63v-26h180q0 22 -13 25q-6 1 -12 1h-52l74 194h205l75 -194h-67v-26h237zM370 249h-182l91 237zM258 771q30 0 76 -33q38 -27 59 -27q38 0 53 52q1 3 1 4l21 -4q-16 -105 -80 -116q-6 -1 -12 -1q-30 0 -75 33
q-38 27 -59 27q-36 0 -51 -43q-2 -7 -4 -13l-20 4q25 110 91 117z" />
    <glyph glyph-name="Adieresis" unicode="&#xc4;" horiz-adv-x="627" 
d="M627 0q0 23 -15 25q-5 1 -10 1h-32l-232 574h-53l-222 -574h-63v-26h180q0 22 -13 25q-6 1 -12 1h-52l74 194h205l75 -194h-67v-26h237zM370 249h-182l91 237zM276 699q0 35 -31 52q-12 6 -25 6q-37 0 -53 -33q-5 -13 -5 -25q0 -37 34 -51q12 -5 24 -5q35 0 50 31
q6 12 6 25zM461 699q0 36 -32 52q-13 6 -26 6q-35 0 -51 -32q-6 -13 -6 -26q0 -36 33 -51q11 -5 24 -5q37 0 52 32q6 12 6 24z" />
    <glyph glyph-name="Aring" unicode="&#xc5;" horiz-adv-x="627" 
d="M627 0q0 23 -15 25q-5 1 -10 1h-32l-227 562q65 12 80 66q4 13 4 27q0 57 -53 80q-24 10 -54 10q-81 0 -106 -55q-7 -17 -7 -36q0 -62 56 -84q9 -4 18 -6l-218 -564h-63v-26h180q0 22 -13 25q-6 1 -12 1h-52l74 194h205l75 -194h-67v-26h237zM370 249h-182l91 237z
M271 678q4 65 46 69q45 -1 46 -67q0 -59 -34 -69q-6 -2 -12 -2q-45 1 -46 69z" />
    <glyph glyph-name="AE" unicode="&#xc6;" horiz-adv-x="884" 
d="M251 267l186 305v-305h-186zM186 0q0 23 -13 25q-5 1 -11 1h-57l128 211h204v-211h-82v-26h476l5 187h-24l-18 -58q-25 -83 -78 -99q-16 -4 -33 -4h-139v269h198v29h-198v250h139q76 0 108 -90q2 -7 4 -13l17 -58h24l-5 187h-419l-352 -574h-60v-26h186z" />
    <glyph glyph-name="Ccedilla" unicode="&#xc7;" horiz-adv-x="614" 
d="M547 43q-1 -41 14 -46q7 -2 18 -2v192h-27q-49 -167 -198 -168q-174 0 -187 245q-1 19 -1 38q0 204 112 261q36 18 81 18q140 -2 189 -165h28l-3 189q-24 0 -28 -16q-2 -11 -2 -32q-81 53 -193 53q-162 0 -248 -118q-60 -83 -60 -191q0 -128 81 -217q70 -76 177 -91
l-39 -78l14 -9q25 17 50 17q42 0 48 -43q1 -7 1 -14q0 -52 -38 -64q-8 -3 -16 -3q-38 1 -68 39l-16 -12q36 -52 107 -53q74 0 107 47q14 20 14 44q0 53 -55 75q-25 10 -54 10q-30 0 -53 -10l23 52q10 -1 27 -1q100 1 195 53z" />
    <glyph glyph-name="Egrave" unicode="&#xc8;" horiz-adv-x="561" 
d="M513 415l-4 185h-477v-26h80v-548h-80v-26h477l4 185h-23l-18 -56q-27 -89 -88 -101q-11 -2 -23 -2h-142v269h201v29h-201v250h142q79 0 109 -96q1 -4 2 -7l18 -56h23zM389 631q-34 33 -85 105q-19 27 -30 37q-14 12 -30 12q-30 0 -45 -29q-5 -11 -5 -22q1 -20 16 -34
q12 -10 87 -46q47 -23 77 -42z" />
    <glyph glyph-name="Eacute" unicode="&#xc9;" horiz-adv-x="561" 
d="M513 415l-4 185h-477v-26h80v-548h-80v-26h477l4 185h-23l-18 -56q-27 -89 -88 -101q-11 -2 -23 -2h-142v269h201v29h-201v250h142q79 0 109 -96q1 -4 2 -7l18 -56h23zM389 704q16 16 17 34q0 30 -28 45q-11 6 -22 6q-17 -1 -30 -12q-10 -9 -50 -64q-34 -46 -66 -78
l16 -19q26 17 118 62q33 16 45 26z" />
    <glyph glyph-name="Ecircumflex" unicode="&#xca;" horiz-adv-x="561" 
d="M513 415l-4 185h-477v-26h80v-548h-80v-26h477l4 185h-23l-18 -56q-27 -89 -88 -101q-11 -2 -23 -2h-142v269h201v29h-201v250h142q79 0 109 -96q1 -4 2 -7l18 -56h23zM417 629l12 18q-15 16 -75 89q-38 37 -61 40q-27 0 -56 -35q-6 -7 -20 -25q-34 -43 -58 -70l12 -16
q58 35 124 65q53 -24 122 -66z" />
    <glyph glyph-name="Edieresis" unicode="&#xcb;" horiz-adv-x="561" 
d="M513 415l-4 185h-477v-26h80v-548h-80v-26h477l4 185h-23l-18 -56q-27 -89 -88 -101q-11 -2 -23 -2h-142v269h201v29h-201v250h142q79 0 109 -96q1 -4 2 -7l18 -56h23zM259 699q0 35 -31 52q-12 6 -25 6q-37 0 -53 -33q-5 -13 -5 -25q0 -37 34 -51q12 -5 24 -5
q35 0 50 31q6 12 6 25zM444 699q0 36 -32 52q-13 6 -26 6q-35 0 -51 -32q-6 -13 -6 -26q0 -36 33 -51q12 -5 24 -5q37 0 52 32q6 12 6 24z" />
    <glyph glyph-name="Igrave" unicode="&#xcc;" horiz-adv-x="331" 
d="M299 0q0 22 -16 25q-5 1 -10 1h-54v548h80v26h-267v-26h80v-548h-80v-26h267zM260 631q-34 33 -85 105q-19 27 -30 37q-14 12 -30 12q-30 0 -45 -29q-5 -11 -5 -22q1 -20 16 -34q12 -10 87 -46q47 -23 77 -42z" />
    <glyph glyph-name="Iacute" unicode="&#xcd;" horiz-adv-x="331" 
d="M299 0q0 22 -16 25q-5 1 -10 1h-54v548h80v26h-267v-26h80v-548h-80v-26h267zM259 700q16 16 17 34q0 30 -28 45q-11 6 -22 6q-17 -1 -30 -12q-10 -9 -50 -64q-34 -46 -66 -78l16 -19q26 17 118 62q33 16 45 26z" />
    <glyph glyph-name="Icircumflex" unicode="&#xce;" horiz-adv-x="331" 
d="M299 0q0 22 -16 25q-5 1 -10 1h-54v548h80v26h-267v-26h80v-548h-80v-26h267zM288 629l12 18q-15 16 -75 89q-38 37 -61 40q-27 0 -56 -35q-6 -7 -20 -25q-34 -43 -58 -70l12 -16q58 35 124 65q53 -24 122 -66z" />
    <glyph glyph-name="Idieresis" unicode="&#xcf;" horiz-adv-x="331" 
d="M299 0q0 22 -16 25q-5 1 -10 1h-54v548h80v26h-267v-26h80v-548h-80v-26h267zM130 699q0 35 -31 52q-13 6 -25 6q-37 0 -53 -33q-5 -13 -5 -25q0 -37 34 -51q12 -5 24 -5q35 0 50 31q6 12 6 25zM315 699q0 36 -32 52q-13 6 -26 6q-35 0 -51 -32q-6 -13 -6 -26
q0 -36 33 -51q12 -5 24 -5q37 0 52 32q6 12 6 24z" />
    <glyph glyph-name="Eth" unicode="&#xd0;" horiz-adv-x="675" 
d="M32 600v-26h80v-243h-72v-42h72v-263h-80v-26h285q136 0 225 84q87 83 87 215q0 170 -126 250q-80 51 -186 51h-285zM317 574q139 0 176 -136q15 -55 15 -134q-7 -273 -190 -278h-99v263h109v42h-109v243h98z" />
    <glyph glyph-name="Ntilde" unicode="&#xd1;" horiz-adv-x="667" 
d="M455 574h83v-424l-369 450h-151v-26h80v-548h-80v-26h206q-8 24 -27 26h-58v444l389 -475l51 10v569h80v26h-204v-26zM282 771q30 0 76 -33q38 -27 59 -27q38 0 53 52q1 3 1 4l21 -4q-16 -105 -80 -116q-6 -1 -12 -1q-30 0 -75 33q-38 27 -59 27q-36 0 -51 -43
q-2 -7 -4 -13l-20 4q25 110 91 117z" />
    <glyph glyph-name="Ograve" unicode="&#xd2;" horiz-adv-x="705" 
d="M355 610q-126 0 -214 -82q-94 -87 -94 -225q0 -160 113 -249q83 -64 192 -64q125 0 213 82q93 88 93 227q0 165 -116 251q-81 60 -187 60zM355 18q-184 2 -185 281q1 282 182 283q181 -2 182 -278q-1 -285 -179 -286zM449 631q-34 33 -85 105q-19 27 -30 37
q-14 12 -30 12q-30 0 -45 -29q-5 -11 -5 -22q1 -20 16 -34q12 -10 87 -46q47 -23 77 -42z" />
    <glyph glyph-name="Oacute" unicode="&#xd3;" horiz-adv-x="705" 
d="M355 610q-126 0 -214 -82q-94 -87 -94 -225q0 -160 113 -249q83 -64 192 -64q125 0 213 82q93 88 93 227q0 165 -116 251q-81 60 -187 60zM355 18q-184 2 -185 281q1 282 182 283q181 -2 182 -278q-1 -285 -179 -286zM449 700q16 16 17 34q0 30 -28 45q-11 6 -22 6
q-17 -1 -30 -12q-10 -9 -50 -64q-34 -46 -66 -78l16 -19q26 17 118 62q33 16 45 26z" />
    <glyph glyph-name="Ocircumflex" unicode="&#xd4;" horiz-adv-x="705" 
d="M355 610q-126 0 -214 -82q-94 -87 -94 -225q0 -160 113 -249q83 -64 192 -64q125 0 213 82q93 88 93 227q0 165 -116 251q-81 60 -187 60zM355 18q-184 2 -185 281q1 282 182 283q181 -2 182 -278q-1 -285 -179 -286zM478 629l12 18q-15 16 -75 89q-38 37 -61 40
q-27 0 -56 -35q-6 -7 -20 -25q-33 -42 -58 -70l12 -16q58 35 124 65q53 -24 122 -66z" />
    <glyph glyph-name="Otilde" unicode="&#xd5;" horiz-adv-x="705" 
d="M355 610q-126 0 -214 -82q-94 -87 -94 -225q0 -160 113 -249q83 -64 192 -64q125 0 213 82q93 88 93 227q0 165 -116 251q-81 60 -187 60zM355 18q-184 2 -185 281q1 282 182 283q181 -2 182 -278q-1 -285 -179 -286zM301 771q30 0 76 -33q38 -27 59 -27q38 0 53 52
q1 3 1 4l21 -4q-16 -105 -80 -116q-6 -1 -12 -1q-30 0 -75 33q-38 27 -59 27q-36 0 -51 -43q-2 -7 -4 -13l-20 4q25 110 91 117z" />
    <glyph glyph-name="Odieresis" unicode="&#xd6;" horiz-adv-x="705" 
d="M355 610q-126 0 -214 -82q-94 -87 -94 -225q0 -160 113 -249q83 -64 192 -64q125 0 213 82q93 88 93 227q0 165 -116 251q-81 60 -187 60zM355 18q-184 2 -185 281q1 282 182 283q181 -2 182 -278q-1 -285 -179 -286zM320 699q0 35 -31 52q-12 6 -25 6q-37 0 -53 -33
q-5 -13 -5 -25q0 -37 34 -51q12 -5 24 -5q35 0 50 31q6 12 6 25zM505 699q0 36 -32 52q-13 6 -26 6q-35 0 -51 -32q-6 -13 -6 -26q0 -36 33 -51q12 -5 24 -5q37 0 52 32q6 12 6 24z" />
    <glyph glyph-name="multiply" unicode="&#xd7;" horiz-adv-x="402" 
d="M327 77l30 29l-128 129l128 128l-28 28l-128 -128l-129 128l-29 -29l128 -129l-127 -127l28 -28l127 127z" />
    <glyph glyph-name="Oslash" unicode="&#xd8;" horiz-adv-x="705" 
d="M355 610q-126 0 -214 -82q-94 -87 -94 -225q0 -163 117 -252q21 -15 43 -27l-71 -179h70l62 156q43 -11 84 -11q125 0 213 82q93 88 93 227q0 166 -119 254q-21 15 -44 26l52 131h-70l-43 -109q-40 9 -79 9zM170 299q1 282 182 283q39 0 70 -12l-196 -496q-56 70 -56 225
zM355 18q-44 0 -75 14l196 498q58 -69 58 -226q-1 -285 -179 -286z" />
    <glyph glyph-name="Ugrave" unicode="&#xd9;" horiz-adv-x="638" 
d="M10 574h80v-351q2 -232 241 -233q169 0 209 135q13 46 13 109v340h80v26h-196v-26h80v-346q-1 -208 -165 -209q-114 0 -143 108q-11 43 -11 103v344h79v26h-267v-26zM436 631q-34 33 -85 105q-19 27 -30 37q-14 12 -30 12q-30 0 -45 -29q-5 -11 -5 -22q1 -20 16 -34
q12 -10 87 -46q47 -23 77 -42z" />
    <glyph glyph-name="Uacute" unicode="&#xda;" horiz-adv-x="638" 
d="M10 574h80v-351q2 -232 241 -233q169 0 209 135q13 46 13 109v340h80v26h-196v-26h80v-346q-1 -208 -165 -209q-114 0 -143 108q-11 43 -11 103v344h79v26h-267v-26zM435 700q16 16 17 34q0 30 -28 45q-11 6 -22 6q-17 -1 -30 -12q-10 -9 -50 -64q-34 -46 -66 -78l16 -19
q26 17 118 62q33 16 45 26z" />
    <glyph glyph-name="Ucircumflex" unicode="&#xdb;" horiz-adv-x="638" 
d="M10 574h80v-351q2 -232 241 -233q169 0 209 135q13 46 13 109v340h80v26h-196v-26h80v-346q-1 -208 -165 -209q-114 0 -143 108q-11 43 -11 103v344h79v26h-267v-26zM465 629l12 18q-15 16 -75 89q-38 37 -61 40q-27 0 -56 -35q-6 -7 -20 -25q-33 -42 -58 -70l12 -16
q58 35 124 65q53 -24 122 -66z" />
    <glyph glyph-name="Udieresis" unicode="&#xdc;" horiz-adv-x="638" 
d="M10 574h80v-351q2 -232 241 -233q169 0 209 135q13 46 13 109v340h80v26h-196v-26h80v-346q-1 -208 -165 -209q-114 0 -143 108q-11 43 -11 103v344h79v26h-267v-26zM306 699q0 35 -31 52q-13 6 -25 6q-37 0 -53 -33q-5 -13 -5 -25q0 -37 34 -51q12 -5 24 -5q35 0 50 31
q6 12 6 25zM491 699q0 36 -32 52q-13 6 -26 6q-35 0 -51 -32q-6 -13 -6 -26q0 -36 33 -51q12 -5 24 -5q37 0 52 32q6 12 6 24z" />
    <glyph glyph-name="Yacute" unicode="&#xdd;" horiz-adv-x="564" 
d="M423 0q-8 24 -27 26h-55v228l144 292q20 27 53 28q22 0 25 16q1 5 1 10h-177v-26h80l-145 -286l-154 286h76v26h-248v-26h52l185 -329v-219h-82v-26h272zM396 700q16 16 17 34q0 30 -28 45q-11 6 -22 6q-17 -1 -30 -12q-10 -9 -50 -64q-34 -46 -66 -78l16 -19
q26 17 118 62q33 16 45 26z" />
    <glyph glyph-name="Thorn" unicode="&#xde;" horiz-adv-x="581" 
d="M302 454q92 0 112 -93q4 -21 4 -45q0 -131 -109 -141q-10 -1 -19 -1h-77v280h89zM294 0q0 23 -13 25q-6 1 -12 1h-56v119h87q168 0 218 99q17 34 17 76q0 95 -82 136q-48 24 -115 24h-125v94h81v26h-265v-26h77v-548h-77v-26h265z" />
    <glyph glyph-name="germandbls" unicode="&#xdf;" horiz-adv-x="570" 
d="M552 119q0 75 -75 131q-12 9 -37 26q-56 36 -69 59q-7 14 -7 28q0 34 42 58q50 29 50 30q37 29 38 73q0 68 -76 103q-48 22 -108 22q-130 0 -180 -93q-25 -48 -25 -114v-15h-76v-26h76v-323q-2 -52 -76 -52v-26h172v433q0 163 68 188q16 6 35 6q64 0 84 -63q7 -22 7 -47
q0 -52 -44 -83q-6 -4 -18 -11q-39 -25 -50 -48q-8 -17 -8 -39q0 -57 65 -106l33 -24q61 -42 78 -69q13 -22 13 -46q0 -60 -47 -73q-11 -3 -21 -3q-36 0 -52 40q-2 5 -5 15q-12 37 -28 44q-8 3 -16 3q-38 0 -45 -32q-1 -5 -1 -10q0 -49 69 -72q36 -12 79 -12q81 0 126 50
q29 33 29 78z" />
    <glyph glyph-name="agrave" unicode="&#xe0;" horiz-adv-x="487" 
d="M390 -10q70 0 86 63q5 18 6 41l-26 1q-7 -71 -38 -72q-24 2 -25 51v210q-2 154 -169 155q-121 0 -158 -54q-11 -17 -11 -34q0 -32 30 -41q8 -2 16 -2q31 0 43 33q2 5 5 15q13 40 32 51q14 7 34 7q81 -2 82 -105v-64q-240 -3 -265 -109q-3 -14 -3 -29q0 -80 69 -107
q26 -10 57 -10q76 0 122 52q15 18 23 38q15 -89 90 -90zM196 31q-55 0 -65 65q-2 12 -2 26q0 68 72 86q37 9 96 10v-87q-17 -70 -70 -93q-16 -7 -31 -7zM338 501q-34 33 -85 105q-19 27 -30 37q-14 12 -30 12q-30 0 -45 -29q-5 -11 -5 -22q1 -20 16 -34q12 -10 87 -46
q47 -23 77 -42z" />
    <glyph glyph-name="aacute" unicode="&#xe1;" horiz-adv-x="487" 
d="M390 -10q70 0 86 63q5 18 6 41l-26 1q-7 -71 -38 -72q-24 2 -25 51v210q-2 154 -169 155q-121 0 -158 -54q-11 -17 -11 -34q0 -32 30 -41q8 -2 16 -2q31 0 43 33q2 5 5 15q13 40 32 51q14 7 34 7q81 -2 82 -105v-64q-240 -3 -265 -109q-3 -14 -3 -29q0 -80 69 -107
q26 -10 57 -10q76 0 122 52q15 18 23 38q15 -89 90 -90zM196 31q-55 0 -65 65q-2 12 -2 26q0 68 72 86q37 9 96 10v-87q-17 -70 -70 -93q-16 -7 -31 -7zM337 570q16 16 17 34q0 30 -28 45q-11 6 -22 6q-17 -1 -30 -12q-10 -9 -50 -64q-34 -46 -66 -78l16 -19q26 17 118 62
q33 16 45 26z" />
    <glyph glyph-name="acircumflex" unicode="&#xe2;" horiz-adv-x="487" 
d="M390 -10q70 0 86 63q5 18 6 41l-26 1q-7 -71 -38 -72q-24 2 -25 51v210q-2 154 -169 155q-121 0 -158 -54q-11 -17 -11 -34q0 -32 30 -41q8 -2 16 -2q31 0 43 33q2 5 5 15q13 40 32 51q14 7 34 7q81 -2 82 -105v-64q-240 -3 -265 -109q-3 -14 -3 -29q0 -80 69 -107
q26 -10 57 -10q76 0 122 52q15 18 23 38q15 -89 90 -90zM196 31q-55 0 -65 65q-2 12 -2 26q0 68 72 86q37 9 96 10v-87q-17 -70 -70 -93q-16 -7 -31 -7zM366 499l12 18q-15 16 -75 89q-38 37 -61 40q-27 0 -56 -35q-6 -7 -20 -25q-34 -43 -58 -70l12 -16q58 35 124 65
q53 -24 122 -66z" />
    <glyph glyph-name="atilde" unicode="&#xe3;" horiz-adv-x="487" 
d="M390 -10q70 0 86 63q5 18 6 41l-26 1q-7 -71 -38 -72q-24 2 -25 51v210q-2 154 -169 155q-121 0 -158 -54q-11 -17 -11 -34q0 -32 30 -41q8 -2 16 -2q31 0 43 33q2 5 5 15q13 40 32 51q14 7 34 7q81 -2 82 -105v-64q-240 -3 -265 -109q-3 -14 -3 -29q0 -80 69 -107
q26 -10 57 -10q76 0 122 52q15 18 23 38q15 -89 90 -90zM196 31q-55 0 -65 65q-2 12 -2 26q0 68 72 86q37 9 96 10v-87q-17 -70 -70 -93q-16 -7 -31 -7zM190 641q30 0 76 -33q38 -27 59 -27q38 0 53 52q1 3 1 4l21 -4q-16 -105 -80 -116q-6 -1 -12 -1q-30 0 -75 33
q-38 27 -59 27q-36 0 -51 -43q-2 -7 -4 -13l-20 4q25 110 91 117z" />
    <glyph glyph-name="adieresis" unicode="&#xe4;" horiz-adv-x="487" 
d="M390 -10q70 0 86 63q5 18 6 41l-26 1q-7 -71 -38 -72q-24 2 -25 51v210q-2 154 -169 155q-121 0 -158 -54q-11 -17 -11 -34q0 -32 30 -41q8 -2 16 -2q31 0 43 33q2 5 5 15q13 40 32 51q14 7 34 7q81 -2 82 -105v-64q-240 -3 -265 -109q-3 -14 -3 -29q0 -80 69 -107
q26 -10 57 -10q76 0 122 52q15 18 23 38q15 -89 90 -90zM196 31q-55 0 -65 65q-2 12 -2 26q0 68 72 86q37 9 96 10v-87q-17 -70 -70 -93q-16 -7 -31 -7zM208 569q0 35 -31 52q-13 6 -25 6q-37 0 -53 -33q-5 -13 -5 -25q0 -37 34 -51q12 -5 24 -5q35 0 50 31q6 12 6 25z
M393 569q0 36 -32 52q-13 6 -26 6q-35 0 -51 -32q-6 -13 -6 -26q0 -36 33 -51q12 -5 24 -5q37 0 52 32q6 12 6 24z" />
    <glyph glyph-name="aring" unicode="&#xe5;" horiz-adv-x="487" 
d="M390 -10q70 0 86 63q5 18 6 41l-26 1q-7 -71 -38 -72q-24 2 -25 51v210q-2 154 -169 155q-121 0 -158 -54q-11 -17 -11 -34q0 -32 30 -41q8 -2 16 -2q31 0 43 33q2 5 5 15q13 40 32 51q14 7 34 7q81 -2 82 -105v-64q-240 -3 -265 -109q-3 -14 -3 -29q0 -80 69 -107
q26 -10 57 -10q76 0 122 52q15 18 23 38q15 -89 90 -90zM196 31q-55 0 -65 65q-2 12 -2 26q0 68 72 86q37 9 96 10v-87q-17 -70 -70 -93q-16 -7 -31 -7zM195 574q4 65 46 69q45 -1 46 -67q0 -59 -34 -69q-6 -2 -12 -2q-45 1 -46 69zM244 667q-81 0 -106 -55q-7 -17 -7 -36
q0 -61 54 -84q24 -10 54 -10q78 0 104 55q8 19 8 40q0 57 -53 80q-24 10 -54 10z" />
    <glyph glyph-name="ae" unicode="&#xe6;" horiz-adv-x="722" 
d="M503 414q77 0 86 -83q1 -11 1 -21q0 -49 -41 -60q-23 -6 -65 -4l-88 2q4 150 90 165q9 1 17 1zM684 102l-26 5q-31 -67 -98 -85q-18 -4 -35 -4q-124 0 -129 201v2l108 -2q136 -3 170 32q17 19 17 48q0 74 -75 114q-49 26 -112 26q-86 -1 -140 -56q-44 56 -139 56
q-126 0 -163 -55q-10 -16 -10 -33q0 -32 30 -41q8 -2 16 -2q31 0 44 34q1 5 4 14q14 40 34 50q15 8 35 8q84 -2 85 -105v-64q-241 -3 -270 -104q-4 -17 -4 -34q0 -80 71 -107q26 -10 57 -10q82 0 134 62q21 25 30 54q45 -115 188 -116q119 0 167 87q6 13 11 25zM196 31
q-59 0 -69 68q-1 11 -1 23q0 69 79 87q36 8 95 9v-87q-15 -66 -68 -91q-19 -9 -36 -9z" />
    <glyph glyph-name="ccedilla" unicode="&#xe7;" horiz-adv-x="443" 
d="M36 211q0 -132 98 -190q32 -18 70 -26l-40 -80l14 -9q25 17 50 17q42 0 48 -43q1 -7 1 -14q0 -52 -38 -64q-8 -3 -16 -3q-38 1 -68 39l-16 -12q36 -52 107 -53q74 0 107 47q14 20 14 44q0 53 -55 75q-25 10 -54 10q-30 0 -53 -10l23 52q10 -1 28 -1q104 0 158 68
q15 19 24 41l-26 8q-33 -72 -110 -86q-16 -3 -32 -3q-85 0 -115 96q-13 43 -13 101q1 198 116 199q50 0 61 -43q2 -7 4 -24q7 -43 23 -54q12 -7 29 -8q43 -1 51 34q2 7 2 13q0 47 -59 80q-49 27 -113 27q-121 0 -181 -90q-39 -58 -39 -138z" />
    <glyph glyph-name="egrave" unicode="&#xe8;" horiz-adv-x="469" 
d="M251 414q64 0 81 -65q5 -19 5 -39q0 -49 -41 -60q-23 -6 -65 -4l-89 2q4 128 74 159q16 7 35 7zM430 99l-24 8q-33 -69 -102 -85q-16 -4 -32 -4q-125 0 -130 200v2l109 -2q137 -3 171 33q16 19 16 48q0 75 -75 114q-50 26 -113 26q-119 0 -177 -91q-37 -58 -37 -135
q0 -133 97 -191q53 -32 120 -32q113 0 163 81q8 14 14 28zM330 501q-34 33 -85 105q-19 27 -30 37q-14 12 -30 12q-30 0 -45 -29q-5 -11 -5 -22q1 -20 16 -34q12 -10 87 -46q47 -23 77 -42z" />
    <glyph glyph-name="eacute" unicode="&#xe9;" horiz-adv-x="469" 
d="M251 414q64 0 81 -65q5 -19 5 -39q0 -49 -41 -60q-23 -6 -65 -4l-89 2q4 128 74 159q16 7 35 7zM430 99l-24 8q-33 -69 -102 -85q-16 -4 -32 -4q-125 0 -130 200v2l109 -2q137 -3 171 33q16 19 16 48q0 75 -75 114q-50 26 -113 26q-119 0 -177 -91q-37 -58 -37 -135
q0 -133 97 -191q53 -32 120 -32q113 0 163 81q8 14 14 28zM330 570q16 16 17 34q0 30 -28 45q-11 6 -22 6q-17 -1 -30 -12q-10 -9 -50 -64q-34 -46 -66 -78l16 -19q26 17 118 62q33 16 45 26z" />
    <glyph glyph-name="ecircumflex" unicode="&#xea;" horiz-adv-x="469" 
d="M251 414q64 0 81 -65q5 -19 5 -39q0 -49 -41 -60q-23 -6 -65 -4l-89 2q4 128 74 159q16 7 35 7zM430 99l-24 8q-33 -69 -102 -85q-16 -4 -32 -4q-125 0 -130 200v2l109 -2q137 -3 171 33q16 19 16 48q0 75 -75 114q-50 26 -113 26q-119 0 -177 -91q-37 -58 -37 -135
q0 -133 97 -191q53 -32 120 -32q113 0 163 81q8 14 14 28zM359 499l12 18q-15 16 -75 89q-38 37 -61 40q-27 0 -56 -35q-6 -7 -20 -25q-34 -43 -58 -70l12 -16q58 35 124 65q53 -24 122 -66z" />
    <glyph glyph-name="edieresis" unicode="&#xeb;" horiz-adv-x="469" 
d="M251 414q64 0 81 -65q5 -19 5 -39q0 -49 -41 -60q-23 -6 -65 -4l-89 2q4 128 74 159q16 7 35 7zM430 99l-24 8q-33 -69 -102 -85q-16 -4 -32 -4q-125 0 -130 200v2l109 -2q137 -3 171 33q16 19 16 48q0 75 -75 114q-50 26 -113 26q-119 0 -177 -91q-37 -58 -37 -135
q0 -133 97 -191q53 -32 120 -32q113 0 163 81q8 14 14 28zM201 569q0 35 -31 52q-12 6 -25 6q-37 0 -53 -33q-5 -13 -5 -25q0 -37 34 -51q12 -5 24 -5q35 0 50 31q6 12 6 25zM386 569q0 36 -32 52q-13 6 -26 6q-35 0 -51 -32q-6 -13 -6 -26q0 -36 33 -51q12 -5 24 -5
q37 0 52 32q6 12 6 24z" />
    <glyph glyph-name="igrave" unicode="&#xec;" horiz-adv-x="285" 
d="M240 26h-44v401h-170v-26h69v-323q0 -49 -59 -52h-10v-26h238q0 23 -13 25q-5 1 -11 1zM238 501q-34 33 -85 105q-19 27 -30 37q-14 12 -30 12q-30 0 -45 -29q-5 -11 -5 -22q1 -20 16 -34q12 -10 87 -46q47 -23 77 -42z" />
    <glyph glyph-name="iacute" unicode="&#xed;" horiz-adv-x="285" 
d="M240 26h-44v401h-170v-26h69v-323q0 -49 -59 -52h-10v-26h238q0 23 -13 25q-5 1 -11 1zM237 570q16 16 17 34q0 30 -28 45q-11 6 -22 6q-17 -1 -30 -12q-10 -9 -50 -64q-34 -46 -66 -78l16 -19q26 17 118 62q33 16 45 26z" />
    <glyph glyph-name="icircumflex" unicode="&#xee;" horiz-adv-x="285" 
d="M240 26h-44v401h-170v-26h69v-323q0 -49 -59 -52h-10v-26h238q0 23 -13 25q-5 1 -11 1zM266 499l12 18q-15 16 -75 89q-38 37 -61 40q-27 0 -56 -35q-6 -7 -20 -25q-34 -43 -58 -70l12 -16q58 35 124 65q53 -24 122 -66z" />
    <glyph glyph-name="idieresis" unicode="&#xef;" horiz-adv-x="285" 
d="M116 569q0 36 -31 51q-12 6 -24 6q-37 0 -52 -34q-5 -11 -5 -23q0 -36 34 -50q11 -5 23 -5q35 0 50 32q5 11 5 23zM282 569q0 36 -33 51q-12 6 -24 6q-35 0 -50 -32q-5 -12 -5 -25q0 -35 32 -50q11 -5 23 -5q36 0 51 31q6 12 6 24zM240 26h-44v401h-170v-26h69v-323
q0 -49 -59 -52h-10v-26h238q0 23 -13 25q-5 1 -11 1z" />
    <glyph glyph-name="eth" unicode="&#xf0;" horiz-adv-x="552" 
d="M481 245q0 142 -83 255q-33 45 -75 77l88 50l-15 26l-101 -57q-81 49 -179 54l-3 -27q84 -8 140 -50l-123 -69l16 -28l131 75q55 -59 79 -171q-46 24 -99 24q-100 0 -165 -65q-56 -57 -56 -139q0 -109 85 -169q59 -41 135 -41q135 0 193 112q32 62 32 143zM142 196
q1 182 117 183q116 -2 117 -178q0 -155 -84 -181q-16 -5 -33 -5q-106 0 -116 144q-1 18 -1 37z" />
    <glyph glyph-name="ntilde" unicode="&#xf1;" horiz-adv-x="566" 
d="M227 25h-37l1 241q7 81 64 114q21 12 43 12q60 0 77 -60q5 -20 5 -42v-208q0 -44 -24 -53q-14 -4 -39 -4v-25h228q0 22 -13 24q-5 1 -12 1h-43v252q0 107 -74 146q-29 16 -64 16q-74 0 -124 -59q-16 -20 -26 -43l-5 90h-158v-25h68v-320q0 -45 -29 -53q-14 -4 -39 -4v-25
h226q0 22 -13 24q-5 1 -12 1zM229 641q30 0 76 -33q38 -27 59 -27q38 0 53 52q1 3 1 4l21 -4q-16 -105 -80 -116q-6 -1 -12 -1q-30 0 -75 33q-38 27 -59 27q-36 0 -51 -43q-2 -7 -4 -13l-20 4q25 110 91 117z" />
    <glyph glyph-name="ograve" unicode="&#xf2;" horiz-adv-x="516" 
d="M142 215q10 191 116 199q95 0 112 -124q4 -32 4 -71q-2 -202 -115 -204q-100 0 -114 140q-3 27 -3 60zM261 439q-107 0 -172 -73q-53 -60 -53 -147q0 -121 86 -185q58 -44 134 -44q104 0 169 74q55 63 55 153q0 121 -88 183q-57 39 -131 39zM360 501q-34 33 -85 105
q-19 27 -30 37q-14 12 -30 12q-30 0 -45 -29q-5 -11 -5 -22q1 -20 16 -34q12 -10 87 -46q47 -23 77 -42z" />
    <glyph glyph-name="oacute" unicode="&#xf3;" horiz-adv-x="516" 
d="M142 215q10 191 116 199q95 0 112 -124q4 -32 4 -71q-2 -202 -115 -204q-100 0 -114 140q-3 27 -3 60zM261 439q-107 0 -172 -73q-53 -60 -53 -147q0 -121 86 -185q58 -44 134 -44q104 0 169 74q55 63 55 153q0 121 -88 183q-57 39 -131 39zM359 570q16 16 17 34
q0 30 -28 45q-11 6 -22 6q-17 -1 -30 -12q-10 -9 -50 -64q-34 -46 -66 -78l16 -19q26 17 118 62q33 16 45 26z" />
    <glyph glyph-name="ocircumflex" unicode="&#xf4;" horiz-adv-x="516" 
d="M142 215q10 191 116 199q95 0 112 -124q4 -32 4 -71q-2 -202 -115 -204q-100 0 -114 140q-3 27 -3 60zM261 439q-107 0 -172 -73q-53 -60 -53 -147q0 -121 86 -185q58 -44 134 -44q104 0 169 74q55 63 55 153q0 121 -88 183q-57 39 -131 39zM389 499l12 18q-15 16 -75 89
q-38 37 -61 40q-27 0 -56 -35q-6 -7 -20 -25q-34 -43 -58 -70l12 -16q58 35 124 65q53 -24 122 -66z" />
    <glyph glyph-name="otilde" unicode="&#xf5;" horiz-adv-x="516" 
d="M142 215q10 191 116 199q95 0 112 -124q4 -32 4 -71q-2 -202 -115 -204q-100 0 -114 140q-3 27 -3 60zM261 439q-107 0 -172 -73q-53 -60 -53 -147q0 -121 86 -185q58 -44 134 -44q104 0 169 74q55 63 55 153q0 121 -88 183q-57 39 -131 39zM212 641q30 0 76 -33
q38 -27 59 -27q38 0 53 52q1 3 1 4l21 -4q-16 -105 -80 -116q-6 -1 -12 -1q-30 0 -75 33q-38 27 -59 27q-36 0 -51 -43q-2 -7 -4 -13l-20 4q25 110 91 117z" />
    <glyph glyph-name="odieresis" unicode="&#xf6;" horiz-adv-x="516" 
d="M142 215q10 191 116 199q95 0 112 -124q4 -32 4 -71q-2 -202 -115 -204q-100 0 -114 140q-3 27 -3 60zM261 439q-107 0 -172 -73q-53 -60 -53 -147q0 -121 86 -185q58 -44 134 -44q104 0 169 74q55 63 55 153q0 121 -88 183q-57 39 -131 39zM230 569q0 35 -31 52
q-13 6 -25 6q-37 0 -53 -33q-5 -13 -5 -25q0 -37 34 -51q12 -5 24 -5q35 0 50 31q6 12 6 25zM415 569q0 36 -32 52q-13 6 -26 6q-35 0 -51 -32q-6 -13 -6 -26q0 -36 33 -51q11 -5 24 -5q37 0 52 32q6 12 6 24z" />
    <glyph glyph-name="divide" unicode="&#xf7;" horiz-adv-x="460" 
d="M422 215v38h-383v-38h383zM199 104q13 20 38 17q12 -2 19 -9q20 -12 18 -35q-2 -12 -10 -20q-13 -22 -39 -18q-11 2 -18 9q-14 10 -19 24q-2 19 11 32zM199 405q13 20 38 17q11 -1 19 -9q20 -12 18 -35q-2 -12 -10 -20q-13 -22 -39 -18q-11 2 -18 9q-14 10 -19 24
q-2 19 11 32z" />
    <glyph glyph-name="oslash" unicode="&#xf8;" horiz-adv-x="516" 
d="M31 -11l67 66q63 -65 158 -65q104 0 169 74q55 63 55 153q-1 96 -58 157l68 67l-23 21l-68 -67q-58 44 -138 44q-107 0 -172 -73q-53 -60 -53 -147q1 -80 42 -140l-70 -68zM142 215q10 191 116 199q69 -1 96 -63l-208 -205q-4 29 -4 69zM259 15q-82 2 -106 94l212 209
q9 -42 9 -99q-2 -202 -115 -204z" />
    <glyph glyph-name="ugrave" unicode="&#xf9;" horiz-adv-x="565" 
d="M516 25h-43v402h-165v-25h68v-231q-3 -85 -60 -120q-23 -14 -47 -14q-72 0 -84 77q-2 14 -2 28v285h-165v-25h69v-244q1 -167 143 -168q78 0 125 64q14 19 23 40l7 -94h156q0 22 -13 24q-5 1 -12 1zM378 501q-34 33 -85 105q-19 27 -30 37q-14 12 -30 12q-30 0 -45 -29
q-5 -11 -5 -22q1 -20 16 -34q12 -10 87 -46q47 -23 77 -42z" />
    <glyph glyph-name="uacute" unicode="&#xfa;" horiz-adv-x="565" 
d="M516 25h-43v402h-165v-25h68v-231q-3 -85 -60 -120q-23 -14 -47 -14q-72 0 -84 77q-2 14 -2 28v285h-165v-25h69v-244q1 -167 143 -168q78 0 125 64q14 19 23 40l7 -94h156q0 22 -13 24q-5 1 -12 1zM378 570q16 16 17 34q0 30 -28 45q-11 6 -22 6q-17 -1 -30 -12
q-10 -9 -50 -64q-34 -46 -66 -78l16 -19q26 17 118 62q33 16 45 26z" />
    <glyph glyph-name="ucircumflex" unicode="&#xfb;" horiz-adv-x="565" 
d="M516 25h-43v402h-165v-25h68v-231q-3 -85 -60 -120q-23 -14 -47 -14q-72 0 -84 77q-2 14 -2 28v285h-165v-25h69v-244q1 -167 143 -168q78 0 125 64q14 19 23 40l7 -94h156q0 22 -13 24q-5 1 -12 1zM407 499l12 18q-15 16 -75 89q-38 37 -61 40q-27 0 -56 -35
q-6 -7 -20 -25q-34 -43 -58 -70l12 -16q58 35 124 65q53 -24 122 -66z" />
    <glyph glyph-name="udieresis" unicode="&#xfc;" horiz-adv-x="565" 
d="M516 25h-43v402h-165v-25h68v-231q-3 -85 -60 -120q-23 -14 -47 -14q-72 0 -84 77q-2 14 -2 28v285h-165v-25h69v-244q1 -167 143 -168q78 0 125 64q14 19 23 40l7 -94h156q0 22 -13 24q-5 1 -12 1zM249 569q0 35 -31 52q-13 6 -25 6q-37 0 -53 -33q-5 -13 -5 -25
q0 -37 34 -51q12 -5 24 -5q35 0 50 31q6 12 6 25zM434 569q0 36 -32 52q-13 6 -26 6q-35 0 -51 -32q-6 -13 -6 -26q0 -36 33 -51q12 -5 24 -5q37 0 52 32q6 12 6 24z" />
    <glyph glyph-name="yacute" unicode="&#xfd;" horiz-adv-x="486" 
d="M114 -159q-17 0 -26 25q-12 33 -23 40q-10 7 -24 7q-33 0 -41 -30q-1 -5 -1 -10q0 -35 42 -55q23 -10 51 -10q81 0 138 96q23 38 44 91l149 375q10 27 23 30q6 1 13 1q21 0 24 13q1 5 1 13h-154v-26h74l-120 -302l-131 302h65v26h-211v-26h46l186 -410
q-52 -126 -100 -145q-12 -5 -25 -5zM368 570q16 16 17 34q0 30 -28 45q-11 6 -22 6q-17 -1 -30 -12q-10 -9 -50 -64q-34 -46 -66 -78l16 -19q26 17 118 62q33 16 45 26z" />
    <glyph glyph-name="thorn" unicode="&#xfe;" horiz-adv-x="558" 
d="M192 -164v204q38 -45 112 -50h11q93 0 153 70q55 65 55 165q0 119 -68 178q-42 36 -102 36q-89 0 -138 -67q-16 -22 -25 -49v327h-164v-26h69v-736q0 -41 -33 -49q-14 -3 -35 -3v-26h252q0 23 -13 25q-5 1 -11 1h-63zM313 396q93 0 103 -149q1 -17 1 -34q0 -159 -79 -190
q-16 -7 -35 -7q-68 0 -97 77q-15 42 -15 101q0 128 61 179q28 23 61 23z" />
    <glyph glyph-name="ydieresis" unicode="&#xff;" horiz-adv-x="486" 
d="M114 -159q-17 0 -26 25q-12 33 -23 40q-10 7 -24 7q-33 0 -41 -30q-1 -5 -1 -10q0 -35 42 -55q23 -10 51 -10q81 0 138 96q23 38 44 91l149 375q10 27 23 30q6 1 13 1q21 0 24 13q1 5 1 13h-154v-26h74l-120 -302l-131 302h65v26h-211v-26h46l186 -410
q-52 -126 -100 -145q-12 -5 -25 -5zM215 570q0 35 -31 52q-13 6 -25 6q-37 0 -53 -33q-5 -13 -5 -25q0 -37 34 -51q12 -5 24 -5q35 0 50 31q6 12 6 25zM400 570q0 36 -32 52q-13 6 -26 6q-35 0 -51 -32q-6 -13 -6 -26q0 -36 33 -51q12 -5 24 -5q37 0 52 32q6 12 6 24z" />
    <glyph glyph-name="Amacron" unicode="&#x100;" horiz-adv-x="627" 
d="M627 0q0 23 -15 25q-5 1 -10 1h-32l-232 574h-53l-222 -574h-63v-26h180q0 22 -13 25q-6 1 -12 1h-52l74 194h205l75 -194h-67v-26h237zM370 249h-182l91 237zM160 670h308v52h-308v-52z" />
    <glyph glyph-name="amacron" unicode="&#x101;" horiz-adv-x="487" 
d="M390 -10q70 0 86 63q5 18 6 41l-26 1q-7 -71 -38 -72q-24 2 -25 51v210q-2 154 -169 155q-121 0 -158 -54q-11 -17 -11 -34q0 -32 30 -41q8 -2 16 -2q31 0 43 33q2 5 5 15q13 40 32 51q14 7 34 7q81 -2 82 -105v-64q-240 -3 -265 -109q-3 -14 -3 -29q0 -80 69 -107
q26 -10 57 -10q76 0 122 52q15 18 23 38q15 -89 90 -90zM196 31q-55 0 -65 65q-2 12 -2 26q0 68 72 86q37 9 96 10v-87q-17 -70 -70 -93q-16 -7 -31 -7zM91 540h308v52h-308v-52z" />
    <glyph glyph-name="Abreve" unicode="&#x102;" horiz-adv-x="627" 
d="M627 0q0 23 -15 25q-5 1 -10 1h-32l-232 574h-53l-222 -574h-63v-26h180q0 22 -13 25q-6 1 -12 1h-52l74 194h205l75 -194h-67v-26h237zM370 249h-182l91 237zM315 709q82 0 98 51q2 5 3 10h21q0 -92 -67 -122q-25 -11 -58 -11q-93 0 -118 81q-8 25 -8 52h20
q13 -61 109 -61z" />
    <glyph glyph-name="abreve" unicode="&#x103;" horiz-adv-x="487" 
d="M390 -10q70 0 86 63q5 18 6 41l-26 1q-7 -71 -38 -72q-24 2 -25 51v210q-2 154 -169 155q-121 0 -158 -54q-11 -17 -11 -34q0 -32 30 -41q8 -2 16 -2q31 0 43 33q2 5 5 15q13 40 32 51q14 7 34 7q81 -2 82 -105v-64q-240 -3 -265 -109q-3 -14 -3 -29q0 -80 69 -107
q26 -10 57 -10q76 0 122 52q15 18 23 38q15 -89 90 -90zM196 31q-55 0 -65 65q-2 12 -2 26q0 68 72 86q37 9 96 10v-87q-17 -70 -70 -93q-16 -7 -31 -7zM246 579q82 0 98 51q2 5 3 10h21q0 -92 -67 -122q-25 -11 -58 -11q-93 0 -118 81q-8 25 -8 52h20q13 -61 109 -61z" />
    <glyph glyph-name="Aogonek" unicode="&#x104;" horiz-adv-x="627" 
d="M627 0q0 23 -15 25q-5 1 -10 1h-32l-232 574h-53l-222 -574h-63v-26h180q0 22 -13 25q-6 1 -12 1h-52l74 194h205l75 -194h-67v-26h176q-111 -28 -134 -92q-4 -13 -4 -25q0 -47 53 -66q22 -8 48 -8q58 1 93 36l-12 16q-28 -23 -54 -23q-37 4 -39 50q0 48 51 87
q20 15 44 25h15zM370 249h-182l91 237z" />
    <glyph glyph-name="aogonek" unicode="&#x105;" horiz-adv-x="487" 
d="M196 31q-55 0 -65 65q-2 12 -2 26q0 68 72 86q37 9 96 10v-87q-17 -70 -70 -93q-16 -7 -31 -7zM399 -162q-37 4 -39 50q0 48 51 87q20 15 44 25l-1 9h-3q28 25 31 85l-26 1q-7 -71 -38 -72q-24 2 -25 51v210q-2 154 -169 155q-121 0 -158 -54q-11 -17 -11 -34
q0 -32 30 -41q8 -2 16 -2q31 0 43 33q2 5 5 15q13 40 32 51q14 7 34 7q81 -2 82 -105v-64q-240 -3 -265 -109q-3 -14 -3 -29q0 -80 69 -107q26 -10 57 -10q76 0 122 52q15 18 23 38q13 -81 78 -89q-94 -34 -106 -94q-1 -8 -1 -14q0 -47 53 -66q22 -8 48 -8q58 1 93 36
l-12 16q-28 -23 -54 -23z" />
    <glyph glyph-name="Cacute" unicode="&#x106;" horiz-adv-x="614" 
d="M547 43q-1 -41 14 -46q7 -2 18 -2v192h-27q-49 -167 -198 -168q-174 0 -187 245q-1 19 -1 38q0 204 112 261q36 18 81 18q140 -2 189 -165h28l-3 189q-24 0 -28 -16q-2 -11 -2 -32q-81 53 -193 53q-162 0 -248 -118q-60 -83 -60 -191q0 -129 81 -218q87 -93 229 -93
q100 1 195 53zM411 770q16 16 17 34q0 30 -28 45q-11 6 -22 6q-17 -1 -30 -12q-10 -9 -50 -64q-34 -46 -66 -78l16 -19q26 17 118 62q33 16 45 26z" />
    <glyph glyph-name="cacute" unicode="&#x107;" horiz-adv-x="443" 
d="M36 211q0 -131 97 -189q54 -32 123 -32q104 0 158 68q15 19 24 41l-26 8q-33 -72 -110 -86q-16 -3 -32 -3q-85 0 -115 96q-13 43 -13 101q1 198 116 199q50 0 61 -43q2 -7 4 -24q7 -43 23 -54q12 -7 29 -8q43 -1 51 34q2 7 2 13q0 47 -59 80q-49 27 -113 27
q-121 0 -181 -90q-39 -58 -39 -138zM341 570q16 16 17 34q0 30 -28 45q-11 6 -22 6q-17 -1 -30 -12q-10 -9 -50 -64q-34 -46 -66 -78l16 -19q26 17 118 62q33 16 45 26z" />
    <glyph glyph-name="Ccaron" unicode="&#x10c;" horiz-adv-x="614" 
d="M547 43q-1 -41 14 -46q7 -2 18 -2v192h-27q-49 -167 -198 -168q-174 0 -187 245q-1 19 -1 38q0 204 112 261q36 18 81 18q140 -2 189 -165h28l-3 189q-24 0 -28 -16q-2 -11 -2 -32q-81 53 -193 53q-162 0 -248 -118q-60 -83 -60 -191q0 -129 81 -218q87 -93 229 -93
q100 1 195 53zM318 701q28 0 61 37q7 9 23 29q36 44 61 71l-14 17q-45 -28 -132 -70q-71 34 -132 70l-14 -18q12 -13 80 -92q42 -41 67 -44z" />
    <glyph glyph-name="ccaron" unicode="&#x10d;" horiz-adv-x="443" 
d="M36 211q0 -131 97 -189q54 -32 123 -32q104 0 158 68q15 19 24 41l-26 8q-33 -72 -110 -86q-16 -3 -32 -3q-85 0 -115 96q-13 43 -13 101q1 198 116 199q50 0 61 -43q2 -7 4 -24q7 -43 23 -54q12 -7 29 -8q43 -1 51 34q2 7 2 13q0 47 -59 80q-49 27 -113 27
q-121 0 -181 -90q-39 -58 -39 -138zM248 501q28 0 61 37q7 9 23 29q36 44 61 71l-14 17q-45 -28 -132 -70q-71 34 -132 70l-14 -18q12 -13 80 -92q42 -41 67 -44z" />
    <glyph glyph-name="Dcaron" unicode="&#x10e;" horiz-adv-x="675" 
d="M32 600v-26h80v-548h-80v-26h285q136 0 225 84q87 83 87 215q0 170 -126 250q-80 51 -186 51h-285zM317 574q139 0 176 -136q15 -55 15 -134q-7 -273 -190 -278h-99v548h98zM331 631q28 0 61 37q7 9 23 29q36 44 61 71l-14 17q-45 -28 -132 -70q-71 34 -132 70l-14 -18
q12 -13 80 -92q42 -41 67 -44z" />
    <glyph glyph-name="dcaron" unicode="&#x10f;" horiz-adv-x="573" 
d="M379 0h158q0 23 -13 25q-5 1 -11 1h-49l-1 624h-190v-25h94v-235q-49 50 -128 50q-104 0 -162 -87q-41 -64 -41 -149q0 -122 79 -181q44 -33 99 -33q104 0 150 101l4 10zM142 216q0 139 68 181q23 14 50 14q71 0 97 -85q12 -39 12 -91q0 -130 -61 -181q-26 -22 -59 -22
q-74 0 -98 98q-9 38 -9 86zM616 584q0 59 -44 73q-11 4 -23 4q-35 0 -52 -33q-7 -14 -7 -29q0 -38 37 -54q7 -3 13 -4q25 -7 26 -21q-1 -29 -45 -77l22 -16q66 69 73 145v12z" />
    <glyph glyph-name="Dcroat" unicode="&#x110;" horiz-adv-x="675" 
d="M32 600v-26h80v-243h-72v-42h72v-263h-80v-26h285q136 0 225 84q87 83 87 215q0 170 -126 250q-80 51 -186 51h-285zM317 574q139 0 176 -136q15 -55 15 -134q-7 -273 -190 -278h-99v263h109v42h-109v243h98z" />
    <glyph glyph-name="dcroat" unicode="&#x111;" horiz-adv-x="557" 
d="M184 509h183v-119q-49 50 -128 50q-104 0 -162 -87q-41 -64 -41 -149q0 -122 79 -181q44 -33 99 -33q104 0 150 101l4 10l11 -101h158q0 23 -13 25q-5 1 -11 1h-49l-1 483h74v33h-74v108h-190v-25h94v-83h-183v-33zM142 216q0 139 68 181q23 14 50 14q71 0 97 -85
q12 -39 12 -91q0 -130 -61 -181q-26 -22 -59 -22q-74 0 -98 98q-9 38 -9 86z" />
    <glyph glyph-name="Emacron" unicode="&#x112;" horiz-adv-x="561" 
d="M513 415l-4 185h-477v-26h80v-548h-80v-26h477l4 185h-23l-18 -56q-27 -89 -88 -101q-11 -2 -23 -2h-142v269h201v29h-201v250h142q79 0 109 -96q1 -4 2 -7l18 -56h23zM142 670h308v52h-308v-52z" />
    <glyph glyph-name="emacron" unicode="&#x113;" horiz-adv-x="469" 
d="M251 414q64 0 81 -65q5 -19 5 -39q0 -49 -41 -60q-23 -6 -65 -4l-89 2q4 128 74 159q16 7 35 7zM430 99l-24 8q-33 -69 -102 -85q-16 -4 -32 -4q-125 0 -130 200v2l109 -2q137 -3 171 33q16 19 16 48q0 75 -75 114q-50 26 -113 26q-119 0 -177 -91q-37 -58 -37 -135
q0 -133 97 -191q53 -32 120 -32q113 0 163 81q8 14 14 28zM84 540h308v52h-308v-52z" />
    <glyph glyph-name="Edotaccent" unicode="&#x116;" horiz-adv-x="561" 
d="M513 415l-4 185h-477v-26h80v-548h-80v-26h477l4 185h-23l-18 -56q-27 -89 -88 -101q-11 -2 -23 -2h-142v269h201v29h-201v250h142q79 0 109 -96q1 -4 2 -7l18 -56h23zM356 697q0 38 -33 56q-15 7 -29 7q-40 0 -57 -36q-6 -13 -6 -27q0 -40 36 -56q13 -6 27 -6
q38 0 55 34q7 14 7 28z" />
    <glyph glyph-name="edotaccent" unicode="&#x117;" horiz-adv-x="469" 
d="M251 414q64 0 81 -65q5 -19 5 -39q0 -49 -41 -60q-23 -6 -65 -4l-89 2q4 128 74 159q16 7 35 7zM430 99l-24 8q-33 -69 -102 -85q-16 -4 -32 -4q-125 0 -130 200v2l109 -2q137 -3 171 33q16 19 16 48q0 75 -75 114q-50 26 -113 26q-119 0 -177 -91q-37 -58 -37 -135
q0 -133 97 -191q53 -32 120 -32q113 0 163 81q8 14 14 28zM298 567q0 38 -33 56q-15 7 -29 7q-40 0 -57 -36q-6 -13 -6 -27q0 -40 36 -56q13 -6 27 -6q38 0 55 34q7 14 7 28z" />
    <glyph glyph-name="Eogonek" unicode="&#x118;" horiz-adv-x="561" 
d="M513 415l-4 185h-477v-26h80v-548h-80v-26h421q-111 -28 -134 -92q-4 -13 -4 -25q0 -47 53 -66q22 -8 48 -8q58 1 93 36l-12 16q-28 -23 -54 -23q-37 4 -39 50q0 48 51 87q20 15 44 25h10l4 185h-23l-18 -56q-27 -89 -88 -101q-11 -2 -23 -2h-142v269h201v29h-201v250
h142q79 0 109 -96q1 -4 2 -7l18 -56h23z" />
    <glyph glyph-name="eogonek" unicode="&#x119;" horiz-adv-x="469" 
d="M251 414q64 0 81 -65q5 -19 5 -39q0 -49 -41 -60q-23 -6 -65 -4l-89 2q4 128 74 159q16 7 35 7zM430 99l-24 8q-33 -69 -102 -85q-16 -4 -32 -4q-125 0 -130 200v2l109 -2q137 -3 171 33q16 19 16 48q0 75 -75 114q-50 26 -113 26q-119 0 -177 -91q-37 -58 -37 -135
q0 -133 97 -191q53 -32 120 -32q113 0 163 81q8 14 14 28zM325 -162q-37 4 -39 50q0 48 51 87q20 15 44 25l-1 9q-137 -21 -173 -89q-10 -18 -10 -37q0 -47 53 -66q22 -8 48 -8q58 1 93 36l-12 16q-28 -23 -54 -23z" />
    <glyph glyph-name="Ecaron" unicode="&#x11a;" horiz-adv-x="561" 
d="M513 415l-4 185h-477v-26h80v-548h-80v-26h477l4 185h-23l-18 -56q-27 -89 -88 -101q-11 -2 -23 -2h-142v269h201v29h-201v250h142q79 0 109 -96q1 -4 2 -7l18 -56h23zM295 631q28 0 61 37q7 9 23 29q36 44 61 71l-14 17q-45 -28 -132 -70q-71 34 -132 70l-14 -18
q12 -13 80 -92q42 -41 67 -44z" />
    <glyph glyph-name="ecaron" unicode="&#x11b;" horiz-adv-x="469" 
d="M251 414q64 0 81 -65q5 -19 5 -39q0 -49 -41 -60q-23 -6 -65 -4l-89 2q4 128 74 159q16 7 35 7zM430 99l-24 8q-33 -69 -102 -85q-16 -4 -32 -4q-125 0 -130 200v2l109 -2q137 -3 171 33q16 19 16 48q0 75 -75 114q-50 26 -113 26q-119 0 -177 -91q-37 -58 -37 -135
q0 -133 97 -191q53 -32 120 -32q113 0 163 81q8 14 14 28zM237 501q28 0 61 37q7 9 23 29q36 44 61 71l-14 17q-45 -28 -132 -70q-71 34 -132 70l-14 -18q12 -13 80 -92q42 -41 67 -44z" />
    <glyph glyph-name="Gbreve" unicode="&#x11e;" horiz-adv-x="694" 
d="M404 272v-26h87v-172q-54 -53 -133 -53q-165 0 -186 209q-3 32 -3 69q0 266 171 281q10 1 20 1q104 0 152 -75q25 -41 42 -109h28l-5 201l-90 -18q-65 30 -138 30q-127 0 -212 -81q-90 -85 -90 -226q0 -167 119 -254q81 -59 184 -59q84 0 148 37l100 -27v246h71v26h-265z
M356 709q82 0 98 51q2 5 3 10h21q0 -92 -67 -122q-25 -11 -58 -11q-93 0 -118 81q-8 25 -8 52h20q13 -61 109 -61z" />
    <glyph glyph-name="gbreve" unicode="&#x11f;" horiz-adv-x="491" 
d="M146 277q0 110 52 131q16 6 36 6q69 0 82 -74q5 -26 5 -62q0 -110 -49 -133q-17 -7 -39 -7q-69 0 -83 78q-4 25 -4 61zM236 439q-101 0 -155 -65q-34 -41 -34 -97q0 -74 72 -126q9 -7 18 -12q-59 0 -78 -53q-6 -16 -6 -33q1 -51 40 -79q-30 -32 -30 -66q0 -55 67 -82
q45 -18 108 -18q157 0 205 75q16 24 16 52q0 93 -104 106q-14 2 -27 2l-192 4q-40 3 -41 35q0 24 29 30q7 1 13 1l93 -1h3q97 0 152 66q35 44 35 101q-1 76 -57 120q14 34 42 35q13 0 31 -16q12 -11 23 -11q27 0 32 27q1 4 1 7q0 33 -32 46q-13 5 -27 5q-48 0 -77 -47
q-9 -15 -14 -32q-47 26 -106 26zM238 -166q-109 0 -135 54q-6 12 -6 25q1 25 20 49q17 -6 37 -6l174 -2q70 0 80 -29q3 -8 3 -17q0 -45 -85 -65q-40 -9 -88 -9zM249 579q-96 1 -109 61h-20q0 -87 62 -119q28 -14 64 -14q97 0 119 87q6 22 6 46h-21q-19 -59 -101 -61z" />
    <glyph glyph-name="uni0122" unicode="&#x122;" horiz-adv-x="694" 
d="M404 272v-26h87v-172q-54 -53 -133 -53q-165 0 -186 209q-3 32 -3 69q0 266 171 281q10 1 20 1q104 0 152 -75q25 -41 42 -109h28l-5 201l-90 -18q-65 30 -138 30q-127 0 -212 -81q-90 -85 -90 -226q0 -167 119 -254q81 -59 184 -59q84 0 148 37l100 -27v246h71v26h-265z
M413 -113q0 59 -44 73q-11 4 -23 4q-36 0 -53 -34q-6 -14 -6 -28q0 -38 37 -54q7 -3 13 -4q25 -6 26 -21q-1 -29 -45 -77l22 -16q66 69 73 145v12z" />
    <glyph glyph-name="uni0123" unicode="&#x123;" horiz-adv-x="491" 
d="M146 277q0 110 52 131q16 6 36 6q69 0 82 -74q5 -26 5 -62q0 -110 -49 -133q-17 -7 -39 -7q-69 0 -83 78q-4 25 -4 61zM236 439q-101 0 -155 -65q-34 -41 -34 -97q0 -74 72 -126q9 -7 18 -12q-59 0 -78 -53q-6 -16 -6 -33q1 -51 40 -79q-30 -32 -30 -66q0 -55 67 -82
q45 -18 108 -18q157 0 205 75q16 24 16 52q0 93 -104 106q-14 2 -27 2l-192 4q-40 3 -41 35q0 24 29 30q7 1 13 1l93 -1h3q97 0 152 66q35 44 35 101q-1 76 -57 120q14 34 42 35q13 0 31 -16q12 -11 23 -11q27 0 32 27q1 4 1 7q0 33 -32 46q-13 5 -27 5q-48 0 -77 -47
q-9 -15 -14 -32q-47 26 -106 26zM238 -166q-109 0 -135 54q-6 12 -6 25q1 25 20 49q17 -6 37 -6l174 -2q70 0 80 -29q3 -8 3 -17q0 -45 -85 -65q-40 -9 -88 -9zM180 568q0 -59 44 -73q11 -4 23 -4q36 0 53 34q6 14 6 28q0 38 -37 54q-7 3 -13 4q-25 6 -26 21q1 29 45 77
l-22 16q-66 -69 -73 -145v-12z" />
    <glyph glyph-name="Imacron" unicode="&#x12a;" horiz-adv-x="331" 
d="M299 0q0 22 -16 25q-5 1 -10 1h-54v548h80v26h-267v-26h80v-548h-80v-26h267zM13 670h308v52h-308v-52z" />
    <glyph glyph-name="imacron" unicode="&#x12b;" horiz-adv-x="285" 
d="M21 540h248v52h-248v-52zM240 26h-44v401h-170v-26h69v-323q0 -49 -59 -52h-10v-26h238q0 23 -13 25q-5 1 -11 1z" />
    <glyph glyph-name="Iogonek" unicode="&#x12e;" horiz-adv-x="331" 
d="M299 0q0 22 -16 25q-5 1 -10 1h-54v548h80v26h-267v-26h80v-548h-80v-26h213q-111 -28 -134 -92q-4 -13 -4 -25q0 -47 53 -66q22 -8 48 -8q58 1 93 36l-12 16q-28 -23 -54 -23q-37 4 -39 50q0 48 51 87q20 15 44 25h8z" />
    <glyph glyph-name="iogonek" unicode="&#x12f;" horiz-adv-x="285" 
d="M240 26h-44v401h-170v-26h69v-323q0 -49 -59 -52h-10v-26h192q-111 -28 -134 -92q-4 -13 -4 -25q0 -47 53 -66q22 -8 48 -8q58 1 93 36l-12 16q-28 -23 -54 -23q-37 4 -39 50q0 48 51 87q20 15 44 25q0 23 -13 25q-5 1 -11 1zM205 567q0 38 -33 56q-15 7 -29 7
q-40 0 -57 -36q-6 -13 -6 -27q0 -40 36 -56q13 -6 27 -6q38 0 55 34q7 14 7 28z" />
    <glyph glyph-name="Idotaccent" unicode="&#x130;" horiz-adv-x="331" 
d="M299 0q0 22 -16 25q-5 1 -10 1h-54v548h80v26h-267v-26h80v-548h-80v-26h267zM227 697q0 38 -33 56q-15 7 -29 7q-40 0 -57 -36q-6 -13 -6 -27q0 -40 36 -56q13 -6 27 -6q38 0 55 34q7 14 7 28z" />
    <glyph glyph-name="dotlessi" unicode="&#x131;" horiz-adv-x="285" 
d="M240 26h-44v401h-170v-26h69v-323q0 -49 -59 -52h-10v-26h238q0 23 -13 25q-5 1 -11 1z" />
    <glyph glyph-name="uni0136" unicode="&#x136;" horiz-adv-x="643" 
d="M419 -113q0 59 -44 73q-11 4 -23 4q-36 0 -53 -34q-6 -14 -6 -28q0 -38 37 -54q7 -3 13 -4q25 -6 26 -21q-1 -29 -45 -77l22 -16q66 69 73 145v12zM299 0q0 22 -16 25q-5 1 -10 1h-54v236l45 41l218 -303h160q0 22 -16 25q-5 1 -10 1h-20l-254 349l167 155q42 37 59 42
q9 2 18 2q23 0 25 16q1 5 1 10h-182v-26h80l-291 -266v266h80v26h-267v-26h80v-548h-80v-26h267z" />
    <glyph glyph-name="uni0137" unicode="&#x137;" horiz-adv-x="511" 
d="M244 25h-48v151l46 43l133 -219h146q0 22 -13 24q-5 1 -12 1h-27l-161 257l86 81q35 33 52 37q9 2 18 2q23 0 25 15q1 5 1 10h-170v-25h74l-198 -186v434h-172v-25h76v-543q0 -45 -35 -53q-15 -4 -41 -4v-25h245q0 22 -13 24q-5 1 -12 1zM352 -113q0 59 -44 73
q-11 4 -23 4q-36 0 -53 -34q-6 -14 -6 -28q0 -38 37 -54q7 -3 13 -4q25 -6 26 -21q-1 -29 -45 -77l22 -16q66 69 73 145v12z" />
    <glyph glyph-name="Lacute" unicode="&#x139;" horiz-adv-x="502" 
d="M491 0l5 207h-24l-22 -78q-21 -76 -65 -95q-19 -8 -42 -8h-124v548h85v26h-272v-26h80v-548h-80v-26h459zM343 700q16 16 17 34q0 30 -28 45q-11 6 -22 6q-17 -1 -30 -12q-10 -9 -50 -64q-34 -46 -66 -78l16 -19q26 17 118 62q33 16 45 26z" />
    <glyph glyph-name="lacute" unicode="&#x13a;" horiz-adv-x="300" 
d="M226 735q19 11 23 30q5 31 -22 51q-9 7 -19 9q-18 1 -31 -7q-13 -7 -61 -53q-42 -40 -80 -65l13 -21q27 11 127 38q36 10 50 18zM251 25h-53v625h-172v-25h76v-542q0 -44 -28 -53q-16 -5 -48 -5v-25h249q0 21 -13 24q-5 1 -11 1z" />
    <glyph glyph-name="uni013B" unicode="&#x13b;" horiz-adv-x="502" 
d="M491 0l5 207h-24l-22 -78q-21 -76 -65 -95q-19 -8 -42 -8h-124v548h85v26h-272v-26h80v-548h-80v-26h459zM318 -113q0 59 -44 73q-11 4 -23 4q-36 0 -53 -34q-6 -14 -6 -28q0 -38 37 -54q7 -3 13 -4q25 -6 26 -21q-1 -29 -45 -77l22 -16q66 69 73 145v12z" />
    <glyph glyph-name="uni013C" unicode="&#x13c;" horiz-adv-x="298" 
d="M251 25h-53v625h-172v-25h76v-542q0 -44 -28 -53q-16 -5 -48 -5v-25h249q0 21 -13 24q-5 1 -11 1zM210 -113q0 59 -44 73q-11 4 -23 4q-36 0 -53 -34q-6 -14 -6 -28q0 -38 37 -54q7 -3 13 -4q25 -6 26 -21q-1 -29 -45 -77l22 -16q66 69 73 145v12z" />
    <glyph glyph-name="Lcaron" unicode="&#x13d;" horiz-adv-x="502" 
d="M491 0l5 207h-24l-22 -78q-21 -76 -65 -95q-19 -8 -42 -8h-124v548h85v26h-272v-26h80v-548h-80v-26h459zM179 631q28 0 61 37q7 9 23 29q36 44 61 71l-14 17q-45 -28 -132 -70q-71 34 -132 70l-14 -18q12 -13 80 -92q42 -41 67 -44z" />
    <glyph glyph-name="lcaron" unicode="&#x13e;" horiz-adv-x="335" 
d="M251 25h-53v625h-172v-25h76v-542q0 -44 -28 -53q-16 -5 -48 -5v-25h249q0 21 -13 24q-5 1 -11 1zM356 584q0 59 -44 73q-11 4 -23 4q-35 0 -52 -33q-7 -14 -7 -29q0 -38 37 -54q7 -3 13 -4q25 -7 26 -21q-1 -29 -45 -77l22 -16q66 69 73 145v12z" />
    <glyph glyph-name="Lslash" unicode="&#x141;" horiz-adv-x="506" 
d="M491 0l5 207h-24l-22 -78q-21 -76 -65 -95q-19 -8 -42 -8h-124v235l200 112l-16 28l-184 -103v276h85v26h-272v-26h80v-336l-102 -57l16 -28l86 48v-175h-80v-26h459z" />
    <glyph glyph-name="lslash" unicode="&#x142;" horiz-adv-x="300" 
d="M13 228l89 50v-195q0 -44 -28 -53q-16 -5 -48 -5v-25h249q0 21 -13 24q-5 1 -11 1h-53v307l113 64l-16 27l-97 -54v281h-172v-25h76v-310l-105 -58z" />
    <glyph glyph-name="Nacute" unicode="&#x143;" horiz-adv-x="667" 
d="M455 574h83v-424l-369 450h-151v-26h80v-548h-80v-26h206q-8 24 -27 26h-58v444l389 -475l51 10v569h80v26h-204v-26zM430 700q16 16 17 34q0 30 -28 45q-11 6 -22 6q-17 -1 -30 -12q-10 -9 -50 -64q-34 -46 -66 -78l16 -19q26 17 118 62q33 16 45 26z" />
    <glyph glyph-name="nacute" unicode="&#x144;" horiz-adv-x="566" 
d="M227 25h-37l1 241q7 81 64 114q21 12 43 12q60 0 77 -60q5 -20 5 -42v-208q0 -44 -24 -53q-14 -4 -39 -4v-25h228q0 22 -13 24q-5 1 -12 1h-43v252q0 107 -74 146q-29 16 -64 16q-74 0 -124 -59q-16 -20 -26 -43l-5 90h-158v-25h68v-320q0 -45 -29 -53q-14 -4 -39 -4v-25
h226q0 22 -13 24q-5 1 -12 1zM376 570q16 16 17 34q0 30 -28 45q-11 6 -22 6q-17 -1 -30 -12q-10 -9 -50 -64q-34 -46 -66 -78l16 -19q26 17 118 62q33 16 45 26z" />
    <glyph glyph-name="uni0145" unicode="&#x145;" horiz-adv-x="667" 
d="M455 574h83v-424l-369 450h-151v-26h80v-548h-80v-26h206q-8 24 -27 26h-58v444l389 -475l51 10v569h80v26h-204v-26zM398 -113q0 59 -44 73q-11 4 -23 4q-36 0 -53 -34q-6 -14 -6 -28q0 -38 37 -54q7 -3 13 -4q25 -6 26 -21q-1 -29 -45 -77l22 -16q66 69 73 145v12z" />
    <glyph glyph-name="uni0146" unicode="&#x146;" horiz-adv-x="566" 
d="M227 25h-37l1 241q7 81 64 114q21 12 43 12q60 0 77 -60q5 -20 5 -42v-208q0 -44 -24 -53q-14 -4 -39 -4v-25h228q0 22 -13 24q-5 1 -12 1h-43v252q0 107 -74 146q-29 16 -64 16q-74 0 -124 -59q-16 -20 -26 -43l-5 90h-158v-25h68v-320q0 -45 -29 -53q-14 -4 -39 -4v-25
h226q0 22 -13 24q-5 1 -12 1zM346 -113q0 59 -44 73q-11 4 -23 4q-36 0 -53 -34q-6 -14 -6 -28q0 -38 37 -54q7 -3 13 -4q25 -6 26 -21q-1 -29 -45 -77l22 -16q66 69 73 145v12z" />
    <glyph glyph-name="Ncaron" unicode="&#x147;" horiz-adv-x="667" 
d="M455 574h83v-424l-369 450h-151v-26h80v-548h-80v-26h206q-8 24 -27 26h-58v444l389 -475l51 10v569h80v26h-204v-26zM337 631q28 0 61 37q7 9 23 29q36 44 61 71l-14 17q-45 -28 -132 -70q-71 34 -132 70l-14 -18q12 -13 80 -92q42 -41 67 -44z" />
    <glyph glyph-name="ncaron" unicode="&#x148;" horiz-adv-x="566" 
d="M227 25h-37l1 241q7 81 64 114q21 12 43 12q60 0 77 -60q5 -20 5 -42v-208q0 -44 -24 -53q-14 -4 -39 -4v-25h228q0 22 -13 24q-5 1 -12 1h-43v252q0 107 -74 146q-29 16 -64 16q-74 0 -124 -59q-16 -20 -26 -43l-5 90h-158v-25h68v-320q0 -45 -29 -53q-14 -4 -39 -4v-25
h226q0 22 -13 24q-5 1 -12 1zM284 501q28 0 61 37q7 9 23 29q36 44 61 71l-14 17q-45 -28 -132 -70q-71 34 -132 70l-14 -18q12 -13 80 -92q42 -41 67 -44z" />
    <glyph glyph-name="Omacron" unicode="&#x14c;" horiz-adv-x="705" 
d="M355 610q-126 0 -214 -82q-94 -87 -94 -225q0 -160 113 -249q83 -64 192 -64q125 0 213 82q93 88 93 227q0 165 -116 251q-81 60 -187 60zM355 18q-184 2 -185 281q1 282 182 283q181 -2 182 -278q-1 -285 -179 -286zM203 670h308v52h-308v-52z" />
    <glyph glyph-name="omacron" unicode="&#x14d;" horiz-adv-x="516" 
d="M142 215q10 191 116 199q95 0 112 -124q4 -32 4 -71q-2 -202 -115 -204q-100 0 -114 140q-3 27 -3 60zM261 439q-107 0 -172 -73q-53 -60 -53 -147q0 -121 86 -185q58 -44 134 -44q104 0 169 74q55 63 55 153q0 121 -88 183q-57 39 -131 39zM114 540h308v52h-308v-52z
" />
    <glyph glyph-name="Ohungarumlaut" unicode="&#x150;" horiz-adv-x="705" 
d="M355 610q-126 0 -214 -82q-94 -87 -94 -225q0 -160 113 -249q83 -64 192 -64q125 0 213 82q93 88 93 227q0 165 -116 251q-81 60 -187 60zM355 18q-184 2 -185 281q1 282 182 283q181 -2 182 -278q-1 -285 -179 -286zM386 720q15 12 15 33q-1 28 -28 43q-12 5 -22 5
q-15 -1 -29 -12q-9 -9 -47 -65q-31 -45 -61 -76l15 -18q25 17 111 62q34 17 46 28zM555 691q17 11 21 30q5 30 -22 48q-9 6 -18 8q-17 2 -31 -7q-12 -7 -57 -52q-40 -40 -76 -65l12 -21q25 11 124 41q33 10 47 18z" />
    <glyph glyph-name="ohungarumlaut" unicode="&#x151;" horiz-adv-x="516" 
d="M142 215q10 191 116 199q95 0 112 -124q4 -32 4 -71q-2 -202 -115 -204q-100 0 -114 140q-3 27 -3 60zM261 439q-107 0 -172 -73q-53 -60 -53 -147q0 -121 86 -185q58 -44 134 -44q104 0 169 74q55 63 55 153q0 121 -88 183q-57 39 -131 39zM297 590q15 12 15 33
q-1 28 -28 43q-12 5 -22 5q-15 -1 -29 -12q-9 -9 -47 -65q-31 -45 -61 -76l15 -18q25 17 111 62q34 17 46 28zM466 561q17 11 21 30q5 30 -22 48q-9 6 -18 8q-17 2 -31 -7q-12 -7 -57 -52q-40 -40 -76 -65l12 -21q25 11 124 41q33 10 47 18z" />
    <glyph glyph-name="OE" unicode="&#x152;" horiz-adv-x="909" 
d="M365 22q-163 0 -189 187q-6 41 -6 90q0 221 119 266q34 13 78 13q51 0 94 -16v-524q-43 -16 -96 -16zM494 0h363l4 187h-23l-19 -58q-35 -102 -120 -103h-131v269h200v29h-200v250h131q87 -1 119 -103l20 -58h23l-4 187h-359q-20 0 -70 2.5t-70 2.5q-131 0 -220 -82
q-91 -84 -91 -220q0 -163 117 -248q83 -60 194 -60q28 0 85 3q38 2 51 2z" />
    <glyph glyph-name="oe" unicode="&#x153;" horiz-adv-x="802" 
d="M581 414q74 0 87 -75q2 -14 2 -29q0 -49 -41 -60q-23 -6 -65 -4l-89 2q4 147 86 164q10 2 20 2zM142 215q10 191 116 199q95 0 112 -124q4 -32 4 -71q-2 -202 -115 -204q-100 0 -114 140q-3 27 -3 60zM261 439q-107 0 -172 -73q-53 -60 -53 -147q0 -121 86 -185
q58 -44 134 -44q97 0 156 72q5 6 9 11q58 -82 165 -83q119 0 167 87q6 13 11 25l-25 5q-34 -70 -104 -86q-16 -3 -31 -3q-124 0 -129 201v2l108 -2q137 -3 171 32q17 19 17 48q0 75 -75 114q-50 26 -113 26q-106 -1 -159 -79q-59 78 -163 79z" />
    <glyph glyph-name="Racute" unicode="&#x154;" horiz-adv-x="613" 
d="M299 0v26h-80v249h77l156 -275h161q0 23 -14 25q-5 1 -11 1h-28l-159 259q102 26 132 106q9 26 9 53q0 74 -65 119q-55 37 -134 37h-311v-26h80v-548h-80v-26h267zM301 574q84 0 113 -74q11 -28 11 -59q0 -75 -49 -114q-30 -23 -70 -23h-87v270h82zM398 700q16 16 17 34
q0 30 -28 45q-11 6 -22 6q-17 -1 -30 -12q-10 -9 -50 -64q-34 -46 -66 -78l16 -19q26 17 118 62q33 16 45 26z" />
    <glyph glyph-name="racute" unicode="&#x155;" horiz-adv-x="405" 
d="M264 25h-73v193q0 104 53 151q16 14 29 15q14 0 28 -24q17 -30 34 -36q7 -2 15 -2q35 0 47 33q3 9 3 18q0 47 -47 59q-11 2 -22 2q-60 0 -108 -50q-22 -24 -34 -54l-5 97h-157v-25h68v-320q0 -45 -29 -53q-13 -4 -39 -4v-25h262q0 22 -13 24q-5 1 -12 1zM293 570
q16 16 17 34q0 30 -28 45q-11 6 -22 6q-17 -1 -30 -12q-10 -9 -50 -64q-34 -46 -66 -78l16 -19q26 17 118 62q33 16 45 26z" />
    <glyph glyph-name="uni0156" unicode="&#x156;" horiz-adv-x="613" 
d="M299 0v26h-80v249h77l156 -275h161q0 23 -14 25q-5 1 -11 1h-28l-159 259q102 26 132 106q9 26 9 53q0 74 -65 119q-55 37 -134 37h-311v-26h80v-548h-80v-26h267zM301 574q84 0 113 -74q11 -28 11 -59q0 -75 -49 -114q-30 -23 -70 -23h-87v270h82zM390 -113q0 59 -44 73
q-11 4 -23 4q-36 0 -53 -34q-6 -14 -6 -28q0 -38 37 -54q7 -3 13 -4q25 -6 26 -21q-1 -29 -45 -77l22 -16q66 69 73 145v12z" />
    <glyph glyph-name="uni0157" unicode="&#x157;" horiz-adv-x="405" 
d="M264 25h-73v193q0 104 53 151q16 14 29 15q14 0 28 -24q17 -30 34 -36q7 -2 15 -2q35 0 47 33q3 9 3 18q0 47 -47 59q-11 2 -22 2q-60 0 -108 -50q-22 -24 -34 -54l-5 97h-157v-25h68v-320q0 -45 -29 -53q-13 -4 -39 -4v-25h262q0 22 -13 24q-5 1 -12 1zM208 -113
q0 59 -44 73q-11 4 -23 4q-36 0 -53 -34q-6 -14 -6 -28q0 -38 37 -54q7 -3 13 -4q25 -6 26 -21q-1 -29 -45 -77l22 -16q66 69 73 145v12z" />
    <glyph glyph-name="Rcaron" unicode="&#x158;" horiz-adv-x="613" 
d="M299 0v26h-80v249h77l156 -275h161q0 23 -14 25q-5 1 -11 1h-28l-159 259q102 26 132 106q9 26 9 53q0 74 -65 119q-55 37 -134 37h-311v-26h80v-548h-80v-26h267zM301 574q84 0 113 -74q11 -28 11 -59q0 -75 -49 -114q-30 -23 -70 -23h-87v270h82zM306 631q28 0 61 37
q7 9 23 29q36 44 61 71l-14 17q-45 -28 -132 -70q-71 34 -132 70l-14 -18q12 -13 80 -92q42 -41 67 -44z" />
    <glyph glyph-name="rcaron" unicode="&#x159;" horiz-adv-x="405" 
d="M264 25h-73v193q0 104 53 151q16 14 29 15q14 0 28 -24q17 -30 34 -36q7 -2 15 -2q35 0 47 33q3 9 3 18q0 47 -47 59q-11 2 -22 2q-60 0 -108 -50q-22 -24 -34 -54l-5 97h-157v-25h68v-320q0 -45 -29 -53q-13 -4 -39 -4v-25h262q0 22 -13 24q-5 1 -12 1zM200 501
q28 0 61 37q7 9 23 29q36 44 61 71l-14 17q-45 -28 -132 -70q-71 34 -132 70l-14 -18q12 -13 80 -92q42 -41 67 -44z" />
    <glyph glyph-name="Sacute" unicode="&#x15a;" horiz-adv-x="545" 
d="M499 161q0 87 -94 142q-16 10 -113 55q-87 40 -109 82q-11 20 -11 45q0 63 61 87q25 9 54 9q83 0 126 -59q27 -39 27 -94h34v177q-27 0 -31 -18q-1 -7 -1 -16q-76 39 -166 39q-112 0 -172 -61q-41 -41 -41 -98q0 -84 94 -138q15 -9 112 -54q88 -42 111 -84q11 -21 11 -46
q0 -70 -64 -98q-30 -13 -65 -13q-127 0 -160 129q-8 28 -10 60h-34v-209q25 0 30 15q2 9 2 28q76 -51 179 -51q120 0 185 63q45 45 45 108zM386 700q16 16 17 34q0 30 -28 45q-11 6 -22 6q-17 -1 -30 -12q-10 -9 -50 -64q-34 -46 -66 -78l16 -19q26 17 118 62q33 16 45 26z
" />
    <glyph glyph-name="sacute" unicode="&#x15b;" horiz-adv-x="408" 
d="M192 17q68 0 87 43q6 13 6 27q0 45 -63 77q-13 7 -43 20q-79 34 -105 63q-28 32 -28 75q0 75 82 104q37 13 81 13q72 0 118 -28q0 29 15 33q5 1 11 1v-125h-28q-4 92 -101 93q-70 0 -87 -43q-4 -11 -4 -23q0 -43 61 -74q13 -6 42 -18q80 -34 106 -63q30 -34 30 -79
q0 -82 -86 -111q-35 -12 -78 -12q-79 1 -135 34q0 -26 -13 -30q-6 -1 -14 -1v152h31q2 -127 115 -128zM298 570q16 16 17 34q0 30 -28 45q-11 6 -22 6q-17 -1 -30 -12q-10 -9 -50 -64q-34 -46 -66 -78l16 -19q26 17 118 62q33 16 45 26z" />
    <glyph glyph-name="uni015E" unicode="&#x15e;" horiz-adv-x="545" 
d="M499 161q0 87 -94 142q-16 10 -113 55q-87 40 -109 82q-11 20 -11 45q0 63 61 87q25 9 54 9q83 0 126 -59q27 -39 27 -94h34v177q-27 0 -31 -18q-1 -7 -1 -16q-76 39 -166 39q-112 0 -172 -61q-41 -41 -41 -98q0 -84 94 -138q15 -9 112 -54q88 -42 111 -84q11 -21 11 -46
q0 -70 -64 -98q-30 -13 -65 -13q-127 0 -160 129q-8 28 -10 60h-34v-209q25 0 30 15q2 9 2 28q66 -43 153 -50l-38 -76l14 -9q25 17 50 17q42 0 48 -43q1 -7 1 -14q0 -52 -38 -64q-8 -3 -16 -3q-38 1 -68 39l-16 -12q36 -52 107 -53q74 0 107 47q14 20 14 44q0 53 -55 75
q-25 10 -54 10q-30 0 -53 -10l22 51h1q120 0 185 63q45 45 45 108z" />
    <glyph glyph-name="uni015F" unicode="&#x15f;" horiz-adv-x="408" 
d="M192 17q-114 2 -115 128h-31v-152q22 0 25 13q2 7 2 18q40 -24 97 -32l-39 -77l14 -9q25 17 50 17q42 0 48 -43q1 -7 1 -14q0 -52 -38 -64q-8 -3 -16 -3q-38 1 -68 39l-16 -12q36 -52 107 -53q74 0 107 47q14 20 14 44q0 53 -55 75q-25 10 -54 10q-30 0 -53 -10l23 51
q-4 0 -12 1q-9 1 -13 1l6 13h25l-6 -15h13q108 0 147 62q17 27 17 61q0 73 -80 116q-18 9 -56 26q-70 29 -89 52q-14 18 -14 40q0 50 60 63q15 3 31 3q98 -2 101 -93h28v125q-22 0 -25 -19q-1 -6 -1 -15q-46 28 -118 28q-99 0 -142 -54q-21 -27 -21 -63q0 -70 78 -112
q17 -10 55 -26q72 -31 91 -55q15 -19 15 -42q0 -48 -53 -64q-19 -6 -40 -6z" />
    <glyph glyph-name="Scaron" unicode="&#x160;" horiz-adv-x="545" 
d="M499 161q0 87 -94 142q-16 10 -113 55q-87 40 -109 82q-11 20 -11 45q0 63 61 87q25 9 54 9q83 0 126 -59q27 -39 27 -94h34v177q-27 0 -31 -18q-1 -7 -1 -16q-76 39 -166 39q-112 0 -172 -61q-41 -41 -41 -98q0 -84 94 -138q15 -9 112 -54q88 -42 111 -84q11 -21 11 -46
q0 -70 -64 -98q-30 -13 -65 -13q-127 0 -160 129q-8 28 -10 60h-34v-209q25 0 30 15q2 9 2 28q76 -51 179 -51q120 0 185 63q45 45 45 108zM294 631q28 0 61 37q7 9 23 29q36 44 61 71l-14 17q-45 -28 -132 -70q-71 34 -132 70l-14 -18q12 -13 80 -92q42 -41 67 -44z" />
    <glyph glyph-name="scaron" unicode="&#x161;" horiz-adv-x="408" 
d="M192 17q68 0 87 43q6 13 6 27q0 45 -63 77q-13 7 -43 20q-79 34 -105 63q-28 32 -28 75q0 75 82 104q37 13 81 13q72 0 118 -28q0 29 15 33q5 1 11 1v-125h-28q-4 92 -101 93q-70 0 -87 -43q-4 -11 -4 -23q0 -43 61 -74q13 -6 42 -18q80 -34 106 -63q30 -34 30 -79
q0 -82 -86 -111q-35 -12 -78 -12q-79 1 -135 34q0 -26 -13 -30q-6 -1 -14 -1v152h31q2 -127 115 -128zM205 501q28 0 61 37q7 9 23 29q36 44 61 71l-14 17q-45 -28 -132 -70q-71 34 -132 70l-14 -18q12 -13 80 -92q42 -41 67 -44z" />
    <glyph glyph-name="uni0162" unicode="&#x162;" horiz-adv-x="575" 
d="M212 -85l14 -9q25 17 50 17q42 0 48 -43q1 -7 1 -14q0 -52 -38 -64q-8 -3 -16 -3q-38 1 -68 39l-16 -12q36 -52 107 -53q74 0 107 47q14 20 14 44q0 53 -55 75q-25 10 -54 10q-30 0 -53 -10l27 61h151q-8 24 -27 26h-69v548h42q83 -1 112 -102l22 -76h29l-5 204h-504
l-4 -204h29l22 76q30 101 111 102h39v-548h-95v-26h122z" />
    <glyph glyph-name="uni0163" unicode="&#x163;" horiz-adv-x="340" 
d="M18 400h70v-269q1 -103 69 -132l-42 -84l14 -9q25 17 50 17q42 0 48 -43q1 -7 1 -14q0 -52 -38 -64q-8 -3 -16 -3q-38 1 -68 39l-16 -12q36 -52 107 -53q74 0 107 47q14 20 14 44q0 53 -55 75q-25 10 -54 10q-30 0 -53 -10l23 53q19 -3 35 -3q85 0 113 84q5 15 8 31
l-27 5q-22 -89 -72 -90q-51 2 -52 77v304h145v25h-145v116l-96 -21v-95h-70v-25z" />
    <glyph glyph-name="Tcaron" unicode="&#x164;" horiz-adv-x="567" 
d="M431 0q-8 24 -27 26h-69v548h42q83 -1 112 -102l22 -76h29l-5 204h-504l-4 -204h29l22 76q30 101 111 102h39v-548h-95v-26h298zM284 631q28 0 61 37q7 9 23 29q36 44 61 71l-14 17q-45 -28 -132 -70q-71 34 -132 70l-14 -18q12 -13 80 -92q42 -41 67 -44z" />
    <glyph glyph-name="tcaron" unicode="&#x165;" horiz-adv-x="340" 
d="M18 400h70v-269q0 -131 109 -141q9 -1 17 -1q85 0 113 84q5 15 8 31l-27 5q-22 -89 -72 -90q-51 2 -52 77v304h145v25h-145v116l-96 -21v-95h-70v-25zM338 601q0 59 -44 73q-11 4 -23 4q-35 0 -52 -33q-7 -14 -7 -29q0 -38 37 -54q7 -3 13 -4q25 -7 26 -21
q-1 -29 -45 -77l22 -16q66 69 73 145v12z" />
    <glyph glyph-name="Umacron" unicode="&#x16a;" horiz-adv-x="638" 
d="M10 574h80v-351q2 -232 241 -233q169 0 209 135q13 46 13 109v340h80v26h-196v-26h80v-346q-1 -208 -165 -209q-114 0 -143 108q-11 43 -11 103v344h79v26h-267v-26zM190 670h308v52h-308v-52z" />
    <glyph glyph-name="umacron" unicode="&#x16b;" horiz-adv-x="565" 
d="M516 25h-43v402h-165v-25h68v-231q-3 -85 -60 -120q-23 -14 -47 -14q-72 0 -84 77q-2 14 -2 28v285h-165v-25h69v-244q1 -167 143 -168q78 0 125 64q14 19 23 40l7 -94h156q0 22 -13 24q-5 1 -12 1zM132 540h308v52h-308v-52z" />
    <glyph glyph-name="Uring" unicode="&#x16e;" horiz-adv-x="638" 
d="M10 574h80v-351q2 -232 241 -233q169 0 209 135q13 46 13 109v340h80v26h-196v-26h80v-346q-1 -208 -165 -209q-114 0 -143 108q-11 43 -11 103v344h79v26h-267v-26zM317 704q4 65 46 69q45 -1 46 -67q0 -59 -34 -69q-6 -2 -12 -2q-45 1 -46 69zM366 797q-81 0 -106 -55
q-7 -17 -7 -36q0 -61 54 -84q24 -10 54 -10q78 0 104 55q8 19 8 40q0 57 -53 80q-24 10 -54 10z" />
    <glyph glyph-name="uring" unicode="&#x16f;" horiz-adv-x="565" 
d="M516 25h-43v402h-165v-25h68v-231q-3 -85 -60 -120q-23 -14 -47 -14q-72 0 -84 77q-2 14 -2 28v285h-165v-25h69v-244q1 -167 143 -168q78 0 125 64q14 19 23 40l7 -94h156q0 22 -13 24q-5 1 -12 1zM236 574q4 65 46 69q45 -1 46 -67q0 -59 -34 -69q-6 -2 -12 -2
q-45 1 -46 69zM285 667q-81 0 -106 -55q-7 -17 -7 -36q0 -61 54 -84q24 -10 54 -10q78 0 104 55q8 19 8 40q0 57 -53 80q-24 10 -54 10z" />
    <glyph glyph-name="Uhungarumlaut" unicode="&#x170;" horiz-adv-x="638" 
d="M10 574h80v-351q2 -232 241 -233q169 0 209 135q13 46 13 109v340h80v26h-196v-26h80v-346q-1 -208 -165 -209q-114 0 -143 108q-11 43 -11 103v344h79v26h-267v-26zM373 720q15 12 15 33q-1 28 -28 43q-12 5 -22 5q-15 -1 -29 -12q-9 -9 -47 -65q-31 -45 -61 -76l15 -18
q25 17 111 62q34 17 46 28zM542 691q17 11 21 30q5 30 -22 48q-9 6 -18 8q-17 2 -31 -7q-12 -7 -57 -52q-40 -40 -76 -65l12 -21q25 11 124 41q33 10 47 18z" />
    <glyph glyph-name="uhungarumlaut" unicode="&#x171;" horiz-adv-x="565" 
d="M516 25h-43v402h-165v-25h68v-231q-3 -85 -60 -120q-23 -14 -47 -14q-72 0 -84 77q-2 14 -2 28v285h-165v-25h69v-244q1 -167 143 -168q78 0 125 64q14 19 23 40l7 -94h156q0 22 -13 24q-5 1 -12 1zM315 590q15 12 15 33q-1 28 -28 43q-12 5 -22 5q-15 -1 -29 -12
q-9 -9 -47 -65q-31 -45 -61 -76l15 -18q25 17 111 62q34 17 46 28zM484 561q17 11 21 30q5 30 -22 48q-9 6 -18 8q-17 2 -31 -7q-12 -7 -57 -52q-40 -40 -76 -65l12 -21q25 11 124 41q33 10 47 18z" />
    <glyph glyph-name="Uogonek" unicode="&#x172;" horiz-adv-x="638" 
d="M10 574h80v-351q2 -232 241 -233q169 0 209 135q13 46 13 109v340h80v26h-196v-26h80v-346q-1 -208 -165 -209q-114 0 -143 108q-11 43 -11 103v344h79v26h-267v-26zM411 -162q-37 4 -39 50q0 48 51 87q20 15 44 25l-1 9q-137 -21 -173 -89q-10 -18 -10 -37q0 -47 53 -66
q22 -8 48 -8q58 1 93 36l-12 16q-28 -23 -54 -23z" />
    <glyph glyph-name="uogonek" unicode="&#x173;" horiz-adv-x="565" 
d="M516 25h-43v402h-165v-25h68v-231q-3 -85 -60 -120q-23 -14 -47 -14q-72 0 -84 77q-2 14 -2 28v285h-165v-25h69v-244q1 -167 143 -168q78 0 125 64q14 19 23 40l7 -94h110q-111 -28 -134 -92q-4 -13 -4 -25q0 -47 53 -66q22 -8 48 -8q58 1 93 36l-12 16q-28 -23 -54 -23
q-37 4 -39 50q0 48 51 87q20 15 44 25q0 22 -13 24q-5 1 -12 1z" />
    <glyph glyph-name="Ydieresis" unicode="&#x178;" horiz-adv-x="564" 
d="M423 0q-8 24 -27 26h-55v228l144 292q20 27 53 28q22 0 25 16q1 5 1 10h-177v-26h80l-145 -286l-154 286h76v26h-248v-26h52l185 -329v-219h-82v-26h272zM267 699q0 35 -31 52q-13 6 -25 6q-37 0 -53 -33q-5 -13 -5 -25q0 -37 34 -51q12 -5 24 -5q35 0 50 31q6 12 6 25z
M452 699q0 36 -32 52q-13 6 -26 6q-35 0 -51 -32q-6 -13 -6 -26q0 -36 33 -51q12 -5 24 -5q37 0 52 32q6 12 6 24z" />
    <glyph glyph-name="Zacute" unicode="&#x179;" horiz-adv-x="551" 
d="M521 0l2 207h-26l-24 -96q-22 -84 -98 -85h-227l369 553v21h-448l-8 -181h24l40 90q31 64 81 65h196l-379 -553v-21h498zM397 700q16 16 17 34q0 30 -28 45q-11 6 -22 6q-17 -1 -30 -12q-10 -9 -50 -64q-34 -46 -66 -78l16 -19q26 17 118 62q33 16 45 26z" />
    <glyph glyph-name="zacute" unicode="&#x17a;" horiz-adv-x="421" 
d="M128 26l265 383v21h-347l-9 -138h19l29 63q23 48 64 49h144l-275 -382v-22h373l3 159h-19l-16 -65q-21 -64 -74 -68h-157zM304 570q16 16 17 34q0 30 -28 45q-11 6 -22 6q-17 -1 -30 -12q-10 -9 -50 -64q-34 -46 -66 -78l16 -19q26 17 118 62q33 16 45 26z" />
    <glyph glyph-name="Zdotaccent" unicode="&#x17b;" horiz-adv-x="551" 
d="M521 0l2 207h-26l-24 -96q-22 -84 -98 -85h-227l369 553v21h-448l-8 -181h24l40 90q31 64 81 65h196l-379 -553v-21h498zM365 697q0 38 -33 56q-15 7 -29 7q-40 0 -57 -36q-6 -13 -6 -27q0 -40 36 -56q13 -6 27 -6q38 0 55 34q7 14 7 28z" />
    <glyph glyph-name="zdotaccent" unicode="&#x17c;" horiz-adv-x="421" 
d="M128 26l265 383v21h-347l-9 -138h19l29 63q23 48 64 49h144l-275 -382v-22h373l3 159h-19l-16 -65q-21 -64 -74 -68h-157zM273 567q0 38 -33 56q-15 7 -29 7q-40 0 -57 -36q-6 -13 -6 -27q0 -40 36 -56q13 -6 27 -6q38 0 55 34q7 14 7 28z" />
    <glyph glyph-name="Zcaron" unicode="&#x17d;" horiz-adv-x="551" 
d="M521 0l2 207h-26l-24 -96q-22 -84 -98 -85h-227l369 553v21h-448l-8 -181h24l40 90q31 64 81 65h196l-379 -553v-21h498zM304 631q28 0 61 37q7 9 23 29q36 44 61 71l-14 17q-45 -28 -132 -70q-71 34 -132 70l-14 -18q12 -13 80 -92q42 -41 67 -44z" />
    <glyph glyph-name="zcaron" unicode="&#x17e;" horiz-adv-x="421" 
d="M128 26l265 383v21h-347l-9 -138h19l29 63q23 48 64 49h144l-275 -382v-22h373l3 159h-19l-16 -65q-21 -64 -74 -68h-157zM212 501q28 0 61 37q7 9 23 29q36 44 61 71l-14 17q-45 -28 -132 -70q-71 34 -132 70l-14 -18q12 -13 80 -92q42 -41 67 -44z" />
    <glyph glyph-name="florin" unicode="&#x192;" horiz-adv-x="477" 
d="M271 281q0 5 1 16t1 16h124v26h-123q8 171 30 215q16 29 41 30q28 0 36 -34l3 -18q7 -43 24 -53q11 -5 24 -5q38 0 48 35q2 8 2 15q0 46 -45 71q-29 15 -67 15q-116 0 -166 -130q-22 -57 -34 -141h-102v-26h99q-4 -38 -5 -60q-2 -31 -5 -93q-11 -211 -31 -272
q-19 -58 -51 -59q-26 0 -30 34q-1 5 -1 17q-3 45 -20 56q-11 7 -28 7q-39 0 -48 -36q-2 -8 -2 -16q0 -44 45 -69q30 -17 67 -17q121 0 172 173q32 111 41 303z" />
    <glyph glyph-name="uni0218" unicode="&#x218;" horiz-adv-x="545" 
d="M499 161q0 87 -94 142q-16 10 -113 55q-87 40 -109 82q-11 20 -11 45q0 63 61 87q25 9 54 9q83 0 126 -59q27 -39 27 -94h34v177q-27 0 -31 -18q-1 -7 -1 -16q-76 39 -166 39q-112 0 -172 -61q-41 -41 -41 -98q0 -84 94 -138q15 -9 112 -54q88 -42 111 -84q11 -21 11 -46
q0 -70 -64 -98q-30 -13 -65 -13q-127 0 -160 129q-8 28 -10 60h-34v-209q25 0 30 15q2 9 2 28q76 -51 179 -51q120 0 185 63q45 45 45 108zM342 -113q0 59 -44 73q-11 4 -23 4q-36 0 -53 -34q-6 -14 -6 -28q0 -38 37 -54q7 -3 13 -4q25 -6 26 -21q-1 -29 -45 -77l22 -16
q66 69 73 145v12z" />
    <glyph glyph-name="uni0219" unicode="&#x219;" horiz-adv-x="408" 
d="M192 17q68 0 87 43q6 13 6 27q0 45 -63 77q-13 7 -43 20q-79 34 -105 63q-28 32 -28 75q0 75 82 104q37 13 81 13q72 0 118 -28q0 29 15 33q5 1 11 1v-125h-28q-4 92 -101 93q-70 0 -87 -43q-4 -11 -4 -23q0 -43 61 -74q13 -6 42 -18q80 -34 106 -63q30 -34 30 -79
q0 -82 -86 -111q-35 -12 -78 -12q-79 1 -135 34q0 -26 -13 -30q-6 -1 -14 -1v152h31q2 -127 115 -128zM267 -113q0 59 -44 73q-11 4 -23 4q-36 0 -53 -34q-6 -14 -6 -28q0 -38 37 -54q7 -3 13 -4q25 -6 26 -21q-1 -29 -45 -77l22 -16q66 69 73 145v12z" />
    <glyph glyph-name="uni021A" unicode="&#x21a;" horiz-adv-x="567" 
d="M431 0q-8 24 -27 26h-69v548h42q83 -1 112 -102l22 -76h29l-5 204h-504l-4 -204h29l22 76q30 101 111 102h39v-548h-95v-26h298zM343 -113q0 59 -44 73q-11 4 -23 4q-36 0 -53 -34q-6 -14 -6 -28q0 -38 37 -54q7 -3 13 -4q25 -6 26 -21q-1 -29 -45 -77l22 -16
q66 69 73 145v12z" />
    <glyph glyph-name="uni021B" unicode="&#x21b;" horiz-adv-x="340" 
d="M18 400h70v-269q0 -131 109 -141q9 -1 17 -1q85 0 113 84q5 15 8 31l-27 5q-22 -89 -72 -90q-51 2 -52 77v304h145v25h-145v116l-96 -21v-95h-70v-25zM251 -113q0 59 -44 73q-11 4 -23 4q-36 0 -53 -34q-6 -14 -6 -28q0 -38 37 -54q7 -3 13 -4q25 -6 26 -21
q-1 -29 -45 -77l22 -16q66 69 73 145v12z" />
    <glyph glyph-name="circumflex" unicode="&#x2c6;" horiz-adv-x="500" 
d="M373 499l12 18q-15 16 -75 89q-38 37 -61 40q-27 0 -56 -35q-6 -7 -20 -25q-34 -43 -58 -70l12 -16q58 35 124 65q53 -24 122 -66z" />
    <glyph glyph-name="caron" unicode="&#x2c7;" horiz-adv-x="500" 
d="M251 501q28 0 61 37q7 9 23 29q36 44 61 71l-14 17q-45 -28 -132 -70q-71 34 -132 70l-14 -18q12 -13 80 -92q42 -41 67 -44z" />
    <glyph glyph-name="uni02C9" unicode="&#x2c9;" horiz-adv-x="500" 
d="M96 540h308v52h-308v-52z" />
    <glyph glyph-name="breve" unicode="&#x2d8;" horiz-adv-x="500" 
d="M254 579q82 0 98 51q2 5 3 10h21q0 -92 -67 -122q-25 -11 -58 -11q-93 0 -118 81q-8 25 -8 52h20q13 -61 109 -61z" />
    <glyph glyph-name="dotaccent" unicode="&#x2d9;" horiz-adv-x="285" 
d="M204 567q0 38 -33 56q-15 7 -29 7q-40 0 -57 -36q-6 -13 -6 -27q0 -40 36 -56q13 -6 27 -6q38 0 55 34q7 14 7 28z" />
    <glyph glyph-name="ring" unicode="&#x2da;" horiz-adv-x="500" 
d="M200 574q4 65 46 69q45 -1 46 -67q0 -59 -34 -69q-6 -2 -12 -2q-45 1 -46 69zM249 667q-81 0 -106 -55q-7 -17 -7 -36q0 -61 54 -84q24 -10 54 -10q78 0 104 55q8 19 8 40q0 57 -53 80q-24 10 -54 10z" />
    <glyph glyph-name="ogonek" unicode="&#x2db;" horiz-adv-x="500" 
d="M260 -162q-37 4 -39 50q0 48 51 87q20 15 44 25l-1 9q-137 -21 -173 -89q-10 -18 -10 -37q0 -47 53 -66q22 -8 48 -8q58 1 93 36l-12 16q-28 -23 -54 -23z" />
    <glyph glyph-name="tilde" unicode="&#x2dc;" horiz-adv-x="500" 
d="M199 641q30 0 76 -33q38 -27 59 -27q38 0 53 52q1 3 1 4l21 -4q-16 -105 -80 -116q-6 -1 -12 -1q-30 0 -75 33q-38 27 -59 27q-36 0 -51 -43q-2 -7 -4 -13l-20 4q25 110 91 117z" />
    <glyph glyph-name="hungarumlaut" unicode="&#x2dd;" horiz-adv-x="559" 
d="M323 590q15 12 15 33q-1 28 -28 43q-12 5 -22 5q-15 -1 -29 -12q-9 -9 -47 -65q-31 -45 -61 -76l15 -18q25 17 111 62q34 17 46 28zM492 561q17 11 21 30q5 30 -22 48q-9 6 -18 8q-17 2 -31 -7q-12 -7 -57 -52q-40 -40 -76 -65l12 -21q25 11 124 41q33 10 47 18z" />
    <glyph glyph-name="pi" unicode="&#x3c0;" horiz-adv-x="574" 
d="M558 76l-24 6q-8 -52 -39 -63q-6 -2 -10 -2q-29 2 -29 65v319h81v26h-514v-26h70v-323q0 -46 -50 -51q-9 -1 -20 -1v-26h237q0 23 -13 25q-5 1 -11 1h-46v375h170v-265q0 -139 94 -146h11q66 0 88 65q3 11 5 21z" />
    <glyph glyph-name="anusvara" unicode="&#xd82;" horiz-adv-x="355" 
d="M71 179q0 -52 46 -80q24 -15 52 -15q54 0 83 45q14 24 14 50q0 51 -44 78q-25 15 -53 15q-55 0 -84 -45q-14 -22 -14 -48zM29 161q0 68 56 110q38 28 84 28q70 0 112 -56q28 -37 28 -82q0 -68 -56 -109q-38 -28 -84 -28q-71 0 -113 56q-27 37 -27 81z" />
    <glyph glyph-name="visarga" unicode="&#xd83;" horiz-adv-x="242" 
d="M60 108q0 -34 30 -47q11 -5 22 -5q34 0 48 31q5 10 5 21q0 33 -30 48q-11 5 -23 5q-34 0 -47 -31q-5 -11 -5 -22zM30 107q0 46 40 70q20 12 42 12q46 0 70 -40q12 -20 12 -42q0 -46 -40 -70q-20 -12 -42 -12q-46 0 -70 40q-12 20 -12 42zM60 306q0 -34 31 -48
q10 -5 21 -5q33 0 48 30q5 11 5 23q0 34 -31 47q-11 5 -22 5q-34 0 -47 -30q-5 -11 -5 -22zM30 305q0 46 40 70q20 12 42 12q46 0 70 -40q12 -20 12 -42q0 -46 -40 -70q-20 -12 -42 -12q-46 0 -70 40q-12 20 -12 42z" />
    <glyph glyph-name="si_A" unicode="&#xd85;" horiz-adv-x="559" 
d="M399 225q-13 0 -20 2v79q0 52 28 79q2 3 4 4v-2q0 -18 18 -44q3 -4 4 -6q15 -23 15 -55q0 -45 -35 -55q-7 -2 -14 -2zM350 -210h29v214q83 14 132 46v32q-52 -39 -132 -50v167q22 -5 40 -5q62 0 86 41q10 18 10 39q0 43 -45 79q-29 24 -33 33q-2 4 -2 8q1 11 6 15
q2 1 5 3q4 1 6 2l-23 11q-31 -8 -53 -33q-26 -30 -26 -86v-277q-28 -2 -45 -2q-126 0 -157 85q-8 22 -8 48q0 66 48 98q33 21 81 21h69v4q0 104 -80 132q-24 8 -52 8q-71 0 -95 -38q-7 -12 -7 -25q0 -28 28 -36q6 -2 12 -2q29 1 43 28q11 25 30 30q9 2 19 2q44 0 63 -45
q7 -17 8 -35h-110q-108 0 -148 -75q-17 -32 -17 -71q0 -99 106 -139q57 -21 137 -21q43 0 75 4v-210z" />
    <glyph glyph-name="si_Aa" unicode="&#xd86;" horiz-adv-x="846" 
d="M399 225q-13 0 -20 2v79q0 52 28 79q2 3 4 4v-2q0 -18 18 -44q3 -4 4 -6q15 -23 15 -55q0 -45 -35 -55q-7 -2 -14 -2zM350 -210h29v214q83 14 132 46v32q-52 -39 -132 -50v167q22 -5 40 -5q62 0 86 41q10 18 10 39q0 43 -45 79q-29 24 -33 33q-2 4 -2 8q1 11 6 15
q2 1 5 3q4 1 6 2l-23 11q-31 -8 -53 -33q-26 -30 -26 -86v-277q-28 -2 -45 -2q-126 0 -157 85q-8 22 -8 48q0 66 48 98q33 21 81 21h69v4q0 104 -80 132q-24 8 -52 8q-71 0 -95 -38q-7 -12 -7 -25q0 -28 28 -36q6 -2 12 -2q29 1 43 28q11 25 30 30q9 2 19 2q44 0 63 -45
q7 -17 8 -35h-110q-108 0 -148 -75q-17 -32 -17 -71q0 -99 106 -139q57 -21 137 -21q43 0 75 4v-210zM550 107q0 -75 61 -99q22 -9 47 -9q106 0 128 128q6 32 6 69q0 169 -100 194q-16 4 -34 4q-61 0 -92 -49q-16 -27 -16 -60q0 -14 1 -21h27q-1 6 -1 14q0 51 37 65
q9 3 17 3q68 -2 68 -150q-1 -148 -68 -149q-47 0 -53 53q-1 7 -1 14q0 10 1 15h-27q-1 -8 -1 -22z" />
    <glyph glyph-name="si_Ae" unicode="&#xd87;" horiz-adv-x="857" 
d="M534 305h202q-136 -148 -137 -289q0 -98 61 -140q30 -20 69 -20q66 1 101 40l-4 19q-18 -2 -39 1q-67 13 -89 87q-8 29 -8 62q1 128 81 249q2 14 3 17h-240v-26zM399 225q-13 0 -20 2v79q0 52 28 79q2 3 4 4v-2q0 -18 18 -44q3 -4 4 -6q15 -23 15 -55q0 -45 -35 -55
q-7 -2 -14 -2zM350 -210h29v214q83 14 132 46v32q-52 -39 -132 -50v167q22 -5 40 -5q62 0 86 41q10 18 10 39q0 43 -45 79q-29 24 -33 33q-2 4 -2 8q1 11 6 15q2 1 5 3q4 1 6 2l-23 11q-31 -8 -53 -33q-26 -30 -26 -86v-277q-28 -2 -45 -2q-126 0 -157 85q-8 22 -8 48
q0 66 48 98q33 21 81 21h69v4q0 104 -80 132q-24 8 -52 8q-71 0 -95 -38q-7 -12 -7 -25q0 -28 28 -36q6 -2 12 -2q29 1 43 28q11 25 30 30q9 2 19 2q44 0 63 -45q7 -17 8 -35h-110q-108 0 -148 -75q-17 -32 -17 -71q0 -99 106 -139q57 -21 137 -21q43 0 75 4v-210z" />
    <glyph glyph-name="si_Aae" unicode="&#xd88;" horiz-adv-x="859" 
d="M399 225q-13 0 -20 2v79q0 52 28 79q2 3 4 4v-2q0 -18 18 -44q3 -4 4 -6q15 -23 15 -55q0 -45 -35 -55q-7 -2 -14 -2zM350 -210h29v214q83 14 132 46v32q-52 -39 -132 -50v167q22 -5 40 -5q62 0 86 41q10 18 10 39q0 43 -45 79q-29 24 -33 33q-2 4 -2 8q1 11 6 15
q2 1 5 3q4 1 6 2l-23 11q-31 -8 -53 -33q-26 -30 -26 -86v-277q-28 -2 -45 -2q-126 0 -157 85q-8 22 -8 48q0 66 48 98q33 21 81 21h69v4q0 104 -80 132q-24 8 -52 8q-71 0 -95 -38q-7 -12 -7 -25q0 -28 28 -36q6 -2 12 -2q29 1 43 28q11 25 30 30q9 2 19 2q44 0 63 -45
q7 -17 8 -35h-110q-108 0 -148 -75q-17 -32 -17 -71q0 -99 106 -139q57 -21 137 -21q43 0 75 4v-210zM532 307h193l-127 -93v-21h156q-151 -99 -152 -207q0 -86 72 -118q30 -13 69 -13q43 0 84 19v25q-94 0 -123 70q-9 24 -9 53q0 97 92 169q4 3 7 5v22h-147l124 92v21h-239
v-24z" />
    <glyph glyph-name="si_I" unicode="&#xd89;" horiz-adv-x="579" 
d="M32 216q0 114 99 170q63 36 146 36q152 0 217 -96q37 -55 37 -133q0 -98 -71 -158q-38 -32 -85 -41q48 -9 53 -57q1 -5 1 -10q0 -54 -74 -75q-30 -8 -64 -8q-99 0 -118 57q-4 12 -4 25q0 29 25 36q5 1 8 1q25 -5 29 -26q0 -2 -1 -10q-2 -12 -2 -19q3 -40 65 -41
q56 0 66 38q2 7 2 14q0 49 -62 62q-17 4 -38 4q-10 0 -18 -1v29q13 1 24 1q8 0 24 -1t25 -1q91 0 137 66q27 40 27 90q0 89 -78 136q-53 31 -124 31q-119 0 -169 -65q-24 -33 -24 -76q0 -57 53 -91q37 -23 85 -23q73 1 99 33q-17 -13 -44 -13q-43 0 -66 37q-10 18 -10 36
q0 49 41 70q17 9 36 9q63 0 83 -52q6 -17 6 -36q0 -88 -101 -107q-25 -4 -52 -4q-103 0 -153 67q-30 41 -30 96zM231 176q0 -30 29 -44q11 -5 21 -5q31 0 45 28q5 11 5 21q0 30 -29 43q-11 5 -21 5q-32 0 -46 -29q-4 -9 -4 -19z" />
    <glyph glyph-name="si_Ii" unicode="&#xd8a;" horiz-adv-x="515" 
d="M400 457q0 -27 25 -35q7 -2 13 -2q26 0 35 24q2 7 2 13q0 26 -25 35q-6 2 -12 2q-27 0 -36 -25q-2 -6 -2 -12zM374 457q0 39 35 56q14 7 29 7q39 0 56 -35q6 -14 6 -28q0 -40 -34 -57q-14 -6 -28 -6q-39 0 -57 34q-7 14 -7 29zM142 525q0 -26 24 -35q7 -2 13 -2
q24 0 34 23q3 7 3 14q0 26 -25 35q-6 2 -12 2q-28 0 -35 -26q-2 -5 -2 -11zM115 525q0 39 35 56q14 7 29 7q39 0 56 -35q6 -14 6 -28q0 -40 -34 -57q-14 -6 -28 -6q-39 0 -57 34q-7 14 -7 29zM30 208q0 122 119 194q9 5 17 10q62 32 121 88l5 5q10 11 46 63q29 41 53 42
q28 -3 30 -24q-2 -29 -69 -85q-49 -41 -111 -75q7 1 15 1q100 -1 164 -70q51 -58 51 -137q0 -100 -75 -165q-64 -55 -154 -55q-105 0 -167 75q-45 57 -45 133zM69 239q0 -79 64 -118q41 -24 96 -24q98 0 149 67q32 42 32 99q0 86 -73 123q-36 17 -81 17q-76 0 -135 -53
q-51 -48 -52 -111z" />
    <glyph glyph-name="si_U" unicode="&#xd8b;" horiz-adv-x="635" 
d="M31 97q0 -121 101 -195q82 -59 188 -59q124 0 203 75q66 63 66 149h-29q0 -85 -76 -139q-58 -41 -130 -41q-104 0 -166 75q-50 61 -50 148q0 111 99 143q34 11 77 11h212v6q0 87 -69 129q-40 23 -90 23q-87 0 -103 -48q-3 -8 -3 -18q0 -28 26 -36q7 -2 14 -2q28 1 44 28
q21 31 56 32q48 0 77 -43q14 -22 16 -46h-236q-126 0 -189 -80q-38 -49 -38 -112z" />
    <glyph glyph-name="si_Uu" unicode="&#xd8c;" horiz-adv-x="967" 
d="M31 97q0 -121 101 -195q82 -59 188 -59q124 0 203 75q66 63 66 149h-29q0 -85 -76 -139q-58 -41 -130 -41q-104 0 -166 75q-50 61 -50 148q0 111 99 143q34 11 77 11h212v6q0 87 -69 129q-40 23 -90 23q-87 0 -103 -48q-3 -8 -3 -18q0 -28 26 -36q7 -2 14 -2q28 1 44 28
q21 31 56 32q48 0 77 -43q14 -22 16 -46h-236q-126 0 -189 -80q-38 -49 -38 -112zM569 313q0 -65 47 -93q22 -13 48 -13q64 0 81 46q5 14 5 28q-1 35 -36 55v7q2 46 45 47q61 0 65 -140v-18q0 -179 -61 -191q-5 -1 -10 -1q-49 0 -62 53q-3 14 -3 29t3 31h-26q-4 -17 -4 -36
q0 -77 55 -107q25 -12 55 -12q103 0 137 115q13 46 13 102q0 124 -60 178q-34 29 -81 29q-75 0 -91 -57q-3 -12 -3 -24q0 -8 1 -12q20 -22 20 -46q0 -40 -35 -46q-6 -1 -11 -1q-44 0 -58 46q-5 15 -5 32q1 68 42 104h-35q-36 -40 -36 -105z" />
    <glyph glyph-name="si_vocalicR" unicode="&#xd8d;" horiz-adv-x="873" 
d="M602 243v-7h25v4q0 86 49 101q9 2 17 2q55 -2 55 -127q-47 0 -81 -15q-64 -30 -65 -97q0 -56 38 -87q22 -18 51 -18q17 0 50 15q7 3 11 3q10 -2 15 -14h47q-1 7 -1 19q0 11 6 59q11 83 11 117q0 129 -64 171q-24 15 -55 15q-76 0 -100 -79q-9 -29 -9 -62zM632 104
q1 59 58 77q25 8 58 8v-8v-25q-1 -27 -1 -44q0 -59 5 -72q-4 1 -9 1q-3 -1 -10 -4q-24 -9 -40 -9q-39 0 -55 43q-6 17 -6 33zM30 150q0 -73 54 -118q41 -33 95 -33q93 1 127 81q32 -79 124 -80q103 0 144 76q20 37 20 86q0 69 -50 111q-12 11 -26 17q23 15 27 45q1 4 1 7
q0 62 -68 77q-16 3 -33 3q-74 0 -105 -66q-15 -32 -15 -72v-10q48 9 96 9q99 0 120 -65q5 -14 5 -30q0 -57 -59 -81q-26 -10 -58 -10q-87 0 -105 47q-4 10 -4 22v25h-26v-25q0 -47 -57 -63q-21 -6 -44 -6q-72 0 -102 48q-12 19 -12 41q0 67 72 89q24 8 52 8q34 0 83 -9v15
q0 87 -61 119q-27 14 -62 14q-66 0 -92 -38q-10 -16 -10 -33q0 -30 27 -36q4 -1 8 -1q29 1 41 32q19 35 53 38q35 0 56 -37q10 -20 10 -41v-3q-21 6 -54 6q-101 0 -147 -72q-25 -38 -25 -87zM355 303q8 77 84 78q51 0 64 -30q3 -8 3 -15q-1 -22 -14 -37q-31 10 -77 10
q-38 0 -60 -6z" />
    <glyph glyph-name="si_vocalicRr" unicode="&#xd8e;" horiz-adv-x="1113" 
d="M602 243v-7h25v4q0 86 49 101q9 2 17 2q55 -2 55 -127q-47 0 -81 -15q-64 -30 -65 -97q0 -56 38 -87q22 -18 51 -18q17 0 50 15q7 3 11 3q10 -2 15 -14h47q-1 7 -1 19q0 11 6 59q11 83 11 117q0 129 -64 171q-24 15 -55 15q-76 0 -100 -79q-9 -29 -9 -62zM632 104
q1 59 58 77q25 8 58 8v-8v-25q-1 -27 -1 -44q0 -59 5 -72q-4 1 -9 1q-3 -1 -10 -4q-24 -9 -40 -9q-39 0 -55 43q-6 17 -6 33zM845 243v-7h25v4q0 86 49 101q9 2 17 2q55 -2 55 -127q-47 0 -81 -15q-64 -30 -65 -97q0 -56 38 -87q22 -18 51 -18q17 0 50 15q7 3 11 3
q10 -2 15 -14h48q-1 7 -1 19q0 11 6 59q10 83 10 117q0 129 -64 171q-24 15 -55 15q-76 0 -100 -79q-9 -29 -9 -62zM875 104q1 59 58 77q25 8 58 8v-8v-25q-1 -27 -1 -44q0 -59 5 -72q-4 1 -9 1q-3 -1 -10 -4q-24 -9 -40 -9q-39 0 -55 43q-6 17 -6 33zM30 150q0 -73 54 -118
q41 -33 95 -33q93 1 127 81q32 -79 124 -80q103 0 144 76q20 37 20 86q0 69 -50 111q-12 11 -26 17q23 15 27 45q1 4 1 7q0 62 -68 77q-16 3 -33 3q-74 0 -105 -66q-15 -32 -15 -72v-10q48 9 96 9q99 0 120 -65q5 -14 5 -30q0 -57 -59 -81q-26 -10 -58 -10q-87 0 -105 47
q-4 10 -4 22v25h-26v-25q0 -47 -57 -63q-21 -6 -44 -6q-72 0 -102 48q-12 19 -12 41q0 67 72 89q24 8 52 8q34 0 83 -9v15q0 87 -61 119q-27 14 -62 14q-66 0 -92 -38q-10 -16 -10 -33q0 -30 27 -36q4 -1 8 -1q29 1 41 32q19 35 53 38q35 0 56 -37q10 -20 10 -41v-3
q-21 6 -54 6q-101 0 -147 -72q-25 -38 -25 -87zM355 303q11 75 84 78q51 0 64 -30q3 -8 3 -15q-1 -22 -14 -37q-31 10 -77 10q-38 0 -60 -6z" />
    <glyph glyph-name="si_vocalicL" unicode="&#xd8f;" horiz-adv-x="800" 
d="M625 52q5 20 24 24q21 -5 25 -24q0 -19 -19 -24q-3 -1 -6 -1q-18 0 -23 19q-1 3 -1 6zM693 77q-14 25 -43 26q-7 0 -10 -1q20 35 20 80q-1 79 -59 114q27 21 27 50q-1 26 -19 45q-10 19 -10 33q1 16 20 16q56 0 85 -83q20 -55 20 -123q0 -96 -27 -149q-2 -5 -4 -8z
M568 435q1 -11 6 -20q-23 8 -47 8q-92 0 -110 -71q-4 -15 -4 -32q0 -20 2 -31q39 7 68 7q105 0 126 -57q4 -12 4 -25q0 -72 -102 -102q-51 -15 -113 -15q-146 0 -199 56q-22 24 -22 55q0 65 84 82q24 4 50 4q18 0 52 -4q4 17 4 36q0 81 -82 95q-15 3 -31 3q-21 0 -41 -5
q4 6 4 16q-6 33 -47 35q-74 0 -113 -89q-27 -62 -27 -147q0 -107 37 -178q28 -54 68 -55q34 0 47 30q4 11 4 21v4q69 -56 212 -56q130 1 202 57v-5q0 -34 30 -47q10 -4 20 -4q59 0 89 111q16 59 16 122q0 135 -61 200q-35 36 -79 36q-45 -3 -47 -35zM111 52q5 20 25 24
q20 -5 24 -24q0 -19 -18 -24q-3 -1 -6 -1q-19 0 -24 19q-1 3 -1 6zM130 180q0 -46 18 -79q-9 2 -13 2q-30 -1 -43 -26q-29 56 -31 157q0 114 46 173q26 32 59 33q20 -2 21 -14q-1 -12 -18 -31q-16 -17 -16 -38q0 -31 30 -37q4 -1 9 -1q34 1 45 32q10 32 48 33q38 0 49 -34
q3 -11 3 -22q0 -2 -1 -6v-5q-25 2 -35 2q-120 0 -158 -77q-13 -28 -13 -62zM445 328q0 50 49 64q13 3 27 3q54 0 68 -36q3 -8 3 -16q-1 -19 -16 -35q-33 12 -84 12q-22 0 -47 -3q-1 0 -1 5z" />
    <glyph glyph-name="si_vocalicLL" unicode="&#xd90;" horiz-adv-x="1174" 
d="M625 52q5 20 24 24q21 -5 25 -24q0 -19 -19 -24q-3 -1 -6 -1q-18 0 -23 19q-1 3 -1 6zM693 77q-14 25 -43 26q-7 0 -10 -1q20 35 20 80q-1 79 -59 114q27 21 27 50q-1 26 -19 45q-10 19 -10 33q1 16 20 16q56 0 85 -83q20 -55 20 -123q0 -96 -27 -149q-2 -5 -4 -8z
M568 435q1 -11 6 -20q-23 8 -47 8q-92 0 -110 -71q-4 -15 -4 -32q0 -20 2 -31q39 7 68 7q105 0 126 -57q4 -12 4 -25q0 -72 -102 -102q-51 -15 -113 -15q-146 0 -199 56q-22 24 -22 55q0 65 84 82q24 4 50 4q18 0 52 -4q4 17 4 36q0 81 -82 95q-15 3 -31 3q-21 0 -41 -5
q4 6 4 16q-6 33 -47 35q-74 0 -113 -89q-27 -62 -27 -147q0 -107 37 -178q28 -54 68 -55q34 0 47 30q4 11 4 21v4q69 -56 212 -56q130 1 202 57v-5q0 -34 30 -47q10 -4 20 -4q59 0 89 111q16 59 16 122q0 135 -61 200q-35 36 -79 36q-45 -3 -47 -35zM111 52q5 20 25 24
q20 -5 24 -24q0 -19 -18 -24q-3 -1 -6 -1q-19 0 -24 19q-1 3 -1 6zM130 180q0 -46 18 -79q-9 2 -13 2q-30 -1 -43 -26q-29 56 -31 157q0 114 46 173q26 32 59 33q20 -2 21 -14q-1 -12 -18 -31q-16 -17 -16 -38q0 -31 30 -37q4 -1 9 -1q34 1 45 32q10 32 48 33q38 0 49 -34
q3 -11 3 -22q0 -2 -1 -6v-5q-25 2 -35 2q-120 0 -158 -77q-13 -28 -13 -62zM445 328q0 50 49 64q13 3 27 3q54 0 68 -36q3 -8 3 -16q-1 -19 -16 -35q-33 12 -84 12q-22 0 -47 -3q-1 0 -1 5zM777 313q0 -65 47 -93q22 -13 48 -13q64 0 81 46q5 14 5 28q-1 35 -36 55v7
q3 45 46 47q57 0 63 -129q1 -14 1 -29q0 -171 -54 -189q-8 -3 -17 -3q-47 0 -61 50q-4 15 -4 32q0 15 3 31h-26q-4 -17 -4 -36q0 -76 55 -106q25 -13 56 -13q104 0 137 118q12 44 12 99q0 124 -60 178q-33 29 -80 29q-75 0 -91 -57q-3 -12 -3 -24q0 -8 1 -12q19 -20 19 -46
q0 -40 -35 -46q-6 -1 -11 -1q-43 0 -57 46q-5 15 -5 32q1 68 42 104h-36q-36 -40 -36 -105z" />
    <glyph glyph-name="si_E" unicode="&#xd91;" horiz-adv-x="581" 
d="M44 161q0 -109 118 -146q48 -15 108 -15q157 0 225 106q37 59 37 133q0 88 -42 165q-5 8 -9 16q-44 76 -121 135q-23 17 -43 28q-41 -48 -41 -114q0 -72 48 -103q22 -15 50 -15q62 1 86 50q34 -53 34 -126q0 -113 -101 -156q-51 -22 -121 -22q-168 0 -181 77q-1 6 -1 13
q1 36 34 58q41 25 103 25h61v13q0 82 -55 119q-30 20 -70 20q-67 0 -92 -39q-9 -15 -9 -31q0 -29 28 -37q5 -1 9 -1q30 2 40 34q10 35 48 36q37 0 58 -39q11 -21 11 -44v-6h-240v-32q33 6 110 7h5q-31 -8 -55 -28q-32 -30 -32 -81zM308 475q0 39 18 71q74 -55 114 -116
q-16 -38 -57 -40q-59 0 -72 58q-3 13 -3 27z" />
    <glyph glyph-name="si_Ee" unicode="&#xd92;" horiz-adv-x="581" 
d="M458 504v129q61 -34 74 -58q7 -15 7 -31q-9 -43 -50 -47q-17 0 -31 7zM44 161q0 -109 118 -146q48 -15 108 -15q155 0 224 105q38 58 38 130q0 76 -37 143q-6 11 -14 24q-14 22 -23 34v44q21 -8 44 -8q55 0 73 42q5 13 5 28q0 57 -56 87q-12 6 -35 17q-42 19 -59 32v-208
q-58 65 -113 95q-41 -48 -41 -114q0 -72 48 -103q22 -15 50 -15q61 1 86 51q34 -53 34 -113q0 -102 -90 -147q-55 -27 -132 -27q-168 0 -181 77q-1 6 -1 13q1 36 34 58q41 25 103 25h55v13q0 81 -54 116q-28 17 -65 17q-68 0 -92 -40q-9 -14 -9 -31q0 -29 29 -35q4 -1 8 -1
q29 1 40 32q13 36 50 37q36 0 54 -41q7 -17 7 -36v-6h-234v-32q33 6 110 7h5q-31 -8 -55 -28q-32 -30 -32 -81zM308 457q0 41 18 71q74 -55 114 -116q-14 -38 -57 -39q-61 0 -73 60q-2 12 -2 24z" />
    <glyph glyph-name="si_Ai" unicode="&#xd93;" horiz-adv-x="1150" 
d="M615 161q0 -109 118 -146q48 -15 108 -15q157 0 225 106q37 59 37 133q0 88 -42 165q-5 8 -9 16q-44 76 -121 135q-23 17 -43 28q-41 -48 -41 -114q0 -72 48 -103q22 -15 50 -15q62 1 86 50q34 -53 34 -126q0 -113 -101 -156q-51 -22 -121 -22q-168 0 -181 77q-1 7 -1 13
q1 36 34 58q41 25 103 25h61v13q0 82 -55 119q-30 20 -70 20q-67 0 -92 -39q-9 -15 -9 -31q0 -29 28 -37q5 -1 9 -1q30 2 40 34q10 35 48 36q37 0 58 -39q11 -21 11 -44v-6h-240v-32q33 6 110 7h5q-31 -8 -55 -28q-32 -30 -32 -81zM879 475q0 39 18 71q74 -55 114 -116
q-16 -38 -57 -40q-59 0 -72 58q-3 13 -3 27zM224 252q0 28 31 41q12 4 23 4q35 0 49 -28q4 -9 4 -17q0 -29 -30 -41q-11 -5 -23 -5q-35 0 -49 28q-5 8 -5 18zM32 207q0 -108 87 -167q61 -40 144 -40q139 0 192 83q24 37 24 85q0 96 -86 138q-45 21 -102 21q-64 0 -90 -41
q-10 -16 -10 -36q0 -42 44 -64q21 -10 43 -10q50 0 75 35q11 17 11 37q-1 27 -19 46q58 -11 77 -56q7 -15 7 -31q0 -69 -81 -97q-38 -14 -85 -14q-96 0 -147 63q-30 38 -30 84q0 77 80 120q56 31 128 31q117 0 190 -78q46 -49 57 -115h29q-10 108 -105 172q-74 49 -171 49
q-119 0 -196 -70q-65 -60 -66 -145z" />
    <glyph glyph-name="si_O" unicode="&#xd94;" horiz-adv-x="621" 
d="M268 354q0 30 28 42q8 3 17 3q30 0 42 -27q4 -8 4 -18q0 -29 -28 -41q-8 -4 -18 -4q-30 0 -42 28q-3 8 -3 17zM29 219q0 -99 51 -164q44 -54 111 -55q78 1 107 54q20 -49 87 -54h11q124 0 164 132q16 52 16 116q0 152 -89 241q-76 75 -193 75q-151 0 -227 -100
q-3 -5 -6 -9h31q60 76 166 85q16 1 33 1q131 0 198 -99q43 -64 43 -148q0 -110 -54 -165q-34 -33 -80 -33q-67 0 -83 45q-4 10 -4 21v17h-26v-16q0 -55 -61 -66q-14 -2 -28 -2q-74 0 -110 71q-21 41 -21 92q0 71 34 113q20 23 43 24q23 -7 25 -32v-32q0 -74 64 -101
q27 -11 58 -11q74 0 106 51q14 24 14 52q0 65 -49 91q-21 11 -46 11q-50 0 -69 -41q-7 -15 -7 -31q0 -42 35 -62q18 -10 38 -10q45 0 66 39l2 4q1 -3 1 -5q0 -47 -51 -64q-20 -6 -41 -6q-67 0 -87 48q-6 16 -6 33v33q-1 37 -18 51q-14 9 -32 9q-61 0 -94 -81
q-22 -55 -22 -122z" />
    <glyph glyph-name="si_Oo" unicode="&#xd95;" horiz-adv-x="621" 
d="M138 528q0 21 64 34q37 8 75 8q159 0 220 -109q13 -23 20 -48q-82 94 -245 94q-58 0 -116 -11q3 3 3 7q0 5 -12 13q-8 7 -9 12zM41 431q107 50 232 50q157 0 224 -91q33 -48 35 -110q-2 -107 -59 -156q-32 -28 -75 -28q-67 0 -83 45q-4 10 -4 21v17h-26v-16
q0 -55 -61 -66q-14 -2 -28 -2q-74 0 -110 71q-21 41 -21 92q0 71 34 113q20 23 43 24q23 -7 25 -32v-32q0 -74 64 -101q27 -11 58 -11q74 0 106 51q14 24 14 52q0 65 -49 91q-21 11 -46 11q-50 0 -69 -41q-7 -15 -7 -31q0 -42 35 -62q18 -10 38 -10q45 0 66 39l2 4
q1 -3 1 -5q0 -47 -51 -64q-20 -6 -41 -6q-67 0 -87 48q-6 16 -6 33v33q-1 37 -18 51q-14 9 -32 9q-61 0 -94 -81q-22 -55 -22 -122q0 -99 51 -164q44 -54 111 -55q78 1 107 54q20 -49 87 -54h11q123 0 164 131q15 50 16 110v4v3q-2 60 -17 100q-15 161 -128 228
q-67 38 -160 38q-109 0 -158 -46q-17 -18 -18 -35q0 -13 18 -26q9 -6 9 -11q0 -6 -61 -27q-13 -4 -20 -7v-31zM268 354q0 30 28 42q8 3 17 3q30 0 42 -27q4 -8 4 -18q0 -29 -28 -41q-8 -4 -18 -4q-30 0 -42 28q-3 8 -3 17z" />
    <glyph glyph-name="si_Au" unicode="&#xd96;" horiz-adv-x="1009" 
d="M268 354q0 30 28 42q8 3 17 3q30 0 42 -27q4 -8 4 -18q0 -29 -28 -41q-8 -4 -18 -4q-30 0 -42 28q-3 8 -3 17zM29 219q0 -99 51 -164q44 -54 111 -55q78 1 107 54q20 -49 87 -54h11q124 0 164 132q16 52 16 116q0 152 -89 241q-76 75 -193 75q-151 0 -227 -100
q-3 -5 -6 -9h31q60 76 166 85q16 1 33 1q131 0 198 -99q43 -64 43 -148q0 -110 -54 -165q-34 -33 -80 -33q-67 0 -83 45q-4 10 -4 21v17h-26v-16q0 -55 -61 -66q-14 -2 -28 -2q-74 0 -110 71q-21 41 -21 92q0 71 34 113q20 23 43 24q23 -7 25 -32v-32q0 -74 64 -101
q27 -11 58 -11q74 0 106 51q14 24 14 52q0 65 -49 91q-21 11 -46 11q-50 0 -69 -41q-7 -15 -7 -31q0 -42 35 -62q18 -10 38 -10q45 0 66 39l2 4q1 -3 1 -5q0 -47 -51 -64q-20 -6 -41 -6q-67 0 -87 48q-6 16 -6 33v33q-1 37 -18 51q-14 9 -32 9q-61 0 -94 -81
q-22 -55 -22 -122zM610 313q0 -65 47 -93q22 -13 48 -13q64 0 81 46q5 14 5 28q-1 35 -36 55v7q2 46 45 47q61 0 65 -140v-18q0 -179 -61 -191q-5 -1 -10 -1q-49 0 -62 53q-3 14 -3 29t3 31h-26q-4 -17 -4 -36q0 -77 55 -107q25 -12 55 -12q103 0 137 115q13 46 13 102
q0 124 -60 178q-34 29 -81 29q-75 0 -91 -57q-3 -12 -3 -24q0 -8 1 -12q20 -22 20 -46q0 -40 -35 -46q-6 -1 -11 -1q-44 0 -58 46q-5 15 -5 32q1 68 42 104h-35q-36 -40 -36 -105z" />
    <glyph glyph-name="si_Ka" unicode="&#xd9a;" horiz-adv-x="728" 
d="M21 21l26 -10q6 59 38 60q12 0 28 -23q24 -35 52 -44q16 -5 34 -5q63 1 90 63q31 -63 99 -63q79 0 106 72q9 25 9 52q0 115 -96 162q-49 23 -111 23q-52 0 -84 -9q60 52 162 52q114 0 183 -70q56 -58 56 -144q0 -69 -39 -98q-17 -12 -36 -12q-26 0 -45 11v-27
q19 -12 49 -12q86 0 124 93q19 46 19 96q0 114 -82 181q-66 55 -161 55q-124 0 -218 -81q-5 -6 -10 -10q1 7 1 16q0 50 -46 68q-17 6 -36 6q-59 0 -89 -43q-16 -22 -16 -48q0 -31 25 -40q8 -2 15 -2q28 1 38 25q2 5 8 32q1 4 2 7q10 25 38 27q32 -3 34 -37q-1 -24 -23 -49
q-43 -45 -59 -68q-49 -68 -75 -159q-7 -26 -10 -47zM77 112q15 42 50 95q24 35 50 58q38 17 115 17q110 0 146 -61q13 -22 13 -48q0 -47 -36 -67q-17 -9 -38 -9q-62 0 -74 49q-3 15 -3 33v1h-26v-1q-2 -81 -75 -82q-27 0 -67 17q-17 8 -29 8q-13 -1 -26 -10z" />
    <glyph glyph-name="si_Kha" unicode="&#xd9b;" horiz-adv-x="615" 
d="M91 70q0 -28 26 -39q8 -3 16 -3q28 0 39 26q3 8 3 16q0 28 -25 39q-9 4 -17 4q-27 0 -39 -26q-3 -9 -3 -17zM31 179q0 125 92 180q48 28 111 28q90 0 139 -55q30 -35 30 -80q-1 -67 -51 -122q4 1 9 1q13 0 29 -19q18 -18 38 -19q49 0 79 80q21 58 21 128q0 133 -85 206
q-65 55 -156 55q-132 -1 -191 -103h-34q71 127 229 128q132 0 211 -98q68 -85 68 -210q0 -126 -54 -210q-46 -68 -110 -69q-37 0 -66 33q-18 19 -27 20q-22 0 -76 -72q-2 -1 -2 -2l-37 3q7 7 34 40q29 38 48 60q70 84 70 132q-2 79 -120 80q-86 0 -133 -55q-33 -38 -33 -93
q0 -23 6 -45q12 34 50 41q7 1 13 1q51 0 68 -43q5 -14 5 -29q0 -39 -33 -61q-17 -11 -35 -11q-73 0 -98 101q-9 37 -9 79z" />
    <glyph glyph-name="si_Ga" unicode="&#xd9c;" horiz-adv-x="621" 
d="M33 202q0 -104 63 -163q45 -41 107 -41q84 0 122 63q19 32 19 72q0 75 -48 97q-15 7 -32 7q-14 -1 -22 -5q16 74 77 100q25 10 53 10q95 0 127 -83q13 -33 13 -74q0 -82 -58 -129q-42 -32 -100 -32q-9 0 -24 2v-25q22 -2 30 -2q111 0 171 82q41 57 41 131q0 107 -63 167
q-46 43 -109 43q-109 0 -160 -115q-23 -53 -29 -119h25q0 7 2 19q10 6 24 6q31 0 38 -32q1 -7 1 -13q0 -50 -57 -66q-19 -5 -41 -5q-75 0 -110 64q-18 34 -18 75q0 82 57 130q37 31 85 31h11v24q-2 0 -6 1h-7q-90 0 -143 -81q-39 -60 -39 -139z" />
    <glyph glyph-name="si_Gha" unicode="&#xd9d;" horiz-adv-x="661" 
d="M50 150q0 -73 53 -118q39 -33 91 -33q35 0 79 12q3 7 3 28q0 10 -7 48q-3 14 -3 28q0 51 42 61q8 2 16 2q44 0 56 -40q3 -10 3 -23t-8 -49q-3 -14 -3 -27q0 -19 4 -28q45 -12 78 -12q92 0 135 69q24 40 24 94q0 68 -49 110q-13 11 -27 18q27 17 28 52q0 61 -65 76
q-17 4 -34 4q-76 0 -107 -67q-14 -32 -14 -71v-10q42 9 93 9q104 0 127 -64q5 -15 5 -31q0 -56 -60 -81q-27 -11 -57 -11q-33 0 -42 8q1 13 0 27q-5 62 -64 75q-11 2 -23 2q-60 0 -80 -47q-5 -14 -7 -30q-1 -15 0 -27q-9 -8 -42 -8q-60 0 -87 42q-12 20 -12 43q0 55 59 81
q29 13 59 13h92v13q0 89 -63 121q-26 13 -60 13q-67 0 -93 -38q-10 -16 -10 -33q0 -30 27 -36q5 -1 9 -1q29 1 41 33q16 35 50 36q39 0 58 -39q8 -18 8 -39v-4h-268v-32q23 4 130 6q-73 -26 -83 -102q-2 -11 -2 -23zM374 303q9 79 85 80q51 0 64 -31q3 -7 3 -15
q-1 -23 -15 -38q-27 10 -76 10q-41 0 -61 -6z" />
    <glyph glyph-name="si_Nga" unicode="&#xd9e;" horiz-adv-x="602" 
d="M86 339q0 -30 30 -43q11 -5 23 -5q33 0 47 29q4 10 4 19q0 30 -29 43q-11 4 -22 4q-34 0 -48 -28q-5 -9 -5 -19zM45 457q88 111 229 111q120 0 202 -91q81 -91 81 -223q0 -151 -66 -218q-37 -36 -85 -36q-61 0 -97 37q-8 9 -18 21q-47 -57 -107 -58q-76 0 -114 61
q-20 34 -20 76q0 67 59 99q31 16 66 16q18 0 50 -3q31 -3 48 -3q60 2 61 57q0 62 -70 88q-28 10 -55 10q-15 0 -30 -2q37 -21 38 -62q0 -38 -37 -60q-19 -11 -42 -11q-44 0 -68 35q-11 18 -11 37q0 58 77 78q30 8 67 8q102 0 143 -64q17 -28 17 -61q0 -57 -52 -75
q-17 -5 -38 -5q-20 0 -47 3q-28 3 -49 3q-56 0 -74 -37q-5 -11 -5 -23q0 -46 50 -62q19 -6 40 -6q63 0 83 36q6 12 6 26v21h27v-21q0 -46 57 -59q15 -4 31 -4q74 0 102 93q13 44 13 100q0 113 -73 188q-67 67 -163 67q-116 -1 -194 -87h-32z" />
    <glyph glyph-name="si_Nnga" unicode="&#xd9f;" horiz-adv-x="731" 
d="M147 202q0 -104 63 -163q45 -41 107 -41q84 0 122 63q19 32 19 72q0 75 -48 97q-15 7 -32 7q-14 -1 -22 -5q16 72 75 99q26 11 55 11q94 0 127 -82q14 -34 14 -75q0 -82 -59 -129q-41 -32 -100 -32q-9 0 -24 2v-25q22 -2 31 -2q111 0 171 82q41 57 41 131q0 107 -63 167
q-46 43 -109 43q-109 0 -160 -113q-24 -54 -30 -121h26q0 7 2 19q10 6 23 6q31 0 38 -32q1 -7 1 -13q0 -50 -57 -66q-19 -5 -41 -5q-75 0 -110 64q-18 34 -18 75q0 82 57 130q37 31 85 31h11v24q-2 0 -5 1h-5q-26 1 -99 1q-150 0 -193 -117q-14 -40 -14 -90q0 -115 62 -183
q21 -21 44 -33v31q-76 66 -76 182q0 169 163 184q12 1 24 1q-73 -46 -92 -146q-4 -25 -4 -50z" />
    <glyph glyph-name="si_Ca" unicode="&#xda0;" 
d="M62 161q0 -109 118 -146q48 -15 108 -15q164 0 234 114q40 65 40 154q0 135 -85 220q-75 75 -181 75q-141 -1 -214 -104h32q67 80 182 80q108 0 173 -84q50 -65 50 -151q0 -133 -105 -183q-52 -24 -123 -24q-152 0 -177 66q-4 12 -4 24q1 37 36 58q42 25 107 25h59v13
q0 107 -81 133q-22 6 -47 6q-67 0 -93 -38q-10 -16 -10 -33q0 -30 27 -36q5 -1 9 -1q30 1 41 33q11 29 34 35q10 2 21 2q38 0 57 -40q9 -20 9 -43v-6h-265v-32q31 5 131 7h4q-30 -7 -54 -28q-33 -31 -33 -81z" />
    <glyph glyph-name="si_Cha" unicode="&#xda1;" 
d="M462 284q-38 18 -94 20q3 51 17 95h8q97 -2 98 -106q0 -10 -2 -25q-18 12 -27 16zM301 303q-1 5 -1 13q1 57 53 76q-9 -40 -12 -87q-25 0 -40 -2zM32 166q0 -118 143 -153q52 -13 116 -13q148 0 211 71q34 39 34 93q-1 46 -24 79q8 29 8 52q0 91 -70 120q-25 10 -54 10
h-1q17 39 42 69q33 36 87 52q27 8 31 20q2 5 2 11q0 19 -22 25q-6 1 -11 1q-51 0 -99 -58l-3 -3q-39 -48 -61 -120q-79 -16 -88 -93q-1 -9 -1 -17q0 -17 5 -35q33 2 64 4q1 -91 56 -110q13 -4 26 -4q43 1 69 36q1 -5 1 -12q0 -80 -156 -93q-25 -2 -52 -2q-158 0 -197 61
q-11 17 -11 37q0 48 55 72q37 16 92 16q11 0 24 -2q4 17 4 38q0 73 -61 96q-21 8 -46 8q-61 0 -84 -38q-9 -15 -9 -32q0 -29 28 -37q5 -1 10 -1q26 0 41 30l5 10q13 24 39 25q41 0 47 -43q1 -7 1 -13t-2 -19q-5 1 -18 1q-107 0 -151 -69q-20 -32 -20 -70zM425 194
q-54 1 -57 86q81 -5 111 -44q-22 -41 -54 -42z" />
    <glyph glyph-name="si_Ja" unicode="&#xda2;" 
d="M430 304q-37 0 -46 40q-2 9 -2 19q0 18 3 33q7 1 20 1q60 0 71 -37q2 -6 2 -13q0 -32 -32 -41q-8 -2 -16 -2zM318 302q-3 14 -3 24q1 47 40 63q-1 -9 -1 -25q1 -36 19 -61q-9 1 -25 1q-15 0 -30 -2zM32 166q0 -118 143 -153q52 -13 116 -13q148 0 211 71q34 39 34 93
q-1 84 -74 119q44 17 46 62q0 54 -61 73q-19 6 -38 6q-11 0 -16 -1q16 45 51 74q21 18 79 49q31 18 32 32q-2 24 -28 25q-39 -1 -84 -43q-63 -57 -83 -141q-73 -20 -74 -96q0 -23 7 -45q4 0 15 1q25 3 39 3q116 0 140 -62q4 -12 4 -24q0 -84 -157 -97q-24 -2 -49 -2
q-165 0 -199 64q-8 15 -8 32q0 53 62 76q34 13 84 13q9 0 32 -2q4 17 4 38q0 71 -60 95q-23 9 -50 9q-63 0 -87 -37q-9 -15 -9 -32q0 -33 28 -39q5 -1 9 -1q26 0 42 31q2 4 4 7q15 28 44 29q40 0 48 -43q1 -7 1 -14q0 -13 -1 -19q-10 1 -26 1q-107 0 -151 -69
q-20 -32 -20 -70z" />
    <glyph glyph-name="si_Jha" unicode="&#xda3;" horiz-adv-x="1061" 
d="M77 112q15 42 50 95q24 35 50 58q38 17 115 17q110 0 146 -61q13 -22 13 -48q0 -47 -36 -67q-17 -9 -38 -9q-62 0 -74 49q-3 15 -3 33v1h-26v-1q-2 -81 -75 -82q-27 0 -67 17q-17 8 -29 8q-13 -1 -26 -10zM296 308q-51 0 -83 -9q102 90 229 96h20q70 0 131 -15l-5 -2
q-61 -21 -94 -91q-14 -29 -19 -61q-57 81 -179 82zM21 21l26 -10q6 59 38 60q12 0 28 -23q24 -35 52 -44q16 -5 34 -5q63 1 90 63q31 -63 99 -63q77 0 104 68q3 7 5 14q43 -80 128 -81q64 1 110 58q45 -57 117 -58q108 0 147 131q16 56 16 124q0 144 -93 234q-80 77 -191 77
q-145 -1 -228 -109h32q77 85 192 85q116 0 187 -89q56 -72 56 -168q0 -117 -57 -164q-29 -24 -68 -24q-75 0 -91 55q-4 13 -4 28v32h-28v-32q0 -70 -73 -81q-11 -2 -24 -2q-70 0 -99 62q-13 28 -13 60q0 73 53 116q35 29 80 29h9v25q-66 32 -182 34h-14q-129 0 -224 -72
q-11 -9 -21 -18q1 7 1 16q0 50 -46 68q-17 6 -36 6q-59 0 -89 -43q-16 -22 -16 -48q0 -31 25 -40q8 -2 15 -2q28 1 38 25q2 5 8 32q1 4 2 7q10 25 38 27q32 -3 34 -37q-1 -24 -23 -49q-43 -45 -59 -68q-49 -68 -75 -159q-7 -26 -10 -47z" />
    <glyph glyph-name="si_Nya" unicode="&#xda4;" horiz-adv-x="1000" 
d="M199 112q15 42 50 95q24 35 50 58q38 17 115 17q110 0 146 -61q13 -22 13 -48q0 -47 -36 -67q-17 -9 -38 -9q-62 0 -74 49q-3 15 -3 33v1h-26v-1q-2 -81 -75 -82q-27 0 -67 17q-17 8 -29 8q-13 -1 -26 -10zM143 21l26 -10q6 59 38 60q12 0 28 -23q24 -35 52 -44
q16 -5 34 -5q63 1 90 63q31 -63 99 -63q78 1 106 72q51 -73 171 -73q45 0 81 11q-71 -89 -72 -146q0 -75 68 -95q18 -5 39 -6q31 0 55 6v29q-88 25 -89 106q0 68 74 154q2 3 6 7q5 6 7 8l-24 19q-55 -57 -109 -59q-66 0 -104 54q-24 36 -24 82q0 112 116 118h14h104
q-23 109 -121 131q-50 15 -140 15q-109 0 -194 -28q-80 -26 -138 -71q1 7 1 16q0 50 -46 68q-15 5 -32 6q-12 1 -26 1q-148 0 -192 -115q-15 -41 -15 -93q0 -115 62 -183q21 -21 44 -33v31q-76 66 -76 182q0 123 84 165q16 8 33 12h1q-24 -25 -24 -58q0 -31 25 -40
q8 -2 15 -2q28 1 38 25q2 5 8 32q1 4 2 7q10 25 38 27q32 -3 34 -37q-1 -24 -23 -49q-39 -41 -58 -68q-50 -69 -76 -159q-7 -26 -10 -47zM418 308q-49 0 -82 -8q92 70 204 93q56 11 123 11q18 0 28 -1q-22 -16 -23 -40q0 -29 29 -35q5 -1 10 -1q30 1 43 28q16 29 42 30
q46 0 80 -38q16 -17 21 -38h-117q-144 -1 -177 -86q-49 79 -165 85h-16z" />
    <glyph glyph-name="si_Jnya" unicode="&#xda5;" horiz-adv-x="822" 
d="M131 202q0 -104 63 -163q45 -41 107 -41q86 0 123 66q5 9 8 18q49 -82 177 -83q48 0 81 10q-71 -89 -72 -146q0 -73 66 -94q20 -6 42 -7q30 0 54 6v29q-88 25 -89 106q0 69 75 156q2 3 6 7q4 5 6 7l-23 18q-55 -56 -109 -58q-65 0 -104 53q-25 36 -25 83q0 107 107 116
q12 1 23 1h104q-21 109 -94 131q-7 2 -13 3q-36 8 -97 8q-218 -2 -239 -240h26q0 2 3 18q9 7 21 7q32 0 40 -33q1 -7 1 -13q0 -53 -63 -66q-17 -4 -36 -4q-77 0 -112 68q-16 33 -16 71q0 82 56 130q38 31 86 31h11v24q-6 0 -9 1h1q-24 1 -84 1q-150 0 -193 -117
q-14 -40 -14 -90q0 -115 62 -183q21 -21 44 -33v31q-76 66 -76 182q0 122 86 165q35 17 81 18q-71 -46 -88 -145q-4 -24 -4 -49zM361 237q-12 -1 -21 -5q25 124 121 157q31 11 65 11h6q-17 -16 -17 -37q0 -30 29 -35q5 -1 9 -1q30 1 43 28q16 29 42 30q51 0 72 -57
q3 -8 5 -18h-116q-155 -1 -182 -99q-22 26 -56 26z" />
    <glyph glyph-name="si_Ndja" unicode="&#xda6;" horiz-adv-x="682" 
d="M528 304q-37 0 -46 40q-2 9 -2 19q0 18 3 33q8 1 21 1q61 0 71 -39q1 -6 1 -11q0 -32 -32 -41q-8 -2 -16 -2zM417 302q-3 14 -3 24q1 47 40 63q-1 -9 -1 -25q1 -36 19 -61q-10 1 -26 1q-14 0 -29 -2zM131 166q0 -118 143 -153q52 -13 116 -13q148 0 211 71q34 39 34 93
q-1 85 -75 119q45 15 46 62q0 54 -60 73q-19 6 -38 6q-12 0 -17 -1q17 45 52 74q21 18 78 49q32 17 32 32q-2 24 -28 25q-38 -1 -83 -43q-63 -57 -83 -141q-73 -20 -74 -96q0 -23 7 -45q4 0 15 1q24 3 38 3q116 0 140 -62q4 -12 4 -24q0 -85 -158 -97q-23 -2 -47 -2
q-165 0 -199 64q-8 15 -8 32q0 56 65 78q33 11 80 11q9 0 32 -2q4 17 4 38q0 73 -63 96q-13 5 -28 7q-16 2 -34 2q-150 0 -193 -117q-14 -40 -14 -90q0 -115 62 -183q21 -21 44 -33v31q-76 66 -76 182q0 120 81 163q13 7 26 11q-11 -15 -11 -34q0 -31 27 -39q6 -1 11 -1
q25 0 41 31q2 3 4 7q15 28 44 29q40 0 48 -41q2 -8 2 -16q0 -6 -2 -19q-10 1 -25 1q-107 0 -151 -69q-20 -32 -20 -70z" />
    <glyph glyph-name="si_Tta" unicode="&#xda7;" horiz-adv-x="588" 
d="M31 203q0 97 81 148q51 31 115 31q46 0 86 -16v-29q-37 18 -84 18q-87 0 -129 -54q-23 -31 -23 -70q0 -84 95 -118q45 -16 98 -16q138 0 196 88q31 49 31 116q0 100 -68 171q-65 67 -160 67q-117 -1 -180 -80h-33q72 103 211 104q132 0 211 -101q66 -84 66 -197
q0 -127 -88 -203q-73 -63 -178 -63q-140 0 -207 84q-40 51 -40 120z" />
    <glyph glyph-name="si_Ttha" unicode="&#xda8;" horiz-adv-x="599" 
d="M32 190q0 94 61 154q26 24 55 34q34 11 68 11v-26q-2 0 -5 1h-5q-69 0 -108 -61q-24 -38 -24 -82q0 -73 50 -107q26 -17 60 -17q78 0 95 55q4 13 4 28v32h28v-32q0 -69 70 -81q12 -2 25 -2q87 0 117 87q11 33 11 70q0 86 -38 149q-2 4 -4 6q-26 -50 -86 -51q-61 0 -86 61
q-11 27 -11 58q1 67 41 114q72 -39 136 -121q16 -22 28 -42q61 -105 61 -201q0 -118 -57 -182q-43 -45 -106 -45q-72 1 -116 58q-47 -57 -110 -58q-87 0 -130 84q-24 48 -24 106zM339 480q2 -85 74 -86q46 2 60 44q-37 57 -114 115q-20 -29 -20 -73z" />
    <glyph glyph-name="si_Dda" unicode="&#xda9;" horiz-adv-x="631" 
d="M15 280v28h239q-3 44 -36 65q-13 8 -25 8q-29 -2 -45 -28q-14 -23 -38 -24q-29 0 -36 26q-1 5 -1 10q0 39 52 52q17 5 35 5q91 0 119 -82q8 -27 9 -60h-71q-88 0 -116 -59q-9 -19 -9 -37q0 -53 50 -76q24 -11 53 -11q74 0 92 44q4 10 4 22v28h28v-28q0 -47 54 -61
q17 -5 37 -5q81 0 114 84q16 42 16 94q0 121 -77 199q-69 69 -172 69q-116 -1 -186 -86h-34q78 111 226 111q137 0 219 -103q68 -87 68 -213q0 -156 -74 -219q-39 -33 -92 -33q-68 0 -108 53q-2 3 -4 5q-48 -57 -112 -58q-90 0 -130 76q-19 38 -19 82q0 73 57 111
q10 6 20 11h-107z" />
    <glyph glyph-name="si_Ddha" unicode="&#xdaa;" horiz-adv-x="631" 
d="M15 280v28h236q-2 45 -35 65q-12 8 -25 8q-29 -2 -44 -28q-16 -24 -39 -24q-29 0 -36 26q-1 5 -1 10q0 39 52 52q17 5 35 5q88 0 117 -78q10 -29 10 -64h-68q-88 0 -116 -59q-9 -19 -9 -37q0 -53 50 -76q24 -11 53 -11q74 0 92 44q4 10 4 22v28h28v-28q0 -47 54 -61
q17 -5 37 -5q84 0 115 86q14 38 14 86q0 69 -39 141q-34 -55 -88 -56q-67 0 -92 60q-9 24 -9 52q0 61 40 122v1q88 -35 158 -132q75 -104 75 -211q0 -162 -81 -220q-37 -26 -86 -26q-67 0 -108 53q-2 3 -3 5q-48 -57 -112 -58q-90 0 -130 76q-19 38 -19 82q0 73 57 111
q10 6 20 11h-107zM340 470q8 -80 74 -85q41 1 69 53q-51 76 -113 110l-6 3q-21 -33 -24 -81z" />
    <glyph glyph-name="si_Nna" unicode="&#xdab;" horiz-adv-x="940" 
d="M21 174l11 -25q45 25 65 27q29 0 57 -42q39 -58 40 -60q60 -73 162 -74q128 0 185 98q2 4 4 7q20 -55 66 -67q10 -3 19 -3q42 1 67 31q7 -45 50 -61q16 -6 34 -6q89 0 109 109q4 26 4 56q0 112 -50 157q-22 19 -49 19q-64 0 -86 -62q-5 -16 -7 -33q-26 34 -72 34
q-35 -1 -63 -31q-13 86 -79 134q78 27 146 40q67 13 171 27q37 7 38 33q0 27 -32 32q-6 1 -11 1q-52 0 -159 -36q-102 -35 -194 -75q-47 19 -96 19q-108 0 -158 -62q-27 -35 -27 -81q0 -10 1 -15q-84 -49 -146 -91zM195 285q0 63 67 94q39 18 86 18q35 0 62 -9
q-106 -47 -215 -107v4zM337 94q-86 0 -149 57q-41 38 -42 38q-18 13 -34 13q40 24 62 36q23 -61 100 -76q19 -4 39 -4q40 0 65 12q44 17 54 64q2 9 2 18q0 48 -42 73q-12 7 -24 10q40 18 81 33q59 -49 64 -123q0 -84 -72 -125q-44 -26 -104 -26zM260 252q1 -39 29 -65
q-71 12 -89 65q23 13 68 36q-8 -18 -8 -36zM289 252q0 36 32 52q13 6 26 6q36 0 52 -33q5 -12 5 -25q0 -37 -32 -52q-13 -6 -25 -6q-36 0 -52 32q-6 13 -6 26zM629 67q-37 0 -56 44q-8 21 -9 45q5 20 6 40q15 47 51 53q4 1 8 1q63 -2 64 -92q0 -71 -43 -87q-11 -4 -21 -4z
M718 103v5q6 22 6 49q0 19 -3 36q6 99 52 100q47 -2 47 -128q0 -105 -34 -121q-8 -4 -18 -4q-38 0 -48 41q-2 10 -2 22z" />
    <glyph glyph-name="si_Nndda" unicode="&#xdac;" horiz-adv-x="713" 
d="M100 280h107q-65 -28 -76 -102q-1 -10 -1 -20q0 -81 55 -126q39 -32 94 -32q66 1 112 58q37 -51 91 -57q11 -1 21 -1q107 0 147 121q19 57 19 131q0 151 -93 241q-79 75 -194 75q-149 -1 -226 -111h33q71 86 187 86q126 0 197 -98q52 -74 52 -170q0 -110 -61 -156
q-30 -22 -69 -22q-68 0 -86 42q-5 12 -5 24v28h-28v-28q0 -49 -58 -62q-17 -4 -35 -4q-67 0 -95 47q-11 18 -11 40q0 50 47 77q32 19 78 19h71q-3 112 -88 137h1q-21 6 -53 6q-150 0 -193 -117q-14 -40 -14 -90q0 -115 62 -183q21 -21 44 -33v31q-76 66 -76 182
q0 123 84 166q12 5 24 9q-6 -11 -6 -23q0 -29 27 -35q5 -1 10 -1q25 1 38 24q18 28 45 28q32 0 51 -39q8 -16 10 -34h-239v-28z" />
    <glyph glyph-name="si_Ta" unicode="&#xdad;" horiz-adv-x="687" 
d="M21 24q15 116 104 238q16 22 32 40q17 19 18 38q0 33 -23 37q-3 1 -5 1q-25 0 -29 -27v-4q-4 -59 -43 -60q-30 0 -38 33q-1 8 -1 14q0 49 42 76q22 13 46 13q55 0 72 -46q5 -15 5 -30q0 -5 -1 -8q78 86 213 86q117 0 184 -85q51 -66 51 -159q0 -105 -61 -154
q-36 -28 -83 -28q-37 0 -60 14v29q24 -13 46 -13q55 0 75 64q8 25 8 52q0 111 -84 172q-60 44 -142 44q-99 -1 -151 -62q31 13 78 13q113 0 155 -75q19 -34 19 -79q0 -87 -69 -131q-44 -29 -104 -29q-89 0 -137 46q-26 26 -33 29q-9 4 -18 4q-30 -2 -43 -68zM79 120
q12 9 32 9q13 0 59 -16q43 -15 82 -15q129 0 142 79q2 9 2 18q0 56 -58 81q-29 12 -62 12q-76 -1 -122 -34q-45 -55 -75 -134z" />
    <glyph glyph-name="si_Tha" unicode="&#xdae;" horiz-adv-x="599" 
d="M32 229q0 87 74 145q59 46 133 46v-25q-82 0 -132 -57q-34 -41 -34 -93q0 -107 127 -137q44 -11 98 -11q112 0 173 73q41 51 41 119q0 66 -31 120q-25 -50 -85 -51q-61 0 -87 61q-11 27 -11 58q1 67 41 114q72 -39 136 -121q16 -22 28 -42q47 -81 50 -168v-14
q0 -120 -91 -191q-73 -56 -174 -56q-123 0 -196 77q-60 63 -60 153zM328 480q2 -84 74 -85q46 2 60 43q-39 60 -114 115q-20 -31 -20 -73z" />
    <glyph glyph-name="si_Da" unicode="&#xdaf;" horiz-adv-x="445" 
d="M30 165q2 144 188 145h116q-14 62 -61 73q-8 2 -16 2q-27 -1 -42 -30q-14 -27 -42 -28q-33 0 -38 28q-1 5 -1 8q0 37 48 53q21 7 45 7q93 0 127 -80q10 -25 16 -57h-104q-120 0 -129 -99q-1 -9 -1 -18q0 -77 60 -115q32 -21 69 -21q55 0 101 49q4 5 8 9l23 -18
q-55 -64 -71 -102q-16 -35 -16 -68q2 -82 89 -106v-29q-25 -6 -54 -6q-86 2 -104 70q-4 15 -4 31q0 56 68 140q3 4 5 6q-34 -10 -81 -10q-130 0 -178 83q-21 37 -21 83z" />
    <glyph glyph-name="si_Dha" unicode="&#xdb0;" horiz-adv-x="623" 
d="M32 190q0 -97 58 -152q40 -38 96 -38q64 1 110 58q45 -57 116 -58q108 0 147 131q16 56 16 124q0 144 -92 234q-80 77 -191 77q-145 -1 -229 -109h33q77 85 191 85q116 0 187 -89q57 -72 57 -168q0 -114 -56 -163q-30 -25 -70 -25q-76 0 -91 58q-3 12 -3 25v32h-28v-32
q0 -70 -73 -81q-11 -2 -24 -2q-71 0 -100 63q-12 27 -12 59q0 74 53 117q35 28 79 28h10v25q-35 0 -68 -11q-63 -22 -96 -94q-20 -44 -20 -94z" />
    <glyph glyph-name="si_Na" unicode="&#xdb1;" horiz-adv-x="787" 
d="M25 142q19 -12 38 -12q34 0 60 37q5 7 15 22q34 53 64 82q18 19 18 46q0 49 -35 58q-6 1 -11 1q-34 0 -39 -34v-5q-7 -47 -42 -48q-29 0 -37 28q-2 8 -2 15q0 47 40 74q25 15 56 15q69 0 90 -60q7 -20 7 -41q0 -7 -1 -11q59 70 158 100q46 14 90 14q117 0 189 -80
q59 -68 59 -164q0 -106 -71 -155q-37 -25 -80 -25q-41 0 -67 17v29q22 -18 54 -18q48 0 70 52q12 28 12 62q0 113 -95 172q-62 39 -139 39q-104 -1 -165 -63q34 12 76 12q78 0 122 -56q27 -36 27 -80q0 -106 -104 -147q-50 -19 -112 -19q-154 0 -217 85q-20 26 -28 58z
M111 118q59 -23 140 -23q124 0 164 59q14 21 14 46q0 48 -53 68q-22 8 -48 8q-95 0 -142 -63q-9 -11 -23 -34q-29 -47 -52 -61z" />
    <glyph glyph-name="si_Nda" unicode="&#xdb3;" horiz-adv-x="518" 
d="M112 165q0 -100 86 -142q48 -24 113 -24q48 0 81 10q-70 -91 -73 -146q0 -73 66 -94q19 -6 42 -7q30 0 54 6v29q-88 25 -89 106q0 69 75 156q2 3 6 7q4 5 6 7l-23 18q-55 -56 -109 -58q-65 0 -104 53q-25 36 -25 83q0 107 107 116q12 1 23 1h104q-26 129 -145 136
q-33 3 -54 3q-166 0 -212 -121q-15 -39 -15 -88q0 -115 62 -183q21 -21 44 -33v31q-76 66 -76 182q0 146 129 176q17 4 35 6q-13 -14 -13 -32q0 -29 29 -35q5 -1 10 -1q30 1 43 28q14 27 42 28q44 0 71 -41q10 -15 14 -32h-116q-187 -2 -188 -145z" />
    <glyph glyph-name="si_Pa" unicode="&#xdb4;" horiz-adv-x="601" 
d="M30 180q0 94 89 126q37 13 83 13q12 0 35 -2q0 2 1 5v6q0 45 -38 54q-7 2 -14 2q-37 -1 -48 -33q-14 -28 -45 -32q-31 0 -38 27q-1 5 -1 11q0 43 53 60q22 7 47 7q93 0 111 -68q4 -15 4 -30q0 -19 -4 -36q-5 1 -12 1.5l-14 1t-13 1t-10 0.5h-4q-105 0 -128 -57
q-6 -14 -6 -29q0 -77 124 -102q45 -9 98 -9q121 0 180 49q33 29 34 68q0 61 -79 77q-24 5 -50 5q-31 0 -69 -7q-3 17 -3 31q0 79 74 98q19 5 42 5q66 0 91 -45q8 -16 8 -32q-1 -31 -26 -50q58 -36 59 -114q0 -115 -123 -160q-60 -22 -138 -22q-208 0 -257 112q-13 31 -13 68
zM346 328q0 -8 1 -11q26 3 47 3q51 0 83 -12q15 16 15 35q0 36 -40 48q-14 4 -30 4q-55 0 -71 -41q-5 -12 -5 -26z" />
    <glyph glyph-name="si_Pha" unicode="&#xdb5;" horiz-adv-x="567" 
d="M32 161q0 -109 118 -146q48 -15 108 -15q156 0 225 106q38 58 38 133q0 88 -42 165q-5 8 -9 16q-44 76 -121 135q-23 17 -43 28q-41 -48 -41 -114q0 -73 48 -104q22 -14 49 -14q62 1 86 50q34 -53 34 -126q0 -114 -102 -157q-51 -21 -119 -21q-140 0 -172 59q-8 16 -8 33
q0 64 80 82q25 5 54 5h59v14q0 78 -53 113q-29 19 -68 19q-67 0 -93 -39q-9 -15 -9 -32q0 -30 28 -36q4 -1 8 -1q28 1 40 33q13 36 51 37q37 0 55 -38q9 -18 9 -38v-6h-15q-181 0 -194 -122q-1 -10 -1 -19zM296 475q0 39 18 71q76 -56 115 -116q-17 -37 -58 -40
q-59 0 -72 58q-3 13 -3 27z" />
    <glyph glyph-name="si_Ba" unicode="&#xdb6;" horiz-adv-x="604" 
d="M99 74q0 -29 27 -42q10 -5 20 -5q28 0 43 26q5 10 5 21q0 28 -27 43q-11 5 -21 5q-28 0 -42 -27q-5 -11 -5 -21zM32 183q0 112 83 168q53 36 123 36q96 0 142 -56q26 -33 26 -76q0 -65 -53 -94q-6 -3 -19 -9q-35 -16 -40 -31q-2 -6 -2 -12q2 -30 44 -31q79 0 130 90
q41 71 41 155q0 123 -86 184q-56 40 -136 40q-134 -1 -192 -88h-31q45 92 174 109q24 3 49 3q156 0 229 -114q48 -74 48 -180q0 -149 -69 -225q-49 -54 -121 -54q-69 0 -98 51q-13 22 -13 49q0 43 39 66q36 22 40 26q16 16 16 39q0 43 -68 59q-26 6 -57 6q-91 0 -138 -58
q-29 -37 -29 -87q0 -38 11 -60q5 42 45 56q13 4 26 4q45 0 68 -38q10 -17 10 -36q0 -48 -43 -68q-17 -8 -35 -8q-74 0 -102 94q-12 41 -12 90z" />
    <glyph glyph-name="si_Bha" unicode="&#xdb7;" horiz-adv-x="654" 
d="M6 264q24 4 114 6q-71 -44 -72 -119q0 -88 72 -129q40 -23 92 -23q96 0 139 64q22 35 22 79q0 64 -39 85q-12 6 -25 6q-17 -1 -28 -7q29 108 123 109q83 0 117 -79q15 -36 15 -79q0 -82 -57 -125q-36 -26 -84 -26q-18 0 -36 3v-27q21 -3 40 -3q103 0 163 76q44 57 44 131
q0 112 -63 173q-45 43 -107 43q-80 0 -137 -84q-44 -66 -50 -149l23 -9q10 27 32 28q28 -2 29 -37q0 -50 -65 -68q-23 -6 -48 -6q-85 0 -115 47q-12 18 -12 41q0 51 61 75q31 13 67 13q6 0 28 -2q-1 90 -55 131q-28 20 -63 20q-56 0 -77 -42q-6 -13 -6 -25q0 -32 27 -37
q5 -1 8 -1q27 1 39 29q13 25 37 26q34 0 50 -40q7 -18 7 -36h-5h-3h-202v-32z" />
    <glyph glyph-name="si_Ma" unicode="&#xdb8;" horiz-adv-x="618" 
d="M258 344q0 -30 28 -44q10 -4 20 -4q30 0 44 28q4 10 4 20q0 30 -28 44q-10 4 -20 4q-30 0 -44 -28q-4 -10 -4 -20zM32 244q0 88 46 142q33 35 74 36q52 -1 52 -56q0 -12 -2 -29q-3 -22 -3 -39q0 -56 54 -74q19 -6 40 -6q72 0 93 55q6 17 6 36q0 29 -14 48q2 -11 2 -22
q0 -43 -38 -62q-16 -8 -36 -8q-49 0 -70 45q-8 17 -8 33q0 48 43 70q19 9 40 9q72 0 100 -61q11 -26 11 -58q0 -68 -59 -100q-31 -16 -68 -16q-73 0 -107 45q-20 26 -20 60q0 6 6 60q1 9 1 17q-2 25 -25 26q-43 0 -64 -56q-10 -29 -10 -61q0 -107 95 -156q55 -28 128 -28
q119 0 181 81q43 56 43 135q0 104 -71 174q-64 62 -156 62q-118 -1 -188 -88h-32q64 97 182 112q19 2 37 2q120 0 201 -89q75 -83 75 -198q0 -161 -105 -237q-68 -48 -163 -48q-153 0 -225 96q-46 62 -46 148z" />
    <glyph glyph-name="si_Mba" unicode="&#xdb9;" horiz-adv-x="621" 
d="M29 223q0 -105 56 -171q46 -51 112 -52q31 1 63 15q2 13 -2 34q-1 10 -6 26q-7 22 -7 35q0 48 38 60q10 3 20 3q45 0 55 -44q2 -9 2 -19q0 -9 -9 -48q-2 -8 -3 -14q-4 -22 -2 -33q33 -15 62 -15q86 0 135 96q33 67 33 152q0 153 -89 242q-77 75 -194 75q-148 0 -223 -98
q-5 -6 -9 -12h31q61 76 160 85q19 2 39 2q128 0 195 -101q45 -68 45 -155q0 -96 -44 -156q-29 -38 -63 -39q-24 0 -36 9q3 12 1 26q-5 59 -61 74q-13 3 -25 3q-53 0 -76 -42q-8 -16 -10 -35q-2 -15 1 -26q-12 -9 -36 -9q-69 0 -100 77q-17 41 -17 90q0 71 34 113
q20 23 43 24q25 -4 26 -32v-25q0 -75 62 -103q26 -11 57 -11q73 0 103 51q14 23 14 50q0 61 -45 87q-20 12 -45 12q-49 0 -68 -40q-7 -16 -7 -32q0 -42 36 -61q16 -9 36 -9q42 0 63 36v-4q0 -37 -42 -53q-20 -8 -43 -8q-72 0 -90 54q-4 14 -4 29v26q-1 37 -18 51
q-14 9 -32 9q-62 0 -95 -81q-21 -53 -21 -118zM268 354q0 30 27 42q8 4 18 4q30 0 42 -28q4 -8 4 -18q0 -29 -28 -41q-8 -4 -18 -4q-30 0 -42 28q-3 8 -3 17z" />
    <glyph glyph-name="si_Ya" unicode="&#xdba;" horiz-adv-x="621" 
d="M29 181q0 110 76 165q48 34 113 34q10 0 27 -2v-28q-17 3 -31 3q-81 0 -122 -61q-23 -34 -23 -74q0 -79 62 -109q25 -12 57 -12q61 0 88 35q12 17 12 36v26h26v-25q0 -47 61 -65q24 -7 50 -7q89 0 107 68q3 14 3 28q-2 98 -137 99q-44 0 -84 -11q-1 8 -1 22q0 99 89 117
q18 3 38 3q84 0 102 -51q3 -11 3 -23q0 -36 -30 -51q-4 -1 -6 -2q63 -37 69 -120v-13q0 -90 -64 -136q-38 -28 -88 -28q-95 1 -126 70q-34 -69 -118 -70q-93 0 -133 84q-20 44 -20 98zM343 312q21 5 57 5q54 0 84 -10q21 11 22 35q0 30 -41 41q-12 3 -25 3q-90 0 -97 -68v-6
z" />
    <glyph glyph-name="si_Ra" unicode="&#xdbb;" horiz-adv-x="515" 
d="M30 208q1 142 140 200q15 6 45 17q107 39 164 80q2 2 4 3q20 15 55 57q25 30 47 30q26 -3 29 -23q0 -43 -81 -87q-1 -1 -2 -1q-67 -37 -147 -60q74 -2 132 -63l4 -4q51 -58 51 -137q0 -100 -75 -165q-64 -55 -154 -55q-105 0 -167 75q-45 57 -45 133zM69 239
q0 -79 64 -118q41 -24 96 -24q98 0 149 67q32 42 32 99q0 87 -75 122q-34 16 -79 16q-77 0 -136 -53q-50 -47 -51 -109z" />
    <glyph glyph-name="si_La" unicode="&#xdbd;" horiz-adv-x="654" 
d="M30 132q0 -158 127 -233q82 -49 196 -49q123 0 197 73q59 59 59 145v14h-34q4 -8 4 -18q0 -96 -89 -141q-47 -24 -102 -24q-133 0 -204 93q-51 69 -51 169q0 117 86 183q64 49 152 49q150 0 182 -70q8 -17 8 -36q0 -61 -60 -73q-13 -3 -26 -3q-56 0 -80 33q-8 13 -8 26v4
h119v27h-247v-27h99q0 -69 59 -98q26 -12 57 -12q71 0 105 49q18 27 18 60q0 101 -126 135q-52 14 -116 14q-170 0 -259 -101q-66 -75 -66 -189z" />
    <glyph glyph-name="si_Va" unicode="&#xdc0;" 
d="M32 161q0 -107 118 -145q49 -16 111 -16q164 0 234 114q40 65 40 154q0 136 -85 221q-74 74 -180 74q-141 -1 -214 -104h32q67 80 182 80q107 0 172 -85q51 -67 51 -154q0 -133 -109 -181q-51 -22 -120 -22q-144 0 -176 60q-8 15 -8 32q0 56 65 75q26 8 56 8h84v11
q0 107 -81 133q-22 6 -47 6q-67 0 -93 -39q-9 -15 -9 -32q0 -31 29 -36q4 -1 8 -1q28 1 39 33q11 29 36 34q9 2 19 2q39 0 57 -40q9 -19 9 -42v-4h-58q-105 0 -145 -68q-17 -31 -17 -68z" />
    <glyph glyph-name="si_Sha" unicode="&#xdc1;" horiz-adv-x="616" 
d="M33 201q0 -114 65 -169q40 -33 95 -33q86 0 124 66q18 32 18 70q0 85 -58 99q-10 3 -21 3q-12 0 -21 -4q11 66 73 95q28 13 59 13q81 0 122 -80q20 -40 23 -87q-22 6 -41 6q-70 0 -100 -54q-13 -24 -13 -53q0 -46 31 -67q13 -9 28 -9q21 0 45 19q12 9 21 9q10 -2 11 -11
q-1 -7 -4 -13h27q33 42 47 138q4 28 4 52q0 113 -61 180q-47 51 -117 51q-148 0 -182 -197q-3 -19 -5 -37h25q3 16 4 18q10 7 22 7q38 -7 42 -46q0 -49 -57 -66q-20 -5 -40 -5q-81 0 -113 77q-12 31 -12 66q0 91 68 135q39 24 90 24h13v23h-7q-7 1 -9 1q-111 0 -164 -91
q-32 -56 -32 -130zM389 77q0 49 44 69q18 8 38 8q27 0 43 -8v-24q-2 -51 -11 -79q-6 9 -18 10q-9 0 -35 -16q-16 -10 -27 -10q-33 3 -34 50z" />
    <glyph glyph-name="si_Ssa" unicode="&#xdc2;" horiz-adv-x="593" 
d="M30 180q0 -140 170 -172q46 -8 100 -8q153 0 222 75q39 44 39 107q-1 79 -59 114q26 20 26 50q0 42 -42 64q-25 13 -57 13q-90 0 -111 -67q-5 -17 -5 -36q0 -14 3 -30q39 7 69 7q37 0 67 -9q-31 -18 -72 -25q-42 -7 -99 -7q-112 -1 -113 -55q0 -51 97 -58q12 -1 24 -1
q132 1 133 58q-1 28 -32 42q52 10 88 35q38 -24 39 -68q0 -70 -102 -101q-53 -15 -117 -15q-133 0 -191 52q-30 27 -30 63q0 68 90 83q21 4 45 4q17 0 53 -4q4 17 4 35q0 78 -78 94q-17 4 -37 4q-67 0 -91 -38q-9 -14 -9 -30q0 -29 30 -36q5 -1 10 -1q35 1 45 33
q11 32 46 33q38 0 50 -34q4 -11 4 -23q0 -2 -1 -6v-5q-27 2 -36 2q-120 0 -158 -76q-14 -28 -14 -63zM346 329q0 47 47 62q14 4 29 4q53 0 67 -36q3 -8 3 -16q-1 -19 -16 -35q-34 13 -82 13q-24 0 -47 -3q-1 5 -1 11zM198 203q2 32 93 32q101 -1 102 -34q-6 -32 -101 -33
q-93 1 -94 35z" />
    <glyph glyph-name="si_Sa" unicode="&#xdc3;" horiz-adv-x="661" 
d="M50 150q0 -73 54 -118q40 -33 94 -33q93 1 127 81q32 -79 124 -80q103 0 144 76q20 37 20 86q0 68 -49 110q-13 11 -27 18q24 21 28 52q0 63 -68 77q-15 3 -32 3q-74 0 -105 -66q-15 -32 -15 -72v-10q48 9 94 9q126 -1 127 -91q0 -61 -60 -85q-26 -10 -57 -10
q-90 0 -106 50q-3 9 -3 19v25h-27v-25q0 -47 -57 -63q-21 -6 -44 -6q-71 0 -101 47q-12 20 -12 42q0 58 67 81q26 8 52 8h88v14q0 87 -61 119q-27 14 -62 14q-65 0 -92 -38q-11 -15 -11 -33q0 -30 27 -36q5 -1 9 -1q28 1 40 32q14 37 54 38q35 0 55 -37q10 -21 10 -43v-3
h-270v-32q23 4 127 6q-75 -29 -81 -111q-1 -7 -1 -14zM374 303q9 77 85 78q51 0 64 -30q3 -8 3 -15q-1 -22 -15 -37q-31 10 -76 10q-39 0 -61 -6z" />
    <glyph glyph-name="si_Ha" unicode="&#xdc4;" horiz-adv-x="637" 
d="M32 151q0 -88 72 -129q40 -23 92 -23q96 0 139 64q22 35 22 79q0 65 -39 85q-12 6 -25 6q-16 -1 -27 -7q29 108 122 109q83 0 117 -79q15 -36 15 -79q0 -83 -57 -125q-36 -26 -84 -26q-18 0 -35 3v-27q21 -3 40 -3q103 0 163 76q44 57 44 131q0 112 -64 173
q-45 43 -107 43q-80 0 -137 -84q-44 -66 -50 -149l23 -9q10 27 32 28q28 -2 29 -37q0 -51 -65 -68q-23 -6 -47 -6q-84 0 -115 46q-12 19 -12 42q0 61 66 81q25 7 56 7q10 0 33 -2q-1 90 -55 131q-28 20 -63 20q-55 0 -77 -42q-6 -13 -6 -25q0 -32 27 -37q5 -1 8 -1
q28 1 40 29q11 25 37 26q35 0 50 -42q6 -16 6 -34h-11q-94 0 -135 -66q-22 -35 -22 -79z" />
    <glyph glyph-name="si_Lla" unicode="&#xdc5;" horiz-adv-x="621" 
d="M253 394q42 0 63 -40q9 -16 9 -32h30q0 35 35 58q20 13 44 13q64 0 87 -59q8 -21 8 -44h-354q-8 0 -12 -1q5 87 68 102q10 3 22 3zM30 111q0 -140 114 -211q80 -49 191 -49q106 0 187 62q81 65 82 159h-28q-3 -87 -86 -133q-52 -28 -114 -28q-124 0 -199 83
q-60 66 -60 157q0 32 12 59q22 -99 103 -144q44 -24 94 -24q141 0 184 113q3 9 6 19h-29q-41 -58 -154 -58q-96 0 -142 66q-20 30 -26 67q26 15 57 15h340q0 106 -66 143q-27 15 -61 15q-55 0 -85 -40q-6 -7 -9 -14q-30 49 -87 54q-70 0 -107 -62q-21 -35 -24 -81
q-62 -29 -85 -112q-8 -29 -8 -56z" />
    <glyph glyph-name="si_Fa" unicode="&#xdc6;" horiz-adv-x="592" 
d="M32 207q0 111 55 172q39 42 95 42q77 -1 107 -70q31 69 107 70q90 0 129 -99q21 -52 21 -115q0 -104 -53 -165q-39 -42 -93 -43q-19 0 -37 7v26q17 -6 33 -6q66 0 93 74q14 36 14 81q0 115 -69 140q-18 6 -37 6q-79 0 -90 -73q-2 -10 -2 -22v-32h-32v32q0 86 -77 94
q-7 1 -14 1q-83 0 -103 -96q-5 -25 -5 -51q0 -91 50 -133q26 -21 59 -21q16 0 32 6v-26q-19 -7 -37 -7q-84 0 -124 93q-22 53 -22 115z" />
    <glyph glyph-name="si_Halant" unicode="&#xdca;" horiz-adv-x="1" 
d="M-137 340v325q13 -10 71 -38q57 -27 70 -63q6 -16 6 -35q0 -46 -42 -65q-16 -7 -34 -7q-23 0 -44 10v-144zM-110 491q14 -6 32 -6q39 0 47 34q2 7 2 13q0 35 -45 67q-8 6 -36 24v-132z" />
    <glyph glyph-name="si_MatraAa" unicode="&#xdcf;" horiz-adv-x="297" 
d="M15 107q0 15 1 22h26q-1 -6 -1 -15q0 -60 45 -66q4 -1 9 -1q69 2 69 149q-1 149 -69 150q-34 0 -48 -35q-6 -15 -6 -33q0 -9 1 -14h-26q-1 8 -1 21q0 66 55 96q25 13 53 13q105 0 128 -127q6 -33 6 -71q0 -171 -103 -194q-15 -3 -31 -3q-73 0 -98 59q-10 22 -10 49z" />
    <glyph glyph-name="si_MatraAe" unicode="&#xdd0;" horiz-adv-x="326" 
d="M3 305v26h240q-2 -4 -3 -17q-81 -122 -81 -249q0 -102 66 -138q15 -8 31 -11q22 -3 39 -1l4 -19q-36 -40 -101 -40q-81 0 -114 77q-16 37 -16 83q1 142 137 289h-202z" />
    <glyph glyph-name="si_MatraAae" unicode="&#xdd1;" horiz-adv-x="328" 
d="M4 307v24h239v-21l-124 -92h147v-22q-89 -65 -98 -156q-1 -9 -1 -18q0 -85 72 -113q27 -10 60 -10v-25q-41 -19 -84 -19q-96 0 -129 71q-12 27 -12 60q1 109 152 207h-156v21l127 93h-193z" />
    <glyph glyph-name="si_MatraI" unicode="&#xdd2;" horiz-adv-x="1" 
d="M-532 506q0 95 110 132q52 17 116 17q133 0 193 -63q34 -36 34 -86q0 -75 -82 -101q-27 -8 -58 -9v21q83 5 92 57q1 6 1 11q0 66 -150 73q-15 1 -30 1q-160 0 -180 -59q-2 -8 -2 -15q0 -49 63 -64q16 -3 32 -4v-21q-98 4 -128 63q-11 22 -11 47z" />
    <glyph glyph-name="si_MatraIi" unicode="&#xdd3;" horiz-adv-x="1" 
d="M-244 502q0 -32 34 -48q14 -7 30 -7q40 0 58 31q6 12 6 24q0 32 -34 48q-14 7 -30 7q-40 0 -58 -31q-6 -12 -6 -24zM-573 505q0 90 110 129q60 21 135 21q126 0 197 -52q49 -37 50 -91q0 -55 -49 -81q-23 -12 -50 -12q-58 0 -84 45q-11 19 -11 39q1 39 35 63q-31 6 -92 6
q-137 0 -183 -50q-17 -19 -17 -42q2 -49 53 -63l-6 -21q-56 5 -79 60q-9 23 -9 49z" />
    <glyph glyph-name="si_MatraU" unicode="&#xdd4;" horiz-adv-x="1" 
d="M-580 -143q0 56 49 82q23 11 49 11q67 -1 92 -57l-30 -12q-20 37 -60 40q-42 0 -60 -34q-6 -13 -6 -27q2 -51 83 -52h375v317l33 89v-443h-419q-81 0 -101 56q-5 15 -5 30z" />
    <glyph glyph-name="si_MatraUu" unicode="&#xdd6;" horiz-adv-x="1" 
d="M-568 -141q0 56 49 83q23 13 50 13q64 -1 95 -50l-30 -10q-22 31 -60 32q-44 0 -61 -33q-5 -11 -5 -22q0 -40 43 -51q12 -3 24 -3q37 0 120 31q84 32 135 32q68 0 111 -42q4 -5 7 -8v312l33 58v-432h-23q-21 48 -69 72q-26 12 -53 12q-43 0 -119 -41t-115 -47
q-13 -2 -24 -2q-66 0 -94 45q-14 23 -14 51z" />
    <glyph glyph-name="si_MatraR" unicode="&#xdd8;" horiz-adv-x="305" 
d="M32 243v-7h25v4q0 86 49 101q9 2 17 2q55 -2 55 -127q-45 0 -81 -15q-64 -30 -65 -97q0 -55 39 -87q23 -18 51 -18q17 0 50 15q7 3 11 3q10 -2 15 -14h47q-1 7 -1 19q0 11 6 59q10 83 10 117q0 133 -66 172q-23 14 -52 14q-77 0 -101 -79q-9 -29 -9 -62zM62 104
q1 59 58 77q27 8 58 8v-8v-25q-1 -27 -1 -44q0 -59 5 -72q-4 1 -8 1q-3 -1 -10 -4q-24 -9 -40 -9q-41 0 -57 45q-5 15 -5 31z" />
    <glyph glyph-name="si_MatraE" unicode="&#xdd9;" horiz-adv-x="606" 
d="M224 252q0 -29 31 -42q12 -4 23 -4q34 0 48 27q5 10 5 19q0 29 -31 41q-11 4 -22 4q-35 0 -49 -27q-5 -9 -5 -18zM32 207q0 105 95 168q72 47 167 47q127 0 208 -79q60 -60 68 -142h-29q-16 100 -106 155q-63 38 -141 38q-105 0 -166 -58q-42 -40 -42 -93q0 -74 67 -117
q48 -30 110 -30q100 0 144 51q22 27 22 60q0 51 -52 76q-15 8 -32 11q19 -20 19 -46q0 -45 -47 -64q-19 -8 -39 -8q-48 0 -74 36q-13 18 -13 38q0 47 51 68q23 9 49 9q107 0 158 -66q30 -38 30 -93q0 -96 -86 -140q-54 -28 -130 -28q-119 0 -184 76q-47 55 -47 131z" />
    <glyph glyph-name="si_MatraEe" unicode="&#xdda;" horiz-adv-x="950" 
d="M224 252q0 -29 31 -42q12 -4 23 -4q34 0 48 27q5 10 5 19q0 29 -31 41q-11 4 -22 4q-35 0 -49 -27q-5 -9 -5 -18zM32 207q0 105 95 168q72 47 167 47q127 0 208 -79q60 -60 68 -142h-29q-16 100 -106 155q-63 38 -141 38q-105 0 -166 -58q-42 -40 -42 -93q0 -74 67 -117
q48 -30 110 -30q100 0 144 51q22 27 22 60q0 51 -52 76q-15 8 -32 11q19 -20 19 -46q0 -45 -47 -64q-19 -8 -39 -8q-48 0 -74 36q-13 18 -13 38q0 47 51 68q23 9 49 9q107 0 158 -66q30 -38 30 -93q0 -96 -86 -140q-54 -28 -130 -28q-119 0 -184 76q-47 55 -47 131zM753 340
v325q13 -10 71 -38q57 -27 70 -63q6 -16 6 -35q0 -46 -42 -65q-16 -7 -34 -7q-23 0 -44 10v-144zM780 491q14 -6 32 -6q39 0 47 34q2 7 2 13q0 35 -45 67q-8 6 -36 24v-132z" />
    <glyph glyph-name="si_MatraAi" unicode="&#xddb;" horiz-adv-x="1180" 
d="M224 252q0 -29 31 -42q12 -4 23 -4q34 0 48 27q5 10 5 19q0 29 -31 41q-11 4 -22 4q-35 0 -49 -27q-5 -9 -5 -18zM32 207q0 105 95 168q72 47 167 47q127 0 208 -79q60 -60 68 -142h-29q-16 100 -106 155q-63 38 -141 38q-105 0 -166 -58q-42 -40 -42 -93q0 -74 67 -117
q48 -30 110 -30q100 0 144 51q22 27 22 60q0 51 -52 76q-15 8 -32 11q19 -20 19 -46q0 -45 -47 -64q-19 -8 -39 -8q-48 0 -74 36q-13 18 -13 38q0 47 51 68q23 9 49 9q107 0 158 -66q30 -38 30 -93q0 -96 -86 -140q-54 -28 -130 -28q-119 0 -184 76q-47 55 -47 131zM796 252
q0 -29 31 -42q12 -4 23 -4q34 0 48 27q5 10 5 19q0 29 -31 41q-11 4 -22 4q-35 0 -49 -27q-5 -9 -5 -18zM604 207q0 105 95 168q72 47 167 47q126 0 207 -78q61 -60 69 -143h-29q-16 100 -106 155q-63 38 -141 38q-105 0 -166 -58q-42 -40 -42 -93q0 -74 67 -117
q48 -30 110 -30q100 0 144 51q22 27 22 60q0 51 -52 76q-15 8 -32 11q19 -20 19 -46q0 -45 -47 -64q-19 -8 -39 -8q-48 0 -74 36q-13 18 -13 38q0 47 51 68q23 9 49 9q107 0 158 -66q30 -38 30 -93q0 -96 -86 -140q-54 -28 -130 -28q-119 0 -184 76q-47 55 -47 131z" />
    <glyph glyph-name="si_MatraO" unicode="&#xddc;" horiz-adv-x="1164" 
d="M224 252q0 -29 31 -42q12 -4 23 -4q34 0 48 27q5 10 5 19q0 29 -31 41q-11 4 -22 4q-35 0 -49 -27q-5 -9 -5 -18zM32 207q0 105 95 168q72 47 167 47q127 0 208 -79q60 -60 68 -142h-29q-16 100 -106 155q-63 38 -141 38q-105 0 -166 -58q-42 -40 -42 -93q0 -74 67 -117
q48 -30 110 -30q100 0 144 51q22 27 22 60q0 51 -52 76q-15 8 -32 11q19 -20 19 -46q0 -45 -47 -64q-19 -8 -39 -8q-48 0 -74 36q-13 18 -13 38q0 47 51 68q23 9 49 9q107 0 158 -66q30 -38 30 -93q0 -96 -86 -140q-54 -28 -130 -28q-119 0 -184 76q-47 55 -47 131zM865 107
q0 15 1 22h26q-1 -6 -1 -15q0 -60 45 -66q4 -1 9 -1q69 2 69 149q-1 149 -69 150q-34 0 -48 -35q-6 -15 -6 -33q0 -9 1 -14h-26q-1 8 -1 21q0 66 55 96q25 13 53 13q105 0 128 -127q6 -33 6 -71q0 -171 -103 -194q-15 -3 -31 -3q-73 0 -98 59q-10 22 -10 49z" />
    <glyph glyph-name="si_MatraOo" unicode="&#xddd;" horiz-adv-x="1068" 
d="M224 252q0 28 31 41q12 4 23 4q35 0 49 -28q4 -9 4 -17q0 -29 -30 -41q-11 -5 -23 -5q-35 0 -49 28q-5 8 -5 18zM32 207q0 -108 87 -167q61 -40 144 -40q139 0 192 83q24 37 24 85q0 96 -86 138q-45 21 -102 21q-64 0 -90 -41q-10 -16 -10 -36q0 -42 44 -64
q21 -10 43 -10q50 0 75 35q11 17 11 37q-1 27 -19 46q58 -11 77 -56q7 -15 7 -31q0 -69 -81 -97q-38 -14 -85 -14q-96 0 -147 63q-30 38 -30 84q0 77 80 120q56 31 128 31q117 0 190 -78q46 -49 57 -115h29q-10 108 -105 172q-74 49 -171 49q-119 0 -196 -70
q-65 -60 -66 -145zM721 107q0 -75 61 -99q22 -9 47 -9q106 0 128 128q6 32 6 69q-1 137 -68 180v91q21 -10 44 -10q48 0 68 39q8 15 8 33q0 56 -58 89q-11 6 -35 16q-39 19 -55 31v-276q-21 5 -38 5q-61 0 -92 -49q-16 -27 -16 -60q0 -14 1 -21h27q-1 6 -1 14q0 51 37 65
q9 3 17 3q68 -2 68 -150q-1 -148 -68 -149q-47 0 -53 53q-1 7 -1 14q0 10 1 15h-27q-1 -8 -1 -22zM895 491v132q54 -36 67 -52q13 -18 13 -39q0 -37 -34 -45q-7 -2 -15 -2q-19 0 -31 6z" />
    <glyph glyph-name="si_MatraAu" unicode="&#xdde;" horiz-adv-x="1102" 
d="M224 252q0 28 31 41q12 4 23 4q35 0 49 -28q4 -9 4 -17q0 -29 -30 -41q-11 -5 -23 -5q-35 0 -49 28q-5 8 -5 18zM32 207q0 -108 87 -167q61 -40 144 -40q139 0 192 83q24 37 24 85q0 96 -86 138q-45 21 -102 21q-64 0 -90 -41q-10 -16 -10 -36q0 -42 44 -64
q21 -10 43 -10q50 0 75 35q11 17 11 37q-1 27 -19 46q58 -11 77 -56q7 -15 7 -31q0 -69 -81 -97q-38 -14 -85 -14q-96 0 -147 63q-30 38 -30 84q0 77 80 120q56 31 128 31q117 0 190 -78q46 -49 57 -115h29q-10 108 -105 172q-74 49 -171 49q-119 0 -196 -70
q-65 -60 -66 -145zM692 313q0 -65 47 -93q22 -13 48 -13q64 0 81 46q5 14 5 28q-1 35 -36 55v7q2 46 45 47q61 0 65 -140v-18q0 -179 -61 -191q-5 -1 -10 -1q-49 0 -62 53q-3 14 -3 29t3 31h-26q-4 -17 -4 -36q0 -77 55 -107q25 -12 55 -12q103 0 137 115q13 45 13 102
q0 124 -60 178q-34 29 -81 29q-75 0 -91 -57q-3 -12 -3 -24q0 -8 1 -12q20 -22 20 -46q0 -40 -35 -46q-6 -1 -11 -1q-44 0 -58 46q-5 15 -5 32q1 68 42 104h-35q-36 -40 -36 -105z" />
    <glyph glyph-name="si_MatraLs" unicode="&#xddf;" horiz-adv-x="430" 
d="M32 313q0 -65 47 -93q22 -13 48 -13q64 0 81 46q5 14 5 28q-1 35 -36 55v7q2 46 45 47q61 0 65 -140v-18q0 -179 -61 -191q-5 -1 -10 -1q-49 0 -62 53q-3 13 -3 29q0 15 3 31h-26q-4 -17 -4 -36q0 -77 55 -107q25 -12 55 -12q103 0 137 115q13 46 13 102q0 124 -60 178
q-34 29 -81 29q-75 0 -91 -57q-3 -12 -3 -24q0 -8 1 -12q20 -22 20 -46q0 -40 -35 -46q-6 -1 -11 -1q-44 0 -58 46q-5 15 -5 32q1 68 42 104h-35q-36 -40 -36 -105z" />
    <glyph glyph-name="si_MatraRr" unicode="&#xdf2;" horiz-adv-x="557" 
d="M32 243v-7h25v4q0 86 49 101q9 2 17 2q55 -2 55 -127q-45 0 -81 -15q-64 -30 -65 -97q0 -55 39 -87q23 -18 51 -18q17 0 50 15q7 3 11 3q10 -2 15 -14h47q-1 7 -1 19q0 11 6 59q10 83 10 117q0 133 -66 172q-23 14 -52 14q-77 0 -101 -79q-9 -29 -9 -62zM62 104
q1 59 58 77q27 8 58 8v-8v-25q-1 -27 -1 -44q0 -59 5 -72q-4 1 -8 1q-3 -1 -10 -4q-24 -9 -40 -9q-41 0 -57 45q-5 15 -5 31zM283 243v-7h25v4q0 86 49 101q9 2 17 2q55 -2 55 -127q-47 0 -81 -15q-64 -30 -65 -97q0 -56 38 -87q22 -18 51 -18q17 0 50 15q7 3 11 3
q10 -2 15 -14h47q-1 7 -1 19q0 11 6 59q11 83 11 117q0 129 -64 171q-24 15 -55 15q-76 0 -100 -79q-9 -29 -9 -62zM313 104q1 59 58 77q25 8 58 8v-8v-25q-1 -27 -1 -44q0 -62 5 -72q-4 1 -9 1q-3 -1 -10 -4q-24 -9 -40 -9q-39 0 -55 43q-6 17 -6 33z" />
    <glyph glyph-name="si_MatraLl" unicode="&#xdf3;" horiz-adv-x="430" 
d="M32 313q0 -65 47 -93q22 -13 48 -13q64 0 81 46q5 14 5 28q-1 35 -36 55v7q2 46 45 47q61 0 65 -140v-18q0 -179 -61 -191q-5 -1 -10 -1q-49 0 -62 53q-3 13 -3 29q0 15 3 31h-26q-4 -17 -4 -36q0 -77 55 -107q25 -12 55 -12q103 0 137 115q13 46 13 102q0 124 -60 178
q-34 29 -81 29q-75 0 -91 -57q-3 -12 -3 -24q0 -8 1 -12q20 -22 20 -46q0 -40 -35 -46q-6 -1 -11 -1q-44 0 -58 46q-5 15 -5 32q1 68 42 104h-35q-36 -40 -36 -105z" />
    <glyph glyph-name="si_kundaliya" unicode="&#xdf4;" horiz-adv-x="1701" 
d="M1259 42l25 89l-145 -90l28 131l-150 -99l16 160l-154 -145l-13 171l-131 -144l-30 141l-127 -144l-27 110l-110 -147l-29 84l-60 -104q-19 31 -38 32q-29 0 -78 -37q-54 -42 -87 -49q-13 -3 -26 -3q-49 0 -67 38q-6 14 -6 30q0 43 34 57q10 4 21 4q36 0 49 -34
q3 -10 3 -19q-1 -25 -16 -40q7 -4 14 -4q28 0 84 48q55 46 77 52q7 2 12 2q24 -1 34 -18l80 138l35 -97l123 165l29 -118l134 154l30 -146l145 165l13 -188l171 158l-23 -190l161 104l-32 -138l140 89l-30 -86q15 8 30 8q26 0 81 -47t80 -53q6 -2 12 -2q11 1 15 4
q-17 15 -17 40q0 32 28 47q12 6 25 6q38 0 51 -37q4 -12 4 -24q0 -49 -45 -64q-14 -4 -28 -4q-44 0 -105 44q-52 38 -75 45q-12 3 -22 3q-51 -1 -113 -48z" />
    <glyph glyph-name="zwnj" unicode="&#x200c;" horiz-adv-x="0" 
d="M-28 1v750h56v-750h-56z" />
    <glyph glyph-name="zwj" unicode="&#x200d;" horiz-adv-x="0" 
d="M37 640l122 -120l-38 -38l-93 94v-574h-56v574l-93 -94l-38 38l122 120l-122 119l38 36l121 -121l121 121l38 -36z" />
    <glyph glyph-name="short_dash2" unicode="&#x2010;" horiz-adv-x="325" 
d="M43 231h217v-44h-217v44z" />
    <glyph glyph-name="endash" unicode="&#x2013;" horiz-adv-x="651" 
d="M80 198h492v42h-492v-42z" />
    <glyph glyph-name="emdash" unicode="&#x2014;" horiz-adv-x="851" 
d="M80 198h692v42h-692v-42z" />
    <glyph glyph-name="quoteleft" unicode="&#x2018;" horiz-adv-x="191" 
d="M151 497q0 39 -38 52q-5 2 -9 3q-23 7 -24 21q1 29 42 72l-21 15q-61 -63 -68 -135q-1 -8 -1 -14q0 -58 44 -71q9 -2 19 -2q35 0 50 33q6 13 6 26z" />
    <glyph glyph-name="quoteright" unicode="&#x2019;" horiz-adv-x="211" 
d="M159 581q0 58 -44 71q-9 2 -19 2q-35 0 -50 -33q-6 -12 -6 -26q0 -36 35 -51q7 -3 12 -4q23 -6 24 -20q-1 -29 -42 -72l21 -16q61 63 68 135q1 8 1 14z" />
    <glyph glyph-name="quotesinglbase" unicode="&#x201a;" horiz-adv-x="169" 
d="M143 46q0 52 -40 66q-10 4 -21 4q-36 0 -50 -33q-4 -11 -4 -23q0 -36 35 -50q5 -2 10 -3q23 -8 24 -20q-1 -23 -31 -59l21 -14q54 65 56 132z" />
    <glyph glyph-name="quotedblleft" unicode="&#x201c;" horiz-adv-x="313" 
d="M29 511q0 -56 41 -69q10 -3 20 -3q35 0 50 33q5 13 5 25q0 38 -37 51q-5 2 -9 3q-23 6 -24 20q1 28 42 70l-21 15q-61 -64 -67 -134v-11zM171 511q0 -56 41 -69q10 -3 20 -3q35 0 50 33q5 13 5 25q0 38 -37 51q-5 2 -9 3q-22 6 -23 20q1 29 41 70l-21 15
q-61 -64 -67 -134v-11z" />
    <glyph glyph-name="quotedblright" unicode="&#x201d;" horiz-adv-x="318" 
d="M287 560q0 56 -41 69q-10 3 -20 3q-35 0 -50 -33q-5 -13 -5 -25q0 -38 37 -51q5 -2 9 -3q23 -6 24 -20q-1 -28 -42 -70l21 -15q61 64 67 134v11zM145 560q0 56 -41 69q-10 3 -20 3q-35 0 -50 -33q-5 -13 -5 -25q0 -38 37 -51q4 -2 9 -3q22 -6 23 -20q-1 -29 -41 -70
l21 -15q61 64 67 134v11z" />
    <glyph glyph-name="quotedblbase" unicode="&#x201e;" horiz-adv-x="316" 
d="M287 45q0 56 -41 69q-9 3 -20 3q-35 0 -50 -33q-5 -13 -5 -25q0 -38 37 -51q5 -2 9 -3q23 -6 24 -20q-1 -28 -42 -70l21 -15q61 64 67 134v11zM145 45q0 56 -41 69q-9 3 -20 3q-35 0 -50 -33q-5 -13 -5 -25q0 -38 37 -51q5 -2 9 -3q22 -6 23 -20q-1 -29 -41 -70l21 -15
q61 64 67 134v11z" />
    <glyph glyph-name="dagger" unicode="&#x2020;" horiz-adv-x="464" 
d="M232 549q-42 -2 -43 -38q0 -10 18 -75q9 -33 13 -57q-20 3 -100 24q-23 6 -34 6q-34 -5 -37 -41q2 -40 38 -41q9 0 80 18q37 10 64 13q23 -2 108 -24q27 -7 39 -7q34 5 37 40q-7 37 -38 42q-10 0 -79 -18q-31 -9 -54 -12q2 19 24 99q6 23 6 34q-2 36 -42 37zM232 329
q-41 0 -47 -36q-1 -5 -1 -10q0 -13 13 -94q16 -106 22 -268h26q6 168 29 314q5 30 5 49q-7 41 -47 45z" />
    <glyph glyph-name="daggerdbl" unicode="&#x2021;" horiz-adv-x="460" 
d="M230 549q-42 -2 -43 -38q0 -10 18 -75q9 -33 13 -57q-20 2 -100 24q-23 6 -34 6q-34 -5 -37 -41q2 -40 38 -41q9 0 80 18q37 10 64 13q23 -2 108 -24q27 -7 39 -7q34 5 37 40q-7 37 -38 42q-10 0 -79 -18q-31 -9 -54 -12q2 19 24 99q6 23 6 34q-2 36 -42 37zM229 -68
q42 2 43 38q0 10 -18 76q-9 32 -12 56q16 -2 100 -24q23 -6 34 -6q34 5 37 41q-5 38 -38 41q-10 0 -80 -18q-37 -10 -64 -13q-23 2 -108 24q-27 7 -39 7q-34 -5 -37 -40q4 -40 38 -42q9 0 77 18q32 9 56 12q-2 -16 -24 -98q-6 -23 -6 -35q3 -35 41 -37zM287 240q0 36 -32 52
q-12 6 -25 6q-36 0 -51 -33q-5 -13 -5 -25q0 -36 32 -51q11 -6 24 -6q36 0 51 32q6 12 6 25z" />
    <glyph glyph-name="bullet" unicode="&#x2022;" horiz-adv-x="359" 
d="M277 228q0 54 -46 83q-24 15 -52 15q-55 0 -83 -46q-14 -24 -14 -52q0 -54 46 -83q24 -14 51 -14q53 0 82 45q16 24 16 52z" />
    <glyph glyph-name="ellipsis" unicode="&#x2026;" horiz-adv-x="598" 
d="M362 54q0 36 -32 53q-13 7 -27 7q-37 0 -53 -34q-6 -13 -6 -26q0 -38 34 -54q12 -5 25 -5q36 0 53 33q6 13 6 26zM557 54q0 36 -32 53q-13 7 -27 7q-37 0 -53 -34q-6 -13 -6 -26q0 -38 34 -54q12 -5 25 -5q36 0 53 33q6 13 6 26zM166 54q0 36 -32 53q-13 7 -27 7
q-37 0 -53 -34q-6 -13 -6 -26q0 -38 34 -54q12 -5 25 -5q36 0 53 33q6 13 6 26z" />
    <glyph glyph-name="perthousand" unicode="&#x2030;" horiz-adv-x="1191" 
d="M975 332q-90 0 -135 -69q-27 -43 -27 -100q0 -105 74 -150q38 -23 85 -23q91 0 135 70q27 43 27 100q0 111 -79 153q-36 19 -80 19zM974 10q-49 0 -62 62q-7 33 -7 88q0 124 41 145q12 6 27 6q48 0 61 -60q7 -34 7 -88q0 -138 -52 -151q-8 -2 -15 -2zM198 -31l434 641
l-32 21l-435 -641zM214 621q-90 0 -135 -69q-27 -43 -27 -100q0 -105 74 -150q38 -23 85 -23q91 0 135 70q27 43 27 100q0 111 -79 153q-36 19 -80 19zM213 299q-49 0 -62 62q-7 32 -7 88q0 124 41 145q12 6 27 6q48 0 61 -60q7 -34 7 -88q0 -138 -52 -151q-8 -2 -15 -2z
M601 332q-90 0 -135 -69q-27 -43 -27 -100q0 -105 74 -150q38 -23 85 -23q91 0 135 70q27 43 27 100q0 111 -79 153q-36 19 -80 19zM600 10q-49 0 -62 62q-7 33 -7 88q0 124 41 145q12 6 27 6q48 0 61 -60q7 -34 7 -88q0 -138 -52 -151q-8 -2 -15 -2z" />
    <glyph glyph-name="guilsinglleft" unicode="&#x2039;" horiz-adv-x="253" 
d="M231 378l-21 17q-28 -32 -131 -119q-34 -28 -44 -39q-14 -16 -14 -32q1 -19 14 -34q7 -8 93 -79q57 -47 85 -77l19 17q-12 18 -39 60q-54 83 -74 113q22 32 74 114q26 41 38 59z" />
    <glyph glyph-name="guilsinglright" unicode="&#x203a;" horiz-adv-x="253" 
d="M22 378l21 17q28 -32 131 -119q34 -28 44 -39q14 -16 14 -32q-1 -19 -14 -34q-7 -8 -93 -79q-57 -47 -85 -77l-19 17q12 18 39 60q54 83 74 113q-22 32 -74 114q-26 41 -38 59z" />
    <glyph glyph-name="fraction" unicode="&#x2044;" horiz-adv-x="147" 
d="M-117 -31l434 641l-32 21l-435 -641z" />
    <glyph glyph-name="Euro" unicode="&#x20ac;" horiz-adv-x="609" 
d="M564 106q0 36 -33 48q-10 3 -20 3q-43 0 -58 -39q-3 -7 -8 -22q-14 -47 -35 -62q-24 -15 -63 -15q-128 0 -140 229v2h211l9 29h-221v20v30h232l9 29h-239q10 181 97 214q23 9 52 9q66 0 84 -49q4 -9 8 -27q10 -42 28 -53q14 -9 36 -9q41 0 50 40q1 8 1 15q0 51 -63 84
q-53 28 -126 28q-169 0 -245 -131q-32 -54 -42 -121h-71l-9 -29h76q-1 -13 -1 -35v-15h-66l-9 -29h77q15 -138 107 -209q67 -51 160 -51q142 0 194 68q18 23 18 48z" />
    <glyph glyph-name="uni20BA" unicode="&#x20ba;" horiz-adv-x="576" 
d="M245 0q164 0 242 105q41 56 41 117q-1 76 -53 77q-43 0 -52 -47q-3 -15 -5 -52q-3 -83 -25 -116q-38 -58 -142 -58h-14v287l203 75v31l-203 -75v51l203 75v31l-203 -76v149h78v26h-262v-26h77v-188l-101 -38v-30l101 37v-51l-101 -37v-30l101 37v-248h-77v-26h192z" />
    <glyph glyph-name="uni20BD" unicode="&#x20bd;" horiz-adv-x="582" 
d="M337 0q0 23 -13 25q-5 1 -11 1h-96v160h147v29h-147v50h86q170 0 219 101q16 33 16 74q0 97 -85 138q-47 22 -112 22h-312v-26h81v-280h-81v-29h81v-50h-81v-29h81v-160h-81v-26h308zM306 574q90 0 110 -91q5 -22 5 -47q-6 -139 -127 -142h-77v280h89z" />
    <glyph glyph-name="uni2113" unicode="&#x2113;" horiz-adv-x="380" 
d="M211 -13q102 2 134 107l-23 9q-33 -85 -88 -86q-50 0 -63 70q-5 31 -5 75v57q149 69 177 155q7 23 7 48q0 82 -67 116q-30 15 -65 15q-99 0 -133 -82q-14 -34 -14 -78v-183l-27 -9l-24 -9l7 -27q30 10 44 16q1 -193 140 -194zM166 392q0 115 31 131q8 4 17 4q36 0 40 -71
q1 -13 1 -27q0 -84 -14 -113q-19 -36 -75 -65v141z" />
    <glyph glyph-name="trademark" unicode="&#x2122;" horiz-adv-x="575" 
d="M194 362q-2 14 -14 15h-22v209h4q4 0 8 -0.5t7 -1t6 -2.5l4.5 -3t4 -4t3.5 -4t2.5 -5t2 -4.5t2.5 -5.5l2 -5l13 -36h15l-2 85h-209l-2 -85h14l14 36q10 25 20 30q9 5 22 5h3v-209h-35v-15h137zM394 358l76 198v-179h-28v-15h114q-2 14 -14 15h-11v209h25v14h-87l-64 -164
l-82 164h-72v-14h26v-209h-26v-15h76q-2 14 -14 15h-17v141l85 -160h13z" />
    <glyph glyph-name="uni2126" unicode="&#x2126;" horiz-adv-x="695" 
d="M621 329q0 138 -85 218q-72 67 -184 67q-152 0 -228 -110q-51 -74 -51 -172q0 -121 88 -204q37 -34 84 -55h-95q-45 0 -59 20q-8 11 -13 27l-16 52h-21l2 -172h253v66q-79 44 -98 198q-5 38 -5 78q0 191 98 235q26 12 58 12q144 0 151 -230v-22q0 -172 -68 -245
q-16 -16 -33 -26v-66h253l1 172h-21l-15 -52q-12 -38 -42 -45q-12 -2 -31 -2h-88q109 49 149 160q16 47 16 96z" />
    <glyph glyph-name="estimated" unicode="&#x212e;" horiz-adv-x="747" 
d="M186 91v245h525q0 166 -122 253q-87 61 -201 61q-177 0 -273 -123q-69 -90 -69 -209q0 -154 104 -246q93 -82 229 -82q141 0 249 81q20 15 36 31l-24 22q-78 -79 -198 -99q-31 -5 -60 -5q-116 1 -196 71zM570 561v-193h-384v180q80 72 203 72q107 -1 181 -59z" />
    <glyph glyph-name="partialdiff" unicode="&#x2202;" horiz-adv-x="523" 
d="M477 355q0 150 -89 217q-52 38 -121 38q-70 -1 -140 -42l16 -26q62 39 115 39q80 0 110 -86q14 -40 14 -92q0 -34 -8 -77q-48 57 -121 57q-106 0 -168 -78q-49 -62 -49 -146q0 -93 71 -140q44 -29 104 -29q131 0 206 125q60 101 60 240zM141 141q0 141 66 194
q26 21 56 21q58 0 78 -69q8 -28 8 -62q0 -114 -57 -176q-33 -33 -72 -34q-67 0 -77 94q-2 15 -2 32z" />
    <glyph glyph-name="uni2206" unicode="&#x2206;" horiz-adv-x="541" 
d="M539 0l-249 600h-52l-235 -600h536zM400 62h-328l161 417z" />
    <glyph glyph-name="product" unicode="&#x220f;" horiz-adv-x="594" 
d="M264 -130q0 23 -13 25q-5 1 -11 1h-42v678h196v-678h-63v-26h251q0 23 -13 25q-6 1 -12 1h-56v678h81v26h-569v-26h77v-678h-77v-26h251z" />
    <glyph glyph-name="summation" unicode="&#x2211;" horiz-adv-x="472" 
d="M465 -130v197h-23l-19 -62q-13 -41 -56 -49q-17 -3 -45 -3h-245l266 319h-1l-211 301h172q64 0 89 -31q15 -21 27 -61l15 -50h21l12 169h-462v-22l251 -356l-251 -302v-50h460z" />
    <glyph glyph-name="minus" unicode="&#x2212;" horiz-adv-x="460" 
d="M422 215v38h-383v-38h383z" />
    <glyph glyph-name="uni2215" unicode="&#x2215;" horiz-adv-x="147" 
d="M-117 -31l434 641l-32 21l-435 -641z" />
    <glyph glyph-name="uni2219" unicode="&#x2219;" horiz-adv-x="359" 
d="M277 228q0 54 -46 83q-24 15 -52 15q-55 0 -83 -46q-14 -24 -14 -52q0 -54 46 -83q24 -14 51 -14q53 0 82 45q16 24 16 52z" />
    <glyph glyph-name="radical" unicode="&#x221a;" horiz-adv-x="449" 
d="M162 437l-174 -75l10 -27l86 37l96 -307q17 -57 46 -67q12 -3 28 -3h33l187 727l-37 8l-167 -649z" />
    <glyph glyph-name="infinity" unicode="&#x221e;" horiz-adv-x="682" 
d="M514 171q82 0 117 69q17 32 17 69q0 73 -54 112q-36 24 -84 24q-72 0 -147 -80q-12 -12 -27 -29q-84 109 -168 109q-82 0 -117 -69q-17 -32 -17 -69q0 -73 54 -112q36 -24 84 -24q75 0 154 86q9 10 19 22q84 -107 169 -108zM168 210q-68 0 -90 58q-8 20 -8 42q0 59 45 86
q24 14 53 14q74 -1 148 -97q-61 -72 -99 -91q-25 -12 -49 -12zM514 206q-77 1 -149 96q62 73 101 92q24 12 48 12q68 0 90 -60q7 -19 7 -40q0 -61 -46 -87q-23 -13 -51 -13z" />
    <glyph glyph-name="integral" unicode="&#x222b;" horiz-adv-x="372" 
d="M250 107q0 70 -17 292q-8 106 -8 174q3 100 41 103q21 0 27 -33q8 -45 13 -54q13 -22 43 -23q38 0 49 34q2 8 2 16q0 52 -50 75q-25 11 -58 11q-100 0 -137 -120q-25 -83 -25 -225q0 -65 16 -312q6 -98 6 -158q0 -140 -42 -149q-4 -1 -7 -1q-24 0 -27 34q-5 45 -7 49
q-11 30 -47 31q-39 0 -48 -36q-2 -8 -2 -16q0 -49 47 -73q26 -13 59 -13q105 0 144 134q28 95 28 260z" />
    <glyph glyph-name="approxequal" unicode="&#x2248;" horiz-adv-x="490" 
d="M160 386q40 0 109 -38q56 -31 82 -31q53 2 78 71l25 -7q-16 -91 -78 -118q-20 -9 -41 -9q-39 0 -110 37q-59 31 -87 31q-53 -2 -77 -70l-25 7q18 95 85 120q19 7 39 7zM160 224q40 0 109 -38q56 -31 82 -31q53 2 78 70l25 -7q-16 -91 -79 -118q-20 -8 -40 -8
q-39 0 -110 37q-59 31 -87 31q-53 -2 -77 -71l-25 7q18 93 83 120q20 8 41 8z" />
    <glyph glyph-name="notequal" unicode="&#x2260;" horiz-adv-x="460" 
d="M422 160v38h-189l29 72h160v38h-145l48 122h-36l-48 -122h-202v-38h187l-29 -72h-158v-38h143l-45 -115h36l45 115h204z" />
    <glyph glyph-name="lessequal" unicode="&#x2264;" horiz-adv-x="457" 
d="M415 157l-310 107l311 107l-13 33l-364 -127v-30l363 -125zM412 45v36h-373v-36h373z" />
    <glyph glyph-name="greaterequal" unicode="&#x2265;" horiz-adv-x="459" 
d="M416 249v30l-363 125l-13 -35l310 -107l-311 -107l13 -33zM417 45v36h-372v-36h372z" />
    <glyph glyph-name="lozenge" unicode="&#x25ca;" horiz-adv-x="560" 
d="M264 599l-232 -347l231 -347h34l231 347l-230 347h-34zM479 252l-199 -300l-200 300l201 300z" />
    <glyph glyph-name="dottedcircle" unicode="&#x25cc;" horiz-adv-x="544" 
d="M100 94q3 24 26 25q26 -2 26 -25q-3 -25 -26 -26q-26 2 -26 26zM58 160q3 25 26 26q24 -2 24 -26q-3 -25 -25 -26q-25 2 -25 26zM164 52q3 24 25 25q26 -2 26 -25q-3 -25 -27 -26q-24 2 -24 26zM238 36q3 25 26 26q24 -2 24 -26q-3 -24 -25 -25q-25 2 -25 25zM45 234
q2 25 25 26q26 -2 26 -26q-3 -24 -26 -25q-25 2 -25 25zM61 309q3 25 27 26q23 -2 23 -26q-3 -25 -23 -26q-27 2 -27 26zM315 52q3 24 26 25q25 -2 25 -25q-3 -25 -26 -26q-25 2 -25 26zM105 375q3 24 27 25q26 -2 24 -25q-3 -24 -26 -25q-25 2 -25 25zM381 94q3 24 25 25
q25 -2 25 -25q-3 -25 -26 -26q-24 2 -24 26zM170 418q3 24 26 25q25 -2 25 -25q-3 -25 -26 -26q-25 2 -25 26zM424 160q3 25 26 26q26 -2 26 -26q-3 -25 -28 -26q-24 2 -24 26zM246 432q3 25 25 26q25 -2 25 -26q-3 -25 -25 -26q-25 2 -25 26zM439 234q3 25 27 26
q25 -2 25 -26q-3 -24 -25 -25q-26 2 -27 25zM321 418q3 24 27 25q24 -2 24 -25q-3 -25 -25 -26q-26 2 -26 26zM427 309q3 25 26 26q26 -2 26 -26q-3 -25 -27 -26q-25 2 -25 26zM385 375q3 24 26 25q26 -2 26 -25q-3 -24 -27 -25q-25 2 -25 25z" />
    <glyph glyph-name="commaaccent" unicode="&#xf6c3;" horiz-adv-x="500" 
d="M313 -113q0 59 -44 73q-11 4 -23 4q-36 0 -53 -34q-6 -14 -6 -28q0 -38 37 -54q7 -3 13 -4q25 -6 26 -21q-1 -29 -45 -77l22 -16q66 69 73 145v12z" />
    <glyph glyph-name="eight.numr" horiz-adv-x="545" 
d="M259 -10q109 0 175 59q50 47 51 112q0 78 -92 137q-18 11 -42 24q81 45 93 122q2 12 2 22q0 89 -85 126q-41 18 -92 18q-104 0 -158 -62q-36 -41 -36 -99q0 -74 92 -132q10 -7 22 -14q-97 -31 -124 -111q-8 -23 -8 -46q0 -85 79 -128q52 -28 123 -28zM169 492q0 63 64 83
q22 7 48 7q72 0 109 -48q22 -30 22 -68q0 -66 -59 -111q-14 -10 -30 -18q-93 49 -121 79q-33 35 -33 76zM92 148q0 64 60 106q30 21 70 31q93 -50 118 -70q49 -41 50 -89q0 -73 -78 -98q-30 -9 -64 -9q-83 0 -128 51q-28 34 -28 78z" />
    <glyph glyph-name="eight.tf" horiz-adv-x="541" 
d="M256 -10q108 0 174 59q49 46 50 110q0 78 -93 139q-18 11 -42 25q81 44 96 120q3 13 3 26q0 90 -86 127q-41 18 -92 18q-103 0 -157 -61q-35 -40 -35 -97q0 -76 95 -136q11 -6 23 -13q-105 -32 -130 -117q-6 -22 -6 -43q0 -84 78 -128q52 -29 122 -29zM165 495
q0 66 68 84q21 6 45 6q73 0 110 -49q21 -29 21 -67q0 -67 -63 -113q-13 -10 -29 -18q-89 49 -117 77q-35 36 -35 80zM91 149q0 68 62 110q31 20 72 29q91 -50 118 -73q44 -41 45 -88q0 -74 -79 -99q-29 -9 -64 -9q-78 0 -123 49q-31 35 -31 81z" />
    <glyph glyph-name="five.numr" horiz-adv-x="509" 
d="M475 190q0 95 -79 146q-56 35 -133 35q-75 -1 -138 -41v190q83 -8 141 -8q109 0 139 28q27 29 27 108h-25q-10 -33 -39 -42q-24 -7 -77 -7q-27 0 -102 4q-63 3 -99 4v-290l35 -26q50 41 110 41q88 0 120 -78q13 -33 13 -72q0 -96 -59 -141q-34 -25 -81 -25
q-36 0 -52.5 16t-18.5 38t-3 44.5t-13.5 38.5t-42.5 16q-49 0 -54 -45q-1 -5 -1 -10q0 -62 66 -97q49 -27 119 -27q129 0 199 77q48 53 48 123z" />
    <glyph glyph-name="five.tf" horiz-adv-x="495" 
d="M461 185q0 99 -77 151q-51 34 -121 34q-79 -1 -139 -40v190q82 -8 137 -8q106 0 134 27q25 27 25 105h-25q-9 -32 -38 -41q-23 -6 -70 -6q-29 0 -110 4q-55 2 -86 3v-287l33 -25q50 41 109 41q87 0 115 -84q10 -31 10 -68q0 -120 -75 -154q-25 -11 -55 -11q-54 0 -64 48
q-2 10 -4 33q-4 50 -21 64q-14 10 -36 10q-44 0 -53 -40q-1 -8 -1 -15q0 -64 68 -101q48 -25 111 -25q123 0 189 75q44 51 44 120z" />
    <glyph glyph-name="four.numr" horiz-adv-x="366" 
d="M346 -59q-8 20 -20 22h-49v71h69v24h-69v128h-16l-8 -21q-12 -31 -40 -34q-6 -1 -13 -1h-8v-72l-144 1q126 95 133 100q98 82 99 130q-7 35 -43 39q-29 0 -46 -32q-4 -8 -12 -27q-39 -88 -96 -148q-31 -32 -69 -62l5 -23l173 -1v-72h-75v-22h229z" />
    <glyph glyph-name="four.tf" horiz-adv-x="511" 
d="M470 0q0 24 -13 26q-5 1 -11 1h-66v127h90v30h-90v203h-22l-11 -40q-11 -36 -34 -42q-10 -2 -23 -2h-8v-118l-229 1q218 182 285 273q45 60 45 101q-9 49 -58 54q-39 0 -58 -39q-6 -14 -18 -49q-38 -112 -93 -188q-59 -79 -148 -152l6 -30l268 -1v-128h-110v-27h298z" />
    <glyph glyph-name="nine.numr" horiz-adv-x="548" 
d="M488 321q0 187 -108 256q-52 33 -122 33q-130 0 -189 -84q-31 -45 -31 -101q0 -92 75 -141q54 -34 130 -34q77 1 135 44q-4 -216 -79 -264q-25 -15 -56 -15q-52 0 -64 48q-2 10 -5 32q-5 50 -23 64q-14 10 -37 10q-41 0 -54 -35q-4 -11 -4 -22q0 -59 64 -96
q47 -27 109 -27q156 0 222 144q37 81 37 188zM143 438q0 98 59 132q25 14 56 14q78 0 107 -81q12 -33 12 -72q0 -91 -57 -130q-28 -18 -63 -18q-80 0 -105 89q-9 31 -9 66z" />
    <glyph glyph-name="nine.tf" horiz-adv-x="527" 
d="M479 321q0 179 -99 253q-54 40 -128 40q-120 0 -177 -79q-34 -47 -34 -109q0 -107 88 -153q46 -25 109 -25q75 1 133 43q-4 -217 -83 -262q-24 -13 -53 -13q-57 0 -69 47q-3 9 -5 28q-6 45 -23 57q-13 8 -33 8q-43 0 -54 -37q-2 -8 -2 -17q0 -55 66 -88q47 -24 107 -24
q146 0 214 127q43 83 43 204zM144 441q2 146 109 147q96 0 113 -112q3 -22 3 -46q0 -133 -93 -149q-12 -2 -24 -2q-107 2 -108 162z" />
    <glyph glyph-name="one.numr" horiz-adv-x="293" 
d="M149 324l-139 -96l15 -23l93 64v-241l-83 -7v-21h244q0 17 -16 20q-4 1 -8 1l-51 7v296h-55z" />
    <glyph glyph-name="one.tf" horiz-adv-x="460" 
d="M239 600l-217 -135l18 -29l162 96v-497l-145 -9v-26h376q0 21 -24 25q-4 1 -7 1l-96 9v565h-67z" />
    <glyph glyph-name="seven.numr" horiz-adv-x="483" 
d="M478 577v24h-433l-2 -181h23l18 52q13 38 46 43q12 2 32 2h239q-44 -65 -119 -171q-124 -176 -151 -231q-20 -43 -20 -72q0 -44 43 -53q9 -2 17 -2q41 0 57 34q6 12 30 100q59 220 220 455z" />
    <glyph glyph-name="seven.tf" horiz-adv-x="462" 
d="M466 580v24h-433l-2 -178h23l18 52q14 38 46 43q12 2 32 2h241q-38 -56 -105 -150q-133 -190 -162 -248q-24 -48 -24 -80q0 -44 42 -53q9 -2 17 -2q40 0 56 33q5 12 29 101q60 220 222 456z" />
    <glyph glyph-name="si_B.halant" horiz-adv-x="604" 
d="M99 74q0 -28 26 -43q11 -5 21 -5q28 0 43 27q5 11 5 21q0 28 -27 43q-11 5 -21 5q-28 0 -42 -27q-5 -11 -5 -21zM136 528q0 -5 14 -15q6 -6 7 -10q-1 -4 -3 -7q59 11 117 11q150 0 226 -77q9 -8 16 -18q-36 122 -164 151q-33 7 -69 7q-89 0 -130 -25q-13 -9 -14 -17z
M32 183q0 115 85 170q53 34 124 34q88 0 135 -53q29 -33 29 -77q0 -68 -52 -96q-6 -4 -19 -9q-34 -15 -40 -30q-2 -7 -2 -14q2 -29 44 -30q84 0 135 88q36 62 36 132q0 132 -136 170q-48 13 -108 13q-55 0 -105 -10q-63 -14 -119 -40v31q9 4 31 11q49 17 50 23q0 5 -14 16
q-12 10 -13 21q0 33 53 57q51 24 124 24q202 0 264 -170q15 -45 20 -96q8 -35 8 -87q-1 -130 -64 -205q-51 -57 -126 -58q-70 0 -98 50q-13 23 -13 51q0 41 39 64q36 22 40 27q16 16 16 39q0 46 -75 61q-24 5 -50 5q-93 0 -139 -60q-28 -38 -28 -89q0 -35 11 -57q5 42 45 56
q13 4 26 4q45 0 68 -38q10 -17 10 -36q0 -48 -43 -68q-17 -8 -35 -8q-74 0 -102 94q-12 41 -12 90z" />
    <glyph glyph-name="si_BI" horiz-adv-x="604" 
d="M270 492q-113 5 -137 15q-19 10 -20 27q1 51 178 51q182 -1 183 -61q0 -32 -53 -43l-20 -2q-36 8 -131 13zM65 549q0 -62 95 -76q13 -1 111 -7q109 -7 142 -18q35 -13 61 -39q33 -35 35 -106q-1 -93 -57 -163q-50 -61 -116 -62q-43 1 -44 31q0 23 32 38q42 21 54 31
q28 28 28 77q0 80 -79 115q-40 17 -89 17q-110 0 -167 -78q-39 -53 -39 -126q0 -115 54 -162q26 -22 60 -22q45 0 67 37q11 17 11 39q0 42 -39 64q-19 10 -39 10q-49 0 -66 -41q-4 -10 -5 -19q-11 22 -11 60q0 86 77 125q41 20 90 20q91 0 118 -40q7 -12 7 -25
q0 -32 -34 -52q-36 -21 -43 -29q-18 -20 -18 -50q0 -60 53 -87q26 -13 58 -13q113 0 163 122q26 67 27 151v1v1q-1 101 -69 163q-7 7 -14 12q-19 12 -29 16q63 13 78 56q3 10 3 21q0 96 -181 111q-28 2 -59 2q-210 0 -225 -92q-1 -6 -1 -13zM99 74q0 28 26 43q11 5 21 5
q28 0 43 -27q5 -11 5 -21q0 -28 -27 -42q-11 -5 -21 -5q-29 0 -42 27q-5 10 -5 20z" />
    <glyph glyph-name="si_BIi" horiz-adv-x="604" 
d="M382 535q0 33 33 47q13 6 26 6q37 0 53 -31q6 -11 6 -22q0 -32 -33 -47q-13 -5 -26 -5q-37 0 -53 30q-6 10 -6 22zM270 492q-114 5 -138 15q-20 10 -21 28q1 53 179 53q63 0 78 -4q-16 -22 -16 -46q1 -32 21 -54q-44 6 -103 8zM65 549q0 -62 95 -76q13 -1 111 -7
q106 -6 138 -17q38 -13 65 -43q33 -36 35 -103q-2 -94 -58 -164q-50 -60 -115 -61q-43 1 -44 31q0 23 32 38q42 21 54 31q28 28 28 77q0 80 -79 115q-40 17 -89 17q-110 0 -167 -78q-39 -53 -39 -126q0 -115 54 -162q26 -22 60 -22q45 0 67 37q11 17 11 39q0 42 -39 64
q-19 10 -39 10q-49 0 -66 -41q-4 -10 -5 -19q-11 22 -11 60q0 86 77 125q41 20 90 20q91 0 118 -40q7 -12 7 -25q0 -32 -34 -52q-36 -21 -43 -29q-18 -20 -18 -50q0 -60 53 -87q26 -13 58 -13q113 0 163 121q26 66 27 149v1v2q0 102 -67 164q-8 7 -16 13q-6 5 -17 10
q49 11 64 53q5 13 5 27q0 104 -198 115q-21 1 -42 1q-210 0 -225 -92q-1 -6 -1 -13zM99 74q0 28 26 43q11 5 21 5q28 0 43 -27q5 -11 5 -21q0 -28 -27 -42q-11 -5 -21 -5q-29 0 -42 27q-5 10 -5 20z" />
    <glyph glyph-name="si_BR.halant" horiz-adv-x="604" 
d="M99 74q0 28 26 43q11 5 21 5q28 0 43 -27q5 -11 5 -21q0 -28 -27 -43q-11 -5 -21 -5q-28 0 -42 27q-5 11 -5 21zM136 528q0 23 72 36q35 6 72 6q146 0 209 -103q15 -26 24 -55q-63 83 -206 94q-18 1 -36 1q-59 0 -117 -11q3 3 3 7t-14 14q-6 6 -7 11zM32 183
q0 -115 54 -162q26 -22 60 -22q45 0 67 37q11 17 11 39q0 42 -39 64q-19 10 -39 10q-49 0 -66 -41q-4 -10 -5 -19q-11 23 -11 57q0 92 80 130q39 19 87 19q85 0 115 -37q10 -13 10 -29q0 -33 -34 -53q-36 -21 -43 -28q-18 -20 -18 -49q0 -66 59 -91q24 -10 52 -10
q95 1 148 90q4 -13 4 -34q0 -99 -91 -152q-65 -38 -153 -38q-141 1 -195 93h-28q49 -149 196 -168q21 -3 42 -3q120 0 195 79q65 69 65 172q0 47 -20 82q27 67 27 142q0 52 -8 87q-16 175 -143 237q-60 29 -141 29q-109 0 -158 -46q-18 -18 -19 -35q0 -12 18 -25q8 -8 9 -12
q0 -6 -61 -27q-13 -4 -20 -7v-31q57 27 119 40q51 10 105 10q178 0 228 -104q16 -34 16 -79q0 -88 -52 -156q-50 -63 -119 -64q-43 1 -44 30q0 24 31 39q41 19 50 27q32 28 32 83q0 74 -74 110q-41 20 -90 20q-116 0 -173 -82q-36 -52 -36 -122z" />
    <glyph glyph-name="si_BRI" horiz-adv-x="604" 
d="M270 492q-113 5 -137 15q-19 10 -20 27q1 51 178 51q182 -1 183 -61q0 -32 -53 -43l-20 -2q-36 8 -131 13zM65 549q0 -62 95 -76q13 -1 111 -7q109 -7 142 -18q35 -13 61 -39q33 -35 35 -106q-1 -93 -57 -163q-50 -61 -116 -62q-43 1 -44 31q0 23 32 38q42 21 54 31
q28 28 28 77q0 80 -79 115q-40 17 -89 17q-110 0 -167 -78q-39 -53 -39 -126q0 -115 54 -162q26 -22 60 -22q45 0 67 37q11 17 11 39q0 42 -39 64q-19 10 -39 10q-49 0 -66 -41q-4 -10 -5 -19q-11 22 -11 60q0 86 77 125q41 20 90 20q91 0 118 -40q7 -12 7 -25
q0 -32 -34 -52q-36 -21 -43 -29q-18 -20 -18 -50q0 -60 53 -87q26 -13 58 -13q96 1 148 91q4 -14 4 -35q0 -99 -91 -152q-65 -38 -153 -38q-141 1 -195 93h-28q49 -149 196 -168q21 -3 42 -3q120 0 195 79q65 69 65 172q0 46 -20 83q27 68 27 151v1v1q-1 101 -69 163
q-7 7 -14 12q-19 12 -29 16q63 13 78 56q3 10 3 21q0 96 -181 111q-28 2 -59 2q-210 0 -225 -92q-1 -6 -1 -13zM99 74q0 28 26 43q11 5 21 5q28 0 43 -27q5 -11 5 -21q0 -28 -27 -42q-11 -5 -21 -5q-29 0 -42 27q-5 10 -5 20z" />
    <glyph glyph-name="si_BRIi" horiz-adv-x="604" 
d="M382 535q0 33 33 47q13 6 26 6q37 0 53 -31q6 -11 6 -22q0 -32 -33 -47q-13 -5 -26 -5q-37 0 -53 30q-6 10 -6 22zM270 492q-114 5 -138 15q-20 10 -21 28q1 53 179 53q63 0 78 -4q-16 -22 -16 -46q1 -32 21 -54q-44 6 -103 8zM65 549q0 -62 95 -76q13 -1 111 -7
q106 -6 138 -17q38 -13 65 -43q33 -36 35 -103q-2 -94 -58 -164q-50 -60 -115 -61q-43 1 -44 31q0 23 32 38q42 21 54 31q28 28 28 77q0 80 -79 115q-40 17 -89 17q-110 0 -167 -78q-39 -53 -39 -126q0 -115 54 -162q26 -22 60 -22q45 0 67 37q11 17 11 39q0 42 -39 64
q-19 10 -39 10q-49 0 -66 -41q-4 -10 -5 -19q-11 22 -11 60q0 86 77 125q41 20 90 20q91 0 118 -40q7 -12 7 -25q0 -32 -34 -52q-36 -21 -43 -29q-18 -20 -18 -50q0 -60 53 -87q26 -13 58 -13q96 1 148 91q4 -14 4 -35q0 -99 -91 -152q-65 -38 -153 -38q-141 1 -195 93h-28
q49 -149 196 -168q21 -3 42 -3q120 0 195 79q65 69 65 172q0 46 -20 83q27 67 27 148v1v2q0 102 -67 164q-8 7 -16 13q-6 5 -17 10q49 11 64 53q5 13 5 27q0 104 -198 115q-21 1 -42 1q-210 0 -225 -92q-1 -6 -1 -13zM99 74q0 28 26 43q11 5 21 5q28 0 43 -27q5 -11 5 -21
q0 -28 -27 -42q-11 -5 -21 -5q-29 0 -42 27q-5 10 -5 20z" />
    <glyph glyph-name="si_BRa" horiz-adv-x="604" 
d="M99 74q0 28 26 43q11 5 21 5q28 0 43 -27q5 -11 5 -21q0 -28 -27 -42q-11 -5 -21 -5q-29 0 -42 27q-5 10 -5 20zM32 183q0 -115 54 -162q26 -22 60 -22q45 0 67 37q11 17 11 39q0 42 -39 64q-19 10 -39 10q-49 0 -66 -41q-4 -10 -5 -19q-11 22 -11 60q0 86 77 125
q41 20 90 20q91 0 118 -40q7 -12 7 -25q0 -32 -34 -52q-36 -21 -43 -29q-18 -20 -18 -50q0 -60 53 -87q26 -13 58 -13q96 1 148 91q4 -13 4 -35q0 -99 -91 -152q-65 -38 -153 -38q-141 1 -195 93h-28q49 -149 196 -168q21 -3 42 -3q120 0 195 79q65 69 65 172q0 47 -20 84
q27 70 27 156q0 163 -105 242q-70 52 -172 52q-146 0 -209 -88q-8 -12 -14 -24h31q59 88 192 88q128 0 187 -93q35 -56 35 -131q0 -100 -54 -176q-50 -68 -117 -69q-43 1 -44 31q0 23 32 38q42 21 54 31q28 28 28 77q0 80 -79 115q-40 17 -89 17q-110 0 -167 -78
q-39 -53 -39 -126z" />
    <glyph glyph-name="si_BU" horiz-adv-x="604" 
d="M99 74q0 28 26 43q11 5 21 5q28 0 43 -27q5 -11 5 -21q0 -28 -27 -42q-11 -5 -21 -5q-29 0 -42 27q-5 10 -5 20zM32 183q0 -115 54 -162q26 -22 60 -22q45 0 67 37q11 17 11 39q0 42 -39 64q-19 10 -39 10q-49 0 -66 -41q-4 -10 -5 -19q-11 22 -11 60q0 86 77 125
q41 20 90 20q91 0 118 -40q7 -12 7 -25q0 -32 -34 -52q-36 -21 -43 -29q-18 -20 -18 -50q0 -60 53 -87q26 -13 58 -13q95 1 147 90v-280h-349q-86 2 -88 53q0 38 36 54q14 6 29 6q40 0 59 -33q2 -4 3 -7l30 12q-20 46 -72 56q-11 2 -20 2q-56 0 -85 -43q-14 -22 -14 -47
q0 -52 45 -76q25 -14 58 -14h402v412q9 46 9 94q0 163 -105 242q-70 52 -172 52q-146 0 -209 -88q-8 -12 -14 -24h31q59 88 192 88q128 0 187 -93q35 -56 35 -131q0 -100 -54 -176q-50 -68 -117 -69q-43 1 -44 31q0 23 32 38q42 21 54 31q28 28 28 77q0 80 -79 115
q-40 17 -89 17q-110 0 -167 -78q-39 -53 -39 -126z" />
    <glyph glyph-name="si_BUu" horiz-adv-x="604" 
d="M99 74q0 28 26 43q11 5 21 5q28 0 43 -27q5 -11 5 -21q0 -28 -27 -42q-11 -5 -21 -5q-29 0 -42 27q-5 10 -5 20zM32 183q0 -115 54 -162q26 -22 60 -22q45 0 67 37q11 17 11 39q0 42 -39 64q-19 10 -39 10q-49 0 -66 -41q-4 -10 -5 -19q-11 22 -11 60q0 86 77 125
q41 20 90 20q91 0 118 -40q7 -12 7 -25q0 -32 -34 -52q-36 -21 -43 -29q-18 -20 -18 -50q0 -60 53 -87q26 -13 58 -13q95 1 147 90v-251q-37 44 -105 50h-13q-52 0 -138 -35q-72 -29 -109 -29q-50 0 -64 36q-4 9 -4 19q0 35 36 49q14 6 30 6q38 -1 60 -33l30 11
q-32 50 -95 50q-54 0 -83 -43q-16 -24 -16 -53q0 -66 63 -88q21 -8 45 -8q49 0 123 42q70 39 104 45q12 2 23 2q67 0 109 -61q8 -12 13 -23h24v404q10 46 10 99q0 163 -105 242q-70 52 -172 52q-146 0 -209 -88q-8 -12 -14 -24h31q59 88 192 88q128 0 187 -93
q35 -56 35 -131q0 -100 -54 -176q-50 -68 -117 -69q-43 1 -44 31q0 23 32 38q42 21 54 31q28 28 28 77q0 80 -79 115q-40 17 -89 17q-110 0 -167 -78q-39 -53 -39 -126z" />
    <glyph glyph-name="si_Ba.reph" horiz-adv-x="604" 
d="M99 74q0 28 26 43q11 5 21 5q28 0 43 -27q5 -11 5 -21q0 -28 -27 -42q-11 -5 -21 -5q-29 0 -42 27q-5 10 -5 20zM32 183q0 -115 54 -162q26 -22 60 -22q45 0 67 37q11 17 11 39q0 42 -39 64q-19 10 -39 10q-49 0 -66 -41q-4 -10 -5 -19q-11 22 -11 60q0 86 77 125
q41 20 90 20q91 0 118 -40q7 -12 7 -25q0 -32 -34 -52q-36 -21 -43 -29q-18 -20 -18 -50q0 -60 53 -87q26 -13 58 -13q114 0 163 124q27 68 27 155q0 166 -108 244q-30 22 -66 34h16q25 29 25 64q0 66 -65 96q-33 15 -73 15q-92 0 -125 -53q-12 -21 -12 -46q1 -47 49 -69
q-102 -25 -141 -103h31q59 88 192 88q128 0 187 -93q35 -56 35 -131q0 -100 -54 -176q-50 -68 -117 -69q-43 1 -44 31q0 23 32 38q42 21 54 31q28 28 28 77q0 80 -79 115q-40 17 -89 17q-110 0 -167 -78q-39 -53 -39 -126zM254 613q0 25 26 34q8 2 14 2q27 0 37 -23
q3 -7 3 -13q0 -25 -26 -34q-8 -2 -14 -2q-27 0 -37 23q-3 7 -3 13zM360 612q0 40 -38 55q-14 5 -29 5q-41 0 -59 -32q-6 -13 -6 -26q1 -27 19 -41q-32 3 -51 28q-10 14 -10 30q0 52 64 68q20 4 40 4q72 0 99 -45q10 -18 10 -40q-1 -33 -24 -59q-24 6 -37 8q21 18 22 45z" />
    <glyph glyph-name="si_Ba.touch" horiz-adv-x="604" 
d="M99 74q0 -29 27 -42q10 -5 20 -5q28 0 43 26q5 10 5 21q0 28 -27 43q-11 5 -21 5q-28 0 -42 -27q-5 -11 -5 -21zM32 183q0 112 83 168q53 36 123 36q96 0 142 -56q26 -33 26 -76q0 -65 -53 -94q-6 -3 -19 -9q-35 -16 -40 -31q-2 -6 -2 -12q2 -30 44 -31q79 0 130 90
q41 71 41 155q0 123 -86 184q-56 40 -136 40q-134 -1 -192 -88h-31q45 92 174 109q24 3 49 3q156 0 229 -114q48 -74 48 -180q0 -149 -69 -225q-49 -54 -121 -54q-69 0 -98 51q-13 22 -13 49q0 43 39 66q36 22 40 26q16 16 16 39q0 43 -68 59q-26 6 -57 6q-91 0 -138 -58
q-29 -37 -29 -87q0 -38 11 -60q5 42 45 56q13 4 26 4q45 0 68 -38q10 -17 10 -36q0 -48 -43 -68q-17 -8 -35 -8q-74 0 -102 94q-12 41 -12 90z" />
    <glyph glyph-name="si_Bh.halant" horiz-adv-x="654" 
d="M6 264q24 4 114 6q-71 -44 -72 -119q0 -88 72 -129q40 -23 92 -23q96 0 139 64q22 35 22 79q0 64 -39 85q-12 6 -25 6q-17 -1 -28 -7q29 108 123 109q83 0 117 -79q15 -36 15 -79q0 -82 -57 -125q-36 -26 -84 -26q-18 0 -36 3v-27q21 -3 40 -3q103 0 163 76q44 57 44 131
q0 112 -64 173q-26 25 -59 36v52q21 -10 44 -10q48 0 68 38q9 16 9 34q0 56 -58 89q-10 6 -34 17q-39 18 -55 30v-244q-8 1 -21 1q-80 0 -137 -84q-44 -66 -50 -149l23 -9q10 27 32 28q28 -2 29 -37q0 -50 -65 -68q-23 -6 -48 -6q-85 0 -115 47q-12 18 -12 41q0 51 61 75
q31 13 67 13q6 0 28 -2q-1 90 -55 131q-28 20 -63 20q-56 0 -77 -42q-6 -13 -6 -25q0 -32 27 -37q5 -1 8 -1q27 1 39 29q13 25 37 26q34 0 50 -40q7 -18 7 -36h-5h-3h-202v-32zM483 491v132q55 -36 68 -52q13 -18 13 -39q0 -35 -31 -45q-8 -2 -17 -2q-20 0 -33 6z" />
    <glyph glyph-name="si_BhI" horiz-adv-x="654" 
d="M6 264q24 4 114 6q-71 -44 -72 -119q0 -88 72 -129q40 -23 92 -23q96 0 139 64q22 35 22 79q0 64 -39 85q-12 6 -25 6q-17 -1 -28 -7q29 108 123 109q83 0 117 -79q15 -36 15 -79q0 -82 -57 -125q-36 -26 -84 -26q-18 0 -36 3v-27q21 -3 40 -3q103 0 163 76q44 57 44 131
q0 111 -63 173q-19 18 -41 29q70 26 71 103q0 81 -90 119q-51 21 -113 21q-118 0 -169 -57q-27 -30 -27 -70q0 -74 104 -106q39 -12 87 -16q-73 -43 -103 -145q-10 -34 -13 -68l23 -9q10 27 32 28q28 -2 29 -37q0 -50 -65 -68q-23 -6 -48 -6q-85 0 -115 47q-12 18 -12 41
q0 51 61 75q31 13 67 13q6 0 28 -2q-1 90 -55 131q-28 20 -63 20q-56 0 -77 -42q-6 -13 -6 -25q0 -32 27 -37q5 -1 8 -1q27 1 39 29q13 25 37 26q34 0 50 -40q7 -18 7 -36h-5h-3h-202v-32zM226 499q0 41 65 61q37 11 82 11q128 0 159 -49q8 -13 8 -28q0 -44 -46 -64
q-19 -8 -41 -9q-7 1 -17 1h-5h-1h-4q-4 -1 -5 -1q-117 3 -170 39q-24 18 -25 39z" />
    <glyph glyph-name="si_BhIi" horiz-adv-x="654" 
d="M6 264q24 4 114 6q-71 -44 -72 -119q0 -88 72 -129q40 -23 92 -23q96 0 139 64q22 35 22 79q0 64 -39 85q-12 6 -25 6q-17 -1 -28 -7q29 108 123 109q83 0 117 -79q15 -36 15 -79q0 -82 -57 -125q-36 -26 -84 -26q-18 0 -36 3v-27q21 -3 40 -3q103 0 163 76q44 57 44 131
q0 112 -63 173q-45 43 -107 43h-5h-1h-4q-4 -1 -5 -1q-117 3 -170 39q-24 18 -25 39q0 41 65 61q37 11 82 11q28 0 42 -2q-26 -12 -33 -45q-2 -8 -2 -17q0 -50 50 -75q23 -11 46 -11q54 0 81 39q16 22 16 53q0 78 -89 116q-51 22 -114 22q-118 0 -169 -57q-27 -30 -27 -70
q0 -72 101 -106q39 -12 88 -17q-72 -43 -102 -145q-9 -33 -12 -67l23 -9q10 27 32 28q28 -2 29 -37q0 -50 -65 -68q-23 -6 -48 -6q-85 0 -115 47q-12 18 -12 41q0 51 61 75q31 13 67 13q6 0 28 -2q-1 90 -55 131q-28 20 -63 20q-56 0 -77 -42q-6 -13 -6 -25q0 -32 27 -37
q5 -1 8 -1q27 1 39 29q13 25 37 26q34 0 50 -40q7 -18 7 -36h-5h-3h-202v-32zM410 508q0 36 36 53q15 6 31 6q42 0 60 -33q7 -13 7 -26q0 -36 -35 -53q-15 -7 -32 -7q-42 0 -60 34q-7 13 -7 26z" />
    <glyph glyph-name="si_BhRI" horiz-adv-x="654" 
d="M226 499q0 41 65 61q37 11 82 11q128 0 159 -49q8 -13 8 -28q0 -44 -46 -64q-19 -8 -41 -9q-7 1 -17 1h-5h-1h-4q-4 -1 -5 -1q-117 3 -170 39q-24 18 -25 39zM174 524q0 -74 104 -106q39 -12 87 -16q-73 -43 -103 -145q-10 -34 -13 -68l23 -9q10 27 32 28q28 -2 29 -37
q0 -50 -65 -68q-23 -6 -48 -6q-85 0 -115 47q-12 18 -12 41q0 51 61 75q31 13 67 13q6 0 28 -2q-1 90 -55 131q-28 20 -63 20q-56 0 -77 -42q-6 -13 -6 -25q0 -32 27 -37q5 -1 8 -1q27 1 39 29q13 25 37 26q34 0 50 -40q7 -18 7 -36h-5h-3h-202v-32q24 4 114 6
q-71 -44 -72 -119q0 -88 72 -129q40 -23 92 -23q96 0 139 64q22 35 22 79q0 64 -39 85q-12 6 -25 6q-17 -1 -28 -7q29 108 123 109q83 0 117 -79q15 -36 15 -79q0 -82 -57 -125q-36 -26 -84 -26q-18 0 -36 3v-27q21 -3 40 -3q99 1 160 72q1 -6 1 -17q0 -100 -96 -153
q-68 -37 -160 -37q-153 1 -202 93h-28q59 -170 248 -171q126 0 202 80q64 69 64 171q0 35 -10 62q28 49 28 107q0 111 -63 173q-19 18 -41 29q70 26 71 103q0 81 -90 119q-51 21 -113 21q-118 0 -169 -57q-27 -30 -27 -70z" />
    <glyph glyph-name="si_BhRIi" horiz-adv-x="654" 
d="M6 264q24 4 114 6q-71 -44 -72 -119q0 -88 72 -129q40 -23 92 -23q96 0 139 64q22 35 22 79q0 64 -39 85q-12 6 -25 6q-17 -1 -28 -7q29 108 123 109q83 0 117 -79q15 -36 15 -79q0 -82 -57 -125q-36 -26 -84 -26q-18 0 -36 3v-27q21 -3 40 -3q99 1 160 72q1 -6 1 -17
q0 -100 -96 -153q-68 -37 -160 -37q-153 1 -202 93h-28q59 -170 248 -171q126 0 202 80q64 69 64 171q0 35 -10 62q28 49 28 107q0 112 -63 173q-45 43 -107 43h-5h-1h-4q-4 -1 -5 -1q-117 3 -170 39q-24 18 -25 39q0 41 65 61q37 11 82 11q28 0 42 -2q-26 -12 -33 -45
q-2 -8 -2 -17q0 -50 50 -75q23 -11 46 -11q54 0 81 39q16 22 16 53q0 78 -89 116q-51 22 -114 22q-118 0 -169 -57q-27 -30 -27 -70q0 -73 101 -106q39 -13 87 -18q-70 -43 -100 -143q-10 -34 -13 -68l23 -9q10 27 32 28q28 -2 29 -37q0 -50 -65 -68q-23 -6 -48 -6
q-85 0 -115 47q-12 18 -12 41q0 51 61 75q31 13 67 13q6 0 28 -2q-1 90 -55 131q-28 20 -63 20q-56 0 -77 -42q-6 -13 -6 -25q0 -32 27 -37q5 -1 8 -1q27 1 39 29q13 25 37 26q34 0 50 -40q7 -18 7 -36h-5h-3h-202v-32zM410 508q0 36 35 53q15 7 32 7q42 0 60 -34
q7 -13 7 -26q0 -36 -35 -53q-16 -8 -32 -8q-41 0 -60 33q-7 14 -7 28z" />
    <glyph glyph-name="si_BhRa" horiz-adv-x="654" 
d="M6 264q24 4 114 6q-71 -44 -72 -119q0 -88 72 -129q40 -23 92 -23q96 0 139 64q22 35 22 79q0 64 -39 85q-12 6 -25 6q-17 -1 -28 -7q29 108 123 109q83 0 117 -79q15 -36 15 -79q0 -82 -57 -125q-36 -26 -84 -26q-18 0 -36 3v-27q21 -3 40 -3q99 1 160 72q1 -6 1 -17
q0 -100 -96 -153q-68 -37 -160 -37q-153 1 -202 93h-28q59 -170 248 -171q126 0 202 80q64 69 64 171q0 35 -10 62q28 49 28 107q0 112 -63 173q-45 43 -107 43q-80 0 -137 -84q-44 -66 -50 -149l23 -9q10 27 32 28q28 -2 29 -37q0 -50 -65 -68q-23 -6 -48 -6q-85 0 -115 47
q-12 18 -12 41q0 51 61 75q31 13 67 13q6 0 28 -2q-1 90 -55 131q-28 20 -63 20q-56 0 -77 -42q-6 -13 -6 -25q0 -32 27 -37q5 -1 8 -1q27 1 39 29q13 25 37 26q34 0 50 -40q7 -18 7 -36h-5h-3h-202v-32z" />
    <glyph glyph-name="si_BhRa.halant" horiz-adv-x="654" 
d="M483 491v132q55 -36 68 -52q13 -18 13 -39q0 -35 -31 -45q-8 -2 -17 -2q-20 0 -33 6zM6 264q24 4 114 6q-71 -44 -72 -119q0 -88 72 -129q40 -23 92 -23q96 0 139 64q22 35 22 79q0 64 -39 85q-12 6 -25 6q-17 -1 -28 -7q29 108 123 109q83 0 117 -79q15 -36 15 -79
q0 -82 -57 -125q-36 -26 -84 -26q-18 0 -36 3v-27q21 -3 40 -3q99 1 160 72q1 -6 1 -17q0 -100 -96 -153q-68 -37 -160 -37q-153 1 -202 93h-28q59 -170 248 -171q126 0 202 80q64 69 64 171q0 35 -10 62q28 49 28 107q0 112 -64 173q-26 25 -59 36v52q21 -10 44 -10
q48 0 68 38q9 16 9 34q0 56 -58 89q-10 6 -34 17q-39 18 -55 30v-244q-8 1 -21 1q-80 0 -137 -84q-44 -66 -50 -149l23 -9q10 27 32 28q28 -2 29 -37q0 -50 -65 -68q-23 -6 -48 -6q-85 0 -115 47q-12 18 -12 41q0 51 61 75q31 13 67 13q6 0 28 -2q-1 90 -55 131
q-28 20 -63 20q-56 0 -77 -42q-6 -13 -6 -25q0 -32 27 -37q5 -1 8 -1q27 1 39 29q13 25 37 26q34 0 50 -40q7 -18 7 -36h-5h-3h-202v-32z" />
    <glyph glyph-name="si_BhU" horiz-adv-x="654" 
d="M6 265q24 4 115 6q-72 -44 -73 -120q0 -88 72 -129q40 -23 92 -23q96 0 139 64q22 35 22 79q0 64 -39 85q-12 6 -25 6q-17 -1 -28 -7q29 108 123 109q83 0 117 -79q15 -36 15 -79q0 -78 -47 -123q-25 -23 -54 -26q-30 -4 -41 -8q-60 -29 -62 -95q0 -69 67 -99
q31 -14 66 -14q90 0 126 67q14 26 14 53q0 29 -1 33h-30v-9q0 -44 -51 -64q-25 -10 -54 -10q-66 0 -89 36q-7 12 -7 26q1 32 31 48q18 8 42 8q65 0 115 66q45 62 45 140q0 112 -63 173q-45 43 -107 43q-80 0 -137 -84q-44 -66 -50 -149l23 -9q10 27 32 28q28 -2 29 -37
q0 -50 -65 -68q-23 -6 -48 -6q-85 0 -115 47q-12 18 -12 41q0 51 61 75q31 13 67 13q6 0 28 -2q-1 90 -55 131q-28 20 -63 20q-56 0 -77 -42q-6 -13 -6 -25q0 -32 27 -37q5 -1 8 -1q27 1 39 29q13 25 37 26q34 0 50 -40q7 -18 7 -36h-5h-4h-201v-31z" />
    <glyph glyph-name="si_BhUu" horiz-adv-x="654" 
d="M6 264q24 4 114 6q-71 -44 -72 -119q0 -88 72 -129q40 -23 92 -23q96 0 139 64q22 35 22 79q0 64 -39 85q-12 6 -25 6q-17 -1 -28 -7q29 108 123 109q83 0 117 -79q15 -36 15 -79q0 -82 -57 -125q-36 -26 -84 -26q-18 0 -36 3v-27h3q2 -1 4 -1h-1l92 -15l-84 -24l54 -27
q-47 -7 -60 -43q-3 -9 -3 -18q0 -62 90 -72q15 -2 29 -2q89 0 119 60q11 22 11 48q0 22 -4 34h-33q6 -11 6 -22q0 -44 -58 -57q-19 -4 -39 -4q-77 1 -78 33q0 20 53 29q24 4 29 5l-58 31l104 36l-78 14q89 24 128 106q21 44 21 93q0 112 -63 173q-45 43 -107 43
q-80 0 -137 -84q-44 -66 -50 -149l23 -9q10 27 32 28q28 -2 29 -37q0 -50 -65 -68q-23 -6 -48 -6q-85 0 -115 47q-12 18 -12 41q0 51 61 75q31 13 67 13q6 0 28 -2q-1 90 -55 131q-28 20 -63 20q-56 0 -77 -42q-6 -13 -6 -25q0 -32 27 -37q5 -1 8 -1q27 1 39 29q13 25 37 26
q34 0 50 -40q7 -18 7 -36h-5h-3h-202v-32z" />
    <glyph glyph-name="si_Bha.reph" horiz-adv-x="654" 
d="M6 264q24 4 114 6q-71 -44 -72 -119q0 -88 72 -129q40 -23 92 -23q96 0 139 64q22 35 22 79q0 64 -39 85q-12 6 -25 6q-17 -1 -28 -7q29 108 123 109q83 0 117 -79q15 -36 15 -79q0 -82 -57 -125q-36 -26 -84 -26q-18 0 -36 3v-27q21 -3 40 -3q103 0 163 76q44 57 44 131
q0 112 -63 173q-45 43 -107 43q-80 0 -137 -84q-44 -66 -50 -149l23 -9q10 27 32 28q28 -2 29 -37q0 -50 -65 -68q-23 -6 -48 -6q-85 0 -115 47q-12 18 -12 41q0 51 61 75q31 13 67 13q6 0 28 -2q-1 90 -55 131q-28 20 -63 20q-56 0 -77 -42q-6 -13 -6 -25q0 -32 27 -37
q5 -1 8 -1q27 1 39 29q13 25 37 26q34 0 50 -40q7 -18 7 -36h-5h-3h-202v-32zM289 499q0 25 26 34q8 2 14 2q27 0 37 -23q3 -7 3 -13q0 -25 -26 -34q-8 -2 -14 -2q-27 0 -37 23q-3 7 -3 13zM189 518q0 -53 62 -74q26 -9 54 -9q72 0 88 44q3 10 3 19q0 39 -38 55q-14 6 -30 6
q-41 0 -59 -33q-6 -13 -6 -26q1 -27 19 -41q-31 3 -51 28q-11 15 -11 31q0 52 66 67q19 4 39 4q72 0 99 -45q10 -18 10 -40q-1 -37 -28 -63h33q25 29 25 64q0 66 -65 96q-33 15 -73 15q-93 0 -125 -54q-12 -20 -12 -44z" />
    <glyph glyph-name="si_Bha.touch" horiz-adv-x="654" 
d="M6 264q24 4 114 6q-71 -44 -72 -119q0 -88 72 -129q40 -23 92 -23q96 0 139 64q22 35 22 79q0 64 -39 85q-12 6 -25 6q-17 -1 -28 -7q29 108 123 109q83 0 117 -79q15 -36 15 -79q0 -82 -57 -125q-36 -26 -84 -26q-18 0 -36 3v-27q21 -3 40 -3q103 0 163 76q44 57 44 131
q0 112 -63 173q-45 43 -107 43q-80 0 -137 -84q-44 -66 -50 -149l23 -9q10 27 32 28q28 -2 29 -37q0 -50 -65 -68q-23 -6 -48 -6q-85 0 -115 47q-12 18 -12 41q0 51 61 75q31 13 67 13q6 0 28 -2q-1 90 -55 131q-28 20 -63 20q-56 0 -77 -42q-6 -13 -6 -25q0 -32 27 -37
q5 -1 8 -1q27 1 39 29q13 25 37 26q34 0 50 -40q7 -18 7 -36h-5h-3h-202v-32z" />
    </font>
</defs>
</svg>
