<?xml version="1.0" standalone="no"?>
<!DOCTYPE svg PUBLIC "-//W3C//DTD SVG 1.1//EN" "http://www.w3.org/Graphics/SVG/1.1/DTD/svg11.dtd" >
<svg xmlns="http://www.w3.org/2000/svg" xmlns:xlink="http://www.w3.org/1999/xlink" version="1.1">
<metadata>
Created by FontForge 20201107 at Fri Feb 17 18:11:36 2017
 By 
Copyright (c) 1996-2015 Pushpananda Ekanayake (pushpanandae@gmail.com) Copyright (c) 2015 Sol Matas (sol@sonnenshine.com.ar) Copyright (c) 2015 Mooniak (hello@mooniak.com)
</metadata>
<defs>
<font id="AbhayaLibre-Regular" horiz-adv-x="583" >
  <font-face 
    font-family="Abhaya Libre"
    font-weight="400"
    font-stretch="normal"
    units-per-em="1024"
    panose-1="2 0 5 3 0 0 0 0 0 0"
    ascent="819"
    descent="-205"
    x-height="425"
    cap-height="600"
    bbox="-580 -340 1635 856"
    underline-thickness="0"
    underline-position="0"
    unicode-range="U+0020-FB02"
  />
<missing-glyph horiz-adv-x="631" 
d="M50 -93v847h531v-847h-531zM266 64q0 19 19 26q5 2 9 2q19 0 26 -19q2 -5 2 -9q0 -19 -19 -26q-5 -2 -9 -2q-19 0 -26 19q-2 5 -2 9zM89 717v-772h452v772h-452zM169 498q59 74 141 75q95 0 134 -75q18 -34 19 -75q2 -90 -71 -133q-35 -21 -75 -22v-145h-47v186
q126 3 144 78q3 15 3 31q0 66 -49 97q-26 17 -60 17q-29 0 -52.5 -12t-33 -22t-22.5 -27z" />
    <glyph glyph-name="fi" unicode="fi" horiz-adv-x="580" 
d="M237 26h-56v373h221v-321q0 -45 -50 -51q-11 -1 -24 -1v-26h227q0 23 -13 25q-5 1 -11 1h-54v399h-296v6q0 165 76 192q20 7 44 7q51 0 74 -43q3 -5 8 -15q17 -35 36 -42q10 -4 21 -4q37 0 44 30q1 5 1 10q0 40 -50 66q-43 23 -109 23q-142 0 -195 -99q-25 -48 -25 -115
v-16h-71v-26h71v-321q-2 -52 -76 -52v-26h231q0 23 -13 25q-5 1 -11 1z" />
    <glyph glyph-name="fl" unicode="fl" horiz-adv-x="581" 
d="M557 0q0 23 -13 25q-5 1 -11 1h-55v624h-117q-49 5 -80 5q-111 0 -153 -97q-22 -49 -22 -117v-16h-71v-26h71v-321q-2 -52 -76 -52v-26h231q0 23 -13 25q-5 1 -11 1h-56v373h110v26h-110v6q0 139 42 176q25 22 70 22q56 0 109 -20v-529q0 -41 -27 -49q-16 -5 -46 -5v-26
h228z" />
    <glyph glyph-name=".notdef" horiz-adv-x="631" 
d="M50 -93v847h531v-847h-531zM266 64q0 19 19 26q5 2 9 2q19 0 26 -19q2 -5 2 -9q0 -19 -19 -26q-5 -2 -9 -2q-19 0 -26 19q-2 5 -2 9zM89 717v-772h452v772h-452zM169 498q59 74 141 75q95 0 134 -75q18 -34 19 -75q2 -90 -71 -133q-35 -21 -75 -22v-145h-47v186
q126 3 144 78q3 15 3 31q0 66 -49 97q-26 17 -60 17q-29 0 -52.5 -12t-33 -22t-22.5 -27z" />
    <glyph glyph-name=".null" horiz-adv-x="0" 
 />
    <glyph glyph-name="nonmarkingreturn" horiz-adv-x="341" 
 />
    <glyph glyph-name="space" unicode=" " horiz-adv-x="195" 
 />
    <glyph glyph-name="exclam" unicode="!" horiz-adv-x="279" 
d="M154 167q0 128 27 284q11 63 11 95q0 59 -43 63q-4 1 -9 1q-52 -2 -53 -66q0 -27 17 -132q20 -119 20 -245h30zM189 46q0 33 -30 47q-10 5 -21 5q-33 0 -46 -30q-5 -11 -5 -22q0 -32 29 -46q11 -5 22 -5q32 0 46 29q5 11 5 22z" />
    <glyph glyph-name="quotedbl" unicode="&#x22;" horiz-adv-x="306" 
d="M92 655q-33 0 -41 -30q-1 -6 -1 -12q0 -10 16 -83q10 -45 12 -80h27q2 32 22 125q6 26 6 39q0 32 -29 39q-6 2 -12 2zM215 655q-38 -7 -42 -42q0 -10 16 -83q10 -45 12 -80h27q2 32 22 125q6 26 6 39q0 32 -29 39q-6 2 -12 2z" />
    <glyph glyph-name="numbersign" unicode="#" horiz-adv-x="579" 
d="M322 -10h30l27 205h127v45h-121l17 130h117v45h-111l24 185h-30l-24 -185h-144l24 185h-30l-24 -185h-131v-45h125l-17 -130h-121v-45h115l-27 -205h30l27 205h144zM355 240h-144l17 130h144z" />
    <glyph glyph-name="dollar" unicode="$" horiz-adv-x="538" 
d="M154 483q0 66 64 90q18 6 40 8v-218q-84 41 -100 90q-4 15 -4 30zM403 133q0 -90 -98 -110q-9 -2 -18 -3v239q90 -41 109 -89q7 -18 7 -37zM287 -91v83q120 9 173 78q28 38 28 87q0 88 -96 144q-24 13 -105 49v232q61 -4 78 -52q3 -9 7 -26q9 -41 26 -51q13 -7 32 -7
q44 5 47 54q0 60 -80 91q-49 19 -109 19h-1v89h-29v-90q-113 -11 -161 -76q-25 -34 -25 -76q0 -87 96 -142q27 -15 90 -43v-254h-4q-67 0 -83 50q-3 10 -6 31q-8 45 -26 57q-14 9 -35 9q-44 0 -52 -43q-2 -8 -2 -16q0 -61 84 -94q54 -21 122 -21h2v-82h29z" />
    <glyph glyph-name="percent" unicode="%" horiz-adv-x="803" 
d="M189 -29l437 639l-29 20l-438 -640zM211 615q-88 0 -128 -71q-23 -40 -23 -94q0 -110 73 -152q34 -19 75 -19q89 0 129 73q22 41 22 95q0 116 -80 154q-31 14 -68 14zM210 299q-52 0 -66 62q-7 33 -7 86q0 121 43 142q13 6 29 6q51 0 65 -63q7 -32 7 -82
q-1 -150 -71 -151zM590 326q-88 0 -128 -71q-23 -40 -23 -94q0 -110 73 -152q34 -19 75 -19q89 0 129 73q22 41 22 95q0 116 -80 154q-31 14 -68 14zM589 10q-52 0 -66 62q-7 33 -7 86q0 121 43 142q13 6 29 6q51 0 65 -63q7 -32 7 -82q-1 -150 -71 -151z" />
    <glyph glyph-name="ampersand" unicode="&#x26;" horiz-adv-x="592" 
d="M226 504q0 61 49 77q12 4 25 4q53 0 69 -45q5 -15 5 -30q0 -47 -49 -84q-28 -21 -65 -31q-34 68 -34 109zM269 20q-112 0 -141 112q-8 32 -8 70q0 88 56 128q15 10 30 15q67 -126 195 -277q-58 -48 -132 -48zM526 319h-1h3l31 1q23 0 26 12q2 7 2 15h-144v-26h55
q0 -111 -48 -194q-119 140 -178 246q83 23 117 87q13 25 13 50q0 65 -57 90q-22 10 -47 10q-94 0 -126 -65q-13 -27 -13 -58q1 -46 36 -120q-117 -32 -150 -127q-10 -30 -10 -64q0 -91 69 -144q55 -42 133 -42q110 1 180 59q15 -18 44 -49h141q0 23 -16 25q-4 1 -9 1h-37
q-24 26 -71 79q57 88 57 214z" />
    <glyph glyph-name="quotesingle" unicode="'" horiz-adv-x="189" 
d="M95 655q-38 0 -44 -32q-1 -5 -1 -10q0 -10 17 -80q12 -47 14 -83h27q2 34 24 124q7 27 7 40q0 34 -33 40q-6 1 -11 1z" />
    <glyph glyph-name="parenleft" unicode="(" horiz-adv-x="336" 
d="M312 650q-141 -38 -213 -183q-49 -101 -49 -221q0 -168 89 -282q68 -86 170 -114l10 25q-105 38 -156 179q-32 90 -32 194q0 164 74 278q48 73 116 99z" />
    <glyph glyph-name="parenright" unicode=")" horiz-adv-x="338" 
d="M26 650q141 -38 213 -183q49 -101 49 -221q0 -168 -89 -282q-68 -86 -170 -114l-10 25q105 38 156 179q32 90 32 194q0 164 -74 278q-48 73 -116 99z" />
    <glyph glyph-name="asterisk" unicode="*" horiz-adv-x="334" 
d="M167 650q-31 0 -35 -27q-1 -3 -1 -6q0 -7 16 -64q7 -28 10 -49q-14 11 -57 55q-28 28 -45 29q-21 0 -31 -24q-3 -7 -3 -14q1 -19 17 -28q6 -3 63 -18q27 -7 47 -15q-15 -6 -84 -25q-19 -5 -27 -10q-17 -10 -17 -26q0 -22 19 -34q8 -5 17 -5q17 0 54 40q31 33 47 45
q-2 -16 -21 -88q-5 -18 -5 -27q0 -27 28 -31q4 -1 7 -1q31 0 35 27q1 3 1 6q0 8 -16 63q-8 29 -11 51q14 -9 56 -54q31 -31 47 -31q21 0 31 24q3 7 3 14q-1 19 -17 28q-6 3 -63 18q-27 7 -47 15q15 6 84 25q19 5 27 10q17 10 17 26q0 22 -19 34q-8 5 -17 5q-18 0 -52 -37
q-32 -35 -49 -48q2 16 21 88q5 18 5 27q0 27 -28 31q-4 1 -7 1z" />
    <glyph glyph-name="plus" unicode="+" horiz-adv-x="469" 
d="M424 216v36h-167v178h-45v-178h-167v-36h167v-178h45v178h167z" />
    <glyph glyph-name="comma" unicode="," horiz-adv-x="193" 
d="M153 37q0 54 -40 64q-8 2 -15 2q-32 0 -44 -30q-4 -10 -4 -20q0 -32 32 -44q5 -1 8 -2q22 -6 23 -17q-1 -27 -44 -72l21 -15q61 66 63 134z" />
    <glyph glyph-name="short_dash1" unicode="-" horiz-adv-x="344" 
d="M43 234h228v-47h-228v47z" />
    <glyph glyph-name="period" unicode="." horiz-adv-x="202" 
d="M152 46q0 33 -30 47q-10 5 -21 5q-33 0 -46 -30q-5 -11 -5 -22q0 -32 29 -46q11 -5 22 -5q32 0 46 29q5 11 5 22z" />
    <glyph glyph-name="slash" unicode="/" horiz-adv-x="411" 
d="M60 -155l341 865h-60l-341 -865h60z" />
    <glyph glyph-name="zero" unicode="0" horiz-adv-x="523" 
d="M265 540q-107 0 -169 -87q-51 -73 -51 -184q0 -169 97 -241q52 -38 119 -38q107 0 168 90q50 74 50 186q0 178 -105 244q-48 30 -109 30zM264 16q-90 0 -117 109q-14 56 -14 141q0 207 86 240q20 8 44 8q79 0 107 -79q20 -58 20 -166q0 -224 -96 -249q-14 -4 -30 -4z" />
    <glyph glyph-name="one" unicode="1" horiz-adv-x="418" 
d="M221 530l-201 -133l18 -29l156 100v-433l-137 -9v-26h346q0 22 -18 26q-4 1 -8 1l-103 8v495h-53z" />
    <glyph glyph-name="two" unicode="2" horiz-adv-x="468" 
d="M80 70q0 29 72 75q13 8 41 26q112 67 153 112q51 55 51 114q0 93 -93 128q-41 15 -92 15q-92 0 -145 -49q-36 -34 -36 -80q0 -41 30 -51q7 -2 13 -2q39 0 48 40q2 10 4 30q6 54 26 71q18 15 51 15q89 0 106 -82q3 -16 3 -34q0 -93 -85 -161q-9 -7 -90 -62
q-76 -51 -96 -99q-11 -27 -11 -56v-20h381l2 168h-19l-16 -54q-11 -35 -39 -42q-12 -2 -33 -2h-226z" />
    <glyph glyph-name="three" unicode="3" horiz-adv-x="498" 
d="M427 510v20h-372l-2 -165h23l18 56q11 33 42 38q7 1 15 2l179 -1l-181 -209l22 -18q36 15 71 15q70 0 101 -68q17 -36 17 -82q0 -142 -129 -152q-10 -1 -20 -1q-54 0 -66 49q-3 10 -5 31q-6 48 -23 61q-12 8 -31 8q-36 0 -44 -34q-2 -8 -2 -15q0 -67 75 -103
q48 -22 110 -22q119 0 181 82q38 50 38 110q0 79 -57 127q-47 39 -114 39q-32 0 -68 -8z" />
    <glyph glyph-name="four" unicode="4" horiz-adv-x="496" 
d="M456 -70q0 24 -13 26q-5 1 -11 1h-68v129h92v30h-92v196h-20l-10 -38q-8 -33 -23 -38q-7 -3 -17 -3h-6v-116l-234 1q313 259 314 375q-2 46 -45 47q-32 0 -50 -38q-6 -12 -17 -43q-42 -115 -102 -194q-58 -76 -144 -147l6 -30l272 -1v-130h-107v-27h275z" />
    <glyph glyph-name="five" unicode="5" horiz-adv-x="476" 
d="M441 115q0 90 -65 143q-52 42 -127 42q-75 -1 -130 -38v193q80 -8 135 -8q103 0 130 27q23 23 23 96h-24q-8 -33 -38 -41q-24 -7 -78 -7q-8 0 -181 7v-277l33 -25q47 38 107 38q97 0 124 -95q8 -28 8 -61q0 -111 -74 -149q-30 -15 -69 -15q-54 0 -65 48q-3 10 -5 32
q-5 48 -22 61q-12 8 -31 8q-42 -8 -47 -49q0 -56 58 -94q50 -31 119 -31q127 0 187 88q32 48 32 107z" />
    <glyph glyph-name="six" unicode="6" horiz-adv-x="506" 
d="M462 184q0 108 -85 159q-48 28 -107 28q-73 -1 -129 -43q10 173 60 225q31 31 79 31q59 0 72 -45q2 -9 5 -27q5 -40 22 -50q11 -6 26 -6q40 0 47 38q1 6 1 12q0 55 -66 85q-43 19 -97 19q-137 0 -200 -129q-40 -82 -40 -197q0 -193 100 -262q45 -32 109 -32q101 0 159 68
q44 52 44 126zM135 174q0 125 78 159q22 9 46 9q77 0 105 -75q12 -34 12 -79q0 -149 -92 -169q-13 -3 -27 -3q-82 0 -111 83q-11 34 -11 75z" />
    <glyph glyph-name="seven" unicode="7" horiz-adv-x="446" 
d="M456 510v20h-429l-2 -176h22l18 56q13 40 50 45q11 2 28 2h243q-199 -293 -237 -358q-52 -89 -52 -131q8 -44 49 -48q36 0 50 30q4 8 29 95q62 215 231 465z" />
    <glyph glyph-name="eight" unicode="8" horiz-adv-x="538" 
d="M255 -10q106 0 170 59q48 45 48 105q0 76 -86 133q-20 13 -48 29q86 43 98 127q2 11 2 22q0 88 -82 126q-41 19 -89 19q-103 0 -155 -63q-32 -39 -32 -93q0 -75 94 -133l24 -14q-106 -29 -132 -116q-7 -22 -7 -44q0 -94 89 -136q46 -21 106 -21zM159 490q0 66 69 86
q22 6 48 6q67 0 105 -47q24 -31 24 -71q0 -69 -58 -112q-17 -13 -36 -21q-92 48 -121 81q-31 36 -31 78zM94 149q0 65 59 107q34 24 79 33q93 -48 122 -75q41 -37 41 -84q0 -79 -84 -104q-29 -8 -63 -8q-83 0 -127 53q-27 33 -27 78z" />
    <glyph glyph-name="nine" unicode="9" horiz-adv-x="510" 
d="M460 245q0 180 -94 255q-51 40 -122 40q-107 0 -163 -73q-36 -48 -36 -111q0 -104 82 -152q46 -27 103 -27q81 1 140 50q-7 -280 -146 -281q-57 0 -69 44q-2 8 -4 26q-5 40 -21 50q-12 7 -29 7q-39 0 -46 -36q-1 -6 -1 -12q0 -55 62 -85q42 -20 96 -20q171 0 226 168
q22 69 22 157zM130 369q0 134 99 144q8 1 15 1q89 0 115 -91q8 -30 8 -65q0 -123 -88 -147q-17 -4 -37 -4q-111 2 -112 162z" />
    <glyph glyph-name="colon" unicode=":" horiz-adv-x="208" 
d="M153 335q0 32 -29 45q-10 4 -20 4q-32 0 -45 -29q-4 -10 -4 -20q0 -32 29 -45q10 -4 20 -4q32 0 45 29q4 10 4 20zM153 101q0 32 -29 45q-10 4 -20 4q-32 0 -45 -29q-4 -10 -4 -20q0 -32 29 -45q10 -4 20 -4q32 0 45 29q4 10 4 20z" />
    <glyph glyph-name="semicolon" unicode=";" horiz-adv-x="193" 
d="M148 282q0 32 -29 45q-10 4 -20 4q-32 0 -45 -29q-4 -10 -4 -20q0 -32 29 -45q10 -4 20 -4q32 0 45 29q4 10 4 20zM153 54q0 54 -40 64q-8 2 -15 2q-32 0 -44 -30q-4 -10 -4 -20q0 -32 32 -44q5 -1 8 -2q22 -6 23 -17q-1 -27 -44 -72l21 -15q61 66 63 134z" />
    <glyph glyph-name="less" unicode="&#x3c;" horiz-adv-x="462" 
d="M403 77l14 32l-316 127l316 128l-12 29l-360 -144v-28z" />
    <glyph glyph-name="equal" unicode="=" horiz-adv-x="469" 
d="M424 271v36h-379v-36h379zM424 161v36h-379v-36h379z" />
    <glyph glyph-name="greater" unicode="&#x3e;" horiz-adv-x="462" 
d="M59 393l-14 -32l316 -127l-316 -128l12 -29l360 144v28z" />
    <glyph glyph-name="question" unicode="?" horiz-adv-x="457" 
d="M223 167q0 85 68 153q11 11 34 31q55 49 69 79q11 24 11 50q0 93 -99 121q-34 9 -74 9q-95 0 -144 -46q-27 -26 -28 -58q2 -52 49 -53q37 0 45 36q2 8 4 24q5 47 23 60q16 11 42 11q79 0 85 -68q1 -8 1 -16q0 -61 -42 -128q-43 -67 -53 -92q-21 -52 -21 -113h30zM259 46
q0 33 -30 47q-10 5 -21 5q-33 0 -46 -30q-5 -11 -5 -22q0 -32 29 -46q11 -5 22 -5q32 0 46 29q5 11 5 22z" />
    <glyph glyph-name="at" unicode="@" horiz-adv-x="891" 
d="M666 -118l-12 25q-87 -42 -176 -42q-142 0 -238 97q-100 100 -100 255q0 151 86 246q85 92 223 92q125 0 211 -87q96 -98 96 -263q0 -120 -66 -158q-20 -12 -42 -12q-51 2 -52 61v182q-2 136 -149 137q-104 0 -138 -49q-9 -15 -9 -29q6 -30 35 -34q32 0 41 30q1 4 3 11
q8 34 27 42q13 6 31 6q83 -2 84 -93v-57q-186 -1 -229 -66q-17 -25 -17 -61q0 -76 69 -98q21 -6 44 -6q67 0 111 48q14 15 21 32q9 -57 74 -75q21 -6 45 -6q84 0 136 63q46 55 46 142q0 196 -136 297q-96 71 -227 71q-210 0 -318 -147q-75 -103 -75 -244q0 -167 121 -270
q110 -93 264 -93q113 0 216 53zM418 47q-44 0 -59 46q-6 18 -6 38q0 74 122 84q22 2 46 2v-70q-15 -65 -66 -91q-19 -9 -37 -9z" />
    <glyph glyph-name="A" unicode="A" horiz-adv-x="613" 
d="M613 0q0 22 -16 25q-5 1 -10 1h-34l-229 574h-37l-224 -574h-63v-26h178q0 22 -16 25q-5 1 -10 1h-49l75 194h209l75 -194h-65v-26h216zM376 249h-187l93 242z" />
    <glyph glyph-name="B" unicode="B" horiz-adv-x="589" 
d="M506 464q0 76 -72 113q-47 23 -113 23h-281v-26h80v-548h-80v-26h284q129 0 189 82q31 43 31 94q0 80 -71 124q-33 19 -76 27q72 27 99 91q10 24 10 46zM297 574q103 0 117 -91q2 -13 2 -27q0 -65 -51 -98q-30 -19 -70 -19h-89v235h91zM314 312q91 0 122 -77
q12 -28 12 -61q0 -77 -50 -120q-33 -28 -79 -28h-113v286h108z" />
    <glyph glyph-name="C" unicode="C" horiz-adv-x="624" 
d="M548 46q0 -42 12 -48q7 -3 19 -3v189h-24q-51 -165 -204 -166q-130 0 -177 131q-23 64 -23 151q0 187 103 254q45 28 100 28q125 0 181 -118q10 -21 17 -43h24l-3 184q-22 0 -27 -14q-3 -12 -3 -39q-29 29 -99 47q-46 11 -94 11q-158 0 -242 -117q-58 -83 -58 -191
q0 -131 81 -220q86 -92 224 -92q101 1 193 56z" />
    <glyph glyph-name="D" unicode="D" horiz-adv-x="679" 
d="M40 600v-26h80v-548h-80v-26h276q135 0 222 84q86 83 86 216q0 172 -126 252q-77 48 -179 48h-279zM316 574q158 0 197 -144q15 -53 15 -126q0 -249 -170 -275q-19 -3 -39 -3h-113v548h110z" />
    <glyph glyph-name="E" unicode="E" horiz-adv-x="556" 
d="M506 420l-5 180h-461v-26h80v-548h-80v-26h461l5 180h-20l-14 -47q-25 -85 -74 -102q-15 -5 -32 -5h-160v269h206v29h-206v250h160q72 0 103 -97q2 -6 3 -10l14 -47h20z" />
    <glyph glyph-name="F" unicode="F" horiz-adv-x="516" 
d="M326 0v26h-120v269h206v29h-206v250h160q72 0 103 -97q2 -6 3 -10l14 -47h20l-5 180h-461v-26h80v-548h-80v-26h286z" />
    <glyph glyph-name="G" unicode="G" horiz-adv-x="694" 
d="M415 270v-26h90v-156q-50 -60 -134 -67q-8 -1 -16 -1q-199 2 -200 280q0 238 144 276q25 6 53 6q103 0 149 -57q30 -39 54 -122h26l-5 194l-87 -18q-63 31 -134 31q-120 0 -206 -79q-94 -87 -94 -227q0 -160 114 -250q83 -64 186 -64q75 0 136 33q8 4 13 8l85 -31v244h75
v26h-249z" />
    <glyph glyph-name="H" unicode="H" horiz-adv-x="718" 
d="M285 0q0 22 -16 25q-5 1 -10 1h-53v269h307v-269h-80v-26h245q0 22 -16 25q-5 1 -10 1h-53v548h79v26h-245v-26h80v-250h-307v250h79v26h-245v-26h80v-548h-80v-26h245z" />
    <glyph glyph-name="I" unicode="I" horiz-adv-x="325" 
d="M285 0q0 22 -16 25q-5 1 -10 1h-53v548h79v26h-245v-26h80v-548h-80v-26h245z" />
    <glyph glyph-name="J" unicode="J" horiz-adv-x="365" 
d="M330 574v26h-256v-26h90v-412q0 -123 -31 -147q-12 -8 -27 -8q-27 0 -36 31q-11 35 -15 41q-12 16 -36 16q-31 0 -41 -29q-3 -8 -3 -15q0 -40 52 -59q28 -10 62 -10q86 0 130 68q31 49 31 122v402h80z" />
    <glyph glyph-name="K" unicode="K" horiz-adv-x="634" 
d="M285 0q0 22 -16 25q-5 1 -10 1h-53v233l52 49l237 -308h139q0 22 -16 25q-5 1 -10 1h-27l-261 340l178 166q37 35 56 40q9 2 19 2q22 0 25 16q1 5 1 10h-180v-26h80l-293 -270v270h79v26h-245v-26h80v-548h-80v-26h245z" />
    <glyph glyph-name="L" unicode="L" horiz-adv-x="493" 
d="M478 0l5 200h-20l-17 -67q-24 -92 -80 -105q-12 -2 -23 -2h-137v548h84v26h-250v-26h80v-548h-80v-26h438z" />
    <glyph glyph-name="M" unicode="M" horiz-adv-x="811" 
d="M781 600h-160l-216 -489l-232 489h-143v-26h80v-548h-80v-26h200q0 22 -16 25q-5 1 -10 1h-54v430l219 -461h21l231 515v-484h-80v-26h240q0 22 -16 25q-5 1 -10 1h-54v548h80v26z" />
    <glyph glyph-name="N" unicode="N" horiz-adv-x="669" 
d="M454 574h85v-448l-380 474h-139v-26h80v-548h-80v-26h205q0 22 -16 25q-5 1 -10 1h-59v463l393 -494l46 10v569h80v26h-205v-26z" />
    <glyph glyph-name="O" unicode="O" horiz-adv-x="705" 
d="M355 610q-120 0 -206 -79q-94 -87 -94 -227q0 -162 111 -250q81 -64 186 -64q118 0 203 80q95 89 95 230q0 165 -115 251q-78 59 -180 59zM355 18q-145 0 -186 155q-14 55 -14 127q0 238 144 276q25 6 53 6q197 -2 198 -278q0 -218 -121 -271q-34 -15 -74 -15z" />
    <glyph glyph-name="P" unicode="P" horiz-adv-x="562" 
d="M315 574q89 0 115 -80q8 -26 8 -56q0 -130 -116 -143q-12 -1 -24 -1h-92v280h109zM306 0q0 22 -16 25q-5 1 -10 1h-74v239h88q164 0 217 93q21 35 21 81q0 99 -86 139q-46 22 -110 22h-296v-26h80v-548h-80v-26h266z" />
    <glyph glyph-name="Q" unicode="Q" horiz-adv-x="707" 
d="M357 610q-121 0 -207 -80q-93 -87 -93 -229q0 -156 109 -245q82 -66 188 -66q39 0 81 11q46 -78 67 -100q39 -40 83 -41q81 2 132 116l-21 12q-53 -62 -99 -63q-41 0 -92 63q-7 9 -23 30q112 52 152 171q18 53 18 114q0 160 -112 246q-80 61 -183 61zM342 119
q-57 -1 -101 -64q-84 68 -84 246q0 241 150 276q24 5 49 5q161 0 190 -189q6 -41 6 -88q-1 -192 -94 -257q-59 70 -116 71zM354 18q-51 0 -90 21q38 44 75 45q40 -1 78 -56q-28 -10 -63 -10z" />
    <glyph glyph-name="R" unicode="R" horiz-adv-x="612" 
d="M285 0v26h-79v249h95l160 -275h151q0 22 -12 25q-5 1 -12 1h-38l-161 258q95 23 130 99q13 30 13 61q0 75 -65 120q-53 36 -131 36h-296v-26h80v-548h-80v-26h245zM306 574q86 0 119 -70q13 -29 13 -61q0 -72 -50 -112q-34 -27 -79 -27h-103v270h100z" />
    <glyph glyph-name="S" unicode="S" horiz-adv-x="536" 
d="M486 157q0 89 -96 143q-19 10 -117 53q-89 38 -112 78q-12 22 -12 47q0 67 65 93q28 11 62 11q84 0 128 -57q29 -39 28 -95h30v175q-24 0 -28 -15q-2 -7 -2 -19q-71 39 -160 39q-108 0 -168 -60q-40 -42 -40 -98q0 -84 94 -137q17 -9 114 -51q90 -40 114 -81
q13 -23 13 -50q0 -70 -68 -101q-32 -14 -71 -14q-153 2 -170 187h-30v-207q24 0 28 14q2 8 2 29q77 -51 175 -51q115 0 178 62q43 44 43 105z" />
    <glyph glyph-name="T" unicode="T" horiz-adv-x="574" 
d="M422 0q0 22 -16 25q-5 1 -10 1h-68v548h58q81 0 108 -98q0 -4 1 -6l16 -67h28l-5 197h-494l-5 -197h28l16 67q32 98 109 104h54v-548h-95v-26h275z" />
    <glyph glyph-name="U" unicode="U" horiz-adv-x="632" 
d="M10 574h80v-349q2 -234 233 -235q176 0 213 144q11 44 11 100v340h80v26h-195v-26h80v-346q0 -194 -144 -209q-12 -1 -24 -1q-122 0 -154 103q-14 45 -14 110v343h79v26h-245v-26z" />
    <glyph glyph-name="V" unicode="V" horiz-adv-x="577" 
d="M321 -5l206 579h50v26h-168v-26h80l-167 -472l-181 472h80v26h-226v-26h60l190 -505q22 -59 38 -68q10 -6 26 -6h12z" />
    <glyph glyph-name="W" unicode="W" horiz-adv-x="831" 
d="M583 0l198 574h50v26h-162v-26h80l-157 -472l-161 472h81v26h-172l68 -192l-105 -304l-169 470h81v26h-220v-26h59l184 -514q20 -57 36 -63q6 -2 12 -2h8l130 367l107 -302q18 -51 29 -57q6 -3 15 -3h8z" />
    <glyph glyph-name="X" unicode="X" horiz-adv-x="605" 
d="M195 0v26h-80l171 236l159 -236h-73v-26h233q0 22 -16 25q-5 1 -10 1h-32l-206 305l155 215q19 26 43 28h11q22 0 25 16q1 5 1 10h-174v-26h80l-157 -219l-148 219h72v26h-234v-26h62l192 -286l-171 -234q-21 -28 -62 -28q-22 0 -25 -16q-1 -5 -1 -10h185z" />
    <glyph glyph-name="Y" unicode="Y" horiz-adv-x="554" 
d="M403 0q0 22 -16 25q-5 1 -10 1h-54v223l151 297q23 27 54 28q22 0 25 16q1 5 1 10h-178v-26h80l-152 -291l-159 291h76v26h-226v-26h55l188 -335v-213h-80v-26h245z" />
    <glyph glyph-name="Z" unicode="Z" horiz-adv-x="550" 
d="M518 0l2 207h-22l-21 -96q-21 -84 -98 -85h-247l383 553v21h-445l-9 -181h20l39 90q30 64 81 65h218l-394 -554v-20h493z" />
    <glyph glyph-name="bracketleft" unicode="[" horiz-adv-x="350" 
d="M330 -136h-240v781h240v-28h-161v-723l161 -2v-28z" />
    <glyph glyph-name="backslash" unicode="\" horiz-adv-x="407" 
d="M322 -155l-341 865h60l341 -865h-60z" />
    <glyph glyph-name="bracketright" unicode="]" horiz-adv-x="363" 
d="M33 -136h240v781h-240v-28h161v-723l-161 -2v-28z" />
    <glyph glyph-name="asciicircum" unicode="^" horiz-adv-x="558" 
d="M90 332l28 -18l161 261l161 -261l28 18l-180 292h-18z" />
    <glyph glyph-name="underscore" unicode="_" horiz-adv-x="480" 
d="M10 -65h460v40h-460v-40z" />
    <glyph glyph-name="grave" unicode="`" horiz-adv-x="500" 
d="M338 500q-26 28 -76 107q-17 26 -26 36q-14 13 -29 13q-27 0 -41 -26q-5 -9 -5 -19q1 -15 13 -28q10 -10 81 -53q41 -26 68 -47z" />
    <glyph glyph-name="a" unicode="a" horiz-adv-x="482" 
d="M391 -10q77 0 85 93q1 6 1 11l-26 1q-7 -73 -39 -74q-26 2 -27 52v211q0 143 -143 151h-18q-112 0 -150 -52q-12 -17 -12 -34q0 -31 29 -36q5 -1 10 -1q23 0 34 29q14 37 19 44q19 25 59 25q94 -6 97 -103v-63q-235 0 -269 -98q-6 -19 -6 -41q0 -76 67 -104
q27 -11 57 -11q73 0 123 50q18 19 27 40q12 -89 82 -90zM192 30q-61 0 -75 61q-3 14 -3 31q0 67 77 85q41 9 119 10v-80q-15 -69 -73 -97q-23 -10 -45 -10z" />
    <glyph glyph-name="b" unicode="b" horiz-adv-x="550" 
d="M306 -10q88 0 148 66q56 64 56 162q0 110 -60 172q-45 45 -111 45q-109 0 -155 -98q-5 -9 -8 -18v331h-150v-25h75v-540q0 -46 -26 -55q-15 -5 -49 -5v-25h126l9 66q43 -69 130 -75q8 -1 15 -1zM308 395q82 0 107 -100q10 -37 10 -84q0 -141 -76 -183q-24 -13 -53 -13
q-75 0 -106 80q-15 42 -15 97q0 121 60 175q32 28 73 28z" />
    <glyph glyph-name="c" unicode="c" horiz-adv-x="435" 
d="M40 208q0 -121 89 -181q55 -37 125 -37q104 0 157 73q12 17 19 34l-26 9q-37 -79 -122 -87q-8 -1 -16 -1q-71 0 -111 71q-30 54 -30 128q0 131 69 175q29 18 64 18q54 0 65 -42q2 -8 5 -25q6 -40 22 -50q10 -5 22 -6q34 -2 43 28q2 7 2 13q0 51 -65 84q-46 23 -100 23
q-134 0 -187 -109q-25 -52 -25 -118z" />
    <glyph glyph-name="d" unicode="d" horiz-adv-x="548" 
d="M381 0h143q0 22 -15 24q-4 1 -10 1h-50l-2 625h-170v-25h95v-244q-49 54 -132 54q-110 0 -166 -98q-34 -60 -34 -135q0 -124 78 -181q44 -31 97 -31q109 2 158 116zM125 214q0 141 76 183q24 13 53 13q73 0 104 -78q17 -42 17 -99q0 -120 -60 -174q-32 -29 -73 -29
q-82 0 -107 100q-10 37 -10 84z" />
    <glyph glyph-name="e" unicode="e" horiz-adv-x="464" 
d="M249 410q70 0 93 -59q8 -19 8 -41q0 -50 -48 -61q-25 -5 -71 -4l-106 3q5 115 75 150q23 12 49 12zM423 96l-25 9q-35 -76 -113 -86q-10 -1 -19 -1q-105 0 -132 125q-8 35 -9 77l120 -2q122 -2 157 23q27 20 27 57q0 68 -69 108q-49 29 -113 29q-125 0 -179 -104
q-28 -54 -28 -122q0 -124 89 -184q53 -35 121 -35q108 0 159 78q8 14 14 28z" />
    <glyph glyph-name="f" unicode="f" horiz-adv-x="304" 
d="M251 25h-70v375h115v25h-115v6q0 171 51 194q11 5 24 5q31 0 52 -37q18 -32 26 -38t18 -6q33 0 39 28q1 5 1 9q0 37 -50 58q-29 11 -65 11q-94 0 -140 -78q-31 -54 -31 -136v-16h-70v-25h70v-315q0 -46 -26 -55q-15 -5 -49 -5v-25h245q0 22 -15 24q-4 1 -10 1z" />
    <glyph glyph-name="g" unicode="g" horiz-adv-x="481" 
d="M130 277q2 132 100 133q98 -2 99 -133q-2 -136 -99 -137q-99 2 -100 137zM231 435q-90 0 -143 -58q-38 -43 -38 -101q0 -76 74 -126q7 -5 14 -9q-64 0 -80 -55q-3 -13 -3 -26q1 -53 43 -79q-33 -35 -33 -71q0 -55 65 -82q41 -18 101 -18q152 0 201 74q16 25 16 53
q0 86 -99 99q-13 2 -27 2l-182 4q-46 3 -47 40q0 26 33 33q7 1 15 1l88 -1q89 0 142 60q38 43 38 102q-1 75 -58 120q9 32 34 38q4 1 8 1q14 0 30 -15q11 -10 20 -10q25 6 29 32q0 31 -29 42q-11 4 -22 4q-47 0 -76 -42q-11 -16 -17 -35q-45 23 -97 23zM231 -164
q-99 0 -125 52q-7 14 -7 28q1 27 24 54q20 -4 33 -4l154 -2q75 -1 87 -34q3 -8 3 -20q0 -44 -82 -64q-40 -10 -87 -10z" />
    <glyph glyph-name="h" unicode="h" horiz-adv-x="571" 
d="M232 25h-50v216q0 91 63 132q26 17 54 17q61 0 85 -57q11 -27 11 -60v-188q0 -46 -22 -55q-14 -5 -48 -5v-25h220q0 22 -15 24q-4 1 -10 1h-50v248q0 109 -72 148q-28 14 -60 14q-74 0 -124 -54q-21 -23 -32 -52v321h-150v-25h75v-540q0 -46 -26 -55q-15 -5 -49 -5v-25
h225q0 22 -15 24q-4 1 -10 1z" />
    <glyph glyph-name="i" unicode="i" horiz-adv-x="290" 
d="M235 25h-50v400h-155v-25h80v-315q0 -46 -31 -56q-15 -4 -49 -4v-25h230q0 22 -15 24q-5 1 -10 1zM197 571q0 35 -31 50q-12 5 -23 5q-35 0 -50 -32q-5 -11 -5 -23q0 -37 33 -51q11 -4 22 -4q35 0 49 32q5 11 5 23z" />
    <glyph glyph-name="j" unicode="j" horiz-adv-x="266" 
d="M198 571q0 35 -31 50q-12 5 -23 5q-35 0 -50 -32q-5 -11 -5 -23q0 -37 33 -51q11 -4 22 -4q35 0 49 32q5 11 5 23zM33 425v-25h80v-468q-3 -96 -41 -97q-20 0 -27 27q-9 32 -17 39q-9 6 -20 6q-30 0 -37 -27q-1 -5 -1 -9q0 -35 43 -53q20 -8 41 -8q69 0 107 62
q27 46 27 115v438h-155z" />
    <glyph glyph-name="k" unicode="k" horiz-adv-x="500" 
d="M226 25h-45v148l55 51l141 -224h133q0 22 -15 24q-4 1 -10 1h-36l-161 248l94 88q35 33 53 37q8 2 18 2q22 0 24 15q1 5 1 10h-170v-25h75l-202 -187v437h-150v-25h75v-540q0 -46 -26 -55q-15 -5 -49 -5v-25h220q0 22 -15 24q-4 1 -10 1z" />
    <glyph glyph-name="l" unicode="l" horiz-adv-x="289" 
d="M237 25h-54v625h-150v-25h75v-540q0 -46 -26 -55q-15 -5 -49 -5v-25h229q0 22 -15 24q-4 1 -10 1z" />
    <glyph glyph-name="m" unicode="m" horiz-adv-x="816" 
d="M225 25h-45v216q3 88 61 131q27 20 54 20q50 0 69 -55q8 -24 8 -54v-198q0 -46 -22 -55q-14 -5 -48 -5v-25h215q0 22 -15 24q-4 1 -10 1h-45v248v8q16 73 71 102q21 10 40 10q51 0 72 -53q10 -25 10 -57v-198q0 -46 -22 -55q-14 -5 -48 -5v-25h221q0 22 -15 24
q-4 1 -10 1h-51v248q0 103 -67 144q-30 18 -65 18q-76 0 -122 -71q-12 -18 -20 -38q-18 79 -79 102q-18 7 -37 7q-72 0 -119 -61q-17 -22 -27 -49l-4 100h-145v-25h75v-315q0 -46 -26 -55q-15 -5 -49 -5v-25h220q0 21 -15 24q-5 1 -10 1z" />
    <glyph glyph-name="n" unicode="n" horiz-adv-x="568" 
d="M225 25h-45v216q3 93 66 134q27 17 55 17q61 0 83 -57q9 -23 9 -52v-198q0 -46 -26 -55q-15 -5 -49 -5v-25h225q0 22 -15 24q-4 1 -10 1h-50v248q0 100 -69 143q-32 19 -69 19q-74 0 -122 -59q-18 -23 -29 -51l-4 100h-145v-25h75v-315q0 -46 -26 -55q-15 -5 -49 -5v-25
h220q0 22 -15 24q-4 1 -10 1z" />
    <glyph glyph-name="o" unicode="o" horiz-adv-x="513" 
d="M125 213q0 155 85 189q22 8 46 8q111 0 129 -140q3 -24 3 -53q0 -168 -92 -197q-18 -5 -37 -5q-101 0 -127 120q-7 35 -7 78zM259 435q-96 0 -160 -66q-59 -61 -59 -152q0 -126 92 -189q56 -38 124 -38q96 0 159 68q58 62 58 155q0 126 -93 187q-55 35 -121 35z" />
    <glyph glyph-name="p" unicode="p" horiz-adv-x="550" 
d="M176 -165v207q55 -48 127 -52q89 0 149 67q58 65 58 165q0 114 -63 173q-44 40 -107 40q-97 0 -145 -77q-12 -20 -20 -42l-5 109h-144v-25h75v-505q0 -46 -26 -55q-15 -5 -49 -5v-25h245q0 22 -15 24q-4 1 -10 1h-70zM308 395q87 0 110 -109q7 -33 7 -74q0 -147 -79 -186
q-23 -11 -50 -11q-77 0 -106 81q-15 41 -15 97q0 130 67 180q30 22 66 22z" />
    <glyph glyph-name="q" unicode="q" horiz-adv-x="550" 
d="M40 195q0 -124 82 -178q41 -27 92 -27q88 0 140 71q12 18 21 37l-1 -203q0 -44 -29 -54q-19 -6 -66 -6v-25h246q0 22 -15 24q-4 1 -10 1h-51v565h75v25h-140l-5 -43q-55 53 -137 53q-93 0 -151 -72q-51 -65 -51 -168zM375 232q0 -139 -72 -185q-27 -17 -59 -17
q-87 0 -111 105q-8 34 -8 78q0 143 76 184q24 13 54 13q94 0 115 -114q5 -29 5 -64z" />
    <glyph glyph-name="r" unicode="r" horiz-adv-x="393" 
d="M254 25h-72v199q0 91 56 146q22 21 37 22q17 0 31 -25q16 -28 30 -32q6 -2 12 -2q30 0 38 29q2 6 2 12q0 45 -46 55q-10 2 -19 2q-60 0 -107 -51q-22 -24 -35 -54l-4 99h-145v-25h75v-315q0 -46 -26 -55q-15 -5 -49 -5v-25h247q0 22 -15 24q-4 1 -10 1z" />
    <glyph glyph-name="s" unicode="s" horiz-adv-x="400" 
d="M190 17q69 0 93 42q9 15 9 33q0 42 -61 72q-13 7 -43 20q-82 34 -109 64q-29 33 -29 77q0 69 76 97q35 13 76 13q66 0 114 -28q0 29 14 33q6 1 13 1v-125h-26q-2 92 -102 93q-75 0 -93 -44q-5 -12 -5 -25q0 -43 62 -73q14 -7 44 -19q81 -33 108 -63q29 -32 29 -76
q0 -81 -86 -108q-33 -11 -72 -11q-72 1 -125 36q0 -26 -13 -30q-6 -1 -14 -1v152h28q2 -129 112 -130z" />
    <glyph glyph-name="t" unicode="t" horiz-adv-x="325" 
d="M20 400h70v-282q7 -125 115 -129q92 0 115 113v2l-27 5q-25 -83 -73 -90q-54 2 -55 77v304h155v25h-155v116l-75 -21v-95h-70v-25z" />
    <glyph glyph-name="u" unicode="u" horiz-adv-x="567" 
d="M515 25h-50v400h-157v-25h82v-216q0 -90 -63 -132q-28 -19 -58 -19q-82 0 -95 84q-2 14 -2 30v278h-152v-25h77v-238q1 -171 143 -172q75 0 123 61q18 23 29 51l7 -102h141q0 22 -15 24q-4 1 -10 1z" />
    <glyph glyph-name="v" unicode="v" horiz-adv-x="464" 
d="M197 400v25h-194v-25h45l122 -335q20 -56 44 -65q12 -5 30 -5h13l141 370q12 31 29 34q5 1 9 1q22 0 24 15q1 5 1 10h-154v-25h75l-127 -341l-128 341h70z" />
    <glyph glyph-name="w" unicode="w" horiz-adv-x="684" 
d="M204 400v25h-198v-25h45l125 -335q21 -57 43 -66q11 -4 27 -4h20l87 262l67 -192q19 -56 39 -66q10 -4 27 -4h16l121 369q10 31 24 35q5 1 11 1q22 0 25 14q1 5 1 11h-148v-25h70l-111 -345l-117 345h70v25h-154l45 -127l-83 -246l-127 348h75z" />
    <glyph glyph-name="x" unicode="x" horiz-adv-x="434" 
d="M1 0h155v25h-75l119 157l109 -157h-61v-25h186q0 22 -15 24q-4 1 -10 1h-19l-138 202l103 143q19 27 50 31q16 1 19 11q1 5 1 13h-150v-25h70l-108 -150l-103 150h66v25h-200v-25h49l135 -195l-115 -150q-20 -26 -50 -30q-15 -2 -17 -12q-1 -6 -1 -13z" />
    <glyph glyph-name="y" unicode="y" horiz-adv-x="484" 
d="M103 -159q-16 0 -24 24q-11 30 -21 37q-9 6 -21 6q-32 0 -37 -28q-1 -4 -1 -7q0 -38 44 -55q20 -8 42 -8q79 0 137 97q24 39 46 93l148 365q10 28 22 32q7 2 16 2q20 0 23 11q2 6 2 15h-152v-26h73l-128 -320l-137 320h67v26h-195v-26h49l180 -399q-56 -132 -105 -153
q-14 -6 -28 -6z" />
    <glyph glyph-name="z" unicode="z" horiz-adv-x="422" 
d="M115 26l271 383v21h-338l-9 -130h15l24 55q22 48 64 49h161l-281 -382v-22h365l3 151h-14l-12 -55q-11 -55 -51 -67q-9 -3 -18 -3h-180z" />
    <glyph glyph-name="braceleft" unicode="{" horiz-adv-x="400" 
d="M231 148v-151q0 -67 31 -87q29 -18 118 -18v-28q-126 0 -165 16q-52 22 -58 96q-1 14 -1 28v149q0 55 -26 73q-17 11 -50 18v21q56 12 69 41q7 18 7 50v149q0 91 47 118q37 21 154 22h23v-28q-98 0 -125 -23q-24 -22 -24 -82v-151q0 -64 -48 -91q-11 -6 -28 -13v-5
q49 -21 64 -47q12 -23 12 -57z" />
    <glyph glyph-name="bar" unicode="|" horiz-adv-x="277" 
d="M110 -136v786h57v-786h-57z" />
    <glyph glyph-name="braceright" unicode="}" horiz-adv-x="390" 
d="M169 359v151q0 67 -31 87q-29 18 -118 18v28q126 0 165 -16q52 -22 58 -96q1 -14 1 -28v-149q0 -55 26 -73q17 -11 50 -18v-21q-56 -12 -69 -41q-7 -18 -7 -50v-149q0 -91 -47 -118q-37 -21 -154 -22h-23v28q98 0 125 23q24 22 24 82v151q0 64 48 91q11 6 28 13v5
q-49 21 -64 47q-12 23 -12 57z" />
    <glyph glyph-name="asciitilde" unicode="~" horiz-adv-x="495" 
d="M160 309q37 0 106 -37q59 -31 85 -31q53 1 80 68l24 -8q-19 -88 -83 -111q-16 -6 -32 -6q-37 0 -111 37q-61 30 -89 30q-50 -2 -76 -66l-24 8q25 95 95 113q13 3 25 3z" />
    <glyph glyph-name="uni00A0" unicode="&#xa0;" horiz-adv-x="200" 
 />
    <glyph glyph-name="exclamdown" unicode="&#xa1;" horiz-adv-x="254" 
d="M90 263q0 -129 -25 -275q-13 -72 -13 -104q0 -59 43 -63q5 -1 9 -1q52 2 53 66q0 27 -17 132q-20 119 -20 245h-30zM55 384q0 -33 30 -47q10 -5 21 -5q33 0 46 30q5 11 5 22q0 32 -29 46q-11 5 -22 5q-32 0 -46 -29q-5 -11 -5 -22z" />
    <glyph glyph-name="cent" unicode="&#xa2;" horiz-adv-x="461" 
d="M40 273q0 -123 90 -182q46 -30 103 -35v-76h29v75q103 4 153 78q9 16 16 32l-26 6q-35 -76 -115 -87q-13 -2 -24 -2h-4v393q51 0 62 -41q2 -8 4 -25q5 -40 21 -50q10 -6 23 -7q34 -2 43 28q2 7 2 13q0 51 -65 84q-42 20 -90 23v70h-29v-71q-124 -8 -171 -116
q-22 -50 -22 -110zM125 282q0 131 69 175q18 12 39 16v-386q-64 19 -92 98q-16 44 -16 97z" />
    <glyph glyph-name="sterling" unicode="&#xa3;" horiz-adv-x="574" 
d="M549 150h-21q-31 -70 -129 -73q-68 0 -173 31q10 42 10 91q0 34 -6 101h155v29h-158q-8 78 -8 112q0 134 90 142h12q58 0 75 -49q3 -9 7 -28q9 -44 26 -55q12 -7 29 -7q37 0 48 35q3 9 3 19q0 62 -78 93q-46 19 -100 19q-134 0 -186 -89q-24 -42 -24 -96q0 -43 15 -96
h-72v-29h81q31 -105 35 -129q5 -28 5 -52q-38 10 -58 10q-59 0 -74 -45q-3 -11 -3 -22q0 -38 35 -55q15 -7 32 -7q60 0 94 67q1 3 2 5q11 -6 34 -20q85 -51 133 -59q14 -2 27 -2q95 0 128 80q14 34 14 79zM116 28q-27 0 -33 25q-1 4 -1 8q0 29 28 38q8 2 15 2q28 0 57 -14
q-11 -45 -50 -56q-8 -3 -16 -3z" />
    <glyph glyph-name="currency" unicode="&#xa4;" horiz-adv-x="603" 
d="M297 110q-78 0 -124 60q-34 45 -34 111q0 102 75 147q38 22 82 22q77 0 122 -59q35 -46 35 -111q0 -104 -77 -149q-36 -21 -79 -21zM295 77q78 1 133 48l86 -87l24 24l-87 88q42 54 42 132q-1 74 -39 126l86 86l-24 25l-85 -86q-54 49 -133 49q-76 -1 -132 -47l-86 85
l-24 -24l86 -85q-43 -55 -43 -132q1 -81 44 -133l-85 -85l25 -24l84 84q55 -44 128 -44z" />
    <glyph glyph-name="yen" unicode="&#xa5;" horiz-adv-x="567" 
d="M411 0q0 23 -13 25q-6 1 -12 1h-53l2 194h136v29h-136l1 50h135v29h-124l130 218q13 21 27 25q12 3 32 3q19 7 21 26h-179v-26h81l-141 -236l-149 236h65v26h-214v-26h55l157 -246h-117v-29h136l-1 -50h-135v-29h135l-2 -194h-77v-26h240z" />
    <glyph glyph-name="brokenbar" unicode="&#xa6;" horiz-adv-x="277" 
d="M167 315v335h-57v-335h57zM167 -136v335h-57v-335h57z" />
    <glyph glyph-name="section" unicode="&#xa7;" horiz-adv-x="465" 
d="M123 323q2 44 53 62q19 -10 58 -28q80 -37 100 -61q13 -16 13 -34q-2 -44 -54 -64q-19 11 -58 29q-80 38 -99 62q-13 17 -13 34zM415 279q0 67 -85 113q-19 11 -61 30q-80 36 -101 60q-17 20 -17 43q0 39 39 58q20 10 44 10q60 0 74 -40q2 -6 5 -18q7 -31 22 -37
q9 -4 20 -4q31 2 32 39q0 48 -67 72q-36 12 -78 12q-92 0 -135 -51q-23 -28 -23 -66q1 -57 67 -101q-95 -22 -96 -94q0 -67 87 -116q20 -11 60 -30q79 -37 99 -61q14 -18 14 -37q0 -48 -44 -65q-17 -6 -37 -6q-59 0 -74 43q-2 6 -5 18q-8 31 -22 37q-7 3 -15 3
q-37 -3 -39 -39q0 -47 65 -72q37 -14 80 -14q92 0 135 50q24 28 24 66q-1 59 -66 102q91 28 98 95z" />
    <glyph glyph-name="dieresis" unicode="&#xa8;" horiz-adv-x="500" 
d="M209 571q0 33 -29 46q-10 4 -20 4q-34 0 -47 -30q-4 -10 -4 -20q0 -35 32 -47q9 -3 19 -3q33 0 45 31q4 9 4 19zM392 571q0 33 -30 46q-10 4 -20 4q-33 0 -46 -30q-4 -10 -4 -20q0 -35 31 -47q10 -3 19 -3q34 0 46 31q4 9 4 19z" />
    <glyph glyph-name="copyright" unicode="&#xa9;" horiz-adv-x="661" 
d="M616 275q0 126 -87 208q-80 76 -198 76q-135 0 -218 -95q-68 -79 -68 -189q0 -127 88 -209q81 -76 198 -76q133 0 215 94q70 80 70 191zM76 275q0 123 84 196q70 61 171 61q125 0 198 -90q57 -71 57 -167q0 -119 -82 -194q-71 -64 -173 -64q-126 0 -199 91
q-56 71 -56 167zM336 455q-99 0 -146 -83q-25 -44 -25 -98q0 -88 61 -138q45 -37 111 -37q90 0 131 67q5 8 8 15l-21 9q-32 -64 -103 -65q-65 0 -91 80q-11 35 -11 78q0 93 44 131q19 16 42 16q39 0 48 -34l3 -18q6 -36 22 -44q11 -5 24 -5q35 4 38 33q0 51 -61 78
q-34 15 -74 15z" />
    <glyph glyph-name="ordfeminine" unicode="&#xaa;" horiz-adv-x="311" 
d="M279 244v35h-252v-35h252zM113 362q-29 0 -33 36q-1 6 -1 11q0 47 75 53q12 1 23 1v-35q-15 -52 -50 -64q-7 -2 -14 -2zM291 395h-19q-4 -37 -20 -38q-15 2 -15 27v122q-2 93 -109 94q-67 0 -91 -35q-7 -11 -7 -23q2 -28 31 -29q26 0 33 25q7 28 11 33q10 9 26 9
q45 -2 46 -70v-27q-127 0 -153 -43q-9 -16 -9 -38q0 -52 48 -68q14 -4 29 -4q58 0 83 54q1 1 1 2q7 -47 49 -54q6 -1 12 -1q50 0 54 62v2z" />
    <glyph glyph-name="guillemotleft" unicode="&#xab;" horiz-adv-x="414" 
d="M219 378l-18 17q-19 -20 -136 -133q-19 -18 -27 -27q-13 -15 -13 -30q1 -18 13 -32q7 -8 111 -107q32 -30 52 -50l18 16q-15 20 -93 145q-11 17 -18 28q9 14 32 51q54 88 79 122zM389 378l-18 17q-19 -20 -136 -133q-19 -18 -27 -27q-13 -15 -13 -30q1 -18 13 -32
q7 -8 111 -107q32 -30 52 -50l18 16q-15 20 -93 145q-11 17 -18 28q9 14 32 51q54 88 79 122z" />
    <glyph glyph-name="logicalnot" unicode="&#xac;" horiz-adv-x="492" 
d="M402 118h45v214h-402v-36h357v-178z" />
    <glyph glyph-name="uni00AD" unicode="&#xad;" horiz-adv-x="380" 
d="M50 200h280v40h-280v-40z" />
    <glyph glyph-name="registered" unicode="&#xae;" horiz-adv-x="395" 
d="M370 473q0 86 -66 135q-47 34 -106 34q-91 0 -141 -68q-32 -44 -32 -101q0 -88 68 -137q46 -32 105 -32q90 0 140 67q32 45 32 102zM49 473q0 79 62 122q39 27 87 27q77 -1 120 -61q28 -39 28 -88q0 -80 -62 -123q-38 -26 -86 -26q-78 0 -121 60q-28 39 -28 89zM305 376
q-2 13 -12 14h-9l-48 76q45 14 46 55q0 35 -41 47q-15 5 -33 5l-102 1v-15h23v-169h-23v-15h93v15h-25v73h21l48 -89zM174 559h25q26 0 32 -28q1 -5 1 -10q0 -33 -25 -40q-4 -1 -8 -1h-25v79z" />
    <glyph glyph-name="macron" unicode="&#xaf;" horiz-adv-x="500" 
d="M100 540h300v50h-300v-50z" />
    <glyph glyph-name="degree" unicode="&#xb0;" horiz-adv-x="298" 
d="M79 542q0 45 37 66q16 9 33 9q40 0 60 -37q10 -18 10 -38q0 -43 -38 -62q-15 -8 -32 -8q-43 0 -62 37q-8 16 -8 33zM248 542q0 54 -45 84q-25 17 -54 17q-53 0 -83 -46q-16 -26 -16 -55q0 -54 46 -82q25 -14 53 -14q55 0 84 45q15 24 15 51z" />
    <glyph glyph-name="plusminus" unicode="&#xb1;" horiz-adv-x="469" 
d="M424 256v36h-167v138h-45v-138h-167v-36h167v-138h45v138h167zM424 36v36h-379v-36h379z" />
    <glyph glyph-name="twosuperior" unicode="&#xb2;" horiz-adv-x="339" 
d="M76 385q0 18 54 46q78 41 99 57q46 37 47 78q0 64 -74 83q-23 6 -49 6q-75 0 -108 -39q-15 -18 -15 -40q2 -33 34 -34q33 0 36 30q1 4 2 14q1 35 17 43q11 6 27 6q47 0 53 -41q2 -10 2 -22q0 -56 -59 -100q-9 -7 -28 -20q-55 -37 -71 -63q-12 -22 -12 -47v-13h252l1 106
h-12l-10 -25q-8 -21 -28 -24q-10 -1 -27 -1h-131z" />
    <glyph glyph-name="threesuperior" unicode="&#xb3;" horiz-adv-x="363" 
d="M292 636v13h-242l-2 -105h15l12 29q8 20 34 21h16h100l-109 -111l14 -12q21 10 43 10q61 -2 62 -75q-2 -99 -80 -100q-30 0 -36 32q-1 4 -2 14q-5 37 -21 44q-9 4 -19 4q-33 -6 -37 -35q0 -52 63 -70q24 -7 51 -7q76 0 122 45q32 32 32 76q0 59 -60 82q-25 9 -55 9
q-22 0 -39 -4z" />
    <glyph glyph-name="acute" unicode="&#xb4;" horiz-adv-x="500" 
d="M368 583q12 14 13 28q0 26 -27 40q-10 5 -19 5q-16 -1 -29 -13q-8 -8 -48 -71q-29 -45 -54 -72l16 -17q24 19 109 72q28 18 39 28z" />
    <glyph glyph-name="uni00B5" unicode="&#xb5;" horiz-adv-x="567" 
d="M171 -110q0 25 -16 154q34 -53 93 -54q70 0 120 70q14 20 24 42l7 -102h143q0 22 -12 25q-5 1 -12 1h-53v399h-157v-26h82v-215q-3 -93 -66 -134q-27 -17 -55 -17q-82 0 -95 84q-2 14 -2 30v278h-152v-26h77v-239q0 -56 -7 -195q-4 -65 -4 -77q5 -56 42 -59q42 2 43 61z
" />
    <glyph glyph-name="paragraph" unicode="&#xb6;" horiz-adv-x="515" 
d="M221 -113q98 0 155 65q47 55 47 142l-2 480h79v26h-202q-160 0 -220 -98q-28 -46 -28 -102q0 -102 80 -153q52 -32 126 -32h15v-167q0 -114 -21 -130q-7 -5 -19 -5q-25 0 -34 32q-13 42 -14 44q-15 26 -47 27q-38 0 -48 -34q-2 -8 -2 -16q0 -42 59 -65q34 -14 76 -14z
M350 70q0 -111 -43 -140q-12 -8 -27 -12q19 26 19 140v516h51v-504z" />
    <glyph glyph-name="periodcentered" unicode="&#xb7;" horiz-adv-x="307" 
d="M208 232q0 34 -31 49q-11 5 -23 5q-34 0 -49 -31q-5 -11 -5 -23q0 -34 31 -49q11 -5 23 -5q34 0 49 31q5 11 5 23z" />
    <glyph glyph-name="cedilla" unicode="&#xb8;" horiz-adv-x="500" 
d="M165 -85l14 -9q24 17 51 17q47 0 54 -43q1 -7 1 -14q0 -52 -40 -65q-10 -3 -19 -3q-40 1 -70 40l-16 -12q34 -52 104 -53q66 0 99 42q17 22 17 49q0 54 -56 76q-23 8 -47 8q-29 0 -52 -10l29 65h-25z" />
    <glyph glyph-name="onesuperior" unicode="&#xb9;" horiz-adv-x="287" 
d="M152 649l-132 -93l15 -22l95 65v-243l-82 -7v-20h224q0 17 -14 20q-4 0 -8 1l-52 6v293h-46z" />
    <glyph glyph-name="ordmasculine" unicode="&#xba;" horiz-adv-x="298" 
d="M82 465q0 104 54 111q5 1 10 1q55 0 63 -72q2 -16 2 -38q0 -102 -48 -112q-8 -2 -15 -2q-61 0 -66 93v19zM148 600q-69 0 -107 -51q-26 -35 -26 -82q0 -84 66 -121q31 -16 65 -16q67 0 105 51q27 36 27 84q0 85 -67 120q-30 15 -63 15zM21 244h252v35h-252v-35z" />
    <glyph glyph-name="guillemotright" unicode="&#xbb;" horiz-adv-x="414" 
d="M195 378l18 17q19 -20 136 -133q19 -18 27 -27q13 -15 13 -30q-1 -18 -13 -32q-7 -8 -111 -107q-32 -30 -52 -50l-18 16q15 20 93 145q11 17 18 28q-9 14 -32 51q-54 88 -79 122zM25 378l18 17q19 -20 136 -133q19 -18 27 -27q13 -15 13 -30q-1 -18 -13 -32
q-7 -8 -111 -107q-32 -30 -52 -50l-18 16q15 20 93 145q11 17 18 28q-9 14 -32 51q-54 88 -79 122z" />
    <glyph glyph-name="onequarter" unicode="&#xbc;" horiz-adv-x="724" 
d="M169 -29l437 639l-29 20l-438 -640zM172 609l-132 -93l15 -22l95 65v-243l-82 -7v-20h224q0 17 -14 20q-4 0 -8 1l-52 6v293h-46zM675 -45q0 18 -11 20q-4 1 -9 1h-46v74h66v23h-66v125h-15l-7 -18q-11 -28 -28 -32q-6 -2 -12 -2h-5v-73l-146 1q12 10 37 30
q177 142 177 197q-2 33 -34 34q-24 0 -39 -29q-3 -7 -11 -23q-40 -90 -103 -155q-27 -28 -59 -54l5 -23l173 -1v-74h-73v-21h206z" />
    <glyph glyph-name="onehalf" unicode="&#xbd;" horiz-adv-x="735" 
d="M169 -29l437 639l-29 20l-438 -640zM172 609l-132 -93l15 -22l95 65v-243l-82 -7v-20h224q0 17 -14 20q-4 0 -8 1l-52 6v293h-46zM476 56q0 18 54 46q78 41 99 57q46 37 47 78q0 64 -74 83q-23 6 -49 6q-75 0 -108 -39q-15 -18 -15 -40q2 -33 34 -34q33 0 36 30q1 4 2 14
q1 35 17 43q11 6 27 6q47 0 53 -41q2 -10 2 -22q0 -56 -59 -100q-9 -7 -28 -20q-55 -37 -71 -63q-12 -22 -12 -47v-13h252l1 106h-12l-10 -25q-8 -21 -28 -24q-10 -1 -27 -1h-131z" />
    <glyph glyph-name="threequarters" unicode="&#xbe;" horiz-adv-x="740" 
d="M292 596v13h-242l-2 -105h15l12 29q8 20 34 21h16h100l-109 -111l14 -12q21 10 43 10q61 -2 62 -75q-2 -99 -80 -100q-30 0 -36 32q-1 4 -2 14q-5 37 -21 44q-9 4 -19 4q-33 -6 -37 -35q0 -52 63 -70q24 -7 51 -7q76 0 122 45q32 32 32 76q0 59 -60 82q-25 9 -55 9
q-22 0 -39 -4zM185 -29l437 639l-29 20l-438 -640zM691 -45q0 18 -11 20q-4 1 -9 1h-46v74h66v23h-66v125h-15l-7 -18q-11 -28 -28 -32q-6 -2 -12 -2h-5v-73l-146 1q12 10 37 30q177 142 177 197q-2 33 -34 34q-24 0 -39 -29q-3 -7 -11 -23q-40 -90 -103 -155
q-27 -28 -59 -54l5 -23l173 -1v-74h-73v-21h206z" />
    <glyph glyph-name="questiondown" unicode="&#xbf;" horiz-adv-x="485" 
d="M225 263q0 -85 -68 -153q-11 -11 -34 -31q-55 -49 -69 -79q-11 -24 -11 -50q0 -93 99 -121q34 -9 74 -9q95 0 144 46q27 26 28 58q-2 52 -49 53q-37 0 -45 -36q-2 -8 -4 -24q-5 -47 -23 -60q-16 -11 -42 -11q-79 0 -85 68q-1 8 -1 16q0 61 42 128q43 67 53 92
q21 52 21 113h-30zM189 384q0 -33 30 -47q10 -5 21 -5q33 0 46 30q5 11 5 22q0 32 -29 46q-11 5 -22 5q-32 0 -46 -29q-5 -11 -5 -22z" />
    <glyph glyph-name="Agrave" unicode="&#xc0;" horiz-adv-x="613" 
d="M613 0q0 22 -16 25q-5 1 -10 1h-34l-229 574h-37l-224 -574h-63v-26h178q0 22 -16 25q-5 1 -10 1h-49l75 194h209l75 -194h-65v-26h216zM376 249h-187l93 242zM390 630q-26 28 -76 107q-17 26 -26 36q-14 13 -29 13q-27 0 -41 -26q-5 -9 -5 -19q1 -15 13 -28
q10 -10 81 -53q41 -26 68 -47z" />
    <glyph glyph-name="Aacute" unicode="&#xc1;" horiz-adv-x="613" 
d="M613 0q0 22 -16 25q-5 1 -10 1h-34l-229 574h-37l-224 -574h-63v-26h178q0 22 -16 25q-5 1 -10 1h-49l75 194h209l75 -194h-65v-26h216zM376 249h-187l93 242zM395 713q12 14 13 28q0 26 -27 40q-10 5 -19 5q-16 -1 -29 -13q-8 -8 -48 -71q-29 -45 -54 -72l16 -17
q24 19 109 72q28 18 39 28z" />
    <glyph glyph-name="Acircumflex" unicode="&#xc2;" horiz-adv-x="613" 
d="M613 0q0 22 -16 25q-5 1 -10 1h-34l-229 574h-37l-224 -574h-63v-26h178q0 22 -16 25q-5 1 -10 1h-49l75 194h209l75 -194h-65v-26h216zM376 249h-187l93 242zM426 629l12 16q-23 25 -55 65q-40 49 -58 58q-10 5 -21 5q-26 0 -56 -36q-7 -8 -22 -27q-32 -41 -54 -66
l12 -14q57 37 122 70q76 -40 120 -71z" />
    <glyph glyph-name="Atilde" unicode="&#xc3;" horiz-adv-x="613" 
d="M613 0q0 22 -16 25q-5 1 -10 1h-34l-229 574h-37l-224 -574h-63v-26h178q0 22 -16 25q-5 1 -10 1h-49l75 194h209l75 -194h-65v-26h216zM376 249h-187l93 242zM256 763q30 0 71 -32q35 -27 54 -27q37 0 52 51l2 6l21 -5q-23 -106 -90 -107q-30 0 -70 32q-35 27 -56 27
q-35 0 -50 -47q-2 -5 -3 -10l-20 5q23 106 89 107z" />
    <glyph glyph-name="Adieresis" unicode="&#xc4;" horiz-adv-x="613" 
d="M613 0q0 22 -16 25q-5 1 -10 1h-34l-229 574h-37l-224 -574h-63v-26h178q0 22 -16 25q-5 1 -10 1h-49l75 194h209l75 -194h-65v-26h216zM376 249h-187l93 242zM264 701q0 33 -29 46q-10 4 -20 4q-34 0 -47 -30q-4 -10 -4 -20q0 -35 32 -47q9 -3 19 -3q33 0 45 31
q4 9 4 19zM447 701q0 33 -30 46q-10 4 -20 4q-33 0 -46 -30q-4 -10 -4 -20q0 -35 31 -47q10 -3 19 -3q34 0 46 31q4 9 4 19z" />
    <glyph glyph-name="Aring" unicode="&#xc5;" horiz-adv-x="613" 
d="M613 0q0 22 -16 25q-5 1 -10 1h-34l-222 557q62 9 81 61q5 16 5 32q0 57 -52 80q-23 9 -50 9q-75 0 -99 -52q-8 -18 -8 -38q0 -57 49 -82q12 -5 24 -8l-218 -559h-63v-26h178q0 22 -16 25q-5 1 -10 1h-49l75 194h209l75 -194h-65v-26h216zM376 249h-187l93 242zM262 673
q0 54 34 66q8 3 16 3q43 0 50 -51q1 -8 1 -16q0 -51 -32 -66q-9 -4 -19 -4q-44 0 -49 55q-1 7 -1 13z" />
    <glyph glyph-name="AE" unicode="&#xc6;" horiz-adv-x="870" 
d="M253 269l184 303v-303h-184zM186 0q0 23 -13 25q-5 1 -11 1h-57l130 214h202v-214h-83v-26h461l5 180h-20l-14 -47q-25 -85 -74 -102q-15 -5 -32 -5h-157v269h203v29h-203v250h157q72 0 103 -97q2 -6 3 -10l14 -47h20l-5 180h-403l-352 -574h-60v-26h186z" />
    <glyph glyph-name="Ccedilla" unicode="&#xc7;" horiz-adv-x="624" 
d="M548 46q0 -42 12 -48q7 -3 19 -3v189h-24q-51 -165 -204 -166q-130 0 -177 131q-23 64 -23 151q0 187 103 254q45 28 100 28q125 0 181 -118q10 -21 17 -43h24l-3 184q-22 0 -27 -14q-3 -12 -3 -39q-29 29 -99 47q-46 11 -94 11q-158 0 -242 -117q-58 -83 -58 -191
q0 -132 81 -220q68 -73 171 -88l-39 -79l14 -9q24 17 51 17q47 0 54 -43q1 -7 1 -14q0 -52 -40 -65q-10 -3 -19 -3q-40 1 -70 40l-16 -12q34 -52 104 -53q66 0 99 42q17 22 17 49q0 54 -56 76q-23 8 -47 8q-29 0 -52 -10l24 53q10 -1 28 -1q101 1 193 56z" />
    <glyph glyph-name="Egrave" unicode="&#xc8;" horiz-adv-x="556" 
d="M506 420l-5 180h-461v-26h80v-548h-80v-26h461l5 180h-20l-14 -47q-25 -85 -74 -102q-15 -5 -32 -5h-160v269h206v29h-206v250h160q72 0 103 -97q2 -6 3 -10l14 -47h20zM377 630q-26 28 -76 107q-17 26 -26 36q-14 13 -29 13q-27 0 -41 -26q-5 -9 -5 -19q1 -15 13 -28
q10 -10 81 -53q41 -26 68 -47z" />
    <glyph glyph-name="Eacute" unicode="&#xc9;" horiz-adv-x="556" 
d="M506 420l-5 180h-461v-26h80v-548h-80v-26h461l5 180h-20l-14 -47q-25 -85 -74 -102q-15 -5 -32 -5h-160v269h206v29h-206v250h160q72 0 103 -97q2 -6 3 -10l14 -47h20zM382 713q12 14 13 28q0 26 -27 40q-10 5 -19 5q-16 -1 -29 -13q-8 -8 -48 -71q-29 -45 -54 -72
l16 -17q24 19 109 72q28 18 39 28z" />
    <glyph glyph-name="Ecircumflex" unicode="&#xca;" horiz-adv-x="556" 
d="M506 420l-5 180h-461v-26h80v-548h-80v-26h461l5 180h-20l-14 -47q-25 -85 -74 -102q-15 -5 -32 -5h-160v269h206v29h-206v250h160q72 0 103 -97q2 -6 3 -10l14 -47h20zM413 629l12 16q-23 25 -55 65q-40 49 -58 58q-10 5 -21 5q-26 0 -56 -36q-7 -8 -22 -27
q-32 -41 -54 -66l12 -14q57 37 122 70q76 -40 120 -71z" />
    <glyph glyph-name="Edieresis" unicode="&#xcb;" horiz-adv-x="556" 
d="M506 420l-5 180h-461v-26h80v-548h-80v-26h461l5 180h-20l-14 -47q-25 -85 -74 -102q-15 -5 -32 -5h-160v269h206v29h-206v250h160q72 0 103 -97q2 -6 3 -10l14 -47h20zM251 701q0 33 -29 46q-10 4 -20 4q-34 0 -47 -30q-4 -10 -4 -20q0 -35 32 -47q9 -3 19 -3
q33 0 45 31q4 9 4 19zM434 701q0 33 -30 46q-10 4 -20 4q-33 0 -46 -30q-4 -10 -4 -20q0 -35 31 -47q10 -3 19 -3q34 0 46 31q4 9 4 19z" />
    <glyph glyph-name="Igrave" unicode="&#xcc;" horiz-adv-x="325" 
d="M285 0q0 22 -16 25q-5 1 -10 1h-53v548h79v26h-245v-26h80v-548h-80v-26h245zM250 630q-26 28 -76 107q-16 26 -26 36q-14 13 -29 13q-27 0 -41 -26q-5 -9 -5 -19q1 -15 13 -28q10 -10 81 -53q41 -26 68 -47z" />
    <glyph glyph-name="Iacute" unicode="&#xcd;" horiz-adv-x="325" 
d="M285 0q0 22 -16 25q-5 1 -10 1h-53v548h79v26h-245v-26h80v-548h-80v-26h245zM255 713q12 14 13 28q0 26 -27 40q-10 5 -19 5q-16 -1 -29 -13q-8 -8 -48 -71q-29 -45 -54 -72l16 -17q24 19 109 72q28 18 39 28z" />
    <glyph glyph-name="Icircumflex" unicode="&#xce;" horiz-adv-x="325" 
d="M285 0q0 22 -16 25q-5 1 -10 1h-53v548h79v26h-245v-26h80v-548h-80v-26h245zM286 629l12 16q-23 25 -55 65q-40 49 -58 58q-10 5 -21 5q-26 0 -56 -36q-7 -8 -22 -27q-32 -41 -54 -66l12 -14q57 37 122 70q76 -40 120 -71z" />
    <glyph glyph-name="Idieresis" unicode="&#xcf;" horiz-adv-x="325" 
d="M285 0q0 22 -16 25q-5 1 -10 1h-53v548h79v26h-245v-26h80v-548h-80v-26h245zM124 701q0 33 -29 46q-10 4 -20 4q-34 0 -47 -30q-4 -10 -4 -20q0 -35 32 -47q9 -3 19 -3q33 0 45 31q4 9 4 19zM307 701q0 33 -30 46q-10 4 -20 4q-33 0 -46 -30q-4 -10 -4 -20q0 -35 31 -47
q10 -3 19 -3q34 0 46 31q4 9 4 19z" />
    <glyph glyph-name="Eth" unicode="&#xd0;" horiz-adv-x="679" 
d="M40 600v-26h80v-244h-70v-40h70v-264h-80v-26h276q135 0 222 84q86 83 86 216q0 172 -126 252q-77 48 -179 48h-279zM316 574q158 0 197 -144q15 -53 15 -126q0 -249 -170 -275q-19 -3 -39 -3h-113v264h124v40h-124v244h110z" />
    <glyph glyph-name="Ntilde" unicode="&#xd1;" horiz-adv-x="669" 
d="M454 574h85v-448l-380 474h-139v-26h80v-548h-80v-26h205q0 22 -16 25q-5 1 -10 1h-59v463l393 -494l46 10v569h80v26h-205v-26zM288 763q30 0 71 -32q35 -27 54 -27q37 0 52 51l2 6l21 -5q-23 -106 -90 -107q-30 0 -70 32q-35 27 -56 27q-35 0 -50 -47q-2 -5 -3 -10
l-20 5q23 106 89 107z" />
    <glyph glyph-name="Ograve" unicode="&#xd2;" horiz-adv-x="705" 
d="M355 610q-120 0 -206 -79q-94 -87 -94 -227q0 -162 111 -250q81 -64 186 -64q118 0 203 80q95 89 95 230q0 165 -115 251q-78 59 -180 59zM355 18q-145 0 -186 155q-14 55 -14 127q0 238 144 276q25 6 53 6q197 -2 198 -278q0 -218 -121 -271q-34 -15 -74 -15zM438 630
q-26 28 -76 107q-17 26 -26 36q-14 13 -29 13q-27 0 -41 -26q-5 -9 -5 -19q1 -15 13 -28q10 -10 81 -53q41 -26 68 -47z" />
    <glyph glyph-name="Oacute" unicode="&#xd3;" horiz-adv-x="705" 
d="M355 610q-120 0 -206 -79q-94 -87 -94 -227q0 -162 111 -250q81 -64 186 -64q118 0 203 80q95 89 95 230q0 165 -115 251q-78 59 -180 59zM355 18q-145 0 -186 155q-14 55 -14 127q0 238 144 276q25 6 53 6q197 -2 198 -278q0 -218 -121 -271q-34 -15 -74 -15zM443 713
q12 14 13 28q0 26 -27 40q-10 5 -19 5q-16 -1 -29 -13q-8 -8 -48 -71q-29 -45 -54 -72l16 -17q24 19 109 72q28 18 39 28z" />
    <glyph glyph-name="Ocircumflex" unicode="&#xd4;" horiz-adv-x="705" 
d="M355 610q-120 0 -206 -79q-94 -87 -94 -227q0 -162 111 -250q81 -64 186 -64q118 0 203 80q95 89 95 230q0 165 -115 251q-78 59 -180 59zM355 18q-145 0 -186 155q-14 55 -14 127q0 238 144 276q25 6 53 6q197 -2 198 -278q0 -218 -121 -271q-34 -15 -74 -15zM474 629
l12 16q-23 25 -55 65q-40 49 -58 58q-10 5 -21 5q-26 0 -56 -36q-7 -8 -22 -27q-32 -41 -54 -66l12 -14q57 37 122 70q76 -40 120 -71z" />
    <glyph glyph-name="Otilde" unicode="&#xd5;" horiz-adv-x="705" 
d="M355 610q-120 0 -206 -79q-94 -87 -94 -227q0 -162 111 -250q81 -64 186 -64q118 0 203 80q95 89 95 230q0 165 -115 251q-78 59 -180 59zM355 18q-145 0 -186 155q-14 55 -14 127q0 238 144 276q25 6 53 6q197 -2 198 -278q0 -218 -121 -271q-34 -15 -74 -15zM304 763
q30 0 71 -32q35 -27 54 -27q37 0 52 51l2 6l21 -5q-23 -106 -90 -107q-30 0 -70 32q-35 27 -56 27q-35 0 -50 -47q-2 -5 -3 -10l-20 5q23 106 89 107z" />
    <glyph glyph-name="Odieresis" unicode="&#xd6;" horiz-adv-x="705" 
d="M355 610q-120 0 -206 -79q-94 -87 -94 -227q0 -162 111 -250q81 -64 186 -64q118 0 203 80q95 89 95 230q0 165 -115 251q-78 59 -180 59zM355 18q-145 0 -186 155q-14 55 -14 127q0 238 144 276q25 6 53 6q197 -2 198 -278q0 -218 -121 -271q-34 -15 -74 -15zM312 701
q0 33 -29 46q-10 4 -20 4q-34 0 -47 -30q-4 -10 -4 -20q0 -35 32 -47q9 -3 19 -3q33 0 45 31q4 9 4 19zM495 701q0 33 -30 46q-10 4 -20 4q-33 0 -46 -30q-4 -10 -4 -20q0 -35 31 -47q10 -3 19 -3q34 0 46 31q4 9 4 19z" />
    <glyph glyph-name="multiply" unicode="&#xd7;" horiz-adv-x="400" 
d="M327 79l28 28l-127 128l127 127l-27 27l-127 -127l-128 127l-28 -28l128 -127l-127 -127l27 -27l127 127z" />
    <glyph glyph-name="Oslash" unicode="&#xd8;" horiz-adv-x="705" 
d="M355 610q-120 0 -206 -79q-94 -87 -94 -227q0 -162 112 -251q21 -16 44 -28l-71 -180h60l62 158q48 -13 90 -13q118 0 203 80q95 89 95 230q0 166 -115 251q-21 16 -46 28l52 131h-60l-44 -111q-43 11 -82 11zM155 300q0 238 144 276q25 6 53 6q40 0 74 -12l-199 -504
q-72 70 -72 234zM355 18q-45 0 -81 16l200 507q76 -66 76 -237q0 -218 -121 -271q-34 -15 -74 -15z" />
    <glyph glyph-name="Ugrave" unicode="&#xd9;" horiz-adv-x="632" 
d="M10 574h80v-349q2 -234 233 -235q176 0 213 144q11 44 11 100v340h80v26h-195v-26h80v-346q0 -194 -144 -209q-12 -1 -24 -1q-122 0 -154 103q-14 45 -14 110v343h79v26h-245v-26zM422 630q-26 28 -76 107q-17 26 -26 36q-14 13 -29 13q-27 0 -41 -26q-5 -9 -5 -19
q1 -15 13 -28q10 -10 81 -53q41 -26 68 -47z" />
    <glyph glyph-name="Uacute" unicode="&#xda;" horiz-adv-x="632" 
d="M10 574h80v-349q2 -234 233 -235q176 0 213 144q11 44 11 100v340h80v26h-195v-26h80v-346q0 -194 -144 -209q-12 -1 -24 -1q-122 0 -154 103q-14 45 -14 110v343h79v26h-245v-26zM427 713q12 14 13 28q0 26 -27 40q-10 5 -19 5q-16 -1 -29 -13q-8 -8 -48 -71
q-29 -45 -54 -72l16 -17q24 19 109 72q28 18 39 28z" />
    <glyph glyph-name="Ucircumflex" unicode="&#xdb;" horiz-adv-x="632" 
d="M10 574h80v-349q2 -234 233 -235q176 0 213 144q11 44 11 100v340h80v26h-195v-26h80v-346q0 -194 -144 -209q-12 -1 -24 -1q-122 0 -154 103q-14 45 -14 110v343h79v26h-245v-26zM458 629l12 16q-23 25 -55 65q-40 49 -58 58q-10 5 -21 5q-26 0 -56 -36q-7 -8 -22 -27
q-32 -41 -54 -66l12 -14q57 37 122 70q76 -40 120 -71z" />
    <glyph glyph-name="Udieresis" unicode="&#xdc;" horiz-adv-x="632" 
d="M10 574h80v-349q2 -234 233 -235q176 0 213 144q11 44 11 100v340h80v26h-195v-26h80v-346q0 -194 -144 -209q-12 -1 -24 -1q-122 0 -154 103q-14 45 -14 110v343h79v26h-245v-26zM296 701q0 33 -29 46q-10 4 -20 4q-34 0 -47 -30q-4 -10 -4 -20q0 -35 32 -47q9 -3 19 -3
q33 0 45 31q4 9 4 19zM479 701q0 33 -30 46q-10 4 -20 4q-33 0 -46 -30q-4 -10 -4 -20q0 -35 31 -47q10 -3 19 -3q34 0 46 31q4 9 4 19z" />
    <glyph glyph-name="Yacute" unicode="&#xdd;" horiz-adv-x="554" 
d="M403 0q0 22 -16 25q-5 1 -10 1h-54v223l151 297q23 27 54 28q22 0 25 16q1 5 1 10h-178v-26h80l-152 -291l-159 291h76v26h-226v-26h55l188 -335v-213h-80v-26h245zM380 713q12 14 13 28q0 26 -27 40q-10 5 -19 5q-16 -1 -29 -13q-8 -8 -48 -71q-29 -45 -54 -72l16 -17
q24 19 109 72q28 18 39 28z" />
    <glyph glyph-name="Thorn" unicode="&#xde;" horiz-adv-x="585" 
d="M313 454q89 0 115 -80q8 -26 8 -56q0 -130 -116 -143q-12 -1 -24 -1h-92v280h109zM291 0q0 23 -13 25q-6 1 -12 1h-62v119h88q164 0 217 93q21 35 21 81q0 99 -86 139q-46 22 -110 22h-130v94h87v26h-256v-26h83v-548h-83v-26h256z" />
    <glyph glyph-name="germandbls" unicode="&#xdf;" horiz-adv-x="544" 
d="M524 119q0 70 -72 127q-11 9 -34 25q-55 39 -67 62q-8 15 -8 30q0 32 40 58q47 29 53 34q33 30 33 75q0 61 -68 95q-46 23 -105 23q-129 0 -171 -105q-18 -44 -18 -102v-16h-71v-26h71v-321q-2 -52 -76 -52v-26h151v431q0 162 70 189q17 7 40 7q63 0 88 -55
q10 -24 10 -52q0 -53 -45 -85q-6 -4 -17 -12q-40 -26 -50 -48q-6 -15 -6 -33q0 -58 66 -109q10 -8 31 -23q58 -42 73 -68q11 -19 11 -40q0 -64 -44 -83q-13 -6 -27 -6q-38 0 -54 38q-15 35 -19 40q-11 12 -27 12q-33 0 -38 -29q-1 -5 -1 -8q0 -42 62 -64q33 -11 72 -11
q76 0 119 50q28 33 28 78z" />
    <glyph glyph-name="agrave" unicode="&#xe0;" horiz-adv-x="482" 
d="M391 -10q77 0 85 93q1 6 1 11l-26 1q-7 -73 -39 -74q-26 2 -27 52v211q0 143 -143 151h-18q-112 0 -150 -52q-12 -17 -12 -34q0 -31 29 -36q5 -1 10 -1q23 0 34 29q14 37 19 44q19 25 59 25q94 -6 97 -103v-63q-235 0 -269 -98q-6 -19 -6 -41q0 -76 67 -104
q27 -11 57 -11q73 0 123 50q18 19 27 40q12 -89 82 -90zM192 30q-61 0 -75 61q-3 14 -3 31q0 67 77 85q41 9 119 10v-80q-15 -69 -73 -97q-23 -10 -45 -10zM326 500q-26 28 -76 107q-16 26 -26 36q-14 13 -29 13q-27 0 -41 -26q-5 -9 -5 -19q1 -15 13 -28q10 -10 81 -53
q41 -26 68 -47z" />
    <glyph glyph-name="aacute" unicode="&#xe1;" horiz-adv-x="482" 
d="M391 -10q77 0 85 93q1 6 1 11l-26 1q-7 -73 -39 -74q-26 2 -27 52v211q0 143 -143 151h-18q-112 0 -150 -52q-12 -17 -12 -34q0 -31 29 -36q5 -1 10 -1q23 0 34 29q14 37 19 44q19 25 59 25q94 -6 97 -103v-63q-235 0 -269 -98q-6 -19 -6 -41q0 -76 67 -104
q27 -11 57 -11q73 0 123 50q18 19 27 40q12 -89 82 -90zM192 30q-61 0 -75 61q-3 14 -3 31q0 67 77 85q41 9 119 10v-80q-15 -69 -73 -97q-23 -10 -45 -10zM331 583q12 14 13 28q0 26 -27 40q-10 5 -19 5q-16 -1 -29 -13q-8 -8 -48 -71q-29 -45 -54 -72l16 -17q24 19 109 72
q28 18 39 28z" />
    <glyph glyph-name="acircumflex" unicode="&#xe2;" horiz-adv-x="482" 
d="M391 -10q77 0 85 93q1 6 1 11l-26 1q-7 -73 -39 -74q-26 2 -27 52v211q0 143 -143 151h-18q-112 0 -150 -52q-12 -17 -12 -34q0 -31 29 -36q5 -1 10 -1q23 0 34 29q14 37 19 44q19 25 59 25q94 -6 97 -103v-63q-235 0 -269 -98q-6 -19 -6 -41q0 -76 67 -104
q27 -11 57 -11q73 0 123 50q18 19 27 40q12 -89 82 -90zM192 30q-61 0 -75 61q-3 14 -3 31q0 67 77 85q41 9 119 10v-80q-15 -69 -73 -97q-23 -10 -45 -10zM362 499l12 16q-23 25 -55 65q-40 49 -58 58q-10 5 -21 5q-26 0 -56 -36q-7 -8 -22 -27q-32 -41 -54 -66l12 -14
q57 37 122 70q76 -40 120 -71z" />
    <glyph glyph-name="atilde" unicode="&#xe3;" horiz-adv-x="482" 
d="M391 -10q77 0 85 93q1 6 1 11l-26 1q-7 -73 -39 -74q-26 2 -27 52v211q0 143 -143 151h-18q-112 0 -150 -52q-12 -17 -12 -34q0 -31 29 -36q5 -1 10 -1q23 0 34 29q14 37 19 44q19 25 59 25q94 -6 97 -103v-63q-235 0 -269 -98q-6 -19 -6 -41q0 -76 67 -104
q27 -11 57 -11q73 0 123 50q18 19 27 40q12 -89 82 -90zM192 30q-61 0 -75 61q-3 14 -3 31q0 67 77 85q41 9 119 10v-80q-15 -69 -73 -97q-23 -10 -45 -10zM192 633q30 0 71 -32q35 -27 54 -27q37 0 52 51l2 6l21 -5q-23 -106 -90 -107q-30 0 -70 32q-35 27 -56 27
q-35 0 -50 -47q-2 -5 -3 -10l-20 5q23 106 89 107z" />
    <glyph glyph-name="adieresis" unicode="&#xe4;" horiz-adv-x="482" 
d="M391 -10q77 0 85 93q1 6 1 11l-26 1q-7 -73 -39 -74q-26 2 -27 52v211q0 143 -143 151h-18q-112 0 -150 -52q-12 -17 -12 -34q0 -31 29 -36q5 -1 10 -1q23 0 34 29q14 37 19 44q19 25 59 25q94 -6 97 -103v-63q-235 0 -269 -98q-6 -19 -6 -41q0 -76 67 -104
q27 -11 57 -11q73 0 123 50q18 19 27 40q12 -89 82 -90zM192 30q-61 0 -75 61q-3 14 -3 31q0 67 77 85q41 9 119 10v-80q-15 -69 -73 -97q-23 -10 -45 -10zM200 571q0 33 -29 46q-10 4 -20 4q-34 0 -47 -30q-4 -10 -4 -20q0 -35 32 -47q9 -3 19 -3q33 0 45 31q4 9 4 19z
M383 571q0 33 -30 46q-10 4 -20 4q-33 0 -46 -30q-4 -10 -4 -20q0 -35 31 -47q10 -3 19 -3q34 0 46 31q4 9 4 19z" />
    <glyph glyph-name="aring" unicode="&#xe5;" horiz-adv-x="482" 
d="M391 -10q77 0 85 93q1 6 1 11l-26 1q-7 -73 -39 -74q-26 2 -27 52v211q0 143 -143 151h-18q-112 0 -150 -52q-12 -17 -12 -34q0 -31 29 -36q5 -1 10 -1q23 0 34 29q14 37 19 44q19 25 59 25q94 -6 97 -103v-63q-235 0 -269 -98q-6 -19 -6 -41q0 -76 67 -104
q27 -11 57 -11q73 0 123 50q18 19 27 40q12 -89 82 -90zM192 30q-61 0 -75 61q-3 14 -3 31q0 67 77 85q41 9 119 10v-80q-15 -69 -73 -97q-23 -10 -45 -10zM192 573q0 54 34 66q8 3 16 3q43 0 50 -51q1 -8 1 -16q0 -51 -32 -66q-9 -4 -19 -4q-44 0 -49 55q-1 7 -1 13z
M245 665q-75 0 -99 -52q-8 -18 -8 -38q0 -59 51 -83q23 -10 51 -10q72 0 98 53q9 19 9 41q0 57 -52 80q-23 9 -50 9z" />
    <glyph glyph-name="ae" unicode="&#xe6;" horiz-adv-x="731" 
d="M516 410q70 0 93 -60q7 -19 7 -40q0 -49 -45 -60q-26 -6 -73 -5l-106 3q5 122 81 154q20 8 43 8zM691 100l-26 5q-35 -76 -113 -86q-10 -1 -19 -1q-105 0 -132 125q-8 35 -9 77l120 -2q122 -2 157 23q27 20 27 57q0 68 -69 108q-49 29 -113 29q-92 -1 -146 -67
q-34 67 -141 67q-116 0 -154 -53q-11 -16 -11 -33q0 -31 29 -36q5 -1 10 -1q23 0 34 28q14 38 20 46q20 24 61 24q87 0 98 -80q2 -11 2 -23v-63q-232 0 -272 -90q-9 -23 -9 -49q0 -77 70 -105q26 -10 57 -10q84 0 140 66q22 27 31 55q45 -119 184 -121q112 0 161 82
q8 14 13 28zM195 30q-68 0 -79 67q-2 12 -2 25q0 67 80 85q43 9 122 10v-80q-15 -67 -73 -95q-25 -12 -48 -12z" />
    <glyph glyph-name="ccedilla" unicode="&#xe7;" horiz-adv-x="435" 
d="M40 208q0 -122 90 -182q33 -22 74 -31l-40 -80l14 -9q24 17 51 17q47 0 54 -43q1 -7 1 -14q0 -52 -40 -65q-10 -3 -19 -3q-40 1 -70 40l-16 -12q34 -52 104 -53q66 0 99 42q17 22 17 49q0 54 -56 76q-23 8 -47 8q-29 0 -52 -10l24 53q9 -1 26 -1q104 0 157 73
q12 17 19 34l-26 9q-37 -79 -122 -87q-8 -1 -16 -1q-71 0 -111 71q-30 54 -30 128q0 131 69 175q29 18 64 18q54 0 65 -42q2 -8 5 -25q6 -40 22 -50q10 -5 22 -6q34 -2 43 28q2 7 2 13q0 51 -65 84q-46 23 -100 23q-134 0 -187 -109q-25 -52 -25 -118z" />
    <glyph glyph-name="egrave" unicode="&#xe8;" horiz-adv-x="464" 
d="M249 410q70 0 93 -59q8 -19 8 -41q0 -50 -48 -61q-25 -5 -71 -4l-106 3q5 115 75 150q23 12 49 12zM423 96l-25 9q-35 -76 -113 -86q-10 -1 -19 -1q-105 0 -132 125q-8 35 -9 77l120 -2q122 -2 157 23q27 20 27 57q0 68 -69 108q-49 29 -113 29q-125 0 -179 -104
q-28 -54 -28 -122q0 -124 89 -184q53 -35 121 -35q108 0 159 78q8 14 14 28zM317 500q-26 28 -76 107q-16 26 -26 36q-14 13 -29 13q-27 0 -41 -26q-5 -9 -5 -19q1 -15 13 -28q10 -10 81 -53q41 -26 68 -47z" />
    <glyph glyph-name="eacute" unicode="&#xe9;" horiz-adv-x="464" 
d="M249 410q70 0 93 -59q8 -19 8 -41q0 -50 -48 -61q-25 -5 -71 -4l-106 3q5 115 75 150q23 12 49 12zM423 96l-25 9q-35 -76 -113 -86q-10 -1 -19 -1q-105 0 -132 125q-8 35 -9 77l120 -2q122 -2 157 23q27 20 27 57q0 68 -69 108q-49 29 -113 29q-125 0 -179 -104
q-28 -54 -28 -122q0 -124 89 -184q53 -35 121 -35q108 0 159 78q8 14 14 28zM322 583q12 14 13 28q0 26 -27 40q-10 5 -19 5q-16 -1 -29 -13q-8 -8 -48 -71q-29 -45 -54 -72l16 -17q24 19 109 72q28 18 39 28z" />
    <glyph glyph-name="ecircumflex" unicode="&#xea;" horiz-adv-x="464" 
d="M249 410q70 0 93 -59q8 -19 8 -41q0 -50 -48 -61q-25 -5 -71 -4l-106 3q5 115 75 150q23 12 49 12zM423 96l-25 9q-35 -76 -113 -86q-10 -1 -19 -1q-105 0 -132 125q-8 35 -9 77l120 -2q122 -2 157 23q27 20 27 57q0 68 -69 108q-49 29 -113 29q-125 0 -179 -104
q-28 -54 -28 -122q0 -124 89 -184q53 -35 121 -35q108 0 159 78q8 14 14 28zM353 499l12 16q-23 25 -55 65q-40 49 -58 58q-10 5 -21 5q-26 0 -56 -36q-7 -8 -22 -27q-32 -41 -54 -66l12 -14q57 37 122 70q76 -40 120 -71z" />
    <glyph glyph-name="edieresis" unicode="&#xeb;" horiz-adv-x="464" 
d="M249 410q70 0 93 -59q8 -19 8 -41q0 -50 -48 -61q-25 -5 -71 -4l-106 3q5 115 75 150q23 12 49 12zM423 96l-25 9q-35 -76 -113 -86q-10 -1 -19 -1q-105 0 -132 125q-8 35 -9 77l120 -2q122 -2 157 23q27 20 27 57q0 68 -69 108q-49 29 -113 29q-125 0 -179 -104
q-28 -54 -28 -122q0 -124 89 -184q53 -35 121 -35q108 0 159 78q8 14 14 28zM191 571q0 33 -29 46q-10 4 -20 4q-34 0 -47 -30q-4 -10 -4 -20q0 -35 32 -47q9 -3 19 -3q33 0 45 31q4 9 4 19zM374 571q0 33 -30 46q-10 4 -20 4q-33 0 -46 -30q-4 -10 -4 -20q0 -35 31 -47
q10 -3 19 -3q34 0 46 31q4 9 4 19z" />
    <glyph glyph-name="igrave" unicode="&#xec;" horiz-adv-x="287" 
d="M238 26h-52v399h-156v-26h76v-321q-2 -52 -76 -52v-26h232q0 23 -13 25q-5 1 -11 1zM229 500q-26 28 -76 107q-16 26 -26 36q-14 13 -29 13q-27 0 -41 -26q-5 -9 -5 -19q1 -15 13 -28q10 -10 81 -53q41 -26 68 -47z" />
    <glyph glyph-name="iacute" unicode="&#xed;" horiz-adv-x="287" 
d="M238 26h-52v399h-156v-26h76v-321q-2 -52 -76 -52v-26h232q0 23 -13 25q-5 1 -11 1zM234 583q12 14 13 28q0 26 -27 40q-10 5 -19 5q-16 -1 -29 -13q-8 -8 -48 -71q-29 -45 -54 -72l16 -17q24 19 109 72q28 18 39 28z" />
    <glyph glyph-name="icircumflex" unicode="&#xee;" horiz-adv-x="287" 
d="M238 26h-52v399h-156v-26h76v-321q-2 -52 -76 -52v-26h232q0 23 -13 25q-5 1 -11 1zM265 499l12 16q-23 25 -55 65q-40 49 -58 58q-10 5 -21 5q-26 0 -56 -36q-7 -8 -22 -27q-32 -41 -54 -66l12 -14q57 37 122 70q76 -40 120 -71z" />
    <glyph glyph-name="idieresis" unicode="&#xef;" horiz-adv-x="287" 
d="M113 571q0 33 -29 46q-10 4 -20 4q-34 0 -47 -30q-4 -10 -4 -20q0 -35 32 -47q9 -3 19 -3q33 0 45 31q4 9 4 19zM276 571q0 33 -30 46q-10 4 -20 4q-33 0 -46 -30q-4 -10 -4 -20q0 -35 31 -47q10 -3 19 -3q34 0 46 31q4 9 4 19zM238 26h-52v399h-156v-26h76v-321
q-2 -52 -76 -52v-26h232q0 23 -13 25q-5 1 -11 1z" />
    <glyph glyph-name="eth" unicode="&#xf0;" horiz-adv-x="520" 
d="M474 246q0 143 -83 256q-32 42 -71 73l91 52l-15 26l-103 -58q-80 50 -177 55l-3 -27q80 -6 139 -50l-122 -69l16 -28l131 75q63 -66 88 -177q-48 29 -108 29q-95 0 -159 -63q-58 -58 -58 -140q0 -115 90 -173q57 -37 126 -37q132 0 188 114q30 61 30 142zM125 196
q0 136 82 172q24 10 52 10q81 0 114 -78q18 -41 18 -99q0 -98 -50 -151q-34 -35 -82 -35q-98 0 -126 106q-8 34 -8 75z" />
    <glyph glyph-name="ntilde" unicode="&#xf1;" horiz-adv-x="568" 
d="M225 25h-45v216q3 93 66 134q27 17 55 17q61 0 83 -57q9 -23 9 -52v-198q0 -46 -26 -55q-15 -5 -49 -5v-25h225q0 22 -15 24q-4 1 -10 1h-50v248q0 100 -69 143q-32 19 -69 19q-74 0 -122 -59q-18 -23 -29 -51l-4 100h-145v-25h75v-315q0 -46 -26 -55q-15 -5 -49 -5v-25
h220q0 22 -15 24q-4 1 -10 1zM235 633q30 0 71 -32q35 -27 54 -27q37 0 52 51l2 6l21 -5q-23 -106 -90 -107q-30 0 -70 32q-35 27 -56 27q-35 0 -50 -47q-2 -5 -3 -10l-20 5q23 106 89 107z" />
    <glyph glyph-name="ograve" unicode="&#xf2;" horiz-adv-x="513" 
d="M125 213q0 155 85 189q22 8 46 8q111 0 129 -140q3 -24 3 -53q0 -168 -92 -197q-18 -5 -37 -5q-101 0 -127 120q-7 35 -7 78zM259 435q-96 0 -160 -66q-59 -61 -59 -152q0 -126 92 -189q56 -38 124 -38q96 0 159 68q58 62 58 155q0 126 -93 187q-55 35 -121 35zM347 500
q-26 28 -76 107q-17 26 -26 36q-14 13 -29 13q-27 0 -41 -26q-5 -9 -5 -19q1 -15 13 -28q10 -10 81 -53q41 -26 68 -47z" />
    <glyph glyph-name="oacute" unicode="&#xf3;" horiz-adv-x="513" 
d="M125 213q0 155 85 189q22 8 46 8q111 0 129 -140q3 -24 3 -53q0 -168 -92 -197q-18 -5 -37 -5q-101 0 -127 120q-7 35 -7 78zM259 435q-96 0 -160 -66q-59 -61 -59 -152q0 -126 92 -189q56 -38 124 -38q96 0 159 68q58 62 58 155q0 126 -93 187q-55 35 -121 35zM352 583
q12 14 13 28q0 26 -27 40q-10 5 -19 5q-16 -1 -29 -13q-8 -8 -48 -71q-29 -45 -54 -72l16 -17q24 19 109 72q28 18 39 28z" />
    <glyph glyph-name="ocircumflex" unicode="&#xf4;" horiz-adv-x="513" 
d="M125 213q0 155 85 189q22 8 46 8q111 0 129 -140q3 -24 3 -53q0 -168 -92 -197q-18 -5 -37 -5q-101 0 -127 120q-7 35 -7 78zM259 435q-96 0 -160 -66q-59 -61 -59 -152q0 -126 92 -189q56 -38 124 -38q96 0 159 68q58 62 58 155q0 126 -93 187q-55 35 -121 35zM383 499
l12 16q-23 25 -55 65q-40 49 -58 58q-10 5 -21 5q-26 0 -56 -36q-7 -8 -22 -27q-32 -41 -54 -66l12 -14q57 37 122 70q76 -40 120 -71z" />
    <glyph glyph-name="otilde" unicode="&#xf5;" horiz-adv-x="513" 
d="M125 213q0 155 85 189q22 8 46 8q111 0 129 -140q3 -24 3 -53q0 -168 -92 -197q-18 -5 -37 -5q-101 0 -127 120q-7 35 -7 78zM259 435q-96 0 -160 -66q-59 -61 -59 -152q0 -126 92 -189q56 -38 124 -38q96 0 159 68q58 62 58 155q0 126 -93 187q-55 35 -121 35zM213 633
q30 0 71 -32q35 -27 54 -27q37 0 52 51l2 6l21 -5q-23 -106 -90 -107q-30 0 -70 32q-35 27 -56 27q-35 0 -50 -47q-2 -5 -3 -10l-20 5q23 106 89 107z" />
    <glyph glyph-name="odieresis" unicode="&#xf6;" horiz-adv-x="513" 
d="M125 213q0 155 85 189q22 8 46 8q111 0 129 -140q3 -24 3 -53q0 -168 -92 -197q-18 -5 -37 -5q-101 0 -127 120q-7 35 -7 78zM259 435q-96 0 -160 -66q-59 -61 -59 -152q0 -126 92 -189q56 -38 124 -38q96 0 159 68q58 62 58 155q0 126 -93 187q-55 35 -121 35zM221 571
q0 33 -29 46q-10 4 -20 4q-34 0 -47 -30q-4 -10 -4 -20q0 -35 32 -47q9 -3 19 -3q33 0 45 31q4 9 4 19zM404 571q0 33 -30 46q-10 4 -20 4q-33 0 -46 -30q-4 -10 -4 -20q0 -35 31 -47q10 -3 19 -3q34 0 46 31q4 9 4 19z" />
    <glyph glyph-name="divide" unicode="&#xf7;" horiz-adv-x="469" 
d="M424 216v36h-379v-36h379zM188 78q1 32 32 47q11 6 23 6q33 -1 48 -30q6 -12 6 -24q0 -34 -31 -48q-13 -5 -25 -5q-21 1 -37 16q-16 17 -16 38zM188 381q1 32 32 47q12 6 23 6q33 -1 48 -30q6 -12 6 -24q0 -34 -31 -48q-13 -5 -25 -5q-21 1 -37 16q-16 17 -16 38z" />
    <glyph glyph-name="oslash" unicode="&#xf8;" horiz-adv-x="513" 
d="M29 -9l68 67q64 -68 159 -68q96 0 159 68q58 62 58 155q-1 97 -57 156l74 72l-21 19l-73 -71q-58 46 -137 46q-96 0 -160 -66q-59 -61 -59 -152q1 -79 39 -137l-71 -69zM125 213q0 155 85 189q22 8 46 8q70 -1 103 -57l-226 -220q-8 39 -8 80zM259 15q-84 1 -117 86
l230 225q16 -46 16 -109q0 -168 -92 -197q-18 -5 -37 -5z" />
    <glyph glyph-name="ugrave" unicode="&#xf9;" horiz-adv-x="567" 
d="M515 25h-50v400h-157v-25h82v-216q0 -90 -63 -132q-28 -19 -58 -19q-82 0 -95 84q-2 14 -2 30v278h-152v-25h77v-238q1 -171 143 -172q75 0 123 61q18 23 29 51l7 -102h141q0 22 -15 24q-4 1 -10 1zM369 500q-26 28 -76 107q-17 26 -26 36q-14 13 -29 13q-27 0 -41 -26
q-5 -9 -5 -19q1 -15 13 -28q10 -10 81 -53q41 -26 68 -47z" />
    <glyph glyph-name="uacute" unicode="&#xfa;" horiz-adv-x="567" 
d="M515 25h-50v400h-157v-25h82v-216q0 -90 -63 -132q-28 -19 -58 -19q-82 0 -95 84q-2 14 -2 30v278h-152v-25h77v-238q1 -171 143 -172q75 0 123 61q18 23 29 51l7 -102h141q0 22 -15 24q-4 1 -10 1zM374 583q12 14 13 28q0 26 -27 40q-10 5 -19 5q-16 -1 -29 -13
q-8 -8 -48 -71q-29 -45 -54 -72l16 -17q24 19 109 72q28 18 39 28z" />
    <glyph glyph-name="ucircumflex" unicode="&#xfb;" horiz-adv-x="567" 
d="M515 25h-50v400h-157v-25h82v-216q0 -90 -63 -132q-28 -19 -58 -19q-82 0 -95 84q-2 14 -2 30v278h-152v-25h77v-238q1 -171 143 -172q75 0 123 61q18 23 29 51l7 -102h141q0 22 -15 24q-4 1 -10 1zM405 499l12 16q-23 25 -55 65q-40 49 -58 58q-10 5 -21 5
q-26 0 -56 -36q-7 -8 -22 -27q-32 -41 -54 -66l12 -14q57 37 122 70q76 -40 120 -71z" />
    <glyph glyph-name="udieresis" unicode="&#xfc;" horiz-adv-x="567" 
d="M515 25h-50v400h-157v-25h82v-216q0 -90 -63 -132q-28 -19 -58 -19q-82 0 -95 84q-2 14 -2 30v278h-152v-25h77v-238q1 -171 143 -172q75 0 123 61q18 23 29 51l7 -102h141q0 22 -15 24q-4 1 -10 1zM243 571q0 33 -29 46q-10 4 -20 4q-34 0 -47 -30q-4 -10 -4 -20
q0 -35 32 -47q9 -3 19 -3q33 0 45 31q4 9 4 19zM426 571q0 33 -30 46q-10 4 -20 4q-33 0 -46 -30q-4 -10 -4 -20q0 -35 31 -47q10 -3 19 -3q34 0 46 31q4 9 4 19z" />
    <glyph glyph-name="yacute" unicode="&#xfd;" horiz-adv-x="484" 
d="M103 -159q-16 0 -24 24q-11 30 -21 37q-9 6 -21 6q-32 0 -37 -28q-1 -4 -1 -7q0 -38 44 -55q20 -8 42 -8q79 0 137 97q24 39 46 93l148 365q10 28 22 32q7 2 16 2q20 0 23 11q2 6 2 15h-152v-26h73l-128 -320l-137 320h67v26h-195v-26h49l180 -399q-56 -132 -105 -153
q-14 -6 -28 -6zM368 583q12 14 13 28q0 26 -27 40q-10 5 -19 5q-16 -1 -29 -13q-8 -8 -48 -71q-29 -45 -54 -72l16 -17q24 19 109 72q28 18 39 28z" />
    <glyph glyph-name="thorn" unicode="&#xfe;" horiz-adv-x="557" 
d="M183 -164v206q55 -48 127 -52q89 0 149 67q58 65 58 165q0 114 -63 173q-44 40 -107 40q-97 0 -145 -77q-12 -20 -20 -42v334h-152v-26h78v-736q0 -41 -34 -49q-15 -3 -42 -3v-26h247q0 23 -13 25q-5 1 -11 1h-72zM315 395q87 0 110 -109q7 -33 7 -74q0 -147 -79 -186
q-23 -11 -50 -11q-77 0 -106 81q-15 41 -15 97q0 130 67 180q30 22 66 22z" />
    <glyph glyph-name="ydieresis" unicode="&#xff;" horiz-adv-x="484" 
d="M103 -159q-16 0 -24 24q-11 30 -21 37q-9 6 -21 6q-32 0 -37 -28q-1 -4 -1 -7q0 -38 44 -55q20 -8 42 -8q79 0 137 97q24 39 46 93l148 365q10 28 22 32q7 2 16 2q20 0 23 11q2 6 2 15h-152v-26h73l-128 -320l-137 320h67v26h-195v-26h49l180 -399q-56 -132 -105 -153
q-14 -6 -28 -6zM209 571q0 33 -29 46q-10 4 -20 4q-34 0 -47 -30q-4 -10 -4 -20q0 -35 32 -47q9 -3 19 -3q33 0 45 31q4 9 4 19zM392 571q0 33 -30 46q-10 4 -20 4q-33 0 -46 -30q-4 -10 -4 -20q0 -35 31 -47q10 -3 19 -3q34 0 46 31q4 9 4 19z" />
    <glyph glyph-name="Amacron" unicode="&#x100;" horiz-adv-x="613" 
d="M613 0q0 22 -16 25q-5 1 -10 1h-34l-229 574h-37l-224 -574h-63v-26h178q0 22 -16 25q-5 1 -10 1h-49l75 194h209l75 -194h-65v-26h216zM376 249h-187l93 242zM157 670h300v50h-300v-50z" />
    <glyph glyph-name="amacron" unicode="&#x101;" horiz-adv-x="482" 
d="M391 -10q77 0 85 93q1 6 1 11l-26 1q-7 -73 -39 -74q-26 2 -27 52v211q0 143 -143 151h-18q-112 0 -150 -52q-12 -17 -12 -34q0 -31 29 -36q5 -1 10 -1q23 0 34 29q14 37 19 44q19 25 59 25q94 -6 97 -103v-63q-235 0 -269 -98q-6 -19 -6 -41q0 -76 67 -104
q27 -11 57 -11q73 0 123 50q18 19 27 40q12 -89 82 -90zM192 30q-61 0 -75 61q-3 14 -3 31q0 67 77 85q41 9 119 10v-80q-15 -69 -73 -97q-23 -10 -45 -10zM93 540h300v50h-300v-50z" />
    <glyph glyph-name="Abreve" unicode="&#x102;" horiz-adv-x="613" 
d="M613 0q0 22 -16 25q-5 1 -10 1h-34l-229 574h-37l-224 -574h-63v-26h178q0 22 -16 25q-5 1 -10 1h-49l75 194h209l75 -194h-65v-26h216zM376 249h-187l93 242zM308 704q80 0 96 57l2 8h21q0 -87 -63 -117q-26 -12 -59 -12q-89 0 -115 77q-8 25 -8 52h20q15 -65 106 -65z
" />
    <glyph glyph-name="abreve" unicode="&#x103;" horiz-adv-x="482" 
d="M391 -10q77 0 85 93q1 6 1 11l-26 1q-7 -73 -39 -74q-26 2 -27 52v211q0 143 -143 151h-18q-112 0 -150 -52q-12 -17 -12 -34q0 -31 29 -36q5 -1 10 -1q23 0 34 29q14 37 19 44q19 25 59 25q94 -6 97 -103v-63q-235 0 -269 -98q-6 -19 -6 -41q0 -76 67 -104
q27 -11 57 -11q73 0 123 50q18 19 27 40q12 -89 82 -90zM192 30q-61 0 -75 61q-3 14 -3 31q0 67 77 85q41 9 119 10v-80q-15 -69 -73 -97q-23 -10 -45 -10zM244 574q80 0 96 57l2 8h21q0 -87 -63 -117q-26 -12 -59 -12q-89 0 -115 77q-8 25 -8 52h20q15 -65 106 -65z" />
    <glyph glyph-name="Aogonek" unicode="&#x104;" horiz-adv-x="613" 
d="M613 0q0 22 -16 25q-5 1 -10 1h-34l-229 574h-37l-224 -574h-63v-26h178q0 22 -16 25q-5 1 -10 1h-49l75 194h209l75 -194h-65v-26h164q-106 -30 -127 -92q-4 -13 -4 -24q0 -46 47 -66q22 -9 49 -9q54 1 89 37l-12 15q-28 -23 -55 -23q-37 0 -41 41q-1 5 -1 9q0 50 53 89
q20 14 43 23h11zM376 249h-187l93 242z" />
    <glyph glyph-name="aogonek" unicode="&#x105;" horiz-adv-x="482" 
d="M192 30q-61 0 -75 61q-3 14 -3 31q0 67 77 85q41 9 119 10v-80q-15 -69 -73 -97q-23 -10 -45 -10zM402 -162q-37 0 -41 41q-1 5 -1 9q0 50 53 89q20 14 43 23l-1 9q-1 -1 -5 -1q-3 -1 -4 -1q28 25 31 87l-26 1q-7 -73 -39 -74q-26 2 -27 52v211q0 143 -143 151h-18
q-112 0 -150 -52q-12 -17 -12 -34q0 -31 29 -36q5 -1 10 -1q23 0 34 29q14 37 19 44q19 25 59 25q94 -6 97 -103v-63q-235 0 -269 -98q-6 -19 -6 -41q0 -76 67 -104q27 -11 57 -11q73 0 123 50q18 19 27 40q12 -85 76 -90q-86 -33 -99 -90q-2 -9 -2 -16q0 -46 47 -66
q22 -9 49 -9q54 1 89 37l-12 15q-28 -23 -55 -23z" />
    <glyph glyph-name="Cacute" unicode="&#x106;" horiz-adv-x="624" 
d="M548 46q0 -42 12 -48q7 -3 19 -3v189h-24q-51 -165 -204 -166q-130 0 -177 131q-23 64 -23 151q0 187 103 254q45 28 100 28q125 0 181 -118q10 -21 17 -43h24l-3 184q-22 0 -27 -14q-3 -12 -3 -39q-29 29 -99 47q-46 11 -94 11q-158 0 -242 -117q-58 -83 -58 -191
q0 -131 81 -220q86 -92 224 -92q101 1 193 56zM416 783q12 14 13 28q0 26 -27 40q-10 5 -19 5q-16 -1 -29 -13q-8 -8 -48 -71q-29 -45 -54 -72l16 -17q24 19 109 72q28 18 39 28z" />
    <glyph glyph-name="cacute" unicode="&#x107;" horiz-adv-x="435" 
d="M40 208q0 -121 89 -181q55 -37 125 -37q104 0 157 73q12 17 19 34l-26 9q-37 -79 -122 -87q-8 -1 -16 -1q-71 0 -111 71q-30 54 -30 128q0 131 69 175q29 18 64 18q54 0 65 -42q2 -8 5 -25q6 -40 22 -50q10 -5 22 -6q34 -2 43 28q2 7 2 13q0 51 -65 84q-46 23 -100 23
q-134 0 -187 -109q-25 -52 -25 -118zM335 583q12 14 13 28q0 26 -27 40q-10 5 -19 5q-16 -1 -29 -13q-8 -8 -48 -71q-29 -45 -54 -72l16 -17q24 19 109 72q28 18 39 28z" />
    <glyph glyph-name="Ccaron" unicode="&#x10c;" horiz-adv-x="624" 
d="M548 46q0 -42 12 -48q7 -3 19 -3v189h-24q-51 -165 -204 -166q-130 0 -177 131q-23 64 -23 151q0 187 103 254q45 28 100 28q125 0 181 -118q10 -21 17 -43h24l-3 184q-22 0 -27 -14q-3 -12 -3 -39q-29 29 -99 47q-46 11 -94 11q-158 0 -242 -117q-58 -83 -58 -191
q0 -131 81 -220q86 -92 224 -92q101 1 193 56zM327 701q27 0 61 39q7 8 25 30q33 41 55 66l-13 15q-64 -41 -129 -74q-88 47 -129 75l-13 -17q23 -25 56 -65q44 -53 62 -63q13 -6 25 -6z" />
    <glyph glyph-name="ccaron" unicode="&#x10d;" horiz-adv-x="435" 
d="M40 208q0 -121 89 -181q55 -37 125 -37q104 0 157 73q12 17 19 34l-26 9q-37 -79 -122 -87q-8 -1 -16 -1q-71 0 -111 71q-30 54 -30 128q0 131 69 175q29 18 64 18q54 0 65 -42q2 -8 5 -25q6 -40 22 -50q10 -5 22 -6q34 -2 43 28q2 7 2 13q0 51 -65 84q-46 23 -100 23
q-134 0 -187 -109q-25 -52 -25 -118zM246 501q27 0 61 39q7 8 25 30q33 41 55 66l-13 15q-64 -41 -129 -74q-88 47 -129 75l-13 -17q23 -25 56 -65q44 -53 62 -63q13 -6 25 -6z" />
    <glyph glyph-name="Dcaron" unicode="&#x10e;" horiz-adv-x="679" 
d="M40 600v-26h80v-548h-80v-26h276q135 0 222 84q86 83 86 216q0 172 -126 252q-77 48 -179 48h-279zM316 574q158 0 197 -144q15 -53 15 -126q0 -249 -170 -275q-19 -3 -39 -3h-113v548h110zM333 631q27 0 61 39q7 8 25 30q33 41 55 66l-13 15q-64 -41 -129 -74
q-88 47 -129 75l-13 -17q23 -25 56 -65q44 -53 62 -63q13 -6 25 -6z" />
    <glyph glyph-name="dcaron" unicode="&#x10f;" horiz-adv-x="553" 
d="M381 0h143q0 22 -15 24q-4 1 -10 1h-50l-2 625h-170v-25h95v-244q-49 54 -132 54q-110 0 -166 -98q-34 -60 -34 -135q0 -124 78 -181q44 -31 97 -31q109 2 158 116zM125 214q0 141 76 183q24 13 53 13q73 0 104 -78q17 -42 17 -99q0 -120 -60 -174q-32 -29 -73 -29
q-82 0 -107 100q-10 37 -10 84zM592 589q0 57 -41 70q-10 3 -20 3q-34 0 -48 -32q-5 -11 -5 -23q0 -37 38 -49q4 -1 7 -2q24 -6 25 -18q-1 -30 -49 -80l24 -16q65 73 69 147z" />
    <glyph glyph-name="Dcroat" unicode="&#x110;" horiz-adv-x="679" 
d="M40 600v-26h80v-244h-70v-40h70v-264h-80v-26h276q135 0 222 84q86 83 86 216q0 172 -126 252q-77 48 -179 48h-279zM316 574q158 0 197 -144q15 -53 15 -126q0 -249 -170 -275q-19 -3 -39 -3h-113v264h124v40h-124v244h110z" />
    <glyph glyph-name="dcroat" unicode="&#x111;" horiz-adv-x="548" 
d="M183 509h189v-128q-49 54 -132 54q-110 0 -166 -98q-34 -60 -34 -135q0 -124 78 -181q44 -31 97 -31q109 2 158 116l8 -106h143q0 22 -15 24q-4 1 -10 1h-50l-2 484h76v33h-76v108h-170v-25h95v-83h-189v-33zM125 214q0 141 76 183q24 13 53 13q73 0 104 -78
q17 -42 17 -99q0 -120 -60 -174q-32 -29 -73 -29q-82 0 -107 100q-10 37 -10 84z" />
    <glyph glyph-name="Emacron" unicode="&#x112;" horiz-adv-x="556" 
d="M506 420l-5 180h-461v-26h80v-548h-80v-26h461l5 180h-20l-14 -47q-25 -85 -74 -102q-15 -5 -32 -5h-160v269h206v29h-206v250h160q72 0 103 -97q2 -6 3 -10l14 -47h20zM144 670h300v50h-300v-50z" />
    <glyph glyph-name="emacron" unicode="&#x113;" horiz-adv-x="464" 
d="M249 410q70 0 93 -59q8 -19 8 -41q0 -50 -48 -61q-25 -5 -71 -4l-106 3q5 115 75 150q23 12 49 12zM423 96l-25 9q-35 -76 -113 -86q-10 -1 -19 -1q-105 0 -132 125q-8 35 -9 77l120 -2q122 -2 157 23q27 20 27 57q0 68 -69 108q-49 29 -113 29q-125 0 -179 -104
q-28 -54 -28 -122q0 -124 89 -184q53 -35 121 -35q108 0 159 78q8 14 14 28zM84 540h300v50h-300v-50z" />
    <glyph glyph-name="Edotaccent" unicode="&#x116;" horiz-adv-x="556" 
d="M506 420l-5 180h-461v-26h80v-548h-80v-26h461l5 180h-20l-14 -47q-25 -85 -74 -102q-15 -5 -32 -5h-160v269h206v29h-206v250h160q72 0 103 -97q2 -6 3 -10l14 -47h20zM346 701q0 35 -31 50q-12 5 -23 5q-35 0 -50 -32q-5 -11 -5 -23q0 -37 33 -51q11 -4 22 -4
q35 0 49 32q5 11 5 23z" />
    <glyph glyph-name="edotaccent" unicode="&#x117;" horiz-adv-x="464" 
d="M249 410q70 0 93 -59q8 -19 8 -41q0 -50 -48 -61q-25 -5 -71 -4l-106 3q5 115 75 150q23 12 49 12zM423 96l-25 9q-35 -76 -113 -86q-10 -1 -19 -1q-105 0 -132 125q-8 35 -9 77l120 -2q122 -2 157 23q27 20 27 57q0 68 -69 108q-49 29 -113 29q-125 0 -179 -104
q-28 -54 -28 -122q0 -124 89 -184q53 -35 121 -35q108 0 159 78q8 14 14 28zM286 571q0 35 -31 50q-12 5 -23 5q-35 0 -50 -32q-5 -11 -5 -23q0 -37 33 -51q11 -4 22 -4q35 0 49 32q5 11 5 23z" />
    <glyph glyph-name="Eogonek" unicode="&#x118;" horiz-adv-x="556" 
d="M506 420l-5 180h-461v-26h80v-548h-80v-26h411q-106 -30 -127 -92q-4 -13 -4 -24q0 -46 47 -66q22 -9 49 -9q54 1 89 37l-12 15q-28 -23 -55 -23q-37 0 -41 41q-1 5 -1 9q0 50 53 89q20 14 43 23h9l5 180h-20l-14 -47q-25 -85 -74 -102q-15 -5 -32 -5h-160v269h206v29
h-206v250h160q72 0 103 -97q2 -6 3 -10l14 -47h20z" />
    <glyph glyph-name="eogonek" unicode="&#x119;" horiz-adv-x="464" 
d="M249 410q70 0 93 -59q8 -19 8 -41q0 -50 -48 -61q-25 -5 -71 -4l-106 3q5 115 75 150q23 12 49 12zM423 96l-25 9q-35 -76 -113 -86q-10 -1 -19 -1q-105 0 -132 125q-8 35 -9 77l120 -2q122 -2 157 23q27 20 27 57q0 68 -69 108q-49 29 -113 29q-125 0 -179 -104
q-28 -54 -28 -122q0 -124 89 -184q53 -35 121 -35q108 0 159 78q8 14 14 28zM324 -162q-37 0 -41 41q-1 5 -1 9q0 50 53 89q20 14 43 23l-1 9q-128 -23 -162 -90q-9 -18 -9 -35q0 -46 47 -66q22 -9 49 -9q54 1 89 37l-12 15q-28 -23 -55 -23z" />
    <glyph glyph-name="Ecaron" unicode="&#x11a;" horiz-adv-x="556" 
d="M506 420l-5 180h-461v-26h80v-548h-80v-26h461l5 180h-20l-14 -47q-25 -85 -74 -102q-15 -5 -32 -5h-160v269h206v29h-206v250h160q72 0 103 -97q2 -6 3 -10l14 -47h20zM293 631q27 0 61 39q7 8 25 30q33 41 55 66l-13 15q-64 -41 -129 -74q-88 47 -129 75l-13 -17
q23 -25 56 -65q44 -53 62 -63q13 -6 25 -6z" />
    <glyph glyph-name="ecaron" unicode="&#x11b;" horiz-adv-x="464" 
d="M249 410q70 0 93 -59q8 -19 8 -41q0 -50 -48 -61q-25 -5 -71 -4l-106 3q5 115 75 150q23 12 49 12zM423 96l-25 9q-35 -76 -113 -86q-10 -1 -19 -1q-105 0 -132 125q-8 35 -9 77l120 -2q122 -2 157 23q27 20 27 57q0 68 -69 108q-49 29 -113 29q-125 0 -179 -104
q-28 -54 -28 -122q0 -124 89 -184q53 -35 121 -35q108 0 159 78q8 14 14 28zM233 501q27 0 61 39q7 8 25 30q33 41 55 66l-13 15q-64 -41 -129 -74q-88 47 -129 75l-13 -17q23 -25 56 -65q44 -53 62 -63q13 -6 25 -6z" />
    <glyph glyph-name="Gbreve" unicode="&#x11e;" horiz-adv-x="694" 
d="M415 270v-26h90v-156q-50 -60 -134 -67q-8 -1 -16 -1q-199 2 -200 280q0 238 144 276q25 6 53 6q103 0 149 -57q30 -39 54 -122h26l-5 194l-87 -18q-63 31 -134 31q-120 0 -206 -79q-94 -87 -94 -227q0 -160 114 -250q83 -64 186 -64q75 0 136 33q8 4 13 8l85 -31v244h75
v26h-249zM353 704q80 0 96 57l2 8h21q0 -87 -63 -117q-26 -12 -59 -12q-89 0 -115 77q-8 25 -8 52h20q15 -65 106 -65z" />
    <glyph glyph-name="gbreve" unicode="&#x11f;" horiz-adv-x="481" 
d="M130 277q2 132 100 133q98 -2 99 -133q-2 -136 -99 -137q-99 2 -100 137zM231 435q-90 0 -143 -58q-38 -43 -38 -101q0 -76 74 -126q7 -5 14 -9q-64 0 -80 -55q-3 -13 -3 -26q1 -53 43 -79q-33 -35 -33 -71q0 -55 65 -82q41 -18 101 -18q152 0 201 74q16 25 16 53
q0 86 -99 99q-13 2 -27 2l-182 4q-46 3 -47 40q0 26 33 33q7 1 15 1l88 -1q89 0 142 60q38 43 38 102q-1 75 -58 120q9 32 34 38q4 1 8 1q14 0 30 -15q11 -10 20 -10q25 6 29 32q0 31 -29 42q-11 4 -22 4q-47 0 -76 -42q-11 -16 -17 -35q-45 23 -97 23zM231 -164
q-99 0 -125 52q-7 14 -7 28q1 27 24 54q20 -4 33 -4l154 -2q75 -1 87 -34q3 -8 3 -20q0 -44 -82 -64q-40 -10 -87 -10zM246 574q80 0 96 57l2 8h21q0 -87 -63 -117q-26 -12 -59 -12q-89 0 -115 77q-8 25 -8 52h20q15 -65 106 -65z" />
    <glyph glyph-name="uni0122" unicode="&#x122;" horiz-adv-x="694" 
d="M415 270v-26h90v-156q-50 -60 -134 -67q-8 -1 -16 -1q-199 2 -200 280q0 238 144 276q25 6 53 6q103 0 149 -57q30 -39 54 -122h26l-5 194l-87 -18q-63 31 -134 31q-120 0 -206 -79q-94 -87 -94 -227q0 -160 114 -250q83 -64 186 -64q75 0 136 33q8 4 13 8l85 -31v244h75
v26h-249zM407 -109q0 57 -41 70q-10 3 -20 3q-34 0 -48 -32q-5 -11 -5 -23q0 -37 38 -49q4 -1 7 -2q24 -6 25 -18q-1 -30 -49 -80l24 -16q65 73 69 147z" />
    <glyph glyph-name="uni0123" unicode="&#x123;" horiz-adv-x="481" 
d="M130 277q2 132 100 133q98 -2 99 -133q-2 -136 -99 -137q-99 2 -100 137zM231 435q-90 0 -143 -58q-38 -43 -38 -101q0 -76 74 -126q7 -5 14 -9q-64 0 -80 -55q-3 -13 -3 -26q1 -53 43 -79q-33 -35 -33 -71q0 -55 65 -82q41 -18 101 -18q152 0 201 74q16 25 16 53
q0 86 -99 99q-13 2 -27 2l-182 4q-46 3 -47 40q0 26 33 33q7 1 15 1l88 -1q89 0 142 60q38 43 38 102q-1 75 -58 120q9 32 34 38q4 1 8 1q14 0 30 -15q11 -10 20 -10q25 6 29 32q0 31 -29 42q-11 4 -22 4q-47 0 -76 -42q-11 -16 -17 -35q-45 23 -97 23zM231 -164
q-99 0 -125 52q-7 14 -7 28q1 27 24 54q20 -4 33 -4l154 -2q75 -1 87 -34q3 -8 3 -20q0 -44 -82 -64q-40 -10 -87 -10zM186 564q0 -57 41 -70q10 -3 20 -3q34 0 48 32q5 11 5 23q0 37 -38 49q-4 1 -7 2q-24 6 -25 18q1 30 49 80l-24 16q-65 -73 -69 -147z" />
    <glyph glyph-name="Imacron" unicode="&#x12a;" horiz-adv-x="325" 
d="M285 0q0 22 -16 25q-5 1 -10 1h-53v548h79v26h-245v-26h80v-548h-80v-26h245zM17 670h300v50h-300v-50z" />
    <glyph glyph-name="imacron" unicode="&#x12b;" horiz-adv-x="287" 
d="M26 540h240v50h-240v-50zM238 26h-52v399h-156v-26h76v-321q-2 -52 -76 -52v-26h232q0 23 -13 25q-5 1 -11 1z" />
    <glyph glyph-name="Iogonek" unicode="&#x12e;" horiz-adv-x="325" 
d="M285 0q0 22 -16 25q-5 1 -10 1h-53v548h79v26h-245v-26h80v-548h-80v-26h204q-106 -30 -127 -92q-4 -13 -4 -24q0 -46 47 -66q22 -9 49 -9q54 1 89 37l-12 15q-28 -23 -55 -23q-37 0 -41 41q-1 5 -1 9q0 50 53 89q20 14 43 23z" />
    <glyph glyph-name="iogonek" unicode="&#x12f;" horiz-adv-x="287" 
d="M238 26h-52v399h-156v-26h76v-321q-2 -52 -76 -52v-26h191q-106 -30 -127 -92q-4 -13 -4 -24q0 -46 47 -66q22 -9 49 -9q54 1 89 37l-12 15q-28 -23 -55 -23q-37 0 -41 41q-1 5 -1 9q0 50 53 89q20 14 43 23q0 23 -13 25q-5 1 -11 1zM198 571q0 35 -31 50q-12 5 -23 5
q-35 0 -50 -32q-5 -11 -5 -23q0 -37 33 -51q11 -4 22 -4q35 0 49 32q5 11 5 23z" />
    <glyph glyph-name="Idotaccent" unicode="&#x130;" horiz-adv-x="325" 
d="M285 0q0 22 -16 25q-5 1 -10 1h-53v548h79v26h-245v-26h80v-548h-80v-26h245zM219 701q0 35 -31 50q-12 5 -23 5q-35 0 -50 -32q-5 -11 -5 -23q0 -37 33 -51q11 -4 22 -4q35 0 49 32q5 11 5 23z" />
    <glyph glyph-name="dotlessi" unicode="&#x131;" horiz-adv-x="287" 
d="M238 26h-52v399h-156v-26h76v-321q-2 -52 -76 -52v-26h232q0 23 -13 25q-5 1 -11 1z" />
    <glyph glyph-name="uni0136" unicode="&#x136;" horiz-adv-x="640" 
d="M416 -109q0 57 -41 70q-10 3 -20 3q-34 0 -48 -32q-5 -11 -5 -23q0 -37 38 -49q4 -1 7 -2q24 -6 25 -18q-1 -30 -49 -80l24 -16q65 73 69 147zM285 0q0 22 -16 25q-5 1 -10 1h-53v233l52 49l237 -308h139q0 22 -16 25q-5 1 -10 1h-27l-261 340l178 166q37 35 56 40
q9 2 19 2q22 0 25 16q1 5 1 10h-180v-26h80l-293 -270v270h79v26h-245v-26h80v-548h-80v-26h245z" />
    <glyph glyph-name="uni0137" unicode="&#x137;" horiz-adv-x="500" 
d="M226 25h-45v148l55 51l141 -224h133q0 22 -15 24q-4 1 -10 1h-36l-161 248l94 88q35 33 53 37q8 2 18 2q22 0 24 15q1 5 1 10h-170v-25h75l-202 -187v437h-150v-25h75v-540q0 -46 -26 -55q-15 -5 -49 -5v-25h220q0 22 -15 24q-4 1 -10 1zM346 -109q0 57 -41 70
q-10 3 -20 3q-34 0 -48 -32q-5 -11 -5 -23q0 -37 38 -49q4 -1 7 -2q24 -6 25 -18q-1 -30 -49 -80l24 -16q65 73 69 147z" />
    <glyph glyph-name="Lacute" unicode="&#x139;" horiz-adv-x="493" 
d="M478 0l5 200h-20l-17 -67q-24 -92 -80 -105q-12 -2 -23 -2h-137v548h84v26h-250v-26h80v-548h-80v-26h438zM332 713q12 14 13 28q0 26 -27 40q-10 5 -19 5q-16 -1 -29 -13q-8 -8 -48 -71q-29 -45 -54 -72l16 -17q24 19 109 72q28 18 39 28z" />
    <glyph glyph-name="lacute" unicode="&#x13a;" horiz-adv-x="287" 
d="M215 735q16 9 21 23q7 27 -17 47q-9 7 -17 9q-16 3 -30 -5q-10 -6 -63 -54q-42 -38 -74 -58l12 -20q24 11 123 41q32 9 45 17zM237 25h-54v625h-150v-25h75v-540q0 -46 -26 -55q-15 -5 -49 -5v-25h229q0 22 -15 24q-4 1 -10 1z" />
    <glyph glyph-name="uni013B" unicode="&#x13b;" horiz-adv-x="493" 
d="M478 0l5 200h-20l-17 -67q-24 -92 -80 -105q-12 -2 -23 -2h-137v548h84v26h-250v-26h80v-548h-80v-26h438zM309 -109q0 57 -41 70q-10 3 -20 3q-34 0 -48 -32q-5 -11 -5 -23q0 -37 38 -49q4 -1 7 -2q24 -6 25 -18q-1 -30 -49 -80l24 -16q65 73 69 147z" />
    <glyph glyph-name="uni013C" unicode="&#x13c;" horiz-adv-x="289" 
d="M237 25h-54v625h-150v-25h75v-540q0 -46 -26 -55q-15 -5 -49 -5v-25h229q0 22 -15 24q-4 1 -10 1zM196 -109q0 57 -41 70q-10 3 -20 3q-34 0 -48 -32q-5 -11 -5 -23q0 -37 38 -49q4 -1 7 -2q24 -6 25 -18q-1 -30 -49 -80l24 -16q65 73 69 147z" />
    <glyph glyph-name="Lcaron" unicode="&#x13d;" horiz-adv-x="493" 
d="M478 0l5 200h-20l-17 -67q-24 -92 -80 -105q-12 -2 -23 -2h-137v548h84v26h-250v-26h80v-548h-80v-26h438zM179 631q27 0 61 39q7 8 25 30q33 41 55 66l-13 15q-64 -41 -129 -74q-88 47 -129 75l-13 -17q23 -25 56 -65q44 -53 62 -63q13 -6 25 -6z" />
    <glyph glyph-name="lcaron" unicode="&#x13e;" horiz-adv-x="310" 
d="M237 25h-54v625h-150v-25h75v-540q0 -46 -26 -55q-15 -5 -49 -5v-25h229q0 22 -15 24q-4 1 -10 1zM330 589q0 57 -41 70q-10 3 -20 3q-34 0 -48 -32q-5 -11 -5 -23q0 -37 38 -49q4 -1 7 -2q24 -6 25 -18q-1 -30 -49 -80l24 -16q65 73 69 147z" />
    <glyph glyph-name="Lslash" unicode="&#x141;" horiz-adv-x="499" 
d="M478 0l5 200h-20l-17 -67q-24 -92 -80 -105q-12 -2 -23 -2h-137v231l204 116l-15 25l-189 -107v283h84v26h-250v-26h80v-331l-106 -60l15 -26l91 52v-183h-80v-26h438z" />
    <glyph glyph-name="lslash" unicode="&#x142;" horiz-adv-x="287" 
d="M19 237l89 51v-203q0 -46 -26 -55q-15 -5 -49 -5v-25h229q0 22 -15 24q-4 1 -10 1h-54v305l109 62l-15 25l-94 -53v286h-150v-25h75v-303l-104 -59z" />
    <glyph glyph-name="Nacute" unicode="&#x143;" horiz-adv-x="669" 
d="M454 574h85v-448l-380 474h-139v-26h80v-548h-80v-26h205q0 22 -16 25q-5 1 -10 1h-59v463l393 -494l46 10v569h80v26h-205v-26zM427 713q12 14 13 28q0 26 -27 40q-10 5 -19 5q-16 -1 -29 -13q-8 -8 -48 -71q-29 -45 -54 -72l16 -17q24 19 109 72q28 18 39 28z" />
    <glyph glyph-name="nacute" unicode="&#x144;" horiz-adv-x="568" 
d="M225 25h-45v216q3 93 66 134q27 17 55 17q61 0 83 -57q9 -23 9 -52v-198q0 -46 -26 -55q-15 -5 -49 -5v-25h225q0 22 -15 24q-4 1 -10 1h-50v248q0 100 -69 143q-32 19 -69 19q-74 0 -122 -59q-18 -23 -29 -51l-4 100h-145v-25h75v-315q0 -46 -26 -55q-15 -5 -49 -5v-25
h220q0 22 -15 24q-4 1 -10 1zM374 583q12 14 13 28q0 26 -27 40q-10 5 -19 5q-16 -1 -29 -13q-8 -8 -48 -71q-29 -45 -54 -72l16 -17q24 19 109 72q28 18 39 28z" />
    <glyph glyph-name="uni0145" unicode="&#x145;" horiz-adv-x="669" 
d="M454 574h85v-448l-380 474h-139v-26h80v-548h-80v-26h205q0 22 -16 25q-5 1 -10 1h-59v463l393 -494l46 10v569h80v26h-205v-26zM394 -109q0 57 -41 70q-10 3 -20 3q-34 0 -48 -32q-5 -11 -5 -23q0 -37 38 -49q4 -1 7 -2q24 -6 25 -18q-1 -30 -49 -80l24 -16
q65 73 69 147z" />
    <glyph glyph-name="uni0146" unicode="&#x146;" horiz-adv-x="568" 
d="M225 25h-45v216q3 93 66 134q27 17 55 17q61 0 83 -57q9 -23 9 -52v-198q0 -46 -26 -55q-15 -5 -49 -5v-25h225q0 22 -15 24q-4 1 -10 1h-50v248q0 100 -69 143q-32 19 -69 19q-74 0 -122 -59q-18 -23 -29 -51l-4 100h-145v-25h75v-315q0 -46 -26 -55q-15 -5 -49 -5v-25
h220q0 22 -15 24q-4 1 -10 1zM341 -109q0 57 -41 70q-10 3 -20 3q-34 0 -48 -32q-5 -11 -5 -23q0 -37 38 -49q4 -1 7 -2q24 -6 25 -18q-1 -30 -49 -80l24 -16q65 73 69 147z" />
    <glyph glyph-name="Ncaron" unicode="&#x147;" horiz-adv-x="669" 
d="M454 574h85v-448l-380 474h-139v-26h80v-548h-80v-26h205q0 22 -16 25q-5 1 -10 1h-59v463l393 -494l46 10v569h80v26h-205v-26zM338 631q27 0 61 39q7 8 25 30q33 41 55 66l-13 15q-64 -41 -129 -74q-88 47 -129 75l-13 -17q23 -25 56 -65q44 -53 62 -63q13 -6 25 -6z
" />
    <glyph glyph-name="ncaron" unicode="&#x148;" horiz-adv-x="568" 
d="M225 25h-45v216q3 93 66 134q27 17 55 17q61 0 83 -57q9 -23 9 -52v-198q0 -46 -26 -55q-15 -5 -49 -5v-25h225q0 22 -15 24q-4 1 -10 1h-50v248q0 100 -69 143q-32 19 -69 19q-74 0 -122 -59q-18 -23 -29 -51l-4 100h-145v-25h75v-315q0 -46 -26 -55q-15 -5 -49 -5v-25
h220q0 22 -15 24q-4 1 -10 1zM285 501q27 0 61 39q7 8 25 30q33 41 55 66l-13 15q-64 -41 -129 -74q-88 47 -129 75l-13 -17q23 -25 56 -65q44 -53 62 -63q13 -6 25 -6z" />
    <glyph glyph-name="Omacron" unicode="&#x14c;" horiz-adv-x="705" 
d="M355 610q-120 0 -206 -79q-94 -87 -94 -227q0 -162 111 -250q81 -64 186 -64q118 0 203 80q95 89 95 230q0 165 -115 251q-78 59 -180 59zM355 18q-145 0 -186 155q-14 55 -14 127q0 238 144 276q25 6 53 6q197 -2 198 -278q0 -218 -121 -271q-34 -15 -74 -15zM205 670
h300v50h-300v-50z" />
    <glyph glyph-name="omacron" unicode="&#x14d;" horiz-adv-x="513" 
d="M125 213q0 155 85 189q22 8 46 8q111 0 129 -140q3 -24 3 -53q0 -168 -92 -197q-18 -5 -37 -5q-101 0 -127 120q-7 35 -7 78zM259 435q-96 0 -160 -66q-59 -61 -59 -152q0 -126 92 -189q56 -38 124 -38q96 0 159 68q58 62 58 155q0 126 -93 187q-55 35 -121 35zM114 540
h300v50h-300v-50z" />
    <glyph glyph-name="Ohungarumlaut" unicode="&#x150;" horiz-adv-x="705" 
d="M355 610q-120 0 -206 -79q-94 -87 -94 -227q0 -162 111 -250q81 -64 186 -64q118 0 203 80q95 89 95 230q0 165 -115 251q-78 59 -180 59zM355 18q-145 0 -186 155q-14 55 -14 127q0 238 144 276q25 6 53 6q197 -2 198 -278q0 -218 -121 -271q-34 -15 -74 -15zM384 727
q13 11 13 27q-1 25 -26 38q-10 5 -19 5q-18 -1 -28 -12q-9 -8 -48 -70q-28 -43 -51 -69l15 -16q22 18 103 68q30 18 41 29zM545 695q13 9 17 24q6 26 -17 43q-9 6 -17 8q-18 3 -30 -6q-11 -7 -58 -55q-39 -39 -68 -60l11 -19q25 12 119 46q31 11 43 19z" />
    <glyph glyph-name="ohungarumlaut" unicode="&#x151;" horiz-adv-x="513" 
d="M125 213q0 155 85 189q22 8 46 8q111 0 129 -140q3 -24 3 -53q0 -168 -92 -197q-18 -5 -37 -5q-101 0 -127 120q-7 35 -7 78zM259 435q-96 0 -160 -66q-59 -61 -59 -152q0 -126 92 -189q56 -38 124 -38q96 0 159 68q58 62 58 155q0 126 -93 187q-55 35 -121 35zM293 597
q13 11 13 27q-1 25 -26 38q-10 5 -19 5q-18 -1 -28 -12q-9 -8 -48 -70q-28 -43 -51 -69l15 -16q22 18 103 68q30 18 41 29zM454 565q13 9 17 24q6 26 -17 43q-9 6 -17 8q-18 3 -30 -6q-11 -7 -58 -55q-39 -39 -68 -60l11 -19q25 12 119 46q31 11 43 19z" />
    <glyph glyph-name="OE" unicode="&#x152;" horiz-adv-x="900" 
d="M371 22q-215 2 -216 278q2 277 208 278q50 0 101 -16v-525q-46 -15 -93 -15zM500 0h345l5 180h-20l-13 -47q-31 -106 -120 -107h-147v269h206v29h-206v250h147q85 0 117 -101l2 -6l14 -47h20l-5 180h-346q-23 0 -70 3q-47 2 -69 2q-128 0 -215 -81q-90 -84 -90 -220
q0 -165 118 -251q81 -58 189 -58q31 0 86 3q37 2 52 2z" />
    <glyph glyph-name="oe" unicode="&#x153;" horiz-adv-x="807" 
d="M592 410q70 0 93 -60q7 -19 7 -40q0 -49 -45 -60q-26 -6 -73 -5l-106 3q5 122 81 154q20 8 43 8zM125 213q0 155 85 189q22 8 46 8q111 0 129 -140q3 -24 3 -53q0 -168 -92 -197q-18 -5 -37 -5q-101 0 -127 120q-7 35 -7 78zM259 435q-96 0 -160 -66q-59 -61 -59 -152
q0 -126 92 -189q56 -38 124 -38q93 0 154 70q9 11 16 21q49 -81 146 -90q10 -1 21 -1q112 0 161 82q8 14 13 28l-26 5q-35 -76 -113 -86q-10 -1 -19 -1q-105 0 -132 125q-8 35 -9 77l120 -2q122 -2 157 23q27 20 27 57q0 68 -69 108q-49 29 -113 29q-111 -1 -163 -89
q-52 78 -146 88q-11 1 -22 1z" />
    <glyph glyph-name="Racute" unicode="&#x154;" horiz-adv-x="612" 
d="M285 0v26h-79v249h95l160 -275h151q0 22 -12 25q-5 1 -12 1h-38l-161 258q95 23 130 99q13 30 13 61q0 75 -65 120q-53 36 -131 36h-296v-26h80v-548h-80v-26h245zM306 574q86 0 119 -70q13 -29 13 -61q0 -72 -50 -112q-34 -27 -79 -27h-103v270h100zM395 713
q12 14 13 28q0 26 -27 40q-10 5 -19 5q-16 -1 -29 -13q-8 -8 -48 -71q-29 -45 -54 -72l16 -17q24 19 109 72q28 18 39 28z" />
    <glyph glyph-name="racute" unicode="&#x155;" horiz-adv-x="393" 
d="M254 25h-72v199q0 91 56 146q22 21 37 22q17 0 31 -25q16 -28 30 -32q6 -2 12 -2q30 0 38 29q2 6 2 12q0 45 -46 55q-10 2 -19 2q-60 0 -107 -51q-22 -24 -35 -54l-4 99h-145v-25h75v-315q0 -46 -26 -55q-15 -5 -49 -5v-25h247q0 22 -15 24q-4 1 -10 1zM289 583
q12 14 13 28q0 26 -27 40q-10 5 -19 5q-16 -1 -29 -13q-8 -8 -48 -71q-29 -45 -54 -72l16 -17q24 19 109 72q28 18 39 28z" />
    <glyph glyph-name="uni0156" unicode="&#x156;" horiz-adv-x="612" 
d="M285 0v26h-79v249h95l160 -275h151q0 22 -12 25q-5 1 -12 1h-38l-161 258q95 23 130 99q13 30 13 61q0 75 -65 120q-53 36 -131 36h-296v-26h80v-548h-80v-26h245zM306 574q86 0 119 -70q13 -29 13 -61q0 -72 -50 -112q-34 -27 -79 -27h-103v270h100zM389 -109
q0 57 -41 70q-10 3 -20 3q-34 0 -48 -32q-5 -11 -5 -23q0 -37 38 -49q4 -1 7 -2q24 -6 25 -18q-1 -30 -49 -80l24 -16q65 73 69 147z" />
    <glyph glyph-name="uni0157" unicode="&#x157;" horiz-adv-x="393" 
d="M254 25h-72v199q0 91 56 146q22 21 37 22q17 0 31 -25q16 -28 30 -32q6 -2 12 -2q30 0 38 29q2 6 2 12q0 45 -46 55q-10 2 -19 2q-60 0 -107 -51q-22 -24 -35 -54l-4 99h-145v-25h75v-315q0 -46 -26 -55q-15 -5 -49 -5v-25h247q0 22 -15 24q-4 1 -10 1zM202 -109
q0 57 -41 70q-10 3 -20 3q-34 0 -48 -32q-5 -11 -5 -23q0 -37 38 -49q4 -1 7 -2q24 -6 25 -18q-1 -30 -49 -80l24 -16q65 73 69 147z" />
    <glyph glyph-name="Rcaron" unicode="&#x158;" horiz-adv-x="612" 
d="M285 0v26h-79v249h95l160 -275h151q0 22 -12 25q-5 1 -12 1h-38l-161 258q95 23 130 99q13 30 13 61q0 75 -65 120q-53 36 -131 36h-296v-26h80v-548h-80v-26h245zM306 574q86 0 119 -70q13 -29 13 -61q0 -72 -50 -112q-34 -27 -79 -27h-103v270h100zM306 631q27 0 61 39
q7 8 25 30q33 41 55 66l-13 15q-64 -41 -129 -74q-88 47 -129 75l-13 -17q23 -25 56 -65q44 -53 62 -63q13 -6 25 -6z" />
    <glyph glyph-name="rcaron" unicode="&#x159;" horiz-adv-x="393" 
d="M254 25h-72v199q0 91 56 146q22 21 37 22q17 0 31 -25q16 -28 30 -32q6 -2 12 -2q30 0 38 29q2 6 2 12q0 45 -46 55q-10 2 -19 2q-60 0 -107 -51q-22 -24 -35 -54l-4 99h-145v-25h75v-315q0 -46 -26 -55q-15 -5 -49 -5v-25h247q0 22 -15 24q-4 1 -10 1zM200 501
q27 0 61 39q7 8 25 30q33 41 55 66l-13 15q-64 -41 -129 -74q-88 47 -129 75l-13 -17q23 -25 56 -65q44 -53 62 -63q13 -6 25 -6z" />
    <glyph glyph-name="Sacute" unicode="&#x15a;" horiz-adv-x="536" 
d="M486 157q0 89 -96 143q-19 10 -117 53q-89 38 -112 78q-12 22 -12 47q0 67 65 93q28 11 62 11q84 0 128 -57q29 -39 28 -95h30v175q-24 0 -28 -15q-2 -7 -2 -19q-71 39 -160 39q-108 0 -168 -60q-40 -42 -40 -98q0 -84 94 -137q17 -9 114 -51q90 -40 114 -81
q13 -23 13 -50q0 -70 -68 -101q-32 -14 -71 -14q-153 2 -170 187h-30v-207q24 0 28 14q2 8 2 29q77 -51 175 -51q115 0 178 62q43 44 43 105zM376 713q12 14 13 28q0 26 -27 40q-10 5 -19 5q-16 -1 -29 -13q-8 -8 -48 -71q-29 -45 -54 -72l16 -17q24 19 109 72q28 18 39 28z
" />
    <glyph glyph-name="sacute" unicode="&#x15b;" horiz-adv-x="400" 
d="M190 17q69 0 93 42q9 15 9 33q0 42 -61 72q-13 7 -43 20q-82 34 -109 64q-29 33 -29 77q0 69 76 97q35 13 76 13q66 0 114 -28q0 29 14 33q6 1 13 1v-125h-26q-2 92 -102 93q-75 0 -93 -44q-5 -12 -5 -25q0 -43 62 -73q14 -7 44 -19q81 -33 108 -63q29 -32 29 -76
q0 -81 -86 -108q-33 -11 -72 -11q-72 1 -125 36q0 -26 -13 -30q-6 -1 -14 -1v152h28q2 -129 112 -130zM290 583q12 14 13 28q0 26 -27 40q-10 5 -19 5q-16 -1 -29 -13q-8 -8 -48 -71q-29 -45 -54 -72l16 -17q24 19 109 72q28 18 39 28z" />
    <glyph glyph-name="uni015E" unicode="&#x15e;" horiz-adv-x="536" 
d="M486 157q0 89 -96 143q-19 10 -117 53q-89 38 -112 78q-12 22 -12 47q0 67 65 93q28 11 62 11q84 0 128 -57q29 -39 28 -95h30v175q-24 0 -28 -15q-2 -7 -2 -19q-71 39 -160 39q-108 0 -168 -60q-40 -42 -40 -98q0 -84 94 -137q17 -9 114 -51q90 -40 114 -81
q13 -23 13 -50q0 -70 -68 -101q-32 -14 -71 -14q-153 2 -170 187h-30v-207q24 0 28 14q2 8 2 29q67 -44 150 -50l-38 -76l14 -9q24 17 51 17q47 0 54 -43q1 -7 1 -14q0 -52 -40 -65q-10 -3 -19 -3q-40 1 -70 40l-16 -12q34 -52 104 -53q66 0 99 42q17 22 17 49q0 54 -56 76
q-23 8 -47 8q-29 0 -52 -10l23 52q115 0 178 62q43 44 43 105z" />
    <glyph glyph-name="uni015F" unicode="&#x15f;" horiz-adv-x="400" 
d="M190 17q-111 2 -112 130h-28v-152q22 0 25 13q2 7 2 18q43 -28 95 -34l-38 -77l14 -9q24 17 51 17q47 0 54 -43q1 -7 1 -14q0 -52 -40 -65q-10 -3 -19 -3q-40 1 -70 40l-16 -12q34 -52 104 -53q66 0 99 42q17 22 17 49q0 54 -56 76q-23 8 -47 8q-29 0 -52 -10l23 52
q-6 0 -25 2l6 11h25l-6 -13h5q100 0 139 57q19 27 19 62q0 72 -81 114q-18 9 -56 25q-73 30 -92 53q-14 18 -14 39q0 52 62 65q17 4 36 4q101 -2 102 -93h26v125q-22 0 -26 -17q-1 -7 -1 -17q-49 28 -114 28q-90 0 -131 -50q-21 -26 -21 -60q0 -72 81 -115q18 -10 57 -26
q72 -31 90 -54q14 -17 14 -38q0 -51 -58 -69q-21 -6 -44 -6z" />
    <glyph glyph-name="Scaron" unicode="&#x160;" horiz-adv-x="536" 
d="M486 157q0 89 -96 143q-19 10 -117 53q-89 38 -112 78q-12 22 -12 47q0 67 65 93q28 11 62 11q84 0 128 -57q29 -39 28 -95h30v175q-24 0 -28 -15q-2 -7 -2 -19q-71 39 -160 39q-108 0 -168 -60q-40 -42 -40 -98q0 -84 94 -137q17 -9 114 -51q90 -40 114 -81
q13 -23 13 -50q0 -70 -68 -101q-32 -14 -71 -14q-153 2 -170 187h-30v-207q24 0 28 14q2 8 2 29q77 -51 175 -51q115 0 178 62q43 44 43 105zM287 631q27 0 61 39q7 8 25 30q33 41 55 66l-13 15q-64 -41 -129 -74q-88 47 -129 75l-13 -17q23 -25 56 -65q44 -53 62 -63
q13 -6 25 -6z" />
    <glyph glyph-name="scaron" unicode="&#x161;" horiz-adv-x="400" 
d="M190 17q69 0 93 42q9 15 9 33q0 42 -61 72q-13 7 -43 20q-82 34 -109 64q-29 33 -29 77q0 69 76 97q35 13 76 13q66 0 114 -28q0 29 14 33q6 1 13 1v-125h-26q-2 92 -102 93q-75 0 -93 -44q-5 -12 -5 -25q0 -43 62 -73q14 -7 44 -19q81 -33 108 -63q29 -32 29 -76
q0 -81 -86 -108q-33 -11 -72 -11q-72 1 -125 36q0 -26 -13 -30q-6 -1 -14 -1v152h28q2 -129 112 -130zM201 501q27 0 61 39q7 8 25 30q33 41 55 66l-13 15q-64 -41 -129 -74q-88 47 -129 75l-13 -17q23 -25 56 -65q44 -53 62 -63q13 -6 25 -6z" />
    <glyph glyph-name="uni0162" unicode="&#x162;" horiz-adv-x="582" 
d="M223 -85l14 -9q24 17 51 17q47 0 54 -43q1 -7 1 -14q0 -52 -40 -65q-10 -3 -19 -3q-40 1 -70 40l-16 -12q34 -52 104 -53q66 0 99 42q17 22 17 49q0 54 -56 76q-23 8 -47 8q-29 0 -52 -10l28 62h131q0 22 -16 25q-5 1 -10 1h-68v548h58q81 0 108 -98q0 -4 1 -6l16 -67h28
l-5 197h-494l-5 -197h28l16 67q32 98 109 104h54v-548h-95v-26h119z" />
    <glyph glyph-name="uni0163" unicode="&#x163;" horiz-adv-x="325" 
d="M20 400h70v-282q1 -96 66 -121l-41 -82l14 -9q24 17 51 17q47 0 54 -43q1 -7 1 -14q0 -52 -40 -65q-10 -3 -19 -3q-40 1 -70 40l-16 -12q34 -52 104 -53q66 0 99 42q17 22 17 49q0 54 -56 76q-23 8 -47 8q-29 0 -52 -10l24 53q16 -2 26 -2q92 0 115 113v2l-27 5
q-25 -83 -73 -90q-54 2 -55 77v304h155v25h-155v116l-75 -21v-95h-70v-25z" />
    <glyph glyph-name="Tcaron" unicode="&#x164;" horiz-adv-x="574" 
d="M422 0q0 22 -16 25q-5 1 -10 1h-68v548h58q81 0 108 -98q0 -4 1 -6l16 -67h28l-5 197h-494l-5 -197h28l16 67q32 98 109 104h54v-548h-95v-26h275zM287 631q27 0 61 39q7 8 25 30q33 41 55 66l-13 15q-64 -41 -129 -74q-88 47 -129 75l-13 -17q23 -25 56 -65
q44 -53 62 -63q13 -6 25 -6z" />
    <glyph glyph-name="tcaron" unicode="&#x165;" horiz-adv-x="325" 
d="M20 400h70v-282q7 -125 115 -129q92 0 115 113v2l-27 5q-25 -83 -73 -90q-54 2 -55 77v304h155v25h-155v116l-75 -21v-95h-70v-25zM315 598q0 57 -41 70q-10 3 -20 3q-34 0 -48 -32q-5 -11 -5 -23q0 -37 38 -49q4 -1 7 -2q24 -6 25 -18q-1 -30 -49 -80l24 -16
q65 73 69 147z" />
    <glyph glyph-name="Umacron" unicode="&#x16a;" horiz-adv-x="632" 
d="M10 574h80v-349q2 -234 233 -235q176 0 213 144q11 44 11 100v340h80v26h-195v-26h80v-346q0 -194 -144 -209q-12 -1 -24 -1q-122 0 -154 103q-14 45 -14 110v343h79v26h-245v-26zM189 670h300v50h-300v-50z" />
    <glyph glyph-name="umacron" unicode="&#x16b;" horiz-adv-x="567" 
d="M515 25h-50v400h-157v-25h82v-216q0 -90 -63 -132q-28 -19 -58 -19q-82 0 -95 84q-2 14 -2 30v278h-152v-25h77v-238q1 -171 143 -172q75 0 123 61q18 23 29 51l7 -102h141q0 22 -15 24q-4 1 -10 1zM136 540h300v50h-300v-50z" />
    <glyph glyph-name="Uring" unicode="&#x16e;" horiz-adv-x="632" 
d="M10 574h80v-349q2 -234 233 -235q176 0 213 144q11 44 11 100v340h80v26h-195v-26h80v-346q0 -194 -144 -209q-12 -1 -24 -1q-122 0 -154 103q-14 45 -14 110v343h79v26h-245v-26zM307 703q0 54 34 66q8 3 16 3q43 0 50 -51q1 -8 1 -16q0 -51 -32 -66q-9 -4 -19 -4
q-44 0 -49 55q-1 7 -1 13zM360 795q-75 0 -99 -52q-8 -18 -8 -38q0 -59 51 -83q23 -10 51 -10q72 0 98 53q9 19 9 41q0 57 -52 80q-23 9 -50 9z" />
    <glyph glyph-name="uring" unicode="&#x16f;" horiz-adv-x="567" 
d="M515 25h-50v400h-157v-25h82v-216q0 -90 -63 -132q-28 -19 -58 -19q-82 0 -95 84q-2 14 -2 30v278h-152v-25h77v-238q1 -171 143 -172q75 0 123 61q18 23 29 51l7 -102h141q0 22 -15 24q-4 1 -10 1zM235 573q0 54 34 66q8 3 16 3q43 0 50 -51q1 -8 1 -16q0 -51 -32 -66
q-9 -4 -19 -4q-44 0 -49 55q-1 7 -1 13zM288 665q-75 0 -99 -52q-8 -18 -8 -38q0 -59 51 -83q23 -10 51 -10q72 0 98 53q9 19 9 41q0 57 -52 80q-23 9 -50 9z" />
    <glyph glyph-name="Uhungarumlaut" unicode="&#x170;" horiz-adv-x="632" 
d="M10 574h80v-349q2 -234 233 -235q176 0 213 144q11 44 11 100v340h80v26h-195v-26h80v-346q0 -194 -144 -209q-12 -1 -24 -1q-122 0 -154 103q-14 45 -14 110v343h79v26h-245v-26zM368 727q13 11 13 27q-1 25 -26 38q-10 5 -19 5q-18 -1 -28 -12q-9 -8 -48 -70
q-28 -43 -51 -69l15 -16q22 18 103 68q30 18 41 29zM529 695q13 9 17 24q6 26 -17 43q-9 6 -17 8q-18 3 -30 -6q-11 -7 -58 -55q-39 -39 -68 -60l11 -19q25 12 119 46q31 11 43 19z" />
    <glyph glyph-name="uhungarumlaut" unicode="&#x171;" horiz-adv-x="567" 
d="M515 25h-50v400h-157v-25h82v-216q0 -90 -63 -132q-28 -19 -58 -19q-82 0 -95 84q-2 14 -2 30v278h-152v-25h77v-238q1 -171 143 -172q75 0 123 61q18 23 29 51l7 -102h141q0 22 -15 24q-4 1 -10 1zM315 597q13 11 13 27q-1 25 -26 38q-10 5 -19 5q-18 -1 -28 -12
q-9 -8 -48 -70q-28 -43 -51 -69l15 -16q22 18 103 68q30 18 41 29zM476 565q13 9 17 24q6 26 -17 43q-9 6 -17 8q-18 3 -30 -6q-11 -7 -58 -55q-39 -39 -68 -60l11 -19q25 12 119 46q31 11 43 19z" />
    <glyph glyph-name="Uogonek" unicode="&#x172;" horiz-adv-x="632" 
d="M10 574h80v-349q2 -234 233 -235q176 0 213 144q11 44 11 100v340h80v26h-195v-26h80v-346q0 -194 -144 -209q-12 -1 -24 -1q-122 0 -154 103q-14 45 -14 110v343h79v26h-245v-26zM397 -162q-37 0 -41 41q-1 5 -1 9q0 50 53 89q20 14 43 23l-1 9q-128 -23 -162 -90
q-9 -18 -9 -35q0 -46 47 -66q22 -9 49 -9q54 1 89 37l-12 15q-28 -23 -55 -23z" />
    <glyph glyph-name="uogonek" unicode="&#x173;" horiz-adv-x="567" 
d="M515 25h-50v400h-157v-25h82v-216q0 -90 -63 -132q-28 -19 -58 -19q-82 0 -95 84q-2 14 -2 30v278h-152v-25h77v-238q1 -171 143 -172q75 0 123 61q18 23 29 51l7 -102h100q-106 -30 -127 -92q-4 -13 -4 -24q0 -46 47 -66q22 -9 49 -9q54 1 89 37l-12 15q-28 -23 -55 -23
q-37 0 -41 41q-1 5 -1 9q0 50 53 89q20 14 43 23q0 22 -15 24q-4 1 -10 1z" />
    <glyph glyph-name="Ydieresis" unicode="&#x178;" horiz-adv-x="554" 
d="M403 0q0 22 -16 25q-5 1 -10 1h-54v223l151 297q23 27 54 28q22 0 25 16q1 5 1 10h-178v-26h80l-152 -291l-159 291h76v26h-226v-26h55l188 -335v-213h-80v-26h245zM249 701q0 33 -29 46q-10 4 -20 4q-34 0 -47 -30q-4 -10 -4 -20q0 -35 32 -47q9 -3 19 -3q33 0 45 31
q4 9 4 19zM432 701q0 33 -30 46q-10 4 -20 4q-33 0 -46 -30q-4 -10 -4 -20q0 -35 31 -47q10 -3 19 -3q34 0 46 31q4 9 4 19z" />
    <glyph glyph-name="Zacute" unicode="&#x179;" horiz-adv-x="550" 
d="M518 0l2 207h-22l-21 -96q-21 -84 -98 -85h-247l383 553v21h-445l-9 -181h20l39 90q30 64 81 65h218l-394 -554v-20h493zM388 713q12 14 13 28q0 26 -27 40q-10 5 -19 5q-16 -1 -29 -13q-8 -8 -48 -71q-29 -45 -54 -72l16 -17q24 19 109 72q28 18 39 28z" />
    <glyph glyph-name="zacute" unicode="&#x17a;" horiz-adv-x="422" 
d="M115 26l271 383v21h-338l-9 -130h15l24 55q22 48 64 49h161l-281 -382v-22h365l3 151h-14l-12 -55q-11 -55 -51 -67q-9 -3 -18 -3h-180zM301 583q12 14 13 28q0 26 -27 40q-10 5 -19 5q-16 -1 -29 -13q-8 -8 -48 -71q-29 -45 -54 -72l16 -17q24 19 109 72q28 18 39 28z
" />
    <glyph glyph-name="Zdotaccent" unicode="&#x17b;" horiz-adv-x="550" 
d="M518 0l2 207h-22l-21 -96q-21 -84 -98 -85h-247l383 553v21h-445l-9 -181h20l39 90q30 64 81 65h218l-394 -554v-20h493zM352 701q0 35 -31 50q-12 5 -23 5q-35 0 -50 -32q-5 -11 -5 -23q0 -37 33 -51q11 -4 22 -4q35 0 49 32q5 11 5 23z" />
    <glyph glyph-name="zdotaccent" unicode="&#x17c;" horiz-adv-x="422" 
d="M115 26l271 383v21h-338l-9 -130h15l24 55q22 48 64 49h161l-281 -382v-22h365l3 151h-14l-12 -55q-11 -55 -51 -67q-9 -3 -18 -3h-180zM265 571q0 35 -31 50q-12 5 -23 5q-35 0 -50 -32q-5 -11 -5 -23q0 -37 33 -51q11 -4 22 -4q35 0 49 32q5 11 5 23z" />
    <glyph glyph-name="Zcaron" unicode="&#x17d;" horiz-adv-x="550" 
d="M518 0l2 207h-22l-21 -96q-21 -84 -98 -85h-247l383 553v21h-445l-9 -181h20l39 90q30 64 81 65h218l-394 -554v-20h493zM299 631q27 0 61 39q7 8 25 30q33 41 55 66l-13 15q-64 -41 -129 -74q-88 47 -129 75l-13 -17q23 -25 56 -65q44 -53 62 -63q13 -6 25 -6z" />
    <glyph glyph-name="zcaron" unicode="&#x17e;" horiz-adv-x="422" 
d="M115 26l271 383v21h-338l-9 -130h15l24 55q22 48 64 49h161l-281 -382v-22h365l3 151h-14l-12 -55q-11 -55 -51 -67q-9 -3 -18 -3h-180zM212 501q27 0 61 39q7 8 25 30q33 41 55 66l-13 15q-64 -41 -129 -74q-88 47 -129 75l-13 -17q23 -25 56 -65q44 -53 62 -63
q13 -6 25 -6z" />
    <glyph glyph-name="florin" unicode="&#x192;" horiz-adv-x="442" 
d="M247 295q0 3 1 11v10h118v26h-117q8 162 27 205q16 36 45 37q32 0 39 -35q2 -5 3 -16q6 -38 22 -46q9 -4 19 -4q33 0 41 33q2 7 2 14q0 43 -41 66q-24 14 -57 14q-112 0 -160 -160q-14 -47 -23 -108h-100v-26h97q-4 -30 -5 -46q-3 -40 -9 -122q-13 -206 -33 -266
q-19 -54 -50 -55q-29 0 -31 33v17q0 42 -16 51q-10 6 -24 6q-36 0 -44 -35q-1 -7 -1 -13q0 -42 41 -66q26 -15 60 -15q112 0 160 195q27 114 36 295z" />
    <glyph glyph-name="uni0218" unicode="&#x218;" horiz-adv-x="536" 
d="M486 157q0 89 -96 143q-19 10 -117 53q-89 38 -112 78q-12 22 -12 47q0 67 65 93q28 11 62 11q84 0 128 -57q29 -39 28 -95h30v175q-24 0 -28 -15q-2 -7 -2 -19q-71 39 -160 39q-108 0 -168 -60q-40 -42 -40 -98q0 -84 94 -137q17 -9 114 -51q90 -40 114 -81
q13 -23 13 -50q0 -70 -68 -101q-32 -14 -71 -14q-153 2 -170 187h-30v-207q24 0 28 14q2 8 2 29q77 -51 175 -51q115 0 178 62q43 44 43 105zM325 -109q0 57 -41 70q-10 3 -20 3q-34 0 -48 -32q-5 -11 -5 -23q0 -37 38 -49q4 -1 7 -2q24 -6 25 -18q-1 -30 -49 -80l24 -16
q65 73 69 147z" />
    <glyph glyph-name="uni0219" unicode="&#x219;" horiz-adv-x="400" 
d="M190 17q69 0 93 42q9 15 9 33q0 42 -61 72q-13 7 -43 20q-82 34 -109 64q-29 33 -29 77q0 69 76 97q35 13 76 13q66 0 114 -28q0 29 14 33q6 1 13 1v-125h-26q-2 92 -102 93q-75 0 -93 -44q-5 -12 -5 -25q0 -43 62 -73q14 -7 44 -19q81 -33 108 -63q29 -32 29 -76
q0 -81 -86 -108q-33 -11 -72 -11q-72 1 -125 36q0 -26 -13 -30q-6 -1 -14 -1v152h28q2 -129 112 -130zM257 -109q0 57 -41 70q-10 3 -20 3q-34 0 -48 -32q-5 -11 -5 -23q0 -37 38 -49q4 -1 7 -2q24 -6 25 -18q-1 -30 -49 -80l24 -16q65 73 69 147z" />
    <glyph glyph-name="uni021A" unicode="&#x21a;" horiz-adv-x="574" 
d="M422 0q0 22 -16 25q-5 1 -10 1h-68v548h58q81 0 108 -98q0 -4 1 -6l16 -67h28l-5 197h-494l-5 -197h28l16 67q32 98 109 104h54v-548h-95v-26h275zM342 -109q0 57 -41 70q-10 3 -20 3q-34 0 -48 -32q-5 -11 -5 -23q0 -37 38 -49q4 -1 7 -2q24 -6 25 -18q-1 -30 -49 -80
l24 -16q65 73 69 147z" />
    <glyph glyph-name="uni021B" unicode="&#x21b;" horiz-adv-x="325" 
d="M20 400h70v-282q7 -125 115 -129q92 0 115 113v2l-27 5q-25 -83 -73 -90q-54 2 -55 77v304h155v25h-155v116l-75 -21v-95h-70v-25zM238 -109q0 57 -41 70q-10 3 -20 3q-34 0 -48 -32q-5 -11 -5 -23q0 -37 38 -49q4 -1 7 -2q24 -6 25 -18q-1 -30 -49 -80l24 -16
q65 73 69 147z" />
    <glyph glyph-name="circumflex" unicode="&#x2c6;" horiz-adv-x="500" 
d="M371 499l12 16q-23 25 -55 65q-40 49 -58 58q-10 5 -21 5q-26 0 -56 -36q-7 -8 -22 -27q-32 -41 -54 -66l12 -14q57 37 122 70q76 -40 120 -71z" />
    <glyph glyph-name="caron" unicode="&#x2c7;" horiz-adv-x="500" 
d="M251 501q27 0 61 39q7 8 25 30q33 41 55 66l-13 15q-64 -41 -129 -74q-88 47 -129 75l-13 -17q23 -25 56 -65q44 -53 62 -63q13 -6 25 -6z" />
    <glyph glyph-name="uni02C9" unicode="&#x2c9;" horiz-adv-x="500" 
d="M100 540h300v50h-300v-50z" />
    <glyph glyph-name="breve" unicode="&#x2d8;" horiz-adv-x="500" 
d="M254 574q80 0 96 57l2 8h21q0 -87 -63 -117q-26 -12 -59 -12q-89 0 -115 77q-8 25 -8 52h20q15 -65 106 -65z" />
    <glyph glyph-name="dotaccent" unicode="&#x2d9;" horiz-adv-x="287" 
d="M196 571q0 35 -31 50q-12 5 -23 5q-35 0 -50 -32q-5 -11 -5 -23q0 -37 33 -51q11 -4 22 -4q35 0 49 32q5 11 5 23z" />
    <glyph glyph-name="ring" unicode="&#x2da;" horiz-adv-x="500" 
d="M198 573q0 54 34 66q8 3 16 3q43 0 50 -51q1 -8 1 -16q0 -51 -32 -66q-9 -4 -19 -4q-44 0 -49 55q-1 7 -1 13zM251 665q-75 0 -99 -52q-8 -18 -8 -38q0 -59 51 -83q23 -10 51 -10q72 0 98 53q9 19 9 41q0 57 -52 80q-23 9 -50 9z" />
    <glyph glyph-name="ogonek" unicode="&#x2db;" horiz-adv-x="500" 
d="M259 -162q-37 0 -41 41q-1 5 -1 9q0 50 53 89q20 14 43 23l-1 9q-128 -23 -162 -90q-9 -18 -9 -35q0 -46 47 -66q22 -9 49 -9q54 1 89 37l-12 15q-28 -23 -55 -23z" />
    <glyph glyph-name="tilde" unicode="&#x2dc;" horiz-adv-x="500" 
d="M201 633q30 0 71 -32q35 -27 54 -27q37 0 52 51l2 6l21 -5q-23 -106 -90 -107q-30 0 -70 32q-35 27 -56 27q-35 0 -50 -47q-2 -5 -3 -10l-20 5q23 106 89 107z" />
    <glyph glyph-name="hungarumlaut" unicode="&#x2dd;" horiz-adv-x="599" 
d="M345 597q13 11 13 27q-1 25 -26 38q-10 5 -19 5q-18 -1 -28 -12q-9 -8 -48 -70q-28 -43 -51 -69l15 -16q22 18 103 68q30 18 41 29zM506 565q13 9 17 24q6 26 -17 43q-9 6 -17 8q-18 3 -30 -6q-11 -7 -58 -55q-39 -39 -68 -60l11 -19q25 12 119 46q31 11 43 19z" />
    <glyph glyph-name="pi" unicode="&#x3c0;" horiz-adv-x="574" 
d="M554 77l-24 6q-10 -52 -42 -62q-6 -2 -10 -2q-32 2 -32 67v313h89v26h-510v-26h79v-321q-7 -50 -79 -52v-26h232q0 23 -13 25q-5 1 -11 1h-54v373h192v-273q10 -129 92 -135q52 0 78 49q9 17 13 37z" />
    <glyph glyph-name="anusvara" unicode="&#xd82;" horiz-adv-x="355" 
d="M65 172q0 -54 47 -84q26 -16 57 -16q58 0 88 47q15 25 15 53q0 55 -47 83q-26 16 -56 16q-58 0 -88 -46q-16 -25 -16 -53zM29 161q0 68 56 109q38 28 84 28q71 0 113 -56q27 -37 27 -81q0 -68 -56 -109q-38 -28 -84 -28q-71 0 -113 56q-27 37 -27 81z" />
    <glyph glyph-name="visarga" unicode="&#xd83;" horiz-adv-x="242" 
d="M59 108q0 -33 30 -48q11 -5 23 -5q34 0 49 30q5 12 5 23q0 32 -30 48q-12 6 -24 6q-33 0 -48 -31q-5 -11 -5 -23zM30 107q0 46 40 70q20 12 42 12q46 0 70 -40q12 -20 12 -42q0 -46 -40 -70q-20 -12 -42 -12q-46 0 -70 40q-12 20 -12 42zM59 306q0 -34 30 -49
q12 -5 23 -5q32 0 48 30q6 12 6 24q0 33 -31 48q-12 5 -23 5q-33 0 -48 -30q-5 -11 -5 -23zM30 305q0 46 40 70q20 12 42 12q46 0 70 -40q12 -20 12 -42q0 -46 -40 -70q-20 -12 -42 -12q-46 0 -70 40q-12 20 -12 42z" />
    <glyph glyph-name="si_A" unicode="&#xd85;" horiz-adv-x="559" 
d="M401 224q-14 0 -22 3v81q0 53 30 80l2 2v-1q0 -19 19 -41q5 -7 8 -11q15 -25 15 -57q0 -44 -37 -54q-8 -2 -15 -2zM351 -210h28v214q83 14 132 46v31q-52 -38 -132 -52v172q21 -6 39 -6q60 0 85 40q11 18 11 39q0 42 -44 78q-29 25 -33 34q-2 4 -2 8q1 11 9 17l7 3
l-22 11q-30 -8 -52 -33q-26 -31 -26 -86v-281q-29 -3 -61 -3q-146 0 -174 97q-5 20 -5 41q0 64 48 97q35 23 88 23h92v3q0 103 -79 131q-25 9 -54 9q-71 0 -95 -38q-7 -12 -7 -25q0 -28 28 -35q6 -2 12 -2q28 1 40 27t30 32q9 2 21 2q47 0 66 -46q8 -17 8 -36h-112
q-108 0 -148 -75q-17 -32 -17 -71q0 -99 106 -139q57 -21 137 -21q44 0 76 4v-210z" />
    <glyph glyph-name="si_Aa" unicode="&#xd86;" horiz-adv-x="850" 
d="M401 224q-14 0 -22 3v81q0 53 30 80l2 2v-1q0 -19 19 -41q5 -7 8 -11q15 -25 15 -57q0 -44 -37 -54q-8 -2 -15 -2zM351 -210h28v214q83 14 132 46v31q-52 -38 -132 -52v172q21 -6 39 -6q60 0 85 40q11 18 11 39q0 42 -44 78q-29 25 -33 34q-2 4 -2 8q1 11 9 17l7 3
l-22 11q-30 -8 -52 -33q-26 -31 -26 -86v-281q-29 -3 -61 -3q-146 0 -174 97q-5 20 -5 41q0 64 48 97q35 23 88 23h92v3q0 103 -79 131q-25 9 -54 9q-71 0 -95 -38q-7 -12 -7 -25q0 -28 28 -35q6 -2 12 -2q28 1 40 27t30 32q9 2 21 2q47 0 66 -46q8 -17 8 -36h-112
q-108 0 -148 -75q-17 -32 -17 -71q0 -99 106 -139q57 -21 137 -21q44 0 76 4v-210zM551 107q0 -75 61 -99q22 -9 47 -9q106 0 128 128q6 32 6 69q0 169 -100 194q-16 4 -34 4q-61 0 -92 -49q-16 -27 -16 -60q0 -14 1 -21h26q-1 6 -1 14q0 52 39 72q14 7 29 7q83 -2 83 -161
q-1 -159 -83 -161q-54 0 -65 54q-3 12 -3 25q0 10 1 15h-26q-1 -8 -1 -22z" />
    <glyph glyph-name="si_Ae" unicode="&#xd87;" horiz-adv-x="857" 
d="M534 306h203q-74 -83 -107 -189q-17 -55 -17 -103q0 -103 60 -142q26 -16 60 -16q63 1 97 40l-4 18q-22 -5 -37 -5q-72 0 -98 70q-11 30 -11 70q1 131 91 266q2 13 3 16h-240v-25zM401 224q-14 0 -22 3v81q0 53 30 80l2 2v-1q0 -19 19 -41q5 -7 8 -11q15 -25 15 -57
q0 -44 -37 -54q-8 -2 -15 -2zM351 -210h28v214q83 14 132 46v31q-52 -38 -132 -52v172q21 -6 39 -6q60 0 85 40q11 18 11 39q0 42 -44 78q-29 25 -33 34q-2 4 -2 8q1 11 9 17l7 3l-22 11q-30 -8 -52 -33q-26 -31 -26 -86v-281q-29 -3 -61 -3q-146 0 -174 97q-5 20 -5 41
q0 64 48 97q35 23 88 23h92v3q0 103 -79 131q-25 9 -54 9q-71 0 -95 -38q-7 -12 -7 -25q0 -28 28 -35q6 -2 12 -2q28 1 40 27t30 32q9 2 21 2q47 0 66 -46q8 -17 8 -36h-112q-108 0 -148 -75q-17 -32 -17 -71q0 -99 106 -139q57 -21 137 -21q44 0 76 4v-210z" />
    <glyph glyph-name="si_Aae" unicode="&#xd88;" horiz-adv-x="861" 
d="M401 224q-14 0 -22 3v81q0 53 30 80l2 2v-1q0 -19 19 -41q5 -7 8 -11q15 -25 15 -57q0 -44 -37 -54q-8 -2 -15 -2zM351 -210h28v214q83 14 132 46v31q-52 -38 -132 -52v172q21 -6 39 -6q60 0 85 40q11 18 11 39q0 42 -44 78q-29 25 -33 34q-2 4 -2 8q1 11 9 17l7 3
l-22 11q-30 -8 -52 -33q-26 -31 -26 -86v-281q-29 -3 -61 -3q-146 0 -174 97q-5 20 -5 41q0 64 48 97q35 23 88 23h92v3q0 103 -79 131q-25 9 -54 9q-71 0 -95 -38q-7 -12 -7 -25q0 -28 28 -35q6 -2 12 -2q28 1 40 27t30 32q9 2 21 2q47 0 66 -46q8 -17 8 -36h-112
q-108 0 -148 -75q-17 -32 -17 -71q0 -99 106 -139q57 -21 137 -21q44 0 76 4v-210zM532 308h196l-130 -95v-19h159q-113 -77 -136 -167q-5 -20 -5 -39q0 -86 67 -119q30 -14 69 -14q38 0 75 17v24q-143 2 -144 117q0 85 84 161q14 12 27 22v22h-147l124 92v21h-239v-23z" />
    <glyph glyph-name="si_I" unicode="&#xd89;" horiz-adv-x="579" 
d="M32 216q0 114 99 170q63 36 146 36q149 0 215 -94q39 -56 39 -135q0 -100 -72 -160q-38 -30 -84 -39q48 -9 53 -57q1 -5 1 -10q0 -54 -74 -75q-30 -8 -64 -8q-99 0 -118 57q-4 12 -4 25q0 30 25 36q4 1 8 1q25 -4 27 -26q0 -2 -1 -10q-2 -12 -2 -19q3 -41 67 -42
q57 0 70 36q3 9 3 17q0 50 -66 63q-18 3 -39 3q-10 0 -18 -1v28q13 1 24 1q8 0 24 -1t25 -1q95 0 145 64q33 42 33 100q0 96 -89 144q-55 30 -127 30q-118 0 -174 -62q-33 -37 -33 -88q0 -64 61 -99q38 -21 86 -21q80 1 107 38q-18 -14 -47 -14q-42 0 -64 36q-11 17 -11 36
q0 49 40 70q17 9 36 9q63 0 82 -53q6 -16 6 -35q0 -86 -96 -107q-26 -6 -56 -6q-103 0 -153 67q-30 41 -30 96zM231 178q0 -30 29 -44q11 -5 21 -5q31 0 45 28q5 11 5 21q0 30 -29 44q-11 5 -21 5q-31 0 -45 -28q-5 -11 -5 -21z" />
    <glyph glyph-name="si_Ii" unicode="&#xd8a;" horiz-adv-x="515" 
d="M400 457q0 -27 25 -35q7 -2 13 -2q28 0 35 26q2 5 2 11q0 28 -26 35q-5 2 -11 2q-27 0 -36 -25q-2 -6 -2 -12zM374 457q0 39 35 56q14 7 29 7q39 0 56 -35q6 -14 6 -28q0 -40 -35 -56q-13 -6 -27 -6q-39 0 -57 33q-7 14 -7 29zM142 525q0 -28 26 -35q6 -2 11 -2
q28 0 35 26q2 5 2 11q0 28 -26 35q-5 2 -11 2q-28 0 -35 -26q-2 -5 -2 -11zM115 525q0 39 35 56q14 7 29 7q39 0 56 -35q6 -14 6 -28q0 -40 -35 -56q-13 -6 -27 -6q-39 0 -57 33q-7 14 -7 29zM30 208q0 117 110 188q12 8 26 16q68 35 116 76q9 8 19 17q18 16 53 66
q26 36 45 37q22 -1 23 -17q-2 -31 -70 -88q-57 -46 -111 -77q7 1 15 1q100 -1 164 -70q51 -58 51 -137q0 -100 -75 -165q-64 -55 -154 -55q-105 0 -167 75q-45 57 -45 133zM64 231q0 -87 68 -131q44 -28 102 -28q92 0 147 65q39 48 39 111q0 95 -76 136q-38 20 -86 20
q-81 0 -141 -57q-52 -50 -53 -116z" />
    <glyph glyph-name="si_U" unicode="&#xd8b;" horiz-adv-x="635" 
d="M31 97q0 -121 101 -195q82 -59 188 -59q124 0 203 75q66 63 66 149h-28q0 -85 -76 -142q-66 -50 -151 -50q-102 0 -169 74q-58 66 -58 158q0 96 81 137q44 21 104 21h234v5q0 87 -69 129q-40 23 -90 23q-87 0 -103 -48q-3 -8 -3 -18q0 -25 24 -34q7 -2 13 -2q24 0 41 26
q23 34 59 35q52 0 82 -46q13 -22 15 -46h-237q-126 0 -189 -80q-38 -49 -38 -112z" />
    <glyph glyph-name="si_Uu" unicode="&#xd8c;" horiz-adv-x="967" 
d="M31 97q0 -121 101 -195q82 -59 188 -59q124 0 203 75q66 63 66 149h-28q0 -85 -76 -142q-66 -50 -151 -50q-102 0 -169 74q-58 66 -58 158q0 96 81 137q44 21 104 21h234v5q0 87 -69 129q-40 23 -90 23q-87 0 -103 -48q-3 -8 -3 -18q0 -25 24 -34q7 -2 13 -2q24 0 41 26
q23 34 59 35q52 0 82 -46q13 -22 15 -46h-237q-126 0 -189 -80q-38 -49 -38 -112zM569 313q0 -64 48 -93q24 -13 52 -13q63 0 85 42q7 15 7 32q-1 34 -36 54v7q2 54 54 55q70 -10 72 -165q0 -194 -69 -206q-5 -1 -10 -1q-56 0 -73 58q-5 19 -5 39q0 15 3 31h-25
q-4 -17 -4 -36q0 -75 53 -105q24 -14 55 -14q98 0 132 114q13 46 13 103q0 130 -60 182q-30 25 -71 25q-85 0 -92 -70v-11q0 -8 1 -12q20 -22 20 -46q0 -38 -33 -48q-9 -3 -18 -3q-49 0 -65 49q-5 16 -5 33q1 68 42 104h-35q-36 -40 -36 -105z" />
    <glyph glyph-name="si_vocalicR" unicode="&#xd8d;" horiz-adv-x="873" 
d="M602 243v-7h25v4q0 89 51 107q10 3 22 3q57 0 66 -96q2 -18 2 -37q-62 0 -101 -17q-64 -30 -65 -96q0 -59 44 -89q24 -16 52 -16q18 0 58 15q8 3 12 3q10 -2 15 -14h29q-1 7 -1 19q0 11 6 59q11 83 11 117q0 118 -57 165q-26 21 -61 21q-72 0 -98 -75q-10 -30 -10 -66z
M632 104q1 59 58 77q29 9 78 9v-8v-26q-1 -27 -1 -43q0 -54 3 -74q-4 3 -9 3q-4 0 -18 -5q-28 -10 -43 -10q-42 0 -60 41q-8 17 -8 36zM30 150q0 -73 54 -118q41 -33 95 -33q93 1 127 81q32 -79 124 -80q103 0 144 76q20 37 20 86q0 68 -49 110q-13 11 -27 18q24 21 28 52
q0 62 -68 77q-16 3 -33 3q-74 0 -105 -66q-15 -32 -15 -72v-9q48 9 97 9q92 0 124 -60q12 -24 12 -53q0 -57 -54 -86q-29 -15 -64 -15q-80 0 -109 42q-11 17 -11 36v30h-26v-30q0 -47 -53 -68q-25 -10 -53 -10q-69 0 -103 48q-18 24 -18 53q0 72 73 101q32 12 67 12
q34 0 79 -9v14q0 87 -61 119q-27 14 -62 14q-67 0 -93 -39q-9 -15 -9 -32q0 -29 27 -35q4 -1 8 -1q25 2 37 32q12 33 42 38q7 1 14 1q37 0 57 -38q11 -20 11 -42v-3q-20 6 -53 6q-90 0 -140 -60q-34 -41 -34 -99zM354 303q9 80 85 81q54 0 67 -32q2 -7 2 -14q-1 -23 -15 -39
q-31 10 -78 10q-39 0 -61 -6z" />
    <glyph glyph-name="si_vocalicRr" unicode="&#xd8e;" horiz-adv-x="1113" 
d="M602 243v-7h25v4q0 89 51 107q10 3 22 3q57 0 66 -96q2 -18 2 -37q-62 0 -101 -17q-64 -30 -65 -96q0 -59 44 -89q24 -16 52 -16q18 0 58 15q8 3 12 3q10 -2 15 -14h29q-1 7 -1 19q0 11 6 59q11 83 11 117q0 118 -57 165q-26 21 -61 21q-72 0 -98 -75q-10 -30 -10 -66z
M632 104q1 59 58 77q29 9 78 9v-8v-26q-1 -27 -1 -43q0 -54 3 -74q-4 3 -9 3q-4 0 -18 -5q-28 -10 -43 -10q-42 0 -60 41q-8 17 -8 36zM843 243v-7h25v4q0 89 51 107q10 3 22 3q57 0 66 -96q2 -18 2 -37q-62 0 -101 -17q-64 -30 -65 -96q0 -59 44 -89q24 -16 52 -16
q18 0 58 15q8 3 12 3q10 -2 15 -14h29q-1 7 -1 19q0 11 6 59q11 83 11 117q0 118 -57 165q-26 21 -61 21q-72 0 -98 -75q-10 -30 -10 -66zM873 104q1 59 58 77q29 9 78 9v-8v-26q-1 -27 -1 -43q0 -54 3 -74q-5 3 -9 3t-18 -5q-28 -10 -43 -10q-42 0 -60 41q-8 17 -8 36z
M30 150q0 -73 54 -118q41 -33 95 -33q93 1 127 81q32 -79 124 -80q103 0 144 76q20 37 20 86q0 68 -49 110q-13 11 -27 18q24 21 28 52q0 62 -68 77q-16 3 -33 3q-74 0 -105 -66q-15 -32 -15 -72v-9q48 9 97 9q92 0 124 -60q12 -24 12 -53q0 -57 -54 -86q-29 -15 -64 -15
q-80 0 -109 42q-11 17 -11 36v30h-26v-30q0 -47 -53 -68q-25 -10 -53 -10q-69 0 -103 48q-18 24 -18 53q0 72 73 101q32 12 67 12q34 0 79 -9v14q0 87 -61 119q-27 14 -62 14q-67 0 -93 -39q-9 -15 -9 -32q0 -29 27 -35q4 -1 8 -1q25 2 37 32q12 33 42 38q7 1 14 1
q37 0 57 -38q11 -20 11 -42v-3q-20 6 -53 6q-90 0 -140 -60q-34 -41 -34 -99zM354 303q9 80 85 81q54 0 67 -32q2 -7 2 -14q-1 -23 -15 -39q-31 10 -78 10q-39 0 -61 -6z" />
    <glyph glyph-name="si_vocalicL" unicode="&#xd8f;" horiz-adv-x="800" 
d="M625 52q5 20 24 24q21 -5 25 -24q0 -19 -19 -24q-3 -1 -6 -1q-20 5 -24 25zM694 76q-15 26 -44 27q-7 0 -10 -1q20 35 20 80q-1 79 -59 114q27 21 27 50q-1 24 -17 44q-13 19 -13 36q1 15 21 15q56 0 86 -82q21 -55 21 -125q0 -90 -26 -147q-3 -6 -6 -11zM568 435
q0 -9 5 -20q-21 8 -46 8q-92 0 -110 -71q-4 -15 -4 -32q0 -19 2 -30q39 7 68 7q112 0 137 -64q6 -15 6 -33q0 -76 -104 -111q-57 -19 -124 -19q-136 0 -198 54q-33 30 -34 72q0 76 94 94q24 5 51 5q16 0 52 -4q4 17 4 35q0 81 -82 95q-15 3 -31 3q-21 0 -41 -5q4 6 4 16
q-6 33 -47 35q-74 0 -113 -89q-27 -62 -27 -147q0 -107 37 -178q28 -54 68 -55q34 0 47 30q4 11 4 21v4q69 -56 212 -56q130 1 202 57v-5q0 -34 30 -47q10 -4 20 -4q59 0 89 111q16 59 16 122q0 135 -61 200q-35 36 -79 36q-45 -3 -47 -35zM111 52q5 20 25 24q20 -5 24 -24
q-5 -21 -24 -25q-19 0 -24 19q-1 3 -1 6zM130 180q0 -46 18 -79q-9 2 -13 2q-30 -1 -44 -27q-28 46 -31 147v11q0 116 47 175q26 31 59 32q21 -2 22 -15q-1 -11 -19 -31l1 1q-17 -18 -17 -40q0 -29 28 -35q5 -1 9 -1q34 1 44 32q11 33 48 34q40 0 52 -35q4 -11 4 -23v-6
q-1 -3 -1 -5q-27 2 -36 2q-120 0 -158 -77q-13 -28 -13 -62zM444 328q0 49 48 64q14 4 29 4q53 0 68 -35q4 -9 4 -18q-1 -18 -17 -35q-33 12 -84 12q-23 0 -48 -3q-1 0 0 5v6z" />
    <glyph glyph-name="si_vocalicLL" unicode="&#xd90;" horiz-adv-x="1174" 
d="M625 52q5 20 24 24q21 -5 25 -24q0 -19 -19 -24q-3 -1 -6 -1q-20 5 -24 25zM694 76q-15 26 -44 27q-7 0 -10 -1q20 35 20 80q-1 79 -59 114q27 21 27 50q-1 24 -17 44q-13 19 -13 36q1 15 21 15q56 0 86 -82q21 -55 21 -125q0 -90 -26 -147q-3 -6 -6 -11zM568 435
q0 -9 5 -20q-21 8 -46 8q-92 0 -110 -71q-4 -15 -4 -32q0 -19 2 -30q39 7 68 7q112 0 137 -64q6 -15 6 -33q0 -76 -104 -111q-57 -19 -124 -19q-136 0 -198 54q-33 30 -34 72q0 76 94 94q24 5 51 5q16 0 52 -4q4 17 4 35q0 81 -82 95q-15 3 -31 3q-21 0 -41 -5q4 6 4 16
q-6 33 -47 35q-74 0 -113 -89q-27 -62 -27 -147q0 -107 37 -178q28 -54 68 -55q34 0 47 30q4 11 4 21v4q69 -56 212 -56q130 1 202 57v-5q0 -34 30 -47q10 -4 20 -4q59 0 89 111q16 59 16 122q0 135 -61 200q-35 36 -79 36q-45 -3 -47 -35zM111 52q5 20 25 24q20 -5 24 -24
q-5 -21 -24 -25q-19 0 -24 19q-1 3 -1 6zM130 180q0 -46 18 -79q-9 2 -13 2q-30 -1 -44 -27q-28 46 -31 147v11q0 116 47 175q26 31 59 32q21 -2 22 -15q-1 -11 -19 -31l1 1q-17 -18 -17 -40q0 -29 28 -35q5 -1 9 -1q34 1 44 32q11 33 48 34q40 0 52 -35q4 -11 4 -23v-6
q-1 -3 -1 -5q-27 2 -36 2q-120 0 -158 -77q-13 -28 -13 -62zM444 328q0 49 48 64q14 4 29 4q53 0 68 -35q4 -9 4 -18q-1 -18 -17 -35q-33 12 -84 12q-23 0 -48 -3q-1 0 0 5v6zM777 313q0 -64 48 -93q24 -13 52 -13q63 0 85 42q7 15 7 32q-1 34 -36 54v7q2 54 54 55
q70 -10 72 -165q0 -194 -69 -206q-5 -1 -10 -1q-56 0 -73 58q-5 19 -5 39q0 15 3 31h-25q-4 -17 -4 -36q0 -75 53 -105q24 -14 55 -14q98 0 132 114q13 46 13 103q0 130 -60 182q-30 25 -71 25q-85 0 -92 -70v-11q0 -8 1 -12q20 -22 20 -46q0 -38 -33 -48q-9 -3 -18 -3
q-49 0 -65 49q-5 16 -5 33q1 68 42 104h-35q-36 -40 -36 -105z" />
    <glyph glyph-name="si_E" unicode="&#xd91;" horiz-adv-x="581" 
d="M44 161q0 -109 118 -146q48 -15 108 -15q157 0 225 106q37 59 37 133q0 88 -42 165q-5 8 -9 16q-44 76 -121 135q-23 17 -43 28q-41 -48 -41 -114q0 -72 48 -103q22 -15 50 -15q62 1 86 51q41 -60 41 -141q0 -118 -101 -166q-54 -25 -128 -25q-139 0 -179 61
q-13 20 -13 45q1 42 39 67q43 28 107 28h62v12q0 79 -54 117q-31 22 -73 22q-67 0 -91 -40q-8 -14 -8 -30q0 -29 28 -36q5 -1 9 -1q28 2 36 33q10 37 52 38q36 0 58 -39q12 -22 12 -46v-6h-241v-31q33 6 110 7h10q-35 -8 -60 -29q-32 -30 -32 -81zM306 473q0 44 20 74
q75 -55 115 -117q-14 -43 -60 -44q-74 2 -75 87z" />
    <glyph glyph-name="si_Ee" unicode="&#xd92;" horiz-adv-x="581" 
d="M458 503v130q64 -33 77 -59q7 -14 7 -30q-2 -46 -53 -47q-19 0 -31 6zM44 161q0 -109 118 -146q48 -15 108 -15q153 0 223 102q39 59 39 131q0 86 -46 161q-3 5 -5 8q-8 12 -23 33v45q22 -7 44 -7q57 0 75 42q5 13 5 27q0 57 -55 86q-11 6 -35 16q-45 20 -62 34v-209
q-59 67 -113 96q-41 -48 -41 -114q0 -72 48 -103q22 -15 50 -15q61 1 86 52q41 -61 41 -130q0 -101 -86 -151q-58 -34 -143 -34q-139 0 -179 61q-13 20 -13 45q1 42 39 67q43 28 107 28h56v12q0 77 -50 113q-28 20 -67 20q-67 0 -93 -38q-10 -16 -10 -33q0 -28 28 -34
q4 -1 8 -1q26 2 37 31q13 34 42 38q6 1 12 1q36 0 54 -42q8 -19 8 -37v-6h-235v-31q33 6 110 7h10q-35 -8 -60 -29q-32 -30 -32 -81zM306 455q0 44 20 74q75 -55 115 -117q-14 -43 -60 -44q-74 2 -75 87z" />
    <glyph glyph-name="si_Ai" unicode="&#xd93;" horiz-adv-x="1150" 
d="M615 161q0 -109 118 -146q48 -15 108 -15q157 0 225 106q37 59 37 133q0 88 -42 165q-5 8 -9 16q-44 76 -121 135q-23 17 -43 28q-41 -48 -41 -114q0 -72 48 -103q22 -15 50 -15q62 1 86 51q41 -60 41 -141q0 -118 -101 -166q-54 -25 -128 -25q-139 0 -179 61
q-13 20 -13 45q1 42 39 67q43 28 107 28h62v12q0 79 -54 117q-31 22 -73 22q-67 0 -91 -40q-8 -14 -8 -30q0 -29 28 -36q5 -1 9 -1q28 2 36 33q10 37 52 38q36 0 58 -39q12 -22 12 -46v-6h-241v-31q33 6 110 7h10q-35 -8 -60 -29q-32 -30 -32 -81zM877 473q0 44 20 74
q75 -55 115 -117q-14 -43 -60 -44q-74 2 -75 87zM230 239q0 29 31 42q12 4 23 4q35 0 49 -28q5 -9 5 -18q0 -29 -31 -42q-12 -4 -23 -4q-35 0 -49 28q-5 8 -5 18zM32 207q0 -108 87 -167q61 -40 144 -40q146 0 196 86q20 34 20 78q0 91 -85 130q-43 20 -97 20q-62 0 -89 -41
q-10 -17 -10 -37q0 -43 44 -64q21 -10 43 -10q52 0 75 36q10 17 10 36q-1 27 -18 46q65 -12 85 -60q7 -17 7 -34q0 -73 -91 -103q-41 -13 -90 -13q-94 0 -150 62q-39 44 -39 100q0 81 85 129q60 34 135 34q117 0 190 -77q47 -50 58 -117h28q-10 108 -105 172q-74 49 -171 49
q-119 0 -196 -70q-65 -60 -66 -145z" />
    <glyph glyph-name="si_O" unicode="&#xd94;" horiz-adv-x="621" 
d="M268 354q0 30 27 42q8 4 18 4q30 0 42 -28q4 -8 4 -18q0 -29 -28 -41q-8 -4 -18 -4q-30 0 -42 28q-3 8 -3 17zM29 219q0 -99 51 -164q44 -54 111 -55q78 1 107 54q20 -49 87 -54h11q124 0 164 132q16 52 16 116q0 150 -88 240q-77 76 -193 76q-155 0 -231 -105
q-2 -2 -3 -4h29q62 78 169 86q16 1 32 1q129 0 200 -97q50 -71 50 -166q0 -106 -52 -166q-37 -42 -89 -43q-67 0 -85 43q-5 12 -5 25v25h-24v-24q0 -52 -55 -66q-17 -4 -37 -4q-75 0 -112 75q-22 46 -22 104q0 78 37 123q20 24 45 25q24 -7 26 -33v-32q0 -72 62 -100
q27 -12 59 -12q73 0 105 51q14 24 14 52q0 65 -49 91q-21 11 -45 11q-49 0 -68 -40q-7 -16 -7 -32q0 -42 36 -61q16 -9 36 -9q44 0 66 37l2 4q1 -3 1 -5q0 -47 -51 -65q-20 -6 -41 -6q-65 0 -87 47q-7 16 -7 35v33q-1 38 -18 51q-14 9 -31 9q-61 0 -94 -81q-22 -55 -22 -122
z" />
    <glyph glyph-name="si_Oo" unicode="&#xd95;" horiz-adv-x="621" 
d="M136 530q0 22 63 37q38 9 78 9q140 0 207 -93q23 -32 34 -71q-83 95 -246 95q-58 0 -116 -11q3 3 3 7q0 5 -13 14q-9 8 -10 13zM41 432q107 50 234 50q150 0 221 -87q44 -54 44 -129q0 -15 -1 -22q-10 -103 -69 -150q-32 -24 -70 -24q-67 0 -85 43q-5 12 -5 25v25h-24
v-24q0 -52 -55 -66q-17 -4 -37 -4q-75 0 -112 75q-22 46 -22 104q0 78 37 123q20 24 45 25q24 -7 26 -33v-32q0 -72 62 -100q27 -12 59 -12q73 0 105 51q14 24 14 52q0 65 -49 91q-21 11 -45 11q-49 0 -68 -40q-7 -16 -7 -32q0 -42 36 -61q16 -9 36 -9q44 0 66 37l2 4
q1 -3 1 -5q0 -47 -51 -65q-20 -6 -41 -6q-65 0 -87 47q-7 16 -7 35v33q-1 38 -18 51q-14 9 -31 9q-61 0 -94 -81q-22 -55 -22 -122q0 -99 51 -164q44 -54 111 -55q78 1 107 54q20 -49 87 -54h11q123 0 164 131q15 49 16 108v4v5q-2 63 -17 100q-15 161 -128 228
q-67 38 -160 38q-108 0 -157 -46q-17 -18 -18 -35q0 -12 18 -25q8 -8 9 -12q0 -6 -61 -26q-13 -5 -21 -8v-30zM268 354q0 30 27 42q8 4 18 4q30 0 42 -28q4 -8 4 -18q0 -29 -28 -41q-8 -4 -18 -4q-30 0 -42 28q-3 8 -3 17z" />
    <glyph glyph-name="si_Au" unicode="&#xd96;" horiz-adv-x="1009" 
d="M268 354q0 30 27 42q8 4 18 4q30 0 42 -28q4 -8 4 -18q0 -29 -28 -41q-8 -4 -18 -4q-30 0 -42 28q-3 8 -3 17zM29 219q0 -99 51 -164q44 -54 111 -55q78 1 107 54q20 -49 87 -54h11q124 0 164 132q16 52 16 116q0 150 -88 240q-77 76 -193 76q-155 0 -231 -105
q-2 -2 -3 -4h29q62 78 169 86q16 1 32 1q129 0 200 -97q50 -71 50 -166q0 -106 -52 -166q-37 -42 -89 -43q-67 0 -85 43q-5 12 -5 25v25h-24v-24q0 -52 -55 -66q-17 -4 -37 -4q-75 0 -112 75q-22 46 -22 104q0 78 37 123q20 24 45 25q24 -7 26 -33v-32q0 -72 62 -100
q27 -12 59 -12q73 0 105 51q14 24 14 52q0 65 -49 91q-21 11 -45 11q-49 0 -68 -40q-7 -16 -7 -32q0 -42 36 -61q16 -9 36 -9q44 0 66 37l2 4q1 -3 1 -5q0 -47 -51 -65q-20 -6 -41 -6q-65 0 -87 47q-7 16 -7 35v33q-1 38 -18 51q-14 9 -31 9q-61 0 -94 -81q-22 -55 -22 -122
zM610 313q0 -64 48 -93q24 -13 52 -13q63 0 85 42q7 15 7 32q-1 34 -36 54v7q2 54 54 55q70 -10 72 -165q0 -194 -69 -206q-5 -1 -10 -1q-56 0 -73 58q-5 19 -5 39q0 15 3 31h-25q-4 -17 -4 -36q0 -75 53 -105q24 -14 55 -14q98 0 132 114q13 46 13 103q0 130 -60 182
q-30 25 -71 25q-85 0 -92 -70v-11q0 -8 1 -12q20 -22 20 -46q0 -38 -33 -48q-9 -3 -18 -3q-49 0 -65 49q-5 16 -5 33q1 68 42 104h-35q-36 -40 -36 -105z" />
    <glyph glyph-name="si_Ka" unicode="&#xd9a;" horiz-adv-x="728" 
d="M21 21l25 -10q6 59 39 60q12 0 28 -23q24 -35 52 -44q16 -5 34 -5q63 1 90 63q31 -63 99 -63q79 0 106 72q9 25 9 52q0 114 -95 161q-49 25 -113 25q-50 0 -81 -8q69 58 177 58q115 0 185 -71q57 -58 57 -139q0 -73 -44 -108q-21 -16 -45 -16q-33 0 -50 12v-26
q17 -12 49 -12q85 0 123 93q19 46 19 96q0 114 -82 181q-66 55 -161 55q-134 -1 -228 -91q1 6 1 15q0 51 -46 69q-17 6 -36 6q-59 0 -89 -43q-16 -22 -16 -48q0 -31 25 -40q7 -2 14 -2q27 1 37 25q1 2 6 27q1 6 3 12q11 27 41 29q32 -3 34 -39q-1 -25 -24 -50
q-42 -45 -58 -67q-49 -68 -75 -159q-7 -26 -10 -47zM68 93q17 56 58 114q29 39 52 60q41 17 113 17q109 0 152 -63q20 -29 20 -66q0 -52 -38 -75q-18 -10 -42 -10q-71 0 -81 62q-2 13 -2 27v1h-26v-1q0 -80 -67 -88q-6 -1 -13 -1q-32 0 -77 21q-19 8 -30 8q-10 -1 -19 -6z
" />
    <glyph glyph-name="si_Kha" unicode="&#xd9b;" horiz-adv-x="615" 
d="M91 70q0 -28 26 -39q8 -3 16 -3q28 0 39 26q3 8 3 16q0 28 -26 39q-8 3 -16 3q-28 0 -39 -26q-3 -8 -3 -16zM31 179q0 125 92 180q48 28 111 28q90 0 139 -55q30 -35 30 -80q-1 -77 -65 -140q4 1 9 1q12 0 31 -21q23 -25 46 -26q48 0 81 82q28 69 28 146q0 144 -93 218
q-64 50 -153 50q-132 -1 -192 -103h-33q71 127 229 128q132 0 211 -98q68 -85 68 -210q0 -126 -54 -210q-46 -68 -110 -69q-37 0 -66 33q-18 19 -27 20q-22 0 -77 -72q-2 -1 -2 -2l-35 3q7 7 34 40q29 38 48 60q77 92 77 145q-2 84 -128 85q-83 0 -132 -55q-36 -43 -36 -105
q0 -30 8 -53q10 33 47 41q8 2 15 2q54 0 69 -46q4 -13 4 -26q0 -38 -32 -60q-17 -11 -35 -11q-73 0 -98 101q-9 37 -9 79z" />
    <glyph glyph-name="si_Ga" unicode="&#xd9c;" horiz-adv-x="621" 
d="M33 202q0 -104 63 -163q45 -41 107 -41q84 0 122 63q19 32 19 72q0 74 -49 96q-15 6 -31 6q-13 -1 -23 -5q19 87 84 119q28 13 59 13q86 0 125 -74q21 -41 21 -93q0 -90 -68 -139q-46 -33 -108 -33q-9 0 -24 2v-24q22 -2 30 -2q111 0 171 82q41 57 41 131q0 107 -63 167
q-46 43 -109 43q-108 0 -160 -114q-23 -53 -29 -120h24q0 6 2 17q10 7 24 7q41 0 49 -42q1 -8 1 -16q0 -58 -63 -77q-22 -7 -47 -7q-80 0 -116 73q-18 37 -18 82q0 92 62 142q39 31 88 31h11v23q-2 0 -6 1h-7q-90 0 -143 -81q-39 -60 -39 -139z" />
    <glyph glyph-name="si_Gha" unicode="&#xd9d;" horiz-adv-x="661" 
d="M50 150q0 -73 53 -118q39 -33 91 -33q38 0 77 12q3 7 3 23q0 9 -6 45q-2 12 -2 25q0 49 42 61q8 2 16 2q37 0 52 -32q7 -14 7 -31q0 -10 -7 -46q-2 -12 -2 -24q0 -15 4 -23q40 -12 76 -12q92 0 135 69q24 40 24 94q0 68 -49 110q-13 11 -27 18q24 21 28 52q0 63 -68 77
q-15 3 -32 3q-74 0 -105 -66q-15 -32 -15 -72v-9q42 9 93 9q109 0 135 -71q6 -19 6 -39q0 -60 -66 -89q-33 -15 -72 -15q-26 0 -32 5q3 15 3 30q0 71 -62 87q-13 3 -26 3q-56 0 -78 -44q-10 -20 -10 -46q0 -15 3 -30q-6 -5 -32 -5q-69 0 -103 48q-17 24 -17 53q0 63 65 92
q30 13 59 13h95v13q0 87 -61 119q-27 14 -62 14q-67 0 -93 -38q-10 -16 -10 -33q0 -29 27 -35q4 -1 8 -1q25 2 37 32q16 38 55 39q38 0 58 -39q9 -20 9 -42v-4h-269v-31q23 4 130 6q-76 -29 -84 -109q-1 -9 -1 -17zM373 303q9 80 86 81q55 0 66 -33q2 -7 2 -13
q-1 -24 -14 -39q-27 10 -78 10q-42 0 -62 -6z" />
    <glyph glyph-name="si_Nga" unicode="&#xd9e;" horiz-adv-x="602" 
d="M86 339q0 -30 30 -43q11 -5 23 -5q34 0 47 29q4 10 4 19q0 30 -29 43q-11 5 -22 5q-34 0 -48 -29q-5 -9 -5 -19zM45 457q88 111 229 111q120 0 202 -91q81 -91 81 -223q0 -151 -66 -218q-37 -36 -85 -36q-61 0 -97 37q-8 9 -18 21q-47 -57 -107 -58q-76 0 -114 61
q-20 34 -20 76q0 67 59 99q31 16 66 16q18 0 50 -4q32 -3 48 -3q61 2 62 58q0 63 -70 88q-28 10 -56 10q-16 0 -31 -2q38 -22 39 -62q0 -38 -37 -60q-19 -11 -42 -11q-44 0 -68 35q-11 18 -11 37q0 58 77 78q30 8 67 8q102 0 143 -64q17 -28 17 -61q0 -55 -49 -73
q-19 -7 -41 -7q-20 0 -47 3q-28 3 -49 3q-59 0 -82 -40q-8 -15 -8 -33q0 -54 51 -74q20 -8 44 -8q61 0 85 38q10 15 10 33v32h27v-32q0 -44 52 -64q22 -8 46 -8q75 0 105 95q15 49 15 111q0 125 -83 204q-70 66 -168 66q-116 -1 -195 -88h-31z" />
    <glyph glyph-name="si_Nnga" unicode="&#xd9f;" horiz-adv-x="731" 
d="M147 202q0 -104 63 -163q45 -41 107 -41q84 0 122 63q19 32 19 72q0 74 -49 96q-15 6 -31 6q-13 -1 -23 -5q19 87 84 119q28 13 59 13q87 0 126 -74q21 -41 21 -93q0 -89 -68 -139q-47 -33 -109 -33q-9 0 -24 2v-24q22 -2 31 -2q111 0 171 82q41 57 41 131q0 107 -63 167
q-46 43 -109 43q-108 0 -160 -113q-24 -54 -30 -121h25q0 6 2 17q10 7 23 7q41 0 49 -42q1 -8 1 -16q0 -58 -63 -77q-22 -7 -47 -7q-81 0 -116 74q-17 37 -17 81q0 93 63 143q38 30 86 30h11v23q-2 0 -6 1h-7q-9 1 -25 1h-29h-27h-15q-150 0 -193 -117q-14 -40 -14 -90
q0 -115 62 -183q21 -21 44 -33v29q-77 67 -77 184q0 182 188 186h2q-73 -43 -93 -142q-5 -27 -5 -55z" />
    <glyph glyph-name="si_Ca" unicode="&#xda0;" 
d="M62 161q0 -109 118 -146q48 -15 108 -15q164 0 234 114q40 65 40 154q0 135 -85 220q-75 75 -181 75q-141 -1 -214 -104h31q67 81 183 81q106 0 174 -82q58 -70 58 -165q0 -136 -103 -192q-56 -31 -134 -31q-139 0 -179 61q-13 20 -13 45q1 42 39 67q43 28 106 28h68v12
q0 107 -81 133q-22 6 -47 6q-67 0 -93 -38q-10 -16 -10 -33q0 -29 27 -35q4 -1 8 -1q26 1 38 32q10 27 28 34q13 5 29 5q41 0 60 -41q9 -20 9 -44v-6h-266v-31q31 5 131 7h9q-34 -7 -59 -29q-33 -31 -33 -81z" />
    <glyph glyph-name="si_Cha" unicode="&#xda1;" 
d="M462 284q-38 18 -94 20q3 51 17 96h8q98 -2 99 -112q0 -9 -2 -22q-11 10 -28 18zM300 303q-1 5 -1 13q1 59 56 78q-11 -45 -14 -89q-26 0 -41 -2zM32 166q0 -118 143 -153q52 -13 116 -13q148 0 211 71q34 39 34 93q-1 44 -22 77q6 24 6 49q0 102 -77 128q-22 7 -47 7h-2
q20 50 47 79q35 38 88 53q22 6 25 16q1 5 1 9q0 15 -17 20q-5 1 -9 1q-53 -1 -109 -70q-32 -41 -57 -111q-78 -14 -89 -88q-2 -11 -2 -22q0 -16 5 -34q33 2 64 4q2 -101 57 -122q12 -4 25 -4q50 1 76 48q3 -11 3 -22q0 -85 -137 -106q-37 -6 -80 -6q-148 0 -197 58
q-20 23 -20 54q0 54 58 82q39 19 98 19q11 0 24 -2q4 17 4 37q0 73 -61 96q-21 8 -46 8q-61 0 -84 -38q-9 -15 -9 -32q0 -29 27 -37q5 -1 10 -1q12 0 21 6t13 12.5t11 21.5q14 27 39 28q42 0 50 -44q1 -8 1 -15q0 -6 -2 -19q-6 1 -19 1q-107 0 -151 -69q-20 -32 -20 -70z
M425 183q-54 1 -57 98q81 -5 115 -45q-20 -52 -58 -53z" />
    <glyph glyph-name="si_Ja" unicode="&#xda2;" 
d="M430 304q-38 0 -46 43q-2 9 -2 18q0 12 2 31q8 1 21 1q60 0 71 -37q2 -6 2 -13q0 -32 -32 -41q-8 -2 -16 -2zM318 302q-3 14 -3 24q1 47 40 63q-1 -8 -1 -23q1 -38 19 -63q-9 1 -25 1q-15 0 -30 -2zM32 166q0 -118 143 -153q52 -13 116 -13q148 0 211 71q34 39 34 93
q-1 84 -74 119q44 17 46 62q0 54 -61 73q-19 6 -38 6q-12 0 -18 -1q15 44 47 76q23 24 83 53q33 18 34 30q-6 18 -24 21q-38 -1 -86 -45q-65 -60 -85 -139q-73 -20 -74 -96q0 -23 7 -45q4 0 15 1q25 3 39 3q118 0 148 -66q7 -16 7 -34q0 -85 -137 -106q-37 -6 -80 -6
q-148 0 -197 58q-20 23 -20 54q0 54 58 82q39 19 98 19q9 0 32 -2q4 17 4 37q0 71 -60 95q-23 9 -50 9q-63 0 -87 -37q-9 -15 -9 -32q0 -30 25 -38q5 -1 10 -1q26 0 41 30l5 10q14 27 44 28q41 0 50 -43q2 -8 2 -16q0 -6 -2 -19q-10 1 -26 1q-107 0 -151 -69
q-20 -32 -20 -70z" />
    <glyph glyph-name="si_Jha" unicode="&#xda3;" horiz-adv-x="1061" 
d="M68 93q17 56 58 114q29 39 52 60q41 17 113 17q109 0 152 -63q20 -29 20 -66q0 -52 -38 -75q-18 -10 -42 -10q-71 0 -81 62q-2 13 -2 27v1h-26v-1q0 -80 -67 -88q-6 -1 -13 -1q-32 0 -77 21q-19 8 -30 8q-10 -1 -19 -6zM295 309q-50 0 -81 -8q95 83 209 93q20 2 40 2
q82 0 136 -15q-2 -1 -5 -1q-4 -2 -6 -2q-61 -21 -94 -91q-14 -29 -19 -61q-59 81 -180 83zM21 21l25 -10q6 59 39 60q12 0 28 -23q24 -35 52 -44q16 -5 34 -5q63 1 90 63q31 -63 99 -63q77 0 104 68q3 7 5 14q43 -80 128 -81q64 1 110 58q45 -57 117 -58q108 0 147 131
q16 56 16 124q0 144 -93 234q-80 77 -191 77q-145 -1 -228 -109h31q78 86 193 86q117 0 191 -86q63 -75 63 -180q0 -114 -53 -171q-34 -36 -81 -36q-74 0 -92 53q-5 14 -5 30v39h-27v-39q0 -68 -72 -81q-14 -2 -28 -2q-66 0 -100 62q-18 34 -18 75q0 78 57 126q38 31 84 31
h9v25q-62 35 -191 35q-148 0 -247 -88l-3 -3q1 6 1 15q0 51 -46 69q-17 6 -36 6q-59 0 -89 -43q-16 -22 -16 -48q0 -31 25 -40q7 -2 14 -2q27 1 37 25q1 2 6 27q1 6 3 12q11 27 41 29q32 -3 34 -39q-1 -25 -24 -50q-42 -45 -58 -67q-49 -68 -75 -159q-7 -26 -10 -47z" />
    <glyph glyph-name="si_Nya" unicode="&#xda4;" horiz-adv-x="1000" 
d="M190 93q17 56 58 114q29 39 52 60q41 17 113 17q109 0 152 -63q20 -29 20 -66q0 -52 -38 -75q-18 -10 -42 -10q-71 0 -81 62q-2 13 -2 27v1h-26v-1q0 -80 -67 -88q-6 -1 -13 -1q-32 0 -77 21q-19 8 -30 8q-10 -1 -19 -6zM143 21l25 -10q6 59 39 60q12 0 28 -23
q24 -35 52 -44q16 -5 34 -5q63 1 90 63q31 -63 99 -63q78 1 106 72q51 -73 171 -73q43 0 83 12q-68 -92 -68 -149q0 -74 68 -92q17 -4 35 -5q34 0 53 4v27q-78 19 -95 64q-6 18 -6 39q0 63 78 150q20 23 21 24l-22 18q-57 -65 -121 -65q-74 0 -118 56q-30 39 -30 87
q2 118 131 119h133q-23 111 -124 131q-50 14 -132 14q-115 0 -204 -30q-78 -26 -133 -69q1 6 1 15q0 52 -48 69q-14 5 -30 6q-12 1 -26 1q-148 0 -192 -115q-15 -41 -15 -93q0 -115 62 -183q21 -21 44 -33v29q-77 67 -77 184q0 128 91 169q13 6 27 9l2 1q-25 -27 -25 -60
q0 -31 25 -40q7 -2 14 -2q27 1 37 25q1 2 6 27q1 6 3 12q11 27 41 29q31 -6 35 -39q-1 -24 -25 -50q-38 -40 -57 -67q-50 -69 -76 -159q-7 -26 -10 -47zM417 309q-50 0 -81 -8q90 69 199 92q9 2 16 3q47 9 116 9h28q-24 -18 -25 -42q4 -33 37 -35q27 2 41 29q16 29 42 30
q48 0 83 -38q16 -19 21 -40h-118q-144 -1 -177 -86q-48 79 -164 85q-9 1 -18 1z" />
    <glyph glyph-name="si_Jnya" unicode="&#xda5;" horiz-adv-x="822" 
d="M131 202q0 -104 63 -163q45 -41 107 -41q86 0 123 66q5 9 8 18q49 -82 177 -83q46 0 83 11q-68 -92 -68 -149q0 -72 66 -91q18 -5 38 -6q34 0 52 4v27q-77 19 -93 63q-7 17 -7 40q0 64 79 154q19 20 19 21l-22 17q-56 -64 -120 -64q-74 0 -118 56q-31 38 -31 87
q2 117 131 118h133q-21 107 -93 129q-8 3 -15 4q-36 8 -96 8q-217 -2 -239 -240h26q0 6 2 17q9 7 22 7q41 0 49 -42q1 -8 1 -16q0 -59 -64 -78q-20 -6 -45 -6q-80 0 -116 74q-18 37 -18 81q0 93 63 143q38 30 86 30h11v23q-1 0 -5 1h-5h1q-13 1 -83 1q-150 0 -193 -117
q-14 -40 -14 -90q0 -115 62 -183q21 -21 44 -33v29q-77 67 -77 184q0 129 91 169q34 13 77 14q-71 -46 -88 -145q-4 -24 -4 -49zM361 235q-13 -1 -22 -5q28 135 133 163q25 7 53 7h7q-17 -16 -17 -37q4 -33 37 -35q26 2 40 29q16 29 43 30q56 0 77 -63l4 -14h-117
q-155 -1 -182 -100q-23 25 -56 25z" />
    <glyph glyph-name="si_Ndja" unicode="&#xda6;" horiz-adv-x="682" 
d="M528 304q-38 0 -46 43q-2 9 -2 18q0 16 3 31q7 1 21 1q61 0 71 -39q1 -6 1 -11q0 -32 -32 -41q-8 -2 -16 -2zM417 302q-3 14 -3 24q1 47 40 63q-1 -8 -1 -23q1 -38 19 -63q-10 1 -26 1q-14 0 -29 -2zM131 166q0 -118 143 -153q52 -13 116 -13q148 0 211 71q34 39 34 93
q-1 85 -75 119q45 15 46 62q0 54 -60 73q-19 6 -38 6q-13 0 -19 -1q14 42 48 76q23 24 83 54q32 17 33 29q-4 19 -23 21q-38 -1 -86 -45q-65 -60 -85 -139q-73 -20 -74 -96q0 -23 7 -45q4 0 15 1q24 3 38 3q117 0 148 -64q8 -17 8 -36q0 -85 -137 -106q-37 -6 -80 -6
q-148 0 -197 58q-20 23 -20 54q0 55 59 83q39 18 96 18q9 0 32 -2q4 17 4 37q0 73 -63 96q-13 5 -28 7q-16 2 -34 2q-150 0 -193 -117q-14 -40 -14 -90q0 -115 62 -183q21 -21 44 -33v29q-77 67 -77 184q0 129 91 169l18 6q-12 -14 -12 -35q0 -30 26 -38q5 -1 10 -1
q12 0 21 6t13 12.5t11 21.5q14 27 44 28q41 0 51 -41q2 -9 2 -18q0 -6 -2 -19q-10 1 -26 1q-107 0 -151 -69q-20 -32 -20 -70z" />
    <glyph glyph-name="si_Tta" unicode="&#xda7;" horiz-adv-x="588" 
d="M31 203q0 97 81 148q51 31 115 31q46 0 86 -16v-28q-37 18 -84 18q-87 0 -134 -55q-31 -37 -31 -88q0 -85 95 -123q51 -20 111 -20q138 0 202 87q39 55 39 132q0 106 -75 181q-71 70 -167 70q-118 -1 -181 -81h-32q72 103 211 104q132 0 211 -101q66 -84 66 -197
q0 -127 -88 -203q-73 -63 -178 -63q-140 0 -207 84q-40 51 -40 120z" />
    <glyph glyph-name="si_Ttha" unicode="&#xda8;" horiz-adv-x="599" 
d="M32 190q0 -97 58 -152q40 -38 96 -38q64 1 110 58q45 -57 116 -58q106 0 146 117q17 51 17 110q-1 97 -61 201q-44 76 -121 135q-23 17 -43 28q-41 -48 -41 -114q0 -73 47 -104q23 -15 50 -15q61 1 86 52q38 -56 48 -136q2 -17 2 -33q0 -98 -56 -144q-33 -27 -79 -27
q-74 0 -92 54q-4 14 -4 29v39h-28v-39q0 -68 -72 -81q-13 -2 -27 -2q-65 0 -100 61q-19 35 -19 76q0 78 57 126q38 31 84 31h10v25q-35 0 -68 -11q-63 -22 -96 -94q-20 -44 -20 -94zM338 480q0 45 20 75q76 -56 116 -117q-15 -43 -61 -44q-74 2 -75 86z" />
    <glyph glyph-name="si_Dda" unicode="&#xda9;" horiz-adv-x="631" 
d="M15 281v27h240q-3 46 -38 67q-12 7 -24 7q-29 -1 -46 -28q-14 -23 -37 -23q-28 0 -35 24q-1 5 -1 10q0 39 52 52q17 5 35 5q90 0 117 -81q9 -27 10 -60h-73q-89 0 -122 -62q-12 -23 -12 -49q0 -56 48 -84q28 -16 64 -16q60 0 87 36q12 16 12 35v33h26v-33q0 -45 52 -64
q21 -7 44 -7q88 0 121 99q14 44 14 98q0 125 -81 205q-73 71 -177 71q-116 -1 -187 -86h-33q78 111 226 111q137 0 219 -103q68 -87 68 -213q0 -141 -65 -209q-42 -43 -101 -43q-68 0 -108 53q-2 3 -4 5q-48 -57 -112 -58q-90 0 -130 76q-19 38 -19 82q0 72 54 110
q12 8 23 13h-107z" />
    <glyph glyph-name="si_Ddha" unicode="&#xdaa;" horiz-adv-x="631" 
d="M15 281v27h237q-3 46 -38 67q-12 7 -24 7q-28 -2 -45 -28q-14 -23 -38 -23q-28 0 -35 24q-1 5 -1 10q0 39 52 52q17 5 35 5q90 0 117 -81q9 -27 10 -60h-70q-89 0 -122 -62q-12 -23 -12 -49q0 -56 48 -84q28 -16 64 -16q60 0 87 36q12 16 12 35v33h26v-33q0 -45 52 -64
q21 -7 44 -7q93 0 123 102q11 38 11 85q0 80 -45 157q-35 -59 -91 -60q-67 0 -92 60q-9 24 -9 52q0 61 40 122v1q89 -35 158 -132q75 -104 75 -214q0 -152 -75 -212q-39 -31 -93 -31q-66 0 -106 53q-3 3 -4 5q-48 -57 -112 -58q-90 0 -130 76q-19 38 -19 82q0 72 54 110
q12 8 23 13h-107zM339 470q10 -80 75 -86q43 1 71 56q-52 74 -115 110l-6 3q-22 -34 -25 -83z" />
    <glyph glyph-name="si_Nna" unicode="&#xdab;" horiz-adv-x="940" 
d="M21 174l11 -24q45 25 65 27q29 0 57 -42q39 -59 40 -61q60 -73 162 -74q128 0 185 98q2 4 4 7q20 -55 66 -67q10 -3 19 -3q42 1 67 31q7 -45 50 -61q16 -6 34 -6q89 0 109 109q4 26 4 56q0 110 -48 156q-23 20 -50 20q-64 0 -86 -61q-6 -17 -8 -34q-27 33 -72 34
q-35 -1 -63 -31q-13 88 -80 135q91 33 179 50l143 26q33 9 34 29q-2 26 -34 27q-50 0 -171 -43q-92 -33 -184 -71q-50 22 -103 22q-105 0 -155 -61q-30 -36 -30 -86q0 -9 1 -13q-86 -49 -146 -89zM194 281q0 65 67 98q39 19 88 19q39 0 72 -11q-124 -52 -227 -109v3zM342 72
q-88 0 -151 67q-7 7 -18 21q-33 37 -51 42q-6 1 -10 1q8 5 25 14q23 13 35 20q22 -63 96 -80q22 -5 45 -5q40 0 67 13q44 17 55 62q2 11 2 20q0 48 -40 74q-16 9 -32 12q43 20 92 39q74 -51 78 -141q0 -90 -83 -134q-49 -25 -110 -25zM261 247q1 -40 32 -68q-75 11 -94 69
q-1 2 -1 3q41 22 74 38q-11 -19 -11 -42zM289 248q0 36 32 53q14 7 28 7q37 0 53 -34q6 -13 6 -26q0 -38 -33 -54q-13 -6 -26 -6q-36 0 -53 32q-7 14 -7 28zM629 66q-37 0 -56 44q-9 20 -10 43q5 21 7 46q23 46 59 51q64 -2 65 -92q0 -73 -45 -89q-9 -3 -20 -3zM717 103v1
q7 22 7 53q0 22 -3 40q6 104 59 105q42 0 50 -98q2 -19 2 -39q0 -114 -42 -129q-8 -3 -17 -3q-49 0 -55 56q-1 7 -1 14z" />
    <glyph glyph-name="si_Nndda" unicode="&#xdac;" horiz-adv-x="713" 
d="M100 281h107q-64 -28 -75 -100q-2 -12 -2 -23q0 -81 55 -126q39 -32 94 -32q66 1 112 58q37 -51 91 -57q11 -1 21 -1q101 0 144 115q22 60 22 137q0 151 -93 241q-79 75 -194 75q-149 -1 -226 -111h32q71 86 188 86q123 0 197 -94q61 -77 61 -182q0 -123 -63 -173
q-31 -24 -72 -24q-59 0 -85 37q-11 16 -11 34v33h-26v-33q0 -46 -55 -64q-21 -7 -44 -7q-73 0 -101 55q-11 22 -11 45q0 60 53 91q34 20 81 20h73q-1 99 -71 130q-8 4 -16 6q-21 6 -53 6q-150 0 -193 -117q-14 -40 -14 -90q0 -115 62 -183q21 -21 44 -33v29q-77 67 -77 184
q0 130 93 170l18 6q-7 -13 -7 -24q0 -27 26 -33q6 -1 10 -1q24 2 37 23q18 28 46 28q32 0 52 -37q8 -18 10 -37h-240v-27z" />
    <glyph glyph-name="si_Ta" unicode="&#xdad;" horiz-adv-x="687" 
d="M21 24q15 116 104 238q15 20 30 37q19 23 20 42q-1 37 -28 38q-28 -2 -31 -31q-4 -59 -42 -60q-29 0 -37 32q-1 7 -1 14q0 49 42 76q22 13 46 13q55 0 72 -46q5 -14 5 -29q0 -6 -1 -9q78 86 213 86q117 0 184 -85q51 -66 51 -159q0 -103 -59 -153q-34 -29 -80 -29
q-37 0 -65 15v29q28 -17 55 -17q66 0 88 68q8 25 8 53q0 96 -74 162q-67 61 -163 61q-104 -1 -162 -71q31 13 78 13q113 0 155 -75q19 -34 19 -79q0 -87 -69 -131q-44 -29 -104 -29q-89 0 -137 46q-26 26 -33 29q-9 4 -18 4q-30 -2 -44 -68zM69 99q11 8 32 8q13 0 59 -18
q46 -17 88 -17q123 0 152 71q7 19 7 41q0 66 -68 93q-30 12 -63 12q-77 -1 -123 -35q-54 -67 -84 -155z" />
    <glyph glyph-name="si_Tha" unicode="&#xdae;" horiz-adv-x="599" 
d="M32 229q0 87 74 145q59 46 133 46v-24q-86 0 -138 -61q-36 -44 -36 -99q0 -114 123 -151q49 -15 110 -15q113 0 176 75q45 54 45 129q0 80 -38 136q-26 -51 -85 -52q-61 0 -87 61q-11 27 -11 58q1 67 41 114q72 -39 136 -121q16 -22 28 -42q47 -81 50 -168v-14
q0 -120 -91 -191q-73 -56 -174 -56q-123 0 -196 77q-60 63 -60 153zM327 480q2 -85 75 -86q46 0 60 41q1 2 1 3q-41 63 -115 117q-21 -32 -21 -75z" />
    <glyph glyph-name="si_Da" unicode="&#xdaf;" horiz-adv-x="445" 
d="M30 165q2 144 188 145h117q-14 65 -64 75q-9 2 -17 2q-28 -1 -43 -30q-15 -28 -40 -29q-35 3 -37 35q0 37 48 53q21 7 45 7q94 0 127 -81q10 -24 16 -55h-133q-130 -2 -131 -118q0 -73 61 -116q40 -27 88 -27q65 1 120 64l22 -17q-49 -58 -56 -67q-42 -58 -42 -108
q0 -66 62 -91q17 -7 38 -12v-27q-20 -4 -52 -4q-83 2 -101 68q-3 14 -3 29q1 57 69 149q-38 -11 -83 -11q-130 0 -178 83q-21 37 -21 83z" />
    <glyph glyph-name="si_Dha" unicode="&#xdb0;" horiz-adv-x="623" 
d="M32 190q0 -97 58 -152q40 -38 96 -38q64 1 110 58q45 -57 116 -58q108 0 147 131q16 56 16 124q0 144 -92 234q-80 77 -191 77q-145 -1 -229 -109h32q78 86 192 86q118 0 192 -86q63 -75 63 -180q0 -112 -53 -170q-34 -37 -82 -37q-74 0 -92 54q-4 14 -4 29v39h-28v-39
q0 -68 -72 -81q-13 -2 -27 -2q-66 0 -100 62q-19 34 -19 75q0 78 57 126q38 31 84 31h10v25q-35 0 -68 -11q-63 -22 -96 -94q-20 -44 -20 -94z" />
    <glyph glyph-name="si_Na" unicode="&#xdb1;" horiz-adv-x="787" 
d="M26 122q20 -10 36 -10q32 0 58 42q5 7 15 24q35 61 67 93q19 19 19 48q-3 59 -49 61q-33 0 -40 -34q-1 -5 -1 -9q-4 -46 -40 -47q-30 0 -36 31q-1 6 -1 12q0 46 39 72q25 16 57 16q68 0 90 -58q7 -18 7 -38q0 -10 -2 -17q61 72 160 102q45 13 89 13q117 0 189 -80
q59 -68 59 -164q0 -108 -70 -157q-34 -23 -73 -23q-44 0 -70 22v30q29 -26 67 -26q52 0 77 53q14 30 14 68q0 113 -99 174q-68 41 -150 41q-114 -1 -178 -73q37 13 77 13q78 0 122 -56q27 -36 27 -80q0 -106 -104 -147q-50 -19 -112 -19q-185 1 -244 123zM104 100
q69 -29 154 -29q131 0 171 65q14 23 14 50q0 53 -55 79q-27 12 -58 12q-101 0 -148 -68q-10 -14 -25 -42q-28 -51 -51 -66q-1 0 -2 -1z" />
    <glyph glyph-name="si_Nda" unicode="&#xdb3;" horiz-adv-x="513" 
d="M112 165q0 -100 86 -142q48 -24 113 -24q46 0 83 11q-69 -93 -69 -149q0 -72 66 -91q18 -5 38 -6q34 0 52 4v27q-77 19 -93 63q-7 18 -7 40q0 64 79 154q19 20 19 21l-22 17q-56 -64 -120 -64q-74 0 -118 56q-30 39 -30 87q0 112 116 118h14h133q-22 108 -118 130
q-18 4 -37 5q-32 3 -48 3q-186 0 -217 -149q-6 -28 -6 -60q0 -115 62 -183q21 -21 44 -33v29q-77 67 -77 184q2 167 159 182q-12 -13 -12 -32q4 -33 37 -35q26 2 40 29q16 27 43 28q48 0 79 -41q11 -16 16 -34h-117q-187 -2 -188 -145z" />
    <glyph glyph-name="si_Pa" unicode="&#xdb4;" horiz-adv-x="601" 
d="M30 180q0 94 89 126q37 13 83 13q11 0 36 -2v5q1 4 1 6q0 45 -39 56q-8 2 -16 2q-39 -1 -48 -34q-11 -31 -44 -32q-30 0 -37 26q-1 5 -1 10q0 44 55 61q21 7 45 7q93 0 111 -68q4 -15 4 -30q0 -18 -4 -35q-5 1 -12 1.5l-14 1t-13 1t-10 0.5h-4q-110 0 -138 -62
q-7 -17 -7 -37q0 -78 110 -110q55 -16 123 -16q119 0 184 49q42 34 43 81q0 77 -96 93q-22 4 -46 4q-31 0 -69 -7q-3 17 -3 30q0 79 74 98q19 5 42 5q66 0 91 -45q8 -16 8 -32q-1 -31 -26 -50q58 -36 59 -114q0 -115 -123 -160q-60 -22 -138 -22q-208 0 -257 112
q-13 31 -13 68zM345 328q0 -8 1 -11q26 3 48 3q52 0 84 -12q15 16 15 35q0 35 -39 48q-15 5 -32 5q-53 0 -71 -39q-6 -14 -6 -29z" />
    <glyph glyph-name="si_Pha" unicode="&#xdb5;" horiz-adv-x="565" 
d="M32 161q0 -109 118 -146q48 -15 108 -15q156 0 225 106q38 58 38 133q0 88 -42 165q-5 8 -9 16q-44 76 -121 135q-23 17 -43 28q-41 -48 -41 -114q0 -73 48 -104q22 -14 49 -14q62 1 86 51q41 -60 41 -141q0 -119 -101 -166q-54 -25 -127 -25q-137 0 -179 59
q-14 21 -14 47q0 69 79 92q31 9 69 9h58v13q0 78 -53 113q-29 19 -68 19q-67 0 -93 -39q-9 -15 -9 -32q0 -29 27 -35q4 -1 8 -1q25 2 37 32q16 38 55 39q37 0 56 -39q9 -19 9 -39v-6h-19q-164 0 -188 -106q-4 -17 -4 -35zM294 473q0 44 20 74q76 -56 116 -117
q-15 -43 -61 -44q-74 2 -75 87z" />
    <glyph glyph-name="si_Ba" unicode="&#xdb6;" horiz-adv-x="604" 
d="M99 74q0 -28 26 -43q11 -5 21 -5q28 0 43 27q5 11 5 21q0 28 -27 43q-11 5 -21 5q-28 0 -42 -27q-5 -11 -5 -21zM32 183q0 115 85 170q53 34 124 34q91 0 141 -55q31 -34 31 -81q0 -69 -52 -97q-7 -4 -21 -10q-34 -15 -40 -30q-3 -7 -3 -15q2 -36 46 -37q82 0 134 92
q41 72 41 152q0 133 -89 198q-59 44 -144 44q-136 -1 -193 -89h-30q45 92 174 109q24 3 49 3q156 0 229 -114q48 -74 48 -180q0 -149 -69 -225q-49 -54 -121 -54q-66 0 -93 47q-12 22 -12 47q0 44 42 67q5 3 16 8q39 19 48 38q5 12 5 26q0 55 -82 74q-31 7 -65 7
q-94 0 -140 -62q-29 -38 -29 -92q0 -44 13 -69q5 42 45 56q13 4 26 4q45 0 68 -38q10 -17 10 -36q0 -48 -43 -68q-17 -8 -35 -8q-74 0 -102 94q-12 41 -12 90z" />
    <glyph glyph-name="si_Bha" unicode="&#xdb7;" horiz-adv-x="654" 
d="M6 265q24 4 116 6q-73 -44 -74 -120q0 -88 72 -129q40 -23 92 -23q96 0 139 64q22 35 22 79q0 62 -39 83q-12 6 -25 6q-18 -1 -29 -7q33 129 140 130q84 0 121 -77q18 -40 18 -89q0 -93 -70 -137q-41 -26 -94 -26q-18 0 -36 3v-26q21 -3 40 -3q103 0 163 76q44 57 44 131
q0 112 -63 173q-45 43 -107 43q-80 0 -136 -84q-45 -66 -51 -150l22 -10q11 28 33 29q28 0 33 -34q1 -7 1 -13q0 -63 -70 -83q-23 -6 -49 -6q-88 0 -121 51q-14 22 -14 49q0 60 70 88q33 14 70 14q14 0 25 -2q-1 90 -55 131q-28 20 -63 20q-56 0 -77 -42q-6 -13 -6 -25
q3 -34 32 -36q28 1 39 29q12 25 37 26q39 0 55 -44q6 -16 6 -34h-4h-6h-201v-31z" />
    <glyph glyph-name="si_Ma" unicode="&#xdb8;" horiz-adv-x="616" 
d="M258 344q0 -30 28 -44q10 -4 20 -4q30 0 44 28q4 10 4 20q0 30 -28 44q-10 4 -20 4q-30 0 -44 -28q-4 -10 -4 -20zM32 244q0 88 46 142q33 35 74 36q52 -1 52 -58q0 -12 -2 -29q-3 -22 -3 -40q0 -61 59 -77q17 -5 35 -5q68 0 91 53q8 19 8 41q0 30 -14 50q2 -11 2 -22
q0 -43 -38 -62q-16 -8 -36 -8q-49 0 -70 45q-8 17 -8 33q0 48 43 70q19 9 40 9q71 0 98 -62q12 -28 12 -61q0 -64 -55 -98q-32 -19 -71 -19q-76 0 -109 48q-17 25 -17 58q0 8 6 61q1 11 1 21q-2 25 -26 26q-45 0 -69 -57q-15 -34 -15 -78q0 -121 111 -168q54 -23 124 -23
q124 0 190 85q46 61 46 145q0 109 -77 182q-69 65 -164 65q-121 -1 -189 -89h-31q64 97 182 112q19 2 37 2q120 0 201 -89q75 -83 75 -198q0 -161 -105 -237q-68 -48 -163 -48q-153 0 -225 96q-46 62 -46 148z" />
    <glyph glyph-name="si_Mba" unicode="&#xdb9;" horiz-adv-x="621" 
d="M29 222q0 -104 57 -169q47 -52 115 -53q36 1 63 17q0 16 -7 34q-12 41 -12 54q0 39 33 56q12 6 25 6q37 0 52 -36q5 -13 5 -26q0 -23 -12 -56q-6 -23 -6 -32q28 -17 62 -17q92 0 141 100q31 65 31 148q0 153 -89 242q-77 75 -194 75q-148 0 -223 -98q-5 -6 -9 -12h30
q61 77 164 86q17 2 36 2q129 0 199 -97q51 -71 51 -167q0 -94 -47 -160q-35 -47 -75 -48q-24 0 -33 7q3 12 3 28q0 66 -58 84q-15 5 -28 5q-47 0 -71 -36q-15 -23 -15 -53q0 -16 3 -28q-11 -7 -33 -7q-72 0 -107 78q-20 45 -20 99q0 78 37 123q20 24 45 25q24 -7 26 -33v-32
q0 -72 62 -100q27 -12 59 -12q73 0 105 51q14 24 14 52q0 65 -49 91q-21 11 -45 11q-49 0 -68 -40q-7 -16 -7 -32q0 -42 36 -61q16 -9 36 -9q44 0 66 37l2 4q1 -3 1 -5q0 -47 -51 -65q-20 -6 -41 -6q-65 0 -87 47q-7 16 -7 35v33q-1 38 -18 51q-14 9 -31 9q-61 0 -94 -81
q-22 -54 -22 -119zM268 354q0 30 27 42q8 4 18 4q30 0 42 -28q4 -8 4 -18q0 -29 -28 -41q-8 -4 -18 -4q-30 0 -42 28q-3 8 -3 17z" />
    <glyph glyph-name="si_Ya" unicode="&#xdba;" horiz-adv-x="621" 
d="M29 181q0 110 76 165q48 34 113 34q10 0 27 -2v-27q-17 3 -31 3q-81 0 -125 -61q-27 -38 -27 -86q0 -83 60 -120q30 -17 66 -17q58 0 87 36q13 17 13 38v29h26v-28q0 -46 57 -66q26 -9 54 -9q88 0 111 71q6 19 6 41q-2 110 -144 111q-44 0 -84 -11q-1 8 -1 21
q0 99 89 117q18 3 38 3q84 0 102 -51q3 -11 3 -23q0 -36 -30 -51q-4 -1 -6 -2q63 -37 69 -120v-13q0 -90 -64 -136q-38 -28 -88 -28q-95 1 -126 70q-34 -69 -118 -70q-93 0 -133 84q-20 44 -20 98zM342 312q21 5 58 5q55 0 85 -10q21 11 22 35q0 34 -43 43q-12 3 -24 3
q-93 -2 -98 -76z" />
    <glyph glyph-name="si_Ra" unicode="&#xdbb;" horiz-adv-x="515" 
d="M30 208q1 138 135 197q15 6 51 19q122 45 185 90q21 15 56 56q20 22 34 23q22 -1 23 -18q0 -40 -80 -86q-1 -1 -2 -1q-71 -41 -144 -63q-3 -1 -4 -1q78 -4 136 -67q51 -58 51 -137q0 -100 -75 -165q-64 -55 -154 -55q-105 0 -167 75q-45 57 -45 133zM64 231
q0 -87 68 -131q44 -28 102 -28q92 0 147 65q39 48 39 111q0 97 -80 136q-37 17 -82 17q-83 0 -143 -56q-50 -49 -51 -114z" />
    <glyph glyph-name="si_La" unicode="&#xdbd;" horiz-adv-x="654" 
d="M30 132q0 -158 127 -233q82 -49 196 -49q123 0 197 73q59 59 59 145v14h-33q4 -8 4 -18q0 -96 -89 -143q-53 -29 -119 -29q-137 0 -211 93q-56 70 -56 172q0 110 84 179q72 59 172 59q175 0 198 -84q3 -12 3 -24q0 -59 -58 -73q-14 -3 -29 -3q-55 0 -79 33q-9 13 -9 27v4
h119v26h-247v-26h100q0 -71 60 -97q25 -11 55 -11q73 0 107 49q16 26 16 57q0 101 -126 135q-52 14 -116 14q-170 0 -259 -101q-66 -75 -66 -189z" />
    <glyph glyph-name="si_Va" unicode="&#xdc0;" 
d="M32 161q0 -107 118 -145q49 -16 111 -16q164 0 234 114q40 65 40 154q0 136 -85 221q-74 74 -180 74q-141 -1 -214 -104h31q67 81 183 81q106 0 174 -82q58 -70 58 -165q0 -135 -103 -192q-57 -31 -135 -31q-135 0 -180 56q-18 22 -18 50q0 62 67 87q29 10 64 10h88v10
q0 107 -81 133q-22 6 -47 6q-67 0 -93 -39q-9 -15 -9 -32q0 -29 27 -35q4 -1 8 -1q25 2 37 32q11 28 32 35q12 4 26 4q41 0 60 -41q9 -20 9 -44v-4h-60q-105 0 -145 -68q-17 -31 -17 -68z" />
    <glyph glyph-name="si_Sha" unicode="&#xdc1;" horiz-adv-x="616" 
d="M33 201q0 -114 65 -169q40 -33 95 -33q86 0 124 66q18 32 18 70q0 86 -60 99q-10 2 -19 2q-13 0 -22 -4q13 79 76 113q30 16 64 16q76 0 119 -78q28 -51 28 -111q-22 8 -48 8q-72 0 -102 -55q-13 -24 -13 -52q0 -46 31 -67q13 -9 28 -9q21 0 46 18q12 8 21 8q10 -2 11 -9
q-1 -6 -5 -13h27q33 42 47 138q4 28 4 52q0 113 -61 180q-47 51 -117 51q-148 0 -182 -197q-3 -19 -5 -37h25q0 2 1 6q1 9 2 12q10 7 22 7q42 0 48 -47q1 -6 1 -13q0 -53 -56 -75q-24 -9 -49 -9q-82 0 -116 77q-16 36 -16 79q0 102 74 148q41 25 93 25h13v23h-7q-7 1 -9 1
q-111 0 -164 -91q-32 -56 -32 -130zM389 77q0 51 45 70q17 7 37 7q33 0 50 -10v-25q-5 -54 -14 -78q-6 10 -19 11q-8 0 -37 -16q-17 -10 -28 -10q-31 6 -34 51z" />
    <glyph glyph-name="si_Ssa" unicode="&#xdc2;" 
d="M30 180q0 -140 170 -172q46 -8 100 -8q153 0 222 75q39 44 39 107q-1 79 -59 114q26 20 26 50q0 42 -42 64q-25 13 -57 13q-90 0 -111 -67q-5 -17 -5 -36q0 -14 3 -30q39 7 69 7q41 0 71 -10q-28 -22 -76 -32q-35 -7 -99 -7q-112 -1 -113 -55q0 -54 99 -60q11 -1 22 -1
q132 1 133 60q-1 27 -32 42q55 11 93 42q43 -26 44 -76q0 -78 -106 -112q-55 -18 -121 -18q-135 0 -198 53q-34 31 -35 73q0 76 94 94q24 5 51 5q17 0 53 -4q4 17 4 35q0 78 -78 94q-17 4 -37 4q-67 0 -91 -38q-9 -14 -9 -30q0 -29 29 -35q5 -1 9 -1q34 1 44 32q11 33 48 34
q41 0 52 -37q3 -10 3 -21q0 -2 -1 -6v-5q-27 2 -36 2q-120 0 -158 -76q-14 -28 -14 -63zM345 328q0 49 48 64q14 4 29 4q53 0 68 -36q3 -9 3 -17q-1 -20 -15 -35q-33 12 -84 12q-23 0 -48 -3q-1 5 -1 11zM197 193q2 34 94 34q101 -1 102 -35q0 -32 -88 -35h-13q-94 1 -95 36
z" />
    <glyph glyph-name="si_Sa" unicode="&#xdc3;" horiz-adv-x="661" 
d="M50 150q0 -73 54 -118q40 -33 94 -33q93 1 127 81q32 -79 124 -80q103 0 144 76q20 37 20 86q0 68 -49 110q-13 11 -27 18q24 21 28 52q0 63 -68 77q-15 3 -32 3q-74 0 -105 -66q-15 -32 -15 -72v-9q48 9 94 9q137 -2 138 -106q0 -66 -57 -94q-27 -14 -60 -14
q-80 0 -109 42q-11 17 -11 36v30h-27v-30q0 -47 -53 -68q-25 -10 -53 -10q-69 0 -103 48q-17 25 -17 53q0 63 65 92q30 13 59 13h95v13q0 87 -61 119q-27 14 -62 14q-67 0 -93 -38q-10 -16 -10 -33q0 -29 27 -35q4 -1 8 -1q25 2 37 32q16 38 57 39q37 0 57 -40
q10 -20 10 -42v-3h-271v-31q23 4 130 6q-76 -29 -84 -109q-1 -9 -1 -17zM373 303q9 80 86 81q55 0 66 -33q2 -7 2 -13q-1 -24 -14 -39q-31 10 -78 10q-39 0 -62 -6z" />
    <glyph glyph-name="si_Ha" unicode="&#xdc4;" horiz-adv-x="637" 
d="M32 151q0 -88 72 -129q40 -23 92 -23q96 0 139 64q22 35 22 79q0 62 -39 83q-12 6 -25 6q-17 -1 -28 -7q33 129 139 130q84 0 121 -77q18 -40 18 -89q0 -93 -70 -137q-41 -26 -94 -26q-18 0 -35 3v-26q21 -3 40 -3q103 0 163 76q44 57 44 131q0 112 -64 173
q-45 43 -107 43q-80 0 -136 -84q-45 -66 -51 -150l22 -10q11 28 33 29q28 0 33 -34q1 -7 1 -13q0 -63 -70 -83q-23 -6 -49 -6q-87 0 -121 50q-14 23 -14 50q0 76 80 96q24 6 52 6q10 0 33 -2q-1 90 -55 131q-28 20 -63 20q-56 0 -77 -42q-6 -13 -6 -25q3 -34 32 -36
q29 1 40 29q12 25 37 26q39 0 54 -44q6 -16 6 -34h-12q-94 0 -135 -66q-22 -35 -22 -79z" />
    <glyph glyph-name="si_Lla" unicode="&#xdc5;" horiz-adv-x="621" 
d="M253 395q42 0 63 -39q9 -17 9 -34h30q0 37 36 60q21 12 43 12q65 0 87 -59q8 -22 8 -45h-354q-8 0 -21 -2q7 82 68 102q15 5 31 5zM30 111q0 -140 114 -211q80 -49 191 -49q106 0 187 62q81 65 82 159h-27q-2 -84 -80 -137q-59 -40 -133 -40q-125 0 -202 78
q-67 68 -67 166q1 62 30 95q13 -107 94 -160q49 -32 107 -32q134 0 179 100q5 12 9 24h-29q-41 -64 -159 -64q-86 0 -137 60q-32 40 -36 94q18 9 36 9h373q0 105 -66 142q-27 15 -61 15q-55 0 -85 -40q-6 -7 -9 -14q-30 49 -87 54q-70 0 -107 -62q-21 -35 -24 -81
q-62 -29 -85 -112q-8 -29 -8 -56z" />
    <glyph glyph-name="si_Fa" unicode="&#xdc6;" horiz-adv-x="592" 
d="M32 207q0 111 55 172q39 42 95 42q77 -1 107 -70q31 69 107 70q90 0 129 -99q21 -52 21 -115q0 -104 -53 -165q-39 -42 -93 -43q-19 0 -37 7v25q17 -6 33 -6q64 0 96 70q20 42 20 96q0 117 -66 150q-22 10 -48 10q-78 0 -91 -69q-2 -13 -2 -26v-39h-32v39q0 82 -73 93
q-10 2 -20 2q-86 0 -108 -100q-6 -28 -6 -60q0 -97 54 -143q29 -23 63 -23q16 0 32 6v-25q-19 -7 -37 -7q-84 0 -124 93q-22 53 -22 115z" />
    <glyph glyph-name="si_Halant" unicode="&#xdca;" horiz-adv-x="1" 
d="M-137 340v325q13 -10 71 -38q57 -27 70 -63q6 -16 6 -35q0 -46 -42 -65q-16 -7 -34 -7q-23 0 -44 10v-144zM-110 491q13 -7 32 -7q42 0 51 36q1 6 1 12q0 34 -46 66q-4 3 -38 25v-132z" />
    <glyph glyph-name="si_MatraAa" unicode="&#xdcf;" horiz-adv-x="292" 
d="M10 107q0 15 1 22h26q-1 -6 -1 -15q0 -62 47 -76q10 -3 21 -3q83 3 83 161q-1 160 -83 161q-41 0 -59 -39q-9 -19 -9 -40q0 -9 1 -14h-26q-1 8 -1 21q0 66 55 96q25 13 53 13q105 0 128 -127q6 -33 6 -71q0 -171 -103 -194q-15 -3 -31 -3q-73 0 -98 59q-10 22 -10 49z
" />
    <glyph glyph-name="si_MatraAe" unicode="&#xdd0;" horiz-adv-x="326" 
d="M3 306v25h240q-2 -5 -3 -16q-91 -136 -91 -266q0 -109 72 -134q18 -6 37 -6q16 0 37 5l4 -18q-36 -40 -97 -40q-82 0 -110 86q-10 33 -10 72q0 120 89 248q18 25 35 44h-203z" />
    <glyph glyph-name="si_MatraAae" unicode="&#xdd1;" horiz-adv-x="328" 
d="M4 308v23h239v-21l-124 -92h147v-22q-69 -49 -98 -118q-13 -34 -13 -65q2 -116 144 -117v-24q-38 -17 -75 -17q-94 0 -125 74q-11 27 -11 59q0 99 120 191q11 8 21 15h-159v19l130 95h-196z" />
    <glyph glyph-name="si_MatraI" unicode="&#xdd2;" horiz-adv-x="1" 
d="M-532 506q0 95 110 132q52 17 116 17q133 0 193 -63q34 -36 34 -86q0 -75 -82 -101q-27 -8 -58 -9v20q76 4 99 49q8 15 8 32q0 70 -140 84q-26 2 -54 2q-150 0 -184 -55q-9 -15 -9 -31q0 -57 69 -75q18 -5 37 -6v-20q-98 4 -128 63q-11 22 -11 47z" />
    <glyph glyph-name="si_MatraIi" unicode="&#xdd3;" horiz-adv-x="1" 
d="M-244 502q0 -32 34 -48q14 -7 30 -7q39 0 58 30q7 13 7 25q0 33 -35 48q-15 7 -30 7q-40 0 -58 -31q-6 -12 -6 -24zM-573 505q0 90 110 129q60 21 135 21q126 0 197 -52q49 -37 50 -91q0 -55 -49 -81q-23 -12 -50 -12q-58 0 -84 45q-11 19 -11 39q1 51 49 74
q-34 9 -101 9q-140 0 -190 -51q-20 -21 -20 -48q2 -56 58 -71l-6 -20q-56 5 -79 60q-9 23 -9 49z" />
    <glyph glyph-name="si_MatraU" unicode="&#xdd4;" horiz-adv-x="1" 
d="M-580 -146q0 59 50 85q22 11 47 11q66 -1 93 -57l-29 -12q-18 39 -60 40q-45 0 -61 -35q-6 -12 -6 -26q2 -53 78 -54h381v319l32 89v-443h-416q-81 0 -103 51q-6 15 -6 32z" />
    <glyph glyph-name="si_MatraUu" unicode="&#xdd6;" horiz-adv-x="1" 
d="M-568 -145q0 56 49 83q23 13 50 13q64 -1 95 -50l-29 -10q-22 32 -61 33q-46 0 -63 -34q-6 -13 -6 -26q0 -42 43 -56q14 -4 29 -4q40 0 122 35q86 37 134 37q62 0 106 -39q6 -6 10 -11v313l32 58v-432h-22q-22 51 -71 74q-25 11 -52 11q-43 0 -119 -41q-76 -42 -115 -48
q-12 -2 -24 -2q-66 0 -94 45q-14 23 -14 51z" />
    <glyph glyph-name="si_MatraR" unicode="&#xdd8;" horiz-adv-x="305" 
d="M32 243v-7h25v4q0 89 51 107q10 3 22 3q57 0 66 -96q2 -18 2 -37q-62 0 -101 -17q-64 -30 -65 -96q0 -59 44 -89q24 -16 52 -16q18 0 58 15q8 3 12 3q10 -2 15 -14h29q-1 7 -1 19q0 11 6 59q11 83 11 117q0 118 -57 165q-26 21 -61 21q-72 0 -98 -75q-10 -30 -10 -66z
M62 104q1 59 58 77q29 9 78 9v-8v-26q-1 -27 -1 -43q0 -54 3 -74q-4 3 -9 3q-4 0 -18 -5q-28 -10 -43 -10q-42 0 -60 41q-8 17 -8 36z" />
    <glyph glyph-name="si_MatraE" unicode="&#xdd9;" horiz-adv-x="618" 
d="M230 239q0 -29 31 -42q12 -4 23 -4q35 0 49 28q5 9 5 18q0 29 -31 42q-12 4 -23 4q-35 0 -49 -28q-5 -8 -5 -18zM32 207q0 105 95 168q72 47 167 47q127 0 208 -79q60 -60 68 -142h-28q-16 101 -106 155q-64 39 -142 39q-103 0 -169 -57q-50 -45 -51 -106q0 -80 71 -128
q52 -34 118 -34q104 0 154 50q27 28 27 66q0 59 -62 85q-15 6 -30 9q18 -20 18 -46q0 -47 -49 -66q-18 -6 -36 -6q-50 0 -75 37q-12 17 -12 37q0 48 50 69q23 9 49 9q105 0 154 -64q28 -37 28 -86q0 -100 -94 -142q-51 -22 -122 -22q-119 0 -184 76q-47 55 -47 131z" />
    <glyph glyph-name="si_MatraEe" unicode="&#xdda;" horiz-adv-x="950" 
d="M230 239q0 -29 31 -42q12 -4 23 -4q35 0 49 28q5 9 5 18q0 29 -31 42q-12 4 -23 4q-35 0 -49 -28q-5 -8 -5 -18zM32 207q0 105 95 168q72 47 167 47q127 0 208 -79q60 -60 68 -142h-28q-16 101 -106 155q-64 39 -142 39q-103 0 -169 -57q-50 -45 -51 -106q0 -80 71 -128
q52 -34 118 -34q104 0 154 50q27 28 27 66q0 59 -62 85q-15 6 -30 9q18 -20 18 -46q0 -47 -49 -66q-18 -6 -36 -6q-50 0 -75 37q-12 17 -12 37q0 48 50 69q23 9 49 9q105 0 154 -64q28 -37 28 -86q0 -100 -94 -142q-51 -22 -122 -22q-119 0 -184 76q-47 55 -47 131zM753 340
v325q13 -10 71 -38q57 -27 70 -63q6 -16 6 -35q0 -46 -42 -65q-16 -7 -34 -7q-23 0 -44 10v-144zM780 491q13 -7 32 -7q42 0 51 36q1 6 1 12q0 34 -46 66q-4 3 -38 25v-132z" />
    <glyph glyph-name="si_MatraAi" unicode="&#xddb;" horiz-adv-x="1184" 
d="M230 239q0 -29 31 -42q12 -4 23 -4q35 0 49 28q5 9 5 18q0 29 -31 42q-12 4 -23 4q-35 0 -49 -28q-5 -8 -5 -18zM32 207q0 105 95 168q72 47 167 47q127 0 208 -79q60 -60 68 -142h-28q-16 101 -106 155q-64 39 -142 39q-103 0 -169 -57q-50 -45 -51 -106q0 -80 71 -128
q52 -34 118 -34q104 0 154 50q27 28 27 66q0 59 -62 85q-15 6 -30 9q18 -20 18 -46q0 -47 -49 -66q-18 -6 -36 -6q-50 0 -75 37q-12 17 -12 37q0 48 50 69q23 9 49 9q105 0 154 -64q28 -37 28 -86q0 -100 -94 -142q-51 -22 -122 -22q-119 0 -184 76q-47 55 -47 131zM806 239
q0 -29 31 -42q12 -4 23 -4q35 0 49 28q5 9 5 18q0 29 -31 42q-12 4 -23 4q-35 0 -49 -28q-5 -9 -5 -18zM608 207q0 105 95 168q72 47 167 47q127 0 208 -79q60 -60 68 -142h-28q-16 101 -106 155q-64 39 -142 39q-103 0 -169 -57q-50 -45 -51 -106q0 -80 71 -128
q52 -34 118 -34q104 0 154 50q27 28 27 66q0 59 -62 85q-15 6 -30 9q18 -20 18 -46q0 -47 -49 -66q-18 -6 -36 -6q-50 0 -75 37q-12 17 -12 37q0 48 50 69q23 9 49 9q105 0 154 -64q28 -37 28 -86q0 -100 -94 -142q-51 -22 -122 -22q-119 0 -184 76q-47 55 -47 131z" />
    <glyph glyph-name="si_MatraO" unicode="&#xddc;" horiz-adv-x="1164" 
d="M230 239q0 -29 31 -42q12 -4 23 -4q35 0 49 28q5 9 5 18q0 29 -31 42q-12 4 -23 4q-35 0 -49 -28q-5 -8 -5 -18zM32 207q0 105 95 168q72 47 167 47q127 0 208 -79q60 -60 68 -142h-28q-16 101 -106 155q-64 39 -142 39q-103 0 -169 -57q-50 -45 -51 -106q0 -80 71 -128
q52 -34 118 -34q104 0 154 50q27 28 27 66q0 59 -62 85q-15 6 -30 9q18 -20 18 -46q0 -47 -49 -66q-18 -6 -36 -6q-50 0 -75 37q-12 17 -12 37q0 48 50 69q23 9 49 9q105 0 154 -64q28 -37 28 -86q0 -100 -94 -142q-51 -22 -122 -22q-119 0 -184 76q-47 55 -47 131zM860 107
q0 15 1 22h26q-1 -6 -1 -15q0 -62 47 -76q10 -3 21 -3q83 3 83 161q-1 160 -83 161q-41 0 -59 -39q-9 -19 -9 -40q0 -9 1 -14h-26q-1 8 -1 21q0 66 55 96q25 13 53 13q105 0 128 -127q6 -33 6 -71q0 -171 -103 -194q-15 -3 -31 -3q-73 0 -98 59q-10 22 -10 49z" />
    <glyph glyph-name="si_MatraOo" unicode="&#xddd;" horiz-adv-x="1068" 
d="M230 239q0 29 31 42q12 4 23 4q35 0 49 -28q5 -9 5 -18q0 -29 -31 -42q-12 -4 -23 -4q-35 0 -49 28q-5 8 -5 18zM32 207q0 -108 87 -167q61 -40 144 -40q146 0 196 86q20 34 20 78q0 91 -85 130q-43 20 -97 20q-62 0 -89 -41q-10 -17 -10 -37q0 -43 44 -64q21 -10 43 -10
q52 0 75 36q10 17 10 36q-1 27 -18 46q65 -12 85 -60q7 -17 7 -34q0 -73 -91 -103q-41 -13 -90 -13q-94 0 -150 62q-39 44 -39 100q0 81 85 129q60 34 135 34q117 0 190 -77q47 -50 58 -117h28q-10 108 -105 172q-74 49 -171 49q-119 0 -196 -70q-65 -60 -66 -145zM716 107
q0 -75 61 -99q22 -9 47 -9q106 0 128 128q6 32 6 69q-1 128 -60 175v96q21 -10 44 -10q48 0 68 39q8 15 8 33q0 56 -58 89q-10 6 -34 17q-39 18 -55 30v-279q-22 8 -47 8q-61 0 -92 -49q-16 -27 -16 -60q0 -14 1 -21h26q-1 6 -1 14q0 52 39 72q14 7 29 7q83 -2 83 -161
q-1 -159 -83 -161q-54 0 -65 54q-3 12 -3 25q0 10 1 15h-26q-1 -8 -1 -22zM898 491v132q56 -37 68 -50q16 -19 16 -41q0 -36 -33 -45q-9 -3 -19 -3q-20 0 -32 7z" />
    <glyph glyph-name="si_MatraAu" unicode="&#xdde;" horiz-adv-x="1102" 
d="M230 239q0 29 31 42q12 4 23 4q35 0 49 -28q5 -9 5 -18q0 -29 -31 -42q-12 -4 -23 -4q-35 0 -49 28q-5 8 -5 18zM32 207q0 -108 87 -167q61 -40 144 -40q146 0 196 86q20 34 20 78q0 91 -85 130q-43 20 -97 20q-62 0 -89 -41q-10 -17 -10 -37q0 -43 44 -64q21 -10 43 -10
q52 0 75 36q10 17 10 36q-1 27 -18 46q65 -12 85 -60q7 -17 7 -34q0 -73 -91 -103q-41 -13 -90 -13q-94 0 -150 62q-39 44 -39 100q0 81 85 129q60 34 135 34q117 0 190 -77q47 -50 58 -117h28q-10 108 -105 172q-74 49 -171 49q-119 0 -196 -70q-65 -60 -66 -145zM692 313
q0 -64 48 -93q24 -13 52 -13q63 0 85 42q7 15 7 32q-1 34 -36 54v7q2 54 54 55q70 -10 72 -165q0 -194 -69 -206q-5 -1 -10 -1q-56 0 -73 58q-5 19 -5 39q0 15 3 31h-25q-4 -17 -4 -36q0 -75 53 -105q24 -14 55 -14q98 0 132 114q13 46 13 103q0 130 -60 182q-30 25 -71 25
q-85 0 -92 -70v-11q0 -8 1 -12q20 -22 20 -46q0 -38 -33 -48q-9 -3 -18 -3q-49 0 -65 49q-5 16 -5 33q1 68 42 104h-35q-36 -40 -36 -105z" />
    <glyph glyph-name="si_MatraLs" unicode="&#xddf;" horiz-adv-x="430" 
d="M32 313q0 -64 48 -93q24 -13 52 -13q63 0 85 42q7 15 7 32q-1 34 -36 54v7q2 54 54 55q70 -10 72 -165q0 -194 -69 -206q-5 -1 -10 -1q-56 0 -73 58q-5 19 -5 39q0 15 3 31h-25q-4 -17 -4 -36q0 -75 53 -105q24 -14 55 -14q98 0 132 114q13 46 13 103q0 130 -60 182
q-30 25 -71 25q-85 0 -92 -70v-11q0 -8 1 -12q20 -22 20 -46q0 -38 -33 -48q-9 -3 -18 -3q-49 0 -65 49q-5 16 -5 33q1 68 42 104h-35q-36 -40 -36 -105z" />
    <glyph glyph-name="si_MatraRr" unicode="&#xdf2;" horiz-adv-x="557" 
d="M32 243v-7h25v4q0 89 51 107q10 3 22 3q57 0 66 -96q2 -18 2 -37q-62 0 -101 -17q-64 -30 -65 -96q0 -59 44 -89q24 -16 52 -16q18 0 58 15q8 3 12 3q10 -2 15 -14h29q-1 7 -1 19q0 11 6 59q11 83 11 117q0 118 -57 165q-26 21 -61 21q-72 0 -98 -75q-10 -30 -10 -66z
M62 104q1 59 58 77q29 9 78 9v-8v-26q-1 -27 -1 -43q0 -54 3 -74q-4 3 -9 3q-4 0 -18 -5q-28 -10 -43 -10q-42 0 -60 41q-8 17 -8 36zM285 243v-7h25v4q0 89 51 107q10 3 22 3q60 0 66 -108q1 -13 1 -25q-61 0 -100 -17q-64 -30 -65 -96q0 -59 44 -89q24 -16 52 -16
q18 0 58 15q8 3 12 3q10 -2 15 -14h29q-1 7 -1 19q0 11 6 59q11 83 11 117q0 118 -57 165q-26 21 -61 21q-72 0 -98 -75q-10 -30 -10 -66zM315 104q1 59 58 77q29 9 77 9v-8v-26q-1 -27 -1 -43q0 -56 4 -74q-5 3 -9 3t-18 -5q-28 -10 -43 -10q-42 0 -60 41q-8 17 -8 36z" />
    <glyph glyph-name="si_MatraLl" unicode="&#xdf3;" horiz-adv-x="430" 
d="M32 313q0 -64 48 -93q24 -13 52 -13q63 0 85 42q7 15 7 32q-1 34 -36 54v7q2 54 54 55q70 -10 72 -165q0 -194 -69 -206q-5 -1 -10 -1q-56 0 -73 58q-5 19 -5 39q0 15 3 31h-25q-4 -17 -4 -36q0 -75 53 -105q24 -14 55 -14q98 0 132 114q13 46 13 103q0 130 -60 182
q-30 25 -71 25q-85 0 -92 -70v-11q0 -8 1 -12q20 -22 20 -46q0 -38 -33 -48q-9 -3 -18 -3q-49 0 -65 49q-5 16 -5 33q1 68 42 104h-35q-36 -40 -36 -105z" />
    <glyph glyph-name="si_kundaliya" unicode="&#xdf4;" horiz-adv-x="1701" 
d="M1266 45l25 88l-145 -90l29 133l-153 -101l18 162l-154 -145l-14 172l-132 -145l-29 142l-129 -146l-27 109l-111 -146l-29 84l-61 -107q-20 32 -37 33q-28 0 -78 -37q-57 -43 -90 -50q-14 -3 -26 -3q-47 0 -66 35q-7 13 -7 29q0 42 34 53q8 2 16 2q31 0 43 -30
q3 -9 3 -18q-1 -27 -19 -42q5 -6 18 -6q25 0 85 48q61 49 87 53q4 1 7 1q26 -1 36 -19l77 134l33 -95l122 163l29 -118l133 153l29 -146l144 164l13 -185l168 155l-23 -184l164 105l-33 -139l141 90l-29 -86q15 8 32 8q27 0 89 -49q61 -48 84 -52q4 -1 7 -1q14 0 18 6
q-19 15 -19 42q0 31 27 44q10 4 19 4q35 0 46 -33q4 -11 4 -22q0 -42 -41 -58q-16 -6 -32 -6q-45 0 -106 45q-50 37 -72 43q-9 2 -17 2q-50 0 -95 -38q-4 -3 -6 -5z" />
    <glyph glyph-name="zwnj" unicode="&#x200c;" horiz-adv-x="0" 
d="M-20 9v734h40v-734h-40z" />
    <glyph glyph-name="zwj" unicode="&#x200d;" horiz-adv-x="0" 
d="M26 640l121 -120l-26 -27l-101 103v-586h-40v586l-101 -103l-26 27l121 120l-121 119l26 25l121 -121l121 121l26 -25z" />
    <glyph glyph-name="short_dash2" unicode="&#x2010;" horiz-adv-x="344" 
d="M43 234h228v-47h-228v47z" />
    <glyph glyph-name="endash" unicode="&#x2013;" horiz-adv-x="679" 
d="M100 200h480v40h-480v-40z" />
    <glyph glyph-name="emdash" unicode="&#x2014;" horiz-adv-x="879" 
d="M100 200h680v40h-680v-40z" />
    <glyph glyph-name="quoteleft" unicode="&#x2018;" horiz-adv-x="193" 
d="M143 505q0 32 -32 44q-5 1 -8 2q-22 6 -23 17q1 27 44 72l-21 15q-61 -66 -63 -134q0 -54 40 -64q8 -2 15 -2q32 0 44 30q4 10 4 20z" />
    <glyph glyph-name="quoteright" unicode="&#x2019;" horiz-adv-x="193" 
d="M153 584q0 54 -40 64q-8 2 -15 2q-32 0 -44 -30q-4 -10 -4 -20q0 -32 32 -44q5 -1 8 -2q22 -6 23 -17q-1 -27 -44 -72l21 -15q61 66 63 134z" />
    <glyph glyph-name="quotesinglbase" unicode="&#x201a;" horiz-adv-x="164" 
d="M134 39q0 52 -40 61q-7 2 -14 2q-33 0 -44 -30q-3 -9 -3 -17q0 -32 36 -44q2 -1 4 -1q21 -7 22 -17q-1 -23 -32 -60l21 -14q50 58 50 120z" />
    <glyph glyph-name="quotedblleft" unicode="&#x201c;" horiz-adv-x="297" 
d="M35 521q0 -54 40 -64q8 -2 15 -2q32 0 44 30q4 10 4 20q0 32 -32 44q-5 1 -8 2q-22 6 -23 17q1 27 44 72l-21 15q-61 -66 -63 -134zM164 521q0 -54 40 -64q8 -2 15 -2q32 0 44 30q4 10 4 20q0 32 -32 44q-5 1 -8 2q-22 6 -23 17q1 27 44 72l-21 15q-61 -66 -63 -134z" />
    <glyph glyph-name="quotedblright" unicode="&#x201d;" horiz-adv-x="305" 
d="M267 549q0 54 -40 64q-8 2 -15 2q-32 0 -44 -30q-4 -10 -4 -20q0 -32 32 -44q5 -1 8 -2q22 -6 23 -17q-1 -27 -44 -72l21 -15q61 66 63 134zM138 549q0 54 -40 64q-8 2 -15 2q-32 0 -44 -30q-4 -10 -4 -20q0 -32 32 -44q5 -1 8 -2q22 -6 23 -17q-1 -27 -44 -72l21 -15
q61 66 63 134z" />
    <glyph glyph-name="quotedblbase" unicode="&#x201e;" horiz-adv-x="302" 
d="M267 37q0 54 -40 64q-8 2 -15 2q-32 0 -44 -30q-4 -10 -4 -20q0 -32 32 -44q5 -1 8 -2q22 -6 23 -17q-1 -27 -44 -72l21 -15q61 66 63 134zM138 37q0 54 -40 64q-8 2 -15 2q-32 0 -44 -30q-4 -10 -4 -20q0 -32 32 -44q5 -1 8 -2q22 -6 23 -17q-1 -27 -44 -72l21 -15
q61 66 63 134z" />
    <glyph glyph-name="dagger" unicode="&#x2020;" horiz-adv-x="463" 
d="M232 545q-35 -5 -38 -33q0 -8 16 -76q8 -31 10 -54q-18 2 -103 21q-21 4 -30 4q-27 0 -31 -28q-1 -4 -1 -7q0 -31 27 -35q3 -1 6 -1q6 0 79 16q37 8 63 10q24 -1 113 -21q23 -5 33 -5q27 0 31 28q1 4 1 7q0 31 -27 35q-3 1 -6 1q-6 0 -81 -16q-30 -7 -51 -9q2 18 21 99
q5 21 5 32q-6 29 -37 32zM232 336q-36 -7 -40 -41q0 -15 5 -50q16 -128 22 -324h25q6 173 25 341q2 20 2 34q-2 39 -39 40z" />
    <glyph glyph-name="daggerdbl" unicode="&#x2021;" horiz-adv-x="463" 
d="M232 545q-35 -5 -38 -33q0 -8 16 -76q8 -31 10 -54q-18 2 -103 21q-21 4 -30 4q-27 0 -31 -28q-1 -4 -1 -7q0 -31 27 -35q3 -1 6 -1q6 0 79 16q37 8 63 10q24 -1 113 -21q23 -5 33 -5q27 0 31 28q1 4 1 7q0 31 -27 35q-3 1 -6 1q-6 0 -81 -16q-30 -7 -51 -9q2 18 21 99
q5 21 5 32q-6 29 -37 32zM231 -64q35 5 38 33q0 8 -16 76q-8 31 -10 54q18 -2 103 -21q21 -4 30 -4q27 0 31 28q1 4 1 7q0 31 -27 35q-3 1 -6 1q-6 0 -79 -16q-37 -8 -63 -10q-24 1 -113 21q-23 5 -33 5q-27 0 -31 -28q-1 -4 -1 -7q0 -31 27 -35q3 -1 6 -1q6 0 81 16
q30 7 51 9q-2 -18 -21 -99q-5 -21 -5 -32q6 -29 37 -32zM282 241q0 33 -30 47q-10 5 -21 5q-33 0 -46 -30q-5 -11 -5 -22q0 -32 29 -46q11 -5 22 -5q32 0 46 29q5 11 5 22z" />
    <glyph glyph-name="bullet" unicode="&#x2022;" horiz-adv-x="368" 
d="M268 229q0 50 -42 74q-20 11 -42 11q-49 0 -73 -42q-11 -20 -11 -43q0 -48 42 -73q20 -11 42 -11q48 0 72 41q12 21 12 43z" />
    <glyph glyph-name="ellipsis" unicode="&#x2026;" horiz-adv-x="596" 
d="M349 46q0 33 -30 47q-10 5 -21 5q-33 0 -46 -30q-5 -11 -5 -22q0 -32 29 -46q11 -5 22 -5q32 0 46 29q5 11 5 22zM546 46q0 33 -30 47q-10 5 -21 5q-33 0 -46 -30q-5 -11 -5 -22q0 -32 29 -46q11 -5 22 -5q32 0 46 29q5 11 5 22zM152 46q0 33 -30 47q-10 5 -21 5
q-33 0 -46 -30q-5 -11 -5 -22q0 -32 29 -46q11 -5 22 -5q32 0 46 29q5 11 5 22z" />
    <glyph glyph-name="perthousand" unicode="&#x2030;" horiz-adv-x="1164" 
d="M950 326q-88 0 -128 -71q-23 -40 -23 -94q0 -110 73 -152q34 -19 75 -19q89 0 129 73q22 41 22 95q0 116 -80 154q-31 14 -68 14zM949 10q-52 0 -66 62q-7 33 -7 86q0 121 43 142q13 6 29 6q51 0 65 -63q7 -32 7 -82q-1 -150 -71 -151zM189 -29l437 639l-29 20l-438 -640
zM211 615q-88 0 -128 -71q-23 -40 -23 -94q0 -110 73 -152q34 -19 75 -19q89 0 129 73q22 41 22 95q0 116 -80 154q-31 14 -68 14zM210 299q-52 0 -66 62q-7 33 -7 86q0 121 43 142q13 6 29 6q51 0 65 -63q7 -32 7 -82q-1 -150 -71 -151zM590 326q-88 0 -128 -71
q-23 -40 -23 -94q0 -110 73 -152q34 -19 75 -19q89 0 129 73q22 41 22 95q0 116 -80 154q-31 14 -68 14zM589 10q-52 0 -66 62q-7 33 -7 86q0 121 43 142q13 6 29 6q51 0 65 -63q7 -32 7 -82q-1 -150 -71 -151z" />
    <glyph glyph-name="guilsinglleft" unicode="&#x2039;" horiz-adv-x="262" 
d="M234 378l-20 17q-27 -30 -136 -124q-30 -26 -40 -36q-13 -15 -13 -30q1 -18 13 -32q8 -9 97 -82q58 -47 84 -75l18 16q-13 17 -46 62q-61 82 -83 111q19 25 70 96z" />
    <glyph glyph-name="guilsinglright" unicode="&#x203a;" horiz-adv-x="262" 
d="M28 378l20 17q27 -30 136 -124q30 -26 40 -36q13 -15 13 -30q-1 -18 -13 -32q-8 -9 -97 -82q-58 -47 -84 -75l-18 16q13 17 46 62q61 82 83 111q-19 25 -70 96z" />
    <glyph glyph-name="fraction" unicode="&#x2044;" horiz-adv-x="147" 
d="M-120 -29l437 639l-29 20l-438 -640z" />
    <glyph glyph-name="Euro" unicode="&#x20ac;" horiz-adv-x="604" 
d="M552 107q0 35 -30 45q-9 3 -17 3q-37 0 -50 -36q-2 -7 -6 -20q-13 -48 -36 -64q-26 -17 -70 -17q-119 0 -147 175q-4 27 -6 57h223l9 29h-233v21v29h244l9 29h-251q11 179 102 214q28 10 62 10q71 0 90 -50q3 -10 8 -29q9 -41 25 -50q12 -7 29 -7q44 5 47 54q0 52 -68 85
q-51 25 -113 25q-172 0 -245 -138q-26 -51 -35 -114h-74l-9 -29h80q-1 -13 -1 -36v-14h-70l-9 -29h81q14 -142 106 -212q62 -48 148 -48q136 0 188 67q19 25 19 50z" />
    <glyph glyph-name="uni20BA" unicode="&#x20ba;" horiz-adv-x="568" 
d="M243 0q158 0 234 105q41 57 41 118q0 59 -34 69q-6 2 -11 2q-37 0 -45 -45q-2 -14 -4 -47q-5 -83 -27 -117q-39 -59 -144 -59h-26v284l207 76v30l-207 -76v51l207 77v30l-207 -77v153h83v26h-251v-26h83v-184l-107 -40v-30l107 40v-52l-107 -39v-30l107 39v-252h-83v-26
h184z" />
    <glyph glyph-name="uni20BD" unicode="&#x20bd;" horiz-adv-x="580" 
d="M324 0q0 23 -13 25q-6 1 -12 1h-95v160h146v29h-146v50h88q164 0 217 93q21 35 21 81q0 99 -86 139q-46 22 -110 22h-299v-26h83v-280h-83v-29h83v-50h-83v-29h83v-160h-83v-26h289zM313 574q89 0 115 -80q8 -26 8 -56q0 -130 -116 -143q-12 -1 -24 -1h-92v280h109z" />
    <glyph glyph-name="uni2113" unicode="&#x2113;" horiz-adv-x="375" 
d="M215 -11q98 2 130 107l-23 9q-30 -81 -80 -86q-6 -1 -10 -1q-73 4 -74 144v51q155 73 176 169q4 17 4 36q0 82 -63 117q-27 15 -59 15q-81 0 -116 -69q-17 -35 -17 -83v-186q-9 -4 -53 -20l7 -27q6 2 18 7q19 7 28 10q5 -190 132 -193zM158 388q0 128 49 136q4 1 9 1
q47 -2 47 -100q0 -81 -23 -116q-24 -35 -82 -65v144z" />
    <glyph glyph-name="trademark" unicode="&#x2122;" horiz-adv-x="569" 
d="M193 364q-2 13 -13 14h-24v208h7q28 0 38 -25q2 -3 4 -10l12 -35h15l-2 84h-203l-2 -84h15l12 35q10 27 23 32q9 3 19 3h7v-208h-37v-14h129zM390 360l76 198v-180h-27v-14h105q-2 13 -12 14h-13v208h25v14h-80l-64 -167l-83 167h-65v-14h26v-208h-26v-14h76
q-2 13 -13 14h-18v142l84 -160h9z" />
    <glyph glyph-name="uni2126" unicode="&#x2126;" horiz-adv-x="706" 
d="M622 327q0 140 -85 218q-70 65 -180 65q-154 0 -228 -114q-46 -72 -46 -166q0 -127 87 -211q36 -33 81 -54h-94q-46 0 -60 19q-8 10 -12 25l-16 59h-19l2 -168h246v59q-70 39 -100 163q-15 58 -15 118q0 164 85 221q36 24 86 24q127 0 158 -154q9 -44 9 -96
q0 -132 -55 -218q-26 -40 -58 -58v-59h246l2 168h-19l-16 -59q-9 -36 -40 -42q-12 -2 -32 -2h-88q113 51 149 173q12 43 12 89z" />
    <glyph glyph-name="estimated" unicode="&#x212e;" horiz-adv-x="755" 
d="M168 109v227h547q0 166 -122 253q-87 61 -201 61q-177 0 -273 -123q-69 -90 -69 -209q0 -170 121 -261q90 -67 212 -67q166 1 285 112l-23 22q-87 -87 -215 -102q-21 -2 -41 -2q-134 1 -221 89zM597 544v-176h-429v164q80 83 210 88h13q124 -1 206 -76z" />
    <glyph glyph-name="partialdiff" unicode="&#x2202;" horiz-adv-x="513" 
d="M463 365q0 147 -90 211q-48 34 -108 34q-68 -1 -134 -43l16 -25q60 41 113 41q76 0 110 -80q18 -42 18 -100q0 -41 -11 -89q-45 68 -129 69q-89 0 -150 -69q-58 -65 -58 -157q0 -95 73 -141q42 -26 94 -26q130 0 201 131q55 102 55 244zM125 141q0 139 70 194
q30 23 64 23q63 0 86 -67q9 -28 9 -64q0 -124 -67 -183q-34 -30 -74 -30q-68 0 -84 81q-4 21 -4 46z" />
    <glyph glyph-name="uni2206" unicode="&#x2206;" horiz-adv-x="530" 
d="M525 0l-244 600h-37l-239 -600h520zM410 56h-343l171 434z" />
    <glyph glyph-name="product" unicode="&#x220f;" horiz-adv-x="592" 
d="M261 -130q0 23 -13 25q-6 1 -12 1h-53v678h221v-678h-73v-26h246q0 23 -13 25q-6 1 -12 1h-63v678h88v26h-562v-26h83v-678h-83v-26h246z" />
    <glyph glyph-name="summation" unicode="&#x2211;" horiz-adv-x="464" 
d="M457 -130v181h-22l-14 -57q-10 -41 -53 -50q-21 -4 -53 -4h-250l271 330l-225 304h188q62 0 87 -31q16 -21 28 -62l14 -47h19l12 166h-454v-23l256 -344l-256 -313v-50h452z" />
    <glyph glyph-name="minus" unicode="&#x2212;" horiz-adv-x="469" 
d="M424 216v36h-379v-36h379z" />
    <glyph glyph-name="uni2215" unicode="&#x2215;" horiz-adv-x="147" 
d="M-120 -29l437 639l-29 20l-438 -640z" />
    <glyph glyph-name="uni2219" unicode="&#x2219;" horiz-adv-x="368" 
d="M268 229q0 50 -42 74q-20 11 -42 11q-49 0 -73 -42q-11 -20 -11 -43q0 -48 42 -73q20 -11 42 -11q48 0 72 41q12 21 12 43z" />
    <glyph glyph-name="radical" unicode="&#x221a;" horiz-adv-x="449" 
d="M158 436l-168 -72l10 -27l93 40l87 -312q16 -58 46 -67q12 -3 28 -3h28l187 725l-34 8l-172 -666z" />
    <glyph glyph-name="infinity" unicode="&#x221e;" horiz-adv-x="694" 
d="M520 171q82 0 117 69q17 32 17 69q0 73 -54 112q-36 24 -84 24q-74 0 -153 -87q-9 -11 -20 -23q-86 109 -169 110q-82 0 -117 -69q-17 -32 -17 -69q0 -73 54 -112q36 -24 84 -24q72 0 148 82q11 12 24 27q86 -108 170 -109zM174 207q-67 0 -91 57q-9 21 -9 44q0 59 44 88
q25 16 56 16q75 -1 150 -99q-62 -72 -98 -92q-26 -14 -52 -14zM520 204q-77 1 -151 98q61 71 95 91q29 16 56 16q67 0 91 -57q9 -21 9 -44q0 -59 -44 -88q-25 -16 -56 -16z" />
    <glyph glyph-name="integral" unicode="&#x222b;" horiz-adv-x="356" 
d="M231 120q0 65 -14 293q-5 91 -5 156q0 93 32 103q6 2 11 2q21 0 27 -32q7 -42 13 -51q12 -17 38 -18q35 0 43 35q1 6 1 12q0 42 -40 66q-26 14 -59 14q-85 0 -118 -106q-25 -82 -25 -230q0 -49 13 -301q4 -90 4 -152q0 -164 -46 -173q-4 -1 -7 -1q-24 0 -26 31
q-1 5 -1 15q0 42 -17 54q-12 7 -30 7q-36 0 -44 -35q-1 -7 -1 -13q0 -43 40 -66q25 -15 58 -15q89 0 125 125q28 99 28 280z" />
    <glyph glyph-name="approxequal" unicode="&#x2248;" horiz-adv-x="495" 
d="M160 379q37 0 106 -37q59 -31 85 -31q52 1 80 70l24 -8q-19 -88 -83 -111q-16 -6 -32 -6q-37 0 -111 37q-61 30 -89 30q-50 -2 -76 -66l-24 8q25 96 97 112q11 2 23 2zM160 221q37 0 106 -37q59 -31 85 -31q53 1 80 68l24 -8q-20 -89 -85 -110q-15 -5 -30 -5
q-37 0 -111 37q-61 30 -89 30q-49 -2 -76 -68l-24 8q25 95 95 113q13 3 25 3z" />
    <glyph glyph-name="notequal" unicode="&#x2260;" horiz-adv-x="469" 
d="M424 161v36h-188l29 74h159v36h-145l49 123h-34l-49 -123h-200v-36h186l-29 -74h-157v-36h143l-46 -116h34l46 116h202z" />
    <glyph glyph-name="lessequal" unicode="&#x2264;" horiz-adv-x="469" 
d="M417 154l-313 107l313 108l-12 31l-360 -126v-28l359 -123zM414 46v33h-369v-33h369z" />
    <glyph glyph-name="greaterequal" unicode="&#x2265;" horiz-adv-x="469" 
d="M417 249v28l-359 123l-13 -31l313 -107l-313 -108l12 -31zM424 46v33h-369v-33h369z" />
    <glyph glyph-name="lozenge" unicode="&#x25ca;" horiz-adv-x="576" 
d="M272 599l-232 -347l231 -347h34l231 347l-230 347h-34zM490 252l-202 -304l-202 304l203 304z" />
    <glyph glyph-name="dottedcircle" unicode="&#x25cc;" horiz-adv-x="544" 
d="M104 94q3 20 22 21q22 0 21 -19v-2q-3 -21 -21 -22q-22 2 -22 22zM62 160q3 21 22 22q21 -2 20 -22q-3 -21 -21 -22q-21 2 -21 22zM168 52q3 20 21 21q22 -2 22 -21q-3 -21 -23 -22q-21 2 -20 22zM242 36q3 21 22 22q21 -2 20 -22q-3 -20 -21 -21q-21 0 -21 19v2zM49 234
q2 21 21 22q22 -2 22 -22q-3 -20 -22 -21q-20 2 -21 21zM65 309q3 21 23 22q20 -2 19 -22q-3 -21 -19 -22q-23 2 -23 22zM319 52q3 20 22 21q21 0 21 -19v-2q-3 -21 -22 -22q-21 2 -21 22zM109 375q3 20 23 21q20 -2 20 -21q-3 -20 -22 -21q-22 0 -21 21zM385 94q3 20 21 21
q21 0 21 -19v-2q-3 -21 -22 -22q-21 2 -20 22zM174 418q3 20 22 21q21 0 21 -19v-2q-3 -21 -22 -22q-21 2 -21 22zM428 160q3 21 22 22q22 -2 22 -22q-3 -21 -24 -22q-21 2 -20 22zM250 432q3 21 21 22q21 -2 21 -22q-3 -21 -21 -22q-21 2 -21 22zM443 234q2 21 23 22
q22 -2 21 -22q-3 -20 -21 -21q-22 2 -23 21zM325 418q3 20 23 21q21 0 20 -19v-2q-3 -21 -21 -22q-22 2 -22 22zM431 309q3 21 22 22q22 -2 22 -22q-3 -21 -23 -22q-22 2 -21 22zM389 375q3 20 22 21q22 -2 22 -21q-3 -20 -23 -21q-21 2 -21 21z" />
    <glyph glyph-name="commaaccent" unicode="&#xf6c3;" horiz-adv-x="500" 
d="M307 -109q0 57 -41 70q-10 3 -20 3q-34 0 -48 -32q-5 -11 -5 -23q0 -37 38 -49q4 -1 7 -2q24 -6 25 -18q-1 -30 -49 -80l24 -16q65 73 69 147z" />
    <glyph glyph-name="eight.numr" horiz-adv-x="548" 
d="M260 -10q106 0 170 60q48 45 48 107q0 75 -89 133q-19 12 -45 26q85 44 98 126q2 12 2 23q0 88 -82 126q-41 19 -89 19q-104 0 -156 -65q-31 -41 -31 -96q0 -70 87 -126q14 -8 30 -17q-106 -29 -132 -116q-6 -21 -6 -43q0 -94 89 -136q46 -21 106 -21zM164 490
q0 66 69 86q22 6 48 6q67 0 105 -47q24 -31 24 -71q0 -69 -57 -112q-17 -13 -36 -21q-92 48 -122 81q-31 36 -31 78zM99 149q0 67 61 109q32 22 76 31q93 -48 121 -73q42 -39 43 -86q0 -79 -84 -104q-29 -8 -63 -8q-83 0 -127 53q-27 33 -27 78z" />
    <glyph glyph-name="eight.tf" horiz-adv-x="538" 
d="M255 -10q106 0 170 59q48 45 48 105q0 76 -86 133q-20 13 -48 29q86 43 98 127q2 11 2 22q0 88 -82 126q-41 19 -89 19q-103 0 -155 -63q-32 -39 -32 -93q0 -75 94 -133l24 -14q-106 -29 -132 -116q-7 -22 -7 -44q0 -94 89 -136q46 -21 106 -21zM159 490q0 66 69 86
q22 6 48 6q67 0 105 -47q24 -31 24 -71q0 -69 -58 -112q-17 -13 -36 -21q-92 48 -121 81q-31 36 -31 78zM94 149q0 65 59 107q34 24 79 33q93 -48 122 -75q41 -37 41 -84q0 -79 -84 -104q-29 -8 -63 -8q-83 0 -127 53q-27 33 -27 78z" />
    <glyph glyph-name="five.numr" horiz-adv-x="500" 
d="M462 190q0 86 -68 138q-56 43 -139 43q-74 -1 -132 -39v197q89 -7 138 -7q109 0 139 29q24 25 24 96h-24q-8 -32 -38 -41q-26 -8 -88 -8q-13 0 -186 7v-284l35 -26q48 39 108 39q98 0 132 -83q12 -31 12 -68q0 -98 -67 -142q-38 -25 -89 -25q-37 0 -55 15t-20.5 36
t-3.5 42t-12 36t-38 15q-46 -2 -47 -49q0 -49 50 -85q51 -36 130 -36q134 0 201 88q38 50 38 112z" />
    <glyph glyph-name="five.tf" horiz-adv-x="476" 
d="M441 185q0 90 -65 143q-52 42 -127 42q-75 -1 -130 -38v193q80 -8 135 -8q103 0 130 27q23 23 23 96h-24q-8 -33 -38 -41q-24 -7 -78 -7q-8 0 -181 7v-277l33 -25q47 38 107 38q97 0 124 -95q8 -28 8 -61q0 -111 -74 -149q-30 -15 -69 -15q-54 0 -65 48q-3 10 -5 32
q-5 48 -22 61q-12 8 -31 8q-42 -8 -47 -49q0 -56 58 -94q50 -31 119 -31q127 0 187 88q32 48 32 107z" />
    <glyph glyph-name="four.numr" horiz-adv-x="336" 
d="M316 -55q0 18 -11 20q-4 1 -9 1h-46v74h66v23h-66v125h-15l-7 -18q-11 -28 -28 -32q-6 -2 -12 -2h-5v-73l-146 1q12 10 37 30q177 142 177 197q-2 33 -34 34q-24 0 -39 -29q-3 -7 -11 -23q-40 -90 -103 -155q-27 -28 -59 -54l5 -23l173 -1v-74h-73v-21h206z" />
    <glyph glyph-name="four.tf" horiz-adv-x="496" 
d="M456 0q0 24 -13 26q-5 1 -11 1h-68v129h92v30h-92v196h-20l-10 -38q-8 -33 -23 -38q-7 -3 -17 -3h-6v-116l-234 1q313 259 314 375q-2 46 -45 47q-32 0 -50 -38q-6 -12 -17 -43q-42 -115 -102 -194q-58 -76 -144 -147l6 -30l272 -1v-130h-107v-27h275z" />
    <glyph glyph-name="nine.numr" horiz-adv-x="537" 
d="M474 319q0 186 -104 257q-52 34 -121 34q-123 0 -179 -84q-30 -45 -30 -98q0 -85 66 -134q53 -40 131 -40q86 1 147 51q-5 -270 -128 -289q-10 -1 -19 -1q-54 0 -68 49q-3 10 -6 31q-8 48 -25 60q-12 8 -29 8q-37 0 -49 -33q-3 -10 -3 -20q0 -58 57 -94q44 -27 104 -27
q165 0 226 156q30 75 30 174zM125 438q0 83 53 123q32 23 74 23q83 0 116 -77q14 -33 14 -72q0 -83 -54 -124q-33 -24 -77 -24q-78 0 -111 75q-15 35 -15 76z" />
    <glyph glyph-name="nine.tf" horiz-adv-x="510" 
d="M460 315q0 180 -94 255q-51 40 -122 40q-107 0 -163 -73q-36 -48 -36 -111q0 -104 82 -152q46 -27 103 -27q81 1 140 50q-7 -280 -146 -281q-57 0 -69 44q-2 8 -4 26q-5 40 -21 50q-12 7 -29 7q-39 0 -46 -36q-1 -6 -1 -12q0 -55 62 -85q42 -20 96 -20q171 0 226 168
q22 69 22 157zM130 439q0 134 99 144q8 1 15 1q89 0 115 -91q8 -30 8 -65q0 -123 -88 -147q-18 -4 -37 -4q-111 2 -112 162z" />
    <glyph glyph-name="one.numr" horiz-adv-x="277" 
d="M142 320l-132 -93l15 -22l95 65v-243l-82 -7v-20h224q0 17 -14 20q-4 0 -8 1l-52 6v293h-46z" />
    <glyph glyph-name="one.tf" horiz-adv-x="454" 
d="M239 600l-219 -135l18 -29l174 102v-503l-157 -9v-26h374q0 21 -24 25q-4 1 -7 1l-106 9v565h-53z" />
    <glyph glyph-name="seven.numr" horiz-adv-x="481" 
d="M476 580v20h-429l-2 -176h22l18 56q13 40 50 45q11 2 28 2h243q-199 -298 -223 -335q-66 -108 -66 -154q8 -44 49 -48q36 0 50 30q4 8 29 95q62 215 231 465z" />
    <glyph glyph-name="seven.tf" horiz-adv-x="446" 
d="M456 580v20h-429l-2 -176h22l18 56q13 40 50 45q11 2 28 2h243q-199 -293 -237 -358q-52 -89 -52 -131q8 -44 49 -48q36 0 50 30q4 8 29 95q62 215 231 465z" />
    <glyph glyph-name="si_B.halant" horiz-adv-x="604" 
d="M99 74q0 -28 26 -43q11 -5 21 -5q28 0 43 27q5 11 5 21q0 28 -27 43q-11 5 -21 5q-28 0 -42 -27q-5 -11 -5 -21zM134 530q0 -6 15 -16q7 -7 8 -11q-1 -4 -3 -7q59 11 117 11q150 0 226 -77q9 -8 16 -18q-35 122 -158 154q-38 10 -80 10q-80 0 -125 -27q-15 -10 -16 -19z
M32 183q0 115 85 170q53 34 124 34q91 0 141 -55q31 -34 31 -81q0 -69 -52 -97q-7 -4 -21 -10q-34 -15 -40 -30q-3 -7 -3 -15q2 -36 46 -37q87 0 140 88q38 62 38 132q0 134 -129 180q-56 20 -129 20q-55 0 -105 -10q-63 -14 -119 -40v30q9 4 32 11q49 17 50 23q0 5 -14 16
q-12 10 -13 21q0 32 52 57q51 24 124 24q202 0 264 -170q15 -45 20 -96q8 -35 8 -87q-1 -130 -64 -205q-51 -57 -126 -58q-66 0 -93 47q-12 22 -12 47q0 44 42 67q5 3 16 8q39 19 48 38q5 12 5 26q0 55 -82 74q-31 7 -65 7q-94 0 -140 -62q-29 -38 -29 -92q0 -44 13 -69
q5 42 45 56q13 4 26 4q45 0 68 -38q10 -17 10 -36q0 -48 -43 -68q-17 -8 -35 -8q-74 0 -102 94q-12 41 -12 90z" />
    <glyph glyph-name="si_BI" horiz-adv-x="604" 
d="M270 492q-111 4 -136 14q-27 12 -28 35q1 56 185 56q175 0 192 -53q2 -6 2 -13q0 -36 -60 -49q-13 -2 -24 -3q-36 8 -131 13zM65 549q0 -62 94 -75q10 -1 112 -7q109 -7 142 -17q42 -14 72 -46q36 -40 38 -112q0 -91 -55 -163q-54 -66 -125 -67q-45 2 -46 37q0 25 31 40
q42 20 50 26q35 28 35 86q0 77 -76 115q-43 21 -96 21q-116 0 -173 -82q-36 -52 -36 -122q0 -115 54 -162q26 -22 60 -22q45 0 67 37q11 17 11 39q0 42 -39 64q-19 10 -39 10q-49 0 -66 -41q-4 -10 -5 -19q-13 25 -13 69q0 96 82 135q39 19 87 19q96 0 132 -42
q15 -18 15 -39q0 -36 -38 -57q-43 -23 -44 -23q-28 -22 -29 -59q0 -60 54 -84q24 -10 51 -10q114 0 163 122q26 65 27 148v1v2q0 99 -64 161q-10 9 -19 16q-19 12 -29 16q63 13 78 56q3 10 3 21q0 96 -181 111q-28 2 -59 2q-210 0 -225 -92q-1 -6 -1 -13zM99 74q0 28 26 43
q11 5 21 5q28 0 43 -27q5 -11 5 -21q0 -28 -27 -43q-11 -5 -21 -5q-28 0 -42 27q-5 11 -5 21z" />
    <glyph glyph-name="si_BIi" horiz-adv-x="604" 
d="M382 542q0 33 33 47q13 6 26 6q37 0 53 -31q6 -11 6 -22q0 -33 -33 -47q-13 -6 -26 -6q-37 0 -53 31q-6 11 -6 22zM270 492q-111 4 -136 14q-27 12 -28 35q1 56 185 56q57 0 79 -3q-18 -25 -18 -49q1 -38 31 -62q-25 4 -113 9zM65 549q0 -62 94 -75q10 -1 112 -7
q109 -7 142 -17q42 -14 72 -46q36 -40 38 -113q0 -90 -55 -161q-53 -67 -125 -68q-45 2 -46 37q0 25 31 40q42 20 50 26q35 28 35 86q0 77 -76 115q-43 21 -96 21q-116 0 -173 -82q-36 -52 -36 -122q0 -115 54 -162q26 -22 60 -22q45 0 67 37q11 17 11 39q0 42 -39 64
q-19 10 -39 10q-49 0 -66 -41q-4 -10 -5 -19q-13 25 -13 69q0 96 82 135q39 19 87 19q96 0 132 -42q15 -18 15 -39q0 -36 -38 -57q-43 -23 -44 -23q-28 -22 -29 -59q0 -60 54 -84q24 -10 51 -10q114 0 163 122q26 65 27 148v1v2q0 108 -73 170q-6 4 -10 7q-9 7 -28 16
q49 5 71 43q9 18 9 38q0 88 -164 105q-36 4 -76 4q-210 0 -225 -92q-1 -6 -1 -13zM99 74q0 28 26 43q11 5 21 5q28 0 43 -27q5 -11 5 -21q0 -28 -27 -43q-11 -5 -21 -5q-28 0 -42 27q-5 11 -5 21z" />
    <glyph glyph-name="si_BR.halant" horiz-adv-x="604" 
d="M99 74q0 28 26 43q11 5 21 5q28 0 43 -27q5 -11 5 -21q0 -28 -27 -43q-11 -5 -21 -5q-28 0 -42 27q-5 11 -5 21zM134 530q0 22 63 37q38 9 78 9q144 0 209 -100q19 -29 29 -64q-63 83 -206 94q-18 1 -36 1q-59 0 -117 -11q3 3 3 7q0 5 -13 14q-9 8 -10 13zM32 183
q0 -115 54 -162q26 -22 60 -22q45 0 67 37q11 17 11 39q0 42 -39 64q-19 10 -39 10q-49 0 -66 -41q-4 -10 -5 -19q-13 25 -13 69q0 96 82 135q39 19 87 19q96 0 132 -42q15 -18 15 -39q0 -36 -38 -57q-43 -23 -44 -23q-28 -22 -29 -59q0 -60 54 -84q24 -10 51 -10
q95 1 148 90q5 -19 5 -39q0 -119 -105 -172q-60 -30 -139 -30q-146 1 -196 110h-28q51 -155 209 -170q16 -1 31 -1q118 0 192 78q66 69 66 173q0 47 -20 82q27 67 27 142q0 52 -8 87q-16 175 -143 237q-60 29 -141 29q-109 0 -158 -46q-17 -18 -18 -35q0 -12 18 -25
q8 -8 9 -12q0 -6 -61 -26q-13 -5 -21 -8v-30q57 27 119 40q51 10 105 10q171 0 231 -97q27 -44 27 -103q0 -87 -53 -155q-53 -64 -125 -65q-45 2 -46 37q0 25 31 40q42 20 50 26q35 28 35 86q0 77 -76 115q-43 21 -96 21q-116 0 -173 -82q-36 -52 -36 -122z" />
    <glyph glyph-name="si_BRI" horiz-adv-x="604" 
d="M270 492q-111 4 -136 14q-27 12 -28 35q1 56 185 56q175 0 192 -53q2 -6 2 -13q0 -36 -60 -49q-13 -2 -24 -3q-36 8 -131 13zM65 549q0 -62 94 -75q10 -1 112 -7q109 -7 142 -17q42 -14 72 -46q36 -40 38 -112q0 -91 -55 -163q-54 -66 -125 -67q-45 2 -46 37q0 25 31 40
q42 20 50 26q35 28 35 86q0 77 -76 115q-43 21 -96 21q-116 0 -173 -82q-36 -52 -36 -122q0 -115 54 -162q26 -22 60 -22q45 0 67 37q11 17 11 39q0 42 -39 64q-19 10 -39 10q-49 0 -66 -41q-4 -10 -5 -19q-13 25 -13 69q0 96 82 135q39 19 87 19q96 0 132 -42
q15 -18 15 -39q0 -36 -38 -57q-43 -23 -44 -23q-28 -22 -29 -59q0 -60 54 -84q24 -10 51 -10q96 1 148 90q5 -17 5 -39q0 -119 -105 -172q-60 -30 -139 -30q-146 1 -196 110h-28q51 -155 209 -170q16 -1 31 -1q118 0 192 78q66 69 66 173q0 46 -20 83q27 67 27 148v1v2
q0 99 -64 161q-10 9 -19 16q-19 12 -29 16q63 13 78 56q3 10 3 21q0 96 -181 111q-28 2 -59 2q-210 0 -225 -92q-1 -6 -1 -13zM99 74q0 28 26 43q11 5 21 5q28 0 43 -27q5 -11 5 -21q0 -28 -27 -43q-11 -5 -21 -5q-28 0 -42 27q-5 11 -5 21z" />
    <glyph glyph-name="si_BRIi" horiz-adv-x="604" 
d="M382 542q0 33 33 47q13 6 26 6q37 0 53 -31q6 -11 6 -22q0 -33 -33 -47q-13 -6 -26 -6q-37 0 -53 31q-6 11 -6 22zM270 492q-111 4 -136 14q-27 12 -28 35q1 56 185 56q57 0 79 -3q-18 -25 -18 -49q1 -38 31 -62q-25 4 -113 9zM65 549q0 -62 94 -75q10 -1 112 -7
q109 -7 142 -17q42 -14 72 -46q36 -40 38 -113q0 -90 -55 -161q-53 -67 -125 -68q-45 2 -46 37q0 25 31 40q42 20 50 26q35 28 35 86q0 77 -76 115q-43 21 -96 21q-116 0 -173 -82q-36 -52 -36 -122q0 -115 54 -162q26 -22 60 -22q45 0 67 37q11 17 11 39q0 42 -39 64
q-19 10 -39 10q-49 0 -66 -41q-4 -10 -5 -19q-13 25 -13 69q0 96 82 135q39 19 87 19q96 0 132 -42q15 -18 15 -39q0 -36 -38 -57q-43 -23 -44 -23q-28 -22 -29 -59q0 -60 54 -84q24 -10 51 -10q96 1 148 90q5 -17 5 -39q0 -119 -105 -172q-60 -30 -139 -30q-146 1 -196 110
h-28q51 -155 209 -170q16 -1 31 -1q118 0 192 78q66 69 66 173q0 46 -20 83q27 67 27 148v1v2q0 108 -73 170q-6 4 -10 7q-9 7 -28 16q49 5 71 43q9 18 9 38q0 88 -164 105q-36 4 -76 4q-210 0 -225 -92q-1 -6 -1 -13zM99 74q0 28 26 43q11 5 21 5q28 0 43 -27q5 -11 5 -21
q0 -28 -27 -43q-11 -5 -21 -5q-28 0 -42 27q-5 11 -5 21z" />
    <glyph glyph-name="si_BRa" horiz-adv-x="604" 
d="M99 74q0 28 26 43q11 5 21 5q28 0 43 -27q5 -11 5 -21q0 -28 -27 -43q-11 -5 -21 -5q-28 0 -42 27q-5 11 -5 21zM32 183q0 -115 54 -162q26 -22 60 -22q45 0 67 37q11 17 11 39q0 42 -39 64q-19 10 -39 10q-49 0 -66 -41q-4 -10 -5 -19q-13 25 -13 69q0 96 82 135
q39 19 87 19q96 0 132 -42q15 -18 15 -39q0 -36 -38 -57q-43 -23 -44 -23q-28 -22 -29 -59q0 -60 54 -84q24 -10 51 -10q97 1 147 91q6 -17 6 -40q0 -119 -105 -172q-60 -30 -139 -30q-146 1 -196 110h-28q51 -155 209 -170q16 -1 31 -1q118 0 192 78q66 69 66 173
q0 47 -20 84q27 70 27 156q0 163 -105 242q-70 52 -172 52q-146 0 -209 -88q-8 -12 -14 -24h30q58 89 193 89q132 0 194 -98q39 -61 39 -144q0 -95 -52 -171q-52 -72 -123 -73q-45 2 -46 37q0 25 31 40q42 20 50 26q35 28 35 86q0 77 -76 115q-43 21 -96 21q-116 0 -173 -82
q-36 -52 -36 -122z" />
    <glyph glyph-name="si_BU" horiz-adv-x="604" 
d="M99 74q0 28 26 43q11 5 21 5q28 0 43 -27q5 -11 5 -21q0 -28 -27 -43q-11 -5 -21 -5q-28 0 -42 27q-5 11 -5 21zM32 183q0 -115 54 -162q26 -22 60 -22q45 0 67 37q11 17 11 39q0 42 -39 64q-19 10 -39 10q-49 0 -66 -41q-4 -10 -5 -19q-13 25 -13 69q0 96 82 135
q39 19 87 19q96 0 132 -42q15 -18 15 -39q0 -36 -38 -57q-43 -23 -44 -23q-28 -22 -29 -59q0 -60 54 -84q24 -10 51 -10q96 1 148 92v-284h-352q-77 0 -86 45q-1 6 -1 10q0 39 37 55q14 6 29 6q40 0 59 -32q3 -5 4 -9l29 12q-20 46 -72 56q-11 2 -20 2q-56 0 -85 -43
q-14 -22 -14 -47q0 -47 42 -73q27 -17 61 -17h402v412q9 46 9 94q0 163 -105 242q-70 52 -172 52q-146 0 -209 -88q-8 -12 -14 -24h30q58 89 193 89q132 0 194 -98q39 -61 39 -144q0 -95 -52 -171q-52 -72 -123 -73q-45 2 -46 37q0 25 31 40q42 20 50 26q35 28 35 86
q0 77 -76 115q-43 21 -96 21q-116 0 -173 -82q-36 -52 -36 -122z" />
    <glyph glyph-name="si_BUu" horiz-adv-x="604" 
d="M99 74q0 28 26 43q11 5 21 5q28 0 43 -27q5 -11 5 -21q0 -28 -27 -43q-11 -5 -21 -5q-28 0 -42 27q-5 11 -5 21zM32 183q0 -115 54 -162q26 -22 60 -22q45 0 67 37q11 17 11 39q0 42 -39 64q-19 10 -39 10q-49 0 -66 -41q-4 -10 -5 -19q-13 25 -13 69q0 96 82 135
q39 19 87 19q96 0 132 -42q15 -18 15 -39q0 -36 -38 -57q-43 -23 -44 -23q-28 -22 -29 -59q0 -60 54 -84q24 -10 51 -10q96 1 148 92v-254q-35 41 -99 49q-10 1 -18 1q-48 0 -130 -37q-79 -35 -118 -36q-51 0 -67 38q-5 11 -5 23q0 40 40 55q14 5 29 5q39 -1 61 -34l29 11
q-32 50 -95 50q-54 0 -83 -43q-16 -24 -16 -53q0 -66 63 -88q21 -8 45 -8q49 0 123 42q70 40 104 46q12 2 23 2q69 0 111 -63q7 -12 12 -22h23v404q10 46 10 99q0 163 -105 242q-70 52 -172 52q-146 0 -209 -88q-8 -12 -14 -24h30q58 89 193 89q132 0 194 -98
q39 -61 39 -144q0 -95 -52 -171q-52 -72 -123 -73q-45 2 -46 37q0 25 31 40q42 20 50 26q35 28 35 86q0 77 -76 115q-43 21 -96 21q-116 0 -173 -82q-36 -52 -36 -122z" />
    <glyph glyph-name="si_Ba.reph" horiz-adv-x="604" 
d="M99 74q0 28 26 43q11 5 21 5q28 0 43 -27q5 -11 5 -21q0 -28 -27 -43q-11 -5 -21 -5q-28 0 -42 27q-5 11 -5 21zM32 183q0 -115 54 -162q26 -22 60 -22q45 0 67 37q11 17 11 39q0 42 -39 64q-19 10 -39 10q-49 0 -66 -41q-4 -10 -5 -19q-13 25 -13 69q0 96 82 135
q39 19 87 19q96 0 132 -42q15 -18 15 -39q0 -36 -38 -57q-43 -23 -44 -23q-28 -22 -29 -59q0 -60 54 -84q24 -10 51 -10q114 0 163 124q27 68 27 155q0 166 -108 244q-30 22 -66 34h16q25 29 25 64q0 66 -65 96q-33 15 -73 15q-92 0 -125 -53q-12 -21 -12 -46q1 -47 49 -69
q-102 -25 -141 -103h30q58 89 193 89q132 0 194 -98q39 -61 39 -144q0 -95 -52 -171q-52 -72 -123 -73q-45 2 -46 37q0 25 31 40q42 20 50 26q35 28 35 86q0 77 -76 115q-43 21 -96 21q-116 0 -173 -82q-36 -52 -36 -122zM254 613q0 25 26 34q8 2 14 2q27 0 37 -23
q3 -7 3 -13q0 -25 -26 -34q-8 -2 -14 -2q-27 0 -37 23q-3 7 -3 13zM360 612q0 40 -38 55q-14 5 -29 5q-41 0 -59 -32q-6 -13 -6 -26q1 -27 19 -41q-35 3 -53 30q-9 13 -9 28q0 53 64 68q20 5 41 5q73 0 99 -47q10 -17 10 -39q-1 -33 -24 -59q-24 6 -37 8q21 18 22 45z" />
    <glyph glyph-name="si_Ba.touch" horiz-adv-x="604" 
d="M99 74q0 -28 26 -43q11 -5 21 -5q28 0 43 27q5 11 5 21q0 28 -27 43q-11 5 -21 5q-28 0 -42 -27q-5 -11 -5 -21zM32 183q0 115 85 170q53 34 124 34q91 0 141 -55q31 -34 31 -81q0 -69 -52 -97q-7 -4 -21 -10q-34 -15 -40 -30q-3 -7 -3 -15q2 -36 46 -37q82 0 134 92
q41 72 41 152q0 133 -89 198q-59 44 -144 44q-136 -1 -193 -89h-30q45 92 174 109q24 3 49 3q156 0 229 -114q48 -74 48 -180q0 -149 -69 -225q-49 -54 -121 -54q-66 0 -93 47q-12 22 -12 47q0 44 42 67q5 3 16 8q39 19 48 38q5 12 5 26q0 55 -82 74q-31 7 -65 7
q-94 0 -140 -62q-29 -38 -29 -92q0 -44 13 -69q5 42 45 56q13 4 26 4q45 0 68 -38q10 -17 10 -36q0 -48 -43 -68q-17 -8 -35 -8q-74 0 -102 94q-12 41 -12 90z" />
    <glyph glyph-name="si_Bh.halant" horiz-adv-x="654" 
d="M6 265q24 4 116 6q-73 -44 -74 -120q0 -88 72 -129q40 -23 92 -23q96 0 139 64q22 35 22 79q0 62 -39 83q-12 6 -25 6q-18 -1 -29 -7q33 129 140 130q84 0 121 -77q18 -40 18 -89q0 -93 -70 -137q-41 -26 -94 -26q-18 0 -36 3v-26q21 -3 40 -3q103 0 163 76q44 57 44 131
q0 112 -64 173q-26 25 -59 36v52q21 -10 44 -10q48 0 68 38q9 16 9 34q0 56 -58 89q-10 6 -34 17q-39 18 -55 30v-244q-8 1 -21 1q-80 0 -136 -84q-45 -66 -51 -150l22 -10q11 28 33 29q28 0 33 -34q1 -7 1 -13q0 -63 -70 -83q-23 -6 -49 -6q-88 0 -121 51q-14 22 -14 49
q0 60 70 88q33 14 70 14q14 0 25 -2q-1 90 -55 131q-28 20 -63 20q-56 0 -77 -42q-6 -13 -6 -25q3 -34 32 -36q28 1 39 29q12 25 37 26q39 0 55 -44q6 -16 6 -34h-4h-6h-201v-31zM483 491v132q56 -37 68 -50q16 -19 16 -41q0 -37 -34 -46q-8 -2 -17 -2q-21 0 -33 7z" />
    <glyph glyph-name="si_BhI" horiz-adv-x="654" 
d="M6 265q24 4 116 6q-73 -44 -74 -120q0 -88 72 -129q40 -23 92 -23q96 0 139 64q22 35 22 79q0 62 -39 83q-12 6 -25 6q-18 -1 -29 -7q33 129 140 130q84 0 121 -77q18 -40 18 -89q0 -93 -70 -137q-41 -26 -94 -26q-18 0 -36 3v-26q21 -3 40 -3q103 0 163 76q44 57 44 131
q0 113 -64 174q-19 18 -41 28q71 26 72 103q0 81 -90 119q-51 21 -113 21q-118 0 -169 -57q-27 -30 -27 -70q0 -74 105 -105q38 -12 87 -16q-72 -43 -103 -143q-11 -36 -14 -72l22 -10q11 28 33 29q28 0 33 -34q1 -7 1 -13q0 -63 -70 -83q-23 -6 -49 -6q-88 0 -121 51
q-14 22 -14 49q0 60 70 88q33 14 70 14q14 0 25 -2q-1 90 -55 131q-28 20 -63 20q-56 0 -77 -42q-6 -13 -6 -25q3 -34 32 -36q28 1 39 29q12 25 37 26q39 0 55 -44q6 -16 6 -34h-4h-6h-201v-31zM214 504q0 45 70 68q39 12 86 12q114 0 157 -43q18 -18 18 -41q0 -52 -52 -71
q-19 -7 -40 -8q-7 1 -17 1h-5h-1h-4q-4 -1 -5 -1q-116 3 -175 38q-31 20 -32 45z" />
    <glyph glyph-name="si_BhIi" horiz-adv-x="654" 
d="M6 265q24 4 116 6q-73 -44 -74 -120q0 -88 72 -129q40 -23 92 -23q96 0 139 64q22 35 22 79q0 62 -39 83q-12 6 -25 6q-18 -1 -29 -7q33 129 140 130q84 0 121 -77q18 -40 18 -89q0 -93 -70 -137q-41 -26 -94 -26q-18 0 -36 3v-26q21 -3 40 -3q103 0 163 76q44 57 44 131
q0 112 -63 173q-45 43 -107 43h-5h-1h-4q-4 -1 -5 -1q-116 3 -175 38q-31 20 -32 45q0 45 70 68q39 12 86 12q32 0 59 -4q-23 -4 -39 -33q-10 -19 -10 -40q0 -51 51 -75q22 -11 44 -11q55 0 83 39q15 23 15 53q0 78 -89 116q-51 22 -114 22q-118 0 -169 -57q-27 -30 -27 -70
q0 -74 104 -106q39 -12 87 -16q-73 -43 -103 -145q-10 -34 -13 -69l22 -10q11 28 33 29q28 0 33 -34q1 -7 1 -13q0 -63 -70 -83q-23 -6 -49 -6q-88 0 -121 51q-14 22 -14 49q0 60 70 88q33 14 70 14q14 0 25 -2q-1 90 -55 131q-28 20 -63 20q-56 0 -77 -42q-6 -13 -6 -25
q3 -34 32 -36q28 1 39 29q12 25 37 26q39 0 55 -44q6 -16 6 -34h-4h-6h-201v-31zM409 508q0 36 36 53q16 7 32 7q41 0 61 -33q7 -13 7 -27q0 -35 -35 -53q-16 -8 -33 -8q-41 0 -61 34q-7 13 -7 27z" />
    <glyph glyph-name="si_BhRI" horiz-adv-x="654" 
d="M214 504q0 45 70 68q39 12 86 12q114 0 157 -43q18 -18 18 -41q0 -52 -52 -71q-19 -7 -40 -8q-7 1 -17 1h-5h-1h-4q-4 -1 -5 -1q-116 3 -175 38q-31 20 -32 45zM174 524q0 -74 105 -105q38 -12 87 -16q-72 -43 -103 -143q-11 -36 -14 -72l22 -10q11 28 33 29q28 0 33 -34
q1 -7 1 -13q0 -63 -70 -83q-23 -6 -49 -6q-88 0 -121 51q-14 22 -14 49q0 60 70 88q33 14 70 14q14 0 25 -2q-1 90 -55 131q-28 20 -63 20q-56 0 -77 -42q-6 -13 -6 -25q3 -34 32 -36q28 1 39 29q12 25 37 26q39 0 55 -44q6 -16 6 -34h-4h-6h-201v-31q24 4 116 6
q-73 -44 -74 -120q0 -88 72 -129q40 -23 92 -23q96 0 139 64q22 35 22 79q0 62 -39 83q-12 6 -25 6q-18 -1 -29 -7q33 129 140 130q84 0 121 -77q18 -40 18 -89q0 -93 -70 -137q-41 -26 -94 -26q-18 0 -36 3v-26q21 -3 40 -3q100 1 160 73q2 -14 2 -23q0 -122 -112 -174
q-62 -28 -143 -28q-154 1 -205 110h-27q54 -158 221 -170q13 -1 26 -1q122 0 199 78q68 70 68 173q0 35 -10 62q28 49 28 107q0 113 -64 174q-19 18 -41 28q71 26 72 103q0 81 -90 119q-51 21 -113 21q-118 0 -169 -57q-27 -30 -27 -70z" />
    <glyph glyph-name="si_BhRIi" horiz-adv-x="654" 
d="M6 265q24 4 116 6q-73 -44 -74 -120q0 -88 72 -129q40 -23 92 -23q96 0 139 64q22 35 22 79q0 62 -39 83q-12 6 -25 6q-18 -1 -29 -7q33 129 140 130q84 0 121 -77q18 -40 18 -89q0 -93 -70 -137q-41 -26 -94 -26q-18 0 -36 3v-26q21 -3 40 -3q100 1 160 73q2 -14 2 -23
q0 -122 -112 -174q-62 -28 -143 -28q-154 1 -205 110h-27q54 -158 221 -170q13 -1 26 -1q122 0 199 78q68 70 68 173q0 35 -10 62q28 49 28 107q0 112 -63 173q-45 43 -107 43h-5h-1h-4q-4 -1 -5 -1q-116 3 -175 38q-31 20 -32 45q0 45 70 68q39 12 86 12q32 0 59 -4
q-23 -4 -39 -33q-10 -19 -10 -40q0 -51 51 -75q22 -11 44 -11q55 0 83 39q15 23 15 53q0 78 -89 116q-51 22 -114 22q-118 0 -169 -57q-27 -30 -27 -70q0 -75 106 -108q37 -10 83 -15q-70 -43 -101 -143q-10 -34 -13 -70l22 -10q11 28 33 29q28 0 33 -34q1 -7 1 -13
q0 -63 -70 -83q-23 -6 -49 -6q-88 0 -121 51q-14 22 -14 49q0 60 70 88q33 14 70 14q14 0 25 -2q-1 90 -55 131q-28 20 -63 20q-56 0 -77 -42q-6 -13 -6 -25q3 -34 32 -36q28 1 39 29q12 25 37 26q39 0 55 -44q6 -16 6 -34h-4h-6h-201v-31zM408 508q0 37 37 54q16 7 32 7
q43 0 62 -34q7 -13 7 -27q0 -36 -36 -54q-16 -8 -33 -8q-43 0 -62 34q-7 14 -7 28z" />
    <glyph glyph-name="si_BhRa" horiz-adv-x="654" 
d="M6 265q24 4 116 6q-73 -44 -74 -120q0 -88 72 -129q40 -23 92 -23q96 0 139 64q22 35 22 79q0 62 -39 83q-12 6 -25 6q-18 -1 -29 -7q33 129 140 130q84 0 121 -77q18 -40 18 -89q0 -93 -70 -137q-41 -26 -94 -26q-18 0 -36 3v-26q21 -3 40 -3q100 1 160 73q2 -14 2 -23
q0 -122 -112 -174q-62 -28 -143 -28q-154 1 -205 110h-27q54 -158 221 -170q13 -1 26 -1q122 0 199 78q68 70 68 173q0 35 -10 62q28 49 28 107q0 112 -63 173q-45 43 -107 43q-80 0 -136 -84q-45 -66 -51 -150l22 -10q11 28 33 29q28 0 33 -34q1 -7 1 -13q0 -63 -70 -83
q-23 -6 -49 -6q-88 0 -121 51q-14 22 -14 49q0 60 70 88q33 14 70 14q14 0 25 -2q-1 90 -55 131q-28 20 -63 20q-56 0 -77 -42q-6 -13 -6 -25q3 -34 32 -36q28 1 39 29q12 25 37 26q39 0 55 -44q6 -16 6 -34h-4h-6h-201v-31z" />
    <glyph glyph-name="si_BhRa.halant" horiz-adv-x="654" 
d="M483 491v132q56 -37 68 -50q16 -19 16 -41q0 -37 -34 -46q-8 -2 -17 -2q-21 0 -33 7zM6 265q24 4 116 6q-73 -44 -74 -120q0 -88 72 -129q40 -23 92 -23q96 0 139 64q22 35 22 79q0 62 -39 83q-12 6 -25 6q-18 -1 -29 -7q33 129 140 130q84 0 121 -77q18 -40 18 -89
q0 -93 -70 -137q-41 -26 -94 -26q-18 0 -36 3v-26q21 -3 40 -3q100 1 160 73q2 -14 2 -23q0 -122 -112 -174q-62 -28 -143 -28q-154 1 -205 110h-27q54 -158 221 -170q13 -1 26 -1q122 0 199 78q68 70 68 173q0 35 -10 62q28 49 28 107q0 112 -64 173q-26 25 -59 36v52
q21 -10 44 -10q48 0 68 38q9 16 9 34q0 56 -58 89q-10 6 -34 17q-39 18 -55 30v-244q-8 1 -21 1q-80 0 -136 -84q-45 -66 -51 -150l22 -10q11 28 33 29q28 0 33 -34q1 -7 1 -13q0 -63 -70 -83q-23 -6 -49 -6q-88 0 -121 51q-14 22 -14 49q0 60 70 88q33 14 70 14q14 0 25 -2
q-1 90 -55 131q-28 20 -63 20q-56 0 -77 -42q-6 -13 -6 -25q3 -34 32 -36q28 1 39 29q12 25 37 26q39 0 55 -44q6 -16 6 -34h-4h-6h-201v-31z" />
    <glyph glyph-name="si_BhU" horiz-adv-x="654" 
d="M6 265q24 4 116 6q-73 -44 -74 -120q0 -88 72 -129q40 -23 92 -23q96 0 139 64q22 35 22 79q0 62 -39 83q-12 6 -25 6q-18 -1 -29 -7q33 129 140 130q84 0 121 -77q18 -40 18 -89q0 -85 -54 -134q-31 -28 -66 -28q-21 0 -35 -5q-50 -14 -66 -66q-5 -16 -5 -33
q0 -60 61 -93q33 -17 71 -17q90 0 126 67q14 26 14 53q0 29 -1 33h-30v-9q0 -48 -48 -72q-26 -13 -57 -13q-66 0 -90 37q-9 14 -9 30q0 38 36 54q2 1 3 1q18 7 41 7q62 0 111 66q45 62 45 140q0 112 -63 173q-45 43 -107 43q-80 0 -136 -84q-45 -66 -51 -150l22 -10
q11 28 33 29q28 0 33 -34q1 -7 1 -13q0 -63 -70 -83q-23 -6 -49 -6q-88 0 -121 51q-14 22 -14 49q0 60 70 88q33 14 70 14q14 0 25 -2q-1 90 -55 131q-28 20 -63 20q-56 0 -77 -42q-6 -13 -6 -25q3 -34 32 -36q28 1 39 29q12 25 37 26q39 0 55 -44q6 -16 6 -34h-4h-6h-201
v-31z" />
    <glyph glyph-name="si_BhUu" horiz-adv-x="654" 
d="M6 265q24 4 116 6q-73 -44 -74 -120q0 -88 72 -129q40 -23 92 -23q96 0 139 64q22 35 22 79q0 62 -39 83q-12 6 -25 6q-18 -1 -29 -7q33 129 140 130q84 0 121 -77q18 -40 18 -89q0 -93 -70 -137q-41 -26 -94 -26q-18 0 -36 3v-26h5q3 -1 4 -1l90 -15l-85 -24l54 -27
q-46 -7 -59 -41q-4 -10 -4 -20q0 -62 90 -72q15 -2 29 -2q89 0 119 60q11 22 11 48q0 22 -4 34h-32q6 -12 6 -22q0 -51 -60 -66q-18 -5 -38 -5q-81 1 -82 39q0 22 56 33q23 4 27 5l-57 31l102 36l-76 13q88 23 129 104q22 45 22 96q0 112 -63 173q-45 43 -107 43
q-80 0 -136 -84q-45 -66 -51 -150l22 -10q11 28 33 29q28 0 33 -34q1 -7 1 -13q0 -63 -70 -83q-23 -6 -49 -6q-88 0 -121 51q-14 22 -14 49q0 60 70 88q33 14 70 14q14 0 25 -2q-1 90 -55 131q-28 20 -63 20q-56 0 -77 -42q-6 -13 -6 -25q3 -34 32 -36q28 1 39 29
q12 25 37 26q39 0 55 -44q6 -16 6 -34h-4h-6h-201v-31z" />
    </font>
</defs>
</svg>
