<?xml version="1.0" standalone="no"?>
<!DOCTYPE svg PUBLIC "-//W3C//DTD SVG 1.1//EN" "http://www.w3.org/Graphics/SVG/1.1/DTD/svg11.dtd" >
<svg xmlns="http://www.w3.org/2000/svg" xmlns:xlink="http://www.w3.org/1999/xlink" version="1.1">
<metadata>
Created by FontForge 20201107 at Fri Jan 10 04:54:42 2020
 By 
Generated by Fontographer 4.1 by Pushpananda Ekanayaka - The Font master - September 2002
</metadata>
<defs>
<font id="UN-Disapamok" horiz-adv-x="390" >
  <font-face 
    font-family="UN-Disapamok"
    font-weight="300"
    font-stretch="normal"
    units-per-em="1000"
    panose-1="0 0 3 0 0 0 0 0 0 0"
    ascent="800"
    descent="-200"
    bbox="-348 -401 1644.23 765"
    underline-thickness="20"
    underline-position="-143"
    unicode-range="U+0020-25CC"
  />
<missing-glyph horiz-adv-x="204" 
 />
    <glyph glyph-name=".notdef" horiz-adv-x="204" 
 />
    <glyph glyph-name=".null" horiz-adv-x="0" 
 />
    <glyph glyph-name="nonmarkingreturn" horiz-adv-x="333" 
 />
    <glyph glyph-name="space" unicode=" " horiz-adv-x="204" 
 />
    <glyph glyph-name="exclaim" unicode="!" horiz-adv-x="205" 
d="M137 695q10 13 23 13q10 0 19 -7q-3 -11 -45 -262q-34 -200 -42 -321q-5 -13 -15 -13q-9 0 -20 12q14 189 36 337q16 111 44 241zM49 54q9 7 20 7q12 0 24 -7q10 -25 -2 -52q-11 -7 -22 -7q-12 0 -22 7q0 37 2 52z" />
    <glyph glyph-name="quote" unicode="&#x22;" horiz-adv-x="408" 
d="M266 388l-24 194q-4 30 -5 35v10q0 48 39 49q23 1 32 -14q7 -11 8 -36q0 -4 -0.5 -9t-3.5 -31l-23 -198h-23zM168 608v-11q-1 -6 -1 -9l-24 -200h-22l-25 198q-4 32 -4 48q0 17 10.5 29.5t27.5 12.5q22 0 31 -13t9 -36q0 -1 -2 -19z" />
    <glyph glyph-name="hash" unicode="#" horiz-adv-x="500" 
d="M279 246l45 168h-106l-45 -168h106zM8 246h106l47 169h-107l8 36h107l58 210h60l-58 -210h105l57 210h59l-58 -210h107l-10 -36h-106l-45 -169h106l-10 -37h-105l-57 -209h-61l59 209h-106l-57 -209h-59l57 209h-105z" />
    <glyph glyph-name="percentage" unicode="%" horiz-adv-x="267" 
d="M208 396q4 5 14 5q12 0 23 -6.5t10 -15.5q-13 -6 -63 -90t-77 -147q-50 -115 -50 -147q-5 -3 -10 -3q-9 0 -16.5 6.5t-5.5 12.5q30 107 75 204q62 133 100 181zM28 343q0 24 16.5 40.5t40.5 16.5t40.5 -16.5t16.5 -40.5t-16.5 -40.5t-40.5 -16.5t-40.5 16.5t-16.5 40.5z
M62 341q0 -23 23 -23t23 23t-23 23t-23 -23zM112 57q0 24 16.5 40.5t40.5 16.5t40.5 -16.5t16.5 -40.5t-16.5 -40.5t-40.5 -16.5t-40.5 16.5t-16.5 40.5zM146 55q0 -23 23 -23t23 23t-23 23t-23 -23z" />
    <glyph glyph-name="apostrophe" unicode="'" horiz-adv-x="180" 
d="M124 629q0 -4 -0.5 -6t-2.5 -20l-24 -215h-17l-26 198l-3 24q0 16 -1 24q0 15 6.5 28.5t29.5 13.5q22 0 30 -13.5t8 -33.5z" />
    <glyph glyph-name="bracket_open" unicode="(" horiz-adv-x="117" 
d="M117 300q-16 -4 -37 -45q-25 -46 -32 -97q-2 -15 -2 -36q0 -103 25 -119q-4 -12 -16 -12q-8 0 -13 6q-16 19 -27 68t-7 95q4 54 24.5 102t42.5 62q4 3 10 3q12 0 22.5 -8.5t9.5 -18.5z" />
    <glyph glyph-name="bracket_close" unicode=")" horiz-adv-x="117" 
d="M36 310q3 19 30 19q26 0 38 -53q8 -34 8 -71q0 -30 -5 -58q-8 -45 -30 -90t-42 -60q-4 -2 -9 -2q-17 0 -18 15q16 5 36 55t24 90q2 15 2 31q0 43 -12 82q-11 36 -22 42z" />
    <glyph glyph-name="asterisk" unicode="*" horiz-adv-x="284" 
d="M233 602q15 3 22.5 -10.5t5.5 -24.5q-9 3 -34 -10t-40 -26q37 -12 45 -16.5t20 -15t12 -18.5q0 -9 -10 -19.5t-23 -10.5q-6 18 -25 35q-11 8 -34 23q0 -18 -8.5 -39.5t-16.5 -32.5q-5 -6 -13 -6q-11 0 -23 7.5t-15 13.5q32 13 47 60q-13 -4 -40 -4q-45 0 -45 23
q0 15 9 33q19 -21 78 -27q-10 14 -16 37q-9 33 -2 52q4 10 20 10q18 0 27 -7q-9 -9 -9 -38q0 -20 5 -43q11 19 28.5 34.5t34.5 19.5z" />
    <glyph glyph-name="plus" unicode="+" horiz-adv-x="338" 
d="M171 63q-10 -22 -32 -22q-6 0 -14 3q9 34 12 51q4 27 5 64v3h-1q-55 0 -116 -13q-2 7 -2 14q0 21 23 31q35 6 95 8q-4 68 -4 62q1 59 43 66q5 -76 4 -128q52 -1 128 -8q-7 -42 -66 -41q-22 2 -64 7q-4 -61 -11 -97z" />
    <glyph glyph-name="comma" unicode="," horiz-adv-x="118" 
d="M30 14q16 19 33 19q11 0 19 -7q5 -64 -32 -99q-8 -6 -17 -6q-11 0 -21 10q21 30 21 57z" />
    <glyph glyph-name="minus" unicode="-" horiz-adv-x="246" 
d="M35 147q25 6 83 8q37 1 102 -8q-5 -41 -46 -41q-78 9 -73 9q-38 0 -80 -13q-2 7 -2 14q0 21 16 31z" />
    <glyph glyph-name="dot" unicode="." horiz-adv-x="132" 
d="M38 38q16 22 39 5q22 -16 5 -39q-16 -22 -39 -5q-22 16 -5 39z" />
    <glyph glyph-name="slash" unicode="/" horiz-adv-x="166" 
d="M119 324q4 5 14 5q12 0 23 -6.5t10 -15.5q-27 -13 -85 -165q-37 -96 -37 -147q-5 -3 -10 -3q-9 0 -16 6.5t-6 12.5q16 94 50 189t57 124z" />
    <glyph glyph-name="0" unicode="0" horiz-adv-x="333" 
d="M136 403q18 2 24 -14q16 7 30 9q9 1 17 1q59 0 90 -54q27 -48 27 -120q0 -86 -43 -152q-50 -76 -132 -76q-12 0 -25 2q-59 10 -91 67q-28 50 -28 120q0 69 32 134q38 78 99 83zM132 364q-28 -15 -49 -53q-23 -42 -27 -96q-1 -15 -1 -29q0 -101 45 -141q22 -20 50 -20
q32 0 56 19q34 27 50 67q19 47 19 104q0 27 -5 50q-19 94 -74 94q-37 0 -59 -31q-13 2 -13 16q0 7 4 14q2 4 4 6z" />
    <glyph glyph-name="1" unicode="1" horiz-adv-x="124" 
d="M105 340q0 -63 -25 -169q-33 -137 -33 -158q0 -8 2 -13q-34 -15 -36 2q-1 9 -1 19q0 32 14 91q17 73 20 93q12 88 12 139q0 33 -5 49q6 9 18 9q20 0 27 -15t7 -47z" />
    <glyph glyph-name="2" unicode="2" horiz-adv-x="298" 
d="M50 273q-36 28 -34 38q9 26 35 50q35 32 82 39q18 2 34 2q56 0 86.5 -27.5t30.5 -73.5q0 -18 -5 -37q-16 -64 -78 -121q-55 -50 -113 -88q10 1 44 -11t59 -12q45 0 86 36q14 -4 12 -24q-37 -47 -119 -47q-18 0 -53 8.5t-53 8.5q-12 0 -23 -5t-31 -13q-10 23 1.5 40
t34.5 23q42 33 65 52q50 43 69 65q52 62 52 119q0 76 -82 77q-48 1 -78 -41q-24 -32 -22 -58z" />
    <glyph glyph-name="3" unicode="3" horiz-adv-x="287" 
d="M44 302q-28 3 -28 33q0 32 50 52q40 16 76 16q39 0 67 -16q35 -20 35 -55q0 -14 -6 -29q-13 -30 -59 -55q-33 -15 -65 -31q34 9 64 9q39 0 62 -16q42 -30 36 -90q-4 -41 -41 -80q-32 -36 -70 -49q-60 -21 -102 -21q-48 0 -70 27q-6 8 -6 19q0 26 26 36q2 -18 19 -34
q21 -18 53 -18q22 0 48 9q60 21 86 81q11 25 3 55q-14 51 -79 51q-24 0 -57 -7q-23 -5 -23 11q0 9 7 17q1 1 71 47q53 35 54 65q1 46 -58 46q-14 0 -26 -3q-22 -5 -41 -23q-23 -21 -26 -47z" />
    <glyph glyph-name="4" unicode="4" horiz-adv-x="320" 
d="M151 141q7 47 17 88q7 27 13 47q8 26 13 36q7 14 27 14q16 0 26 -7q-16 -23 -33 -87q-12 -46 -18 -84q25 3 62 18q32 13 38 40q21 -10 21 -36q0 -10 -5 -14q-18 -14 -57 -26q-49 -15 -63 -17q-6 -24 -8 -49q-6 -75 -6 -80q-8 -2 -13 -2q-19 0 -20 23q-1 20 -1 52
q0 20 3 50q-17 -3 -64 -9q-56 -5 -69 9t-5 55q13 66 42 124q47 93 87 128q7 6 19 6q24 0 33 -14q-55 -37 -99 -127q-36 -74 -36 -115q0 -20 16 -26.5t48 -2.5q13 2 32 6z" />
    <glyph glyph-name="5" unicode="5" horiz-adv-x="275" 
d="M70 339q-4 -8 -4 -16q0 -38 73 -70q29 -13 41 -19q36 -21 61 -47q22 -23 22 -67q0 -19 -6 -36q-22 -62 -93 -90q-50 -20 -110 -20q-25 0 -32 3q-14 6 -14 33q0 18 5 27q38 -26 81 -26q50 0 84.5 32.5t31.5 79.5q-3 41 -86 84q-59 30 -76 55q-12 18 -12 43q0 29 12.5 51
t17.5 26q12 12 42 17q19 3 63 3q50 0 69 -5q10 -3 10 -26q0 -20 -12 -32q-16 17 -58 24q-34 6 -56 3q-31 -4 -39.5 -9t-14.5 -18z" />
    <glyph glyph-name="6" unicode="6" horiz-adv-x="312" 
d="M187 11q-25 -11 -61 -14q-62 -6 -78 14q-29 35 -27 103q0 24 11 89q7 27 28 83q41 87 87 128q7 6 19 6q24 0 33 -14q-55 -37 -99 -127q-37 -75 -37 -140q0 -71 23 -94q15 -15 56 -10q32 4 57 25q36 30 47 64q6 18 6 38q0 59 -42 65q-10 2 -18 2q-23 0 -46 -17
q-33 -23 -36 -42q0 -1 -1 -1q-4 0 -11 11t-7 22q0 4 2 8q9 21 53 41q31 14 62 14q24 0 50 -9q41 -15 42 -70q1 -53 -29.5 -103t-83.5 -72z" />
    <glyph glyph-name="7" unicode="7" horiz-adv-x="281" 
d="M17 325q-18 5 -18 29q0 14 12 20q46 22 133 26q73 3 101.5 -10.5t28.5 -49.5q0 -25 -13 -74q-11 -40 -26 -79q-9 -24 -19 -48q-26 -62 -59 -150q-12 -2 -23 3.5t-9 13.5q20 54 59 171q34 112 34 140q0 54 -83 52q-52 -1 -87 -17q-30 -13 -31 -27z" />
    <glyph glyph-name="8" unicode="8" horiz-adv-x="321" 
d="M268 392q1 12 19 1t19 -30q1 -16 -33 -49q-39 -40 -96 -68q121 -50 121 -126q0 -17 -7 -35q-19 -47 -69 -72q-44 -22 -95 -22q-32 0 -55 9q-58 22 -62 92q-5 81 90 144q-70 43 -70 97q0 28 20 55q29 38 97 38q86 0 100 -59q4 -6 -10 -19t-28 -15q-12 61 -71 61
q-34 0 -55 -24q-8 -9 -8 -25q0 -26 20 -48.5t45 -33.5q44 23 76 49q25 20 40 42q10 14 12 38zM136 221q-75 -44 -75 -110q0 -38 21.5 -63.5t58.5 -25.5q16 0 37 6q58 17 74 64q3 9 3 17q0 61 -119 112z" />
    <glyph glyph-name="9" unicode="9" horiz-adv-x="312" 
d="M121 388q22 14 67 23q21 4 44 0q28 -4 40 -18q30 -34 28 -101q0 -24 -11 -89q-7 -27 -28 -83q-41 -87 -87 -128q-7 -6 -19 -6q-24 0 -33 14q55 37 99 127q37 75 37 135q0 69 -27 96q-18 18 -52 13q-32 -4 -57 -25q-51 -42 -51 -105q0 -49 40 -59q26 -7 61 10.5t39 43.5
q0 1 1 1q4 0 11 -11t7 -22q0 -4 -2 -8q-9 -21 -53 -41q-34 -16 -63 -16q-21 0 -42 8q-47 17 -49 73q-2 55 29 102q25 37 71 66z" />
    <glyph glyph-name="colon" unicode=":" horiz-adv-x="85" 
d="M25 148q16 18 36 2q9 -7 9 -19q0 -10 -6.5 -17.5t-17.5 -7.5q-11 -1 -19 6q-19 17 -2 36zM23 67q16 18 36 2q9 -7 9 -19q0 -10 -6.5 -17.5t-17.5 -7.5q-11 -1 -19 6q-19 17 -2 36z" />
    <glyph glyph-name="semicolon" unicode=";" horiz-adv-x="101" 
d="M30 14q16 19 33 19q11 0 19 -7q5 -64 -32 -99q-8 -6 -17 -6q-11 0 -21 10q21 30 21 57zM31 108q16 22 39 5q22 -16 5 -39q-16 -22 -39 -5q-22 16 -5 39z" />
    <glyph glyph-name="lessthan" unicode="&#x3c;" horiz-adv-x="564" 
d="M535 66v-74l-505 247v27l505 248v-75l-374 -186z" />
    <glyph glyph-name="equals" unicode="=" horiz-adv-x="262" 
d="M46 134q25 6 83 8q37 1 102 -8q-5 -41 -46 -41q-78 9 -73 9q-38 0 -80 -13q-2 7 -2 14q0 21 16 31zM50 213q25 6 83 8q37 1 102 -8q-5 -41 -46 -41q-78 9 -73 9q-38 0 -80 -13q-2 7 -2 14q0 21 16 31z" />
    <glyph glyph-name="greaterthan" unicode="&#x3e;" horiz-adv-x="564" 
d="M9 439v75l544 -248v-27l-544 -247v74l413 187z" />
    <glyph glyph-name="question" unicode="?" horiz-adv-x="233" 
d="M63 300q-8 -4 -15 -4q-18 0 -23 18q4 39 35.5 62.5t72.5 22.5q37 -1 60.5 -21t23.5 -56q0 -33 -21 -74q-12 -23 -38 -61q-17 -23 -34 -47q-14 -20 -39 -66q-6 -5 -12 -5q-7 0 -12 7q11 32 66 117q45 69 45 114q0 28 -16 45.5t-43 17.5q-24 0 -39 -19.5t-11 -50.5zM46 31
l-10 -29q10 -13 26 -8q17 6 17 23q0 12 -12 17t-21 -3z" />
    <glyph glyph-name="at" unicode="@" horiz-adv-x="921" 
d="M426 176q58 0 93 93.5t36 137.5q1 55 -54 55q-54 0 -97 -84q-38 -73 -38 -133q0 -69 60 -69zM90 308q0 160 128 267q120 100 283 101q131 1 226.5 -75t95.5 -199q0 -90 -55 -171q-62 -90 -148 -90q-53 0 -78 32q-15 20 -17 47q-11 -32 -45 -56t-68 -24q-60 0 -95.5 39
t-35.5 99q0 81 62 151t142 70q31 0 57 -16.5t34 -44.5l16 49h80l-26 -83q-11 -33 -30 -95q-20 -70 -20 -90q0 -17 13 -29.5t30 -12.5q64 0 109 84q39 71 39 140q1 110 -88 176q-79 60 -193 61q-129 1 -235 -91q-113 -98 -114 -238q-1 -133 95 -213q90 -75 226 -75
q48 0 101 13q86 21 145 67l19 -28q-138 -87 -280 -87q-147 0 -256 86q-117 93 -117 236z" />
    <glyph glyph-name="backslash" unicode="\" horiz-adv-x="166" 
d="M59 324q23 -29 57 -124t50 -189q1 -6 -6 -12.5t-16 -6.5q-5 0 -10 3q0 51 -37 147q-58 152 -85 165q-1 9 10 15.5t23 6.5q10 0 14 -5z" />
    <glyph glyph-name="brace_open" unicode="{" horiz-adv-x="131" 
d="M129 350q-20 -5 -37 -28q-21 -28 -24 -64q-1 -16 -9 -38q-10 -29 -21 -32q23 -36 22 -72t3 -64q5 -40 19 -49q-3 -9 -13 -11q-9 -1 -16 5q-33 31 -30 111q2 52 -16 61q0 11 1 21q10 3 17.5 30.5t6.5 55.5q-2 63 54 99q4 3 10 3q12 0 23 -9t10 -19z" />
    <glyph glyph-name="brace_close" unicode="}" horiz-adv-x="131" 
d="M7 350q0 10 11 19t22 9q6 0 10 -3q56 -36 54 -99q-1 -28 6.5 -55.5t17.5 -30.5q1 -10 1 -21q-18 -9 -16 -61q3 -80 -30 -111q-7 -6 -16 -5q-10 2 -13 11q14 9 19 49q4 28 3 64t22 72q-11 3 -21 32q-8 22 -9 38q-3 36 -24 64q-17 23 -37 28z" />
    <glyph glyph-name="degree" unicode="&#xb0;" horiz-adv-x="114" 
d="M34 367q-11 -16 5 -27t27 5t-5 27t-27 -5zM26 399q14 10 30 10q21 0 36 -15.5t15 -35.5q0 -21 -14.5 -36t-35.5 -15q-27 0 -42 21q-10 14 -10 30q0 26 21 41z" />
    <glyph glyph-name="paragraphsign" unicode="&#xb6;" horiz-adv-x="453" 
d="M432 643q-28 -1 -41 -13q-20 -17 -27 -75q-6 -47 -6 -134v-272q0 -118 -30 -180q-56 -115 -212 -115q-50 0 -76 17q-27 14 -28 44q-1 17 13 31q14 11 32 11q43 0 45 -43q1 -14 -11 -29q54 -1 76 56q11 30 17 113q1 11 2 60v167q-89 0 -148 51.5t-59 139.5q0 53 26.5 96.5
t73.5 66.5q30 14 75 21q41 6 121 6h157v-19zM215 475v-295q0 -142 -2 -162q-12 -102 -68 -136l1 -6q100 19 132 109q19 54 19 195v187q0 104 4 165q6 85 34 111h-80q-7 0 -19 -22q-10 -17 -13 -28q-5 -18 -7 -75q0 -16 -1 -43z" />
    <glyph glyph-name="middledot" unicode="&#xb7;" horiz-adv-x="250" 
d="M167 332q0 -25 -16.5 -41.5t-41.5 -16.5t-41 16.5t-16 41.5q0 24 15.5 40t39.5 17t42 -16t18 -41z" />
    <glyph glyph-name="multiply" unicode="&#xd7;" horiz-adv-x="277" 
d="M211 262q7 3 15 3q21 0 31 -21q-31 -18 -44 -28q-23 -16 -50 -41l-2 -2l1 -2q38 -38 91 -72q-10 -21 -30 -21q-9 0 -16 4q-30 20 -73 62q-13 -16 -41 -47q-26 -25 -51 -25q-15 0 -26 9q23 27 87 93q-36 37 -85 96q11 8 26 8q25 0 50 -26q14 -17 41 -50q45 41 76 60z" />
    <glyph glyph-name="divide" unicode="&#xf7;" horiz-adv-x="323" 
d="M159 307q16 0 27.5 -11t11.5 -27q0 -15 -11 -26.5t-27 -11.5t-28 11t-12 26q0 16 12 27.5t27 11.5zM158 130q16 0 27.5 -11t11.5 -27q0 -15 -11 -26.5t-27 -11.5t-28 11t-12 26q0 16 12 27.5t27 11.5zM37 194q35 6 119 8q54 1 147 -8q-7 -41 -66 -41q-113 9 -105 9
q-55 0 -116 -13q-2 7 -2 14q0 21 23 31z" />
    <glyph glyph-name="anusa" unicode="&#xd82;" horiz-adv-x="216" 
d="M118 140q13 9 41 9q29 0 41 -13q9 -10 9 -24q0 -27 -31 -66q-42 -53 -109 -53q-13 0 -21 3q-42 16 -42 60q0 14 6 28q27 68 84 78q10 2 17 -5t5 -17zM100 120q-9 4 -16 0q-28 -15 -28 -48q0 -16 10.5 -29t26.5 -13q15 0 37 14q35 22 36 48q1 13 -21 13t-43 -9q-6 -3 -8 5
t6 19z" />
    <glyph glyph-name="visar" unicode="&#xd83;" horiz-adv-x="103" 
d="M49 88q19 0 32 -14t13 -32q0 -19 -13 -31.5t-32 -12.5q-18 0 -31.5 13.5t-13.5 31.5q0 19 13.5 32t31.5 13zM33 51q-9 -11 2 -20q13 -11 21 3q7 12 -3 19q-12 8 -20 -2zM49 191q19 0 32 -13.5t13 -31.5q0 -19 -13 -32t-32 -13q-18 0 -31.5 13.5t-13.5 31.5q0 19 13.5 32
t31.5 13zM33 154q-9 -11 2 -20q13 -11 21 3q7 12 -3 19q-12 8 -20 -2z" />
    <glyph glyph-name="v_a" unicode="&#xd85;" horiz-adv-x="282" 
d="M32 156q-5 -2 -9 -2q-20 0 -13 42q35 38 93 38q18 0 29 -4q18 -7 33 -28q17 -24 13 -48q-7 -47 -66 -92q27 5 56 -14q6 -4 14 -12l54 364q2 1 4 1q14 0 32 -31.5t22 -67.5q0 -11 -6 -34q-8 28 -34 34l-42 -300q12 -53 12 -106q0 -64 -18 -132q-16 -62 -38 -96
q-16 -25 -44 -18l52 340q-11 16 -26 26q-26 16 -72 8q-24 -15 -58 -32q-21 -10 -32 -4q-12 7 -12 16q0 22 30 38q15 9 52 22q31 7 60 42q16 19 16 48q0 22 -14 34q-9 8 -21 8q-36 0 -67 -40z" />
    <glyph glyph-name="v_aa" unicode="&#xd86;" horiz-adv-x="500" 
d="M279 246l45 168h-106l-45 -168h106zM8 246h106l47 169h-107l8 36h107l58 210h60l-58 -210h105l57 210h59l-58 -210h107l-10 -36h-106l-45 -169h106l-10 -37h-105l-57 -209h-61l59 209h-106l-57 -209h-59l57 209h-105z" />
    <glyph glyph-name="v_ae" unicode="&#xd87;" horiz-adv-x="500" 
d="M279 246l45 168h-106l-45 -168h106zM8 246h106l47 169h-107l8 36h107l58 210h60l-58 -210h105l57 210h59l-58 -210h107l-10 -36h-106l-45 -169h106l-10 -37h-105l-57 -209h-61l59 209h-106l-57 -209h-59l57 209h-105z" />
    <glyph glyph-name="v_aee" unicode="&#xd88;" horiz-adv-x="500" 
d="M279 246l45 168h-106l-45 -168h106zM8 246h106l47 169h-107l8 36h107l58 210h60l-58 -210h105l57 210h59l-58 -210h107l-10 -36h-106l-45 -169h106l-10 -37h-105l-57 -209h-61l59 209h-106l-57 -209h-59l57 209h-105z" />
    <glyph glyph-name="v_i" unicode="&#xd89;" horiz-adv-x="264" 
d="M99 78q8 10 20 10q11 0 24 -8q-3 -28 -17 -45q-30 -37 -73 -37q-14 0 -24 6q-23 13 -23 51q0 31 14 61q23 48 63.5 80.5t83.5 32.5q44 0 69 -26.5t25 -70.5q0 -13 -3 -27q-7 -35 -39 -73q-25 -24 -50 -49q12 5 25 5q29 0 38 -22q5 -12 5 -25q0 -48 -51 -109
q-43 -51 -92 -80q-22 -13 -32 -14q-6 -1 -8 11t4 17q58 23 113 111q17 28 17 58q0 21 -16 21q-27 0 -57 -30q-15 8 -15 21q12 21 45.5 52.5t48.5 60.5q19 35 19 81q0 59 -40 59q-44 0 -77 -40q-48 -58 -48 -101q0 -19 13 -25q11 -5 27.5 6t10.5 38z" />
    <glyph glyph-name="v_ii" unicode="&#xd8a;" horiz-adv-x="260" 
d="M161 594q23 9 41 -2q1 -24 -48 -143q-10 -23 -47 -127q-41 -114 -53 -154q41 27 100 27q28 0 46 -8.5t30 -28.5q14 -23 14 -48q0 -16 -6 -31q-32 -82 -139 -84q-94 -2 -94 95q0 22 5 49q8 41 46 154q34 99 55 152q44 111 50 149zM49 131q-4 -19 -4 -35q0 -66 62 -68
q48 -2 75 34q14 18 14 39q0 55 -58 55q-56 0 -79 -38q-4 1 -6.5 7.5t-3.5 5.5zM7 521q0 24 16.5 40.5t40.5 16.5t40.5 -16.5t16.5 -40.5t-16.5 -40.5t-40.5 -16.5t-40.5 16.5t-16.5 40.5zM41 519q0 -23 23 -23t23 23t-23 23t-23 -23zM149 387q0 24 16.5 40.5t40.5 16.5
t40.5 -16.5t16.5 -40.5t-16.5 -40.5t-40.5 -16.5t-40.5 16.5t-16.5 40.5zM183 385q0 -23 23 -23t23 23t-23 23t-23 -23z" />
    <glyph glyph-name="v_u" unicode="&#xd8b;" horiz-adv-x="322" 
d="M254 128q-4 20 -38 20q-24 0 -44 -8q-39 -15 -55 -39q-20 3 -20 23q0 8 3 16q28 24 43 30q36 16 89 16q52 0 74 -30q4 -5 4 -17q0 -29 -28 -45q-70 -35 -112 -54q-138 -67 -160 -156q-7 -28 -7 -57q0 -65 33 -115q34 -54 94 -74q33 -11 68 -11q60 0 106 30q50 32 66 87
q8 26 8 57q0 75 -34 95q-3 2 -3 4q0 9 35 20q40 -26 40 -95q0 -46 -18 -91q-20 -48 -54 -77q-68 -58 -174 -58q-16 0 -32 1q-82 7 -131.5 62t-50.5 138q-1 109 78 188q39 39 108 70t71 32q44 23 41 38z" />
    <glyph glyph-name="v_uu" unicode="&#xd8c;" horiz-adv-x="500" 
d="M279 246l45 168h-106l-45 -168h106zM8 246h106l47 169h-107l8 36h107l58 210h60l-58 -210h105l57 210h59l-58 -210h107l-10 -36h-106l-45 -169h106l-10 -37h-105l-57 -209h-61l59 209h-106l-57 -209h-59l57 209h-105z" />
    <glyph glyph-name="v_iru" unicode="&#xd8d;" horiz-adv-x="496" 
d="M27 150q5 18 7 23q6 9 20 12q19 5 36 5q59 0 59 -36q0 -6 -3 -12q-7 -18 -32 -30l-38 -16q-22 -12 -22 -42q1 -24 20 -21q18 3 42 41q10 17 30 30q8 6 17 6q13 0 24 -14q7 -9 18 -36q5 -13 9 -27q4 -10 11 -15q22 8 29 56q12 70 12 71q23 64 69 58q9 -1 12 -11l6 -20
q-12 -6 -25 -22t-22 -49q-8 -28 -15 -55q-13 -38 -40 -50q-12 -5 -32 -3q-21 2 -28 11q-10 13 -20 38q-7 20 -15 24q-28 -33 -41 -46q-27 -26 -62 -26q-22 0 -32 12q-15 18 -13 44q3 44 46 65q29 14 36 25q3 4 3 7q0 9 -21 9q-17 0 -45 -6zM415 134q-17 0 -37.5 -14
t-31.5 -34q-16 14 -14 33q20 29 52 45q29 15 51 12q59 -9 54 -90q-2 -34 -17 -67q-8 -17 -15 -21q-7 7 -17 7q-7 0 -19 -4.5t-16 -4.5q-20 -2 -34 11.5t-12 38.5q3 34 46 52q23 10 39 10q-10 26 -29 26zM404 48q-1 -19 14 -19q4 0 15 3q9 2 11 0q8 10 5 51q-43 -7 -45 -35z
" />
    <glyph glyph-name="v_iruu" unicode="&#xd8e;" horiz-adv-x="500" 
d="M279 246l45 168h-106l-45 -168h106zM8 246h106l47 169h-107l8 36h107l58 210h60l-58 -210h105l57 210h59l-58 -210h107l-10 -36h-106l-45 -169h106l-10 -37h-105l-57 -209h-61l59 209h-106l-57 -209h-59l57 209h-105z" />
    <glyph glyph-name="v_ilu" unicode="&#xd8f;" horiz-adv-x="487" 
d="M56 124q-4 -18 -4 -27q0 -4 1 -10q11 5 21 5q25 0 38 -26q3 -6 3 -16q0 -42 -40 -46q-42 -5 -59 32q-11 24 -9 64q2 48 41 81q22 18 49 18q19 0 24 -13q3 -8 1 -18q15 4 27 5q60 4 60 -36q0 -11 -5 -30t-5 -28q0 -39 51 -39q29 0 42 5q21 7 36 32l19 49q13 33 29 38
q-1 12 6.5 23.5t25.5 11.5q27 0 45 -18q25 -25 25 -65q0 -8 -1 -16q-18 -104 -88 -96q-32 4 -32 34q0 18 8 28q18 26 43 26q10 0 20 -5q5 13 5 37q0 14 -5.5 27.5t-11.5 13.5q-4 0 -6 -7q6 -11 1 -28q-17 0 -41 -50q-21 -44 -45 -62q-31 -24 -86 -23q-91 1 -84 72q1 15 9 30
q3 7 3 12q0 9 -8 16t-17 7q-31 0 -59 -28q-7 8 -7 24q0 12 4 19q2 3 7 6q1 12 -5 12t-14.5 -13.5t-11.5 -27.5zM57 62q2 -30 18 -30q17 0 7 23q-6 14 -25 7zM419 62q-17 7 -27 -7q-10 -17 -2 -22q2 -1 4 -1q17 0 25 30z" />
    <glyph glyph-name="v_iluu" unicode="&#xd90;" horiz-adv-x="500" 
d="M279 246l45 168h-106l-45 -168h106zM8 246h106l47 169h-107l8 36h107l58 210h60l-58 -210h105l57 210h59l-58 -210h107l-10 -36h-106l-45 -169h106l-10 -37h-105l-57 -209h-61l59 209h-106l-57 -209h-59l57 209h-105z" />
    <glyph glyph-name="v_e" unicode="&#xd91;" horiz-adv-x="384" 
d="M346 330q-8 -20 -36 -35t-60 -15q-67 0 -90 64q-12 33 -12 73q0 42 11 75q21 64 66 64q48 0 101 -63q57 -69 64 -155q1 -16 1 -35q0 -91 -26 -146q-52 -108 -126 -144q-38 -18 -83 -18q-44 0 -64 15q-12 14 -37 34q-12 6 -30 9q-18 4 -24 0q-10 14 2 33q3 5 33 8
q81 9 79 29q-2 16 -40 16q-22 0 -35 -6q-12 25 -12 28q0 18 30 24q23 4 43 0q36 -7 50 -39q4 -9 4 -17q0 -27 -31 -44q-19 -11 -38 -14q27 -12 35 -18q23 -14 53 -14q39 0 74 21q51 31 84 118q18 48 18 100q0 19 -4 52zM334 368q-13 50 -45 93q-43 58 -65 62q-14 3 -22 -38
q-7 -33 -6 -63q3 -83 47 -97q11 -4 23 -4q50 0 68 47z" />
    <glyph glyph-name="v_ee" unicode="&#xd92;" horiz-adv-x="384" 
d="M418 676q-8 -67 -22 -186q-3 -25 -14 -105q9 -36 9 -82q0 -91 -26 -146q-52 -108 -126 -144q-38 -18 -83 -18q-44 0 -64 15q-12 14 -37 34q-12 6 -30 9q-18 4 -24 0q-10 14 2 33q3 5 33 8q81 9 79 29q-2 16 -40 16q-22 0 -35 -6q-12 25 -12 28q0 18 30 24q23 4 43 0
q36 -7 50 -39q4 -9 4 -17q0 -27 -31 -44q-19 -11 -38 -14q27 -12 35 -18q23 -14 53 -14q38 0 73 21q52 31 85 118q18 48 18 100q0 19 -4 52q-8 -20 -36 -35t-60 -15q-67 0 -90 64q-12 33 -12 73q0 42 11 75q21 64 66 64q29 0 64.5 -27.5t61.5 -71.5l1 10q0 -5 12 87
q9 74 16 124q26 9 22 9q9 0 16 -11zM334 368q-13 50 -45 93q-43 58 -65 62q-14 3 -22 -38q-7 -33 -6 -63q3 -83 47 -97q11 -4 23 -4q50 0 68 47z" />
    <glyph glyph-name="v_ei" unicode="&#xd93;" horiz-adv-x="500" 
d="M279 246l45 168h-106l-45 -168h106zM8 246h106l47 169h-107l8 36h107l58 210h60l-58 -210h105l57 210h59l-58 -210h107l-10 -36h-106l-45 -169h106l-10 -37h-105l-57 -209h-61l59 209h-106l-57 -209h-59l57 209h-105z" />
    <glyph glyph-name="v_o" unicode="&#xd94;" 
d="M141 17q-34 -28 -94 -18q-43 7 -43 61q0 38 28 69q23 26 30.5 32t31.5 20q17 9 38 9q23 0 37 -9.5t14 -27.5q0 -22 -14 -34q-45 -38 -88 -43q-8 -1 -12.5 5t-3.5 19q-14 -24 -14 -38q0 -12 17 -22q5 -3 13 -3q22 0 53 22q9 6 37 33q17 16 28 14q21 -3 32 -37.5t20 -34.5
q6 0 16 7q42 28 78 149q19 66 19 135q0 82 -29 139q-68 131 -204 131q-67 0 -115 -38q-40 -31 -41 -59q0 -5 -10 -2q-10 2 -18 12q-4 7 -4 16q0 44 65 77q52 26 103 29q132 8 211.5 -75.5t79.5 -224.5q0 -83 -27 -168q-19 -59 -46 -103q-31 -49 -61 -57q-18 -5 -30 -5
q-23 0 -36.5 17t-15.5 41q-3 -3 -45 -38zM78 117q15 -1 31.5 2.5t25.5 12.5q15 15 5 21q-4 2 -8 2q-18 0 -54 -38z" />
    <glyph glyph-name="v_oo" unicode="&#xd95;" 
d="M78 117q15 -1 31.5 2.5t25.5 12.5q15 15 5 21q-4 2 -8 2q-18 0 -54 -38zM191 365q-65 35 -163 35q-20 0 -35 -2q-5 5 -9 10q-8 8 -8 17q0 4 2 9q66 16 116 63q13 12 28 37q20 33 26 41q71 96 140 93q52 -2 80 -52q24 -42 24 -105q0 -89 -37 -120q-4 -3 -18 5.5t-16 20.5
q36 35 36 100q0 48 -21 80q-24 35 -63 31q-49 -5 -92 -80q-47 -83 -125 -113q48 4 124 -27q64 -26 98 -53q45 -37 65 -67q32 -52 28 -124q-3 -61 -38 -109q-30 -44 -65 -53q-18 -5 -30 -5q-23 0 -36.5 17t-15.5 41q-3 -3 -45 -38q-34 -28 -94 -18q-43 7 -43 61q0 38 28 69
q23 26 30.5 32t31.5 20q17 9 38 9q23 0 37 -9.5t14 -27.5q0 -22 -14 -34q-45 -38 -88 -43q-8 -1 -12.5 5t-3.5 19q-14 -24 -14 -38q0 -12 17 -22q5 -3 13 -3q22 0 53 22q9 6 37 33q17 16 28 14q21 -3 32 -37.5t20 -34.5q6 0 16 7q61 40 58 139q-3 113 -134 185z" />
    <glyph glyph-name="v_ou" unicode="&#xd96;" horiz-adv-x="500" 
d="M279 246l45 168h-106l-45 -168h106zM8 246h106l47 169h-107l8 36h107l58 210h60l-58 -210h105l57 210h59l-58 -210h107l-10 -36h-106l-45 -169h106l-10 -37h-105l-57 -209h-61l59 209h-106l-57 -209h-59l57 209h-105z" />
    <glyph glyph-name="ka" unicode="&#xd9a;" horiz-adv-x="326" 
d="M27 159q-2 9 4 15q5 0 19.5 6t22 7.5t18.5 1.5q35 0 53 -15q28 15 83 13q65 -2 81 -52q12 -37 4 -95q-1 -16 -6 -42q-2 -5 -10 -5q-15 0 -25 10q-5 16 -9 81q-3 48 -33 64q-15 8 -48 2q28 -22 28 -70q0 -34 -15 -57.5t-38 -25.5q-47 -4 -58 33q-8 -34 -40 -33
q-7 0 -18 6.5t-13 7.5q-4 -3 -17 0q-13 10 -6 28q10 25 52 70q26 28 47 43q-9 4 -23 1q-1 0 -14 -4.5t-20 -4.5q-6 0 -12 3t-7 12zM135 133q-17 -10 -41 -32q-28 -26 -46 -54q4 -1 8 -7.5t7 -8t5 -1.5q4 0 6.5 16.5t11.5 21.5q15 8 28 -1q4 -2 13 -20t20 -19q16 -1 20 44
q1 15 -8.5 35t-23.5 26z" />
    <glyph glyph-name="kha" unicode="&#xd9b;" 
d="M335 464q-68 131 -204 131q-67 0 -115 -38q-40 -31 -41 -59q0 -5 -10 -2q-10 2 -18 12q-4 7 -4 16q0 44 65 77q52 26 103 29q132 8 211.5 -75.5t79.5 -224.5q0 -83 -27 -168q-18 -58 -49 -104q-33 -51 -63 -59q-10 -3 -19 -3q-21 0 -57 29q-3 2 -7 2q-14 0 -31 -20
t-24 -47q-5 -3 -14 6t-13 18q8 43 59 94q19 19 19 38q0 26 -28 26q-19 0 -38.5 -15.5t-30.5 -46.5t-11 -59q0 -10 2 -18q-11 -9 -31 -9q-34 0 -32 16q9 89 73 139q42 33 83 33q54 0 54 -48q0 -17 -8 -33t-19 -29q6 2 11 2q11 0 19 -15q12 -21 28 -21q30 0 62 63q21 42 35 89
q19 66 19 135q0 82 -29 139z" />
    <glyph glyph-name="ga" unicode="&#xd9c;" horiz-adv-x="326" 
d="M72 202q36 7 41 -3q-25 -24 -46 -61q-15 -27 -15 -61q0 -37 25 -43q21 -5 64 49q38 47 45 54q33 31 66 28q49 -5 61 -54q3 -13 3 -30q0 -16 -3.5 -44t-3.5 -38q-31 -8 -38 -3q-10 23 -12 70q-1 21 -2 28q-3 16 -10.5 21t-13.5 5q-20 0 -64 -56q-57 -73 -109 -67
q-58 7 -58 74q0 20 6 40q19 64 64 91z" />
    <glyph glyph-name="gha" unicode="&#xd9d;" horiz-adv-x="353" 
d="M42 150q5 18 7 23q6 9 20 12q18 4 36 4q59 0 59 -34q0 -31 -52 -53q-17 -7 -39 -13q8 -6 8 -21q0 -5 -1 -13.5t-1 -11.5q0 -11 10 -10q20 3 22 18q3 26 5 30q20 34 57 41q22 4 44 0q24 -4 29 -17q4 -9 4 -18q0 -15 -14 -28l-18 -18q-3 -6 -3 -11q0 -17 25 -12q22 8 29 56
q12 70 12 71q23 64 69 58q9 -1 12 -11l6 -20q-12 -6 -25 -22t-22 -49q-8 -28 -15 -55q-19 -53 -79 -53q-33 0 -44 12q-22 24 -5 45q19 23 19 31q0 9 -17 6q-29 -5 -35 -33q-1 -2 -1 -20q0 -10 -8 -20q-17 -20 -68 -20q-27 0 -34 16q-4 8 -2 33q1 18 1 21q-1 12 -11 12
q-14 -1 -20.5 5.5t-2.5 18.5q3 11 10 18q13 -3 48 3q39 6 48 19q3 4 3 7q0 9 -21 9q-18 0 -45 -6z" />
    <glyph glyph-name="knaasi" unicode="&#xd9e;" horiz-adv-x="406" 
d="M107 7q-7 6 -20 28q-2 5 -2 12q0 22 24 44q28 25 28 34q0 17 -21 26q-17 8 -36 8q-13 0 -20 -4q35 -17 35 -45q0 -9 -3 -20q-4 -16 -20 -30t-33 -14q-35 0 -35 47q0 40 28 69t67 29q16 0 31 -5q45 -16 45 -47q0 -23 -30 -50q-16 -15 -16 -26q0 -18 14 -18q6 0 21 21
q41 59 62 56q17 -3 30.5 -44.5t24.5 -41.5q6 0 14 6q41 27 64 148q17 89 17 145q0 77 -27 129q-68 131 -204 131q-67 0 -115 -38q-40 -31 -41 -59q0 -5 -10 -2q-10 2 -18 12q-4 7 -4 16q0 44 65 77q52 26 103 29q132 8 211 -75t79 -233q0 -80 -22 -161q-39 -143 -99 -159
q-16 -4 -28 -4q-26 0 -34 20.5t-21 51.5q-13 -17 -39 -50q-19 -23 -41 -23q-14 0 -24 10zM43 129q-8 -10 -8 -22q0 -11 8 -16t16.5 1.5t8.5 15.5q0 8 -8 15t-17 6z" />
    <glyph glyph-name="nga" unicode="&#xd9f;" horiz-adv-x="397" 
d="M140 138q-15 -27 -15 -61q0 -37 25 -43q21 -5 64 49q33 41 42 49q29 26 63 23q51 -5 67 -59q6 -21 6 -42q0 -27 -10 -55q-30 -8 -37 -3q8 23 0 66q-8 45 -42 45q-27 0 -61 -43q-57 -73 -109 -67q-58 7 -58 74q0 32 18 73q-36 -28 -45 -64q-9 -35 9 -72q-4 -14 -44 -10
q-10 9 -10 40q0 36 14 64q26 53 74 82q26 16 49 16q15 0 18 -11q3 -14 -18 -51z" />
    <glyph glyph-name="cha" unicode="&#xda0;" horiz-adv-x="389" 
d="M333 472q-56 105 -155 124q-19 4 -38 4q-64 0 -116 -41q-42 -33 -43 -61q0 -5 -10 -2q-10 2 -18 12q-4 7 -4 16q0 44 65 77q52 26 103 29q133 8 214 -72q77 -76 77 -217q0 -107 -37 -184q-52 -108 -126 -144q-38 -18 -83 -18q-44 0 -64 15q-12 14 -37 34q-23 12 -48 12
q-10 0 -17 -3q-10 14 2 33q2 3 44 8q81 9 79 29q-2 16 -35 16q-19 0 -32 -6q-12 25 -12 28q0 7 7 13q20 18 58 11q36 -7 50 -39q4 -9 4 -17q0 -27 -31 -44q-19 -11 -38 -14q27 -12 35 -18q23 -14 53 -14q54 0 93 35t65.5 105t24.5 163q-1 76 -30 130z" />
    <glyph glyph-name="Ja" unicode="&#xda1;" horiz-adv-x="316" 
d="M14 125q-15 17 -1 42q15 20 37 21q33 2 48 -34q9 -31 18 -63q18 -50 47 -50q24 0 29 19q-33 30 -36 100t38 172q55 135 136 236q6 3 11 3q16 0 19 -23q-42 -57 -106 -186q-26 -51 -30 -61q-18 -40 -25 -69q-11 -46 -11 -71q0 -18 4 -35q14 64 62 68q48 3 58 -50
q7 -37 -15 -71q-25 -38 -61 -38q-6 0 -12 1q-21 -43 -75 -43q-8 0 -16 2q-43 8 -56 81q-9 54 -20 64q-5 5 -11 5q-12 0 -32 -20zM226 118q0 -5 4 -48q22 3 33 18q14 21 14 44q0 31 -16 33q-32 4 -35 -47z" />
    <glyph glyph-name="ja" unicode="&#xda2;" horiz-adv-x="284" 
d="M14 125q-15 17 -1 42q15 20 37 21q33 2 48 -34q9 -31 18 -63q5 -15 11.5 -31.5t22.5 -16.5q32 0 58 57q56 121 82 204q24 77 44 165q12 49 23 99q6 3 12 3q16 0 22 -22q-1 -20 -16 -86q-18 -77 -40 -142q-31 -92 -39 -116q-23 -62 -46 -107q-30 -59 -54 -80
q-27 -25 -67 -23q-25 1 -38 26q-7 15 -14 55q-9 54 -20 64q-5 5 -11 5q-12 0 -32 -20z" />
    <glyph glyph-name="kdha" unicode="&#xda3;" horiz-adv-x="603" 
d="M332 23q-31 -25 -60 -25q-60 0 -60 47q0 30 29 76q14 22 13 25q-3 8 -27 10q-29 2 -46 -6q28 -22 28 -70q0 -34 -15 -57.5t-38 -25.5q-47 -4 -58 33q-8 -34 -40 -33q-7 0 -18 6.5t-13 7.5q-4 -3 -17 0q-13 10 -6 28q10 25 52 70q26 28 47 43q-9 4 -23 1q-1 0 -14 -4.5
t-20 -4.5q-6 0 -12 3t-7 12q-2 9 4 15q5 0 19.5 6t22 7.5t18.5 1.5q35 0 53 -15q25 13 55 14q52 2 79 -6q35 -12 28 -38q-1 -5 -27 -40q-17 -23 -17 -39q0 -15 16 -25q3 -2 8 -2q22 0 35 28q34 71 61 67q19 -3 36 -56q14 -44 36 -44q27 0 63 67q26 49 38 90q19 66 19 135
q0 82 -29 139q-68 131 -204 131q-67 0 -115 -38q-40 -31 -41 -59q0 -5 -10 -2q-10 2 -18 12q-4 7 -4 16q0 44 65 77q52 26 103 29q132 8 211.5 -75.5t79.5 -224.5q0 -83 -27 -168q-17 -55 -53 -103.5t-67 -56.5q-18 -5 -31 -5q-26 0 -39 17q-10 12 -17.5 36t-8.5 26
q-11 -20 -37 -53zM135 133q-17 -10 -41 -32q-28 -26 -46 -54q4 -1 8 -7.5t7 -8t5 -1.5q4 0 6.5 16.5t11.5 21.5q15 8 28 -1q4 -2 13 -20t20 -19q16 -1 20 44q1 15 -8.5 35t-23.5 26z" />
    <glyph glyph-name="kna" unicode="&#xda4;" horiz-adv-x="481" 
d="M286 188q28 -2 45 -20q29 23 72 23q67 0 73 -47q2 -18 -17 -31q-5 -4 -50 -25q-21 -9 -41 -18q-32 -17 -27 -33q5 -15 91 -9q24 2 26 2q16 -2 16 -15t-18 -28q-26 -18 -74 -55q-72 -64 -64 -144q4 -46 33 -83q25 -33 59 -47q44 -19 93 -19q89 0 141 51q49 48 55 119
q5 58 -29 95q-4 4 -32 24q8 17 28 17q8 0 16 -3q14 -13 25 -30q21 -34 21 -87q0 -98 -65 -161.5t-178 -63.5q-31 0 -60 6q-49 11 -89 42.5t-52 72.5q-10 35 -10 66q0 91 82 160q15 13 80 56q-27 -5 -75 -5q-47 -1 -60 3q-22 6 -22 25q0 8 6 16q22 31 97 63q43 18 43 32
q0 16 -30 20q-42 5 -59 -28q-10 -19 -25 -8q-5 9 -19 24q-23 18 -43 5q28 -22 28 -70q0 -34 -15 -57.5t-38 -25.5q-47 -4 -58 33q-8 -34 -40 -33q-7 0 -18 6.5t-13 7.5q-4 -3 -17 0q-13 10 -6 28q10 25 52 70q26 28 47 43q-13 6 -23 1q-2 -1 -11.5 -9.5t-15.5 -8.5t-12 6.5
t-9 7.5q-7 1 -18 -8q-42 -32 -42 -78q0 -21 16 -55q-4 -14 -40 -13q-12 11 -12 51q0 31 9 55q23 62 75 83q29 12 41 -10q5 5 23 12q36 8 60 -12q33 17 74 14zM203 133q-17 -10 -41 -32q-28 -26 -46 -54q4 -1 8 -7.5t7 -8t5 -1.5q4 0 6.5 16.5t11.5 21.5q15 8 28 -1
q4 -2 13 -20t20 -19q16 -1 20 44q1 15 -8.5 35t-23.5 26z" />
    <glyph glyph-name="gna" unicode="&#xda5;" horiz-adv-x="460" 
d="M242 64q-57 -73 -109 -67q-58 7 -58 74q0 32 18 73q-36 -28 -45 -64q-9 -35 9 -72q-4 -14 -44 -10q-10 9 -10 40q0 36 14 64q26 53 74 82q26 16 49 16q15 0 18 -11q3 -14 -18 -51q-15 -27 -15 -61q0 -37 25 -43q15 -4 37 16q4 4 31 35q33 37 63 62.5t59 36.5q23 9 51 7
q58 -4 64 -47q2 -18 -17 -31q-5 -4 -50 -25q-21 -9 -41 -18q-32 -17 -27 -33q5 -15 91 -9q24 2 26 2q16 -2 16 -15t-18 -28q-26 -18 -74 -55q-72 -64 -64 -144q4 -46 33 -83q25 -33 59 -47q44 -19 93 -19q32 0 63 9q45 12 77 42q50 47 56 119q5 58 -29 95q-4 4 -32 24
q8 17 28 17q8 0 16 -3q14 -13 25 -30q21 -34 21 -87q0 -98 -65 -161.5t-178 -63.5q-31 0 -60 6q-49 11 -89 42.5t-52 72.5q-10 35 -10 66q0 91 82 160q15 13 80 56q-27 -5 -75 -5q-47 -1 -60 3q-22 6 -22 25q0 8 6 16q22 31 97 63q43 18 43 32q0 16 -28 19q-32 3 -72 -28
q-31 -25 -62 -64z" />
    <glyph glyph-name="nja" unicode="&#xda6;" horiz-adv-x="284" 
d="M14 125q-15 17 -1 42q15 20 37 21q33 2 48 -34q9 -31 18 -63q5 -15 11.5 -31.5t22.5 -16.5q32 0 58 57q56 121 82 204q24 77 44 165q12 49 23 99q6 3 12 3q16 0 22 -22q-1 -20 -16 -86q-18 -77 -40 -142q-31 -92 -39 -116q-23 -62 -46 -107q-30 -59 -54 -80
q-27 -25 -67 -23q-25 1 -38 26q-7 15 -14 55q-9 54 -20 64q-5 5 -11 5q-12 0 -32 -20z" />
    <glyph glyph-name="ta" unicode="&#xda7;" horiz-adv-x="384" 
d="M327 472q-56 104 -155 123q-19 4 -37 4q-66 0 -119 -42q-40 -31 -41 -59q0 -5 -10 -2q-10 2 -18 12q-4 7 -4 16q0 44 65 77q52 26 103 29q133 8 214 -72q77 -76 77 -216q0 -98 -45 -183q-52 -98 -150 -139q-54 -22 -125 -22q-39 0 -53 8q-20 12 -20 39q0 19 12 41
q7 12 33.5 43t33.5 44q5 3 9 3q10 0 18 -20q6 -15 -10 -33q-6 -6 -28 -37q-18 -24 -4 -42q11 -14 40 -14q38 0 93 26q36 17 70 53t50 75q32 78 31 158q-1 76 -30 130z" />
    <glyph glyph-name="Ta" unicode="&#xda8;" 
d="M365 156q-16 -51 -45 -95q-33 -50 -65 -59q-18 -5 -31 -5q-25 0 -39 17q-10 12 -17.5 36t-8.5 26q-11 -20 -37 -53q-31 -25 -60 -25q-60 0 -60 47q0 30 29 76q36 56 58 68q5 1 12 1q29 0 29 -14q0 -4 -4 -8q-20 -18 -53 -54q-22 -34 -22 -51q0 -13 17 -23q3 -2 8 -2
q22 0 35 28q34 71 61 67q19 -3 36 -56q14 -44 36 -44q27 0 57 60q19 39 32 83q11 37 13 94q1 24 -5 60q-8 -20 -36 -35t-60 -15q-67 0 -90 64q-12 33 -12 73q0 42 11 75q21 64 66 64q48 0 99 -63q56 -69 64 -155q2 -21 2 -42q0 -78 -20 -140zM329 368q-13 50 -45 93
q-43 58 -65 62q-14 3 -22 -38q-7 -33 -6 -63q3 -83 47 -97q11 -4 23 -4q50 0 68 47z" />
    <glyph glyph-name="Da" unicode="&#xda9;" 
d="M86 7q-9 17 -31 39q-37 16 -58 7q-10 14 2 33q3 4 37 8q81 9 79 29q-2 16 -38 16q-20 0 -33 -6q-12 25 -12 28q0 7 7 13q21 19 62 11q36 -7 50 -39q4 -9 4 -17q0 -27 -31 -44q-19 -11 -38 -14q7 -4 26 -23q4 -4 10 -4q13 0 28 22q41 59 62 56q17 -3 30.5 -44.5
t24.5 -41.5q6 0 14 6q41 27 64 148q17 89 17 145q0 77 -27 129q-68 131 -204 131q-67 0 -115 -38q-40 -31 -41 -59q0 -5 -10 -2q-10 2 -18 12q-4 7 -4 16q0 44 65 77q52 26 103 29q132 8 211 -75t79 -233q0 -80 -22 -161q-39 -143 -99 -159q-16 -4 -28 -4q-26 0 -34 20.5
t-21 51.5q-13 -17 -39 -50q-19 -23 -46 -23q-16 0 -26 10z" />
    <glyph glyph-name="Dha" unicode="&#xdaa;" 
d="M360 270q1 24 -5 60q-8 -20 -36 -35t-60 -15q-67 0 -90 64q-12 33 -12 73q0 42 11 75q21 64 66 64q48 0 101 -63q57 -69 64 -155q1 -17 1 -36q0 -95 -24 -170q-17 -53 -43.5 -88.5t-52.5 -41.5q-16 -4 -28 -4q-26 0 -34 20.5t-21 51.5q-13 -17 -39 -50q-19 -23 -46 -23
q-16 0 -26 10q-9 17 -31 39q-37 16 -58 7q-10 14 2 33q3 4 37 8q81 9 79 29q-2 16 -38 16q-20 0 -33 -6q-12 25 -12 28q0 7 7 13q21 19 62 11q36 -7 50 -39q4 -9 4 -17q0 -27 -31 -44q-19 -11 -38 -14q7 -4 26 -23q4 -4 10 -4q13 0 28 22q41 59 62 56q17 -3 30.5 -44.5
t24.5 -41.5q22 0 48 49q18 36 27 67q16 57 18 118zM343 368q-13 50 -45 93q-43 58 -65 62q-14 3 -22 -38q-7 -33 -6 -63q3 -83 47 -97q11 -4 23 -4q50 0 68 47z" />
    <glyph glyph-name="Na" unicode="&#xdab;" horiz-adv-x="332" 
d="M54 98q-17 -16 -32 -16q-7 0 -12 4q-5 11 -5 22q0 41 47 68q18 10 58 10q38 70 126 230q31 54 88 174q5 6 11 6q12 0 23 -22q-17 -38 -80 -154q-69 -127 -132 -240q15 -9 25 -22q14 16 36 16q17 0 26.5 -14t9.5 -31q0 -19 -9 -37q13 29 45 29q45 0 45 -52q0 -14 -4 -29
q-11 -42 -34 -60q-11 -7 -19 -7q-9 0 -13 9q32 57 32 76q0 17 -16 20q-12 2 -25 -6q-19 -12 -24.5 -14t-14.5 -4q-9 0 -9 9q0 5 5.5 24.5t3.5 26.5q-5 20 -24 20q4 -14 4 -34q-1 -47 -38 -80q-27 -24 -64 -28q-25 -3 -50 1q-29 5 -29 15l45 78q12 20 38 66q-13 0 -24 -8
q-23 -17 -10 -46zM122 136l-62 -102q12 -7 27 -7q46 0 59 39q3 10 3 21q0 32 -27 49z" />
    <glyph glyph-name="nDa" unicode="&#xdac;" horiz-adv-x="441" 
d="M112 134q-17 7 -29 -2q-32 -24 -39 -52q-3 -11 -3 -21q0 -20 15 -51q-4 -14 -40 -13q-12 11 -12 53q0 33 10 55q30 62 71 79q9 4 17 4q10 0 22 -7.5t18 -7.5q4 0 21.5 8.5t30.5 7.5q31 -2 34 -40q3 -36 -44 -62q-16 -9 -45 -14q7 -4 26 -23q4 -4 10 -4q13 0 28 22
q41 59 62 56q17 -3 30.5 -44.5t24.5 -41.5q6 0 14 6q41 27 64 148q17 89 17 145q0 77 -27 129q-68 131 -204 131q-67 0 -115 -38q-40 -31 -41 -59q0 -5 -10 -2q-10 2 -18 12q-4 7 -4 16q0 44 65 77q52 26 103 29q132 8 211 -75t79 -233q0 -80 -22 -161q-39 -143 -99 -159
q-16 -4 -28 -4q-26 0 -34 20.5t-21 51.5q-13 -17 -39 -50q-19 -23 -46 -23q-16 0 -26 10q-6 16 -26 38q-11 6 -32 9t-27 -1q-10 14 2 33q3 5 33 8q34 4 47 7q34 7 43 21q5 8 4 16q0 10 -11 9q-4 0 -20.5 -12t-26.5 -9q-6 1 -13 8z" />
    <glyph glyph-name="tha" unicode="&#xdad;" horiz-adv-x="326" 
d="M16 129q-12 -3 -15 12q20 34 55 43q44 11 70 -11q30 15 76 15q79 0 104 -53q19 -40 11 -91q-2 -17 -10 -47q-2 -5 -10 -5q-17 0 -28 11q-2 30 -12 89q-12 48 -48 60q-33 11 -57 -1q25 -19 27 -51q3 -49 -31.5 -79t-86.5 -27q-24 1 -39.5 17.5t-12.5 41.5q4 32 44 69
q18 17 34 28q-15 6 -29 2q-23 -7 -42 -23zM110 132q-12 -7 -31 -26q-29 -29 -23 -56q5 -23 28 -26q22 -2 36.5 16.5t14.5 41.5q0 34 -25 50z" />
    <glyph glyph-name="Tha" unicode="&#xdae;" horiz-adv-x="384" 
d="M147 34q38 5 76 24q34 17 65 52t44 68q17 46 19 92q1 24 -5 60q-8 -20 -36 -35t-60 -15q-67 0 -90 64q-12 33 -12 73q0 42 11 75q21 64 66 64q48 0 101 -63q57 -69 64 -155q1 -17 1 -37q0 -97 -28 -153q-21 -42 -50 -71q-40 -40 -85 -58.5t-108 -21.5q-70 -3 -90.5 9
t-20.5 38q0 20 12 42q7 12 33.5 43t33.5 44q5 3 9 3q10 0 18 -20q6 -15 -10 -33q-6 -6 -28 -37q-18 -24 -4 -42q15 -18 74 -10zM334 368q-13 50 -45 93q-43 58 -65 62q-14 3 -22 -38q-7 -33 -6 -63q3 -83 47 -97q11 -4 23 -4q50 0 68 47z" />
    <glyph glyph-name="da" unicode="&#xdaf;" horiz-adv-x="194" 
d="M60 133q-19 3 -19 19q0 8 4 16q15 12 34 17.5t38 5.5q67 0 73 -47q2 -18 -17 -31q-5 -4 -50 -25q-21 -9 -41 -18q-32 -17 -27 -33q5 -15 91 -9q24 2 26 2q16 -2 16 -15t-18 -28q-26 -18 -74 -55q-72 -64 -64 -144q4 -46 33 -83q25 -33 59 -47q44 -19 93 -19q32 0 63 9
q45 12 77 42q50 47 56 119q5 58 -29 95q-4 4 -32 24q8 17 28 17q8 0 16 -3q14 -13 25 -30q21 -34 21 -87q0 -98 -65 -161.5t-178 -63.5q-31 0 -60 6q-49 11 -89 42.5t-52 72.5q-10 35 -10 66q0 91 82 160q15 13 80 56q-27 -5 -75 -5q-47 -1 -60 3q-22 6 -22 25q0 8 6 16
q22 31 97 63q43 18 43 32q0 3 -3 7q-6 9 -25 12q-33 5 -51 -23z" />
    <glyph glyph-name="dha" unicode="&#xdb0;" 
d="M122 23q-31 -25 -60 -25q-60 0 -60 47q0 30 29 76q36 56 58 68q5 1 12 1q29 0 29 -14q0 -4 -4 -8q-20 -18 -53 -54q-22 -34 -22 -51q0 -13 17 -23q3 -2 8 -2q22 0 35 28q34 71 61 67q19 -3 36 -56q14 -44 36 -44q27 0 63 67q26 49 38 90q19 66 19 135q0 82 -29 139
q-68 131 -204 131q-67 0 -115 -38q-40 -31 -41 -59q0 -5 -10 -2q-10 2 -18 12q-4 7 -4 16q0 44 65 77q52 26 103 29q132 8 211.5 -75.5t79.5 -224.5q0 -83 -27 -168q-17 -55 -53 -103.5t-67 -56.5q-18 -5 -31 -5q-26 0 -39 17q-10 12 -17.5 36t-8.5 26q-11 -20 -37 -53z" />
    <glyph glyph-name="na" unicode="&#xdb1;" horiz-adv-x="326" 
d="M43 158q-5 7 -5 14q0 9 7 16q37 3 71 -27q15 -14 29 -38q16 18 59 52q23 13 51 13q20 0 34 -8q27 -15 25 -65q-1 -46 -19 -87q-14 -31 -30 -45q-20 -6 -26 11q14 36 16 63q5 64 -18 77q-7 4 -14 4q-23 0 -63 -48q5 -29 -4 -49q-13 -29 -56 -41q-39 -11 -82 4
q-20 7 -10 28q29 -2 60 14q24 12 47 41q-15 35 -33 50q-8 7 -39 21z" />
    <glyph glyph-name="nda" unicode="&#xdb3;" horiz-adv-x="257" 
d="M132 181q5 2 14 5q18 5 37 5q67 0 73 -47q2 -18 -17 -31q-5 -4 -50 -25q-21 -9 -41 -18q-32 -17 -27 -33q5 -15 91 -9q24 2 26 2q16 -2 16 -15t-18 -28q-26 -18 -74 -55q-72 -64 -64 -144q4 -46 33 -83q25 -33 59 -47q44 -19 93 -19q46 0 88 16q37 15 54 35q49 57 54 119
q5 58 -29 95q-4 4 -32 24q8 17 28 17q8 0 16 -3q14 -13 25 -30q21 -34 21 -87q0 -98 -65 -161.5t-178 -63.5q-31 0 -60 6q-49 11 -89 42.5t-52 72.5q-10 35 -10 66q0 91 82 160q15 13 80 56q-27 -5 -75 -5q-47 -1 -60 3q-22 6 -22 25q0 8 6 16q22 31 97 63q43 18 43 32
q0 3 -3 7q-6 9 -25 12q-33 5 -51 -23q-13 3 -17 10q-16 6 -27 -2q-42 -31 -42 -78q0 -21 16 -55q-4 -14 -40 -13q-12 11 -12 51q0 31 9 55q23 62 75 83q26 10 44 -3z" />
    <glyph glyph-name="pa" unicode="&#xdb4;" horiz-adv-x="346" 
d="M15 126q-7 8 -7 24q0 12 4 19q18 23 69 26q60 4 60 -49q0 -11 -5 -31t-5 -30q0 -22 18 -34q14 -11 33 -11q52 0 78 43q6 10 19 55q10 36 23 45q8 5 21 5t17 -5q8 -12 3 -31q-3 0 -15 -9q-6 -5 -13 -24q-12 -31 -13 -33q-22 -46 -45 -65q-31 -27 -86 -26q-38 1 -63 21
t-21 57q5 19 11 52q2 29 -24 29q-31 0 -59 -28z" />
    <glyph glyph-name="pha" unicode="&#xdb5;" horiz-adv-x="384" 
d="M332 178q17 46 19 92q1 24 -5 60q-8 -20 -36 -35t-60 -15q-67 0 -90 64q-12 33 -12 73q0 42 11 75q21 64 66 64q48 0 101 -63q57 -69 64 -155q1 -17 1 -37q0 -97 -28 -153q-45 -88 -134 -129q-41 -19 -109 -22q-71 -3 -89.5 8.5t-18.5 26.5q0 18 23 34q22 11 45 22
q31 15 30 27q-2 22 -47 22q-14 0 -23 -4q-12 25 -12 28q0 12 17 20q14 6 28 6q13 0 28 -4q34 -10 50 -45q3 -6 3 -12q0 -29 -37 -52q-40 -25 -36 -30q10 -12 42 -12q11 0 24 2q39 6 76 24q34 17 65 52t44 68zM334 368q-13 50 -45 93q-43 58 -65 62q-14 3 -22 -38
q-7 -33 -6 -63q3 -83 47 -97q11 -4 23 -4q50 0 68 47z" />
    <glyph glyph-name="ba" unicode="&#xdb6;" 
d="M335 464q-68 131 -204 131q-67 0 -115 -38q-40 -31 -41 -59q0 -5 -10 -2q-10 2 -18 12q-4 7 -4 16q0 44 65 77q52 26 103 29q132 8 211.5 -75.5t79.5 -224.5q0 -83 -27 -168q-17 -55 -53 -103.5t-67 -56.5q-18 -5 -31 -5q-26 0 -39 17q-11 14 -26 48q-8 21 -15 41
q-11 24 -24 24q-5 0 -12 -4q-16 -10 -27.5 -42.5t-11.5 -61.5q0 -9 1 -16q-11 -9 -31 -9q-34 0 -32 16q4 39 27 79q21 36 43.5 52.5t48.5 16.5q35 0 49 -26q15 -33 30 -65q17 -36 36 -36q8 0 18 7q22 14 48 62q25 45 38 90q19 66 19 135q0 82 -29 139z" />
    <glyph glyph-name="bha" unicode="&#xdb7;" horiz-adv-x="326" 
d="M82 -4q-51 -1 -51 41q0 9 4.5 19.5t4.5 11.5q0 6 -16 8q-24 4 -25 5q-3 8 6 28q7 5 24 7q16 2 25 -1q12 4 33 20q4 5 4 9q0 12 -34 13q-23 1 -42 -2q-1 18 13 28q8 6 32 6q35 0 56 -7q27 -9 27 -34q0 -6 -2 -12q-10 -28 -56 -44q2 -3 2 -6q0 -2 -4.5 -13t-3.5 -19
q2 -15 18 -15q20 0 57 46q20 26 40 53q27 32 52 40q34 11 57 -9q19 -16 19 -57q0 -16 -3.5 -31t-11.5 -78q-6 -4 -18 -5q-15 -2 -22 5q-3 47 -1 58q6 44 -10 60q-5 5 -12 5q-14 0 -35 -24q-14 -19 -29 -38q-29 -37 -39 -46q-25 -21 -59 -22z" />
    <glyph glyph-name="ma" unicode="&#xdb8;" horiz-adv-x="387" 
d="M327 472q-55 104 -155 123q-19 4 -37 4q-66 0 -119 -42q-40 -31 -41 -59q0 -5 -10 -2q-10 2 -18 12q-4 7 -4 16q0 44 65 77q52 26 103 29q133 8 214 -72q77 -76 77 -215q0 -93 -45 -184q-47 -96 -150 -139q-54 -22 -125 -22q-39 0 -53 8q-20 13 -20 41q0 19 8 41
q16 42 51 81q18 20 49 20q21 0 39.5 -10.5t18.5 -39.5q0 -24 -18 -49q-22 -30 -68 -56q11 -3 25 -3q38 0 92 25q81 38 120 128q32 74 31 156q-1 78 -30 132zM46 50q15 1 36 15t32 29q14 19 14 26q0 19 -18 19q-22 0 -34 -21q-16 -28 -20 -36q-7 -17 -10 -32z" />
    <glyph glyph-name="mba" unicode="&#xdb9;" 
d="M78 113q27 -4 62 13q17 8 15 21q-1 8 -10 8q-30 0 -67 -42zM7 50q0 35 29.5 70t69.5 55q31 16 59 16q23 0 33 -14q7 -9 7 -19q0 -34 -54 -57t-87 -17q-10 -15 -10 -33q0 -17 12.5 -21t23.5 -4q25 0 38 17q2 12 12 34q26 35 78 35q19 0 30.5 -10t11.5 -22q0 -6 -4 -11
q-12 -14 -12 -25t10 -11q12 -1 29 12q45 34 66 145q14 73 14 127q0 83 -31 147q-63 131 -201 131q-67 0 -115 -38q-40 -31 -41 -59q0 -5 -10 -2q-10 2 -18 12q-4 7 -4 16q0 44 65 77q52 26 103 29q132 8 211 -75t79 -233q0 -80 -22 -161q-39 -143 -99 -159q-19 -5 -36 -5
q-51 0 -51 32q0 10 12 24t12 16q0 5 -19 4q-29 -2 -29 -15q0 -2 1 -8.5t1 -10.5q0 -10 -6 -19q-16 -22 -87 -22q-39 0 -55 14.5t-16 37.5z" />
    <glyph glyph-name="ya" unicode="&#xdba;" horiz-adv-x="356" 
d="M22 186q13 7 25 7q10 0 17 -5q10 -19 8 -56q-3 -60 -18 -114q25 11 42 37q6 9 29 55q3 11 16 38q2 3 8 3q17 0 34.5 -15t26 -44.5t20.5 -73.5q22 8 31 56q6 36 13 72q10 27 27.5 43t35.5 16q6 0 11 -1q12 -3 22 -32q-18 -10 -30 -24q-15 -18 -26 -49q-9 -26 -18 -53
q-13 -38 -40 -50q-12 -5 -36 -3q-25 2 -32 11q-10 13 -17 48t-18 44q-22 -47 -44 -72q-25 -30 -59 -30q-33 0 -40 12q-5 8 -5 20q0 13 8 49t9 55q1 47 0 56z" />
    <glyph glyph-name="ra" unicode="&#xdbb;" horiz-adv-x="253" 
d="M181 594q23 9 41 -2q1 -24 -48.5 -143t-113.5 -280q40 26 95 26q27 0 45 -8.5t30 -28.5q14 -23 14 -48q0 -16 -6 -31q-32 -82 -139 -84q-95 -2 -95 87q0 25 8 57q12 49 58 161q30 72 61 145q44 111 50 149zM49 131q-4 -19 -4 -35q0 -66 62 -68q48 -2 75 34q14 18 14 39
q0 55 -58 55q-56 0 -79 -38q-4 1 -6.5 7.5t-3.5 5.5z" />
    <glyph glyph-name="la" unicode="&#xdbd;" horiz-adv-x="355" 
d="M252 102q-10 -23 -10 -40q0 -19 14 -22q23 -5 41 21q14 22 14 47q0 54 -67 54q-81 0 -147 -71q-60 -65 -76 -149q-8 -40 -8 -76q0 -120 82 -174q45 -30 113 -30q98 0 154 50q72 64 72 166q0 19 -4 34q10 28 31 28q6 0 11 -2q6 -16 6 -40q0 -83 -40 -142
q-87 -128 -248 -128q-49 0 -92 16q-76 29 -107 94q-28 58 -24 136q6 126 84 216q66 76 159 92q21 4 40 4q96 0 96 -78q0 -15 -4 -34q-7 -31 -37 -54t-61 -23q-48 0 -48 44q0 31 16 53q7 11 23 11q8 0 17 -3z" />
    <glyph glyph-name="va" unicode="&#xdc0;" horiz-adv-x="389" 
d="M327 472q-56 104 -155 123q-19 4 -37 4q-66 0 -119 -42q-40 -31 -41 -59q0 -5 -10 -2q-10 2 -18 12q-4 7 -4 16q0 44 65 77q52 26 103 29q133 8 214 -72q77 -76 77 -217q0 -97 -45 -182q-52 -98 -150 -139q-54 -22 -125 -22q-39 0 -53 8q-17 11 -17 26q0 18 23 34
q22 11 45 22q31 15 30 27q-2 22 -47 22q-14 0 -23 -4q-12 25 -12 28q0 12 17 20q14 6 28 6q13 0 28 -4q34 -10 50 -45q3 -6 3 -12q0 -29 -37 -52q-40 -25 -36 -30q10 -13 36 -13q36 0 93 27q72 34 113 120q36 77 34 164q-1 76 -30 130z" />
    <glyph glyph-name="sha" unicode="&#xdc1;" horiz-adv-x="326" 
d="M72 202q36 7 41 -3q-25 -24 -46 -61q-14 -25 -14 -61q0 -39 24 -41q14 -1 29 16q11 16 23 32q34 46 48 60q34 33 68 30q49 -5 67 -62q6 -20 6 -46q0 -49 -15 -64q-7 -7 -35 -7q-76 0 -86 22q-3 6 -3 13q0 40 74 84q-8 10 -19 10q-30 0 -76 -60q-29 -38 -40 -47
q-26 -22 -58 -20q-27 2 -42 23.5t-15 53.5q0 18 5 37q19 64 64 91zM268 90q-14 -8 -39 -29q-18 -19 -1 -33q6 -4 15 -4q31 0 34 27q3 24 -9 39z" />
    <glyph glyph-name="Sha" unicode="&#xdc2;" horiz-adv-x="346" 
d="M15 126q-7 8 -7 24q0 12 4 19q18 23 69 26q61 4 61 -50q0 -10 -7 -40q-5 -25 -3 -36q4 -16 27 -25q21 48 57 83q46 44 82 57q30 11 38 -1q9 -15 -1 -44q-8 -23 -26 -53q-30 -50 -59 -67q-37 -21 -60 -21q-13 -24 -16 -55q-9 -4 -20 -9q-10 -3 -11 27q0 24 4 39
q-8 0 -35 13q-29 22 -25 60q5 19 11 52q2 29 -24 29q-31 0 -59 -28zM205 44q40 8 73 63q7 11 16 36q1 3 -2 3q-13 0 -39 -32q-13 -15 -25 -31q-15 -19 -23 -39z" />
    <glyph glyph-name="sa" unicode="&#xdc3;" horiz-adv-x="353" 
d="M42 150q5 18 7 23q6 9 20 12q18 4 36 4q59 0 59 -34q0 -31 -52 -53q-17 -7 -39 -13q8 -6 8 -21q0 -5 -1 -13.5t-1 -11.5q0 -11 10 -10q18 2 42 41q10 17 30 30q8 6 17 6q13 0 24 -14q7 -9 18 -36q5 -13 9 -27q4 -10 11 -15q22 8 29 56q12 70 12 71q23 64 69 58
q9 -1 12 -11l6 -20q-12 -6 -25 -22t-22 -49q-8 -28 -15 -55q-13 -38 -40 -50q-12 -5 -32 -3q-21 2 -28 11q-10 13 -20 38q-7 20 -15 24q-28 -33 -41 -46q-27 -26 -62 -26q-27 0 -34 16q-4 8 -2 33q1 18 1 21q-1 12 -11 12q-14 -1 -20.5 5.5t-2.5 18.5q3 11 10 18q13 -3 48 3
q39 6 48 19q3 4 3 7q0 9 -21 9q-18 0 -45 -6z" />
    <glyph glyph-name="ha" unicode="&#xdc4;" horiz-adv-x="326" 
d="M15 155q-1 18 13 28q10 7 31 7q28 0 38.5 -10.5t10.5 -25.5q0 -10 -6 -18q-15 -17 -31 -35q-21 -24 -21 -39q0 -23 27 -23q29 0 64 44q44 54 44 55q31 33 61 40q33 8 52 -8.5t19 -57.5q0 -16 -4 -32q-7 -26 -17 -77q-21 -14 -36 0q-3 47 -1 58q6 41 -13 60q-5 5 -12 5
q-14 0 -36 -24q-14 -19 -29 -38q-53 -68 -114 -68q-59 0 -50 52q4 21 21 44q13 15 26 31q6 8 6 15q0 24 -43 17z" />
    <glyph glyph-name="La" unicode="&#xdc5;" horiz-adv-x="350" 
d="M327 116q-30 -28 -91 -54q-66 -28 -75 -31q22 -16 66 -16q61 0 102 45q14 -26 14 -29q0 -21 -47 -37q-39 -14 -64 -14q-79 0 -117 30q-34 -15 -65 -51q-36 -42 -40 -91q-10 -117 80 -176q45 -30 115 -30q101 0 157 50q72 64 72 166q0 19 -4 34q10 28 31 28q6 0 11 -2
q6 -16 6 -40q0 -83 -40 -142q-86 -126 -247 -126q-49 0 -99 14q-60 17 -95 71q-34 50 -36 118q-1 23 3 44q12 69 59 114q37 35 69 50q-10 18 -10 46q0 26 8 42q20 42 50 46q16 2 42.5 -11t37.5 -10q24 15 38 27q23 18 45 18q19 0 31.5 -12t12.5 -30q0 -22 -20 -41zM137 59
q35 11 93 34q32 12 57 33q12 10 12 19q0 13 -15 13q-6 0 -27 -21t-40 -22q-13 -1 -30 11t-32 11q-9 -1 -16.5 -15t-7.5 -33q0 -16 6 -30z" />
    <glyph glyph-name="fa" unicode="&#xdc6;" horiz-adv-x="356" 
d="M8 6q-4 30 6 69q22 84 52 111q14 12 46 12q34 0 43 -30t6 -78q13 8 40 46.5t45 51.5q12 9 38 11q25 2 34 -3q23 -13 20 -49t-5 -47q-3 -22 -11 -45q-7 -26 -21 -60q-4 -2 -10 -2q-12 0 -21.5 7t-7.5 17q3 14 19 57q12 33 12 62t-13 38q-26 -30 -62 -74q-29 -38 -50 -59
t-38 -21q-13 0 -13 21q0 -11 6 41q4 34 4 45q0 35 -23 47q-25 -24 -44 -114q-8 -37 -10 -61q-8 -4 -16 -4q-14 0 -26 11z" />
    <glyph glyph-name="al" unicode="&#xdca;" horiz-adv-x="2" 
d="M40 671q0 -1 -22 -184q-36 -300 -31 -340q0 -3 -3 -3q-7 0 -17 6t-11 11q-4 18 4 126.5t26 263.5q7 64 16 122q26 9 22 9q9 0 16 -11z" />
    <glyph glyph-name="aa" unicode="&#xdcf;" horiz-adv-x="135" 
d="M-11 86q-16 14 -14 33q20 29 52 45q29 15 51 12q61 -9 54 -90q-4 -50 -58 -108q-29 -31 -56 -41q-5 -2 -8 -2q-11 0 -5 22q23 20 29 26q21 23 36 54q11 24 11 49q0 43 -30 43q-39 0 -62 -43z" />
    <glyph glyph-name="ae" unicode="&#xdd0;" horiz-adv-x="82" 
d="M-35 95q-1 43 20 39q20 4 43 0q28 -4 36 -17.5t8 -29.5q0 -17 -28 -91q-21 -55 -21 -110q0 -32 8 -51q21 -50 68 -42q26 4 56 22q18 10 35 20q11 -9 11 -22q0 -8 -5 -17q-15 -13 -51.5 -24.5t-58.5 -13.5q-41 -3 -63 11q-42 28 -42 96q0 56 27 131q25 69 25 84
q0 8 -3 12.5t-32 2.5q-30 -3 -33 0z" />
    <glyph glyph-name="aee" unicode="&#xdd1;" horiz-adv-x="76" 
d="M-35 95q-1 43 20 39q20 4 43 0q28 -4 37 -19q6 -9 6 -22q0 -19 -11 -33q-36 -46 -28 -52q2 -2 18 -2q20 0 21 -10q0 -7 -20 -45q-16 -31 -20 -49q-9 -46 0 -67q21 -50 68 -42q26 4 56 22q18 10 35 20q11 -9 11 -22q0 -8 -5 -17q-15 -13 -51.5 -24.5t-58.5 -13.5
q-41 -3 -63 11q-40 26 -40 77q0 14 3 36t20 57q5 10 16 30q2 3 2 5q0 1 -16 4.5t-16 17.5q0 26 23 57q16 22 16 36q0 2 -2 5t-31 1q-30 -3 -33 0z" />
    <glyph glyph-name="i" unicode="&#xdd2;" horiz-adv-x="2" 
d="M-25 212q-30 -8 -32 12q18 13 32 54q16 47 12 98q-6 68 -57 85q-14 5 -29 5q-54 0 -106.5 -56.5t-52.5 -130.5q0 -42 24 -45q15 -2 27 10q10 -7 10 -20q0 -11 -8 -24q-17 -8 -23 -9q-9 -1 -27 5q-36 13 -36 79q0 73 44 131q73 96 172 92q70 -3 98 -68q11 -25 11 -57
q0 -48 -21 -95q-18 -40 -38 -66z" />
    <glyph glyph-name="ii" unicode="&#xdd3;" horiz-adv-x="2" 
d="M-94 195q-41 8 -41 66q0 44 17.5 79.5t47.5 56.5q23 17 41 19q-10 34 -45 45q-9 3 -21 3q-60 0 -109 -53q-54 -58 -54 -132q0 -41 24 -44q16 -2 27 9q10 -7 10 -20q0 -11 -8 -24q-17 -8 -23 -9q-9 -1 -27 5q-36 13 -36 77q0 72 44 133q69 96 167 92q70 -3 94 -68
q14 7 17 2q7 -21 -8 -35q1 -12 1 -25q0 -48 -15 -94q-18 -52 -45.5 -70.5t-57.5 -12.5zM-19 379l-34 -16q-22 -12 -32 -30q-15 -26 -15 -59q0 -42 25 -46q39 -6 52 58q10 47 4 93z" />
    <glyph glyph-name="u" unicode="&#xdd4;" horiz-adv-x="2" 
d="M-24 173q4 -7 4 -32q0 -42 -12 -142l-16 -130q-18 -169 -60 -185q-32 -12 -70 -12q-42 0 -90 13q-53 14 -80 37q8 22 19 26q51 -20 83 -27t62 -7q46 0 62 16q13 13 17 37q11 101 16 173q0 3 7 81q6 63 11 82q37 59 47 70z" />
    <glyph glyph-name="uu" unicode="&#xdd6;" horiz-adv-x="2" 
d="M-98 -248q4 34 5 90q2 64 4 98q6 119 18 163q37 59 47 70q4 -7 4 -28q0 -38 -14 -141q-15 -118 -16 -133q-3 -51 -6 -101q-4 -73 -8 -86q-16 -10 -23 -6q-8 4 -17 25t-25 24q-20 4 -50 -19q-38 -28 -61 -34q-14 -4 -29 -4q-59 0 -69 43q-2 8 -2 17q0 55 68 85
q18 -8 22 -18q-41 -13 -41 -53q0 -34 38 -34q20 0 65 30.5t64 29.5q11 -1 17 -6q3 -3 9 -12z" />
    <glyph glyph-name="gp" unicode="&#xdd8;" horiz-adv-x="135" 
d="M58 134q-17 0 -37.5 -14t-31.5 -34q-16 14 -14 33q20 29 52 45q29 15 51 12q59 -9 54 -90q-2 -34 -17 -67q-8 -17 -15 -21q-7 7 -17 7q-7 0 -19 -4.5t-16 -4.5q-20 -2 -34 11.5t-12 38.5q3 34 46 52q23 10 39 10q-10 26 -29 26zM47 48q-1 -19 14 -19q4 0 15 3q9 2 11 0
q8 10 5 51q-43 -7 -45 -35z" />
    <glyph glyph-name="e" unicode="&#xdd9;" horiz-adv-x="320" 
d="M138 118q1 9 4 16q7 17 22 20q26 5 52 -12.5t26 -48.5q0 -14 -6 -29q-29 -68 -124 -70q-61 -1 -90 32q-19 21 -19 57q0 54 40 98q37 42 91 57q21 6 46 6q105 0 146 -78q13 -25 10 -34q-4 -11 -15.5 -17t-22.5 -3q-3 75 -66 98q-21 8 -43 8q-68 0 -111 -62
q-22 -31 -22 -65q0 -53 48 -65q10 -3 21 -3q24 0 49.5 17t25.5 40q0 17 -20.5 28.5t-41.5 9.5z" />
    <glyph glyph-name="ee" unicode="&#xdda;" horiz-adv-x="2" 
d="M40 671q0 -1 -22 -184q-36 -300 -31 -340q0 -3 -3 -3q-7 0 -17 6t-11 11q-4 18 4 126.5t26 263.5q7 64 16 122q26 9 22 9q9 0 16 -11z" />
    <glyph glyph-name="ei" unicode="&#xddb;" horiz-adv-x="642" 
d="M138 118q1 9 4 16q7 17 22 20q26 5 52 -12.5t26 -48.5q0 -14 -6 -29q-29 -68 -124 -70q-61 -1 -90 32q-19 21 -19 57q0 54 40 98q37 42 91 57q21 6 46 6q105 0 146 -78q13 -25 10 -34q-4 -11 -15.5 -17t-22.5 -3q-3 75 -66 98q-21 8 -43 8q-68 0 -111 -62
q-22 -31 -22 -65q0 -53 48 -65q10 -3 21 -3q24 0 49.5 17t25.5 40q0 17 -20.5 28.5t-41.5 9.5zM460 118q1 9 4 16q7 17 22 20q26 5 52 -12.5t26 -48.5q0 -14 -6 -29q-29 -68 -124 -70q-61 -1 -90 32q-19 21 -19 57q0 54 40 98q37 42 91 57q21 6 46 6q105 0 146 -78
q13 -25 10 -34q-4 -11 -15.5 -17t-22.5 -3q-3 75 -66 98q-21 8 -43 8q-68 0 -111 -62q-22 -31 -22 -65q0 -53 48 -65q10 -3 21 -3q24 0 49.5 17t25.5 40q0 17 -20.5 28.5t-41.5 9.5z" />
    <glyph glyph-name="o" unicode="&#xddc;" horiz-adv-x="135" 
d="M-11 86q-16 14 -14 33q20 29 52 45q29 15 51 12q61 -9 54 -90q-4 -50 -58 -108q-29 -31 -56 -41q-5 -2 -8 -2q-11 0 -5 22q23 20 29 26q21 23 36 54q11 24 11 49q0 43 -30 43q-39 0 -62 -43z" />
    <glyph glyph-name="oo" unicode="&#xddd;" horiz-adv-x="135" 
d="M-11 86q-16 14 -14 33q20 29 52 45q29 15 51 12q61 -9 54 -90q-4 -50 -58 -108q-29 -31 -56 -41q-5 -2 -8 -2q-11 0 -5 22q23 20 29 26q21 23 36 54q11 24 11 49q0 43 -30 43q-39 0 -62 -43zM170 671q0 -1 -22 -184q-36 -300 -31 -340q0 -3 -3 -3q-7 0 -17 6t-11 11
q-4 18 4 126.5t26 263.5q7 64 16 122q26 9 22 9q9 0 16 -11z" />
    <glyph glyph-name="ou" unicode="&#xdde;" horiz-adv-x="215" 
d="M76 189q9 -6 21 -24q-18 -8 -35 -16q-19 -11 -18 -26q1 -10 11 -10q15 0 30.5 15.5l30.5 30.5q28 24 54 22q14 -1 26 -16.5t12 -38.5q0 -30 -21 -59t-55 -50.5t-62 -27.5q-47 -9 -57 -6q-3 22 8 33q4 4 32 9q33 5 47 11q61 26 61 77q0 22 -14 22q-4 0 -9 -3
q-23 -20 -46 -39q-29 -25 -60 -20q-25 4 -25 39q0 40 28 61q18 13 41 16z" />
    <glyph glyph-name="gk" unicode="&#xddf;" horiz-adv-x="215" 
d="M76 189q9 -6 21 -24q-18 -8 -35 -16q-19 -11 -18 -26q1 -10 11 -10q15 0 30.5 15.5l30.5 30.5q28 24 54 22q14 -1 26 -16.5t12 -38.5q0 -30 -21 -59t-55 -50.5t-62 -27.5q-47 -9 -57 -6q-3 22 8 33q4 4 32 9q33 5 47 11q61 26 61 77q0 22 -14 22q-4 0 -9 -3
q-23 -20 -46 -39q-29 -25 -60 -20q-25 4 -25 39q0 40 28 61q18 13 41 16z" />
    <glyph glyph-name="dgp" unicode="&#xdf2;" horiz-adv-x="135" 
d="M58 134q-17 0 -37.5 -14t-31.5 -34q-16 14 -14 33q20 29 52 45q29 15 51 12q59 -9 54 -90q-2 -34 -17 -67q-8 -17 -15 -21q-7 7 -17 7q-7 0 -19 -4.5t-16 -4.5q-20 -2 -34 11.5t-12 38.5q3 34 46 52q23 10 39 10q-10 26 -29 26zM47 48q-1 -19 14 -19q4 0 15 3q9 2 11 0
q8 10 5 51q-43 -7 -45 -35z" />
    <glyph glyph-name="dgk" unicode="&#xdf3;" horiz-adv-x="215" 
d="M76 189q9 -6 21 -24q-18 -8 -35 -16q-19 -11 -18 -26q1 -10 11 -10q15 0 30.5 15.5l30.5 30.5q28 24 54 22q14 -1 26 -16.5t12 -38.5q0 -30 -21 -59t-55 -50.5t-62 -27.5q-47 -9 -57 -6q-3 22 22 69h38l27 -16q61 26 61 77q0 22 -14 22q-4 0 -9 -3q-23 -20 -46 -39
q-29 -25 -60 -20q-25 4 -25 39q0 40 28 61q18 13 41 16z" />
    <glyph glyph-name="kundaliya" unicode="&#xdf4;" horiz-adv-x="1760" 
d="M108 28q7 -7 17 -7q6 0 39 13q20 8 70 48q47 38 67 42q32 7 46 -18l78 138l34 -98l125 167l30 -121l136 157l30 -149l147 168l14 -190l172 159l-24 -189l168 108l-34 -142l145 92l-32 -100q15 13 32 13q34 0 64 -45q15 -22 43.5 -39t57.5 -17q13 0 25 4q-15 23 -15 45
q0 45 49 47q23 1 38.5 -14.5t13.5 -39.5q-4 -69 -118 -64q-49 2 -100 46q-49 41 -72 40q-27 -1 -49 -14q-15 -11 -31 -22l26 90l-149 -92l30 136l-156 -103l18 166l-158 -149l-14 176l-135 -148l-30 145l-132 -149l-28 111l-113 -149l-30 86l-62 -110q-20 34 -38 34
q-4 0 -8 -2q-43 -26 -85 -52q-62 -38 -100 -40q-24 -2 -46 14t-30 38q-3 8 -3 20q0 58 51 56q17 -1 31 -18.5t14 -38.5q0 -24 -19 -39z" />
    <glyph glyph-name="zwj" unicode="&#x200d;" horiz-adv-x="204" 
 />
    <glyph glyph-name="hyphen" unicode="&#x2010;" horiz-adv-x="246" 
d="M35 147q25 6 83 8q37 1 102 -8q-5 -41 -46 -41q-78 9 -73 9q-38 0 -80 -13q-2 7 -2 14q0 21 16 31z" />
    <glyph glyph-name="dash_en" unicode="&#x2013;" horiz-adv-x="464" 
d="M43 234h370v-47h-370v47z" />
    <glyph glyph-name="quoteleft" unicode="&#x2018;" horiz-adv-x="154" 
d="M74 386q-6 -18 -6 -36q0 -32 16 -70q-22 -14 -42 -10q-20 23 -20 56q0 41 18 56q7 8 18 8q8 0 16 -4z" />
    <glyph glyph-name="quoteright" unicode="&#x2019;" horiz-adv-x="154" 
d="M69 272q6 18 6 36q0 32 -16 70q22 14 42 10q20 -23 20 -56q0 -41 -18 -56q-7 -8 -18 -8q-8 0 -16 4z" />
    <glyph glyph-name="dblquote_left" unicode="&#x201c;" horiz-adv-x="195" 
d="M74 386q-6 -18 -6 -36q0 -32 16 -70q-22 -14 -42 -10q-20 23 -20 56q0 41 18 56q7 8 18 8q8 0 16 -4zM144 386q-6 -18 -6 -36q0 -32 16 -70q-22 -14 -42 -10q-20 23 -20 56q0 41 18 56q7 8 18 8q8 0 16 -4z" />
    <glyph glyph-name="dblquote_right" unicode="&#x201d;" horiz-adv-x="195" 
d="M118 270q6 18 6 36q0 32 -16 70q22 14 42 10q20 -23 20 -56q0 -41 -18 -56q-7 -8 -18 -8q-8 0 -16 4zM48 270q6 18 6 36q0 32 -16 70q22 14 42 10q20 -23 20 -56q0 -41 -18 -56q-7 -8 -18 -8q-8 0 -16 4z" />
    <glyph glyph-name="bullet" unicode="&#x2022;" horiz-adv-x="346" 
d="M230 414q26 -23 26 -59q0 -38 -25.5 -62.5t-63.5 -24.5q-37 0 -62 25t-25 62q0 35 24.5 59.5t59.5 25.5q36 1 66 -26z" />
    <glyph glyph-name="dottedcircle" unicode="&#x25cc;" horiz-adv-x="204" 
 />
    <glyph glyph-name="ra.i" horiz-adv-x="253" 
d="M203 462q20 8 39 -4q1 -22 -52 -101q-56 -76 -128 -188q40 26 93 26q27 0 45 -8.5t30 -28.5q14 -23 14 -48q0 -16 -6 -31q-32 -82 -139 -84q-96 -2 -96 85q0 27 9 59q7 24 49 99q23 32 64 95q-11 -6 -26 -6q-23 0 -46 12t-32.5 30t-9.5 52q0 62 39 100q47 47 101 47
q16 0 37 -6q18 -5 18 -30q0 -10 -6 -20q-30 11 -52 11q-54 0 -84 -56q-15 -27 -15 -52q0 -29 17.5 -45.5t42.5 -12.5q35 6 62 42q15 22 32 63zM49 131q-4 -19 -4 -35q0 -66 62 -68q48 -2 75 34q14 18 14 39q0 55 -58 55q-56 0 -79 -38q-4 1 -6.5 7.5t-3.5 5.5z" />
    <glyph glyph-name="ra.ii" horiz-adv-x="253" 
d="M203 462q20 8 39 -4q1 -22 -52 -101q-56 -76 -128 -188q40 26 93 26q27 0 45 -8.5t30 -28.5q14 -23 14 -48q0 -16 -6 -31q-32 -82 -139 -84q-96 -2 -96 85q0 27 9 59q7 24 49 99q23 32 64 95q-11 -6 -26 -6q-23 0 -46 12t-32.5 30t-9.5 52q0 62 39 100q49 48 102 48
q20 0 36 -7q27 -12 27 -52q0 -33 -23 -54q-31 -29 -67 -29q-41 0 -61 40q-15 -27 -15 -52q0 -29 17.5 -45.5t42.5 -12.5q35 6 62 42q15 22 32 63zM49 131q-4 -19 -4 -35q0 -66 62 -68q48 -2 75 34q14 18 14 39q0 55 -58 55q-56 0 -79 -38q-4 1 -6.5 7.5t-3.5 5.5zM96 504
q-1 -19 11.5 -33t30.5 -13q15 1 25 13.5t10 27.5q0 29 -27 29q-28 0 -50 -24z" />
    <glyph glyph-name="ra.ae" horiz-adv-x="349" 
d="M261 587q8 3 14 3q8 0 18 -11q8 -54 1 -143q-14 -183 -13 -241q1 -67 18 -106.5t44 -37.5q4 -6 5 -13q1 -5 -0.5 -12t-1.5 -8q-18 -6 -30 -6q-30 0 -49 36q-27 53 -19 236q10 230 10 236q-16 -27 -44 -80q-67 -115 -154 -271q40 26 95 26q27 0 45 -8.5t30 -28.5
q14 -23 14 -48q0 -16 -6 -31q-32 -82 -139 -84q-95 -2 -95 87q0 25 8 57q12 49 75 157l84 140q41 67 90 151zM49 131q-4 -19 -4 -35q0 -66 62 -68q48 -2 75 34q14 18 14 39q0 55 -58 55q-56 0 -79 -38q-4 1 -6.5 7.5t-3.5 5.5z" />
    <glyph glyph-name="ra.aee" horiz-adv-x="349" 
d="M261 587q8 3 14 3q8 0 18 -11q-3 -12 -5 -46q-2 -40 2 -59q10 -6 30 -7q16 -1 19 -6q7 -12 2 -28q0 -3 -39 -41.5t-34 -54.5q3 -11 29 -14l40 -4q16 -18 7 -29q-13 -16 -25 -31q-12 -18 -20 -44q-9 -31 -9 -62q0 -44 16 -74t37 -28q4 -6 5 -13q1 -5 -0.5 -12t-1.5 -8
q-18 -6 -30 -6q-31 0 -49 36q-17 33 -17 90q0 37 10 69.5t38 77.5h-38q-25 -1 -35 14q-5 7 -5 16q0 26 34 68q22 28 42 45q-11 -2 -25 1.5t-16 11.5q-10 40 -3 64q-13 -20 -38 -65q-67 -115 -154 -271q40 26 95 26q27 0 45 -8.5t30 -28.5q14 -23 14 -48q0 -16 -6 -31
q-32 -82 -139 -84q-95 -2 -95 87q0 25 8 57q12 49 75 157l84 140q41 67 90 151zM49 131q-4 -19 -4 -35q0 -66 62 -68q48 -2 75 34q14 18 14 39q0 55 -58 55q-56 0 -79 -38q-4 1 -6.5 7.5t-3.5 5.5z" />
    <glyph glyph-name="da.aa" horiz-adv-x="364" 
d="M60 133q-19 3 -19 19q0 8 4 16q15 12 34 17.5t38 5.5q67 0 73 -47q2 -18 -17 -31q-5 -4 -50 -25q-21 -9 -41 -18q-32 -17 -27 -33q5 -15 91 -9q24 2 26 2q16 -2 16 -15t-18 -28q-26 -18 -74 -55q-72 -64 -64 -144q4 -46 33 -83q25 -33 59 -47q44 -19 93 -19q32 0 63 9
q45 12 77 42q50 47 56 119q5 58 -29 95q-4 4 -32 24q8 17 28 17q8 0 16 -3q14 -13 25 -30q21 -34 21 -87q0 -98 -65 -161.5t-178 -63.5q-31 0 -60 6q-49 11 -89 42.5t-52 72.5q-10 35 -10 66q0 91 82 160q15 13 80 56q-27 -5 -75 -5q-47 -1 -60 3q-22 6 -22 25q0 8 6 16
q22 31 97 63q43 18 43 32q0 3 -3 7q-6 9 -25 12q-33 5 -51 -23zM209 86q-16 14 -14 33q20 29 52 45q29 15 51 12q61 -9 54 -90q-4 -50 -58 -108q-29 -31 -56 -41q-5 -2 -8 -2q-11 0 -5 22q23 20 29 26q21 23 36 54q11 24 11 49q0 43 -30 43q-39 0 -62 -43z" />
    <glyph glyph-name="da.ae" horiz-adv-x="194" 
d="M135 -38q-27 -19 -39 -30q-60 -54 -60 -144q0 -56 40 -104q41 -51 88 -44q13 2 13 -14q0 -12 -16 -14q-10 -2 -20 -2q-45 0 -88 35.5t-55 75.5q-10 35 -10 66q0 91 82 160q15 13 80 56q-27 -5 -75 -5q-47 -1 -60 3q-22 6 -22 25q0 8 6 16q22 31 97 63q43 18 43 32
q0 3 -3 7q-6 9 -25 12q-33 5 -51 -23q-19 3 -19 19q0 8 4 16q15 12 34 17.5t38 5.5q67 0 73 -47q2 -18 -17 -31q-5 -4 -50 -25q-21 -9 -41 -18q-32 -17 -27 -33q5 -15 91 -9q24 2 26 2q16 -2 16 -15q0 -12 -18 -28q-1 -1 -3 -2q-26 -65 -29 -105q-6 -88 13.5 -134t69.5 -67
q15 -6 35 -6q54 0 72 28q6 -13 6 -18q0 -6 -8 -21q-28 -29 -79 -29q-16 0 -29 3q-51 12 -81 55q-36 52 -36 130q0 34 7 66t27 75z" />
    <glyph glyph-name="da.aee" horiz-adv-x="194" 
d="M152 -28q20 -5 31 -17q5 -5 5 -11t-20 -26q-12 -10 -24.5 -21.5t-9.5 -13.5q2 -1 25 -1q19 0 20 -9q1 -11 -24 -48q-8 -12 -14 -30q-11 -33 2 -64q18 -42 64 -40q26 1 34 7t14 11q11 -9 11 -22q0 -8 -5 -17q-29 -14 -67 -14q-35 0 -62 17q-41 26 -41 74q0 14 4 27
q5 17 14 36q23 45 23 40q0 3 -19 4.5t-19 16.5q0 10 9.5 20t19.5 20q24 26 20 32q-3 4 -31 1q-76 -58 -76 -157q0 -56 40 -104q41 -51 88 -44q13 2 13 -14q0 -12 -16 -14q-10 -2 -20 -2q-45 0 -88 35.5t-55 75.5q-10 35 -10 66q0 91 82 160q15 13 80 56q-27 -5 -75 -5
q-47 -1 -60 3q-22 6 -22 25q0 8 6 16q22 31 97 63q43 18 43 32q0 3 -3 7q-6 9 -25 12q-33 5 -51 -23q-19 3 -19 19q0 8 4 16q15 12 34 17.5t38 5.5q67 0 73 -47q2 -18 -17 -31q-5 -4 -50 -25q-21 -9 -41 -18q-32 -17 -27 -33q5 -15 91 -9q24 2 26 2q16 -2 16 -15
q0 -12 -18 -28q-9 -8 -18 -14z" />
    <glyph glyph-name="da.u" horiz-adv-x="199" 
d="M55 37q3 -9 40 -12q48 -3 54 -5q21 -6 24 -18q13 -46 -9 -192q-17 -114 -54 -128q-41 -15 -86 -5q-56 13 -90 42q8 22 19 26q64 -25 72 -27q25 -6 41 -6q25 0 39 18q9 12 14 35q13 60 13 169q0 36 -5 44q-8 13 -55 18q-28 2 -56 5q-22 7 -22 26q0 8 5 15q22 31 97 63
q48 21 48 33q0 13 -33 18t-51 -23q-19 3 -19 19q0 8 4 16q15 12 34 17.5t39 5.5q72 0 78 -47q2 -18 -20 -31q-27 -13 -53 -25q-21 -9 -41 -18q-32 -17 -27 -33z" />
    <glyph glyph-name="da.uu" horiz-adv-x="199" 
d="M173 2q2 -17 -1 -131q-4 -157 -13 -187q-16 -10 -23 -6q-9 4 -18 27t-13 23q-1 0 -29.5 -24.5t-43 -29.5t-27.5 -5q-41 0 -51 44q-2 8 -2 17q0 55 68 85q18 -8 22 -18q-21 -8 -35 -26.5t-14 -36.5q0 -19 16 -26q7 -3 13 -3q10 0 20.5 11.5t20.5 23.5q8 9 17.5 19t20.5 11
q17 2 30 -14l2 83q1 41 1 92q0 36 -7.5 48t-54.5 17q-28 2 -56 5q-23 7 -23 26q0 21 41 47q20 13 62 31q48 21 48 33q0 13 -33 18t-51 -23q-19 3 -19 19q0 8 4 16q15 12 34 17.5t39 5.5q72 0 78 -47q2 -18 -20 -31q-27 -13 -53 -25q-21 -9 -41 -18q-32 -17 -27 -33
q3 -9 40 -12q48 -3 54 -5q23 -7 24 -18z" />
    <glyph glyph-name="da.oo" horiz-adv-x="364" 
d="M391 671q0 -1 -22 -184q-31 -257 -31 -331q18 -23 14 -70q-4 -50 -58 -108q-29 -31 -56 -41q-5 -2 -8 -2q-11 0 -5 22q23 20 29 26q21 23 36 54q11 24 11 49q0 43 -30 43q-39 0 -62 -43q-16 14 -14 33q20 29 52 45q29 15 51 12l8 -2q0 40 5 112q8 110 26 265q7 64 16 122
q26 9 22 9q9 0 16 -11zM60 133q-19 3 -19 19q0 8 4 16q15 12 34 17.5t38 5.5q67 0 73 -47q2 -18 -17 -31q-5 -4 -50 -25q-21 -9 -41 -18q-32 -17 -27 -33q5 -15 91 -9q24 2 26 2q16 -2 16 -15t-18 -28q-26 -18 -74 -55q-72 -64 -64 -144q4 -46 33 -83q25 -33 59 -47
q44 -19 93 -19q32 0 63 9q45 12 77 42q50 47 56 119q5 58 -29 95q-4 4 -32 24q8 17 28 17q8 0 16 -3q14 -13 25 -30q21 -34 21 -87q0 -98 -65 -161.5t-178 -63.5q-31 0 -60 6q-49 11 -89 42.5t-52 72.5q-10 35 -10 66q0 91 82 160q15 13 80 56q-27 -5 -75 -5q-47 -1 -60 3
q-22 6 -22 25q0 8 6 16q22 31 97 63q43 18 43 32q0 3 -3 7q-6 9 -25 12q-33 5 -51 -23z" />
    <glyph glyph-name="da.i" horiz-adv-x="194" 
d="M91 188q13 3 27 3q65 0 72 -47q3 -18 -17 -31q-5 -4 -50 -25q-21 -9 -41 -18q-32 -17 -27 -33q5 -15 91 -9q24 2 26 2q16 -2 16 -15t-18 -28q-26 -18 -74 -55q-72 -64 -64 -144q4 -46 33 -83q25 -33 59 -47q44 -19 93 -19q46 0 88 16q37 15 54 35q49 57 54 119
q5 58 -29 95q-4 4 -32 24q8 17 28 17q8 0 16 -3q14 -13 25 -30q21 -34 21 -87q0 -98 -65 -161.5t-178 -63.5q-31 0 -60 6q-49 11 -89 42.5t-52 72.5q-10 35 -10 66q0 91 82 160q15 13 80 56q-27 -5 -75 -5q-47 -1 -60 3q-22 6 -22 25q0 8 6 16q22 31 97 63q43 18 43 32
q0 3 -3 7q-6 9 -25 12q-33 5 -51 -23q-19 3 -19 19q0 7 3 14q-28 7 -45.5 32.5t-17.5 70.5q0 73 46 133q42 54 99 56q64 2 82 -60q5 -17 5 -38q0 -43 -19 -89q-13 -31 -35 -59q-31 -8 -33 12q15 11 30 53t15 71q0 63 -38 70q-20 4 -44 -10t-40 -37q-36 -50 -36 -99
q0 -22 8 -38q16 -33 51 -33q10 0 18 5q3 -3 3 -9q-1 -4 -2 -9z" />
    <glyph glyph-name="da.ii" horiz-adv-x="194" 
d="M49 371q-36 -50 -36 -99q0 -22 8 -38q16 -33 51 -33q10 0 18 5q3 -3 3 -9q-1 -4 -2 -9q13 3 27 3q65 0 72 -47q3 -18 -17 -31q-5 -4 -50 -25q-21 -9 -41 -18q-32 -17 -27 -33q5 -15 91 -9q24 2 26 2q16 -2 16 -15t-18 -28q-26 -18 -74 -55q-72 -64 -64 -144q4 -46 33 -83
q25 -33 59 -47q44 -19 93 -19q46 0 88 16q37 15 54 35q49 57 54 119q5 58 -29 95q-4 4 -32 24q9 18 27 18q10 0 17 -4q14 -13 25 -30q21 -34 21 -87q0 -98 -65 -161.5t-178 -63.5q-31 0 -60 6q-49 11 -89 42.5t-52 72.5q-10 35 -10 66q0 91 82 160q15 13 80 56
q-27 -5 -75 -5q-47 -1 -60 3q-22 6 -22 25q0 8 6 16q22 31 97 63q43 18 43 32q0 3 -3 7q-6 9 -25 12q-33 5 -51 -23q-19 3 -19 19q0 7 3 14q-28 7 -45.5 32.5t-17.5 70.5q0 73 46 133q40 52 99 56q77 6 98 -53q14 7 17 2q7 -21 -8 -35q5 -49 -10 -94q-17 -49 -49 -70
q-28 -19 -58 -13q-41 8 -41 56q0 38 20 74q13 23 44 46q28 19 43 21q-11 28 -47 31q-20 2 -45 -13.5t-41 -38.5zM191 354q-48 -15 -66 -48q-15 -29 -15 -52q0 -27 23 -29q39 -4 58 67q8 31 0 62z" />
    <glyph glyph-name="la.u" horiz-adv-x="355" 
d="M289 -64q-20 -5 -55 -31q-45 -32 -70 -45q-72 -36 -115 -32q-60 6 -66 52q-2 18 -2 35q0 94 70 175q66 76 159 92q21 4 40 4q96 0 96 -78q0 -15 -4 -34q-7 -31 -37 -54t-61 -23q-48 0 -48 44q0 31 16 53q7 11 23 11q8 0 17 -3q-10 -23 -10 -40q0 -19 14 -22q23 -5 41 21
q14 22 14 47q0 54 -67 54q-82 0 -146 -69q-60 -65 -71 -149q-1 -9 -1 -17q0 -55 51 -55q41 0 98 34q37 24 74 47q52 31 66 27q21 -6 24 -18q9 -32 -9 -152q-17 -114 -54 -128q-23 -9 -77 -8q-46 1 -71 7q-56 13 -90 42q8 22 19 26q64 -25 72 -27q31 -7 69 -7q62 0 73 15
q9 12 14 35q13 60 13 129q0 56 1 31q0 13 -10 11z" />
    <glyph glyph-name="la.uu" horiz-adv-x="355" 
d="M299 -110q1 29 1 33q-1 15 -11 13q-21 -5 -61 -33q-52 -37 -64 -44q-64 -36 -115 -31q-56 5 -66 52q-8 35 1 78q14 71 67 132q66 76 159 92q21 4 40 4q96 0 96 -78q0 -15 -4 -34q-7 -31 -37 -54t-61 -23q-48 0 -48 44q0 31 16 53q7 11 23 11q8 0 17 -3q-10 -23 -10 -40
q0 -19 14 -22q23 -5 41 21q14 22 14 47q0 54 -67 54q-82 0 -146 -69q-60 -65 -71 -149q-1 -9 -1 -17q0 -55 51 -55q41 0 98 34q37 24 74 47q52 31 66 27q21 -6 24 -17t3 -30q0 -35 -13 -127.5t-22 -121.5q-16 -10 -23 -6q-10 5 -19 26t-15 23q-22 9 -66 -14q-33 -17 -84 -41
q-14 -5 -28 -5q-28 0 -44 17.5t-16 44.5q0 54 65 82q9 -4 22 -18q-47 -18 -47 -59q0 -29 25 -29q17 0 48 19q23 14 46 29q47 29 71 29q7 0 12.5 -1.5t24.5 -24.5q5 2 6 9q11 54 14 125z" />
    <glyph glyph-name="La.u" horiz-adv-x="432" 
d="M383 368q-13 50 -45 93q-43 58 -65 62q-14 3 -22 -38q-7 -33 -6 -63q3 -83 47 -97q11 -4 23 -4q50 0 68 47zM41 79q-2 -9 -2 -17q0 -19 17 -54q-4 -14 -40 -13q-12 11 -12 51q0 31 9 55q23 62 75 83q5 2 10 2q14 0 22 -16q26 13 45 7q24 -8 35 -39q2 -6 2 -12
q0 -29 -36 -52q-40 -25 -36 -30q10 -12 42 -12q11 0 24 2q39 6 76 24q34 17 65 52t44 68q17 46 19 92q1 24 -5 60q-8 -20 -36 -35t-60 -15q-67 0 -90 64q-12 33 -12 73q0 42 11 75q21 64 66 64q48 0 101 -63q57 -69 64 -155q1 -17 1 -37q0 -97 -28 -153q-45 -88 -134 -129
q-41 -19 -109 -22q-71 -3 -89.5 8.5t-18.5 26.5q0 18 23 34q22 11 45 22q31 15 30 27q-2 16 -22 16q-15 0 -33 -10q-13 13 -19 13q-13 0 -28 -22q-13 -18 -16 -33z" />
    <glyph glyph-name="Ta.i" 
d="M152 351q-105 4 -136 66q-15 30 -15 64q0 55 36 102.5t90 63.5q42 13 79 13q55 0 92 -25.5t48 -70.5q4 -16 -2 -49q-10 -3 -20 1t-9 13q-1 39 -30 66q-25 24 -83 24q-43 0 -75 -21q-77 -51 -77 -122q0 -14 3 -28q6 -31 34.5 -50.5t57.5 -14.5q-2 16 -2 34q0 42 11 75
q21 64 66 64q48 0 99 -63q56 -69 64 -155q2 -21 2 -42q0 -78 -20 -140q-16 -51 -45 -95q-33 -50 -65 -59q-18 -5 -31 -5q-25 0 -39 17q-10 12 -17.5 36t-8.5 26q-11 -20 -37 -53q-31 -25 -60 -25q-60 0 -60 47q0 30 29 76q36 56 58 68q5 1 12 1q29 0 29 -14q0 -4 -4 -8
q-20 -18 -53 -54q-22 -34 -22 -51q0 -13 17 -23q3 -2 8 -2q22 0 35 28q34 71 61 67q19 -3 36 -56q14 -44 36 -44q27 0 57 60q19 39 32 83q11 37 13 94q1 24 -5 60q-8 -20 -36 -35t-60 -15q-67 0 -90 64q-1 3 -3 7zM329 368q-13 50 -45 93q-43 58 -65 62q-14 3 -22 -38
q-7 -33 -6 -63q3 -83 47 -97q11 -4 23 -4q50 0 68 47z" />
    <glyph glyph-name="Ta.ii" 
d="M222 556q-18 30 -10 63q-8 1 -32 -4q-29 -7 -45 -17q-77 -51 -77 -122q0 -14 3 -28q5 -29 30.5 -48t53.5 -18q-2 17 -2 35q0 42 11 75q22 65 68 64zM152 351q-99 6 -128 66q-15 30 -15 64q0 55 36 102.5t90 63.5q42 13 79 13q55 0 92 -25.5t48 -70.5q3 -12 3 -21
q0 -41 -46 -40q64 -71 72 -165q2 -21 2 -42q0 -78 -20 -140q-16 -51 -45 -95q-33 -50 -65 -59q-18 -5 -31 -5q-25 0 -39 17q-10 12 -17.5 36t-8.5 26q-11 -20 -37 -53q-31 -25 -60 -25q-60 0 -60 47q0 30 29 76q36 56 58 68q5 1 12 1q29 0 29 -14q0 -4 -4 -8
q-20 -18 -53 -54q-22 -34 -22 -51q0 -13 17 -23q3 -2 8 -2q22 0 35 28q34 71 61 67q19 -3 36 -56q14 -44 36 -44q27 0 57 60q19 39 32 83q11 37 13 94q1 24 -5 60q-8 -20 -36 -35t-60 -15q-70 0 -93 71zM329 368q-13 50 -45 93q-43 58 -65 62q-14 3 -22 -38q-7 -33 -6 -63
q3 -83 47 -97q11 -4 23 -4q50 0 68 47zM248 597q0 -19 16.5 -37t35.5 -18q17 0 17 16q0 15 -10 30q-18 29 -46 29q-13 0 -13 -20z" />
    <glyph glyph-name="Ja.al" horiz-adv-x="316" 
d="M240 671q0 -1 -22 -184q-5 -40 -10 -91q-2 -16 -9 -63q13 40 23 61q55 108 108 174q6 3 11 3q16 0 19 -23q-42 -57 -106 -186q-26 -51 -30 -61q-18 -40 -25 -69q-11 -46 -11 -71q0 -18 4 -35q14 64 62 68q48 3 58 -50q7 -37 -15 -71q-25 -38 -61 -38q-6 0 -12 1
q-21 -43 -75 -43q-8 0 -16 2q-43 8 -56 81q-9 54 -20 64q-5 5 -11 5q-12 0 -32 -20q-15 17 -1 42q15 20 37 21q33 2 48 -34q9 -31 18 -63q18 -50 47 -50q24 0 29 19q-33 30 -36 100v1q-4 20 4 125q8 110 26 265q7 64 16 122q26 9 22 9q9 0 16 -11zM226 118q0 -5 4 -48
q22 3 33 18q14 21 14 44q0 31 -16 33q-32 4 -35 -47z" />
    <glyph glyph-name="Ja.i" horiz-adv-x="316" 
d="M156 160q-2 37 12 91q-11 -16 -44 -16q-20 0 -35 9q-55 33 -55 114q0 53 25 108t65 89t86 34q37 0 58 -27q15 -20 15 -34q0 -25 -37 -26q-9 44 -53 44q-51 0 -85 -58q-31 -51 -31 -112q0 -54 30 -82q13 -12 32 -12q32 0 44 22q51 145 147 264q6 3 11 3q16 0 19 -23
q-42 -57 -106 -186q-26 -51 -30 -61q-18 -40 -25 -69q-11 -46 -11 -71q0 -18 4 -35q14 64 62 68q48 3 58 -50q7 -37 -15 -71q-25 -38 -61 -38q-6 0 -12 1q-21 -43 -75 -43q-8 0 -16 2q-43 8 -56 81q-9 54 -20 64q-5 5 -11 5q-12 0 -32 -20q-15 17 -1 42q15 20 37 21
q33 2 48 -34q9 -31 18 -63q18 -50 47 -50q24 0 29 19q-33 30 -36 100zM226 118q0 -5 4 -48q22 3 33 18q14 21 14 44q0 31 -16 33q-32 4 -35 -47z" />
    <glyph glyph-name="Ja.ii" horiz-adv-x="316" 
d="M330 568q6 3 11 3q16 0 19 -23q-42 -57 -106 -186q-26 -51 -30 -61q-18 -40 -25 -69q-11 -46 -11 -71q0 -18 4 -35q14 64 62 68q48 3 58 -50q7 -37 -15 -71q-25 -38 -61 -38q-6 0 -12 1q-21 -43 -75 -43q-8 0 -16 2q-43 8 -56 81q-9 54 -20 64q-5 5 -11 5q-12 0 -32 -20
q-15 17 -1 42q15 20 37 21q33 2 48 -34q9 -31 18 -63q18 -50 47 -50q24 0 29 19q-33 30 -36 100q-2 37 12 91q-11 -16 -44 -16q-20 0 -35 9q-56 33 -56 116q0 53 24.5 107.5t64.5 88t99 33.5q44 0 65 -27q10 -13 15 -33q14 20 29 39zM110 488q-32 -53 -32 -115q0 -52 29 -79
q13 -12 32 -12q32 0 44 22q5 14 10.5 27.5t36.5 73.5q-16 -5 -32 -5q-38 0 -63 26t-25 62zM226 118q0 -5 4 -48q22 3 33 18q14 21 14 44q0 31 -16 33q-32 4 -35 -47zM148 522q-1 -6 -1 -13q0 -29 17.5 -52t45.5 -23q14 0 28 6q27 11 27 49q0 39 -37 55q-9 4 -20 4
q-25 0 -60 -26z" />
    <glyph glyph-name="kha.al" 
d="M268 45q40 30 58 94q12 41 7 91q-7 90 -60 139q-44 41 -119 41q-86 0 -139 -43q-4 3 -10 8.5t-6 15.5q0 9 4 20q47 21 75 62q19 36 78 132q49 73 131 73q26 0 52 -9q67 -23 97 -88q21 -46 21 -103q0 -16 -2 -27q0 -3 -8.5 -8.5t-14.5 -5.5q-7 0 -8 7q4 53 -21 103
q-29 62 -87 82q-15 5 -31 5q-54 0 -91 -44q-24 -28 -68 -97q-37 -58 -54 -72q43 18 98 18q99 0 153.5 -56.5t54.5 -160.5q0 -30 -5 -60q-9 -55 -43.5 -105t-66.5 -58q-10 -3 -19 -3q-21 0 -57 29q-3 2 -7 2q-14 0 -31 -20t-24 -47q-5 -3 -14 6t-13 18q8 43 59 94
q19 19 19 38q0 26 -28 26q-19 0 -38.5 -15.5t-30.5 -46.5t-11 -59q0 -10 2 -18q-11 -9 -31 -9q-34 0 -32 16q9 89 73 139q42 33 83 33q54 0 54 -48q0 -17 -8 -33t-19 -29q6 2 11 2q11 0 19 -15q12 -21 28 -21q10 0 20 7z" />
    <glyph glyph-name="kha.i" 
d="M187 25q-3 2 -7 2q-14 0 -31 -20t-24 -47q-5 -3 -14 6t-13 18q8 43 59 94q19 19 19 38q0 26 -28 26q-19 0 -38.5 -15.5t-30.5 -46.5t-11 -59q0 -10 2 -18q-11 -9 -31 -9q-34 0 -32 16q8 89 73 139q42 33 83 33q54 0 54 -48q0 -17 -8 -33t-19 -29q6 2 11 2q10 0 19 -15
q10 -19 33 -19q28 0 45 25q15 22 15 51q0 35 -36 65q-15 12 -65 42q-30 17 -59 35q-33 21 -65 53q-47 47 -47 123q0 96 62 164q67 74 158 74q23 0 48 -4q53 -8 81 -57q24 -42 24 -101q0 -86 -38 -119q-4 -3 -18 5.5t-16 20.5q39 37 39 97q0 42 -23 74.5t-66 40.5
q-14 3 -28 3q-53 0 -101 -34q-41 -28 -57 -61q-26 -53 -26 -102q0 -83 66 -128q47 -26 135 -79q43 -30 56 -43q26 -29 23 -67q-3 -40 -31 -74t-66 -45q-10 -3 -19 -3q-21 0 -57 29z" />
    <glyph glyph-name="kha.ii" 
d="M146 307q47 -26 135 -79q43 -30 56 -43q26 -29 23 -67q-3 -40 -31 -74t-66 -45q-10 -3 -19 -3q-21 0 -57 29q-3 2 -7 2q-14 0 -31 -20t-24 -47q-5 -3 -14 6t-13 18q8 43 59 94q19 19 19 38q0 26 -28 26q-19 0 -38.5 -15.5t-30.5 -46.5t-11 -59q0 -10 2 -18q-11 -9 -31 -9
q-34 0 -32 16q8 89 73 139q42 33 83 33q54 0 54 -48q0 -17 -8 -33t-19 -29q6 2 11 2q10 0 19 -15q10 -19 33 -19q28 0 45 25q15 22 15 51q0 35 -36 65q-15 12 -65 42q-30 17 -59 35q-33 21 -65 53q-46 46 -46 122q0 96 62 165q67 74 153 74q22 0 47 -4q55 -9 87 -59
q29 -46 29 -105q0 -89 -57 -117q-30 -15 -63 -15q-66 0 -95 57q-12 25 -12 51q0 49 36.5 90t82.5 51q-29 11 -54 11q-46 0 -90.5 -27t-66.5 -67.5t-25 -88.5q-4 -91 70 -142zM338 602q-66 -11 -94 -70q-12 -25 -12 -50q0 -41 32 -64q23 -17 50 -17t49 19.5t22 63.5
q0 34 -14 69t-33 49z" />
    <glyph glyph-name="cha.al" horiz-adv-x="384" 
d="M349 122q-20 -78 -82 -105q-44 -19 -90 -19q-37 0 -57 12q-19 17 -51 40q-10 5 -40 2q-27 -2 -34 -7q-9 14 4 35q5 9 37 12q81 9 79 31q-2 16 -40 16q-22 0 -35 -6q-12 25 -12 28q0 18 30 24q23 4 43 0q36 -7 50 -39q4 -9 4 -17q0 -27 -31 -44q-9 -5 -30 -12
q29 -13 41 -22q22 -13 55 -13q30 0 60 13q45 20 60 88q7 32 7 67q0 108 -59 163q-44 41 -119 41q-86 0 -139 -43q-4 3 -10 8.5t-6 15.5q0 9 4 20q47 21 75 62q19 36 78 132q49 73 131 73q26 0 52 -9q67 -23 97 -88q21 -46 21 -103q0 -16 -2 -27q0 -3 -8.5 -8.5t-14.5 -5.5
q-7 0 -8 7q4 53 -21 103q-29 62 -87 82q-15 5 -31 5q-54 0 -91 -44q-24 -28 -68 -97q-37 -58 -54 -72q43 18 98 18q99 0 153.5 -56.5t54.5 -156.5q0 -49 -14 -104z" />
    <glyph glyph-name="cha.i" horiz-adv-x="384" 
d="M290 131q-6 24 -25.5 42t-73.5 50q-30 17 -59 35q-33 21 -65 53q-47 47 -47 123q0 96 62 164q67 74 158 74q23 0 48 -4q53 -8 81 -57q24 -42 24 -101q0 -86 -38 -119q-4 -3 -18 5.5t-16 20.5q39 37 39 97q0 42 -23 74.5t-66 40.5q-14 3 -28 3q-53 0 -101 -34
q-41 -28 -57 -61q-26 -53 -26 -102q0 -83 66 -128q47 -26 135 -79q43 -29 56 -43q25 -29 23 -67q-4 -71 -72 -101q-44 -19 -90 -19q-37 0 -57 12q-19 17 -51 40q-10 5 -40 2q-27 -2 -34 -7q-9 14 4 35q5 9 37 12q81 9 79 31q-2 16 -40 16q-22 0 -35 -6q-12 25 -12 28
q0 18 30 24q23 4 43 0q36 -7 50 -39q4 -9 4 -17q0 -27 -31 -44q-9 -5 -30 -12q29 -13 41 -22q22 -13 55 -13q30 0 60 13q43 19 43 58q0 10 -3 22z" />
    <glyph glyph-name="cha.ii" horiz-adv-x="384" 
d="M191 223q-30 17 -59 35q-33 21 -65 53q-47 47 -47 123q0 96 62 164q67 74 158 74q23 0 48 -4q55 -9 87 -59q29 -46 29 -105q0 -89 -57 -117q-30 -15 -63 -15q-66 0 -95 57q-12 25 -12 51q0 49 36.5 90t82.5 51q-29 11 -54 11q-52 0 -101 -34q-40 -28 -56 -61
q-26 -53 -26 -102q0 -83 66 -128q48 -27 137 -81q42 -26 56 -44q19 -23 21 -64q4 -68 -72 -101q-44 -19 -90 -19q-37 0 -57 12q-19 17 -51 40q-10 5 -40 2q-27 -2 -34 -7q-9 14 4 35q5 9 37 12q81 9 79 31q-2 16 -40 16q-22 0 -35 -6q-12 25 -12 28q0 18 30 24q23 4 43 0
q36 -7 50 -39q4 -9 4 -17q0 -27 -31 -44q-9 -5 -30 -12q29 -13 41 -22q22 -13 55 -13q30 0 60 13q42 19 42 59q0 14 -3 28q-6 21 -27 39q-18 14 -71 46zM322 602q-66 -11 -94 -70q-12 -25 -12 -50q0 -41 32 -64q23 -17 50 -17t49 19.5t22 63.5q0 34 -14 69t-33 49z" />
    <glyph glyph-name="ja.al" horiz-adv-x="284" 
d="M14 125q-15 17 -1 42q15 20 37 21q33 2 48 -34q9 -31 18 -63q5 -15 11.5 -31.5t22.5 -16.5q32 0 58 57q56 121 82 204q24 77 44 165q12 49 23 99q6 3 12 3q16 0 22 -22q-1 -20 -16 -86q-18 -77 -40 -142q-31 -92 -39 -116q-23 -62 -46 -107q-30 -59 -54 -80
q-27 -25 -67 -23q-25 1 -38 26q-7 15 -14 55q-9 54 -20 64q-5 5 -11 5q-12 0 -32 -20zM279 671q0 -1 -22 -184q-36 -300 -31 -340q0 -3 -3 -3q-7 0 -17 6t-11 11q-4 18 4 126.5t26 263.5q7 64 16 122q26 9 22 9q9 0 16 -11z" />
    <glyph glyph-name="ja.i" horiz-adv-x="284" 
d="M234 546q-54 0 -102 -58q-35 -41 -35 -106q0 -56 32 -87t66 -31q48 0 100 58q22 71 41 153q10 47 21 93q6 3 12 3q16 0 22 -22q-1 -20 -16 -86q-18 -77 -40 -142q-31 -92 -39 -116q-23 -62 -46 -107q-30 -59 -54 -80q-27 -25 -67 -23q-25 1 -38 26q-7 15 -14 55
q-9 54 -20 64q-5 5 -11 5q-12 0 -32 -20q-15 17 -1 42q15 20 37 21q33 2 48 -34q9 -31 18 -63q5 -15 11.5 -31.5t22.5 -16.5q32 0 58 57q43 94 66 158q-39 -36 -90 -36q-42 0 -72 22q-54 39 -54 119q0 52 24.5 105t64.5 87t97 34q43 0 64 -27q15 -20 15 -34q0 -25 -37 -26
q-9 44 -52 44z" />
    <glyph glyph-name="ja.ii" horiz-adv-x="284" 
d="M170 522q-1 -6 -1 -13q0 -29 17.5 -52t45.5 -23q14 0 28 6q27 11 27 49q0 39 -37 55q-9 4 -20 4q-25 0 -60 -26zM295 322q22 71 41 153q10 47 21 93q6 3 12 3q16 0 22 -22q-1 -20 -16 -86q-18 -77 -40 -142q-31 -92 -39 -116q-23 -62 -46 -107q-30 -59 -54 -80
q-27 -25 -67 -23q-25 1 -38 26q-7 15 -14 55q-9 54 -20 64q-5 5 -11 5q-12 0 -32 -20q-15 17 -1 42q15 20 37 21q33 2 48 -34q9 -31 18 -63q5 -15 11.5 -31.5t22.5 -16.5q32 0 58 57q43 94 66 158q-39 -36 -90 -36q-42 0 -72 22q-54 39 -54 119q0 52 24.5 105t64.5 87t97 34
q43 0 64 -27t21 -63q0 -49 -35 -73q-38 -26 -74 -26q-38 0 -63 26t-25 62q-35 -40 -35 -105q0 -57 32 -88t66 -31q48 0 100 58z" />
    <glyph glyph-name="Dha.i" 
d="M166 351q-99 6 -128 66q-15 30 -15 64q0 55 36 102.5t90 63.5q42 13 79 13q55 0 92 -25.5t48 -70.5q4 -16 -2 -49q-10 -3 -20 1t-9 13q-1 39 -30 66q-25 24 -83 24q-43 0 -75 -21q-77 -51 -77 -122q0 -14 3 -28q5 -29 30.5 -48t53.5 -18q-2 17 -2 35q0 42 11 75
q21 64 66 64q48 0 101 -63q57 -69 64 -155q1 -17 1 -36q0 -95 -24 -170q-17 -53 -43.5 -88.5t-52.5 -41.5q-16 -4 -28 -4q-26 0 -34 20.5t-21 51.5q-13 -17 -39 -50q-19 -23 -46 -23q-16 0 -26 10q-9 17 -31 39q-37 16 -58 7q-10 14 2 33q3 4 37 8q81 9 79 29q-2 16 -38 16
q-20 0 -33 -6q-12 25 -12 28q0 7 7 13q21 19 62 11q36 -7 50 -39q4 -9 4 -17q0 -27 -31 -44q-19 -11 -38 -14q7 -4 26 -23q4 -4 10 -4q13 0 28 22q41 59 62 56q17 -3 30.5 -44.5t24.5 -41.5q22 0 48 49q18 36 27 67q16 57 18 118q1 24 -5 60q-8 -20 -36 -35t-60 -15
q-70 0 -93 71zM343 368q-13 50 -45 93q-43 58 -65 62q-14 3 -22 -38q-7 -33 -6 -63q3 -83 47 -97q11 -4 23 -4q50 0 68 47z" />
    <glyph glyph-name="Dha.ii" 
d="M234 556q-18 30 -10 63q-8 1 -32 -4q-29 -7 -45 -17q-77 -51 -77 -122q0 -14 3 -28q5 -30 31.5 -49t54.5 -17q-2 17 -2 35q0 42 11 75q21 63 66 64zM167 351q-101 6 -131 66q-15 30 -15 64q0 55 36 102.5t90 63.5q42 13 79 13q55 0 92 -25.5t48 -70.5q3 -12 3 -21
q0 -39 -43 -40q74 -81 74 -201q0 -95 -24 -170q-17 -53 -43.5 -88.5t-52.5 -41.5q-16 -4 -28 -4q-26 0 -34 20.5t-21 51.5q-13 -17 -39 -50q-19 -23 -46 -23q-16 0 -26 10q-9 17 -31 39q-37 16 -58 7q-10 14 2 33q3 4 37 8q81 9 79 29q-2 16 -38 16q-20 0 -33 -6
q-12 25 -12 28q0 7 7 13q21 19 62 11q36 -7 50 -39q4 -9 4 -17q0 -27 -31 -44q-19 -11 -38 -14q7 -4 26 -23q4 -4 10 -4q13 0 28 22q41 59 62 56q17 -3 30.5 -44.5t24.5 -41.5q22 0 48 49q18 36 27 67q16 57 18 118q1 24 -5 60q-8 -20 -36 -35t-60 -15q-70 0 -92 71z
M343 368q-13 50 -45 93q-43 58 -65 62q-14 3 -22 -38q-7 -33 -6 -63q3 -83 47 -97q11 -4 23 -4q50 0 68 47zM260 597q0 -19 16.5 -37t35.5 -18q17 0 17 16q0 15 -10 30q-18 29 -46 29q-13 0 -13 -20z" />
    <glyph glyph-name="Tha.i" horiz-adv-x="384" 
d="M157 352q-94 6 -123 65q-15 30 -15 64q0 55 36 102.5t90 63.5q42 13 79 13q55 0 92 -25.5t48 -70.5q4 -16 -2 -49q-10 -3 -20 1t-9 13q-1 39 -30 66q-25 24 -83 24q-43 0 -75 -21q-77 -51 -77 -122q0 -14 3 -28q5 -28 28.5 -46.5t50.5 -19.5q-2 17 -2 35q0 42 11 75
q21 64 66 64q48 0 101 -63q57 -69 64 -155q1 -17 1 -37q0 -97 -28 -153q-21 -42 -50 -71q-40 -40 -85 -58.5t-108 -21.5q-70 -3 -90.5 9t-20.5 38q0 20 12 42q7 12 33.5 43t33.5 44q5 3 9 3q10 0 18 -20q6 -15 -10 -33q-6 -6 -28 -37q-18 -24 -4 -42q15 -18 74 -10
q38 5 76 24q34 17 65 52t44 68q17 46 19 92q1 24 -5 60q-8 -20 -36 -35t-60 -15q-70 0 -93 72zM334 368q-13 50 -45 93q-43 58 -65 62q-14 3 -22 -38q-7 -33 -6 -63q3 -83 47 -97q11 -4 23 -4q50 0 68 47z" />
    <glyph glyph-name="Tha.ii" horiz-adv-x="384" 
d="M229 556q-18 30 -10 63q-8 1 -32 -4q-29 -7 -45 -17q-77 -51 -77 -122q0 -14 3 -28q5 -28 30 -47t52 -19q-2 17 -2 35q0 42 11 75q22 67 70 64zM157 352q-97 6 -126 65q-15 30 -15 64q0 55 36 102.5t90 63.5q42 13 79 13q55 0 92 -25.5t48 -70.5q3 -12 3 -21
q0 -42 -47 -40q65 -71 73 -165q1 -17 1 -37q0 -97 -28 -153q-21 -42 -50 -71q-40 -40 -85 -58.5t-108 -21.5q-70 -3 -90.5 9t-20.5 38q0 20 12 42q7 12 33.5 43t33.5 44q5 3 9 3q10 0 18 -20q6 -15 -10 -33q-6 -6 -28 -37q-18 -24 -4 -42q15 -18 74 -10q38 5 76 24
q34 17 65 52t44 68q17 46 19 92q1 24 -5 60q-8 -20 -36 -35t-60 -15q-70 0 -93 72zM334 368q-13 50 -45 93q-43 58 -65 62q-14 3 -22 -38q-7 -33 -6 -63q3 -83 47 -97q11 -4 23 -4q50 0 68 47zM255 597q0 -19 16.5 -37t35.5 -18q17 0 17 16q0 15 -10 30q-18 29 -46 29
q-13 0 -13 -20z" />
    <glyph glyph-name="gna.aa" horiz-adv-x="624" 
d="M242 64q-57 -73 -109 -67q-58 7 -58 74q0 32 18 73q-36 -28 -45 -64q-9 -35 9 -72q-4 -14 -44 -10q-10 9 -10 40q0 36 14 64q26 53 74 82q26 16 49 16q15 0 18 -11q3 -14 -18 -51q-15 -27 -15 -61q0 -37 25 -43q15 -4 37 16q4 4 31 35q33 37 63 62.5t59 36.5q23 9 51 7
q58 -4 64 -47q2 -18 -17 -31q-5 -4 -50 -25q-21 -9 -41 -18q-32 -17 -27 -33q5 -15 91 -9q24 2 26 2q16 -2 16 -15t-18 -28q-26 -18 -74 -55q-72 -64 -64 -144q4 -46 33 -83q25 -33 59 -47q44 -19 93 -19q32 0 63 9q45 12 77 42q50 47 56 119q5 58 -29 95q-4 4 -32 24
q8 17 28 17q8 0 16 -3q14 -13 25 -30q21 -34 21 -87q0 -98 -65 -161.5t-178 -63.5q-31 0 -60 6q-49 11 -89 42.5t-52 72.5q-10 35 -10 66q0 91 82 160q15 13 80 56q-27 -5 -75 -5q-47 -1 -60 3q-22 6 -22 25q0 8 6 16q22 31 97 63q43 18 43 32q0 16 -28 19q-32 3 -72 -28
q-31 -25 -62 -64zM474 86q-16 14 -14 33q20 29 52 45q29 15 51 12q61 -9 54 -90q-4 -50 -58 -108q-29 -31 -56 -41q-5 -2 -8 -2q-11 0 -5 22q23 20 29 26q21 23 36 54q11 24 11 49q0 43 -30 43q-39 0 -62 -43z" />
    <glyph glyph-name="kna.aa" horiz-adv-x="641" 
d="M286 188q28 -2 45 -20q29 23 72 23q67 0 73 -47q2 -18 -17 -31q-5 -4 -50 -25q-21 -9 -41 -18q-32 -17 -27 -33q5 -15 91 -9q24 2 26 2q16 -2 16 -15t-18 -28q-26 -18 -74 -55q-72 -64 -64 -144q4 -46 33 -83q25 -33 59 -47q44 -19 93 -19q89 0 141 51q49 48 55 119
q5 58 -29 95q-4 4 -32 24q8 17 28 17q8 0 16 -3q14 -13 25 -30q21 -34 21 -87q0 -98 -65 -161.5t-178 -63.5q-31 0 -60 6q-49 11 -89 42.5t-52 72.5q-10 35 -10 66q0 91 82 160q15 13 80 56q-27 -5 -75 -5q-47 -1 -60 3q-22 6 -22 25q0 8 6 16q22 31 97 63q43 18 43 32
q0 16 -30 20q-42 5 -59 -28q-10 -19 -25 -8q-5 9 -19 24q-23 18 -43 5q28 -22 28 -70q0 -34 -15 -57.5t-38 -25.5q-47 -4 -58 33q-8 -34 -40 -33q-7 0 -18 6.5t-13 7.5q-4 -3 -17 0q-13 10 -6 28q10 25 52 70q26 28 47 43q-13 6 -23 1q-2 -1 -11.5 -9.5t-15.5 -8.5t-12 6.5
t-9 7.5q-7 1 -18 -8q-42 -32 -42 -78q0 -21 16 -55q-4 -14 -40 -13q-12 11 -12 51q0 31 9 55q23 62 75 83q29 12 41 -10q5 5 23 12q36 8 60 -12q33 17 74 14zM203 133q-17 -10 -41 -32q-28 -26 -46 -54q4 -1 8 -7.5t7 -8t5 -1.5q4 0 6.5 16.5t11.5 21.5q15 8 28 -1
q4 -2 13 -20t20 -19q16 -1 20 44q1 15 -8.5 35t-23.5 26zM490 86q-16 14 -14 33q20 29 52 45q29 15 51 12q61 -9 54 -90q-4 -50 -58 -108q-29 -31 -56 -41q-5 -2 -8 -2q-11 0 -5 22q23 20 29 26q21 23 36 54q11 24 11 49q0 43 -30 43q-39 0 -62 -43z" />
    <glyph glyph-name="kna.u" horiz-adv-x="481" 
d="M301 1q-22 6 -22 25q0 8 6 16q22 31 97 63q43 18 43 32q0 16 -30 20q-42 5 -59 -28q-10 -19 -25 -8q-5 9 -19 24q-23 18 -43 5q28 -22 28 -70q0 -34 -15 -57.5t-38 -25.5q-47 -4 -58 33q-8 -34 -40 -33q-7 0 -18 6.5t-13 7.5q-4 -3 -17 0q-13 10 -6 28q10 25 52 70
q26 28 47 43q-13 6 -23 1q-2 -1 -11.5 -9.5t-15.5 -8.5t-12 6.5t-9 7.5q-7 1 -18 -8q-42 -32 -42 -78q0 -21 16 -55q-4 -14 -40 -13q-12 11 -12 51q0 31 9 55q23 62 75 83q29 12 41 -10q5 5 23 12q36 8 60 -12q33 17 74 14q28 -2 45 -20q29 23 72 23q67 0 73 -47
q2 -18 -17 -31q-5 -4 -50 -25q-21 -9 -41 -18q-32 -17 -27 -33q5 -15 91 -9q23 2 29 -6.5t9 -19.5q13 -46 -9 -192q-9 -59 -25.5 -94t-57.5 -42q-25 -4 -57 3q-56 13 -90 42q4 11 19 26q18 -10 72 -27q25 -6 41 -6q25 0 40 18q9 11 14 35q12 62 12 169q0 53 -9 66
q-26 -5 -67 -4q-38 1 -52 5zM203 133q-17 -10 -41 -32q-28 -26 -46 -54q4 -1 8 -7.5t7 -8t5 -1.5q4 0 6.5 16.5t11.5 21.5q15 8 28 -1q4 -2 13 -20t20 -19q16 -1 20 44q1 15 -8.5 35t-23.5 26z" />
    <glyph glyph-name="kna.uu" horiz-adv-x="481" 
d="M285 42q22 31 97 63q43 18 43 32q0 16 -30 20q-42 5 -59 -28q-10 -19 -25 -8q-5 9 -19 24q-23 18 -43 5q28 -22 28 -70q0 -34 -15 -57.5t-38 -25.5q-47 -4 -58 33q-8 -34 -40 -33q-7 0 -18 6.5t-13 7.5q-4 -3 -17 0q-13 10 -6 28q10 25 52 70q26 28 47 43q-13 6 -23 1
q-2 -1 -11.5 -9.5t-15.5 -8.5t-12 6.5t-9 7.5q-7 1 -18 -8q-42 -32 -42 -78q0 -21 16 -55q-4 -14 -40 -13q-12 11 -12 51q0 31 9 55q23 62 75 83q29 12 41 -10q5 5 23 12q36 8 60 -12q33 17 74 14q28 -2 45 -20q29 23 72 23q67 0 73 -47q2 -18 -17 -31q-5 -4 -50 -25
q-21 -9 -41 -18q-32 -17 -27 -33q3 -10 37 -12q23 -1 47 -2q27 -4 29 -5q14 -4 16 -16q2 -10 -1 -131q-4 -157 -13 -187q-16 -10 -23 -6q-9 4 -18 27t-13 23q-1 0 -29.5 -24.5t-43 -29.5t-27.5 -5q-41 0 -51 44q-2 8 -2 17q0 55 68 85q9 -4 22 -18q-21 -8 -35 -26.5
t-14 -36.5q0 -19 16 -26q7 -3 13 -3q10 0 20.5 11.5t20.5 23.5q8 9 17.5 19t20.5 11q17 2 30 -14l2 83q1 41 1 92q0 36 -7.5 48t-59.5 17q-31 2 -63 5q-22 5 -22 24q0 9 6 17zM203 133q-17 -10 -41 -32q-28 -26 -46 -54q4 -1 8 -7.5t7 -8t5 -1.5q4 0 6.5 16.5t11.5 21.5
q15 8 28 -1q4 -2 13 -20t20 -19q16 -1 20 44q1 15 -8.5 35t-23.5 26z" />
    <glyph glyph-name="knaasi.al" horiz-adv-x="406" 
d="M295 42q42 28 54 97q4 25 4 53q0 118 -64 177q-44 41 -119 41q-86 0 -139 -43q-4 3 -10 8.5t-6 15.5q0 9 4 20q47 21 75 62q19 36 78 132q49 73 131 73q26 0 52 -9q67 -23 97 -88q21 -46 21 -103q0 -16 -2 -27q0 -3 -8.5 -8.5t-14.5 -5.5q-7 0 -8 7q4 53 -21 103
q-29 62 -87 82q-15 5 -31 5q-54 0 -91 -44q-24 -28 -68 -97q-37 -58 -54 -72q43 18 98 18q99 0 154 -57t55 -156q0 -50 -15 -104q-29 -105 -86 -120q-16 -4 -28 -4q-26 0 -34 20.5t-21 51.5q-13 -17 -39 -50q-19 -23 -41 -23q-14 0 -24 10q-7 6 -20 28q-2 5 -2 12
q0 22 24 44q28 25 28 34q0 17 -21 26q-17 8 -36 8q-13 0 -20 -4q35 -17 35 -45q0 -9 -3 -20q-4 -16 -20 -30t-33 -14q-35 0 -35 47q0 40 28 69t67 29q16 0 31 -5q45 -16 45 -47q0 -23 -30 -50q-16 -15 -16 -26q0 -18 14 -18q6 0 21 21q41 59 62 56q17 -3 30.5 -44.5
t24.5 -41.5q6 0 14 6zM43 129q-8 -10 -8 -22q0 -11 8 -16t16.5 1.5t8.5 15.5q0 8 -8 15t-17 6z" />
    <glyph glyph-name="pha.i" horiz-adv-x="384" 
d="M157 352q-96 6 -125 65q-15 30 -15 64q0 55 36 102.5t90 63.5q42 13 79 13q55 0 92 -25.5t48 -70.5q4 -16 -2 -49q-10 -3 -20 1t-9 13q-1 39 -30 66q-25 24 -83 24q-43 0 -75 -21q-77 -51 -77 -122q0 -14 3 -28q5 -28 29.5 -47t51.5 -19q-2 17 -2 35q0 42 11 75
q21 64 66 64q48 0 101 -63q57 -69 64 -155q1 -17 1 -37q0 -97 -28 -153q-45 -88 -134 -129q-41 -19 -109 -22q-71 -3 -89.5 8.5t-18.5 26.5q0 18 23 34q22 11 45 22q31 15 30 27q-2 22 -47 22q-14 0 -23 -4q-12 25 -12 28q0 12 17 20q14 6 28 6q13 0 28 -4q34 -10 50 -45
q3 -6 3 -12q0 -29 -37 -52q-40 -25 -36 -30q10 -12 42 -12q11 0 24 2q39 6 76 24q34 17 65 52t44 68q17 46 19 92q1 24 -5 60q-8 -20 -36 -35t-60 -15q-70 0 -93 72zM334 368q-13 50 -45 93q-43 58 -65 62q-14 3 -22 -38q-7 -33 -6 -63q3 -83 47 -97q11 -4 23 -4q50 0 68 47
z" />
    <glyph glyph-name="pha.ii" horiz-adv-x="384" 
d="M235 555q-13 21 -13 44q0 10 3 20q-8 1 -32 -4q-29 -7 -45 -17q-77 -51 -77 -122q0 -14 3 -28q5 -27 27.5 -45.5t48.5 -20.5q-2 17 -2 35q0 42 11 75q24 72 76 63zM157 352q-91 7 -120 65q-15 30 -15 64q0 55 36 102.5t90 63.5q42 13 79 13q55 0 92 -25.5t48 -70.5
q3 -12 3 -21q0 -45 -53 -40q65 -71 73 -165q1 -17 1 -37q0 -97 -28 -153q-45 -88 -134 -129q-41 -19 -109 -22q-71 -3 -89.5 8.5t-18.5 26.5q0 18 23 34q22 11 45 22q31 15 30 27q-2 22 -47 22q-14 0 -23 -4q-12 25 -12 28q0 12 17 20q14 6 28 6q13 0 28 -4q34 -10 50 -45
q3 -6 3 -12q0 -29 -37 -52q-40 -25 -36 -30q10 -12 42 -12q11 0 24 2q39 6 76 24q34 17 65 52t44 68q17 46 19 92q1 24 -5 60q-8 -20 -36 -35t-60 -15q-70 0 -93 72zM334 368q-13 50 -45 93q-43 58 -65 62q-14 3 -22 -38q-7 -33 -6 -63q3 -83 47 -97q11 -4 23 -4q50 0 68 47
zM261 597q0 -19 16.5 -37t35.5 -18q17 0 17 16q0 15 -10 30q-18 29 -46 29q-13 0 -13 -20z" />
    <glyph glyph-name="ta.al" horiz-adv-x="384" 
d="M324 174q2 27 2 46q0 105 -60 151q-49 37 -126 37q-89 0 -140 -41q-4 3 -10 8.5t-6 15.5q0 9 4 20q47 21 75 62q19 36 78 132q49 73 131 73q26 0 52 -9q67 -23 97 -88q21 -46 21 -103q0 -16 -2 -27q0 -3 -8.5 -8.5t-14.5 -5.5q-7 0 -8 7q4 53 -21 103q-29 62 -87 82
q-15 5 -31 5q-54 0 -91 -44q-24 -28 -68 -97q-37 -58 -54 -72q42 18 96 18q97 0 157 -54q68 -61 68 -153q0 -51 -22 -108q-30 -77 -117 -112q-44 -18 -122 -18q-69 0 -88.5 12t-19.5 39q0 19 12 41q7 12 33.5 43t33.5 44q5 3 9 3q10 0 18 -20q6 -15 -10 -33q-6 -6 -28 -37
q-18 -24 -4 -42t60 -18q36 0 83 15q37 12 71 52.5t37 80.5z" />
    <glyph glyph-name="ta.i" horiz-adv-x="384" 
d="M9 45q0 19 12 41q7 12 33.5 43t33.5 44q5 3 9 3q10 0 18 -20q6 -15 -10 -33q-6 -6 -28 -37q-18 -24 -4 -42t60 -18q36 0 83 15q80 25 70 90q-4 25 -22 42.5t-73 49.5q-30 17 -59 35q-33 21 -65 53q-47 47 -47 123q0 96 62 164q67 74 158 74q23 0 48 -4q53 -8 81 -57
q24 -42 24 -101q0 -86 -38 -119q-4 -3 -18 5.5t-16 20.5q39 37 39 97q0 42 -23 74.5t-66 40.5q-14 3 -28 3q-53 0 -101 -34q-41 -28 -57 -61q-26 -53 -26 -102q0 -83 66 -128q48 -27 137 -81q70 -44 69 -110q-1 -68 -92 -104q-44 -18 -122 -18q-69 0 -88.5 12t-19.5 39z" />
    <glyph glyph-name="ta.ii" horiz-adv-x="384" 
d="M125 308q48 -28 137 -82q70 -44 69 -110q-1 -68 -92 -104q-44 -18 -122 -18q-69 0 -88.5 12t-19.5 39q0 19 12 41q7 12 33.5 43t33.5 44q5 3 9 3q10 0 18 -20q6 -15 -10 -33q-6 -6 -28 -37q-18 -24 -4 -42t60 -18q36 0 83 15q80 25 70 90q-4 25 -22 42.5t-73 49.5
q-30 17 -59 35q-33 21 -65 53q-47 47 -47 123q0 96 62 164q67 74 159 74q23 0 48 -4q55 -9 87 -59q29 -46 29 -105q0 -89 -57 -117q-30 -15 -63 -15q-66 0 -95 57q-12 25 -12 51q0 49 36.5 90t82.5 51q-29 11 -54 11q-48 0 -94 -29q-40 -25 -62 -64q-17 -30 -24 -56
q-14 -53 1 -95q17 -50 61 -80zM323 602q-66 -11 -94 -70q-12 -25 -12 -50q0 -41 32 -64q23 -17 50 -17t49 19.5t22 63.5q0 34 -14 69t-33 49z" />
    <glyph glyph-name="Da.al" 
d="M330 205q0 114 -68 166q-49 37 -124 37q-87 0 -138 -41q-4 3 -10 8.5t-6 15.5q0 9 4 20q47 21 75 62q19 36 78 132q49 73 131 73q26 0 52 -9q67 -23 97 -88q21 -46 21 -103q0 -16 -2 -27q0 -3 -8.5 -8.5t-14.5 -5.5q-7 0 -8 7q4 53 -21 103q-29 62 -87 82q-15 5 -31 5
q-54 0 -91 -44q-24 -28 -68 -97q-37 -58 -54 -72q42 18 96 18q97 0 157 -54q68 -61 68 -182q0 -41 -10 -83q-22 -91 -86 -118q-16 -7 -30 -7q-24 0 -35 22q-7 22 -20 53q-13 -17 -39 -50q-19 -23 -46 -23q-16 0 -26 10q-9 15 -31 37q-12 6 -30 9q-18 4 -24 0q-10 14 2 33
q3 5 33 8q81 9 79 29q-2 16 -40 16q-22 0 -35 -6q-12 25 -12 28q0 18 30 24q23 4 43 0q36 -7 50 -39q4 -9 4 -17q0 -27 -31 -44q-19 -11 -38 -14q7 -4 26 -23q4 -4 10 -4q13 0 28 22q41 59 62 56q17 -3 31 -45q13 -38 23 -38q6 0 15 5q49 31 49 161z" />
    <glyph glyph-name="Da.i" 
d="M282 2q-16 -5 -29 -5q-26 0 -34.5 21t-21.5 52q-13 -17 -39 -50q-19 -23 -46 -23q-16 0 -26 10q-9 15 -31 37q-12 6 -30 9q-18 4 -24 0q-10 14 2 33q3 5 33 8q81 9 79 29q-2 16 -40 16q-22 0 -35 -6q-12 25 -12 28q0 18 30 24q23 4 43 0q36 -7 50 -39q4 -9 4 -17
q0 -27 -31 -44q-19 -11 -38 -14q7 -4 26 -23q4 -4 10 -4q13 0 28 22q41 59 62 56q17 -3 31 -45q13 -38 23 -38q6 0 15 5q37 23 37 55q0 11 -4 24q-7 23 -37 47q-19 16 -78 53q-39 25 -53 35q-25 19 -59 53q-47 47 -47 123q0 96 62 164q67 74 147 74q22 0 47 -4q53 -8 81 -57
q24 -42 24 -101q0 -86 -38 -119q-4 -3 -18 5.5t-16 20.5q39 37 39 97q0 42 -23 74.5t-66 40.5q-14 3 -28 3q-51 0 -94 -34q-35 -27 -52 -61q-23 -48 -23 -93q0 -85 65 -134q57 -43 123 -84q101 -62 97 -118q-5 -79 -85 -106z" />
    <glyph glyph-name="Da.ii" 
d="M147 310q57 -43 123 -84q101 -62 97 -118q-5 -79 -85 -106q-16 -5 -29 -5q-26 0 -34.5 21t-21.5 52q-13 -17 -39 -50q-19 -23 -46 -23q-16 0 -26 10q-9 15 -31 37q-12 6 -30 9q-18 4 -24 0q-10 14 2 33q3 5 33 8q81 9 79 29q-2 16 -40 16q-22 0 -35 -6q-12 25 -12 28
q0 18 30 24q23 4 43 0q36 -7 50 -39q4 -9 4 -17q0 -27 -31 -44q-19 -11 -38 -14q7 -4 26 -23q4 -4 10 -4q13 0 28 22q41 59 62 56q17 -3 31 -45q13 -38 23 -38q6 0 15 5q37 23 37 55q0 11 -4 24q-7 23 -37 47q-19 16 -78 53q-39 25 -53 35q-25 19 -59 53q-47 47 -47 123
q0 96 62 164q67 74 153 74q22 0 47 -4q55 -9 87 -59q29 -46 29 -105q0 -89 -57 -117q-30 -15 -63 -15q-66 0 -95 57q-12 25 -12 51q0 49 36.5 90t82.5 51q-29 11 -54 11q-45 0 -90 -27.5t-66 -67.5q-27 -52 -22 -106q8 -75 69 -121zM336 602q-66 -11 -94 -70
q-12 -25 -12 -50q0 -41 32 -64q23 -17 50 -17t49 19.5t22 63.5q0 34 -14 69t-33 49z" />
    <glyph glyph-name="dha.al" 
d="M259 38q36 20 52 101q10 51 6 94q-8 89 -59 136q-44 41 -119 41q-86 0 -139 -43q-4 3 -10 8.5t-6 15.5q0 9 4 20q47 21 75 62q19 36 78 132q49 73 131 73q26 0 52 -9q67 -23 97 -88q21 -46 21 -103q0 -16 -2 -27q0 -3 -8.5 -8.5t-14.5 -5.5q-7 0 -8 7q4 53 -21 103
q-29 62 -87 82q-15 5 -31 5q-54 0 -91 -44q-24 -28 -68 -97q-37 -58 -54 -72q43 18 98 18q99 0 153 -56q48 -50 55 -131q5 -62 -14 -130q-29 -103 -94 -120q-18 -5 -31 -5q-26 0 -39 17q-10 12 -17.5 36t-8.5 26q-11 -20 -37 -53q-31 -25 -60 -25q-60 0 -60 47q0 30 29 76
q36 56 58 68q5 1 12 1q29 0 29 -14q0 -4 -4 -8q-20 -18 -53 -54q-22 -34 -22 -51q0 -13 17 -23q3 -2 8 -2q22 0 35 28q34 71 61 67q19 -3 36 -56q14 -43 37 -43q6 0 14 4z" />
    <glyph glyph-name="dha.i" 
d="M159 76q-11 -20 -37 -53q-31 -25 -60 -25q-60 0 -60 47q0 30 29 76q36 56 58 68q5 1 12 1q29 0 29 -14q0 -4 -4 -8q-20 -18 -53 -54q-22 -34 -22 -51q0 -13 17 -23q3 -2 8 -2q22 0 35 28q34 71 61 67q19 -3 36 -56q14 -43 39 -43q7 0 14 4q44 21 44 71q0 11 -3 22
q-6 24 -25 42.5t-72 49.5q-30 17 -59 35q-33 21 -65 53q-47 47 -47 123q0 96 62 164q67 74 158 74q23 0 48 -4q53 -8 81 -57q24 -42 24 -101q0 -86 -38 -119q-4 -3 -18 5.5t-16 20.5q39 37 39 97q0 42 -23 74.5t-66 40.5q-14 3 -28 3q-53 0 -101 -34q-41 -28 -57 -61
q-26 -52 -26 -99q0 -78 66 -127q22 -16 67 -42q51 -29 68 -41q41 -28 55 -43q24 -29 22 -67q-2 -39 -31.5 -72.5t-62.5 -43.5q-16 -5 -30 -5q-33 0 -47 27q-10 26 -21 52z" />
    <glyph glyph-name="dha.ii" 
d="M139 311q22 -16 67 -42q51 -29 68 -41q41 -28 55 -43q24 -29 22 -67q-2 -39 -31.5 -72.5t-62.5 -43.5q-16 -5 -30 -5q-33 0 -47 27q-10 26 -21 52q-11 -20 -37 -53q-31 -25 -60 -25q-60 0 -60 47q0 30 29 76q36 56 58 68q5 1 12 1q29 0 29 -14q0 -4 -4 -8
q-20 -18 -53 -54q-22 -34 -22 -51q0 -13 17 -23q3 -2 8 -2q22 0 35 28q34 71 61 67q19 -3 36 -56q14 -43 39 -43q7 0 14 4q44 21 44 71q0 11 -3 22q-6 24 -25 42.5t-72 49.5q-30 17 -59 35q-33 21 -65 53q-47 47 -47 123q0 96 62 164q67 74 154 74q22 0 47 -4q55 -9 87 -59
q29 -46 29 -105q0 -89 -57 -117q-30 -15 -63 -15q-66 0 -95 57q-12 25 -12 51q0 49 36.5 90t82.5 51q-29 11 -54 11q-49 0 -95 -30q-38 -25 -62.5 -65.5t-23.5 -94.5q0 -79 69 -131zM331 602q-66 -11 -94 -70q-12 -25 -12 -50q0 -41 32 -64q23 -17 50 -17t49 19.5t22 63.5
q0 34 -14 69t-33 49z" />
    <glyph glyph-name="ba.al" horiz-adv-x="386" 
d="M250 2q-20 -5 -35 -5q-29 0 -36 19q-3 16 -13 51q-19 61 -44 61q-6 0 -14 -5q-16 -10 -27.5 -42.5t-11.5 -61.5q0 -9 1 -16q-11 -9 -31 -9q-34 0 -32 16q4 39 27 79q21 36 44 52.5t51 16.5q34 0 48.5 -23t22.5 -51q5 -20 10 -38t11 -17q26 4 58 49t45 96q6 25 6 53
q0 95 -64 144q-49 37 -126 37q-89 0 -140 -41q-4 3 -10 8.5t-6 15.5q0 9 4 20q47 21 75 62q19 36 78 132q49 73 131 73q26 0 52 -9q67 -23 97 -88q21 -46 21 -103q0 -16 -2 -27q0 -3 -8.5 -8.5t-14.5 -5.5q-7 0 -8 7q4 53 -21 103q-29 62 -87 82q-15 5 -31 5q-54 0 -91 -44
q-24 -28 -68 -97q-37 -58 -54 -72q42 18 96 18q97 0 157 -54q68 -61 68 -153q0 -51 -22 -108q-17 -44 -45 -78q-31 -36 -61 -44z" />
    <glyph glyph-name="ba.i" horiz-adv-x="380" 
d="M267 0q-16 -4 -31 -4q-36 0 -51 18q-11 14 -26 48q-8 21 -15 41q-11 24 -24 24q-5 0 -12 -4q-16 -10 -27.5 -42.5t-11.5 -61.5q0 -9 1 -16q-11 -9 -31 -9q-34 0 -32 16q4 39 27 79q21 36 43.5 52.5t48.5 16.5q35 0 49 -26q15 -32 30.5 -65t36.5 -33q8 0 17 4q50 24 47 79
q-2 38 -93 110q-84 66 -117 106q-48 57 -48 129q0 76 54 136q67 74 148 74q18 0 38 -4q54 -10 82 -58q24 -42 24 -100q0 -86 -39 -119q-4 -3 -18 5.5t-16 20.5q39 38 39 99q0 42 -22 72q-24 34 -67 39q-10 1 -19 1q-86 0 -142 -97q-21 -37 -21 -74q0 -63 64 -127
q13 -13 122 -95q41 -31 57 -51q26 -33 25 -71q-1 -40 -28.5 -72t-61.5 -41z" />
    <glyph glyph-name="ba.ii" horiz-adv-x="380" 
d="M153 330q13 -13 122 -95q41 -31 57 -51q26 -33 25 -71q-1 -40 -28.5 -72t-61.5 -41q-16 -4 -31 -4q-36 0 -51 18q-11 14 -26 48q-8 21 -15 41q-10 24 -24 24q-5 0 -12 -4q-16 -10 -27.5 -42.5t-11.5 -61.5q0 -9 1 -16q-11 -9 -31 -9q-34 0 -32 16q4 39 27 79
q21 36 43.5 52.5t48.5 16.5q35 0 49 -26q15 -32 30.5 -65t36.5 -33q8 0 17 4q50 24 47 79q-2 38 -93 110q-84 66 -117 106q-48 57 -48 129q0 76 54 136q67 74 153 74q22 0 47 -4q55 -9 87 -59q29 -46 29 -105q0 -89 -57 -117q-30 -15 -63 -15q-66 0 -95 57q-12 25 -12 51
q0 49 36.5 90t82.5 51q-29 11 -53 11q-51 0 -98 -34q-36 -27 -55 -61.5t-19 -70.5q0 -68 68 -136zM336 602q-66 -11 -94 -70q-12 -25 -12 -50q0 -41 32 -64q23 -17 50 -17t49 19.5t22 63.5q0 34 -14 69t-33 49z" />
    <glyph glyph-name="ma.al" horiz-adv-x="338" 
d="M46 50q15 1 36 15t32 29q14 19 14 26q0 19 -18 19q-22 0 -34 -21q-16 -28 -20 -36q-7 -17 -10 -32zM212 40q35 9 57 47q19 33 20 67q3 138 -110 207q-64 39 -155 39q-17 0 -31 -2q-5 5 -9 10q-8 8 -8 17q0 4 2 9q66 16 116 63q13 12 28 37q20 33 26 41q71 96 140 93
q52 -2 80 -52q24 -42 24 -105q0 -89 -37 -120q-4 -3 -18 5.5t-16 20.5q36 35 36 100q0 48 -21 80q-24 35 -63 31q-49 -5 -92 -80q-47 -83 -125 -113q49 4 118 -27q61 -27 90 -57q68 -72 68 -156q0 -35 -8 -76q-7 -35 -32.5 -65.5t-56.5 -41.5q-45 -17 -124 -17q-64 0 -83 12
t-19 40q0 19 8 41q16 42 51 81q18 20 49 20q21 0 39.5 -10.5t18.5 -39.5q0 -24 -18 -49q-22 -30 -68 -56q44 -14 123 6z" />
    <glyph glyph-name="ma.i" horiz-adv-x="384" 
d="M46 50q15 1 36 15t32 29q14 19 14 26q0 19 -18 19q-22 0 -34 -21q-16 -28 -20 -36q-7 -17 -10 -32zM9 47q0 19 8 41q16 42 51 81q18 20 49 20q21 0 39.5 -10.5t18.5 -39.5q0 -24 -18 -49q-22 -30 -68 -56q26 -8 44 -8q30 0 79 12q34 9 56 36t18 57q-4 25 -23 46t-68 54
q-68 46 -103 88q-46 55 -46 131q0 86 56 148q67 74 148 74q18 0 38 -4q54 -10 82 -58q24 -42 24 -100q0 -86 -39 -119q-4 -3 -18 5.5t-16 20.5q39 38 39 99q0 42 -22 72q-24 34 -67 39q-10 1 -19 1q-86 0 -142 -97q-23 -40 -23 -82q0 -73 58 -131q38 -28 115.5 -86.5
t72.5 -118.5q-6 -64 -98 -101q-44 -18 -120 -18q-67 0 -86.5 12.5t-19.5 40.5z" />
    <glyph glyph-name="ma.ii" horiz-adv-x="384" 
d="M46 50q15 1 36 15t32 29q14 19 14 26q0 19 -18 19q-22 0 -34 -21q-16 -28 -20 -36q-7 -17 -10 -32zM145 318q38 -28 115.5 -86.5t72.5 -118.5q-6 -64 -98 -101q-44 -18 -120 -18q-67 0 -86.5 12.5t-19.5 40.5q0 19 8 41q16 42 51 81q18 20 49 20q21 0 39.5 -10.5
t18.5 -39.5q0 -24 -18 -49q-22 -30 -68 -56q26 -8 44 -8q30 0 79 12q34 9 56 36t18 57q-4 25 -23 46t-68 54q-68 46 -103 88q-46 55 -46 131q0 86 56 148q67 74 153 74q22 0 47 -4q55 -9 87 -59q29 -46 29 -105q0 -89 -57 -117q-30 -15 -63 -15q-66 0 -95 57q-12 25 -12 51
q0 49 36.5 90t82.5 51q-29 11 -53 11q-52 0 -100 -34q-39 -28 -57 -61q-20 -37 -20 -76q0 -78 65 -143zM336 602q-66 -11 -94 -70q-12 -25 -12 -50q0 -41 32 -64q23 -17 50 -17t49 19.5t22 63.5q0 34 -14 69t-33 49z" />
    <glyph glyph-name="mba.al" 
d="M78 113q27 -4 62 13q16 8 15 21q-1 8 -10 8q-11 0 -29 -10q-2 -1 -38 -32zM277 41q26 17 40 64q11 38 11 79q0 123 -67 185q-44 41 -119 41q-86 0 -139 -43q-4 3 -10 8.5t-6 15.5q0 9 4 20q47 21 75 62q19 36 78 132q49 73 131 73q26 0 52 -9q67 -23 97 -88
q21 -46 21 -103q0 -16 -2 -27q0 -3 -8.5 -8.5t-14.5 -5.5q-7 0 -8 7q4 53 -21 103q-29 62 -87 82q-15 5 -31 5q-54 0 -91 -44q-24 -28 -68 -97q-37 -58 -54 -72q43 18 98 18q99 0 153 -56q58 -60 58 -163q0 -47 -13 -98q-26 -101 -78 -118q-18 -6 -36 -6q-49 0 -49 31
q0 10 12 24t12 16q0 5 -19 4q-29 -2 -29 -14q0 -2 1 -8.5t1 -10.5q0 -11 -6 -20q-13 -22 -87 -22q-39 0 -55 14.5t-16 37.5q0 34 30 71q21 26 73 55q26 14 55 14q23 0 33 -13q7 -9 7 -19q0 -34 -54 -57t-87 -17q-10 -15 -10 -33q0 -17 12 -21t23 -4q27 0 39 17q2 12 12 34
q28 33 78 35q18 1 30 -9.5t12 -22.5q0 -7 -4 -11q-13 -15 -13 -26t11 -11q10 0 23 9z" />
    <glyph glyph-name="mba.i" 
d="M78 113q27 -4 62 13q16 8 15 21q-1 8 -10 8q-14 0 -37 -15q-19 -13 -30 -27zM193 29q0 10 12 24t12 16q0 5 -19 4q-29 -2 -29 -14q0 -2 1 -8.5t1 -10.5q0 -11 -6 -20q-13 -22 -87 -22q-39 0 -55 14.5t-16 37.5q0 34 30 71q23 29 67 53q28 16 61 16q24 0 33 -13
q7 -9 7 -19q0 -34 -54 -57t-87 -17q-10 -15 -10 -33q0 -17 12 -21t23 -4q27 0 39 17q2 12 12 34q28 33 78 35q18 1 30 -9.5t12 -22.5q0 -7 -4 -11q-14 -15 -14 -26q0 -9 12 -9q9 0 23 7q39 21 39 64q0 12 -3 26q-6 24 -25.5 42t-73.5 50q-30 17 -59 35q-33 21 -65 53
q-47 47 -47 123q0 96 62 164q67 74 158 74q23 0 48 -4q53 -8 81 -57q24 -42 24 -101q0 -86 -38 -119q-4 -3 -18 5.5t-16 20.5q39 37 39 97q0 42 -23 74.5t-66 40.5q-14 3 -28 3q-47 0 -92 -27.5t-69 -68.5q-27 -46 -26 -93q1 -73 69 -132q22 -19 66 -43q55 -31 69 -40
q43 -29 56 -43q25 -29 23 -67q-2 -46 -38 -83.5t-82 -37.5q-17 0 -31 8q-18 9 -18 24z" />
    <glyph glyph-name="mba.ii" 
d="M78 113q27 -4 62 13q16 8 15 21q-1 8 -10 8q-14 0 -37 -15q-19 -13 -30 -27zM90 311q-49 49 -49 130q0 93 58 157q67 74 157 74q23 0 48 -4q55 -9 87 -59q29 -46 29 -105q0 -89 -57 -117q-30 -15 -63 -15q-66 0 -95 57q-12 25 -12 51q0 49 36.5 90t82.5 51q-27 10 -51 10
q-48 0 -91.5 -28t-69.5 -72q-23 -39 -23 -88q0 -39 18 -72q14 -27 53 -60q22 -19 66 -43q55 -31 69 -40q43 -29 56 -43q25 -29 23 -67q-2 -46 -38 -83.5t-82 -37.5q-17 0 -31 8q-18 9 -18 24q0 10 12 24t12 16q0 5 -19 4q-12 -1 -18 -2q-11 -3 -11 -11q0 5 2 -17
q1 -13 -6 -23q-15 -22 -87 -22q-39 0 -55 14.5t-16 37.5q0 34 30 71q23 29 67 53q28 16 61 16q24 0 33 -13q7 -9 7 -19q0 -34 -54 -57t-87 -17q-10 -15 -10 -33q0 -17 12 -21t23 -4q27 0 39 17q3 12 12 34q10 15 25 23q25 12 53 11q18 -1 30 -11t12 -21q0 -6 -4 -10
q-14 -15 -14 -26q0 -9 12 -9q9 0 23 7q39 21 39 64q0 12 -3 26q-6 24 -25.5 42t-73.5 50q-30 17 -59 35q-33 21 -65 53zM338 602q-66 -11 -94 -70q-12 -25 -12 -50q0 -41 32 -64q23 -17 50 -17t49 19.5t22 63.5q0 34 -14 69t-33 49z" />
    <glyph glyph-name="va.al" horiz-adv-x="340" 
d="M19 231q-5 5 -9 11q-8 9 -8 18q0 5 2 10q59 14 70 88q6 54 11 107q9 70 29 109q49 97 137 97q17 0 37 -3q53 -8 81 -57q24 -42 24 -101q0 -86 -38 -119q-4 -3 -18 5.5t-16 20.5q39 37 39 96q0 42 -23 74.5t-66 41.5q-14 3 -27 3q-72 0 -103 -87q-16 -44 -30 -171
q-9 -90 -42 -105q14 1 30 1q104 0 164.5 -37.5t65.5 -116.5q4 -63 -94 -104q-42 -18 -120 -18q-67 0 -85 11.5t-18 26.5q0 18 23 34q22 11 45 22q31 15 30 27q-2 22 -47 22q-14 0 -23 -4q-12 25 -12 28q0 12 17 20q14 6 28 6q13 0 28 -4q34 -10 50 -45q3 -6 3 -12
q0 -29 -37 -52q-40 -25 -36 -30q16 -20 57 -20q32 0 76 14q37 11 56.5 36.5t15.5 56.5q-5 32 -19 50q-22 26 -76 42q-77 23 -172 8z" />
    </font>
</defs>
</svg>
