<?xml version="1.0" standalone="no"?>
<!DOCTYPE svg PUBLIC "-//W3C//DTD SVG 1.1//EN" "http://www.w3.org/Graphics/SVG/1.1/DTD/svg11.dtd" >
<svg xmlns="http://www.w3.org/2000/svg" xmlns:xlink="http://www.w3.org/1999/xlink" version="1.1">
<metadata>
Created by FontForge 20201107 at Fri Jan 10 00:16:44 2020
 By 
Generated by Fontographer 4.1 by Pushpananda Ekanayaka - The Font master - September 2002
</metadata>
<defs>
<font id="UN-Davasa" horiz-adv-x="418" >
  <font-face 
    font-family="UN-Davasa"
    font-weight="300"
    font-stretch="normal"
    units-per-em="1000"
    panose-1="0 0 3 0 0 0 0 0 0 0"
    ascent="800"
    descent="-200"
    bbox="-404 -164 1640.24 788"
    underline-thickness="20"
    underline-position="-143"
    unicode-range="U+000D-25CC"
  />
<missing-glyph horiz-adv-x="166" 
 />
    <glyph glyph-name=".notdef" horiz-adv-x="166" 
 />
    <glyph glyph-name=".null" horiz-adv-x="0" 
 />
    <glyph glyph-name="nonmarkingreturn" unicode="&#xd;" horiz-adv-x="166" 
 />
    <glyph glyph-name="NULL" horiz-adv-x="0" 
 />
    <glyph glyph-name="NULL" horiz-adv-x="0" 
 />
    <glyph glyph-name="space" unicode=" " horiz-adv-x="166" 
 />
    <glyph glyph-name="exclaim" unicode="!" horiz-adv-x="208" 
d="M44 642h112v-514h-112v514zM43 -2h113v67h-113v-67z" />
    <glyph glyph-name="quote" unicode="&#x22;" horiz-adv-x="408" 
d="M241 581q-5 31 -6 35v10q0 47 39 49q23 2 32 -14q7 -11 9 -36v-9q0 -5 -3 -30l-23 -198h-23zM167 597q-1 -4 -1 -9l-24 -200h-22l-25 198q-2 16 -3 28t-1 20q0 16 11 29q10 12 27 12q22 0 31 -13q9 -14 9 -36q0 -1 -0.5 -5.5l-1.5 -13.5v-10z" />
    <glyph glyph-name="hash" unicode="#" horiz-adv-x="500" 
d="M324 414h-106l-45 -168h106zM114 246l47 169h-107l8 36h107l58 210h60l-58 -210h105l57 210h59l-58 -210h107l-10 -36h-106l-45 -169h106l-10 -37h-105l-57 -209h-61l59 209h-106l-57 -209h-59l57 209h-105l8 37h106z" />
    <glyph glyph-name="percentage" unicode="%" horiz-adv-x="464" 
d="M170 690q32 0 32 -40v-152q0 -17 -10 -28q-11 -12 -24 -12h-114q-39 0 -39 40v152q0 40 32 40h123zM102 636q-16 0 -16 -18v-86q0 -18 16 -18h12q15 0 15 18v86q0 18 -16 18h-11zM277 694h105l-225 -701h-101zM406 225q36 0 36 -40v-152q0 -15 -11 -28q-11 -12 -27 -12
h-127q-43 0 -43 40v152q0 40 35 40h137zM330 171q-17 0 -17 -18v-86q0 -18 17 -18h14q17 0 17 18v86q0 18 -18 18h-13z" />
    <glyph glyph-name="apostrophe" unicode="'" horiz-adv-x="180" 
d="M124 627v-6q0 -1 -0.5 -6t-1.5 -14l-24 -215h-17l-26 198l-3 24q0 19 -1 24q0 15 6 29t29 14t30 -13q8 -14 8 -33v-2z" />
    <glyph glyph-name="bracket_open" unicode="(" horiz-adv-x="226" 
d="M203 541h-24q-26 0 -26 -26v-505q0 -23 25 -23h25v-65h-103q-32 0 -51 19t-19 48v536q0 34 19 57q19 24 46 24h107z" />
    <glyph glyph-name="bracket_close" unicode=")" horiz-adv-x="226" 
d="M22 606h107q26 0 46 -24q19 -23 19 -57v-536q0 -29 -19 -48t-51 -19h-103v65h25q25 0 25 23v505q0 26 -26 26h-24z" />
    <glyph glyph-name="asterisk" unicode="*" horiz-adv-x="594" 
d="M151 368l75 116l69 -39l-64 -123zM363 322l-64 123l69 39l75 -116zM443 686l-75 -116l-69 39l64 123zM510 482l-138 6v78l138 6v-90zM84 572l138 -6v-78l-138 -6v90zM231 732l64 -123l-69 -39l-75 116z" />
    <glyph glyph-name="plus" unicode="+" horiz-adv-x="439" 
d="M156 294v132h115v-132h113v-86h-113v-138h-115v138h-110v86h110z" />
    <glyph glyph-name="comma" unicode="," horiz-adv-x="190" 
d="M62 -1l-36 1v93h133v-92l-66 -105h-78z" />
    <glyph glyph-name="minus" unicode="-" horiz-adv-x="370" 
d="M71 281h219v-88h-219v88z" />
    <glyph glyph-name="dot" unicode="." horiz-adv-x="186" 
d="M22 0v96h133v-96h-133z" />
    <glyph glyph-name="slash" unicode="/" horiz-adv-x="330" 
d="M180 667h105l-144 -674h-101z" />
    <glyph glyph-name="0" unicode="0" horiz-adv-x="340" 
d="M159 583q-22 0 -22 -22v-475q0 -21 17 -21h22q16 0 16 21v475q0 22 -22 22h-11zM252 646q64 0 64 -84v-471q0 -94 -60 -94h-169q-30 0 -51 26q-21 25 -21 65v486q0 27 19 50q19 24 46 24h171z" />
    <glyph glyph-name="1" unicode="1" horiz-adv-x="242" 
d="M66 0v576h-33v70h156v-646h-123z" />
    <glyph glyph-name="2" unicode="2" horiz-adv-x="329" 
d="M140 282q41 46 41 73v203q0 23 -17 23h-9q-18 0 -18 -21v-171h-122v188q0 27 17 49q16 21 45 21h166q61 0 61 -64v-237q0 -56 -46 -105l-87 -94q-30 -32 -30 -48v-34h165v-66h-291v107q0 41 28 72z" />
    <glyph glyph-name="3" unicode="3" horiz-adv-x="329" 
d="M142 306h-74v67h74q39 0 39 47v140q0 23 -17 23h-9q-18 0 -18 -21v-125h-122v142q0 27 17 49q16 21 45 21h166q61 0 61 -64v-147q0 -59 -42 -87q42 -24 42 -91v-195q0 -64 -61 -64h-166q-29 0 -45 21q-17 22 -17 49v160h122v-143q0 -21 18 -21h9q17 0 17 23v151
q0 26 -10 46q-11 21 -30 21z" />
    <glyph glyph-name="4" unicode="4" horiz-adv-x="352" 
d="M89 173h87v339zM15 97v116l122 435h157v-474h33v-77h-31v-98h-117v98h-164z" />
    <glyph glyph-name="5" unicode="5" horiz-adv-x="329" 
d="M16 647h291v-66h-165v-116h91q31 0 51 -24q20 -25 20 -63v-315q0 -64 -61 -64h-166q-29 0 -45 21q-17 22 -17 49v200h122v-183q0 -21 18 -21h9q17 0 17 23v268q0 46 -38 46h-128z" />
    <glyph glyph-name="6" unicode="6" horiz-adv-x="329" 
d="M137 86q0 -21 18 -21h9q17 0 17 23v269q0 45 -15 45h-29v-316zM16 582q0 65 60 65h228v-66h-147q-19 0 -19 -18v-98h95q31 0 51 -24q20 -25 20 -63v-315q0 -64 -61 -64h-166q-29 0 -45 21q-17 22 -17 49v515z" />
    <glyph glyph-name="7" unicode="7" horiz-adv-x="322" 
d="M15 647h282v-68l-127 -580h-120l119 582h-154v66z" />
    <glyph glyph-name="8" unicode="8" horiz-adv-x="329" 
d="M15 253q0 72 43 93q-43 12 -43 87v146q0 27 17 49q16 21 45 21h166q61 0 61 -64v-147q0 -65 -42 -87q42 -20 42 -90v-195q0 -64 -61 -64h-166q-29 0 -45 21q-17 22 -17 49v181zM152 303q-15 0 -15 -61v-153q0 -21 18 -21h9q17 0 17 23v151q0 61 -18 61h-11zM137 419
q0 -47 16 -47h14q14 0 14 47v144q0 23 -17 23h-9q-18 0 -18 -21v-146z" />
    <glyph glyph-name="9" unicode="9" horiz-adv-x="329" 
d="M303 66q0 -65 -60 -65h-229v66h148q19 0 19 18v98h-95q-32 0 -51 24q-20 25 -20 63v315q0 64 61 64h166q28 0 45 -21q17 -22 17 -49v-515zM181 564q0 21 -18 21h-9q-17 0 -17 -23v-269q0 -45 15 -45h29v316z" />
    <glyph glyph-name="colon" unicode=":" horiz-adv-x="186" 
d="M22 109v96h133v-96h-133zM22 323v96h133v-96h-133z" />
    <glyph glyph-name="semicolon" unicode=";" horiz-adv-x="181" 
d="M26 164v96h133v-96h-133zM62 -1l-36 1v93h133v-92l-66 -105h-78z" />
    <glyph glyph-name="lessthan" unicode="&#x3c;" horiz-adv-x="564" 
d="M535 -8l-505 247v27l505 248v-75l-374 -186l374 -187v-74z" />
    <glyph glyph-name="equals" unicode="=" horiz-adv-x="374" 
d="M50 217h269v-89h-269v89zM320 283h-270v89h270v-89z" />
    <glyph glyph-name="greaterthan" unicode="&#x3e;" horiz-adv-x="564" 
d="M9 514l544 -248v-27l-544 -247v74l413 187l-413 186v75z" />
    <glyph glyph-name="question" unicode="?" horiz-adv-x="329" 
d="M160 311q21 18 21 71v177q0 23 -17 23h-9q-18 0 -18 -21v-171h-122v188q0 27 17 49q16 21 45 21h166q61 0 61 -64v-209q0 -55 -41 -96l-44 -43q-26 -26 -26 -58v-41h-124v48q0 49 40 83zM196 95v-96h-126v96h126z" />
    <glyph glyph-name="at" unicode="@" horiz-adv-x="921" 
d="M426 177q58 0 93 93q34 93 36 137q1 55 -54 55q-54 0 -97 -84q-38 -74 -38 -133q0 -69 60 -69v1zM92 305q0 160 128 267q120 101 283 102q131 2 227 -75t96 -199q0 -91 -55 -171q-62 -90 -147 -90q-52 0 -78 32q-16 20 -17 47q-11 -32 -45 -56q-35 -24 -69 -24
q-60 0 -96 39t-36 99q0 80 62 151q61 70 141 70q32 0 57 -16q25 -17 33 -45l16 49h80l-26 -83q-5 -17 -12.5 -40.5t-17.5 -54.5q-20 -72 -20 -90q0 -17 13 -29t30 -12q64 0 109 84q39 70 39 140q2 110 -87 176q-79 59 -193 61q-129 1 -235 -90q-113 -98 -114 -237
q-1 -133 95 -213q90 -75 226 -75q50 0 101 13q86 21 144 67l19 -28q-138 -87 -280 -87q-146 0 -256 86q-117 93 -117 236z" />
    <glyph glyph-name="backslash" unicode="\" horiz-adv-x="330" 
d="M285 -7h-101l-144 674h105z" />
    <glyph glyph-name="brace_open" unicode="{" horiz-adv-x="402" 
d="M334 699h-94q-32 0 -32 -28v-282q0 -25 -9 -49q-11 -30 -30 -33q39 -24 39 -76v-285q0 -44 26 -44h101v-66h-206q-54 0 -54 60v330q0 20 -13 33q-17 17 -42 17v66q55 -3 55 54v312q0 60 50 60h209v-69z" />
    <glyph glyph-name="brace_close" unicode="}" horiz-adv-x="402" 
d="M60 768h209q50 0 50 -60v-312q0 -57 55 -54v-66q-26 0 -41 -15t-15 -35v-330q0 -60 -54 -60h-206v66h101q26 0 26 44v285q0 52 39 76q-20 3 -30 33q-9 24 -9 49v282q0 28 -32 28h-94z" />
    <glyph glyph-name="degree" unicode="&#xb0;" horiz-adv-x="264" 
d="M201 686q32 0 32 -38v-144q0 -17 -9 -27q-9 -11 -24 -11h-137q-39 0 -39 38v144q0 38 32 38h145zM110 635q-15 0 -15 -17v-82q0 -17 15 -17h35q15 0 15 17v82q0 17 -16 17h-34z" />
    <glyph glyph-name="paragraphsign" unicode="&#xb6;" horiz-adv-x="453" 
d="M431 645q-29 -2 -42 -13q-20 -17 -27 -75q-6 -47 -6 -134v-272q0 -119 -30 -180q-55 -115 -212 -115q-49 0 -75 17q-26 13 -28 44q-2 16 12 30q14 11 32 11q44 0 45 -43q1 -13 -11 -29q53 -1 76 56q11 32 17 113q1 10 3 60v167q-89 0 -147 51q-59 51 -59 140q0 52 27 96
q27 43 74 66q30 13 75 21q40 6 120 6h157v-19zM213 181q0 -72 -0.5 -112t-1.5 -50q-12 -101 -68 -136l1 -6q101 20 132 109q19 53 19 195v187q0 52 1 93t3 72q6 86 34 111h-80q-7 0 -19 -22q-10 -15 -13 -27q-5 -18 -6 -75v-18.5t-1 -24.5z" />
    <glyph glyph-name="middledot" unicode="&#xb7;" horiz-adv-x="250" 
d="M169 329q0 -26 -16 -42t-42 -16q-25 0 -42 17q-16 16 -16 42q0 23 15 40q15 16 39 18q24 1 42 -15q18 -17 18 -41z" />
    <glyph glyph-name="multiply" unicode="&#xd7;" 
d="M209 181l-102 -102l-66 68l102 101l-100 99l67 66l99 -99l100 99l67 -67l-100 -98l104 -106l-66 -65z" />
    <glyph glyph-name="divide" unicode="&#xf7;" horiz-adv-x="442" 
d="M40 288h353v-81h-353v81zM273 424v-98h-118v98h118zM273 174v-98h-118v98h118z" />
    <glyph glyph-name="anusa" unicode="&#xd82;" horiz-adv-x="338" 
d="M158 336q-22 0 -22 -37v-195q0 -39 20 -39h19q19 0 19 37v196q0 38 -17 38h-19zM238 395q75 0 75 -96v-204q0 -97 -72 -97l-157 1q-69 0 -69 85v218q0 41 19 67q19 27 55 27h149v-1z" />
    <glyph glyph-name="visar" unicode="&#xd83;" horiz-adv-x="265" 
d="M197 245q36 0 36 -40v-152q0 -15 -11 -28q-11 -12 -27 -12h-127q-43 0 -43 40v152q0 40 35 40h137zM121 191q-17 0 -17 -18v-86q0 -18 17 -18h14q17 0 17 18v86q0 18 -18 18h-13zM197 523q36 0 36 -40v-152q0 -15 -11 -28q-11 -12 -27 -12h-127q-43 0 -43 40v152
q0 40 35 40h137zM121 469q-17 0 -17 -18v-86q0 -18 17 -18h14q17 0 17 18v86q0 18 -18 18h-13z" />
    <glyph glyph-name="v_a" unicode="&#xd85;" horiz-adv-x="480" 
d="M91 -1q-76 0 -76 98v212q0 31 18 54t47 23h42v60q0 19 -28 19h-73v65h144q33 0 47 -11t14 -44v-156h-63q-24 0 -24 -17v-211q0 -26 36 -26h97v409q0 17 15 37q15 19 35 19h132v-65h-40q-21 0 -21 -31v-369h64v-65h-64v-134h-122v134z" />
    <glyph glyph-name="v_aa" unicode="&#xd86;" horiz-adv-x="500" 
d="M324 414h-106l-45 -168h106zM114 246l47 169h-107l8 36h107l58 210h60l-58 -210h105l57 210h59l-58 -210h107l-10 -36h-106l-45 -169h106l-10 -37h-105l-57 -209h-61l59 209h-106l-57 -209h-59l57 209h-105l8 37h106z" />
    <glyph glyph-name="v_ae" unicode="&#xd87;" horiz-adv-x="500" 
d="M324 414h-106l-45 -168h106zM114 246l47 169h-107l8 36h107l58 210h60l-58 -210h105l57 210h59l-58 -210h107l-10 -36h-106l-45 -169h106l-10 -37h-105l-57 -209h-61l59 209h-106l-57 -209h-59l57 209h-105l8 37h106z" />
    <glyph glyph-name="v_aee" unicode="&#xd88;" horiz-adv-x="500" 
d="M324 414h-106l-45 -168h106zM114 246l47 169h-107l8 36h107l58 210h60l-58 -210h105l57 210h59l-58 -210h107l-10 -36h-106l-45 -169h106l-10 -37h-105l-57 -209h-61l59 209h-106l-57 -209h-59l57 209h-105l8 37h106z" />
    <glyph glyph-name="v_i" unicode="&#xd89;" horiz-adv-x="448" 
d="M262 191q0 -75 -66 -75h-118q-29 0 -47 23q-18 22 -18 54v252q0 29 14 55q18 31 49 31h276q69 0 69 -91v-322q0 -80 -66 -87q18 -5 30 -21q12 -17 12 -30v-40q0 -26 -18 -42q-17 -16 -43 -16h-274v66h184q24 0 24 16v12q0 24 -24 24l-189 -1v66h193q51 0 51 52v315
q0 32 -16 32h-130q-17 0 -17 -36v-219q0 -20 15 -20h7q11 0 11 31v205h93z" />
    <glyph glyph-name="v_ii" unicode="&#xd8a;" horiz-adv-x="447" 
d="M97 672q20 0 20 -18v-57q0 -19 -18 -19h-66q-18 0 -18 19v55q0 20 19 20h63zM49 608q0 -7 7 -7h19q8 0 8 8v35q0 8 -7 8h-20q-7 0 -7 -7v-37zM167 465q-9 0 -19 -6t-10 -17v-352q0 -11 12 -18q11 -7 23 -7h69q29 0 29 28v342q0 30 -45 30h-59zM302 530q39 0 65 -21
t26 -59v-360q0 -91 -69 -91h-233q-76 0 -76 98v355q0 25 15 45q2 2 11.5 10.5t26.5 25.5l126 119h132l-116 -122h93h-1zM401 626q20 0 20 -18v-57q0 -19 -18 -19h-66q-18 0 -18 19v55q0 20 19 20h63zM353 562q0 -7 7 -7h19q8 0 8 8v35q0 8 -7 8h-20q-7 0 -7 -7v-37z" />
    <glyph glyph-name="v_u" unicode="&#xd8b;" horiz-adv-x="360" 
d="M90 -91q-76 0 -76 98v296q0 31 18 54t47 23h152v66q0 19 -28 19h-143v65h214q33 0 47 -11t14 -44v-160h-173q-24 0 -24 -17v-297q0 -26 36 -26h161v-66h-245z" />
    <glyph glyph-name="v_uu" unicode="&#xd8c;" horiz-adv-x="500" 
d="M324 414h-106l-45 -168h106zM114 246l47 169h-107l8 36h107l58 210h60l-58 -210h105l57 210h59l-58 -210h107l-10 -36h-106l-45 -169h106l-10 -37h-105l-57 -209h-61l59 209h-106l-57 -209h-59l57 209h-105l8 37h106z" />
    <glyph glyph-name="v_iru" unicode="&#xd8d;" horiz-adv-x="741" 
d="M420 95q0 -98 -72 -96l-97 1q-20 0 -37 29q-11 -29 -30 -29h-101q-68 0 -68 85v220q0 34 17 63t44 29h23v55q0 14 -17 14h-65v65h133q53 0 53 -53v-141h-40q-25 0 -25 -37v-208q0 -26 15 -27q19 -1 19 27v142h90v-136q0 -33 19 -33q16 0 16 29v204q0 37 -22 37h-44v143
q0 52 59 52h131v-65h-66q-19 0 -19 -14v-56h25q60 0 60 -95v-204zM455 528h180q32 0 57 -20q24 -20 24 -51v-458h-94l-10 40q-25 -40 -57 -40h-48q-64 0 -64 78v208q0 28 21 51t53 23h84v77q0 28 -32 28h-116zM600 294h-18q-20 0 -20 -24v-134q0 -56 10 -56q14 0 27 34z" />
    <glyph glyph-name="v_iruu" unicode="&#xd8e;" horiz-adv-x="500" 
d="M324 414h-106l-45 -168h106zM114 246l47 169h-107l8 36h107l58 210h60l-58 -210h105l57 210h59l-58 -210h107l-10 -36h-106l-45 -169h106l-10 -37h-105l-57 -209h-61l59 209h-106l-57 -209h-59l57 209h-105l8 37h106z" />
    <glyph glyph-name="v_ilu" unicode="&#xd8f;" horiz-adv-x="708" 
d="M551 211h55v276q0 24 -26 24h-52q-19 0 -19 -11v-8h33v-65h-72q-19 0 -19 -14v-56h31q60 0 60 -95v-51h9zM436 540q0 51 62 51h120q29 0 48 -19q17 -17 17 -36v-475q0 -47 -39 -47h-113q-10 0 -15 1q-17 -16 -46 -16l-238 1q-26 0 -42 15q-5 -1 -15 -1h-113q-39 0 -39 47
v475q0 20 18 38t47 18h120q62 0 62 -51v-49h16q53 0 53 -53v-142h-30q-22 0 -22 -37v-156q0 -39 26 -39h79q26 0 26 37v157q0 37 -22 37h-36v144q0 52 59 52h16zM165 264q0 93 61 93h31v55q0 14 -17 14h-73v65h30v8q0 11 -19 11h-52q-26 0 -26 -24v-276h65v54zM98 101
q0 -6 10 -6h40q9 0 9 7v25q0 7 -9 7h-41q-9 0 -9 -7v-26zM609 127q0 7 -9 7h-41q-9 0 -9 -7v-25q0 -7 9 -7h40q10 0 10 6v26z" />
    <glyph glyph-name="v_iluu" unicode="&#xd90;" horiz-adv-x="500" 
d="M324 414h-106l-45 -168h106zM114 246l47 169h-107l8 36h107l58 210h60l-58 -210h105l57 210h59l-58 -210h107l-10 -36h-106l-45 -169h106l-10 -37h-105l-57 -209h-61l59 209h-106l-57 -209h-59l57 209h-105l8 37h106z" />
    <glyph glyph-name="v_e" unicode="&#xd91;" horiz-adv-x="426" 
d="M168 249q-24 0 -24 -17v-141q0 -26 36 -26h61q36 0 36 31v314q-14 1 -18 3q-8 3 -12 13l-45 111q-11 24 -12 43h-37v66h156q39 0 65 -21t26 -59v-476q0 -91 -69 -91h-233q-76 0 -76 98v99q0 37 30 54h-51v73h128v40q0 19 -28 19h-73v69h144q33 0 47 -11t14 -44v-147h-65z
M238 580l46 -114v94q0 20 -20 20h-26z" />
    <glyph glyph-name="v_ee" unicode="&#xd92;" horiz-adv-x="426" 
d="M284 709h116v-619q0 -91 -69 -91h-233q-76 0 -76 98v85q0 37 30 54h-51v73h128v40q0 19 -28 19h-73v69h144q33 0 47 -11t14 -44v-147h-63q-24 0 -24 -17v-127q0 -26 36 -26h61q36 0 36 31v300q-14 1 -18 3q-8 3 -12 13l-45 102q-9 21 -12 43h-37v66h130zM239 557l46 -105
v85q0 20 -20 20h-26z" />
    <glyph glyph-name="v_ei" unicode="&#xd93;" horiz-adv-x="500" 
d="M324 414h-106l-45 -168h106zM114 246l47 169h-107l8 36h107l58 210h60l-58 -210h105l57 210h59l-58 -210h107l-10 -36h-106l-45 -169h106l-10 -37h-105l-57 -209h-61l59 209h-106l-57 -209h-59l57 209h-105l8 37h106z" />
    <glyph glyph-name="v_o" unicode="&#xd94;" horiz-adv-x="440" 
d="M250 -2q-20 0 -37 29q-11 -29 -30 -29h-93q-76 0 -76 97v351q0 31 18 54t47 23h72q53 0 53 -37v-107q0 -27 14 -27q11 0 11 31v134h37v-186q0 -7 -8 -15q-7 -7 -17 -7h-50q-24 0 -24 24v102q0 16 -12 18q-18 1 -18 -19v-343q0 -26 17 -26t17 27v142h90v-136q0 -33 15 -33
q16 0 16 31v431q0 49 -42 49h-236v70h310q39 0 65 -21t26 -59v-476q0 -90 -69 -90h-94z" />
    <glyph glyph-name="v_oo" unicode="&#xd95;" horiz-adv-x="440" 
d="M414 88q0 -90 -69 -90h-94q-20 0 -37 29q-11 -29 -30 -29h-93q-76 0 -76 97v299q0 31 18 54t47 23h72q53 0 53 -37v-106q0 -27 14 -27q11 0 11 31v133h37v-185q0 -7 -8 -15q-7 -7 -17 -7h-50q-24 0 -24 24v101q0 16 -12 18q-18 1 -18 -19v-291q0 -26 17 -26t17 27v108h90
v-102q0 -33 15 -33q16 0 16 31v391q0 30 -43 30h-235v70h59q-32 11 -32 33v31q0 13 14 25q13 12 33 12h319v-65h-210q-31 0 -31 -18t32 -18h125q40 0 66 -21q25 -21 25 -59v-417z" />
    <glyph glyph-name="v_ou" unicode="&#xd96;" horiz-adv-x="500" 
d="M324 414h-106l-45 -168h106zM114 246l47 169h-107l8 36h107l58 210h60l-58 -210h105l57 210h59l-58 -210h107l-10 -36h-106l-45 -169h106l-10 -37h-105l-57 -209h-61l59 209h-106l-57 -209h-59l57 209h-105l8 37h106z" />
    <glyph glyph-name="ka" unicode="&#xd9a;" horiz-adv-x="536" 
d="M112 298h23v-219q0 -14 9 -14q10 0 10 29v168h80v-160q0 -37 9 -37q11 0 11 28v292zM392 412q0 31 -6 33q-2 1 -13 -5l-13 -8v-348q0 -84 -62 -84h-69q-22 0 -33 26q-14 -26 -33 -26h-81q-24 0 -43 21q-19 20 -19 56v95q0 65 16 78h-25v69l227 135q-2 11 -30 11h-182v65
h261q41 0 47 -20l28 12q21 8 42 8h49q58 0 58 -90v-441h-122z" />
    <glyph glyph-name="kha" unicode="&#xd9b;" horiz-adv-x="448" 
d="M13 -1v449q0 31 18 54t47 23h108q66 0 66 -75v-299q4 3 9 3q8 0 18 -13t15 -13q6 0 6 24v395q0 30 -43 30h-243v70h318q39 0 65 -21t26 -59v-476q0 -91 -65 -91h-40q-26 0 -47 46q-11 22 -18 21q-5 -50 -30 -75h-64q12 16 12 74v354q0 31 -11 31h-7q-15 0 -15 -20v-432
h-125z" />
    <glyph glyph-name="ga" unicode="&#xd9c;" horiz-adv-x="438" 
d="M266 465q-12 0 -12 -28v-353q0 -84 -61 -84h-118q-60 0 -60 82v448h121v-439q0 -26 13 -26h7q13 0 13 30v344q0 91 68 91h107q69 0 69 -74v-456h-122v440q0 25 -8 25h-17z" />
    <glyph glyph-name="gha" unicode="&#xd9d;" horiz-adv-x="451" 
d="M423 97q0 -96 -72 -96h-78q-19 0 -36 14q-17 13 -21 24q-5 -11 -18 -24q-18 -15 -34 -15h-80q-68 0 -68 85v193q0 29 33 55h-51v63h102v55q0 14 -17 14h-65v65h133q53 0 53 -53v-141h-31q-15 0 -24 -12t-9 -24v-208q0 -26 15 -27q17 -2 17 29q0 11 -5 34t-5 36v79
q0 17 11 33q10 15 27 15h39q16 0 28 -14t12 -33v-81q0 -16 -6 -37t-6 -30q0 -19 3 -25t16 -6q16 0 16 29v204q0 37 -22 37h-44v143q0 52 59 52h131v-65h-66q-19 0 -19 -14v-56h25q60 0 60 -95v-204zM211 218q-11 0 -11 -17v-20q0 -18 8 -48q8 -29 9 -43q1 15 12 45
q10 26 10 47v20q0 16 -10 16h-17h-1z" />
    <glyph glyph-name="knaasi" unicode="&#xd9e;" horiz-adv-x="453" 
d="M264 1q-25 0 -39 29q-14 -29 -36 -29h-89q-76 0 -76 97v127q0 21 18 39t47 18h49q23 0 23 20v26h-98q-26 0 -36 6q-15 9 -15 38v97q0 57 50 57h142q33 0 47 -11t14 -44v-203q0 -46 -44 -46h-38q-9 0 -22 -10t-13 -24v-91q0 -32 17 -32t17 27v88h90v-82q0 -33 17 -33
q16 0 16 33v448q0 35 -45 35h-235v65h312q39 0 65 -21t26 -59v-476q0 -48 -12 -69t-43 -21h-108zM106 463q-21 0 -21 -24v-44q0 -20 24 -20h35q19 0 19 16v44q0 28 -16 28h-41z" />
    <glyph glyph-name="nga" unicode="&#xd9f;" horiz-adv-x="537" 
d="M365 465q-12 0 -12 -28v-353q0 -84 -61 -84h-118q-60 0 -60 82v383h-10q-11 0 -18 -10q-8 -11 -8 -22v-433h-63v449q0 29 18 53q21 28 55 28h147v-439q0 -26 13 -26h7q13 0 13 30v344q0 91 68 91h107q69 0 69 -74v-456h-122v440q0 25 -8 25h-17z" />
    <glyph glyph-name="cha" unicode="&#xda0;" 
d="M171 316q-9 0 -22 -10t-13 -24v-185q0 -32 35 -32h61q37 0 37 33v448q0 35 -45 35h-211v65h288q39 0 65 -21t26 -59v-476q0 -91 -69 -91h-233q-76 0 -76 98v162q0 35 28 57h-42v64h121v61q0 19 -28 19h-73v65h144q33 0 47 -11t14 -44v-155z" />
    <glyph glyph-name="Ja" unicode="&#xda1;" horiz-adv-x="422" 
d="M394 95q0 -97 -72 -97l-238 1q-68 0 -68 85v218q0 93 61 93h12v55q0 14 -17 14h-54v65h101q53 0 53 -53v-142h-11q-22 0 -22 -37v-194q0 -39 26 -39h79q26 0 26 37v32h-59q-36 0 -51 24q-11 16 0 48l40 130v142q0 52 38 52h38l45 128h70l-47 -128h14q13 0 24 -12
q11 -13 11 -28v-393zM334 452q0 12 -10 12h-6l-26 -72h42v60zM239 240q-3 -11 -3 -18q0 -17 30 -17h25q30 0 30 38v71q0 19 -22 19h-28z" />
    <glyph glyph-name="ja" unicode="&#xda2;" horiz-adv-x="422" 
d="M393 96q0 -97 -72 -97l-238 1q-68 0 -68 85v218q0 93 61 93h31v55q0 14 -17 14h-73v65h120q53 0 53 -53v-142h-30q-22 0 -22 -37v-194q0 -39 26 -39h79q26 0 26 37v195q0 37 -22 37h-36v144q0 28 16 41q14 11 28 11h6l73 122h89l-78 -122h48v-65h-72q-19 0 -19 -14v-56
h31q60 0 60 -95v-204v0z" />
    <glyph glyph-name="kdha" unicode="&#xda3;" horiz-adv-x="809" 
d="M112 298h23v-219q0 -14 9 -14q10 0 10 29v168h80v-160q0 -37 9 -37q11 0 11 28v292zM531 366q-24 0 -24 -17v-258q0 -26 17 -26t17 27v142h90v-136q0 -33 15 -33q16 0 16 31v431q0 49 -42 49h-236v70h310q39 0 65 -21t26 -59v-476q0 -90 -69 -90h-94q-20 0 -37 29
q-11 -29 -30 -29h-93q-76 0 -76 97v266q0 31 18 54t47 23h38q14 0 14 12q0 13 -15 13h-47q-26 0 -81 -33v-348q0 -84 -62 -84h-69q-22 0 -33 26q-14 -26 -33 -26h-81q-24 0 -43 21q-19 20 -19 56v95q0 65 16 78h-25v69l227 135q-2 11 -30 11h-182v65h261q41 0 47 -20l28 12
q21 8 42 8h107q71 0 71 -56v-63q0 -45 -37 -45h-14z" />
    <glyph glyph-name="kna" unicode="&#xda4;" horiz-adv-x="758" 
d="M204 298h23v-219q0 -14 9 -14q10 0 10 29v168h80v-160q0 -37 9 -37q11 0 11 28v292zM105 440q-11 0 -18 -10q-8 -11 -8 -22v-408h-63v424q0 29 18 53q21 28 55 28h21q1 25 40 25h230q41 0 47 -20l28 12q21 8 39 8h181q33 0 47 -11t14 -44v-161h-114q-27 0 -27 -23v-198
q0 -28 36 -28h105v-65h-48q-21 0 -21 -24v-40q0 -22 22 -22h55v-65h-138q-62 0 -62 57v64q0 22 18 30h-20q-70 0 -70 97v207q0 31 18 54t47 23h96v65q0 19 -28 19h-63q-31 0 -45 -8l-45 -25v-348q0 -84 -62 -84h-69q-22 0 -33 26q-14 -26 -33 -26h-81q-24 0 -43 21
q-19 20 -19 56v95q0 65 16 78h-25v69l227 135q-2 11 -30 11h-67q-21 0 -24 -25h-104z" />
    <glyph glyph-name="gna" unicode="&#xda5;" horiz-adv-x="674" 
d="M588 530q33 0 47 -11t14 -44v-161h-114q-27 0 -27 -23v-198q0 -28 36 -28h105v-65h-48q-21 0 -21 -24v-40q0 -22 22 -22h55v-65h-138q-62 0 -62 57v64q0 22 18 30h-20q-70 0 -70 97v207q0 31 18 54t47 23h96v64q0 20 -26 20h-141q-26 0 -26 -28v-353q0 -84 -61 -84h-118
q-60 0 -60 82v383h-10q-11 0 -18 -10q-8 -11 -8 -22v-433h-63v449q0 29 18 53q21 28 55 28h147v-439q0 -26 13 -26h7q13 0 13 30v344q0 91 68 91h253h-1z" />
    <glyph glyph-name="nja" unicode="&#xda6;" horiz-adv-x="422" 
d="M393 96q0 -97 -72 -97l-238 1q-68 0 -68 85v218q0 93 61 93h31v55q0 14 -17 14h-73v65h120q53 0 53 -53v-142h-30q-22 0 -22 -37v-194q0 -39 26 -39h79q26 0 26 37v195q0 37 -22 37h-36v144q0 28 16 41q14 11 28 11h6l73 122h89l-78 -122h48v-65h-72q-19 0 -19 -14v-56
h31q60 0 60 -95v-204v0z" />
    <glyph glyph-name="ta" unicode="&#xda7;" 
d="M161 451q-24 0 -24 -17v-343q0 -11 12 -18q13 -8 23 -8h67q31 0 31 27v454q0 30 -43 30h-213v70h288q39 0 65 -21t26 -59v-476q0 -91 -69 -91h-233q-76 0 -76 98v351q0 31 18 54t47 23h141v-74h-60z" />
    <glyph glyph-name="Ta" unicode="&#xda8;" horiz-adv-x="440" 
d="M254 580l46 -114v94q0 20 -20 20h-26zM250 0q-20 0 -37 29q-11 -29 -30 -29h-93q-76 0 -76 97v277q0 31 18 54t47 23h134l-1 -74h-51q-24 0 -24 -17v-269q0 -26 17 -26t17 27v142h90v-136q0 -33 15 -33q16 0 16 31v314q-14 1 -18 3q-8 3 -12 13l-45 111q-11 24 -12 43
h-37v66h156q39 0 65 -21t26 -59v-476q0 -90 -69 -90h-94h-2z" />
    <glyph glyph-name="Da" unicode="&#xda9;" horiz-adv-x="441" 
d="M253 1q-25 0 -39 29q-14 -29 -36 -29h-89q-76 0 -76 97v162q0 35 28 57h-42v64h121v61q0 19 -28 19h-73v65h144q33 0 47 -11t14 -44v-155h-52q-9 0 -22 -10t-13 -24v-185q0 -32 17 -32t17 27v142h90v-136q0 -33 17 -33q16 0 16 33v448q0 35 -45 35h-235v65h312
q39 0 65 -21t26 -59v-476q0 -48 -12 -69t-43 -21h-108z" />
    <glyph glyph-name="Dha" unicode="&#xdaa;" horiz-adv-x="445" 
d="M259 580l46 -114v94q0 20 -20 20h-26zM254 0q-20 0 -37 29q-11 -29 -30 -29h-93q-76 0 -76 97v86q0 43 36 66h-54v74h125v40q0 19 -28 19h-73v69h144q33 0 47 -11t14 -44v-147h-46q-15 0 -28 -9t-13 -24v-125q0 -26 17 -26t17 27v142h90v-136q0 -33 15 -33q16 0 16 31
v314q-14 1 -18 3q-8 3 -12 13l-45 111q-11 24 -12 43h-37v66h156q39 0 65 -21t26 -59v-476q0 -90 -69 -90h-94h-3z" />
    <glyph glyph-name="Na" unicode="&#xdab;" horiz-adv-x="610" 
d="M66 193q-25 4 -25 74v183q0 34 21 57t49 23h132l48 93h59l-48 -93q25 -3 36 -24q7 24 27 24h19q16 0 22 -21q12 21 38 21h67q74 0 74 -80v-360q0 -90 -81 -90h-132v65h61q28 0 28 28v349q0 23 -13 23h-5q-13 0 -13 -22v-263h-55v254q0 25 -9 25h-7q-13 0 -13 -31v-331
q0 -97 -73 -97h-146q-66 0 -66 43v27l-46 -73v97zM176 465q-26 0 -26 -27v-85l59 112h-33zM159 255h33v-67h-68l-18 -34q4 1 12 1q19 0 32 -11q12 -11 12 -24v-38q0 -17 18 -17h21q20 0 20 26v286z" />
    <glyph glyph-name="nDa" unicode="&#xdac;" horiz-adv-x="546" 
d="M198 460h-94q-11 0 -18 -10q-8 -11 -8 -22v-428h-63v444q0 29 18 53q21 28 55 28h181q32 0 46 -11q13 -10 13 -44v-155h-52q-9 0 -22 -10t-13 -24v-185q0 -32 17 -32t17 27v142h90v-136q0 -33 17 -33q16 0 16 33v448q0 35 -45 35h-235v65h312q38 0 64 -21q25 -21 25 -59
v-476q0 -48 -12 -69t-43 -21h-108q-25 0 -39 29q-14 -29 -36 -29h-89q-76 0 -76 97v162q0 35 28 57h-42v64h121v61q0 19 -28 19z" />
    <glyph glyph-name="tha" unicode="&#xdad;" horiz-adv-x="458" 
d="M110 266h25v-187q0 -14 13 -14h16q12 0 12 28v248zM310 412q0 31 -6 33q-6 1 -13 -6l-17 -17v-337q0 -84 -60 -84l-134 -1q-24 0 -43 21q-19 20 -19 56v67q0 57 16 70h-25v79l160 153q1 19 -26 19h-124v65h189q42 0 48 -21l21 13q14 8 33 8h55q68 0 68 -90v-441h-122z
" />
    <glyph glyph-name="Tha" unicode="&#xdae;" 
d="M161 377q-24 0 -24 -17v-269q0 -26 36 -26h61q36 0 36 31v314q-14 1 -18 3q-8 3 -12 13l-45 111q-11 24 -12 43h-37v66h156q39 0 65 -21t26 -59v-476q0 -91 -69 -91h-233q-76 0 -76 98v277q0 31 18 54t47 23h127v-74h-46zM231 580l46 -114v94q0 20 -20 20h-26z" />
    <glyph glyph-name="da" unicode="&#xdaf;" horiz-adv-x="304" 
d="M230 0q-21 0 -21 -24v-40q0 -22 22 -22h55v-65h-138q-62 0 -62 57v64q0 22 18 30h-20q-70 0 -70 97v207q0 31 18 54t47 23h96v65q0 19 -28 19h-110v65h181q33 0 47 -11t14 -44v-161h-114q-27 0 -27 -23v-198q0 -28 36 -28h105v-65h-48h-1z" />
    <glyph glyph-name="dha" unicode="&#xdb0;" horiz-adv-x="440" 
d="M250 0q-20 0 -37 29q-11 -29 -30 -29h-93q-76 0 -76 97v351q0 31 18 54t47 23h133v-74h-51q-24 0 -24 -17v-343q0 -26 17 -26t17 27v142h90v-136q0 -33 15 -33q16 0 16 31v431q0 49 -42 49h-236v70h310q39 0 65 -21t26 -59v-476q0 -90 -69 -90h-94h-2z" />
    <glyph glyph-name="na" unicode="&#xdb1;" horiz-adv-x="448" 
d="M135 231v-153q0 -13 12 -13h17q12 0 12 29v200zM304 404q0 43 -6 42q-2 0 -13 -11l-13 -20v-334q0 -80 -58 -80l-136 -1q-62 0 -62 82v304h94v-64l61 83q1 61 -24 61h-131v65h178q20 0 36 -31l18 20q11 11 33 11h72q31 0 50 -25q20 -26 20 -66v-441h-120z" />
    <glyph glyph-name="nda" unicode="&#xdb3;" horiz-adv-x="398" 
d="M102 437q-11 0 -18 -10q-8 -11 -8 -22v-406h-63v422q0 29 18 53q21 28 55 28h13q7 27 51 27h162q33 0 47 -11t14 -44v-161h-114q-27 0 -27 -23v-198q0 -28 36 -28h105v-65h-48q-21 0 -21 -24v-40q0 -22 22 -22h55v-65h-138q-62 0 -62 57v64q0 22 18 30h-20q-70 0 -70 97
v207q0 31 18 54t47 23h96v65q0 19 -22 19h-21q-16 0 -21 -5t-5 -21z" />
    <glyph glyph-name="pa" unicode="&#xdb4;" 
d="M393 96q0 -97 -72 -97l-238 1q-68 0 -68 85v218q0 93 61 93h31v55q0 14 -17 14h-73v65h120q53 0 53 -53v-142h-30q-22 0 -22 -37v-194q0 -39 26 -39h79q26 0 26 37v195q0 37 -22 37h-36v144q0 52 59 52h123v-65h-72q-19 0 -19 -14v-56h31q60 0 60 -95v-204v0z" />
    <glyph glyph-name="pha" unicode="&#xdb5;" 
d="M160 249q-24 0 -24 -17v-141q0 -26 36 -26h61q36 0 36 31v314q-14 1 -18 3q-8 3 -12 13l-45 111q-11 24 -12 43h-37v66h156q39 0 65 -21t26 -59v-476q0 -91 -69 -91h-233q-76 0 -76 98v149q0 31 18 54t47 23h42v40q0 19 -28 19h-73v69h144q33 0 47 -11t14 -44v-147h-65z
M230 580l46 -114v94q0 20 -20 20h-26z" />
    <glyph glyph-name="ba" unicode="&#xdb6;" horiz-adv-x="448" 
d="M14 -2v449q0 31 18 54t47 23h118q66 0 66 -75v-353q0 -32 15 -32h10q12 0 12 32v449q0 30 -43 30h-243v70h318q39 0 65 -21t26 -59v-476q0 -92 -69 -90l-116 1q-67 1 -67 82v338q0 31 -11 31h-7q-15 0 -15 -20v-432z" />
    <glyph glyph-name="bha" unicode="&#xdb7;" horiz-adv-x="443" 
d="M279 465q-12 0 -12 -28v-353q0 -84 -61 -84h-126q-60 0 -60 82v191q0 31 29 51h-47v64h84v61q0 15 -24 15h-40v65h86q54 0 54 -59v-144h-5q-16 0 -16 -47v-189q0 -26 13 -26h15q13 0 13 30v344q0 91 68 91h99q69 0 69 -74v-456h-122v440q0 25 -8 25z" />
    <glyph glyph-name="ma" unicode="&#xdb8;" horiz-adv-x="448" 
d="M137 91q0 -11 12 -18q13 -8 23 -8h97q31 0 31 27v454q0 30 -43 30h-243v70h318q39 0 65 -21t26 -59v-476q0 -91 -69 -91h-263q-76 0 -76 98v351q0 31 18 54t47 23h128q60 0 60 -67v-271q0 -50 -50 -50h-80zM157 206q13 0 13 25v189q0 31 -11 31h-7q-15 0 -15 -20v-225h20
z" />
    <glyph glyph-name="mba" unicode="&#xdb9;" horiz-adv-x="464" 
d="M220 43q0 -14 -11 -30q-11 -15 -21 -15h-97q-76 0 -76 97v351q0 31 18 54t47 23h85q53 0 53 -37v-107q0 -27 14 -27q11 0 11 31v134h48v-186q0 -7 -8 -15q-7 -7 -17 -7h-74q-24 0 -24 24v102q0 16 -12 18q-18 1 -18 -19v-343q0 -26 17 -26q28 0 28 13q0 7 -12 21
q-12 13 -12 24v115q0 34 32 34h68q34 0 34 -34v-115q0 -9 -11 -23t-11 -21q0 -13 29 -13q16 0 16 31v431q0 49 -42 49h-260v70h334q39 0 65 -21t26 -59v-476q0 -90 -69 -90h-94q-11 0 -26 15t-15 30v46q0 4 5 12t5 16v61q0 12 -9 12h-14q-10 0 -10 -14v-59q0 -9 4 -16t4 -12
v-46v-3z" />
    <glyph glyph-name="ya" unicode="&#xdba;" horiz-adv-x="436" 
d="M411 96q0 -98 -72 -96l-87 1q-23 0 -36 33q-15 -33 -35 -33h-98q-68 0 -68 85v445h123v-439q0 -25 14 -27t14 35v176h94v-174q0 -37 15 -37q12 0 12 29v197q0 37 -22 37h-88v140q0 62 59 62h172v-65h-97q-19 0 -19 -14v-56h59q60 0 60 -95v-204v0z" />
    <glyph glyph-name="ra" unicode="&#xdbb;" 
d="M167 465q-9 0 -19 -6t-10 -17v-352q0 -11 12 -18q11 -7 23 -7h69q29 0 29 28v342q0 30 -45 30h-59zM302 530q39 0 65 -21t26 -59v-360q0 -91 -69 -91h-233q-76 0 -76 98v355q0 25 15 45q5 6 38 36l140 124h141l-139 -127h93h-1z" />
    <glyph glyph-name="la" unicode="&#xdbd;" horiz-adv-x="438" 
d="M258 111q0 -33 18 -33q13 0 13 26v344q0 17 -30 17h-97q-26 0 -26 -20v-463q0 -30 43 -30h233v-70h-308q-39 0 -64 21t-25 59v477q0 91 69 91h253q76 0 76 -98v-352q0 -32 -18 -54q-18 -23 -47 -23h-124q-58 0 -58 79v308h93z" />
    <glyph glyph-name="va" unicode="&#xdc0;" 
d="M160 314q-24 0 -24 -17v-206q0 -26 36 -26h61q36 0 36 31v451q0 34 -43 34h-213v65h288q39 0 65 -21t26 -59v-476q0 -91 -69 -91h-233q-76 0 -76 98v207q0 31 18 54t47 23h42v60q0 19 -28 19h-73v65h144q33 0 47 -11t14 -44v-156h-65z" />
    <glyph glyph-name="sha" unicode="&#xdc1;" horiz-adv-x="486" 
d="M266 465q-12 0 -12 -28v-353q0 -84 -61 -84h-118q-60 0 -60 82v448h121v-439q0 -26 13 -26h7q13 0 13 30v344q0 91 68 91h155q69 0 69 -74v-379q0 -31 -17 -53q-18 -24 -49 -24h-123v231q0 59 49 59h19l-1 150q0 25 -8 25h-65zM332 238q-17 0 -17 -18v-155h15q13 0 13 14
v159h-11z" />
    <glyph glyph-name="Sha" unicode="&#xdc2;" 
d="M392 94q0 -97 -72 -97l-238 1q-68 0 -68 85v218q0 93 61 93h31v55q0 14 -17 14h-73v65h120q53 0 53 -53v-140h-30q-22 0 -22 -37v-209q0 -26 14 -26h103q14 0 14 29v186q-27 -14 -27 -64q1 -97 0 -118h-82v148q0 25 26 51q3 3 15.5 13t35.5 27h-26v142q0 52 59 52h62
q22 0 42 -15q21 -18 21 -43v-44q0 -46 -22 -59q21 -8 21 -69v-203zM273 405q23 0 30 -4l12 8q6 4 6 16v28q0 11 -11 11h-27q-10 0 -10 -12v-47z" />
    <glyph glyph-name="sa" unicode="&#xdc3;" horiz-adv-x="446" 
d="M419 95q0 -98 -72 -96l-97 1q-20 0 -37 29q-11 -29 -30 -29h-101q-68 0 -68 85v193q0 29 33 55h-48v63h99v55q0 14 -17 14h-65v65h133q53 0 53 -53v-141h-31q-15 0 -24 -12t-9 -24v-208q0 -26 15 -27q19 -1 19 27v142h90v-136q0 -33 19 -33q16 0 16 29v204q0 37 -22 37
h-44v143q0 52 59 52h131v-65h-66q-19 0 -19 -14v-56h25q60 0 60 -95v-204z" />
    <glyph glyph-name="ha" unicode="&#xdc4;" horiz-adv-x="438" 
d="M274 465q-12 0 -12 -28v-353q0 -84 -61 -84h-126q-60 0 -60 82v223q0 84 56 84h10v61q0 15 -24 15h-40v65h86q54 0 54 -59v-144h-8q-13 0 -13 -42v-194q0 -26 13 -26h15q13 0 13 30v344q0 91 68 91h99q69 0 69 -74v-456h-122v440q0 25 -8 25h-9z" />
    <glyph glyph-name="La" unicode="&#xdc5;" horiz-adv-x="482" 
d="M188 196q0 -34 38 -34h72q29 0 29 25v30h116v-68q0 -27 -15 -43t-35 -16h-213q-46 0 -49 44v-152q0 -30 43 -30h130q40 0 40 34v72h114v-104q0 -30 -24 -51t-55 -21h-274q-39 0 -64 21t-25 59v314q0 71 55 68v95q0 91 70 91h62q43 0 57 -24q10 24 56 24h65q76 0 76 -98
v-154h-269v-82zM334 448q0 17 -19 17t-19 -19v-74h-74v75q0 18 -18 18q-20 0 -20 -20v-95h150v98z" />
    <glyph glyph-name="fa" unicode="&#xdc6;" horiz-adv-x="440" 
d="M345 561q69 0 69 -90v-390q0 -38 -25 -59q-26 -21 -64 -21h-77v74h11q22 0 30 11q5 8 5 33v345q0 31 -16 31q-15 0 -15 -33v-285h-90v291q0 27 -17 27t-17 -26v-350q0 -45 40 -45h12v-74h-110q-29 0 -48 28q-18 25 -18 57l1 378q0 97 76 97h93q19 0 30 -29q17 29 37 29z
" />
    <glyph glyph-name="al" unicode="&#xdca;" horiz-adv-x="2" 
d="M-140 683h116v-232q-12 46 -33 63q-20 16 -63 16h-21z" />
    <glyph glyph-name="aa" unicode="&#xdcf;" horiz-adv-x="180" 
d="M1 530h103q51 0 51 -69v-383q0 -78 -59 -78h-95v65h13q21 0 21 29v352q0 19 -18 19h-16v65z" />
    <glyph glyph-name="ae" unicode="&#xdd0;" horiz-adv-x="207" 
d="M182 531v-59l-42 -53q-15 -20 -15 -78v-254q0 -21 23 -21h34v-66h-122q-55 0 -55 56v269q0 52 20 72l67 68h-86v65z" />
    <glyph glyph-name="aee" unicode="&#xdd1;" horiz-adv-x="207" 
d="M182 530v-59l-60 -57h62v-48l-44 -56q-15 -20 -15 -78v-146q0 -21 23 -21h34v-66h-122q-55 0 -55 56v161q0 51 20 73l63 67h-80v54l66 55h-68v65h176z" />
    <glyph glyph-name="i" unicode="&#xdd2;" horiz-adv-x="2" 
d="M-396 585q0 60 74 60h222q73 0 73 -57v-45h-123v28q0 16 -19 16h-84q-18 0 -18 -14v-30h-125v42z" />
    <glyph glyph-name="ii" unicode="&#xdd3;" horiz-adv-x="2" 
d="M-396 585q0 60 74 60h224q36 0 50 -6q21 -11 21 -37v-36q0 -31 -46 -31h-118q-25 0 -25 28v32h-43q-19 0 -19 -15v-37h-118v42zM-151 596q-8 0 -8 -9v-16q0 -7 10 -7h53q10 0 10 7v17q0 8 -10 8h-55z" />
    <glyph glyph-name="u" unicode="&#xdd4;" horiz-adv-x="2" 
d="M-402 -130v68h256v61l51 1q26 2 45 19q23 23 25 73v-222h-377z" />
    <glyph glyph-name="uu" unicode="&#xdd6;" horiz-adv-x="2" 
d="M-130 -132q-8 26 -48 26q-12 0 -22 -3l-111 -35q-11 -3 -23 -3q-27 0 -49 17q-21 16 -21 44v49h101q-1 -25 15 -25q12 0 30 7l46 15q18 5 31 5q29 0 35 -15v48l51 1q26 1 46 21q24 25 24 72v-222z" />
    <glyph glyph-name="gp" unicode="&#xdd8;" horiz-adv-x="312" 
d="M27 529h180q32 0 57 -20q24 -20 24 -51v-458h-94l-10 40q-25 -40 -57 -40h-48q-64 0 -64 78v208q0 28 21 51t53 23h84v77q0 28 -32 28h-116zM172 295h-18q-20 0 -20 -24v-134q0 -56 10 -56q14 0 27 34z" />
    <glyph glyph-name="e" unicode="&#xdd9;" horiz-adv-x="346" 
d="M321 96q0 -97 -72 -97l-166 1q-68 0 -68 85v352q0 93 73 93h226v-65h-156q-20 0 -20 -39v-322q0 -39 22 -39h17q20 0 20 37v195q0 25 -18 25h-18v74h100q60 0 60 -71v-229z" />
    <glyph glyph-name="ee" unicode="&#xdda;" horiz-adv-x="2" 
d="M-140 683h116v-232q-12 46 -33 63q-20 16 -63 16h-21z" />
    <glyph glyph-name="ei" unicode="&#xddb;" horiz-adv-x="690" 
d="M665 96q0 -97 -72 -97l-166 1q-68 0 -68 85v352q0 93 73 93h226v-65h-156q-20 0 -20 -39v-322q0 -39 22 -39h17q20 0 20 37v195q0 25 -18 25h-18v74h100q60 0 60 -71v-229zM319 96q0 -97 -72 -97l-166 1q-68 0 -68 85v352q0 93 73 93h226v-65h-156q-20 0 -20 -39v-322
q0 -39 22 -39h17q20 0 20 37v195q0 25 -18 25h-18v74h100q60 0 60 -71v-229z" />
    <glyph glyph-name="o" unicode="&#xddc;" horiz-adv-x="180" 
d="M1 530h103q51 0 51 -69v-383q0 -78 -59 -78h-95v65h13q21 0 21 29v352q0 19 -18 19h-16v65z" />
    <glyph glyph-name="oo" unicode="&#xddd;" horiz-adv-x="180" 
d="M1 530h103q51 0 51 -69v-383q0 -78 -59 -78h-95v65h13q21 0 21 29v352q0 19 -18 19h-16v65zM39 683h116v-232q-12 46 -33 63q-20 16 -63 16h-21z" />
    <glyph glyph-name="ou" unicode="&#xdde;" horiz-adv-x="349" 
d="M186 465q-17 0 -17 -21v-77q0 -64 -46 -64h-60q-47 0 -47 77v150h65v-126q0 -26 15 -26q16 0 16 27v77q0 48 39 48h117q57 0 57 -86v-366q0 -34 -16 -54q-20 -24 -54 -24h-176q-28 0 -46 18t-18 50v162h122v-114q0 -27 1 -31q4 -19 21 -19h13q28 0 28 46v328q0 25 -15 25
h1z" />
    <glyph glyph-name="gk" unicode="&#xddf;" horiz-adv-x="349" 
d="M186 465q-17 0 -17 -21v-77q0 -64 -46 -64h-60q-47 0 -47 77v150h65v-126q0 -26 15 -26q16 0 16 27v77q0 48 39 48h117q57 0 57 -86v-366q0 -34 -16 -54q-20 -24 -54 -24h-176q-28 0 -46 18t-18 50v162h122v-114q0 -27 1 -31q4 -19 21 -19h13q28 0 28 46v328q0 25 -15 25
h1z" />
    <glyph glyph-name="dgp" unicode="&#xdf2;" horiz-adv-x="312" 
d="M27 529h180q32 0 57 -20q24 -20 24 -51v-458h-94l-10 40q-25 -40 -57 -40h-48q-64 0 -64 78v208q0 28 21 51t53 23h84v77q0 28 -32 28h-116zM172 295h-18q-20 0 -20 -24v-134q0 -56 10 -56q14 0 27 34z" />
    <glyph glyph-name="dgk" unicode="&#xdf3;" horiz-adv-x="349" 
d="M186 465q-17 0 -17 -21v-77q0 -64 -46 -64h-60q-47 0 -47 77v150h65v-126q0 -26 15 -26q16 0 16 27v77q0 48 39 48h117q57 0 57 -86v-366q0 -34 -16 -54q-20 -24 -54 -24h-176q-28 0 -46 18t-18 50v162l160 1v-119q0 -6 -6 -10.5t-13 -7.5t-12.5 -5.5t-5.5 -3.5
q4 -19 21 -19h13q28 0 28 46v328q0 25 -15 25h1z" />
    <glyph glyph-name="kundaliya" unicode="&#xdf4;" horiz-adv-x="1760" 
d="M108 28q7 -7 18 -7q7 0 39 13q19 7 69 48q46 37 66 42q31 7 45 -18l78 138l34 -98l125 167l30 -121l136 157l30 -149l147 168l14 -190l172 159l-24 -189l168 108l-34 -142l145 92l-32 -100q14 13 32 13q34 0 64 -45q15 -23 43 -39q29 -17 57 -17q14 0 25 4q-15 22 -15 45
q0 46 49 47q22 1 38 -14q15 -15 13 -39q-4 -68 -118 -64q-49 1 -100 45q-50 40 -72 39q-26 -1 -49 -15q-8 -5 -15.5 -10.5t-15.5 -10.5l26 90l-149 -92l30 136l-156 -103l18 166l-158 -149l-14 176l-135 -148l-30 145l-132 -149l-28 111l-113 -149l-30 86l-62 -110
q-19 34 -38 34q-3 0 -9 -2q-22 -13 -43 -25.5t-42 -25.5q-62 -38 -99 -39q-24 -1 -46 15q-23 16 -30 39q-3 7 -3 20q0 58 51 57q17 -2 30 -19q14 -19 14 -39q0 -24 -19 -39z" />
    <glyph glyph-name="zwj" unicode="&#x200d;" horiz-adv-x="166" 
 />
    <glyph glyph-name="hyphen" unicode="&#x2010;" horiz-adv-x="370" 
d="M71 281h219v-88h-219v88z" />
    <glyph glyph-name="dash_en" unicode="&#x2013;" horiz-adv-x="464" 
d="M413 234v-47h-370v47h370z" />
    <glyph glyph-name="quoteleft" unicode="&#x2018;" horiz-adv-x="238" 
d="M193 664q-50 -82 -50 -116q0 -6 2 -12q5 -11 13 -12q2 -1 26 -1v-59h-101q-20 0 -34 17q-13 16 -15 38q-5 61 54 147h106z" />
    <glyph glyph-name="quoteright" unicode="&#x2019;" horiz-adv-x="238" 
d="M38 466q50 82 50 116q0 6 -2 12q-5 11 -13 12q-2 1 -26 1v59h101q21 0 36 -17q13 -17 14 -37q4 -62 -54 -147h-106v1z" />
    <glyph glyph-name="dblquote_left" unicode="&#x201c;" horiz-adv-x="399" 
d="M193 664q-50 -82 -50 -116q0 -6 2 -12q5 -11 13 -12q2 -1 26 -1v-59h-101q-20 0 -34 17q-13 16 -15 38q-5 61 54 147h106zM357 662q-50 -82 -50 -116q0 -6 2 -12q5 -11 13 -12q2 -1 26 -1v-59h-101q-20 0 -34 17q-13 16 -15 38q-5 61 54 147h106z" />
    <glyph glyph-name="dblquote_right" unicode="&#x201d;" horiz-adv-x="399" 
d="M201 466q50 82 50 116q0 6 -2 12q-5 11 -13 12q-2 1 -26 1v59h101q21 0 36 -17q13 -17 14 -37q4 -62 -54 -147h-106v1zM36 467q50 82 50 116q0 6 -2 12q-5 11 -13 12q-2 1 -26 1v59h101q21 0 36 -17q13 -17 14 -37q4 -62 -54 -147h-106v1z" />
    <glyph glyph-name="bullet" unicode="&#x2022;" horiz-adv-x="346" 
d="M231 412q26 -23 26 -59q0 -38 -25 -62q-26 -24 -63 -24q-38 0 -63 25t-25 63q0 35 24 59t59 26q35 1 66 -26z" />
    <glyph glyph-name="dottedcircle" unicode="&#x25cc;" horiz-adv-x="166" 
 />
    <glyph glyph-name="ra.aee" horiz-adv-x="625" 
d="M167 465q-9 0 -19 -6t-10 -17v-352q0 -11 12 -18q11 -7 23 -7h69q29 0 29 28v342q0 30 -45 30h-59zM302 530q39 0 65 -21t26 -59v-360q0 -91 -69 -91h-233q-76 0 -76 98v355q0 25 15 45q2 2 11.5 10.5t26.5 25.5l126 119h132l-116 -122h93h-1zM599 652v-59l-60 -57h62
v-48l-44 -56q-15 -20 -15 -78v-268q0 -21 23 -21h34v-66h-122q-55 0 -55 56v283q0 51 20 73l63 67h-80v54l66 55h-155v65h263z" />
    <glyph glyph-name="da.aa" horiz-adv-x="472" 
d="M230 0q-21 0 -21 -24v-40q0 -22 22 -22h55v-65h-138q-62 0 -62 57v64q0 22 18 30h-20q-70 0 -70 97v207q0 31 18 54t47 23h96v65q0 19 -28 19h-110v65h181q33 0 47 -11t14 -44v-161h-114q-27 0 -27 -23v-198q0 -28 36 -28h105v-65h-48h-1zM297 530h103q51 0 51 -69v-383
q0 -78 -59 -78h-95v65h13q21 0 21 29v352q0 19 -18 19h-16v65z" />
    <glyph glyph-name="da.ae" horiz-adv-x="501" 
d="M230 0q-21 0 -21 -24v-40q0 -22 22 -22h55v-65h-138q-62 0 -62 57v64q0 22 18 30h-20q-70 0 -70 97v207q0 31 18 54t47 23h96v65q0 19 -28 19h-110v65h181q33 0 47 -11t14 -44v-161h-114q-27 0 -27 -23v-198q0 -28 36 -28h105v-65h-48h-1zM475 531v-59l-42 -53
q-15 -20 -15 -78v-254q0 -21 23 -21h34v-66h-122q-55 0 -55 56v269q0 52 20 72l67 68h-86v65z" />
    <glyph glyph-name="da.aee" horiz-adv-x="501" 
d="M230 0q-21 0 -21 -24v-40q0 -22 22 -22h55v-65h-138q-62 0 -62 57v64q0 22 18 30h-20q-70 0 -70 97v207q0 31 18 54t47 23h96v65q0 19 -28 19h-110v65h181q33 0 47 -11t14 -44v-161h-114q-27 0 -27 -23v-198q0 -28 36 -28h105v-65h-48h-1zM475 530v-59l-60 -57h62v-48
l-44 -56q-15 -20 -15 -78v-146q0 -21 23 -21h34v-66h-122q-55 0 -55 56v161q0 51 20 73l63 67h-80v54l66 55h-68v65h176z" />
    <glyph glyph-name="da.u" horiz-adv-x="304" 
d="M13 -62h140v62h-69q-70 0 -70 97v207q0 31 18 54t47 23h96v65q0 19 -28 19h-110v65h181q33 0 47 -11t14 -44v-161h-114q-27 0 -27 -23v-198q0 -28 36 -28h105v-195h-265z" />
    <glyph glyph-name="da.uu" horiz-adv-x="304" 
d="M176 0h-94q-70 0 -70 97v207q0 31 18 54t47 23h96v65q0 19 -28 19h-110v65h181q33 0 47 -11t14 -44v-161h-114q-27 0 -27 -23v-198q0 -28 36 -28h105v-195h-81q-7 19 -27 19q-15 0 -36 -10l-34 -15q-15 -7 -31 -7q-24 0 -40 16t-16 42v49h71q-1 -31 18 -31q8 0 15 4
q28 15 39 15q15 0 24 -14z" />
    <glyph glyph-name="da.oo" horiz-adv-x="472" 
d="M336 683h116v-605q0 -78 -59 -78h-95v65h13q21 0 21 29v352q0 19 -18 19h-16v65h38v153zM230 0q-21 0 -21 -24v-40q0 -22 22 -22h55v-65h-138q-62 0 -62 57v64q0 22 18 30h-20q-70 0 -70 97v207q0 31 18 54t47 23h96v65q0 19 -28 19h-110v65h181q33 0 47 -11t14 -44v-161
h-114q-27 0 -27 -23v-198q0 -28 36 -28h105v-65h-48h-1z" />
    <glyph glyph-name="da.i" horiz-adv-x="304" 
d="M230 0q-21 0 -21 -24v-40q0 -22 22 -22h55v-65h-138q-62 0 -62 57v64q0 22 18 30h-20q-70 0 -70 97v207q0 31 18 54t47 23h96v65q0 19 -28 19h-110v65h181q33 0 47 -11t14 -44v-161h-114q-27 0 -27 -23v-198q0 -28 36 -28h105v-65h-48h-1zM14 585q0 60 74 60h118
q73 0 73 -57v-45h-97v28q0 16 -19 16h-32q-18 0 -18 -14v-30h-99v42z" />
    <glyph glyph-name="da.ii" horiz-adv-x="304" 
d="M230 0q-21 0 -21 -24v-40q0 -22 22 -22h55v-65h-138q-62 0 -62 57v64q0 22 18 30h-20q-70 0 -70 97v207q0 31 18 54t47 23h96v65q0 19 -28 19h-110v65h181q33 0 47 -11t14 -44v-161h-114q-27 0 -27 -23v-198q0 -28 36 -28h105v-65h-48h-1zM14 586q0 60 63 60h145
q27 0 39 -5q18 -8 18 -33v-40q0 -25 -32 -25h-106q-16 0 -16 22v22h-21q-18 0 -18 -14v-30h-72v43zM184 602q-8 0 -8 -9v-10q0 -7 10 -7h35q10 0 10 7v11q0 8 -10 8h-37z" />
    <glyph glyph-name="la.u" horiz-adv-x="438" 
d="M104 14q-39 0 -64 21t-25 59v345q0 91 69 91h253q76 0 76 -98v-220q0 -32 -18 -54q-18 -23 -47 -23h-124q-58 0 -58 79v176h93v-147q0 -33 18 -33q13 0 13 26v212q0 17 -30 17h-97q-26 0 -26 -20v-331q0 -30 43 -30h233v-214h-398v68h277v76h-188z" />
    <glyph glyph-name="la.uu" horiz-adv-x="438" 
d="M411 -131h-105q-9 28 -51 28q-10 0 -19 -3l-131 -37q-11 -3 -21 -3q-27 0 -49 17q-21 16 -21 44v49h115q-6 -20 23 -20q10 0 28 5l45 14q17 5 28 5q32 0 38 -17v63h-187q-39 0 -64 21t-25 59v345q0 91 69 91h253q76 0 76 -98v-220q0 -32 -18 -54q-18 -23 -47 -23h-124
q-58 0 -58 79v176h93v-147q0 -33 18 -33q13 0 13 26v212q0 17 -30 17h-97q-26 0 -26 -20v-331q0 -30 43 -30h233z" />
    <glyph glyph-name="La.u" horiz-adv-x="515" 
d="M329 580l46 -114v94q0 20 -20 20h-26zM260 451q33 0 47 -11t14 -44v-147h-63q-24 0 -24 -17v-141q0 -26 36 -26h61q36 0 36 31v314q-14 1 -18 3q-8 3 -12 13l-45 111q-11 24 -12 43h-37v66h156q39 0 65 -21t26 -59v-476q0 -91 -69 -91h-233q-76 0 -76 98v149q0 31 18 54
t47 23h42v40q0 19 -28 19h-73v78h-14q-11 0 -18 -10q-8 -11 -8 -22v-428h-63v444q0 29 18 53q21 28 55 28h60q54 0 54 -45v-29h58z" />
    <glyph glyph-name="Ta.i" horiz-adv-x="440" 
d="M113 491q-64 0 -64 58v102q0 66 66 66h290v-50h-242q-22 0 -22 -22v-68q0 -30 18 -30h53q-7 18 -8 33h-37v66h156q39 0 65 -21t26 -59v-476q0 -90 -69 -90h-94q-20 0 -37 29q-11 -29 -30 -29h-93q-76 0 -76 97v277q0 31 18 54t47 23h134l-1 -74h-51q-24 0 -24 -17v-269
q0 -26 17 -26t17 27v142h90v-136q0 -33 15 -33q16 0 16 31v314q-14 1 -18 3q-8 3 -12 13l-26 64zM252 581l46 -114v94q0 20 -20 20h-26z" />
    <glyph glyph-name="Ta.ii" horiz-adv-x="440" 
d="M365 748q35 0 35 -29v-40q0 -28 -30 -28h-154q-24 0 -24 22v26h-27q-23 0 -23 -23v-99q0 -30 18 -30h52q-7 18 -8 33h-37v66h156q39 0 65 -21t26 -59v-476q0 -90 -69 -90h-94q-20 0 -37 29q-11 -29 -30 -29h-93q-76 0 -76 97v277q0 31 18 54t47 23h134l-1 -74h-51
q-24 0 -24 -17v-269q0 -26 17 -26t17 27v142h90v-136q0 -33 15 -33q16 0 16 31v314q-14 1 -18 3q-8 3 -12 13l-26 64h-121q-64 0 -64 58v133q0 66 66 66h249zM252 581l46 -114v94q0 20 -20 20h-26zM267 706q-15 0 -15 -12v-5q0 -13 16 -13h35q16 0 16 14v4q0 12 -17 12h-35z
" />
    <glyph glyph-name="Ja.al" horiz-adv-x="422" 
d="M333 453q0 12 -10 12h-6l-26 -72h42v60zM238 241q-3 -11 -3 -18q0 -17 30 -17h25q30 0 30 38v71q0 19 -22 19h-28zM273 683v-153h3l56 141h89l-77 -141h14q13 0 24 -12q11 -13 11 -28v-393q0 -97 -72 -97l-238 1q-68 0 -68 85v218q0 93 61 93h12v55q0 14 -17 14h-54v65
h101q53 0 53 -53v-142h-11q-22 0 -22 -37v-194q0 -39 26 -39h79q26 0 26 37v32h-59q-36 0 -51 24q-11 16 0 48l40 130v347z" />
    <glyph glyph-name="Ja.i" horiz-adv-x="422" 
d="M394 95q0 -97 -72 -97l-238 1q-68 0 -68 85v218q0 93 61 93h12v55q0 14 -17 14h-54v65h101q53 0 53 -53v-142h-11q-22 0 -22 -37v-194q0 -39 26 -39h79q26 0 26 37v32h-59q-36 0 -51 24q-11 16 0 48l40 130v142q0 52 38 52h38l54 151h70l-56 -151h14q13 0 24 -12
q11 -13 11 -28v-393zM334 452q0 12 -10 12h-6l-26 -72h42v60zM239 240q-3 -11 -3 -18q0 -17 30 -17h25q30 0 30 38v71q0 19 -22 19h-28zM30 586q0 60 74 60h195l-22 -58h-104q-18 0 -18 -14v-30h-125v42z" />
    <glyph glyph-name="Ja.ii" horiz-adv-x="422" 
d="M333 453q0 12 -10 12h-6l-26 -72h42v60zM238 241q-3 -11 -3 -18q0 -17 30 -17h25q30 0 30 38v71q0 19 -22 19h-28zM227 607q-8 0 -8 -9v-16q0 -7 10 -7h31q10 0 10 7v17q0 8 -10 8h-33zM193 543q-24 0 -24 20v25h-21q-18 0 -18 -14v-30h-99v42q0 60 74 60h166
q29 0 42 -13l18 48h69l-56 -151h14q13 0 24 -12q11 -13 11 -28v-393q0 -97 -72 -97l-238 1q-68 0 -68 85v218q0 93 61 93h12v55q0 14 -17 14h-54v65h101q53 0 53 -53v-142h-11q-22 0 -22 -37v-194q0 -39 26 -39h79q26 0 26 37v32h-59q-36 0 -51 24q-11 16 0 48l40 130v142
q0 52 38 52h38l4 13h-88z" />
    <glyph glyph-name="kha.al" horiz-adv-x="448" 
d="M422 90q0 -91 -65 -91h-40q-26 0 -47 46q-11 22 -18 21q-5 -50 -30 -75h-64q12 16 12 74v292q0 31 -11 31h-7q-15 0 -15 -20v-370h-123v387q0 31 18 54t47 23h108q66 0 66 -75v-237q4 3 9 3q8 0 18 -13t15 -13q6 0 6 24v336q0 30 -43 30h-243v70h59q-32 11 -32 33v31
q0 13 14 25q13 12 33 12h327v-65h-218q-31 0 -31 -18t32 -18h133q40 0 66 -21q25 -21 25 -59v-417h-1z" />
    <glyph glyph-name="kha.i" horiz-adv-x="448" 
d="M421 90q0 -91 -65 -91h-40q-26 0 -47 46q-11 22 -18 21q-5 -50 -30 -75h-64q12 16 12 74v292q0 31 -11 31h-7q-15 0 -15 -20v-370h-123v387q0 31 18 54t47 23h108q66 0 66 -75v-237q4 3 9 3q8 0 18 -13t15 -13q6 0 6 24v336q0 30 -43 30h-179q-64 0 -64 57v61q0 20 19 36
q20 17 46 17h337v-65h-245q-31 0 -31 -18t32 -18h160q40 0 66 -21q25 -21 25 -59v-417h-2z" />
    <glyph glyph-name="kha.ii" horiz-adv-x="448" 
d="M392 570q30 -23 30 -63v-417q0 -91 -65 -91h-40q-26 0 -47 46q-11 22 -18 21q-5 -50 -30 -75h-64q12 16 12 74v292q0 31 -11 31h-7q-15 0 -15 -20v-370h-123v387q0 31 18 54t47 23h108q66 0 66 -75v-237q4 3 9 3q8 0 18 -13t15 -13q6 0 6 24v336q0 30 -43 30h-179
q-64 0 -64 57v61q0 20 19 36q20 17 46 17h275q67 0 67 -55v-25q0 -26 -29 -38h-1zM163 623q-27 0 -27 -18t24 -18h61q-14 3 -14 20v16h-44zM300 634q-19 0 -19 -18v-6q0 -13 19 -13h5q19 0 19 13v6q0 18 -20 18h-4z" />
    <glyph glyph-name="cha.al" 
d="M392 91q0 -91 -69 -91h-233q-76 0 -76 98v119q0 35 28 57h-42v64h121v61q0 19 -28 19h-73v65h144q33 0 47 -11t14 -44v-155h-52q-9 0 -22 -10t-13 -24v-142q0 -32 35 -32h61q37 0 37 33v389q0 30 -43 30h-213v70h59q-32 11 -32 33v31q0 13 14 25q13 12 33 12h297v-65
h-188q-31 0 -31 -18t32 -18h103q40 0 66 -21q25 -21 25 -59v-417z" />
    <glyph glyph-name="cha.i" 
d="M391 91q0 -91 -69 -91h-233q-76 0 -76 98v119q0 35 28 57h-42v64h121v61q0 19 -28 19h-73v65h144q33 0 47 -11t14 -44v-155h-52q-9 0 -22 -10t-13 -24v-142q0 -32 35 -32h61q37 0 37 33v389q0 30 -43 30h-154q-58 0 -58 45v81q0 16 15 30q16 14 41 14h315v-65h-218
q-22 0 -26 -3q-5 -3 -5 -15q0 -11 5 -14q4 -3 27 -3h133q40 0 66 -21q25 -21 25 -59v-417z" />
    <glyph glyph-name="cha.ii" 
d="M190 586q-14 3 -14 20v16h-23q-21 0 -25 -3t-4 -15q0 -11 5 -14q4 -3 27 -3h36zM322 689q67 0 67 -55v-25q0 -26 -29 -38q30 -23 30 -63v-417q0 -91 -69 -91h-233q-76 0 -76 98v119q0 35 28 57h-42v64h121v61q0 19 -28 19h-73v65h144q33 0 47 -11t14 -44v-155h-52
q-9 0 -22 -10t-13 -24v-142q0 -32 35 -32h61q37 0 37 33v389q0 30 -43 30h-154q-58 0 -58 45v81q0 16 15 30q16 14 41 14h253zM268 635q-19 0 -19 -18v-6q0 -13 19 -13h5q19 0 19 13v6q0 18 -20 18h-4z" />
    <glyph glyph-name="ja.al" horiz-adv-x="422" 
d="M423 652l-78 -122h48v-65h-72q-19 0 -19 -14v-56h31q60 0 60 -95v-204q0 -97 -72 -97l-238 1q-68 0 -68 85v218q0 93 61 93h31v55q0 14 -17 14h-73v65h120q53 0 53 -53v-142h-30q-22 0 -22 -37v-194q0 -39 26 -39h79q26 0 26 37v195q0 37 -22 37h-36v349h83v-104l40 73
h89z" />
    <glyph glyph-name="ja.i" horiz-adv-x="422" 
d="M393 96q0 -97 -72 -97l-238 1q-68 0 -68 85v218q0 93 61 93h31v55q0 14 -17 14h-73v65h120q53 0 53 -53v-142h-30q-22 0 -22 -37v-194q0 -39 26 -39h79q26 0 26 37v195q0 37 -22 37h-36v144q0 28 16 41q14 11 28 11h6l78 140h84l-78 -140h48v-65h-72q-19 0 -19 -14v-56
h31q60 0 60 -95v-204zM29 586q0 60 74 60h200l-32 -58h-99q-18 0 -18 -14v-30h-125v42z" />
    <glyph glyph-name="ja.ii" horiz-adv-x="422" 
d="M227 606q-8 0 -8 -9v-16q0 -7 10 -7h31q10 0 10 7v17q0 8 -10 8h-33zM339 670h84l-78 -140h48v-65h-72q-19 0 -19 -14v-56h31q60 0 60 -95v-204q0 -97 -72 -97l-238 1q-68 0 -68 85v218q0 93 61 93h31v55q0 14 -17 14h-73v65h120q53 0 53 -53v-142h-30q-22 0 -22 -37
v-194q0 -39 26 -39h79q26 0 26 37v195q0 37 -22 37h-36v144q0 28 16 41q14 11 28 11h6l7 13h-77q-24 0 -24 20v25h-23q-18 0 -18 -14v-30h-97v42q0 60 74 60h166q33 0 48 -16z" />
    <glyph glyph-name="Dha.i" horiz-adv-x="445" 
d="M119 491q-64 0 -64 58v102q0 66 66 66h290v-50h-242q-22 0 -22 -22v-68q0 -30 18 -30h51q-7 18 -8 33h-37v66h156q39 0 65 -21t26 -59v-476q0 -90 -69 -90h-94q-20 0 -37 29q-11 -29 -30 -29h-93q-76 0 -76 97v86q0 43 36 66h-54v74h125v40q0 19 -28 19h-73v69h144
q33 0 47 -11t14 -44v-147h-46q-15 0 -28 -9t-13 -24v-125q0 -26 17 -26t17 27v142h90v-136q0 -33 15 -33q16 0 16 31v314q-14 1 -18 3q-8 3 -12 13l-26 64zM256 581l46 -114v94q0 20 -20 20h-26z" />
    <glyph glyph-name="Dha.ii" horiz-adv-x="445" 
d="M370 748q35 0 35 -29v-40q0 -28 -30 -28h-154q-24 0 -24 22v26h-27q-23 0 -23 -23v-99q0 -30 18 -30h51q-7 18 -8 33h-37v66h156q39 0 65 -21t26 -59v-476q0 -90 -69 -90h-94q-20 0 -37 29q-11 -29 -30 -29h-93q-76 0 -76 97v86q0 43 36 66h-54v74h125v40q0 19 -28 19
h-73v69h144q33 0 47 -11t14 -44v-147h-46q-15 0 -28 -9t-13 -24v-125q0 -26 17 -26t17 27v142h90v-136q0 -33 15 -33q16 0 16 31v314q-14 1 -18 3q-8 3 -12 13l-26 64h-120q-64 0 -64 58v133q0 66 66 66h249zM256 581l46 -114v94q0 20 -20 20h-26zM272 706q-15 0 -15 -12v-5
q0 -13 16 -13h35q16 0 16 14v4q0 12 -17 12h-35z" />
    <glyph glyph-name="Tha.i" 
d="M93 491q-64 0 -64 58v102q0 66 66 66h290v-50h-242q-22 0 -22 -22v-68q0 -30 18 -30h52q-7 18 -8 33h-37v66h156q39 0 65 -21t26 -59v-476q0 -91 -69 -91h-233q-76 0 -76 98v277q0 31 18 54t47 23h127v-74h-45q-24 0 -24 -17v-269q0 -26 36 -26h61q36 0 36 31v314
q-14 1 -18 3q-8 3 -12 13l-26 64zM231 581l46 -114v94q0 20 -20 20h-26z" />
    <glyph glyph-name="Tha.ii" 
d="M344 748q35 0 35 -29v-40q0 -28 -30 -28h-154q-24 0 -24 22v26h-27q-23 0 -23 -23v-99q0 -30 18 -30h52q-7 18 -8 33h-37v66h156q39 0 65 -21t26 -59v-476q0 -91 -69 -91h-233q-76 0 -76 98v277q0 31 18 54t47 23h127v-74h-45q-24 0 -24 -17v-269q0 -26 36 -26h61
q36 0 36 31v314q-14 1 -18 3q-8 3 -12 13l-26 64h-121q-64 0 -64 58v133q0 66 66 66h249zM231 581l46 -114v94q0 20 -20 20h-26zM246 706q-15 0 -15 -12v-5q0 -13 16 -13h35q16 0 16 14v4q0 12 -17 12h-35z" />
    <glyph glyph-name="gna.aa" horiz-adv-x="845" 
d="M588 530q33 0 47 -11t14 -44v-161h-114q-27 0 -27 -23v-198q0 -28 36 -28h105v-65h-48q-21 0 -21 -24v-40q0 -22 22 -22h55v-65h-138q-62 0 -62 57v64q0 22 18 30h-20q-70 0 -70 97v207q0 31 18 54t47 23h96v64q0 20 -26 20h-141q-26 0 -26 -28v-353q0 -84 -61 -84h-118
q-60 0 -60 82v383h-10q-11 0 -18 -10q-8 -11 -8 -22v-433h-63v449q0 29 18 53q21 28 55 28h147v-439q0 -26 13 -26h7q13 0 13 30v344q0 91 68 91h253h-1zM665 530h103q51 0 51 -69v-383q0 -78 -59 -78h-95v65h13q21 0 21 29v352q0 19 -18 19h-16v65z" />
    <glyph glyph-name="kna.aa" horiz-adv-x="930" 
d="M204 298h23v-219q0 -14 9 -14q10 0 10 29v168h80v-160q0 -37 9 -37q11 0 11 28v292zM105 440q-11 0 -18 -10q-8 -11 -8 -22v-408h-63v424q0 29 18 53q21 28 55 28h21q1 25 40 25h230q41 0 47 -20l28 12q21 8 39 8h181q33 0 47 -11t14 -44v-161h-114q-27 0 -27 -23v-198
q0 -28 36 -28h105v-65h-48q-21 0 -21 -24v-40q0 -22 22 -22h55v-65h-138q-62 0 -62 57v64q0 22 18 30h-20q-70 0 -70 97v207q0 31 18 54t47 23h96v65q0 19 -28 19h-63q-31 0 -45 -8l-45 -25v-348q0 -84 -62 -84h-69q-22 0 -33 26q-14 -26 -33 -26h-81q-24 0 -43 21
q-19 20 -19 56v95q0 65 16 78h-25v69l227 135q-2 11 -30 11h-67q-21 0 -24 -25h-104zM752 530h103q51 0 51 -69v-383q0 -78 -59 -78h-95v65h13q21 0 21 29v352q0 19 -18 19h-16v65z" />
    <glyph glyph-name="kna.u" horiz-adv-x="758" 
d="M204 298h23v-219q0 -14 9 -14q10 0 10 29v168h80v-160q0 -37 9 -37q11 0 11 28v292zM593 94q0 -29 36 -29h105v-195h-265v68h140v62h-69q-70 0 -70 97v207q0 31 18 54t47 23h96v65q0 19 -28 19h-63q-31 0 -45 -8l-45 -25v-348q0 -84 -62 -84h-69q-22 0 -33 26
q-14 -26 -33 -26h-81q-24 0 -43 21q-19 20 -19 56v95q0 65 16 78h-25v69l227 135q-2 11 -30 11h-67q-21 0 -24 -25h-105q-11 0 -18 -10q-8 -11 -8 -22v-408h-63v424q0 29 18 53q21 28 55 28h21q1 25 40 25h230q41 0 47 -20l28 12q21 8 39 8h181q33 0 47 -11t14 -44v-161
h-114q-27 0 -27 -23v-197h1z" />
    <glyph glyph-name="kna.uu" horiz-adv-x="758" 
d="M204 298h23v-219q0 -14 9 -14q10 0 10 29v168h80v-160q0 -37 9 -37q11 0 11 28v292zM591 93q0 -28 36 -28h105v-195h-81q-7 19 -27 19q-15 0 -36 -10l-34 -15q-15 -7 -31 -7q-24 0 -40 16t-16 42v49h71q-1 -31 18 -31q8 0 15 4q28 15 39 15q15 0 24 -14v62h-94
q-70 0 -70 97v207q0 31 18 54t47 23h96v65q0 19 -28 19h-63q-31 0 -45 -8l-45 -25v-348q0 -84 -62 -84h-69q-22 0 -33 26q-14 -26 -33 -26h-81q-24 0 -43 21q-19 20 -19 56v95q0 65 16 78h-25v69l227 135q-2 11 -30 11h-67q-21 0 -24 -25h-105q-11 0 -18 -10q-8 -11 -8 -22
v-408h-63v424q0 29 18 53q21 28 55 28h21q1 25 40 25h230q41 0 47 -20l28 12q21 8 39 8h181q33 0 47 -11t14 -44v-161h-114q-27 0 -27 -23v-198h-1z" />
    <glyph glyph-name="knaasi.al" horiz-adv-x="453" 
d="M107 428q-21 0 -21 -18v-16q0 -20 24 -20h35q19 0 19 16v16q0 22 -16 22h-41zM306 488q0 30 -43 30h-248v70h59q-32 11 -32 33v31q0 13 14 25q13 12 33 12h332v-65h-223q-31 0 -31 -18t32 -18h138q40 0 66 -21q25 -21 25 -59v-417q0 -48 -12 -69t-43 -21h-108
q-25 0 -39 29q-14 -29 -36 -29h-89q-76 0 -76 97v127q0 21 18 39t47 18h49q23 0 23 20v26h-98q-26 0 -36 6q-15 9 -15 38v63q0 57 50 57h142q33 0 47 -11t14 -44v-169q0 -46 -44 -46h-38q-9 0 -22 -10t-13 -24v-91q0 -32 17 -32t17 27v88h90v-82q0 -33 17 -33q16 0 16 33
v389v1z" />
    <glyph glyph-name="pha.i" 
d="M91 491q-64 0 -64 58v102q0 66 66 66h290v-50h-242q-22 0 -22 -22v-68q0 -30 18 -30h53q-7 18 -8 33h-37v66h156q39 0 65 -21t26 -59v-476q0 -91 -69 -91h-233q-76 0 -76 98v149q0 31 18 54t47 23h42v40q0 19 -28 19h-73v69h144q33 0 47 -11t14 -44v-147h-63
q-24 0 -24 -17v-141q0 -26 36 -26h61q36 0 36 31v314q-14 1 -18 3q-8 3 -12 13l-26 64zM230 581l46 -114v94q0 20 -20 20h-26z" />
    <glyph glyph-name="pha.ii" 
d="M342 748q35 0 35 -29v-40q0 -28 -30 -28h-154q-24 0 -24 22v26h-27q-23 0 -23 -23v-99q0 -30 18 -30h53q-7 18 -8 33h-37v66h156q39 0 65 -21t26 -59v-476q0 -91 -69 -91h-233q-76 0 -76 98v149q0 31 18 54t47 23h42v40q0 19 -28 19h-73v69h144q33 0 47 -11t14 -44v-147
h-63q-24 0 -24 -17v-141q0 -26 36 -26h61q36 0 36 31v314q-14 1 -18 3q-8 3 -12 13l-26 64h-122q-64 0 -64 58v133q0 66 66 66h249zM230 581l46 -114v94q0 20 -20 20h-26zM244 706q-15 0 -15 -12v-5q0 -13 16 -13h35q16 0 16 14v4q0 12 -17 12h-35z" />
    <glyph glyph-name="ta.al" 
d="M162 392q-24 0 -24 -17v-284q0 -11 12 -18q13 -8 23 -8h67q31 0 31 27v395q0 30 -43 30h-213v70h59q-32 11 -32 33v31q0 13 14 25q13 12 33 12h297v-65h-188q-31 0 -31 -18t32 -18h103q40 0 66 -21q25 -21 25 -59v-417q0 -91 -69 -91h-233q-76 0 -76 98v292q0 31 18 54
t47 23h141v-74h-59z" />
    <glyph glyph-name="ta.i" 
d="M161 392q-24 0 -24 -17v-284q0 -11 12 -18q13 -8 23 -8h67q31 0 31 27v395q0 30 -43 30h-154q-58 0 -58 45v81q0 16 15 30q16 14 41 14h315v-65h-218q-22 0 -26 -3q-5 -3 -5 -15q0 -11 5 -14q4 -3 27 -3h133q40 0 66 -21q25 -21 25 -59v-417q0 -91 -69 -91h-233
q-76 0 -76 98v292q0 31 18 54t47 23h141v-74h-60z" />
    <glyph glyph-name="ta.ii" 
d="M325 689q67 0 67 -55v-25q0 -26 -29 -38q30 -23 30 -63v-417q0 -91 -69 -91h-233q-76 0 -76 98v292q0 31 18 54t47 23h141v-74h-59q-24 0 -24 -17v-284q0 -11 12 -18q13 -8 23 -8h67q31 0 31 27v395q0 30 -43 30h-154q-58 0 -58 45v81q0 16 15 30q16 14 41 14h253v1z
M190 587q-14 3 -14 20v16h-23q-21 0 -25 -3t-4 -15q0 -11 5 -14q4 -3 27 -3h36zM269 634q-19 0 -19 -18v-6q0 -13 19 -13h5q19 0 19 13v6q0 18 -20 18h-4z" />
    <glyph glyph-name="Da.al" horiz-adv-x="441" 
d="M417 91q0 -48 -12 -69t-43 -21h-108q-25 0 -39 29q-14 -29 -36 -29h-89q-76 0 -76 97v142q0 35 28 57h-42v64h121v44q0 19 -28 19h-73v65h144q33 0 47 -11t14 -44v-138h-52q-9 0 -22 -10t-13 -24v-165q0 -32 17 -32t17 27v129h90v-123q0 -33 17 -33q16 0 16 33v389
q0 30 -43 30h-237v70h59q-32 11 -32 33v31q0 13 14 25q13 12 33 12h321v-65h-212q-31 0 -31 -18t32 -18h127q40 0 66 -21q25 -21 25 -59v-417v1z" />
    <glyph glyph-name="Da.i" horiz-adv-x="441" 
d="M416 91q0 -48 -12 -69t-43 -21h-108q-25 0 -39 29q-14 -29 -36 -29h-89q-76 0 -76 97v142q0 35 28 57h-42v64h121v44q0 19 -28 19h-73v65h144q33 0 47 -11t14 -44v-138h-52q-9 0 -22 -10t-13 -24v-165q0 -32 17 -32t17 27v129h90v-123q0 -33 17 -33q16 0 16 33v389
q0 30 -43 30h-173q-64 0 -64 57v61q0 20 19 36q20 17 46 17h331v-65h-239q-31 0 -31 -18t32 -18h154q40 0 66 -21q25 -21 25 -59v-417z" />
    <glyph glyph-name="Da.ii" horiz-adv-x="441" 
d="M417 91q0 -48 -12 -69t-43 -21h-108q-25 0 -39 29q-14 -29 -36 -29h-89q-76 0 -76 97v142q0 35 28 57h-42v64h121v44q0 19 -28 19h-73v65h144q33 0 47 -11t14 -44v-138h-52q-9 0 -22 -10t-13 -24v-165q0 -32 17 -32t17 27v129h90v-123q0 -33 17 -33q16 0 16 33v389
q0 30 -43 30h-173q-64 0 -64 57v61q0 20 19 36q20 17 46 17h269q67 0 67 -55v-25q0 -26 -29 -38q30 -23 30 -63v-417v1zM158 624q-27 0 -27 -18t24 -18h61q-14 3 -14 20v16h-44zM295 635q-19 0 -19 -18v-6q0 -13 19 -13h5q19 0 19 13v6q0 18 -20 18h-4z" />
    <glyph glyph-name="dha.al" horiz-adv-x="440" 
d="M414 90q0 -90 -69 -90h-94q-20 0 -37 29q-11 -29 -30 -29h-93q-76 0 -76 97v289q0 31 18 54t47 23h133v-74h-51q-24 0 -24 -17v-281q0 -26 17 -26t17 27v142h90v-136q0 -33 15 -33q16 0 16 31v391q0 30 -43 30h-235v70h59q-32 11 -32 33v31q0 13 14 25q13 12 33 12h319
v-65h-210q-31 0 -31 -18t32 -18h125q40 0 66 -21q25 -21 25 -59v-417h-1z" />
    <glyph glyph-name="dha.i" horiz-adv-x="440" 
d="M413 90q0 -90 -69 -90h-94q-20 0 -37 29q-11 -29 -30 -29h-93q-76 0 -76 97v289q0 31 18 54t47 23h133v-74h-51q-24 0 -24 -17v-281q0 -26 17 -26t17 27v142h90v-136q0 -33 15 -33q16 0 16 31v391q0 30 -43 30h-171q-64 0 -64 57v61q0 20 19 36q20 17 46 17h329v-65h-243
q-25 0 -25 -18t26 -18h158q40 0 66 -21q25 -21 25 -59v-417h-2z" />
    <glyph glyph-name="dha.ii" horiz-adv-x="440" 
d="M414 91q0 -90 -69 -90h-94q-20 0 -37 29q-11 -29 -30 -29h-93q-76 0 -76 97v289q0 31 18 54t47 23h133v-74h-51q-24 0 -24 -17v-281q0 -26 17 -26t17 27v142h90v-136q0 -33 15 -33q16 0 16 31v391q0 30 -43 30h-176q-58 0 -58 45v81q0 16 15 30q16 14 41 14h275
q67 0 67 -55v-25q0 -26 -29 -38q30 -23 30 -63v-417zM211 587q-14 3 -14 20v16h-45q-21 0 -25 -3t-4 -15q0 -11 5 -14q4 -3 27 -3h58zM290 634q-19 0 -19 -18v-6q0 -13 19 -13h5q19 0 19 13v6q0 18 -20 18h-4z" />
    <glyph glyph-name="ba.al" horiz-adv-x="448" 
d="M423 89q0 -92 -69 -90l-116 1q-67 1 -67 82v286q0 31 -11 31h-7q-15 0 -15 -20v-380h-123v397q0 31 18 54t47 23h118q66 0 66 -75v-301q0 -32 15 -32h10q12 0 12 32v390q0 30 -43 30h-243v70h59q-32 11 -32 33v31q0 13 14 25q13 12 33 12h327v-65h-218q-31 0 -31 -18
t32 -18h133q40 0 66 -21q25 -21 25 -59v-417v-1z" />
    <glyph glyph-name="ba.i" horiz-adv-x="448" 
d="M422 89q0 -92 -69 -90l-116 1q-67 1 -67 82v286q0 31 -11 31h-7q-15 0 -15 -20v-380h-123v397q0 31 18 54t47 23h118q66 0 66 -75v-301q0 -32 15 -32h10q12 0 12 32v390q0 30 -43 30h-184q-58 0 -58 45v81q0 16 15 30q16 14 41 14h345v-65h-248q-22 0 -26 -3
q-5 -3 -5 -15q0 -11 5 -14q4 -3 27 -3h163q40 0 66 -21q25 -21 25 -59v-417z" />
    <glyph glyph-name="ba.ii" horiz-adv-x="448" 
d="M423 90q0 -92 -69 -90l-116 1q-67 1 -67 82v286q0 31 -11 31h-7q-15 0 -15 -20v-380h-123v397q0 31 18 54t47 23h118q66 0 66 -75v-301q0 -32 15 -32h10q12 0 12 32v390q0 30 -43 30h-184q-58 0 -58 45v81q0 16 15 30q16 14 41 14h283q67 0 67 -55v-25q0 -26 -29 -38
q30 -23 30 -63v-417zM220 586q-14 3 -14 20v16h-53q-21 0 -25 -3t-4 -15q0 -11 5 -14q4 -3 27 -3h66zM299 633q-19 0 -19 -18v-6q0 -13 19 -13h5q19 0 19 13v6q0 18 -20 18h-4z" />
    <glyph glyph-name="ma.al" horiz-adv-x="448" 
d="M158 206q13 0 13 25v138q0 31 -11 31h-7q-15 0 -15 -20v-174h20zM423 90q0 -91 -69 -91h-263q-76 0 -76 98v300q0 31 18 54t47 23h128q60 0 60 -67v-220q0 -50 -50 -50h-80v-46q0 -11 12 -18q13 -8 23 -8h97q31 0 31 27v395q0 30 -43 30h-243v70h59q-32 11 -32 33v31
q0 13 14 25q13 12 33 12h327v-65h-218q-31 0 -31 -18t32 -18h133q40 0 66 -21q25 -21 25 -59v-417z" />
    <glyph glyph-name="ma.i" horiz-adv-x="448" 
d="M158 206q13 0 13 25v138q0 31 -11 31h-7q-15 0 -15 -20v-174h20zM422 90q0 -91 -69 -91h-263q-76 0 -76 98v300q0 31 18 54t47 23h128q60 0 60 -67v-220q0 -50 -50 -50h-80v-46q0 -11 12 -18q13 -8 23 -8h97q31 0 31 27v395q0 30 -43 30h-178q-64 0 -64 57v61q0 20 19 36
q20 17 46 17h336v-65h-250q-25 0 -25 -18t26 -18h165q40 0 66 -21q25 -21 25 -59v-417h-1z" />
    <glyph glyph-name="ma.ii" horiz-adv-x="448" 
d="M158 206q13 0 13 25v138q0 31 -11 31h-7q-15 0 -15 -20v-174h20zM423 91q0 -91 -69 -91h-263q-76 0 -76 98v300q0 31 18 54t47 23h128q60 0 60 -67v-220q0 -50 -50 -50h-80v-46q0 -11 12 -18q13 -8 23 -8h97q31 0 31 27v395q0 30 -43 30h-184q-58 0 -58 45v81q0 16 15 30
q16 14 41 14h283q67 0 67 -55v-25q0 -26 -29 -38q30 -23 30 -63v-417v1zM220 587q-14 3 -14 20v16h-53q-21 0 -25 -3t-4 -15q0 -11 5 -14q4 -3 27 -3h66zM299 634q-19 0 -19 -18v-6q0 -13 19 -13h5q19 0 19 13v6q0 18 -20 18h-4z" />
    <glyph glyph-name="mba.al" horiz-adv-x="464" 
d="M440 87q0 -90 -69 -90h-94q-11 0 -26 15t-15 30v46q0 4 5 12t5 16v44q0 12 -9 12h-14q-10 0 -10 -14v-42q0 -9 4 -16t4 -12v-46q0 -14 -11 -30q-11 -15 -21 -15h-97q-76 0 -76 97v309q0 31 18 54t47 23h85q53 0 53 -37v-82q0 -27 14 -27q11 0 11 31v109h48v-161
q0 -7 -8 -15q-7 -7 -17 -7h-74q-24 0 -24 24v77q0 16 -12 18q-18 1 -18 -19v-301q0 -26 17 -26q28 0 28 13q0 7 -12 21q-12 13 -12 24v98q0 34 32 34h68q34 0 34 -34v-98q0 -9 -11 -23t-11 -21q0 -13 29 -13q16 0 16 31v391q0 30 -43 30h-259v70h59q-32 11 -32 33v31
q0 13 14 25q13 12 33 12h343v-65h-234q-31 0 -31 -18t32 -18h149q40 0 66 -21q25 -21 25 -59v-417z" />
    <glyph glyph-name="mba.i" horiz-adv-x="464" 
d="M439 87q0 -90 -69 -90h-94q-11 0 -26 15t-15 30v46q0 4 5 12t5 16v44q0 12 -9 12h-14q-10 0 -10 -14v-42q0 -9 4 -16t4 -12v-46q0 -14 -11 -30q-11 -15 -21 -15h-97q-76 0 -76 97v309q0 31 18 54t47 23h85q53 0 53 -37v-82q0 -27 14 -27q11 0 11 31v109h48v-161
q0 -7 -8 -15q-7 -7 -17 -7h-74q-24 0 -24 24v77q0 16 -12 18q-18 1 -18 -19v-301q0 -26 17 -26q28 0 28 13q0 7 -12 21q-12 13 -12 24v98q0 34 32 34h68q34 0 34 -34v-98q0 -9 -11 -23t-11 -21q0 -13 29 -13q16 0 16 31v391q0 30 -43 30h-195q-64 0 -64 57v61q0 20 19 36
q20 17 46 17h353v-65h-261q-31 0 -31 -18t32 -18h176q40 0 66 -21q25 -21 25 -59v-417v-3z" />
    <glyph glyph-name="mba.ii" horiz-adv-x="464" 
d="M440 87q0 -90 -69 -90h-94q-11 0 -26 15t-15 30v46q0 4 5 12t5 16v44q0 12 -9 12h-14q-10 0 -10 -14v-42q0 -9 4 -16t4 -12v-46q0 -14 -11 -30q-11 -15 -21 -15h-97q-76 0 -76 97v309q0 31 18 54t47 23h85q53 0 53 -37v-82q0 -27 14 -27q11 0 11 31v109h48v-161
q0 -7 -8 -15q-7 -7 -17 -7h-74q-24 0 -24 24v77q0 16 -12 18q-18 1 -18 -19v-301q0 -26 17 -26q28 0 28 13q0 7 -12 21q-12 13 -12 24v98q0 34 32 34h68q34 0 34 -34v-98q0 -9 -11 -23t-11 -21q0 -13 29 -13q16 0 16 31v391q0 30 -43 30h-194q-64 0 -64 57v61q0 20 19 36
q20 17 46 17h290q67 0 67 -55v-25q0 -26 -29 -38q30 -23 30 -63v-417zM160 620q-27 0 -27 -18t24 -18h82q-14 3 -14 20v16h-65zM318 631q-19 0 -19 -18v-6q0 -13 19 -13h5q19 0 19 13v6q0 18 -20 18h-4z" />
    <glyph glyph-name="va.al" 
d="M392 90q0 -91 -69 -91h-233q-76 0 -76 98v152q0 31 18 54t47 23h42v60q0 19 -28 19h-73v65h144q33 0 47 -11t14 -44v-156h-63q-24 0 -24 -17v-151q0 -26 36 -26h61q36 0 36 31v391q0 30 -43 30h-213v70h59q-32 11 -32 33v31q0 13 14 25q13 12 33 12h297v-65h-188
q-31 0 -31 -18t32 -18h103q40 0 66 -21q25 -21 25 -59v-417h-1z" />
    <glyph glyph-name="va.i" 
d="M391 90q0 -91 -69 -91h-233q-76 0 -76 98v152q0 31 18 54t47 23h42v60q0 19 -28 19h-73v65h144q33 0 47 -11t14 -44v-156h-63q-24 0 -24 -17v-151q0 -26 36 -26h61q36 0 36 31v391q0 30 -43 30h-154q-58 0 -58 45v81q0 16 15 30q16 14 41 14h315v-65h-218q-22 0 -26 -3
q-5 -3 -5 -15q0 -11 5 -14q4 -3 27 -3h133q40 0 66 -21q25 -21 25 -59v-417h-2z" />
    <glyph glyph-name="va.ii" 
d="M392 91q0 -91 -69 -91h-233q-76 0 -76 98v152q0 31 18 54t47 23h42v60q0 19 -28 19h-73v65h144q33 0 47 -11t14 -44v-156h-63q-24 0 -24 -17v-151q0 -26 36 -26h61q36 0 36 31v391q0 30 -43 30h-154q-58 0 -58 45v81q0 16 15 30q16 14 41 14h253q67 0 67 -55v-25
q0 -26 -29 -38q30 -23 30 -63v-417zM189 587q-14 3 -14 20v16h-23q-21 0 -25 -3t-4 -15q0 -11 5 -14q4 -3 27 -3h36zM268 634q-19 0 -19 -18v-6q0 -13 19 -13h5q19 0 19 13v6q0 18 -20 18h-4z" />
    <glyph glyph-name="ka.i" horiz-adv-x="536" 
d="M112 298h23v-219q0 -14 9 -14q10 0 10 29v168h80v-160q0 -37 9 -37q11 0 11 28v292zM392 412q0 31 -6 33q-2 1 -13 -5l-13 -8v-348q0 -84 -62 -84h-69q-22 0 -33 26q-14 -26 -33 -26h-81q-24 0 -43 21q-19 20 -19 56v95q0 65 16 78h-25v69l227 135q-2 11 -30 11h-182v65
h261q41 0 47 -20l28 12q21 8 42 8h49q58 0 58 -90v-441h-122zM50 585q0 60 74 60h295q73 0 73 -57v-45h-123v28q0 16 -19 16h-157q-18 0 -18 -14v-30h-125v42z" />
    <glyph glyph-name="ka.ii" horiz-adv-x="536" 
d="M112 298h23v-219q0 -14 9 -14q10 0 10 29v168h80v-160q0 -37 9 -37q11 0 11 28v292zM392 412q0 31 -6 33q-2 1 -13 -5l-13 -8v-348q0 -84 -62 -84h-69q-22 0 -33 26q-14 -26 -33 -26h-81q-24 0 -43 21q-19 20 -19 56v95q0 65 16 78h-25v69l227 135q-2 11 -30 11h-182v65
h261q41 0 47 -20l28 12q21 8 42 8h49q58 0 58 -90v-441h-122zM48 585q0 60 74 60h305q36 0 51 -6q20 -11 20 -37v-36q0 -31 -46 -31h-118q-25 0 -25 28v32h-124q-19 0 -19 -15v-37h-118v42zM374 596q-8 0 -8 -9v-16q0 -7 10 -7h53q10 0 10 7v17q0 8 -10 8h-55z" />
    <glyph glyph-name="na.i" horiz-adv-x="448" 
d="M135 231v-153q0 -13 12 -13h17q12 0 12 29v200zM304 404q0 43 -6 42q-2 0 -13 -11l-13 -20v-334q0 -80 -58 -80l-136 -1q-62 0 -62 82v304h94v-64l61 83q1 61 -24 61h-131v65h178q20 0 36 -31l18 20q11 11 33 11h72q31 0 50 -25q20 -26 20 -66v-441h-120zM37 586
q0 60 74 60h222q73 0 73 -57v-45h-123v28q0 16 -19 16h-84q-18 0 -18 -14v-30h-125v42z" />
    <glyph glyph-name="na.ii" horiz-adv-x="448" 
d="M26 585q0 60 74 60h244q36 0 51 -6q20 -11 20 -37v-36q0 -31 -46 -31h-118q-25 0 -25 28v32h-63q-19 0 -19 -15v-37h-118v42zM291 596q-8 0 -8 -9v-16q0 -7 10 -7h53q10 0 10 7v17q0 8 -10 8h-55zM135 231v-153q0 -13 12 -13h17q12 0 12 29v200zM304 404q0 43 -6 42
q-2 0 -13 -11l-13 -20v-334q0 -80 -58 -80l-136 -1q-62 0 -62 82v304h94v-64l61 83q1 61 -24 61h-131v65h178q20 0 36 -31l18 20q11 11 33 11h72q31 0 50 -25q20 -26 20 -66v-441h-120z" />
    <glyph glyph-name="tha.i" horiz-adv-x="458" 
d="M110 266h25v-187q0 -14 13 -14h16q12 0 12 28v248zM310 412q0 31 -6 33q-6 1 -13 -6l-17 -17v-337q0 -84 -60 -84l-134 -1q-24 0 -43 21q-19 20 -19 56v67q0 57 16 70h-25v79l160 153q1 19 -26 19h-124v65h189q42 0 48 -21l21 13q14 8 33 8h55q68 0 68 -90v-441h-122z
M35 586q0 60 74 60h238q73 0 73 -57v-45h-123v28q0 16 -19 16h-100q-18 0 -18 -14v-30h-125v42z" />
    <glyph glyph-name="tha.ii" horiz-adv-x="458" 
d="M110 266h25v-187q0 -14 13 -14h16q12 0 12 28v248zM310 412q0 31 -6 33q-6 1 -13 -6l-17 -17v-337q0 -84 -60 -84l-134 -1q-24 0 -43 21q-19 20 -19 56v67q0 57 16 70h-25v79l160 153q1 19 -26 19h-124v65h189q42 0 48 -21l21 13q14 8 33 8h55q68 0 68 -90v-441h-122z
M36 586q0 60 74 60h238q36 0 51 -6q20 -11 20 -37v-36q0 -31 -46 -31h-118q-25 0 -25 28v32h-57q-19 0 -19 -15v-37h-118v42zM295 597q-8 0 -8 -9v-16q0 -7 10 -7h53q10 0 10 7v17q0 8 -10 8h-55z" />
    <glyph glyph-name="Na.i" horiz-adv-x="610" 
d="M177 465q-26 0 -26 -27v-85l59 112h-33zM160 255h33v-67h-68l-18 -34q4 1 12 1q19 0 32 -11q12 -11 12 -24v-38q0 -17 18 -17h21q20 0 20 26v286zM303 529q25 -3 36 -24q7 24 27 24h19q16 0 22 -21q12 21 38 21h67q74 0 74 -80v-360q0 -90 -81 -90h-132v65h61q28 0 28 28
v349q0 23 -13 23h-5q-13 0 -13 -22v-263h-55v254q0 25 -9 25h-7q-13 0 -13 -31v-331q0 -97 -73 -97h-146q-66 0 -66 43v27l-46 -73v97l52 99q-25 4 -25 74v183q0 34 21 57t49 23h132l29 57h-26q-18 0 -18 -14v-30h-125v42q0 60 74 60h275q73 0 73 -57v-45h-123v28
q0 16 -19 16h-52z" />
    <glyph glyph-name="Na.ii" horiz-adv-x="610" 
d="M177 465q-26 0 -26 -27v-85l59 112h-33zM160 255h33v-67h-68l-18 -34q4 1 12 1q19 0 32 -11q12 -11 12 -24v-38q0 -17 18 -17h21q20 0 20 26v286zM332 586l-29 -57q25 -3 36 -24q7 24 27 24h19q16 0 22 -21q12 21 38 21h67q74 0 74 -80v-360q0 -90 -81 -90h-132v65h61
q28 0 28 28v349q0 23 -13 23h-5q-13 0 -13 -22v-263h-55v254q0 25 -9 25h-7q-13 0 -13 -31v-331q0 -97 -73 -97h-146q-66 0 -66 43v27l-46 -73v97l52 99q-25 4 -25 74v183q0 34 21 57t49 23h132l29 57h-26q-18 0 -18 -14v-30h-125v42q0 60 74 60h296q36 0 51 -6
q20 -11 20 -37v-36q0 -31 -46 -31h-118q-25 0 -25 28v24h-25zM421 595q-8 0 -8 -9v-16q0 -7 10 -7h53q10 0 10 7v17q0 8 -10 8h-55z" />
    <glyph glyph-name="da.rakar" horiz-adv-x="304" 
d="M86 -160q-70 0 -70 64v72h104v-40q0 -24 16 -24h18q16 0 15 36l-1 52h-84q-70 0 -70 97v207q0 31 18 54t47 23h96v65q0 19 -28 19h-110v65h181q33 0 47 -11t14 -44v-161h-114q-27 0 -27 -23v-198q0 -28 36 -28h105v-163q0 -62 -75 -62h-118z" />
    <glyph glyph-name="da.rakar.i" horiz-adv-x="304" 
d="M86 -160q-70 0 -70 64v72h104v-40q0 -24 16 -24h18q16 0 15 36l-1 52h-84q-70 0 -70 97v207q0 31 18 54t47 23h96v65q0 19 -28 19h-110v65h181q33 0 47 -11t14 -44v-161h-114q-27 0 -27 -23v-198q0 -28 36 -28h105v-163q0 -62 -75 -62h-118zM15 585q0 60 74 60h118
q73 0 73 -57v-45h-97v28q0 16 -19 16h-32q-18 0 -18 -14v-30h-99v42z" />
    <glyph glyph-name="da.rakar.ii" horiz-adv-x="304" 
d="M86 -160q-70 0 -70 64v72h104v-40q0 -24 16 -24h18q16 0 15 36l-1 52h-84q-70 0 -70 97v207q0 31 18 54t47 23h96v65q0 19 -28 19h-110v65h181q33 0 47 -11t14 -44v-161h-114q-27 0 -27 -23v-198q0 -28 36 -28h105v-163q0 -62 -75 -62h-118zM15 586q0 60 63 60h145
q27 0 39 -5q18 -8 18 -33v-40q0 -25 -32 -25h-106q-16 0 -16 22v22h-21q-18 0 -18 -14v-30h-72v43zM185 602q-8 0 -8 -9v-10q0 -7 10 -7h35q10 0 10 7v11q0 8 -10 8h-37z" />
    <glyph glyph-name="reph.yansa" horiz-adv-x="361" 
d="M123 530q37 0 37 -39v-373q5 -38 28 -38q24 0 24 31v187q0 36 -20 36h-14v136q0 60 46 60h112v-65h-44q-23 0 -23 -21v-50h19q48 0 48 -60v-246q0 -38 -19 -63t-46 -25h-53q-43 0 -68 34q-7 -23 -27 -34h-106q19 34 19 78v359q0 28 -10 28h-16v65h113zM218 652v-79
q0 -29 -25 -29h-109q-38 0 -38 46v101q0 45 38 45h172q42 0 42 -48v-141h-57v102q0 23 -16 23h-69q-16 0 -16 -13q-1 -39 0 -40q0 -13 17 -13h6q7 0 7 16v30h48z" />
    <glyph glyph-name="reph.Na" horiz-adv-x="610" 
d="M417 652v-79q0 -29 -25 -29h-83l-7 -14q25 -3 36 -24q7 24 27 24h19q16 0 22 -21q12 21 38 21h67q74 0 74 -80v-360q0 -90 -81 -90h-132v65h61q28 0 28 28v349q0 23 -13 23h-5q-13 0 -13 -22v-263h-55v254q0 25 -9 25h-7q-13 0 -13 -31v-331q0 -97 -73 -97h-146
q-66 0 -66 43v27l-46 -73v97l52 99q-25 4 -25 74v183q0 34 21 57t49 23h132l7 14h-38q-38 0 -38 46v101q0 45 38 45h245q42 0 42 -48v-141h-57v102q0 23 -16 23h-142q-16 0 -16 -13q-1 -39 0 -40q0 -13 12 -13l25 50h58l-24 -50h23q7 0 7 16v30h47zM176 465q-26 0 -26 -27
v-85l59 112h-33zM159 255h33v-67h-68l-18 -34q4 1 12 1q19 0 32 -11q12 -11 12 -24v-38q0 -17 18 -17h21q20 0 20 26v286z" />
    <glyph glyph-name="reph.Tha" 
d="M161 377q-24 0 -24 -17v-269q0 -26 36 -26h61q36 0 36 31v314q-14 1 -18 3q-9 3 -12 13l-37 111q-5 15 -12 43h-25v66h136q39 0 65 -21t26 -59v-476q0 -91 -69 -91h-233q-76 0 -76 98v277q0 31 18 54t47 23h127v-74h-46zM239 580l38 -114v94q0 20 -20 20h-18zM73 577v-79
q0 -29 -25 -29h-76q-38 0 -38 46v101q0 45 38 45h139q42 0 42 -48v-141h-57v102q0 23 -16 23h-69q-16 0 -16 -13q-1 -39 0 -40q0 -13 17 -13h6q7 0 7 16v30h48z" />
    <glyph glyph-name="sha.rakar.ii" horiz-adv-x="486" 
d="M266 465q-12 0 -12 -28v-353q0 -84 -61 -84h-118q-60 0 -60 82v448h121v-439q0 -26 13 -26h7q13 0 13 30v344q0 91 68 91h155q69 0 69 -74v-379q0 -31 -17 -53q-18 -24 -49 -24h-123v231q0 59 49 59h19v150q0 25 -9 25h-65zM332 238q-17 0 -17 -18v-155h15q13 0 13 14
v159h-11zM15 585q0 60 74 60h283q36 0 51 -6q20 -11 20 -37v-36q0 -31 -46 -31h-181q-25 0 -25 28v32h-35q-19 0 -19 -15v-37h-122v42zM313 596q-8 0 -8 -9v-16q0 -7 10 -7h53q10 0 10 7v17q0 8 -10 8h-55zM153 -35v-22q0 -17 19 -17h143q20 0 20 19v49h124v-83
q0 -19 -18 -34t-42 -15h-320q-21 0 -34 15q-13 14 -13 36v53z" />
    <glyph glyph-name="ta.rakar.i" 
d="M161 392q-24 0 -24 -17v-284q0 -11 12 -18q13 -8 23 -8h67q31 0 31 27v395q0 30 -43 30h-154q-58 0 -58 45v81q0 16 15 30q16 14 41 14h315v-65h-218q-22 0 -26 -3q-5 -3 -5 -15q0 -11 5 -14q4 -3 27 -3h133q40 0 66 -21q25 -21 25 -59v-417q0 -91 -69 -91h-233
q-76 0 -76 98v292q0 31 18 54t47 23h141v-74h-60zM136 -35v-22q0 -17 19 -17h93q20 0 20 19v42h124v-76q0 -19 -18 -34t-42 -15h-270q-21 0 -34 15q-13 14 -13 36v53z" />
    <glyph glyph-name="ta.rakar.al" 
d="M162 392q-24 0 -24 -17v-284q0 -11 12 -18q13 -8 23 -8h67q31 0 31 27v395q0 30 -43 30h-213v70h59q-32 11 -32 33v31q0 13 14 25q13 12 33 12h297v-65h-188q-31 0 -31 -18t32 -18h103q40 0 66 -21q25 -21 25 -59v-417q0 -91 -69 -91h-233q-76 0 -76 98v292q0 31 18 54
t47 23h141v-74h-59zM136 -35v-22q0 -17 19 -17h93q20 0 20 19v42h124v-76q0 -19 -18 -34t-42 -15h-270q-21 0 -34 15q-13 14 -13 36v53z" />
    <glyph glyph-name="ka.al.zwj" horiz-adv-x="374" 
d="M112 298h23v-219q0 -14 9 -14q10 0 10 29v168h80v-160q0 -37 9 -37q11 0 11 28v292zM439 465q-22 0 -79 -33v-348q0 -84 -62 -84h-69q-22 0 -33 26q-14 -26 -33 -26h-81q-24 0 -43 21q-19 20 -19 56v95q0 65 16 78h-25v69l227 135q-2 11 -30 11h-182v65h261q41 0 47 -20
l28 12q21 8 42 8h49q54 0 54 -35v-31l-71 1h3z" />
    <glyph glyph-name="tha.al.zwj" horiz-adv-x="294" 
d="M110 266h25v-187q0 -14 13 -14h16q12 0 12 28v248zM348 460q-18 0 -40 -13q-23 -14 -33 -25v-337q0 -84 -60 -84l-134 -1q-24 0 -43 21q-19 20 -19 56v67q0 57 16 70h-25v79l160 153q1 19 -26 19h-124v65h189q42 0 48 -21l20 9q15 7 42 7h68q42 0 42 -31v-34h-81z" />
    <glyph glyph-name="na.al.zwj" horiz-adv-x="288" 
d="M135 231v-153q0 -13 12 -13h17q12 0 12 29v200zM345 465q-41 0 -72 -51v-334q0 -80 -58 -80l-136 -1q-62 0 -62 82v304h94v-64l61 83q1 61 -24 61h-131v65h178q20 0 36 -31l16 14q20 17 52 17h81q38 0 38 -33v-32h-76h3z" />
    <glyph glyph-name="na.al.zwj_long" horiz-adv-x="288" 
d="M135 231v-153q0 -13 12 -13h17q12 0 12 29v200zM345 465q-41 0 -72 -51v-334q0 -80 -58 -80l-136 -1q-62 0 -62 82v304h94v-64l61 83q1 61 -24 61h-131v65h178q20 0 36 -31l16 14q20 17 52 17h81q38 0 38 -33v-32h-76h3z" />
    <glyph glyph-name="reph" horiz-adv-x="2" 
d="M-173 652v-79q0 -29 -25 -29h-109q-38 0 -38 46v101q0 45 38 45h172q42 0 42 -48v-141h-57v102q0 23 -16 23h-69q-16 0 -16 -13q-1 -39 0 -40q0 -13 17 -13h6q7 0 7 16v30h48z" />
    <glyph glyph-name="reph_high" horiz-adv-x="2" 
d="M-202 719v-52q0 -25 -27 -25h-135q-14 0 -21 12q-8 13 -8 25v71q0 14 12 26t30 12h216q12 0 24 -14t12 -30v-86h-82v59q0 19 -14 19h-67q-15 0 -15 -12v-26q0 -11 9 -11h10q8 0 8 13v20z" />
    <glyph glyph-name="rakar" horiz-adv-x="2" 
d="M-282 -35v-22q0 -17 19 -17h93q20 0 20 19v42h124v-76q0 -19 -18 -34t-42 -15h-270q-21 0 -34 15q-13 14 -13 36v53z" />
    <glyph glyph-name="rakar_long" horiz-adv-x="2" 
d="M-282 -35v-22q0 -17 19 -17h93q20 0 20 19v42h124v-76q0 -19 -18 -34t-42 -15h-270q-21 0 -34 15q-13 14 -13 36v53z" />
    <glyph glyph-name="yansa" horiz-adv-x="361" 
d="M123 530q37 0 37 -39v-373q5 -38 28 -38q24 0 24 31v187q0 36 -20 36h-14v136q0 60 46 60h112v-65h-44q-23 0 -23 -21v-50h19q48 0 48 -60v-246q0 -38 -19 -63t-46 -25h-53q-43 0 -68 34q-7 -23 -27 -34h-106q19 34 19 78v359q0 28 -10 28h-16v65h113z" />
    <glyph glyph-name="al_short" horiz-adv-x="2" 
d="M-140 683h116v-232q-12 46 -33 63q-20 16 -63 16h-21z" />
    <glyph glyph-name="al_long" horiz-adv-x="2" 
d="M-140 683h116v-232q-12 46 -33 63q-20 16 -63 16h-21z" />
    <glyph glyph-name="i_long" horiz-adv-x="2" 
d="M-396 585q0 60 74 60h222q73 0 73 -57v-45h-123v28q0 16 -19 16h-84q-18 0 -18 -14v-30h-125v42z" />
    <glyph glyph-name="i_closed" horiz-adv-x="2" 
d="M-396 585q0 60 74 60h222q73 0 73 -57v-45h-123v28q0 16 -19 16h-84q-18 0 -18 -14v-30h-125v42z" />
    <glyph glyph-name="ii_tall" horiz-adv-x="2" 
d="M-396 585q0 60 74 60h224q36 0 50 -6q21 -11 21 -37v-36q0 -31 -46 -31h-118q-25 0 -25 28v32h-43q-19 0 -19 -15v-37h-118v42zM-151 596q-8 0 -8 -9v-16q0 -7 10 -7h53q10 0 10 7v17q0 8 -10 8h-55z" />
    <glyph glyph-name="ii_closed" horiz-adv-x="2" 
d="M-396 585q0 60 74 60h224q36 0 50 -6q21 -11 21 -37v-36q0 -31 -46 -31h-118q-25 0 -25 28v32h-43q-19 0 -19 -15v-37h-118v42zM-151 596q-8 0 -8 -9v-16q0 -7 10 -7h53q10 0 10 7v17q0 8 -10 8h-55z" />
    <glyph glyph-name="u_long" horiz-adv-x="2" 
d="M-402 -130v68h256v61l51 1q26 2 45 19q23 23 25 73v-222h-377z" />
    <glyph glyph-name="u_long2" horiz-adv-x="2" 
d="M-402 -130v68h256v61l51 1q26 2 45 19q23 23 25 73v-222h-377z" />
    <glyph glyph-name="u_misc" horiz-adv-x="2" 
d="M-402 -130v68h256v61l51 1q26 2 45 19q23 23 25 73v-222h-377z" />
    <glyph glyph-name="u.kt" horiz-adv-x="2" 
d="M-25 -133h-164q-22 0 -36 17q-13 16 -13 36q0 16 9 24l76 56h129l-72 -59q-7 -6 -7 -9q0 -7 28 -7h50v-58z" />
    <glyph glyph-name="uu_long" horiz-adv-x="2" 
d="M-130 -132q-8 26 -48 26q-12 0 -22 -3l-111 -35q-11 -3 -23 -3q-27 0 -49 17q-21 16 -21 44v49h101q-1 -25 15 -25q12 0 30 7l46 15q18 5 31 5q29 0 35 -15v48l51 1q26 1 46 21q24 25 24 72v-222z" />
    <glyph glyph-name="uu_long2" horiz-adv-x="2" 
d="M-130 -132q-8 26 -48 26q-12 0 -22 -3l-111 -35q-11 -3 -23 -3q-27 0 -49 17q-21 16 -21 44v49h101q-1 -25 15 -25q12 0 30 7l46 15q18 5 31 5q29 0 35 -15v48l51 1q26 1 46 21q24 25 24 72v-222z" />
    <glyph glyph-name="uu_misc" horiz-adv-x="2" 
d="M-130 -132q-8 26 -48 26q-12 0 -22 -3l-111 -35q-11 -3 -23 -3q-27 0 -49 17q-21 16 -21 44v49h101q-1 -25 15 -25q12 0 30 7l46 15q18 5 31 5q29 0 35 -15v48l51 1q26 1 46 21q24 25 24 72v-222z" />
    <glyph glyph-name="uu.kt" horiz-adv-x="2" 
d="M-25 -134h-164q-42 0 -42 42q0 20 14 25l66 20l-68 15v22l65 10h130l-87 -20l71 -13v-20l-71 -16q-13 -3 -13 -9q0 -9 23 -9h76v-47z" />
    <glyph glyph-name="sakn" horiz-adv-x="110" 
d="M104 460q-11 0 -18 -10q-8 -11 -8 -22v-428h-63v444q0 29 18 53q21 28 55 28h107v-65h-91z" />
    <glyph glyph-name="sakn_long" horiz-adv-x="110" 
d="M104 460q-11 0 -18 -10q-8 -11 -8 -22v-428h-63v444q0 29 18 53q21 28 55 28h107v-65h-91z" />
    <glyph glyph-name="sakn_2" horiz-adv-x="110" 
d="M104 460q-11 0 -18 -10q-8 -11 -8 -22v-428h-63v444q0 29 18 53q21 28 55 28h107v-65h-91z" />
    <glyph glyph-name="ka_bandi" horiz-adv-x="486" 
d="M112 298h23v-219q0 -14 9 -14q10 0 10 29v168h80v-160q0 -37 9 -37q11 0 11 28v292zM392 412q0 31 -6 33q-2 1 -13 -5l-13 -8v-348q0 -84 -62 -84h-69q-22 0 -33 26q-14 -26 -33 -26h-81q-24 0 -43 21q-19 20 -19 56v95q0 65 16 78h-25v69l227 135q-2 11 -30 11h-182v65
h261q41 0 47 -20l28 12q21 8 42 8h49q58 0 58 -90v-441h-122z" />
    <glyph glyph-name="kha_bandi" horiz-adv-x="398" 
d="M13 -1v449q0 31 18 54t47 23h108q66 0 66 -75v-299q4 3 9 3q8 0 18 -13t15 -13q6 0 6 24v395q0 30 -43 30h-243v70h318q39 0 65 -21t26 -59v-476q0 -91 -65 -91h-40q-26 0 -47 46q-11 22 -18 21q-5 -50 -30 -75h-64q12 16 12 74v354q0 31 -11 31h-7q-15 0 -15 -20v-432
h-125z" />
    <glyph glyph-name="ga_bandi" horiz-adv-x="388" 
d="M266 465q-12 0 -12 -28v-353q0 -84 -61 -84h-118q-60 0 -60 82v448h121v-439q0 -26 13 -26h7q13 0 13 30v344q0 91 68 91h107q69 0 69 -74v-456h-122v440q0 25 -8 25h-17z" />
    <glyph glyph-name="knaasi_bandi" horiz-adv-x="403" 
d="M264 1q-25 0 -39 29q-14 -29 -36 -29h-89q-76 0 -76 97v127q0 21 18 39t47 18h49q23 0 23 20v26h-98q-26 0 -36 6q-15 9 -15 38v97q0 57 50 57h142q33 0 47 -11t14 -44v-203q0 -46 -44 -46h-38q-9 0 -22 -10t-13 -24v-91q0 -32 17 -32t17 27v88h90v-82q0 -33 17 -33
q16 0 16 33v448q0 35 -45 35h-235v65h312q39 0 65 -21t26 -59v-476q0 -48 -12 -69t-43 -21h-108zM106 463q-21 0 -21 -24v-44q0 -20 24 -20h35q19 0 19 16v44q0 28 -16 28h-41z" />
    <glyph glyph-name="cha_bandi" horiz-adv-x="364" 
d="M171 316q-9 0 -22 -10t-13 -24v-185q0 -32 35 -32h61q37 0 37 33v448q0 35 -45 35h-211v65h288q39 0 65 -21t26 -59v-476q0 -91 -69 -91h-233q-76 0 -76 98v162q0 35 28 57h-42v64h121v61q0 19 -28 19h-73v65h144q33 0 47 -11t14 -44v-155z" />
    <glyph glyph-name="ja_bandi" horiz-adv-x="372" 
d="M393 96q0 -97 -72 -97l-238 1q-68 0 -68 85v218q0 93 61 93h31v55q0 14 -17 14h-73v65h120q53 0 53 -53v-142h-30q-22 0 -22 -37v-194q0 -39 26 -39h79q26 0 26 37v195q0 37 -22 37h-36v144q0 28 16 41q14 11 28 11h6l73 122h89l-78 -122h48v-65h-72q-19 0 -19 -14v-56
h31q60 0 60 -95v-204v0z" />
    <glyph glyph-name="kna_bandi" horiz-adv-x="708" 
d="M204 298h23v-219q0 -14 9 -14q10 0 10 29v168h80v-160q0 -37 9 -37q11 0 11 28v292zM105 440q-11 0 -18 -10q-8 -11 -8 -22v-408h-63v424q0 29 18 53q21 28 55 28h21q1 25 40 25h230q41 0 47 -20l28 12q21 8 39 8h181q33 0 47 -11t14 -44v-161h-114q-27 0 -27 -23v-198
q0 -28 36 -28h105v-65h-48q-21 0 -21 -24v-40q0 -22 22 -22h55v-65h-138q-62 0 -62 57v64q0 22 18 30h-20q-70 0 -70 97v207q0 31 18 54t47 23h96v65q0 19 -28 19h-63q-31 0 -45 -8l-45 -25v-348q0 -84 -62 -84h-69q-22 0 -33 26q-14 -26 -33 -26h-81q-24 0 -43 21
q-19 20 -19 56v95q0 65 16 78h-25v69l227 135q-2 11 -30 11h-67q-21 0 -24 -25h-104z" />
    <glyph glyph-name="ta_bandi" horiz-adv-x="368" 
d="M161 451q-24 0 -24 -17v-343q0 -11 12 -18q13 -8 23 -8h67q31 0 31 27v454q0 30 -43 30h-213v70h288q39 0 65 -21t26 -59v-476q0 -91 -69 -91h-233q-76 0 -76 98v351q0 31 18 54t47 23h141v-74h-60z" />
    <glyph glyph-name="Da_bandi" horiz-adv-x="391" 
d="M253 1q-25 0 -39 29q-14 -29 -36 -29h-89q-76 0 -76 97v162q0 35 28 57h-42v64h121v61q0 19 -28 19h-73v65h144q33 0 47 -11t14 -44v-155h-52q-9 0 -22 -10t-13 -24v-185q0 -32 17 -32t17 27v142h90v-136q0 -33 17 -33q16 0 16 33v448q0 35 -45 35h-235v65h312
q39 0 65 -21t26 -59v-476q0 -48 -12 -69t-43 -21h-108z" />
    <glyph glyph-name="Na_bandi" horiz-adv-x="560" 
d="M66 193q-25 4 -25 74v183q0 34 21 57t49 23h132l48 93h59l-48 -93q25 -3 36 -24q7 24 27 24h19q16 0 22 -21q12 21 38 21h67q74 0 74 -80v-360q0 -90 -81 -90h-132v65h61q28 0 28 28v349q0 23 -13 23h-5q-13 0 -13 -22v-263h-55v254q0 25 -9 25h-7q-13 0 -13 -31v-331
q0 -97 -73 -97h-146q-66 0 -66 43v27l-46 -73v97zM176 465q-26 0 -26 -27v-85l59 112h-33zM159 255h33v-67h-68l-18 -34q4 1 12 1q19 0 32 -11q12 -11 12 -24v-38q0 -17 18 -17h21q20 0 20 26v286z" />
    <glyph glyph-name="tha_bandi" horiz-adv-x="408" 
d="M110 266h25v-187q0 -14 13 -14h16q12 0 12 28v248zM310 412q0 31 -6 33q-6 1 -13 -6l-17 -17v-337q0 -84 -60 -84l-134 -1q-24 0 -43 21q-19 20 -19 56v67q0 57 16 70h-25v79l160 153q1 19 -26 19h-124v65h189q42 0 48 -21l21 13q14 8 33 8h55q68 0 68 -90v-441h-122z
" />
    <glyph glyph-name="da_bandi" horiz-adv-x="254" 
d="M230 0q-21 0 -21 -24v-40q0 -22 22 -22h55v-65h-138q-62 0 -62 57v64q0 22 18 30h-20q-70 0 -70 97v207q0 31 18 54t47 23h96v65q0 19 -28 19h-110v65h181q33 0 47 -11t14 -44v-161h-114q-27 0 -27 -23v-198q0 -28 36 -28h105v-65h-48h-1z" />
    <glyph glyph-name="dha_bandi" horiz-adv-x="390" 
d="M250 0q-20 0 -37 29q-11 -29 -30 -29h-93q-76 0 -76 97v351q0 31 18 54t47 23h133v-74h-51q-24 0 -24 -17v-343q0 -26 17 -26t17 27v142h90v-136q0 -33 15 -33q16 0 16 31v431q0 49 -42 49h-236v70h310q39 0 65 -21t26 -59v-476q0 -90 -69 -90h-94h-2z" />
    <glyph glyph-name="na_bandi" horiz-adv-x="398" 
d="M135 231v-153q0 -13 12 -13h17q12 0 12 29v200zM304 404q0 43 -6 42q-2 0 -13 -11l-13 -20v-334q0 -80 -58 -80l-136 -1q-62 0 -62 82v304h94v-64l61 83q1 61 -24 61h-131v65h178q20 0 36 -31l18 20q11 11 33 11h72q31 0 50 -25q20 -26 20 -66v-441h-120z" />
    <glyph glyph-name="pa_bandi" horiz-adv-x="368" 
d="M393 96q0 -97 -72 -97l-238 1q-68 0 -68 85v218q0 93 61 93h31v55q0 14 -17 14h-73v65h120q53 0 53 -53v-142h-30q-22 0 -22 -37v-194q0 -39 26 -39h79q26 0 26 37v195q0 37 -22 37h-36v144q0 52 59 52h123v-65h-72q-19 0 -19 -14v-56h31q60 0 60 -95v-204v0z" />
    <glyph glyph-name="ba_bandi" horiz-adv-x="398" 
d="M14 -2v449q0 31 18 54t47 23h118q66 0 66 -75v-353q0 -32 15 -32h10q12 0 12 32v449q0 30 -43 30h-243v70h318q39 0 65 -21t26 -59v-476q0 -92 -69 -90l-116 1q-67 1 -67 82v338q0 31 -11 31h-7q-15 0 -15 -20v-432z" />
    <glyph glyph-name="ma_bandi" horiz-adv-x="398" 
d="M137 91q0 -11 12 -18q13 -8 23 -8h97q31 0 31 27v454q0 30 -43 30h-243v70h318q39 0 65 -21t26 -59v-476q0 -91 -69 -91h-263q-76 0 -76 98v351q0 31 18 54t47 23h128q60 0 60 -67v-271q0 -50 -50 -50h-80zM157 206q13 0 13 25v189q0 31 -11 31h-7q-15 0 -15 -20v-225h20
z" />
    <glyph glyph-name="ya_bandi" horiz-adv-x="386" 
d="M411 96q0 -98 -72 -96l-87 1q-23 0 -36 33q-15 -33 -35 -33h-98q-68 0 -68 85v445h123v-439q0 -25 14 -27t14 35v176h94v-174q0 -37 15 -37q12 0 12 29v197q0 37 -22 37h-88v140q0 62 59 62h172v-65h-97q-19 0 -19 -14v-56h59q60 0 60 -95v-204v0z" />
    <glyph glyph-name="la_bandi" horiz-adv-x="388" 
d="M258 111q0 -33 18 -33q13 0 13 26v344q0 17 -30 17h-97q-26 0 -26 -20v-463q0 -30 43 -30h233v-70h-308q-39 0 -64 21t-25 59v477q0 91 69 91h253q76 0 76 -98v-352q0 -32 -18 -54q-18 -23 -47 -23h-124q-58 0 -58 79v308h93z" />
    <glyph glyph-name="va_bandi" horiz-adv-x="368" 
d="M160 314q-24 0 -24 -17v-206q0 -26 36 -26h61q36 0 36 31v451q0 34 -43 34h-213v65h288q39 0 65 -21t26 -59v-476q0 -91 -69 -91h-233q-76 0 -76 98v207q0 31 18 54t47 23h42v60q0 19 -28 19h-73v65h144q33 0 47 -11t14 -44v-156h-65z" />
    <glyph glyph-name="sa_bandi" horiz-adv-x="396" 
d="M419 95q0 -98 -72 -96l-97 1q-20 0 -37 29q-11 -29 -30 -29h-101q-68 0 -68 85v193q0 29 33 55h-48v63h99v55q0 14 -17 14h-65v65h133q53 0 53 -53v-141h-31q-15 0 -24 -12t-9 -24v-208q0 -26 15 -27q19 -1 19 27v142h90v-136q0 -33 19 -33q16 0 16 29v204q0 37 -22 37
h-44v143q0 52 59 52h131v-65h-66q-19 0 -19 -14v-56h25q60 0 60 -95v-204z" />
    <glyph glyph-name="ha_bandi" horiz-adv-x="388" 
d="M274 465q-12 0 -12 -28v-353q0 -84 -61 -84h-126q-60 0 -60 82v223q0 84 56 84h10v61q0 15 -24 15h-40v65h86q54 0 54 -59v-144h-8q-13 0 -13 -42v-194q0 -26 13 -26h15q13 0 13 30v344q0 91 68 91h99q69 0 69 -74v-456h-122v440q0 25 -8 25h-9z" />
    <glyph glyph-name="La_bandi" horiz-adv-x="432" 
d="M188 196q0 -34 38 -34h72q29 0 29 25v30h116v-68q0 -27 -15 -43t-35 -16h-213q-46 0 -49 44v-152q0 -30 43 -30h130q40 0 40 34v72h114v-104q0 -30 -24 -51t-55 -21h-274q-39 0 -64 21t-25 59v314q0 71 55 68v95q0 91 70 91h62q43 0 57 -24q10 24 56 24h65q76 0 76 -98
v-154h-269v-82zM334 448q0 17 -19 17t-19 -19v-74h-74v75q0 18 -18 18q-20 0 -20 -20v-95h150v98z" />
    <glyph glyph-name="ra.ae" horiz-adv-x="625" 
d="M167 465q-9 0 -19 -6t-10 -17v-352q0 -11 12 -18q11 -7 23 -7h69q29 0 29 28v342q0 30 -45 30h-59zM301 530q39 0 65 -21t26 -59v-360q0 -91 -69 -91h-233q-76 0 -76 98v355q0 25 15 45q4 4 39 36l127 119h131l-116 -122h93h-2zM598 653v-59l-42 -53q-15 -20 -15 -78
v-376q0 -21 23 -21h34v-66h-122q-55 0 -55 56v391q0 52 20 72l67 68h-170v65z" />
    <glyph glyph-name="ra.al" 
d="M125 559l82 98h141l-104 -127h58q39 0 65 -21t26 -59v-360q0 -91 -69 -91h-233q-76 0 -76 98v581h111zM166 465q-9 0 -19 -6t-10 -17v-352q0 -11 12 -18q11 -7 23 -7h69q29 0 29 28v342q0 30 -45 30h-59z" />
    <glyph glyph-name="ra.i" 
d="M178 466q-13 0 -27 -14q-13 -13 -13 -29v-333q0 -11 12 -18q11 -7 23 -7h69q29 0 29 28v342q0 30 -45 30h-48v1zM302 531q39 0 65 -21t26 -59v-360q0 -91 -69 -91h-233q-76 0 -76 98v319q0 72 60 111l212 139h121l-182 -136h77h-1zM20 587q0 22 19 37l31 25q17 14 57 14
h134l-78 -54h-17q-22 0 -30 -5l-27 -19q-17 -12 -17 -22v-11q-39 -28 -45 -34q-25 -22 -28 -42z" />
    <glyph glyph-name="ra.ii" 
d="M178 466q-13 0 -27 -14q-13 -13 -13 -29v-333q0 -11 12 -18q11 -7 23 -7h69q29 0 29 28v342q0 30 -45 30h-48v1zM152 612q4 -7 14 -1l22 16q7 4 3 12l-12 15q-3 5 -11 0l-24 -17q-6 -6 -1 -12zM285 663h121l-182 -136h77q39 0 65 -21t26 -59v-360q0 -91 -69 -91h-233
q-76 0 -76 98v319q0 70 60 111l62 42q-11 -2 -21 12q-10 13 -10 24q-12 -8 -12 -23v-29q-39 -28 -45 -34q-25 -22 -28 -42v132q0 25 26 42l71 46q23 14 49 14q19 0 30 -12l33 -39l9 -24z" />
  </font>
</defs>
</svg>
