<?xml version="1.0" standalone="no"?>
<!DOCTYPE svg PUBLIC "-//W3C//DTD SVG 1.1//EN" "http://www.w3.org/Graphics/SVG/1.1/DTD/svg11.dtd" >
<svg xmlns="http://www.w3.org/2000/svg" xmlns:xlink="http://www.w3.org/1999/xlink" version="1.1">
<metadata>
Created by FontForge 20201107 at Fri Jan 10 07:17:11 2020
 By 
Generated by Fontographer 4.1 by Pushpananda Ekanayaka - The Font master - September 2002
</metadata>
<defs>
<font id="UN-Dharanee" horiz-adv-x="692" >
  <font-face 
    font-family="UN-Dharanee"
    font-weight="300"
    font-stretch="normal"
    units-per-em="1000"
    panose-1="0 0 3 0 0 0 0 0 0 0"
    ascent="800"
    descent="-200"
    bbox="-694 -260.056 1659.8 785"
    underline-thickness="20"
    underline-position="-143"
    unicode-range="U+0020-25CC"
  />
<missing-glyph horiz-adv-x="279" 
 />
    <glyph glyph-name=".notdef" horiz-adv-x="279" 
 />
    <glyph glyph-name=".null" horiz-adv-x="0" 
 />
    <glyph glyph-name="nonmarkingreturn" horiz-adv-x="333" 
 />
    <glyph glyph-name="space" unicode=" " horiz-adv-x="279" 
 />
    <glyph glyph-name="exclaim" unicode="!" horiz-adv-x="288" 
d="M208 230q-28 -21 -97 -14q-55 5 -68 61q-3 17 -3 102q0 171 10 237q9 62 32 85q20 20 50 26q20 4 37 4q41 0 65 -22q18 -16 18 -42q0 -1 -5 -39q-3 -119 -11 -287q-5 -54 -7 -66q-6 -34 -21 -45zM35 86q0 39 31.5 66.5t76.5 27.5t76.5 -27.5t31.5 -66.5t-31.5 -66.5
t-76.5 -27.5t-76.5 27.5t-31.5 66.5z" />
    <glyph glyph-name="quote" unicode="&#x22;" horiz-adv-x="408" 
d="M266 388l-24 194q-4 30 -5 35v10q0 48 39 49q23 1 32 -14q7 -11 8 -36q0 -4 -0.5 -9t-3.5 -31l-23 -198h-23zM168 608v-11q-1 -6 -1 -9l-24 -200h-22l-25 198q-4 32 -4 48q0 17 10.5 29.5t27.5 12.5q22 0 31 -13t9 -36q0 -1 -2 -19z" />
    <glyph glyph-name="hash" unicode="#" horiz-adv-x="500" 
d="M279 246l45 168h-106l-45 -168h106zM8 246h106l47 169h-107l8 36h107l58 210h60l-58 -210h105l57 210h59l-58 -210h107l-10 -36h-106l-45 -169h106l-10 -37h-105l-57 -209h-61l59 209h-106l-57 -209h-59l57 209h-105z" />
    <glyph glyph-name="percentage" unicode="%" horiz-adv-x="538" 
d="M249 120q0 11 2 22q-37 -72 -43 -82q-34 -52 -66 -60q-25 -6 -48 -6q-47 0 -65 24q-14 20 -17.5 33t-3.5 25q0 31 24 77q16 30 54 82q6 8 76 93q24 28 70 82q-37 -25 -82 -25q-57 0 -97.5 37t-40.5 90t40.5 90t97.5 37t97.5 -37t40.5 -90q0 -7 -1 -14q31 67 36 76
q26 47 52 60q20 10 45 10q46 0 74 -28q20 -20 20 -51q0 -36 -30 -99q-25 -51 -82 -124q-47 -60 -95 -119q36 24 80 24q57 0 97.5 -37t40.5 -90t-40.5 -90t-97.5 -37t-97.5 37t-40.5 90zM348 139q0 -29 39 -29q35 0 35 29q0 25 -37 25t-37 -25zM111 531q0 -29 39 -29
q35 0 35 29q0 25 -37 25t-37 -25z" />
    <glyph glyph-name="apostrophe" unicode="'" horiz-adv-x="180" 
d="M124 629q0 -4 -0.5 -6t-2.5 -20l-24 -215h-17l-26 198l-3 24q0 16 -1 24q0 15 6.5 28.5t29.5 13.5q22 0 30 -13.5t8 -33.5z" />
    <glyph glyph-name="bracket_open" unicode="(" horiz-adv-x="326" 
d="M296 17q-25 -43 -84 -43q-31 0 -63 11q-68 24 -108 127q-33 85 -33 170q0 137 69 244q42 65 90 82q27 10 55 10q53 0 79 -35q11 -15 11 -36q0 -36 -27 -70q-78 -95 -78 -185q0 -85 68 -167q30 -37 30 -73q0 -19 -9 -35z" />
    <glyph glyph-name="bracket_close" unicode=")" horiz-adv-x="326" 
d="M28 571q25 43 84 43q31 0 63 -11q68 -24 108 -127q33 -85 33 -170q0 -137 -69 -244q-42 -65 -90 -82q-27 -10 -55 -10q-53 0 -79 35q-11 15 -11 36q0 36 27 70q78 95 78 185q0 85 -68 167q-30 37 -30 73q0 19 9 35z" />
    <glyph glyph-name="asterisk" unicode="*" horiz-adv-x="444" 
d="M357 637q41 -31 34 -79q-2 -15 -60 -15q-31 0 -69 4q102 -32 102 -59q0 -5 -3 -9q-26 -32 -89 -48q-30 -7 -52 91q-3 -24 -9 -42q-14 -42 -43 -49q-15 -3 -51.5 18t-36.5 34q0 21 94 64q-35 -5 -64 -5q-50 0 -57 16q-3 5 -3 14q0 18 9.5 39t20.5 26q5 3 12 3
q33 0 100 -49q-34 54 -34 79q0 12 9 16q44 15 105 0q6 -2 6 -13q0 -24 -31 -82q69 49 99 49q7 0 11 -3z" />
    <glyph glyph-name="plus" unicode="+" horiz-adv-x="595" 
d="M354 71q-19 -53 -65 -53q-38 0 -57 29q-11 19 -12 56q0 -6 2 52q1 15 2 33q-36 -1 -60 -2q-58 -2 -53 -2q-36 0 -55 12q-30 18 -30 56q0 47 54 66q33 12 102 15q15 1 44 1q0 28 -1 45q-1 26 -3 52q-1 27 3 41q16 44 70 44q37 0 53 -25.5t20 -100.5q2 -19 2 -56
q48 -1 68 -2q75 -5 100.5 -20.5t25.5 -52.5q0 -54 -45 -70q-13 -5 -41 -3q-25 1 -51 3h-57q0 -9 -1 -16q-3 -69 -15 -102z" />
    <glyph glyph-name="comma" unicode="," horiz-adv-x="284" 
d="M135 159q50 0 81 -20q39 -25 45 -90q9 -106 -108 -172q-22 -12 -50 -12q-24 0 -42 9q-23 11 -23 32q0 19 22.5 44.5t22.5 30.5q0 15 -13 22.5t-26 14.5q-30 24 -30 57q0 35 32.5 59.5t88.5 24.5z" />
    <glyph glyph-name="minus" unicode="-" horiz-adv-x="480" 
d="M80 318q33 12 102 15q74 3 139 -1q75 -5 100.5 -20.5t25.5 -52.5q0 -54 -45 -70q-13 -5 -41 -3q-25 1 -51 3q-46 1 -146 -3q-58 -2 -53 -2q-36 0 -55 12q-30 18 -30 56q0 47 54 66z" />
    <glyph glyph-name="dot" unicode="." horiz-adv-x="284" 
d="M23 93q0 39 34.5 66t83.5 27q48 0 82.5 -27t34.5 -66t-34.5 -66t-82.5 -27q-49 0 -83.5 27t-34.5 66z" />
    <glyph glyph-name="slash" unicode="/" horiz-adv-x="442" 
d="M352 640q34 0 58 -13q29 -16 29 -46q0 -31 -49 -135q-51 -108 -143 -301q-38 -81 -45 -93q-29 -48 -62 -56q-25 -6 -52 -6q-58 0 -74 30q-8 15 -8 34q0 31 26 84l52 106q38 78 107 223l42 92q28 55 56.5 68t62.5 13z" />
    <glyph glyph-name="0" unicode="0" horiz-adv-x="596" 
d="M292 591q140 0 215 -75q81 -81 81 -220q0 -140 -66 -213q-82 -91 -230 -91t-221 89q-65 79 -65 211q0 138 78 222q71 77 208 77zM292 439q-47 -1 -73 -46q-23 -40 -23 -108q0 -57 25 -98q27 -44 71 -44q46 0 71 49q22 41 22 103q0 56 -23 97q-26 48 -70 47z" />
    <glyph glyph-name="1" unicode="1" horiz-adv-x="252" 
d="M196 11q-29 -21 -99 -14q-51 5 -65 50q-8 25 -8 203q0 165 4 218q2 24 3 48q3 29 14 42q21 26 52 31q62 10 103 -13q28 -16 26 -88q1 -159 -2 -366q-5 -54 -7 -66q-6 -34 -21 -45z" />
    <glyph glyph-name="2" unicode="2" horiz-adv-x="552" 
d="M98 376q-83 3 -89 58q-8 67 74.5 113.5t202.5 42.5q118 -4 188 -57t69 -131q-1 -62 -66 -108q-16 -12 -131 -71q-78 -40 -98 -69q113 7 132 7q57 -1 74 -3q34 -5 57 -23q29 -23 29 -58q0 -36 -26 -57.5t-62 -21.5q-14 0 -60.5 5.5t-76.5 4.5q-36 -1 -93.5 -6t-77.5 -5
q-21 0 -35 3q-103 23 -103 112q0 70 82 134q40 31 120.5 73t92.5 52q19 15 19 31q0 38 -66 37q-36 -1 -74 -33t-82 -30z" />
    <glyph glyph-name="3" unicode="3" horiz-adv-x="552" 
d="M234 244q-54 0 -33 -1q-18 1 -29 11q-19 16 -19 43q0 31 25 49q12 9 57 11t62.5 16t17.5 29q0 18 -20 29t-53 9q-36 -2 -67.5 -33t-80.5 -30q-79 2 -85 57q-8 67 69.5 113.5t196.5 42.5t187 -55.5t60 -128.5q-8 -69 -90 -100q46 -13 77.5 -47t32.5 -77q3 -83 -72 -133
q-71 -48 -192 -54q-122 -6 -198 36q-79 44 -73 123q5 61 86 66t98 -43q4 -12 23.5 -22t41.5 -9q69 4 69 47q0 21 -18 36t-73 15z" />
    <glyph glyph-name="4" unicode="4" horiz-adv-x="586" 
d="M479 9q-26 -18 -120 -14q-33 1 -45 9q-7 4 -14.5 20t-0.5 81q-34 -4 -98 -4q-140 0 -177 21q-22 12 -22 65q0 20 3 42q5 36 51 90q2 3 79 85q73 70 162 156q24 24 56 29q73 12 118 -13q29 -16 26 -88q-4 -84 1 -228h35q32 -1 41 -15q7 -10 6 -54q-1 -39 -5 -59
q-5 -24 -80 -24q-1 -30 -3.5 -61t-12.5 -38zM302 265q4 108 0 145q-40 -44 -104 -122q-5 -6 -5 -11q0 -17 50 -17q30 0 59 5z" />
    <glyph glyph-name="5" unicode="5" horiz-adv-x="536" 
d="M93 220q91 5 108 -43q10 -28 47 -31q25 -2 43 12.5t18 35.5q0 33 -47 49q-29 10 -107 18q-58 7 -93 32q-53 39 -53 113q0 37 15 76q11 30 36 58q33 36 71 42q22 4 39 4q12 0 46 -4t70 -5q30 -1 75.5 4t59.5 5q39 0 70 -24.5t31 -63.5q0 -29 -21.5 -47t-53.5 -23
q-20 -4 -74 -4q-17 0 -143 8q-13 -16 -13 -28q0 -20 44 -28l82 -10q86 -15 136.5 -64.5t47.5 -119.5q-4 -84 -71 -132.5t-186 -54.5q-122 -6 -194 36q-75 44 -69 123q5 61 86 66z" />
    <glyph glyph-name="6" unicode="6" horiz-adv-x="542" 
d="M13 354q34 133 137 194q68 40 165 45q96 5 162 -21q54 -21 54 -79q0 -43 -31 -63q-20 -13 -41 -13q-13 0 -49.5 9t-65.5 9q-11 0 -22 -1q-52 -5 -88 -40q-32 -31 -29 -60q10 17 48.5 30.5t85.5 13.5q15 0 31 -2q83 -9 128 -67q42 -53 36 -127q-7 -86 -74 -138
q-71 -54 -185 -51q-100 2 -158 36.5t-90 108.5q-21 49 -23 127q-1 49 9 89zM225 224q-13 -16 -13 -36q0 -28 22 -45q16 -13 36 -13q28 0 45 22q13 16 13 36q0 28 -22 45q-16 13 -36 13q-28 0 -45 -22z" />
    <glyph glyph-name="7" unicode="7" horiz-adv-x="552" 
d="M200 -3q-74 14 -74 72q0 35 45 110q32 53 65 105q50 88 76 143q-115 -7 -144 -7q-57 1 -74 3q-34 5 -57 23q-29 23 -29 58q0 36 26 57.5t62 21.5q14 0 62 -5q45 -6 75 -5q36 1 95 6q56 5 76 5q21 0 35 -3q103 -23 103 -112q0 -44 -52 -142q-40 -76 -75 -145
q-32 -62 -45 -86q-25 -44 -48 -68q-33 -35 -85 -35q-18 0 -37 4z" />
    <glyph glyph-name="8" unicode="8" horiz-adv-x="556" 
d="M275 -10q-118 0 -195 52t-74 135q2 43 33.5 79.5t76.5 49.5q-82 31 -90 103q-9 77 62 131t189 53t189 -54t63 -130q-8 -72 -90 -103q45 -13 76.5 -49.5t33.5 -79.5q3 -83 -75.5 -135t-198.5 -52zM232 434q-10 -14 -10 -31q0 -26 20 -41q14 -10 31 -10q26 0 41 20
q10 14 10 31q0 26 -20 41q-14 10 -31 10q-26 0 -41 -20zM274 251q-27 0 -42.5 -18t-15.5 -40q0 -27 18 -42.5t40 -15.5q27 0 44 19q14 17 14 39q0 27 -19 44q-17 14 -39 14z" />
    <glyph glyph-name="9" unicode="9" horiz-adv-x="542" 
d="M526 235q-34 -133 -137 -194q-68 -40 -165 -45q-96 -5 -162 21q-54 21 -54 79q0 43 31 63q20 13 41 13q13 0 49.5 -9t65.5 -9q11 0 22 1q52 5 88 40q32 31 29 60q-10 -17 -47 -30q-40 -14 -87 -14q-15 0 -31 2q-83 9 -128 67q-42 53 -36 127q7 86 74 138q71 54 185 51
q100 -2 158 -36.5t90 -108.5q21 -49 23 -127q1 -49 -9 -89zM314 365q13 16 13 36q0 28 -22 45q-16 13 -36 13q-28 0 -45 -22q-13 -16 -13 -36q0 -28 22 -45q16 -13 36 -13q28 0 45 22z" />
    <glyph glyph-name="colon" unicode=":" horiz-adv-x="294" 
d="M26 119q0 39 34.5 66t83.5 27q48 0 82.5 -27t34.5 -66t-34.5 -66t-82.5 -27q-49 0 -83.5 27t-34.5 66zM29 337q0 39 34 66t83 27t83.5 -27t34.5 -66t-34.5 -66t-83.5 -27t-83 27t-34 66z" />
    <glyph glyph-name="semicolon" unicode=";" horiz-adv-x="284" 
d="M135 159q50 0 81 -20q39 -25 45 -90q9 -106 -108 -172q-22 -12 -50 -12q-24 0 -42 9q-23 11 -23 32q0 19 22.5 44.5t22.5 30.5q0 15 -13 22.5t-26 14.5q-30 24 -30 57q0 35 32.5 59.5t88.5 24.5zM24 283q0 39 34 66t83 27t83.5 -27t34.5 -66t-34.5 -66t-83.5 -27t-83 27
t-34 66z" />
    <glyph glyph-name="lessthan" unicode="&#x3c;" horiz-adv-x="564" 
d="M535 66v-74l-505 247v27l505 248v-75l-374 -186z" />
    <glyph glyph-name="equals" unicode="=" horiz-adv-x="464" 
d="M71 435q28 12 85 15q97 5 175 -1q63 -5 84 -20.5t21 -52.5q0 -54 -37 -70q-12 -5 -34 -3q-22 1 -43 3q-75 2 -181 -3q-48 -2 -43 -2q-31 0 -47 12q-24 18 -24 56q0 47 44 66zM69 233q28 12 85 15q97 5 175 -1q63 -5 84 -20.5t21 -52.5q0 -54 -37 -70q-12 -5 -34 -3
q-22 1 -43 3q-75 2 -181 -3q-48 -2 -43 -2q-31 0 -47 12q-24 18 -24 56q0 47 44 66z" />
    <glyph glyph-name="greaterthan" unicode="&#x3e;" horiz-adv-x="564" 
d="M9 439v75l544 -248v-27l-544 -247v74l413 187z" />
    <glyph glyph-name="question" unicode="?" horiz-adv-x="572" 
d="M378 236q-25 -18 -31.5 -39.5t-31.5 -34.5q-21 -11 -60 -11q-61 0 -81 19q-23 22 -23 49q0 33 28 62q19 20 99 64q70 39 80 65q6 15 6 30q0 28 -20.5 47.5t-53.5 22.5q-28 3 -54 -4q-36 -9 -36 -32q0 -24 45 -21q14 1 25.5 -13.5t11.5 -34.5q0 -24 -19 -42
q-29 -28 -106 -28q-67 0 -105 32q-42 35 -38 101q3 52 39 94q60 70 175 81q35 3 62 3q69 0 137 -28q133 -56 131 -191q-1 -94 -84 -143q-37 -16 -96 -48zM150 94q20 40 92 40q37 0 66 -12q39 -16 39 -59q0 -16 -7 -29q-20 -40 -93 -40q-40 0 -67 14q-38 20 -38 55q0 15 8 31
z" />
    <glyph glyph-name="at" unicode="@" horiz-adv-x="921" 
d="M426 176q58 0 93 93.5t36 137.5q1 55 -54 55q-54 0 -97 -84q-38 -73 -38 -133q0 -69 60 -69zM90 308q0 160 128 267q120 100 283 101q131 1 226.5 -75t95.5 -199q0 -90 -55 -171q-62 -90 -148 -90q-53 0 -78 32q-15 20 -17 47q-11 -32 -45 -56t-68 -24q-60 0 -95.5 39
t-35.5 99q0 81 62 151t142 70q31 0 57 -16.5t34 -44.5l16 49h80l-26 -83q-11 -33 -30 -95q-20 -70 -20 -90q0 -17 13 -29.5t30 -12.5q64 0 109 84q39 71 39 140q1 110 -88 176q-79 60 -193 61q-129 1 -235 -91q-113 -98 -114 -238q-1 -133 95 -213q90 -75 226 -75
q48 0 101 13q86 21 145 67l19 -28q-138 -87 -280 -87q-147 0 -256 86q-117 93 -117 236z" />
    <glyph glyph-name="backslash" unicode="\" horiz-adv-x="442" 
d="M88 640q34 0 62.5 -13t56.5 -68l42 -92q69 -145 107 -223l52 -106t26 -84q0 -19 -8 -34q-16 -30 -74 -30q-27 0 -52 6q-33 8 -62 56q-7 12 -45 93q-92 193 -143 301q-49 104 -49 135q0 30 29 46q24 13 58 13z" />
    <glyph glyph-name="brace_open" unicode="{" horiz-adv-x="383" 
d="M346 14q-30 -59 -114 -59q-80 0 -124 79q-26 47 -28 138v51q0 23 -8 47q-4 11 -21 23q-21 13 -27 23t-6 32q0 37 14 54q14 13 28 25q17 16 20 35q5 41 10 81q6 45 20 73q33 71 94 96q27 11 55 11q55 0 84 -40q16 -22 16 -52q0 -49 -29 -65q-34 -19 -45 -55
q-8 -32 -15 -65q-10 -31 -29 -57q-22 -30 -41 -34q69 -20 64 -141q-2 -49 58 -86q34 -21 34 -70q0 -24 -10 -44z" />
    <glyph glyph-name="brace_close" unicode="}" horiz-adv-x="383" 
d="M41 662q30 59 114 59q80 0 124 -79q27 -47 28 -138v-51q1 -23 8 -47q4 -12 23 -24t25.5 -22.5t6.5 -32.5q0 -37 -14.5 -51.5t-28.5 -27.5q-17 -16 -20 -34l-10 -82q-6 -44 -20 -73q-32 -71 -94 -95q-27 -12 -55 -12q-55 0 -84 41q-16 22 -16 52q0 48 29 65q34 19 45 54
q8 33 15 66q10 30 30.5 58t40.5 33q-70 20 -65 141q2 48 -58 86q-34 21 -34 70q0 23 10 44z" />
    <glyph glyph-name="degree" unicode="&#xb0;" horiz-adv-x="310" 
d="M13 501q0 44 41.5 75.5t99.5 31.5t99.5 -31.5t41.5 -75.5t-41.5 -75.5t-99.5 -31.5t-99.5 31.5t-41.5 75.5zM110 520q0 -14 12.5 -23.5t30.5 -9.5t30.5 9.5t12.5 23.5t-12.5 23.5t-30.5 9.5t-30.5 -9.5t-12.5 -23.5z" />
    <glyph glyph-name="paragraphsign" unicode="&#xb6;" horiz-adv-x="453" 
d="M432 643q-28 -1 -41 -13q-20 -17 -27 -75q-6 -47 -6 -134v-272q0 -118 -30 -180q-56 -115 -212 -115q-50 0 -76 17q-27 14 -28 44q-1 17 13 31q14 11 32 11q43 0 45 -43q1 -14 -11 -29q54 -1 76 56q11 30 17 113q1 11 2 60v167q-89 0 -148 51.5t-59 139.5q0 53 26.5 96.5
t73.5 66.5q30 14 75 21q41 6 121 6h157v-19zM215 475v-295q0 -142 -2 -162q-12 -102 -68 -136l1 -6q100 19 132 109q19 54 19 195v187q0 104 4 165q6 85 34 111h-80q-7 0 -19 -22q-10 -17 -13 -28q-5 -18 -7 -75q0 -16 -1 -43z" />
    <glyph glyph-name="middledot" unicode="&#xb7;" horiz-adv-x="250" 
d="M167 332q0 -25 -16.5 -41.5t-41.5 -16.5t-41 16.5t-16 41.5q0 24 15.5 40t39.5 17t42 -16t18 -41z" />
    <glyph glyph-name="multiply" unicode="&#xd7;" horiz-adv-x="484" 
d="M432 104q-12 -39 -56 -39q-27 0 -58 28q-4 3 -46 47q-11 12 -24 25q-23 -24 -39 -42l-32 -36q-25 -25 -47 -29q-23 -4 -46 9.5t-31 34.5q-13 30 0.5 62t57.5 80q10 11 29 31q-22 21 -35 33q-20 18 -41 36.5t-28.5 32.5t-7.5 30q0 27 18.5 47.5t43.5 20.5q31 0 102 -62
q16 -14 44 -41q32 32 47 44q53 47 81 53q30 5 57.5 -22t27.5 -59q0 -12 -4 -22q-6 -13 -25 -30t-37 -33q-13 -12 -38 -38q6 -7 12 -12q50 -53 67 -86.5t8 -62.5z" />
    <glyph glyph-name="divide" unicode="&#xf7;" horiz-adv-x="595" 
d="M80 318q33 12 102 15q143 6 256 -1q75 -5 100.5 -20.5t25.5 -52.5q0 -54 -45 -70q-13 -5 -41 -3q-25 1 -51 3q-119 3 -263 -3q-58 -2 -53 -2q-36 0 -55 12q-30 18 -30 56q0 47 54 66zM194 94q0 28 27.5 48t67.5 20q39 0 67 -20t28 -48t-28 -48t-67 -20q-40 0 -67.5 20
t-27.5 48zM197 425q0 28 27.5 48t67.5 20q39 0 67 -20t28 -48t-28 -48t-67 -20q-40 0 -67.5 20t-27.5 48z" />
    <glyph glyph-name="anusa" unicode="&#xd82;" horiz-adv-x="478" 
d="M51 273q64 67 179 67q79 0 140 -36q87 -52 87 -133q0 -54 -44 -100q-66 -69 -183 -69q-78 0 -137 35q-86 51 -86 134q0 56 44 102zM175 177q0 -16 18 -27t44 -11t44 11t18 27q0 15 -18 26t-44 11t-44 -11t-18 -26z" />
    <glyph glyph-name="visar" unicode="&#xd83;" horiz-adv-x="304" 
d="M10 353q0 44 41.5 75.5t99.5 31.5t99.5 -31.5t41.5 -75.5t-41.5 -75.5t-99.5 -31.5t-99.5 31.5t-41.5 75.5zM107 372q0 -14 12.5 -23.5t30.5 -9.5t30.5 9.5t12.5 23.5t-12.5 23.5t-30.5 9.5t-30.5 -9.5t-12.5 -23.5zM3 107q0 44 41.5 75.5t99.5 31.5t99.5 -31.5
t41.5 -75.5t-41.5 -75.5t-99.5 -31.5t-99.5 31.5t-41.5 75.5zM100 126q0 -14 12.5 -23.5t30.5 -9.5t30.5 9.5t12.5 23.5t-12.5 23.5t-30.5 9.5t-30.5 -9.5t-12.5 -23.5z" />
    <glyph glyph-name="v_a" unicode="&#xd85;" horiz-adv-x="708" 
d="M697 340q-21 -25 -43 -26q-17 0 -23 -2q-28 -9 -41 -76q-9 -45 -11 -87q7 1 22 7q12 4 23 4q36 0 51 -24q16 -27 16 -60q0 -23 -14 -43t-37 -25q-41 -7 -59 -8q2 -59 6 -95q-1 -30 -19 -47q-30 -29 -92 -21q-39 5 -60 29q-13 14 -17 33q-1 3 -5 31q-2 14 -2 63
q-71 -1 -108 -2q-117 7 -177 33q-94 41 -96 137q-2 71 61 107q56 32 160 32q10 0 27 -1q14 -1 18 0q7 0 7 4q0 25 -80 25q-14 0 -39 -9t-47 -7q-29 3 -46 22q-15 16 -15 39q0 49 57 71q40 16 98 16q20 0 42 -2q59 -5 87 -14q64 -22 90 -70q41 72 123 84q75 11 118 -12
q33 -18 33 -72q0 -24 -8 -34zM401 183q-52 2 -109 2q-74 0 -72 -25q3 -30 90 -30q50 0 88 5q3 32 3 48z" />
    <glyph glyph-name="v_aa" unicode="&#xd86;" horiz-adv-x="500" 
d="M279 246l45 168h-106l-45 -168h106zM8 246h106l47 169h-107l8 36h107l58 210h60l-58 -210h105l57 210h59l-58 -210h107l-10 -36h-106l-45 -169h106l-10 -37h-105l-57 -209h-61l59 209h-106l-57 -209h-59l57 209h-105z" />
    <glyph glyph-name="v_ae" unicode="&#xd87;" horiz-adv-x="500" 
d="M279 246l45 168h-106l-45 -168h106zM8 246h106l47 169h-107l8 36h107l58 210h60l-58 -210h105l57 210h59l-58 -210h107l-10 -36h-106l-45 -169h106l-10 -37h-105l-57 -209h-61l59 209h-106l-57 -209h-59l57 209h-105z" />
    <glyph glyph-name="v_aee" unicode="&#xd88;" horiz-adv-x="500" 
d="M279 246l45 168h-106l-45 -168h106zM8 246h106l47 169h-107l8 36h107l58 210h60l-58 -210h105l57 210h59l-58 -210h107l-10 -36h-106l-45 -169h106l-10 -37h-105l-57 -209h-61l59 209h-106l-57 -209h-59l57 209h-105z" />
    <glyph glyph-name="v_i" unicode="&#xd89;" horiz-adv-x="646" 
d="M200 -6q-1 19 13.5 37.5t31.5 23.5q19 1 71 10q33 8 66 32q48 35 48 83q0 136 -140 130q-36 -1 -61 -17q-19 -13 -21 -26q-4 -24 30 -24q9 0 26 4t26 4q55 0 71 -66q3 -11 3 -20q0 -56 -78 -84q-44 -16 -90 -16q-26 0 -48 5q-74 16 -111 65q-33 43 -29 115q3 66 41 110
q66 76 175 91q44 6 86 6q104 0 174.5 -32.5t112.5 -97.5q45 -68 39 -144q-6 -74 -53 -128q-42 -48 -89 -57q42 -4 71 -35.5t29 -72.5q0 -40 -30 -75q-62 -71 -262 -75q-61 -1 -126 16q-96 25 -117 80q-5 14 -5 29q0 30 19 53t51 27q28 3 57 -9q3 -1 39 -20q33 -18 102 -16
q44 1 44 16q0 7 -15 10t-46.5 0.5t-52 1.5t-36 24t-16.5 42z" />
    <glyph glyph-name="v_ii" unicode="&#xd8a;" horiz-adv-x="681" 
d="M463 486q0 37 30 63.5t72 26.5t72 -26.5t30 -63.5q0 -72 -69 -91q27 -21 47 -52q34 -52 34 -115t-33.5 -115.5t-102.5 -83.5t-156 -35q-204 -9 -298 81q-73 70 -71 160q2 85 65 147q11 11 71 73q-12 -3 -26 -3q-41 -1 -71 28.5t-30 67.5q0 37 30 63.5t72 26.5t71.5 -26
t30.5 -62q13 18 36 54t58 51q20 8 42 8q46 0 83 -31q21 -18 21 -51q0 -31 -37 -75q-15 -19 -44 -44q38 -3 81 -12q-8 17 -8 36zM247 297q-30 -27 -30 -63q0 -47 49 -74q40 -22 91 -21q52 1 91 27t39 71q0 36 -32 64q-42 37 -109 33q-62 -3 -99 -37zM529 513q0 -29 39 -29
q35 0 35 29q0 25 -37 25t-37 -25zM93 575q0 -29 39 -29q35 0 35 29q0 25 -37 25t-37 -25z" />
    <glyph glyph-name="v_u" unicode="&#xd8b;" horiz-adv-x="712" 
d="M210 282q-37 0 -61 16q-28 18 -28 52q0 54 79 82q67 24 176 25q95 1 170 -28q89 -34 118 -99q15 -33 15 -74q0 -56 -31 -88q-36 -37 -96 -44l-138 -4h-62q-43 -1 -69 -5q-51 -7 -59 -33q-7 -22 9 -44q32 -44 183 -44q91 0 122 66q15 32 110 30q48 0 64 -19t16 -55
q0 -41 -30 -78q-90 -110 -292 -116q-183 -5 -290 61q-111 68 -104 187q7 120 108 162q80 33 254 36q111 2 112 18q1 23 -45 28q-13 2 -77 2q-30 0 -72 -13q-58 -18 -62 -19q-9 -2 -20 -2z" />
    <glyph glyph-name="v_uu" unicode="&#xd8c;" horiz-adv-x="500" 
d="M279 246l45 168h-106l-45 -168h106zM8 246h106l47 169h-107l8 36h107l58 210h60l-58 -210h105l57 210h59l-58 -210h107l-10 -36h-106l-45 -169h106l-10 -37h-105l-57 -209h-61l59 209h-106l-57 -209h-59l57 209h-105z" />
    <glyph glyph-name="v_iru" unicode="&#xd8d;" horiz-adv-x="1074" 
d="M66 324q-26 7 -40.5 27t-10.5 41q9 44 71 59q31 7 75 7q97 0 142 -35q21 -17 37 -47.5t14 -53.5q-8 -81 -90 -112q-24 -9 -37 -16q-24 -13 -25 -26q-1 -16 12.5 -24t27.5 -6q19 2 29 20q1 6 3 19q1 3 6 11q18 28 78 26q45 -2 60 -16q18 -17 15 -39.5t13 -22.5q18 0 23 22
q5 18 -23 56l-33 42q-39 55 -39 98q0 48 49 81q36 25 116 25q52 0 82 -10q19 -6 34.5 -25t16.5 -37q1 -29 -14 -42t-47 -12t-32 -19q0 -7 5 -16q11 -12 32 -41q17 -21 23 -31q12 -19 17 -37q6 -22 6 -44q0 -83 -75 -125q-42 -24 -121 -24q-33 0 -72 11q-47 13 -59 34
q-36 -39 -123 -45q-93 -7 -140 24q-62 41 -66 127q-3 68 38 107q33 31 82 43q15 4 31 8.5t17 9.5q1 10 -7 11q-5 2 -20 -1q-54 -9 -81 -2zM739 314q-48 14 -48 63q0 17 8 31q13 24 60 38q42 12 93 12q105 0 162 -67t49 -173q-2 -25 -9 -51q-9 -30 -11 -47q-1 -8 -1 -16
q0 -18 6.5 -43.5t6.5 -32.5q0 -13 -10 -19q-18 -10 -57 -11q-35 -1 -61 5q-31 7 -34 37q0 3 -1 3q-16 0 -37 -19q-24 -21 -36.5 -23.5t-25.5 -2.5q-51 0 -76 22q-46 40 -46 108q0 75 41.5 118t109.5 43q28 0 49 -9q-7 21 -16 27q-7 2 -15.5 5.5t-23.5 3.5q-5 0 -40 -3
q-25 -3 -37 1zM884 208q-33 -2 -42 -20q-11 -22 -6 -52t29 -30q13 0 14 16q2 20 5 86z" />
    <glyph glyph-name="v_iruu" unicode="&#xd8e;" horiz-adv-x="500" 
d="M279 246l45 168h-106l-45 -168h106zM8 246h106l47 169h-107l8 36h107l58 210h60l-58 -210h105l57 210h59l-58 -210h107l-10 -36h-106l-45 -169h106l-10 -37h-105l-57 -209h-61l59 209h-106l-57 -209h-59l57 209h-105z" />
    <glyph glyph-name="v_ilu" unicode="&#xd8f;" horiz-adv-x="1185" 
d="M309 71q-11 -17 -25 -29q-42 -36 -112 -36q-81 0 -122 57q-37 50 -37 131q0 22 3 44q13 110 86.5 171t181.5 55q116 -7 121 -48q35 1 70 -4q51 -8 89 -34q57 -39 56 -81q0 -29 -14 -48.5t-54 -40.5q-16 -5 -47 -20q-20 -12 -20 -21q0 -19 43 -28q31 -6 70 -5
q56 2 78.5 10t33.5 24q16 16 0 40q-13 11 -38 35q-40 42 -38 86q1 24 15 38q6 6 37 27q41 28 131 24q5 26 47 37q25 6 87 9q101 6 161 -47t60 -150q0 -103 -50 -176q-58 -84 -157 -85q-71 0 -104 36l-2 2q-88 -51 -279 -48q-163 2 -225 40q-28 17 -46 35zM282 368v0
q-7 8 -17 8q-19 0 -43 -22t-38 -48q-25 -49 -25 -120q0 -60 28 -60q5 0 10 2q24 11 13 34q-2 5 -11.5 7.5t-12.5 6.5q-8 10 -8 23q0 12 8 29q15 31 50 31q44 0 70 -31q19 13 55 24q43 14 57 21q7 4 7 11q0 12 -15 10q-47 -6 -85 -1q-27 4 -41.5 20t-10.5 34q2 10 9 21z
M882 232q33 27 73 27q33 0 44 -31q9 -30 -12 -52q-3 -4 -13 -6t-14 -8q-13 -25 6 -34q5 -2 10 -2q23 0 34 36q14 40 14 90q0 32 -7 54q-8 26 -27.5 48t-38.5 22q-10 0 -19 -8q6 -12 7 -21q2 -24 -10.5 -34t-46.5 -8q-52 3 -52 -21q0 -10 21 -28q16 -12 31 -24z" />
    <glyph glyph-name="v_iluu" unicode="&#xd90;" horiz-adv-x="500" 
d="M279 246l45 168h-106l-45 -168h106zM8 246h106l47 169h-107l8 36h107l58 210h60l-58 -210h105l57 210h59l-58 -210h107l-10 -36h-106l-45 -169h106l-10 -37h-105l-57 -209h-61l59 209h-106l-57 -209h-59l57 209h-105z" />
    <glyph glyph-name="v_e" unicode="&#xd91;" 
d="M128 311q-49 0 -64 10q-24 16 -24 47q0 44 50 67q34 16 84 18q84 4 146 -42.5t72 -124.5q4 -28 -7 -53t-26 -33q-8 -5 -32 -14q-14 -2 -34 -12q-1 -3 -1 -6q0 -18 50 -19q49 -1 88 27q48 35 57 100q2 14 2 27q0 43 -23 82q-10 -8 -33 -8q-53 0 -79 19q-34 25 -60 75
q-20 38 -47 42q-49 8 -49 49q0 28 26.5 53.5t67.5 27.5q84 5 187 -39q29 -12 83 -52q130 -96 124 -279q-2 -70 -41.5 -134t-96.5 -98q-76 -45 -248 -45q-22 0 -43 1q-213 11 -213 105q0 53 49 72q-53 -2 -85 27q-11 10 -11 34q0 29 23 45q28 19 75 17q12 0 40 -4.5t40 -4.5
q24 0 24 9q0 14 -71 14zM427 465q-10 14 -33 42q-28 27 -72 35q29 -18 54 -54q12 -23 51 -23z" />
    <glyph glyph-name="v_ee" unicode="&#xd92;" 
d="M449 616q2 24 7 54q9 62 32 85q20 20 50 26q20 4 38 4q46 0 70 -22q18 -16 18 -42q0 -1 -5 -39q-4 -34 -9 -89q-4 -51 -6 -61q-5 -33 -17 -46q63 -88 59 -213q-2 -70 -41.5 -134t-96.5 -98q-76 -45 -248 -45q-22 0 -43 1q-213 11 -213 105q0 53 49 72q-53 -2 -85 27
q-11 10 -11 34q0 29 23 45q28 19 75 17q12 0 40 -4.5t40 -4.5q24 0 24 9q0 14 -71 14q-49 0 -64 10q-24 16 -24 47q0 44 50 67q34 16 84 18q84 4 146 -42.5t72 -124.5q4 -28 -7 -53t-26 -33q-8 -5 -32 -14q-14 -2 -34 -12q-1 -3 -1 -6q0 -18 50 -19q49 -1 88 27
q48 35 57 100q2 14 2 27q0 43 -23 82q-10 -8 -33 -8q-53 0 -79 19q-34 25 -60 75q-20 38 -47 42q-49 8 -49 49q0 28 26.5 53.5t67.5 27.5q72 4 157 -27zM427 465q-10 14 -33 42q-28 27 -72 35q29 -18 54 -54q12 -23 51 -23z" />
    <glyph glyph-name="v_ei" unicode="&#xd93;" horiz-adv-x="500" 
d="M279 246l45 168h-106l-45 -168h106zM8 246h106l47 169h-107l8 36h107l58 210h60l-58 -210h105l57 210h59l-58 -210h107l-10 -36h-106l-45 -169h106l-10 -37h-105l-57 -209h-61l59 209h-106l-57 -209h-59l57 209h-105z" />
    <glyph glyph-name="v_o" unicode="&#xd94;" horiz-adv-x="705" 
d="M241 138q23 5 28 28q4 19 28 32t65 15t60 -20q12 -14 3 -35q-2 -4 -2 -8q0 -14 19 -12q27 4 47 68q15 53 15 93q0 84 -56 136q-45 41 -160 41q-49 0 -77.5 -5t-86.5 -14q-10 -1 -19 -1q-71 0 -76 64q-3 46 62 74q71 30 207 32q100 1 193 -31q45 -16 82 -43
q129 -95 127 -281q-1 -78 -32 -146q-36 -77 -99 -106q-52 -24 -103 -24q-19 0 -46 3q-59 5 -82 44q-47 -51 -152 -45q-97 5 -137.5 54.5t-40.5 143.5q0 34 6 69q17 96 96 144q65 39 167 39q23 0 45 -2q90 -9 124 -69q13 -24 13 -50t-13 -48q-16 -26 -46 -42q-35 -18 -79 -18
q-34 0 -65 12q-38 14 -49 40q-7 -15 -9 -22q-4 -13 -5 -36q-2 -34 9 -55q13 -25 39 -19zM251 343q0 -13 13 -22.5t32 -9.5t32 9.5t13 22.5t-13 22.5t-32 9.5t-32 -9.5t-13 -22.5z" />
    <glyph glyph-name="v_oo" unicode="&#xd95;" horiz-adv-x="705" 
d="M442 138q27 3 47 69q17 53 17 91q0 78 -65 137q-34 31 -151 37q-41 2 -111 -1q-82 -5 -99 -5q-19 0 -32 2q-22 3 -22 32q0 34 29 38q24 3 29 5q13 4 14 13q1 12 -16.5 21t-18.5 26q-2 56 103 75q61 11 168 14q68 2 144 -5q92 -7 126 -23q22 -10 38 -30t13 -38
q-7 -43 -60 -49q-25 -3 -71 6q-63 12 -90 15q-105 10 -168 -1q-17 -3 -17 -8q0 -9 25 -10q39 2 136 1q123 -7 173 -37q66 -40 94 -103q23 -54 22 -139q-1 -80 -32 -147q-35 -76 -98 -105q-52 -24 -103 -24q-19 0 -46 3q-59 5 -82 44q-47 -51 -152 -45q-97 5 -137.5 54.5
t-40.5 143.5q0 34 6 69q17 96 96 144q65 39 167 39q23 0 45 -2q90 -9 124 -69q13 -24 13 -50t-13 -48q-16 -26 -46 -42q-35 -18 -79 -18q-34 0 -65 12q-38 14 -49 40q-7 -15 -9 -22q-4 -13 -5 -36q-2 -34 9 -55q13 -25 39 -19q23 5 28 28q4 19 28 32t65 15t60 -20
q12 -14 3 -35q-2 -4 -2 -8q0 -14 19 -12zM251 343q0 -13 13 -22.5t32 -9.5t32 9.5t13 22.5t-13 22.5t-32 9.5t-32 -9.5t-13 -22.5z" />
    <glyph glyph-name="v_ou" unicode="&#xd96;" horiz-adv-x="500" 
d="M279 246l45 168h-106l-45 -168h106zM8 246h106l47 169h-107l8 36h107l58 210h60l-58 -210h105l57 210h59l-58 -210h107l-10 -36h-106l-45 -169h106l-10 -37h-105l-57 -209h-61l59 209h-106l-57 -209h-59l57 209h-105z" />
    <glyph glyph-name="ka" unicode="&#xd9a;" horiz-adv-x="804" 
d="M199 157q10 0 9 -4q-2 -17 12 -17q5 0 11 2q2 1 5 13.5t14.5 18t30.5 5.5q22 1 33 -8q5 -4 15 -27q4 -6 13 -3q7 3 10 8q13 17 1 54q-12 36 -50 38q-28 -15 -58 -41q-20 -16 -46 -39zM396 445q43 12 111 12q63 0 97 -10q69 -21 113 -63t61 -98q12 -39 12 -79
q0 -42 -14 -91q-15 -52 -58 -91q-17 -15 -46 -23t-51 -5q-68 10 -81 51q-2 8 -2 16q0 18 22 59q32 58 32 104q0 71 -67 86q-40 9 -67 -4q30 -9 57 -42q35 -43 35 -105q0 -82 -65 -131q-53 -40 -124 -33q-70 7 -84 36q-29 -37 -119 -37q-55 0 -80 15.5t-25 46.5q0 12 5 23
q9 15 -1 15q-4 0 -11 -4q-4 -2 -13 2.5t-13 9.5q-12 15 -15 46q-4 38 21 63q40 40 83 70q25 17 59 39q-11 10 -39 -3q-22 -10 -39 -10q-13 0 -29 5q-44 15 -44 59q0 28 26 50q17 15 44 24q31 11 78 11q78 0 120 -26q11 -6 30 -22q32 20 81 34z" />
    <glyph glyph-name="kha" unicode="&#xd9b;" horiz-adv-x="678" 
d="M16 520q-3 46 63 74q70 30 191 32q102 1 196 -31q46 -16 83 -43q120 -88 122 -277q1 -70 -26 -135t-72 -107q-37 -34 -93 -34q-23 0 -41 7q-22 9 -44 34q-18 21 -31 21q-5 0 -10 -1q-22 -6 -13 -34q8 -23 8 -21q0 -6 -11 -13q-19 -12 -53 -12q-30 0 -37 12
q-24 42 -24 104q0 81 39 130q11 16 14 22q9 18 4 30q-4 10 -17 15q-13 4 -23 0q-19 -7 -29 -21q-23 -31 -23 -69q0 -21 8 -52q6 -18 11.5 -36.5t5.5 -33.5q0 -17 -6 -37q-15 -50 -81 -50q-47 0 -76 36q-45 56 -45 168q0 21 2 40q6 73 49 131q59 80 168 85q158 7 198 -90
q17 -40 13 -76q-6 -52 -46 -78q11 3 18 3q10 0 17 -9t13 -10q33 -8 40 84q7 94 -62 157q-45 41 -140 41q-50 0 -80 -5q-71 -12 -85 -14q-9 -1 -17 -1q-34 0 -55 18t-23 46z" />
    <glyph glyph-name="ga" unicode="&#xd9c;" horiz-adv-x="787" 
d="M321 371q36 44 92 70q38 17 106 17q60 0 97 -11q86 -26 129 -103q32 -57 32 -125q0 -46 -18 -103q-17 -53 -61 -91q-18 -15 -47 -23t-51 -5q-68 10 -80 51q-2 7 -2 15q0 21 23.5 60.5t31.5 69.5t8 54q0 68 -55 68q-18 0 -32.5 -10.5t-15.5 -24.5q7 -2 30 -25
q26 -26 30 -66q4 -33 -18.5 -77t-60.5 -68q-55 -35 -101.5 -41t-91.5 -6q-113 0 -174 36.5t-75 89.5q-11 42 -11 88q0 37 8 66q20 76 65 132q36 45 95 49q82 5 112 -41q8 -12 8 -24q0 -17 -22 -50q-28 -41 -37 -63q-15 -38 -15 -73q0 -18 4 -31q12 -35 55 -38q18 -1 34 4
q21 7 21 22q0 17 -20 19q-26 2 -34 16.5t-8 36.5q0 34 18 79q15 37 31 56z" />
    <glyph glyph-name="gha" unicode="&#xd9d;" horiz-adv-x="685" 
d="M82 324q-26 7 -40.5 27t-10.5 41q9 44 71 59q31 7 75 7q97 0 142 -35q21 -17 37 -47.5t14 -53.5q-7 -64 -87 -113q-15 -9 -30 -24t-15 -30q0 -17 19 -17q18 0 22 22q-1 11 8 37q21 30 89 27q53 -2 70 -18q14 -13 14 -29q0 -10 -5.5 -18t-3.5 -16t11 -7q18 2 23 22
q5 18 -23 56l-33 42q-39 55 -39 98q0 48 49 81q36 25 116 25q52 0 82 -10q19 -6 34.5 -25t16.5 -37q1 -29 -14 -42t-47 -12t-32 -19q0 -7 5 -16q11 -12 32 -41q17 -21 23 -31q12 -19 17 -37q6 -22 6 -44q0 -83 -75 -125q-44 -24 -133 -24q-22 0 -37 2q-48 8 -64 31
q-12 18 -12 37q0 16 19 60q5 13 5 21q0 14 -16 14q-26 1 -26 -24q0 -9 5 -27.5t5 -29.5q0 -37 -21 -56q-24 -22 -100 -28q-34 -2 -77 4.5t-63 17.5q-54 31 -54 81q0 53 46 79q-22 -2 -53.5 13t-31.5 55q0 16 8 28q21 30 73 29q46 -1 77 1q38 2 38 16q0 10 -28 5
q-54 -9 -81 -2z" />
    <glyph glyph-name="knaasi" unicode="&#xd9e;" horiz-adv-x="705" 
d="M57 44q-22 29 -22 68q0 23 7 42q19 48 84 76q27 11 114 32q37 9 42 48q4 28 -10.5 52.5t-43.5 25.5q13 -23 13 -46q0 -36 -31 -66q-42 -40 -112 -40q-21 0 -38 6q-58 19 -58 81q0 67 86 107q64 30 172 27q77 -2 132.5 -40.5t55.5 -92.5q0 -14 -4 -28q-10 -33 -56 -52
q-30 -9 -61 -18t-89 -30q-20 -9 -20 -32q0 -27 23 -26q21 1 28 28q5 19 28.5 32t64.5 15q40 1 60 -20q12 -13 3 -35q-2 -4 -2 -8q0 -14 19 -12q28 4 47 69q15 52 15 92q0 91 -56 143q-40 37 -145 42q-36 2 -94 -7q-27 -6 -85 -15q-93 -6 -95 65q-1 47 62 74q71 30 207 32
q100 1 193 -31q45 -16 82 -43q129 -95 127 -288q-1 -78 -32 -146q-36 -77 -99 -106q-52 -24 -103 -24q-19 0 -46 3q-51 5 -82 44q-46 -49 -152 -45q-96 4 -129 47zM106 344q0 -26 32 -26t32 26t-32 26t-32 -26z" />
    <glyph glyph-name="nga" unicode="&#xd9f;" horiz-adv-x="1012" 
d="M136 427q42 19 104 21q-34 -1 80 -1q17 0 36 1q29 9 44 10q82 5 112 -41q8 -12 8 -24q0 -17 -22 -50q-28 -41 -37 -63q-16 -39 -16 -73q0 -67 60 -69q55 -2 55 26q0 17 -20 19q-26 2 -34 16.5t-8 36.5q0 34 18 79q15 37 31 56q36 44 92 70q38 17 106 17q60 0 97 -11
q86 -27 129 -103q32 -57 32 -125q0 -46 -18 -103q-17 -53 -61 -91q-18 -15 -47 -23t-51 -5q-68 10 -80 51q-2 7 -2 15q0 21 23.5 60.5t31.5 69.5t8 54q0 68 -55 68q-18 0 -32.5 -10.5t-15.5 -24.5q7 -2 30 -25q26 -26 30 -66q4 -33 -18.5 -77t-60.5 -68q-55 -35 -101.5 -41
t-91.5 -6q-113 0 -174 36.5t-75 89.5q-11 42 -11 88q0 57 25 119q-26 -15 -41 -37q-25 -38 -25 -100q0 -18 2 -35q6 -43 26 -74q8 -13 8 -27q0 -26 -31 -44q-27 -16 -55 -16q-17 0 -36 5q-49 14 -78 79q-26 61 -21 144q4 69 45 129q34 50 85 73z" />
    <glyph glyph-name="cha" unicode="&#xda0;" 
d="M27 520q-4 45 64.5 74.5t190.5 31.5q103 1 196 -31q47 -16 83 -43q131 -97 124 -279q-3 -70 -42 -134t-96 -98q-76 -45 -247 -45q-22 0 -43 1q-103 5 -156 30q-57 27 -57 75q0 53 49 72q-53 -2 -85 27q-11 10 -11 34q0 29 23 45q28 19 75 17q1 0 51 -4q30 -3 50 0
q29 4 33 16q2 7 -14 8q-12 0 -26 -3q-24 -5 -51 -5q-49 0 -74 17t-25 45q0 41 50 64.5t148 20.5q81 -2 140 -44.5t59 -103.5q0 -47 -29 -80.5t-76 -44.5q-28 -7 -45.5 -10t-21 -7.5t-3.5 -7.5q0 -15 54 -16q59 -1 106 31q55 38 64 103q2 12 2 25q0 80 -59 134
q-45 41 -141 41q-50 0 -80 -5q-71 -12 -85 -14q-9 -1 -17 -1q-33 0 -54.5 18t-23.5 46z" />
    <glyph glyph-name="Ja" unicode="&#xda1;" 
d="M79 318q-49 13 -49 59q0 52 81 73q57 15 117 2q43 -9 78 -44q32 -32 32 -80q0 -11 -2 -20q-10 -42 -50 -78q-14 -13 -43 -30q-16 -9 -16 -24q0 -10 7 -18q23 -26 107 -24q43 1 64 6q39 9 45 32q-63 33 -80 88l-16 42q-9 33 -10 106q-1 85 30 160q13 31 40 59q38 42 88 54
q32 8 66 8q52 0 84 -15q61 -28 54 -107q-4 -47 -43 -55q-4 -1 -24 1q-24 2 -37 2q-34 0 -48 -11q-23 -18 -30 -47q14 4 34 4q62 0 89 -21q36 -29 45 -70q6 -27 6 -54q0 -82 -56 -140q11 -22 11 -46q0 -64 -81 -99q-87 -38 -260 -35q-160 2 -223 42q-73 46 -77 110
q-2 30 8 55q13 32 54 56q23 14 64 24t41 24q0 12 -14 10q-56 -7 -86 1zM508 336q0 -21 19 -37q15 -13 31 -13t28.5 12.5t11.5 33.5q-3 40 -40 46q-20 3 -35 -9.5t-15 -32.5z" />
    <glyph glyph-name="ja" unicode="&#xda2;" 
d="M79 318q-49 13 -49 59q0 52 81 73q56 15 129 3q49 -8 86 -34q52 -37 48 -99q-5 -67 -73 -102q-17 -9 -50 -26q-21 -12 -21 -23q0 -21 47 -30q33 -6 64 -5q55 2 78 10.5t36 21.5q16 17 1 43q-16 27 -34 48q-37 42 -32 95q4 40 44 73q-50 31 -50 107q0 22 5 40
q24 87 113 109q32 8 66 8q52 0 84 -15q61 -28 54 -107q-4 -47 -43 -55q-4 -1 -25 3t-32 4q-21 0 -27.5 -9.5t-6.5 -19.5q0 -33 51 -34q9 -1 31 -10q17 -7 30 -25t13 -33q0 -62 -61 -74q-21 -4 -44 6q-10 -9 -6 -22q4 -11 25 -29q25 -20 27 -23q28 -30 33 -68
q6 -45 -20.5 -84.5t-78.5 -62.5q-87 -38 -260 -35q-160 2 -223 42q-73 46 -77 110q-2 30 8 55q13 32 54 56q23 14 64 24t41 24q0 12 -14 10q-56 -7 -86 1z" />
    <glyph glyph-name="kdha" unicode="&#xda3;" horiz-adv-x="1228" 
d="M536 224q12 37 40 64q10 6 20 20q1 10 -32 14q-26 2 -40 0q-24 -3 -66 -13q55 -17 78 -85zM938 -2q-59 5 -82 44q-49 -52 -152 -45q-100 7 -145 80q-9 15 -16 37q-16 -51 -58 -83q-53 -40 -124 -33q-70 7 -84 36q-29 -37 -119 -37q-55 0 -80 15.5t-25 46.5q0 12 5 23
q9 15 -1 15q-4 0 -11 -4q-4 -2 -13 2.5t-13 9.5q-12 15 -15 46q-4 38 21 63q40 40 83 70q25 17 59 39q-11 10 -39 -3q-22 -10 -39 -10q-13 0 -29 5q-44 15 -44 59q0 28 26 50q17 15 44 24q31 11 78 11q78 0 120 -26q11 -6 30 -22q62 21 121 29q97 14 164 6q43 -3 158 -24
q32 -8 55.5 -32t20.5 -52q-2 -26 -22 -38l-32 -16q-39 -31 -47 -74q-4 -20 0 -41q6 -26 22 -31t26 34q2 14 5 27q5 20 21 34q29 26 71 25q37 -1 56 -22q11 -13 11 -32q0 1 -8 -46q-2 -10 5 -15.5t18 -4.5q27 4 47 68q15 53 15 93q0 84 -56 136q-42 39 -160 43q-56 2 -79 -2
q-27 -5 -85 -14q-9 -1 -17 -1q-34 0 -55 18t-23 46q-3 46 61 73.5t208 27.5q104 0 193 -31q45 -16 82 -43q129 -95 127 -281q-1 -78 -32 -146q-36 -77 -99 -106q-52 -24 -103 -24q-19 0 -46 3zM199 157q10 0 9 -4q-2 -17 12 -17q5 0 11 2q2 1 5 13.5t14.5 18t30.5 5.5
q22 1 33 -8q5 -4 15 -27q4 -6 13 -3q7 3 10 8q13 17 1 54q-12 36 -50 38q-28 -15 -58 -41q-20 -16 -46 -39z" />
    <glyph glyph-name="kna" unicode="&#xda4;" horiz-adv-x="1322" 
d="M783 185q22 54 76 78q45 20 96 24q32 0 63 1q85 2 92 21q6 16 -53 16q-19 0 -61 -3q-33 -3 -47 -6q-21 -5 -53 -20q-38 -18 -49 -18q-19 0 -45 15q-31 17 -42 20q-40 9 -67 -4q30 -9 56 -41t34 -83zM869 436q11 5 29 10q78 21 193 12q59 -4 94 -16q56 -19 87.5 -56.5
t31.5 -82.5q0 -15 -4 -31q-12 -49 -78 -74q-24 -9 -62 -12l-64 -4q-25 -1 -64 -5q-28 -4 -27 -16q1 -9 37 -14q18 -2 56 -1q36 1 61 8q20 6 39 12q14 3 27 3q43 0 65 -33q16 -24 16 -49q0 -45 -42 -67q-31 -16 -84 -23q-17 -2 -60 -7q-30 -3 -30 -17q0 -17 39 -17q17 0 41 4
q9 2 48 19q32 15 64 9q57 -10 59 -75q1 -47 -61 -86q-70 -44 -232 -36q-188 9 -188 118q0 31 19 56.5t45 32.5q-129 18 -148 111q-16 -48 -56 -78q-53 -40 -124 -33q-70 7 -84 36q-29 -37 -119 -37q-55 0 -80 15.5t-25 46.5q0 12 5 23q9 15 -1 15q-4 0 -11 -4q-4 -2 -13 2.5
t-13 9.5q-12 15 -15 46q-4 38 21 63q40 40 83 70q25 17 59 39q-11 10 -39 -3q-22 -10 -39 -10q-37 0 -58 25q-34 -16 -51 -42q-25 -38 -25 -100q0 -18 2 -35q6 -43 26 -74q8 -13 8 -27q0 -26 -31 -44q-27 -16 -55 -16q-17 0 -36 5q-49 14 -78 79q-26 61 -21 144q4 69 45 129
q32 47 85 71q40 18 98 21q12 1 80 -1q34 14 86 14q78 0 120 -26q11 -6 30 -22q32 20 81 34q43 12 111 12q63 0 97 -10q18 -5 30 -11zM434 157q10 0 9 -4q-2 -17 12 -17q5 0 11 2q2 1 5 13.5t14.5 18t30.5 5.5q22 1 33 -8q5 -4 15 -27q4 -6 13 -3q7 3 10 8q13 17 1 54
q-12 36 -50 38q-28 -15 -58 -41q-20 -16 -46 -39z" />
    <glyph glyph-name="gna" unicode="&#xda5;" horiz-adv-x="1296" 
d="M764 191q23 50 73 72q45 20 96 24q32 0 63 1q85 2 92 21q6 17 -50 17q-37 0 -53.5 -3t-63.5 -19q-47 -22 -79 -20q-19 1 -37 12q-22 13 -41 18q-6 1 -12 1q-18 0 -32.5 -10.5t-15.5 -24.5q7 -2 31 -26t29 -63zM863 440q11 2 34 7q70 19 172 11q59 -4 94 -16
q56 -19 87.5 -56.5t31.5 -82.5q0 -15 -4 -31q-12 -49 -78 -74q-24 -9 -62 -12l-64 -4q-25 -1 -64 -5q-28 -4 -27 -16q1 -9 37 -14q18 -2 56 -1q36 1 61 8q20 6 39 12q14 3 27 3q43 0 65 -33q16 -24 16 -49q0 -45 -42 -67q-31 -16 -84 -23q-17 -2 -60 -7q-30 -3 -30 -17
q0 -17 39 -17q17 0 41 4q9 2 48 19q32 15 64 9q57 -10 59 -75q1 -47 -61 -86q-70 -44 -232 -36q-188 9 -188 118q0 31 19 56.5t45 32.5q-143 20 -150 128q-23 -54 -67 -82q-55 -35 -101.5 -41t-91.5 -6q-113 0 -174 36.5t-75 89.5q-11 42 -11 88q0 57 25 119
q-26 -15 -41 -37q-25 -38 -25 -100q0 -18 2 -35q6 -43 26 -74q8 -13 8 -27q0 -26 -31 -44q-27 -16 -55 -16q-17 0 -36 5q-49 14 -78 79q-26 61 -21 144q4 69 45 129q34 50 85 73q42 19 104 21q-34 -1 80 -1q17 0 36 1q29 9 44 10q82 5 112 -41q8 -12 8 -24q0 -17 -22 -50
q-28 -41 -37 -63q-16 -39 -16 -73q0 -67 60 -69q55 -2 55 26q0 17 -20 19q-26 2 -34 16.5t-8 36.5q0 34 18 79q15 37 31 56q36 44 92 70q38 17 106 17q60 0 97 -11q10 -3 21 -7z" />
    <glyph glyph-name="nja" unicode="&#xda6;" 
d="M79 318q-49 13 -49 59q0 52 81 73q56 15 129 3q49 -8 86 -34q52 -37 48 -99q-5 -67 -73 -102q-17 -9 -50 -26q-21 -12 -21 -23q0 -21 47 -30q33 -6 64 -5q55 2 78 10.5t36 21.5q16 17 1 43q-16 27 -34 48q-37 42 -32 95q4 40 44 73q-50 31 -50 107q0 22 5 40
q24 87 113 109q32 8 66 8q52 0 84 -15q61 -28 54 -107q-4 -47 -43 -55q-4 -1 -25 3t-32 4q-21 0 -27.5 -9.5t-6.5 -19.5q0 -33 51 -34q9 -1 31 -10q17 -7 30 -25t13 -33q0 -62 -61 -74q-21 -4 -44 6q-10 -9 -6 -22q4 -11 25 -29q25 -20 27 -23q28 -30 33 -68
q6 -45 -20.5 -84.5t-78.5 -62.5q-87 -38 -260 -35q-160 2 -223 42q-73 46 -77 110q-2 30 8 55q13 32 54 56q23 14 64 24t41 24q0 12 -14 10q-56 -7 -86 1z" />
    <glyph glyph-name="ta" unicode="&#xda7;" 
d="M30 520q-3 45 63 74q70 30 192 32q101 1 195 -31q49 -17 84 -43q132 -98 124 -279q-3 -73 -46 -140q-45 -70 -111 -101q-75 -35 -191 -35q-44 0 -84 6q-132 18 -195 91q-16 19 -30 55.5t-15 64.5q-3 61 27 117q33 60 107 91q55 22 103 22q14 0 29 -1q40 -4 65 -30
q22 -23 22 -51q0 -13 -6 -23q-16 -25 -36 -33q-9 -4 -34 -7q-31 -4 -52 -23.5t-21 -49.5q0 -12 4 -25q21 -53 92 -61q73 -8 123.5 40t50.5 121q0 79 -60 134q-45 41 -140 41q-51 0 -80 -5q-64 -11 -85 -14q-9 -1 -17 -1q-33 0 -54.5 18t-23.5 46z" />
    <glyph glyph-name="Ta" unicode="&#xda8;" horiz-adv-x="698" 
d="M491 276q-1 32 -13 67q-11 30 -21 42q-10 -8 -33 -8q-52 0 -78 19q-34 25 -60 75q-20 38 -48 42q-52 8 -47 54q3 28 28.5 51t63.5 25q84 4 186 -39q35 -15 85 -52q132 -98 137 -279q2 -85 -26 -151q-32 -74 -96 -103q-52 -24 -103 -24q-19 0 -46 3q-58 5 -81 44
q-49 -52 -154 -45q-104 7 -148 78q-35 57 -33 132q2 74 31 126q35 63 91 89q44 20 89 20q13 0 27 -1q43 -4 69 -31q23 -24 23 -52q0 -22 -17.5 -39t-39.5 -20q-60 -7 -68 -89q-2 -22 2 -42q7 -27 24 -30q21 -3 26 34v30q2 22 18 36q23 21 69 20q37 -1 56 -22q28 -32 20 -78
q-2 -10 5 -15.5t18 -4.5q19 2 32.5 42t11.5 96zM420 465q-10 19 -35 42q-28 26 -72 35q29 -17 54 -54q12 -24 43 -24q5 0 10 1z" />
    <glyph glyph-name="Da" unicode="&#xda9;" horiz-adv-x="705" 
d="M37 63q-8 14 -8 37q0 63 44 76q-36 -1 -65 25q-11 10 -11 34q0 29 23 45q28 19 75 17q7 0 53 -5q33 -4 52 -1q39 5 43 18q2 7 -21 8q-19 0 -33 -3q-24 -5 -51 -5q-49 0 -74 17t-25 45q0 41 50 64.5t148 20.5q79 -2 137 -39.5t58 -90.5q0 -13 -4 -26q-11 -36 -43 -55
q-18 -11 -64 -24q-29 -6 -83 -25q-19 -10 -19 -33q0 -26 22 -25q21 1 26 21q6 26 30 39t65 15q47 2 60 -20q11 -17 3 -35q-2 -4 -2 -8q0 -14 19 -12q27 4 47 68q15 53 15 93q0 84 -56 136q-45 41 -160 41q-49 0 -77.5 -5t-86.5 -14q-9 -1 -17 -1q-34 0 -55 18t-23 46
q-3 46 62 74q71 30 207 32q100 1 193 -31q45 -16 82 -43q129 -95 127 -281q-1 -78 -32 -146q-36 -77 -99 -106q-52 -24 -103 -24q-19 0 -46 3q-59 5 -82 44q-49 -52 -152 -45q-113 8 -149 66z" />
    <glyph glyph-name="Dha" unicode="&#xdaa;" horiz-adv-x="705" 
d="M442 138q20 3 38 43.5t19 94.5q1 58 -34 109q-18 -9 -42 -9q-44 0 -69 20q-18 15 -55 70q-29 43 -53 47q-52 8 -47 54q3 28 28.5 51t63.5 25q84 4 186 -39q35 -15 85 -52q67 -49 103.5 -123.5t34.5 -157.5q-2 -82 -32 -147q-35 -73 -97 -105q-46 -24 -103 -24
q-20 0 -48 3q-59 5 -82 44q-49 -52 -152 -45q-114 8 -149 66q-9 14 -9 37q0 58 45 76q-36 -1 -65 25q-11 10 -11 34q0 29 23 45q28 19 75 17q13 0 39 -5q18 -3 37 -1q24 3 24 13q0 16 -46 10q-57 -7 -83.5 11t-26.5 46q0 43 49 64q30 13 88 13q73 0 133 -36q71 -42 75 -112
q2 -28 -18.5 -50.5t-44.5 -28.5q-29 -6 -83 -25q-19 -10 -19 -33q0 -26 22 -25q21 1 26 21q6 26 30 39t65 15q47 2 60 -20q11 -17 3 -35q-2 -4 -2 -8q0 -14 19 -12zM428 465q-11 19 -35 42q-28 26 -72 35q29 -17 54 -54q12 -25 42 -25q6 0 11 2z" />
    <glyph glyph-name="Na" unicode="&#xdab;" horiz-adv-x="1057" 
d="M253 338q-35 0 -51 -25q-7 -11 -7 -23q0 -15 10 -27q25 28 48 75zM266 144q11 2 27.5 -1t24.5 -3q21 0 51 10q42 14 64 51q20 33 15 70q-5 21 -24 38q-5 -11 -24 -41q3 -8 3 -18q0 -32 -31 -60t-75 -29q-19 -12 -31 -17zM519 427q4 2 11 6q46 25 105 25q18 0 35 -3
q52 -8 77 -44q43 46 118 46q72 0 122 -45q28 -26 45.5 -71t16.5 -94q-3 -155 -127 -221q-64 -34 -160 -29q-73 4 -106 25t-33 56q0 24 16 38q27 24 65 24q6 0 19 -1h19q21 0 39 5q45 13 63 57q14 34 13 72q-1 39 -17 41q-23 4 -25 -47v-36q-2 -20 -12 -34q-17 -24 -61 -24
q-50 0 -66 23q-7 11 -7 30q0 9 2 31q3 18 2 25q-2 14 -11.5 25.5t-18.5 10.5q-1 0 -7 -2q18 -40 18 -81q-1 -127 -130 -200q-47 -27 -127 -36q-34 -4 -98 3q-13 1 -40 11q-21 7 -47 6q-22 -1 -38 -9q-20 -9 -26 -10q-16 -3 -31 -3q-43 0 -71.5 24t-28.5 65q0 42 38 64
q22 12 51 17q7 5 21 16q-35 11 -58 36t-32 54q-8 28 2 66t54 72q70 54 192 48q6 20 12 64q5 37 15 60q19 44 67 57q15 4 32 4q54 0 80 -32q15 -18 15 -53q0 -59 -29 -119q15 -2 42 -13z" />
    <glyph glyph-name="nDa" unicode="&#xdac;" horiz-adv-x="936" 
d="M262 63q-8 14 -8 37q0 63 44 76q-42 -2 -65 25q-10 11 -10 32q0 30 22 47q27 20 75 17q83 -6 105 -3q38 5 43 15q5 11 -19 12q-19 1 -35 -3q-37 -9 -64 -9q-38 0 -62 17q-29 3 -25 3q-30 -2 -50 -27q-24 -29 -24 -92q0 -24 4 -52q6 -43 26 -74q8 -13 8 -27q0 -26 -31 -44
q-27 -16 -55 -16q-17 0 -36 5q-49 14 -78 79q-26 61 -21 144q4 69 45 129q31 45 83 71q41 20 92 20q41 0 88 -19q66 31 160 28q77 -2 130 -37.5t53 -88.5q0 -14 -4 -28q-11 -36 -43 -55q-18 -11 -64 -24q-29 -6 -83 -25q-19 -10 -19 -33q0 -26 22 -25q21 1 26 21q6 26 30 39
t65 15q47 2 60 -20q11 -17 3 -35q-2 -4 -2 -8q0 -14 19 -12q27 4 47 68q15 53 15 93q0 84 -56 136q-45 41 -160 41q-49 0 -77.5 -5t-86.5 -14q-9 -1 -17 -1q-34 0 -55 18t-23 46q-3 46 62 74q71 30 207 32q100 1 193 -31q45 -16 82 -43q129 -95 127 -281q-1 -78 -32 -146
q-36 -77 -99 -106q-52 -24 -103 -24q-19 0 -46 3q-59 5 -82 44q-49 -52 -152 -45q-114 8 -149 66z" />
    <glyph glyph-name="tha" unicode="&#xdad;" horiz-adv-x="787" 
d="M236 175q16 4 16 -10q0 -2 -1 -5.5t-1 -5.5q0 -19 36 -19q28 0 44 21t8 40q-6 22 -35 33q-12 -7 -34 -25t-33 -29zM398 443q43 14 110 14q57 0 91 -10q68 -21 111 -63.5t58 -97.5q9 -34 9 -69q0 -47 -16.5 -100t-62.5 -92q-18 -15 -47 -23t-50 -5q-83 13 -83 66
q0 17 23 61q22 41 29 72q5 20 5 38q0 71 -60 82q-30 6 -53 -7q21 -10 46 -43t30 -77q4 -38 -17 -80t-59 -66q-73 -47 -209 -47q-102 0 -142 26q-17 11 -21.5 19t-7.5 16q-2 4 -3 17q0 9 -4 9q-1 0 -4 -1t-5 -1q-11 -2 -31 11q-29 19 -29 63q0 32 30 62t80 65q37 26 58 40
q-6 7 -40 -3q-31 -10 -63 1q-43 14 -43 59q0 7 2 14q11 41 72 57q49 13 102 9q60 -5 94 -32q8 -5 22 -20q21 12 78 36z" />
    <glyph glyph-name="Tha" unicode="&#xdae;" 
d="M248 513q-48 8 -48 48q0 29 26 54.5t67 27.5q83 5 186 -39q35 -15 85 -52q132 -98 124 -279q-3 -73 -46 -140q-45 -70 -111 -101q-75 -35 -191 -35q-196 0 -279 97q-16 19 -30 55.5t-15 64.5q-3 61 27 117q33 61 107 91q36 14 72 14q16 0 33 -2q72 -10 72 -75
q0 -10 -2 -19q-4 -17 -19.5 -31.5t-32.5 -15.5t-33 -19q-20 -20 -20 -49q0 -12 4 -24q21 -53 92 -61q62 -7 112 30.5t60 105.5q2 12 2 25q0 57 -23 84q-10 -8 -33 -8q-52 0 -78 19q-34 25 -60 75q-20 38 -48 42zM428 465q-17 27 -33 42q-27 26 -72 35q29 -17 54 -54
q12 -23 51 -23z" />
    <glyph glyph-name="da" unicode="&#xdaf;" horiz-adv-x="555" 
d="M73 407q22 28 77 43q62 17 175 8q59 -4 94 -16q56 -19 87.5 -56t31.5 -83q0 -15 -4 -31q-12 -49 -78 -74q-24 -9 -62 -12l-64 -4q-25 -1 -64 -5q-28 -4 -27 -16q1 -9 37 -14q18 -2 56 -1q36 1 61 8q20 6 39 12q14 3 27 3q43 0 65 -33q16 -24 16 -49q0 -45 -42 -67
q-31 -16 -84 -23q-17 -2 -60 -7q-30 -3 -30 -17q0 -17 39 -17q17 0 41 4q9 2 48 19q32 15 64 9q57 -10 59 -75q1 -47 -61 -86q-70 -44 -232 -36q-188 9 -188 118q0 31 19 56.5t45 32.5q-77 11 -116 51q-34 35 -34 86q0 41 23 76t62 52q45 20 96 24q32 0 63 1q85 2 92 21
q5 15 -39 15q-3 0 -65 -5q-13 -1 -45 -9q-25 -7 -58 -6q-32 1 -53.5 19t-21.5 48q0 21 11 36z" />
    <glyph glyph-name="dha" unicode="&#xdb0;" horiz-adv-x="705" 
d="M420 -2q-59 5 -82 44q-49 -52 -152 -45q-100 7 -145 80q-29 48 -30 129q-1 68 31 125q34 61 107 91q55 22 103 22q14 0 28 -1q41 -4 66 -30q22 -23 22 -51q0 -13 -6 -23q-16 -25 -36 -33q-9 -4 -34 -7q-65 -8 -77 -89q-9 -62 22 -72q16 -5 26 34q2 14 5 27q5 20 21 34
q29 26 71 25q37 -1 56 -22q11 -13 11 -32q0 1 -8 -46q-2 -10 5 -15.5t18 -4.5q27 4 47 68q15 53 15 93q0 84 -56 136q-45 41 -160 41q-49 0 -77.5 -5t-86.5 -14q-9 -1 -17 -1q-34 0 -55 18t-23 46q-3 46 62 74q71 30 207 32q100 1 193 -31q45 -16 82 -43q129 -95 127 -281
q-1 -78 -32 -146q-36 -77 -99 -106q-52 -24 -103 -24q-19 0 -46 3z" />
    <glyph glyph-name="na" unicode="&#xdb1;" horiz-adv-x="787" 
d="M212 159q11 -27 67 -25q26 1 46 13q24 15 19 40q-2 12 -13 18q-10 -16 -14 -21q-8 -7 -25 -16q-34 -17 -80 -9zM405 442q42 16 106 16q54 0 88 -11q68 -21 111 -63.5t58 -97.5q9 -34 9 -68q0 -45 -17 -102q-15 -51 -61 -91q-18 -15 -47 -23t-51 -5q-82 13 -82 66
q0 18 24 59q18 30 20 34q11 21 15 40q3 15 3 29q0 38 -20 64.5t-48 31.5q-31 6 -51 -10q25 -11 48.5 -39.5t27.5 -82.5q2 -34 -18 -76q-22 -46 -58 -69q-54 -35 -103 -41q-43 -5 -84 -5q-108 0 -172 37.5t-81 87.5q-12 36 -12 68q0 48 28 78q33 36 87 30q28 -3 41 -12.5
t26 -10.5q31 -3 31 19q0 6 -3 12q-5 12 -30 14q-20 2 -34 -3q-39 -13 -84 0q-40 12 -40 58q0 9 2 18q4 15 24.5 32.5t47.5 24.5q33 9 74 9q84 0 126 -37q19 -17 24 -28q22 27 75 47z" />
    <glyph glyph-name="nda" unicode="&#xdb3;" horiz-adv-x="782" 
d="M359 442q80 24 192 16q59 -4 94 -16q56 -19 87.5 -56.5t31.5 -82.5q0 -15 -4 -31q-12 -49 -78 -74q-24 -9 -62 -12l-64 -4q-25 -1 -64 -5q-28 -4 -27 -16q1 -9 37 -14q18 -2 56 -1q36 1 61 8q20 6 39 12q14 3 27 3q43 0 65 -33q16 -24 16 -49q0 -45 -42 -67
q-31 -16 -84 -23q-17 -2 -60 -7q-30 -3 -30 -17q0 -17 39 -17q17 0 41 4q9 2 48 19q32 15 64 9q57 -10 59 -75q1 -47 -61 -86q-70 -44 -232 -36q-188 9 -188 118q0 31 19 56.5t45 32.5q-77 11 -116 51q-34 35 -34 86q0 41 23 76t62 52q45 20 96 24q32 0 63 1q85 2 92 21
q5 15 -39 15q-3 0 -65 -5q-13 -1 -45 -9q-25 -7 -58 -6q-31 1 -51 17q-16 6 -32 7q-40 2 -64.5 -35.5t-24.5 -99.5q0 -18 2 -35q6 -43 26 -74q8 -13 8 -27q0 -26 -31 -44q-27 -16 -55 -16q-17 0 -36 5q-53 15 -78 80t-21 143q3 68 45 129q36 52 93 78q43 19 85 24q12 1 62 1
q37 0 68 -15z" />
    <glyph glyph-name="pa" unicode="&#xdb4;" horiz-adv-x="680" 
d="M63 318q-26 7 -41 28t-11 42q9 45 74 62q55 14 128 3q51 -8 89 -34q57 -39 56 -99q-1 -68 -68 -102q-16 -9 -47 -28q-20 -12 -20 -23q0 -19 43 -28q31 -6 70 -5q56 2 78.5 10t33.5 24q17 17 0 43q-14 21 -38 46q-40 41 -38 95q2 49 52 83q36 24 114 24q59 0 92 -13
q16 -7 31 -25t16 -33q2 -27 -10 -43q-15 -19 -47 -17q-52 3 -52 -21q0 -11 24 -31q31 -24 34 -28q41 -41 41 -92q0 -82 -89.5 -122t-259.5 -38q-163 2 -225 40q-76 46 -86 110q-4 25 6 55q11 35 49 57q27 16 62 25q13 3 32 13q7 4 7 11q0 12 -15 10q-55 -7 -85 1z" />
    <glyph glyph-name="pha" unicode="&#xdb5;" 
d="M562 552q130 -96 124 -279q-2 -70 -41.5 -134t-96.5 -98q-76 -45 -247 -45q-23 0 -43 1q-70 4 -127 25q-65 25 -91 65q-21 34 -21 77q0 49 35 82q32 29 83 39q43 8 42 14q-1 7 -9.5 8.5t-22.5 0.5q-18 -2 -19 -2q-47 0 -64 14q-24 19 -24 49q0 43 50 62q29 11 84 12
q80 1 139.5 -37t59.5 -98q0 -11 -2 -22q-15 -79 -100 -96q-34 -7 -33 -23q2 -26 75 -28q63 -2 111 32q54 38 63 105q2 14 2 27q0 43 -23 82q-17 -9 -40 -9q-44 0 -72 20q-34 25 -60 75q-20 38 -47 42q-49 8 -49 49q0 33 31 57q28 22 63 24q84 5 187 -39q29 -12 83 -52z
M427 465q-10 14 -33 42q-28 27 -72 35q29 -18 54 -54q15 -29 51 -23z" />
    <glyph glyph-name="ba" unicode="&#xdb6;" horiz-adv-x="678" 
d="M16 520q-3 46 63 74q70 30 191 32q102 1 196 -31q46 -16 83 -43q130 -96 124 -279q-6 -182 -108 -242q-62 -37 -132 -37q-21 0 -50 3q-88 9 -124 72q-20 36 -20 87q0 25 5 50q12 61 13 74q1 25 -15 25q-15 0 -28 -22q-18 -31 -18 -70q0 -28 9 -62q3 -13 20 -34
q13 -17 13 -39q0 -12 -3 -28q-5 -27 -31 -42.5t-60 -15.5q-57 0 -89 38q-49 57 -49 170q0 20 2 38q6 73 49 131q59 80 168 85q194 8 213 -164q3 -30 -15 -91q-6 -20 -6 -33q0 -26 21 -23q17 2 28 40t12 95q1 99 -62 157q-45 41 -140 41q-50 0 -80 -5q-71 -12 -85 -14
q-9 -1 -17 -1q-34 0 -55 18t-23 46z" />
    <glyph glyph-name="bha" unicode="&#xdb7;" horiz-adv-x="804" 
d="M22 303q22 11 65 12q49 1 54 2q6 5 6 8q0 7 -31 13t-47 8q-42 12 -42 49q0 9 4 17q15 40 89 45q85 5 134 -26q57 -36 57 -108q0 -21 -5 -42q-13 -53 -51 -74q-29 -16 -26 -44q3 -26 52 -29q61 -3 72 21q10 21 -5 26q-33 11 -34 27q-5 56 15 110q18 49 43 76q24 24 73 47
q37 18 100 18q54 0 92 -12q54 -16 97 -60q36 -37 54 -101q9 -33 9 -68q0 -44 -17 -102q-15 -51 -62 -91q-18 -15 -47 -23t-51 -5q-81 12 -81 65q0 16 24 61q23 42 29 72q5 24 5 45q0 71 -49 71q-17 0 -30 -13t-15 -34q18 -4 32 -19q19 -21 23 -56q4 -32 -20.5 -77.5
t-59.5 -65.5q-63 -37 -109 -43q-50 -6 -99 -6q-115 0 -175 35q-52 31 -52 85q0 44 33 69q-47 6 -72 26q-13 13 -13 41q0 34 31 50z" />
    <glyph glyph-name="ma" unicode="&#xdb8;" horiz-adv-x="722" 
d="M29 520q-3 46 63 74q70 30 205 32q118 2 210 -31q45 -16 82 -43q131 -96 125 -279q-2 -73 -41 -135q-40 -65 -110 -102q-75 -40 -206 -40q-104 0 -179.5 24.5t-117.5 73.5q-17 19 -30.5 56t-14.5 64q-2 67 27 117q35 61 107.5 87.5t148.5 24.5q58 -2 105 -25.5t67 -60.5
q15 -28 15 -59q0 -59 -44 -91q-38 -28 -102 -28q-49 0 -82 20q-48 29 -48 66q0 5 1 10q-11 -11 -11 -38q0 -22 8 -37q30 -55 115 -61q81 -6 136 37q59 45 59 125q0 78 -60 134q-44 41 -154 41q-64 0 -92.5 -5t-86.5 -14q-9 -1 -17 -1q-34 0 -55 18t-23 46zM280 340
q-9 -8 -9 -19q0 -13 11.5 -21t27.5 -7q16 0 25 8t9 18q0 14 -13 22q-29 19 -51 -1z" />
    <glyph glyph-name="mba" unicode="&#xdb9;" horiz-adv-x="726" 
d="M418 290q-33 -16 -79 -16q-80 0 -117 42q-19 -25 -26 -69q-3 -17 -2 -39q2 -29 22 -56q15 -21 40 -17q8 1 8 6q0 7 -28 27q-13 9 -13 31q0 31 25 45q39 22 122 22q67 0 92 -36q11 -16 11 -31q0 -27 -25 -35q-30 -9 -30 -27q0 -10 15 -10q18 0 37 19q50 53 50 154
q0 88 -56 135q-49 41 -176 41q-49 0 -77.5 -5t-86.5 -14q-10 -1 -19 -1q-74 0 -76 64q-2 63 111 89q66 16 158 17q116 2 209 -31q45 -16 82 -43q129 -95 127 -281q-1 -78 -32 -146q-36 -77 -99 -106q-52 -24 -115 -24q-21 0 -42 3q-33 4 -55 26q-25 23 -25 56
q-25 -90 -162 -83q-96 5 -137 55t-41 145q0 33 6 67q17 96 96 144q66 40 180 40q23 0 44 -2q88 -8 120 -58q10 -15 10 -32q0 -43 -46 -66zM258 370q2 -22 46 -22q36 0 36 22q0 24 -42 24q-43 0 -40 -24zM352 128q2 4 26 32q4 4 4 9q0 21 -34 21q-13 0 -24 -7.5t-7 -19.5
q4 -11 16.5 -18t18.5 -17z" />
    <glyph glyph-name="ya" unicode="&#xdba;" horiz-adv-x="685" 
d="M127 422q64 36 135 36q38 0 62 -14q35 -20 35 -61q0 -24 -12 -36t-40 -20q-39 -10 -58 -19q-34 -17 -49 -59q-10 -30 -5 -66q6 -39 30 -44q14 -3 25 20q0 6 12 29q15 28 77 26q46 -2 61 -16q23 -22 19 -42q-1 -10 10 -16t22 -4q24 4 24 31q0 17 -18 47q-23 26 -34 42
q-37 52 -39 98q3 50 49 81q36 25 116 25q52 0 82 -10q19 -6 34.5 -25t16.5 -37q1 -29 -14 -42t-47 -12t-32 -18q0 -8 5.5 -18t16.5 -22t15 -18q32 -34 41 -68q6 -22 6 -43q0 -84 -76 -126q-43 -24 -125 -24q-33 0 -54 6q-66 17 -79 39q-36 -39 -125 -45q-35 -3 -77 11
t-67 36q-71 62 -65 171q7 142 122 207z" />
    <glyph glyph-name="ra" unicode="&#xdbb;" horiz-adv-x="681" 
d="M224 469q40 22 89 55q26 18 63 50q15 15 30.5 29.5t32.5 21t40 6.5q63 0 94 -37q14 -17 14 -37q0 -15 -7 -25q-21 -29 -40 -44q-22 -17 -59 -38q24 -4 59 -21q71 -34 105 -86t34 -115t-33.5 -115.5t-102.5 -83.5t-156 -35q-204 -9 -298 81q-73 70 -71 160q2 85 65 144
q35 33 78 57q32 17 63 33zM247 297q-30 -27 -30 -63q0 -47 49 -74q40 -22 91 -21q52 1 91 27t39 71q0 36 -32 64q-42 37 -109 33q-62 -3 -99 -37z" />
    <glyph glyph-name="la" unicode="&#xdbd;" horiz-adv-x="740" 
d="M444 293q42 -11 46 -41q3 -23 -8 -36q-18 -19 -20 -26q-4 -10 -4 -18q0 -22 25 -23q19 -1 36.5 27t16.5 59q-2 51 -52 78q-33 18 -82 18q-65 0 -110 -28q-87 -54 -88 -153q-2 -141 140 -168q34 -7 72 -7q54 0 97 12q30 10 60 19q38 12 66 12q11 0 22 -2q26 -5 45 -27
t18 -41q-1 -27 -16 -44q-9 -9 -37 -26q-75 -45 -253 -45q-65 0 -116 8q-116 19 -190 74q-87 65 -103 176q-3 19 -3 41q0 130 81 216q101 107 273 111q132 3 232 -38q41 -17 75 -50q42 -41 53 -89q7 -31 7 -61q0 -131 -118 -184q-64 -29 -154 -29q-42 0 -77 8
q-128 28 -128 143q0 94 84 129q28 12 59 12q24 0 51 -7z" />
    <glyph glyph-name="va" unicode="&#xdc0;" horiz-adv-x="680" 
d="M16 520q-3 46 63 74q70 30 191 32q102 1 196 -31q46 -16 83 -43q130 -96 124 -279q-2 -70 -41.5 -134t-96.5 -98q-76 -45 -247 -45q-23 0 -43 1q-70 4 -127 25q-65 25 -91 65q-21 34 -21 77q0 59 57 94q29 18 66 28q17 4 57 11q30 5 31 12q3 7 -13 8q-13 0 -27 -3
q-39 -8 -69 -8q-38 0 -57 14q-24 19 -24 48q0 44 51 67.5t147 20.5q81 -2 140 -44t59 -104q0 -46 -30 -79t-77 -42q-27 -5 -54 -9q-20 -5 -24 -13q-10 -24 61 -26q63 -2 111 32q54 38 63 105q2 12 2 25q0 79 -60 134q-45 41 -140 41q-50 0 -80 -5q-71 -12 -85 -14
q-9 -1 -17 -1q-34 0 -55 18t-23 46z" />
    <glyph glyph-name="sha" unicode="&#xdc1;" horiz-adv-x="787" 
d="M602 209q-38 -11 -48 -45q-3 -10 -3 -20t13 -41q15 12 29 42.5t9 63.5zM475 233q34 52 98 61q-6 18 -36 22q-24 3 -50 -9.5t-35 -34.5q5 -4 14 -18q4 -6 9 -21zM416 46q-34 -27 -85 -40q-38 -10 -85 -10q-92 0 -156 38q-51 30 -73 93q-12 34 -11 88q1 32 9.5 65.5
t22.5 62.5q19 40 40 66q36 45 95 49q43 3 66.5 -5t42.5 -34q7 -10 7 -21q0 -15 -19 -49q-27 -45 -36 -69q-23 -60 -10 -104q10 -35 45 -37q22 -1 30 16q7 15 -7 22t-17 9q-7 4 -12 13q-10 17 -10 41q0 63 49 128q36 48 101 73q43 17 117 17q58 0 89 -11q67 -23 103.5 -60
t54.5 -101q9 -33 9 -67q0 -45 -18 -102t-59.5 -90.5t-102.5 -33.5q-27 0 -61 5q-51 7 -51 21q0 8 13 17q10 6 -3.5 16.5t-19.5 16.5q-11 12 -16 25q-17 -28 -42 -48z" />
    <glyph glyph-name="Sha" unicode="&#xdc2;" horiz-adv-x="680" 
d="M59 314q-51 14 -51 57q0 29 25 51q21 20 53 28.5t105 6.5q51 -1 91 -26q51 -32 50 -87q-1 -48 -70 -100q-43 -32 -43 -62q0 -39 54 -52q32 -7 65 -7q46 0 90 14q23 7 40 27.5t17 38.5q0 8 -4 14q-16 -3 -31 -25.5t-24 -31.5q-18 -17 -44 -20q-17 -2 -31 -2q-63 0 -79 40
q-4 11 -4 21q0 65 125 117q-17 29 -11 60q7 39 50 63q36 20 101 20q52 0 85 -13q55 -22 55 -76q0 -40 -52 -86q15 -15 29 -44q15 -33 15 -60q0 -97 -89 -143q-96 -49 -258 -47q-159 2 -225 42q-76 46 -86 110q-4 27 6.5 60.5t48.5 55.5q15 9 44 23l30 15q7 4 7 11
q0 12 -15 10l-32 -6q-18 -2 -37 3z" />
    <glyph glyph-name="sa" unicode="&#xdc3;" horiz-adv-x="685" 
d="M82 324q-26 7 -40.5 27t-10.5 41q9 44 71 59q31 7 75 7q97 0 142 -35q21 -17 37 -47.5t14 -53.5q-8 -79 -83 -124q-11 -6 -28 -20q-7 -5 -15 -25q-3 -15 19 -15q18 0 29 20q1 6 3 19q1 3 6 11q18 28 73 26q45 -2 60 -16q18 -17 15 -40q-2 -12 1 -18t12 -4q18 3 23 22
q5 18 -23 56l-33 42q-39 55 -39 98q0 48 49 81q36 25 116 25q52 0 82 -10q19 -6 34.5 -25t16.5 -37q1 -29 -14 -42t-47 -12t-32 -19q0 -7 5 -16q11 -12 32 -41q17 -21 23 -31q12 -19 17 -37q6 -22 6 -44q0 -83 -75 -125q-42 -24 -121 -24q-33 0 -72 11q-47 13 -59 34
q-36 -39 -123 -45q-34 -2 -77 4.5t-63 17.5q-54 31 -54 81q0 53 46 79q-22 -2 -53.5 13t-31.5 55q0 16 8 28q21 30 73 29q46 -1 77 1q38 2 38 16q0 10 -28 5q-54 -9 -81 -2z" />
    <glyph glyph-name="ha" unicode="&#xdc4;" horiz-adv-x="787" 
d="M217 178q4 -46 63 -44q44 1 53 21q10 21 -5 26q-31 11 -33 27q-7 60 18 118q21 51 47 76q20 18 64 39q37 18 100 18q55 0 93 -12q55 -17 97 -60q63 -64 63 -169q0 -46 -17 -102q-16 -52 -61 -91q-18 -15 -47.5 -23t-50.5 -5q-68 10 -80 51q-2 7 -2 15q0 17 23 60
q12 21 30 72q5 24 5 45q0 27 -10 47q-13 24 -39 24q-17 0 -30 -13.5t-14 -33.5q18 -4 31 -19q19 -19 23 -56q4 -33 -18.5 -77t-59.5 -68q-54 -35 -100.5 -41t-91.5 -6q-114 0 -176 37q-81 48 -81 131q0 51 37 82q22 18 60 33q6 7 6 15q0 15 -16 19q-5 1 -35 8q-47 14 -47 59
q0 11 4 21q17 46 90 55q15 2 30 2q63 0 101 -28q52 -38 52 -99q0 -26 -9 -49q-10 -26 -27 -39q-43 -32 -40 -66z" />
    <glyph glyph-name="La" unicode="&#xdc5;" horiz-adv-x="734" 
d="M410 196q-59 -1 -123 -14q31 -27 109 -25q59 5 74 9q29 4 51.5 -14t22.5 -47q0 -22 -17 -47q-13 -21 -29 -32q-48 -35 -116 -32q-116 5 -170 63q7 -42 49 -68t103 -31q35 -3 77 7.5t65 26.5q41 29 56 56q10 23 22.5 47t37.5 33q14 5 28 5q28 0 51 -19q20 -18 25 -38
t5 -40q0 -36 -19.5 -82.5t-75.5 -89.5q-89 -68 -252 -68q-32 0 -64 3q-135 13 -208 65q-55 39 -83 100q-25 53 -24 106q2 105 64 157q1 57 3 67q5 43 28 78q54 84 161 87q77 2 113 -22q32 -21 37 -27q21 18 43 30q36 19 97 19q27 0 55 -4q46 -7 78.5 -45t32.5 -87
q0 -19 -5 -37q-27 -91 -157 -89q-55 1 -145 -1zM257 274q99 4 141 4q65 1 71 2q39 3 47 16q6 9 6 18q0 13 -9 21t-21 5q-11 -3 -21.5 -12.5t-19.5 -18.5q-26 -23 -51 -25q-34 -3 -57 26q-7 9 -14 17.5t-22 10.5q-21 3 -36.5 -11.5t-15.5 -37.5q0 -7 2 -15z" />
    <glyph glyph-name="fa" unicode="&#xdc6;" horiz-adv-x="685" 
d="M205 279q-9 -26 -9 -65q0 -44 24 -64q18 -15 48 -28q23 -9 29.5 -21t6.5 -29q0 -57 -46 -71q-26 -8 -72 -2q-62 8 -102 45q-71 67 -71 186q0 139 99 202q46 29 119 29q26 0 47 -5q52 -14 70 -43q36 39 125 45q35 3 77 -11t67 -36q71 -62 65 -171q-7 -142 -122 -207
q-64 -36 -125 -36q-38 0 -62 14q-35 20 -35 61q0 24 12 36t35 20q36 10 53 19q34 17 49 59q10 30 5 66q-6 39 -30 44q-18 4 -27 -20q-3 -9 -7 -45q-3 -30 -15 -44q-24 -28 -77 -26q-48 2 -61 16q-22 24 -7 102q1 10 -10 16t-22 4q-18 -3 -31 -40z" />
    <glyph glyph-name="al" unicode="&#xdca;" horiz-adv-x="2" 
d="M-44 421q-29 -21 -103 -14q-51 5 -65 50q-16 50 -3 132q9 62 32 85q20 20 50 26q20 4 38 4q46 0 70 -22q18 -16 18 -42q0 -1 -5 -39q-1 -5 -2 -46q-1 -9 -2 -23q-5 -54 -7 -66q-6 -34 -21 -45z" />
    <glyph glyph-name="aa" unicode="&#xdcf;" horiz-adv-x="353" 
d="M56 316q-47 16 -47 63q0 17 7 31q24 48 114 48q16 0 33 -2q97 -11 143 -87q39 -64 33 -151q-6 -86 -53 -144q-53 -66 -144 -74q-75 -6 -115 20q-27 18 -27 57q0 34 29 50q14 8 48 15t54.5 36t20.5 63q0 26 -13 48q-11 17 -23 23t-29 3q-20 -3 -31 1z" />
    <glyph glyph-name="ae" unicode="&#xdd0;" horiz-adv-x="392" 
d="M31 447q25 10 62 10q40 -1 81 -1q138 2 158 -9q43 -25 43 -68q0 -19 -12 -34q-25 -32 -108 -100q-64 -53 -64 -78q0 -18 19 -18q9 0 50 25q13 8 32 8q25 0 48.5 -13.5t31 -32t7.5 -34.5q0 -31 -26 -57q-50 -49 -167 -48q-81 1 -131 31q-68 41 -60 129q7 73 100 141
q20 14 20 19q0 2 -9 2q-3 0 -17 -1t-23 -1q-34 0 -52 13q-26 18 -26 52q0 48 43 65z" />
    <glyph glyph-name="aee" unicode="&#xdd1;" horiz-adv-x="398" 
d="M37 447q25 10 62 10q40 -1 81 -1q138 2 158 -9q43 -25 43 -68q0 -19 -12 -34q-4 -6 -69 -29q-20 -5 -41 -10q-36 -9 -43 -16q-5 -5 19 -5q12 0 54 2q34 2 41 1q25 -5 25 -25q0 -28 -42 -47q-34 -12 -67 -24q-47 -19 -47 -31t19 -12q18 0 50 17t50 17q28 0 49 -27
q18 -24 18 -54q0 -31 -26 -57q-50 -49 -167 -48q-125 1 -170 67q-18 26 -18 53q0 12 2 27q4 26 35 51q26 20 57 31q-5 -2 -34 -2q-58 0 -58 30q0 26 44 48q13 6 42.5 12.5t42.5 13.5q6 3 6 5q0 5 -39 3q-21 -2 -42 -3q-28 -1 -40 7q-26 18 -26 48q0 42 43 59z" />
    <glyph glyph-name="i" unicode="&#xdd2;" horiz-adv-x="2" 
d="M-657 518q-3 51 59 87q44 25 108 37q59 12 136 14q56 2 136 -8q90 -10 126 -27q79 -37 79 -93q0 -26 -18 -45q-24 -25 -83 -25q-34 0 -59.5 10t-25.5 25.5t-35 24.5q-42 10 -118 5q-92 -6 -122 -33q-36 -32 -88 -32q-37 0 -63 14q-30 17 -32 46z" />
    <glyph glyph-name="ii" unicode="&#xdd3;" horiz-adv-x="2" 
d="M-657 518q-3 51 58 87q45 25 109 37q59 12 136 14q56 2 136 -8q90 -10 126 -27q79 -37 79 -93q0 -26 -18 -45q-25 -26 -87 -32q-15 -1 -84 -1q-70 0 -102 14q-58 26 -60 58q-81 -6 -110 -32q-36 -32 -88 -32q-37 0 -63 14q-30 17 -32 46zM-289 542q-4 -25 55 -31
q57 -6 60 18q3 25 -56 29q-57 4 -59 -16z" />
    <glyph glyph-name="u" unicode="&#xdd4;" horiz-adv-x="2" 
d="M-75 111q23 -16 21 -58l-14 -140q-6 -57 -6 -58q-4 -29 -15 -36q-21 -15 -69 -13q-52 2 -175 2q-56 0 -150 -4q-81 -4 -103 -3q-42 2 -62 20t-20 54q0 28 13 45q21 27 75 34t138 5q69 -3 138 -5q25 -1 39 2t13 11q0 56 17 108q13 40 66 47q65 9 94 -11z" />
    <glyph glyph-name="uu" unicode="&#xdd6;" horiz-adv-x="2" 
d="M-74 111q22 -15 20 -58l-14 -140l-6 -58t-14 -36q-22 -15 -80 -14q-33 1 -73 10q-63 14 -80 17q-70 12 -129 -4q-91 -24 -128 -24q-19 0 -39 2q-57 7 -70 41q-7 17 -7 32q0 18 12 40q17 31 67 36q17 2 46.5 -3t44.5 -3q29 6 108 20q74 12 135 -11q12 -5 18 -6q6 -2 9 0
q2 2 2 7q0 64 17 116q5 14 24.5 28t42.5 19q60 12 94 -11z" />
    <glyph glyph-name="gp" unicode="&#xdd8;" horiz-adv-x="408" 
d="M75 314q-48 14 -48 63q0 17 8 31q13 24 60 38q42 12 93 12q105 0 162 -67t49 -173q-2 -25 -9 -51q-9 -30 -11 -47q-1 -8 -1 -16q0 -18 6.5 -43.5t6.5 -32.5q0 -13 -10 -19q-18 -10 -57 -11q-35 -1 -61 5q-31 7 -34 37q0 3 -1 3q-16 0 -37 -19q-24 -21 -36.5 -23.5
t-25.5 -2.5q-51 0 -76 22q-46 40 -46 108q0 75 41.5 118t109.5 43q28 0 49 -9q-7 21 -16 27q-7 2 -15.5 5.5t-23.5 3.5q-5 0 -40 -3q-25 -3 -37 1zM220 208q-33 -2 -42 -20q-11 -22 -6 -52t29 -30q13 0 14 16q2 20 5 86z" />
    <glyph glyph-name="e" unicode="&#xdd9;" horiz-adv-x="590" 
d="M552 326q-17 -17 -54 -17q-18 0 -47 5q-35 6 -40 6q-77 7 -118 -9q-72 -28 -79 -87q-10 -78 78 -87q30 -3 57 3t27 16q0 7 -10 7q-7 0 -23.5 -4t-22.5 -4q-25 -2 -44 8q-30 16 -30 52q0 22 12 39q30 41 116 48q66 5 125 -15t76 -56q14 -28 14 -57q0 -42 -31 -85
q-60 -84 -228 -91q-179 -7 -255 61q-59 53 -58 140q1 58 20 99t67 83q78 68 197 76q100 6 175 -7q51 -9 74 -31.5t23 -48.5q0 -24 -21 -44z" />
    <glyph glyph-name="ee" unicode="&#xdda;" horiz-adv-x="2" 
d="M-44 421q-29 -21 -103 -14q-51 5 -65 50q-16 50 -3 132q9 62 32 85q20 20 50 26q20 4 38 4q46 0 70 -22q18 -16 18 -42q0 -1 -5 -39q-1 -5 -2 -46q-1 -9 -2 -23q-5 -54 -7 -66q-6 -34 -21 -45z" />
    <glyph glyph-name="ei" unicode="&#xddb;" horiz-adv-x="1181" 
d="M552 326q-17 -17 -54 -17q-18 0 -47 5q-35 6 -40 6q-77 7 -118 -9q-72 -28 -79 -87q-10 -78 78 -87q30 -3 57 3t27 16q0 7 -10 7q-7 0 -23.5 -4t-22.5 -4q-25 -2 -44 8q-30 16 -30 52q0 22 12 39q30 41 116 48q66 5 125 -15t76 -56q14 -28 14 -57q0 -42 -31 -85
q-60 -84 -228 -91q-179 -7 -255 61q-59 53 -58 140q1 58 20 99t67 83q78 68 197 76q100 6 175 -7q51 -9 74 -31.5t23 -48.5q0 -24 -21 -44zM1142 326q-17 -17 -54 -17q-18 0 -47 5q-35 6 -40 6q-77 7 -118 -9q-72 -28 -79 -87q-10 -78 78 -87q30 -3 57 3t27 16q0 7 -10 7
q-7 0 -23.5 -4t-22.5 -4q-25 -2 -44 8q-30 16 -30 52q0 22 12 39q30 41 116 48q66 5 125 -15t76 -56q14 -28 14 -57q0 -42 -31 -85q-60 -84 -228 -91q-179 -7 -255 61q-59 53 -58 140q1 58 20 99t67 83q78 68 197 76q100 6 175 -7q51 -9 74 -31.5t23 -48.5q0 -24 -21 -44z
" />
    <glyph glyph-name="o" unicode="&#xddc;" horiz-adv-x="353" 
d="M56 316q-47 16 -47 63q0 17 7 31q24 48 114 48q16 0 33 -2q97 -11 143 -87q39 -64 33 -151q-6 -86 -53 -144q-53 -66 -144 -74q-75 -6 -115 20q-27 18 -27 57q0 34 29 50q14 8 48 15t54.5 36t20.5 63q0 26 -13 48q-11 17 -23 23t-29 3q-20 -3 -31 1z" />
    <glyph glyph-name="oo" unicode="&#xddd;" horiz-adv-x="353" 
d="M56 316q-47 16 -47 63q0 17 7 31q24 48 114 48q16 0 33 -2q97 -11 143 -87q39 -64 33 -151q-6 -86 -53 -144q-53 -66 -144 -74q-75 -6 -115 20q-27 18 -27 57q0 34 29 50q14 8 48 15t54.5 36t20.5 63q0 26 -13 48q-11 17 -23 23t-29 3q-20 -3 -31 1zM256 421
q-29 -21 -103 -14q-51 5 -65 50q-16 50 -3 132q9 62 32 85q20 20 50 26q20 4 38 4q46 0 70 -22q18 -16 18 -42q0 -1 -5 -39q-1 -5 -2 -46q-1 -9 -2 -23q-5 -54 -7 -66q-6 -34 -21 -45z" />
    <glyph glyph-name="ou" unicode="&#xdde;" horiz-adv-x="604" 
d="M287 440q40 19 81 19q31 0 65 -11q85 -26 129 -104q33 -59 33 -131q0 -58 -25 -97q-42 -66 -129 -98q-61 -23 -185 -23q-68 0 -98 5q-54 8 -81 17q-50 16 -63 43q-7 15 -7 30q0 23 13.5 40.5t31.5 19.5q17 2 66 -5q56 -9 82 -9q79 0 111 7q55 12 79 51q14 23 14 49
q0 29 -15.5 50.5t-33.5 20.5q-27 -2 -27 -24q0 -5 3 -10q11 -3 19 -15.5t5 -26.5q-9 -40 -61 -56q-62 -19 -126 -14q-69 6 -109 42q-44 40 -44 107q0 97 52 128q19 12 57 12q42 0 56 -6t20 -27q2 -8 -4 -31q-8 -31 -10 -57q-6 -78 38 -90q9 -3 19 -3q23 0 23 7q0 2 -5 2
q-25 2 -36 38q-5 16 -5 33q0 37 18 69.5t49 47.5z" />
    <glyph glyph-name="gk" unicode="&#xddf;" horiz-adv-x="604" 
d="M287 440q40 19 81 19q31 0 65 -11q85 -26 129 -104q33 -59 33 -131q0 -58 -25 -97q-42 -66 -129 -98q-61 -23 -185 -23q-68 0 -98 5q-54 8 -81 17q-50 16 -63 43q-7 15 -7 30q0 23 13.5 40.5t31.5 19.5q17 2 66 -5q56 -9 82 -9q79 0 111 7q55 12 79 51q14 23 14 49
q0 29 -15.5 50.5t-33.5 20.5q-27 -2 -27 -24q0 -5 3 -10q11 -3 19 -15.5t5 -26.5q-9 -40 -61 -56q-62 -19 -126 -14q-69 6 -109 42q-44 40 -44 107q0 97 52 128q19 12 57 12q42 0 56 -6t20 -27q2 -8 -4 -31q-8 -31 -10 -57q-6 -78 38 -90q9 -3 19 -3q23 0 23 7q0 2 -5 2
q-25 2 -36 38q-5 16 -5 33q0 37 18 69.5t49 47.5z" />
    <glyph glyph-name="dgp" unicode="&#xdf2;" horiz-adv-x="408" 
d="M75 314q-48 14 -48 63q0 17 8 31q13 24 60 38q42 12 93 12q105 0 162 -67t49 -173q-2 -25 -9 -51q-9 -30 -11 -47q-1 -8 -1 -16q0 -18 6.5 -43.5t6.5 -32.5q0 -13 -10 -19q-18 -10 -57 -11q-35 -1 -61 5q-31 7 -34 37q0 3 -1 3q-16 0 -37 -19q-24 -21 -36.5 -23.5
t-25.5 -2.5q-51 0 -76 22q-46 40 -46 108q0 75 41.5 118t109.5 43q28 0 49 -9q-7 21 -16 27q-7 2 -15.5 5.5t-23.5 3.5q-5 0 -40 -3q-25 -3 -37 1zM220 208q-33 -2 -42 -20q-11 -22 -6 -52t29 -30q13 0 14 16q2 20 5 86z" />
    <glyph glyph-name="dgk" unicode="&#xdf3;" horiz-adv-x="604" 
d="M287 440q40 19 81 19q31 0 65 -11q85 -26 129 -104q33 -59 33 -131q0 -58 -25 -97q-42 -66 -129 -98q-61 -23 -185 -23q-68 0 -98 5q-54 8 -81 17q-50 16 -63 43q-7 15 -7 30q0 23 18.5 62.5t37.5 25.5q6 -26 60 -38q51 -4 77 -4q79 0 111 7q55 12 79 51q14 23 14 49
q0 29 -15.5 50.5t-33.5 20.5q-27 -2 -27 -24q0 -5 3 -10q11 -3 19 -15.5t5 -26.5q-9 -40 -61 -56q-62 -19 -126 -14q-69 6 -109 42q-44 40 -44 107q0 97 52 128q19 12 57 12q42 0 56 -6t20 -27q2 -8 -4 -31q-8 -31 -10 -57q-6 -78 38 -90q9 -3 19 -3q23 0 23 7q0 2 -5 2
q-25 2 -36 38q-5 16 -5 33q0 37 18 69.5t49 47.5z" />
    <glyph glyph-name="kundaliya" unicode="&#xdf4;" horiz-adv-x="1760" 
d="M108 28q7 -7 17 -7q6 0 39 13q20 8 70 48q47 38 67 42q32 7 46 -18l78 138l34 -98l125 167l30 -121l136 157l30 -149l147 168l14 -190l172 159l-24 -189l168 108l-34 -142l145 92l-32 -100q15 13 32 13q34 0 64 -45q15 -22 43.5 -39t57.5 -17q13 0 25 4q-15 23 -15 45
q0 45 49 47q23 1 38.5 -14.5t13.5 -39.5q-4 -69 -118 -64q-49 2 -100 46q-49 41 -72 40q-27 -1 -49 -14q-15 -11 -31 -22l26 90l-149 -92l30 136l-156 -103l18 166l-158 -149l-14 176l-135 -148l-30 145l-132 -149l-28 111l-113 -149l-30 86l-62 -110q-20 34 -38 34
q-4 0 -8 -2q-43 -26 -85 -52q-62 -38 -100 -40q-24 -2 -46 14t-30 38q-3 8 -3 20q0 58 51 56q17 -1 31 -18.5t14 -38.5q0 -24 -19 -39z" />
    <glyph glyph-name="zwj" unicode="&#x200d;" horiz-adv-x="279" 
 />
    <glyph glyph-name="hyphen" unicode="&#x2010;" horiz-adv-x="480" 
d="M80 318q33 12 102 15q74 3 139 -1q75 -5 100.5 -20.5t25.5 -52.5q0 -54 -45 -70q-13 -5 -41 -3q-25 1 -51 3q-46 1 -146 -3q-58 -2 -53 -2q-36 0 -55 12q-30 18 -30 56q0 47 54 66z" />
    <glyph glyph-name="dash_en" unicode="&#x2013;" horiz-adv-x="464" 
d="M43 234h370v-47h-370v47z" />
    <glyph glyph-name="quoteleft" unicode="&#x2018;" horiz-adv-x="292" 
d="M144 427q-46 0 -77 19q-17 10 -31 41q-12 27 -14 49q-9 106 108 172q22 12 47 12q22 0 39 -9q20 -12 20 -32q0 -19 -22.5 -44.5t-22.5 -30.5q0 -15 13 -22.5t26 -14.5q30 -24 30 -57q0 -35 -32.5 -59t-83.5 -24z" />
    <glyph glyph-name="quoteright" unicode="&#x2019;" horiz-adv-x="292" 
d="M141 723q46 0 77 -19q17 -10 31 -41q12 -27 14 -49q9 -106 -108 -172q-22 -12 -47 -12q-22 0 -39 9q-20 12 -20 32q0 19 22.5 44.5t22.5 30.5q0 15 -13 22.5t-26 14.5q-30 24 -30 57q0 35 32.5 59t83.5 24z" />
    <glyph glyph-name="dblquote_left" unicode="&#x201c;" horiz-adv-x="540" 
d="M402 428q-46 0 -77 19q-17 10 -31 41q-12 27 -14 49q-9 106 108 172q22 12 47 12q22 0 39 -9q20 -12 20 -32q0 -19 -22.5 -44.5t-22.5 -30.5q0 -15 13 -22.5t26 -14.5q30 -24 30 -57q0 -35 -32.5 -59t-83.5 -24zM144 427q-46 0 -77 19q-17 10 -31 41q-12 27 -14 49
q-9 106 108 172q22 12 47 12q22 0 39 -9q20 -12 20 -32q0 -19 -22.5 -44.5t-22.5 -30.5q0 -15 13 -22.5t26 -14.5q30 -24 30 -57q0 -35 -32.5 -59t-83.5 -24z" />
    <glyph glyph-name="dblquote_right" unicode="&#x201d;" horiz-adv-x="540" 
d="M139 721q46 0 77 -19q17 -10 31 -41q12 -27 14 -49q9 -106 -108 -172q-22 -12 -47 -12q-22 0 -39 9q-20 12 -20 32q0 19 22.5 44.5t22.5 30.5q0 15 -13 22.5t-26 14.5q-30 24 -30 57q0 35 32.5 59t83.5 24zM397 722q46 0 77 -19q17 -10 31 -41q12 -27 14 -49
q9 -106 -108 -172q-22 -12 -47 -12q-22 0 -39 9q-20 12 -20 32q0 19 22.5 44.5t22.5 30.5q0 15 -13 22.5t-26 14.5q-30 24 -30 57q0 35 32.5 59t83.5 24z" />
    <glyph glyph-name="bullet" unicode="&#x2022;" horiz-adv-x="346" 
d="M230 414q26 -23 26 -59q0 -38 -25.5 -62.5t-63.5 -24.5q-37 0 -62 25t-25 62q0 35 24.5 59.5t59.5 25.5q36 1 66 -26z" />
    <glyph glyph-name="dottedcircle" unicode="&#x25cc;" horiz-adv-x="279" 
 />
    <glyph glyph-name="ra.i" horiz-adv-x="681" 
d="M247 297q-30 -27 -30 -63q0 -47 49 -74q40 -22 91 -21q52 1 91 27t39 71q0 36 -32 64q-42 37 -109 33q-62 -3 -99 -37zM442 606q21 21 49 32q18 7 41 7q63 0 94 -37q14 -17 14 -37q0 -13 -7 -25q-18 -30 -55 -54q-27 -18 -39 -24q-23 -13 -42 -18q11 -5 43 -21
q71 -34 105 -86t34 -115t-33.5 -115.5t-102.5 -83.5t-156 -35q-204 -9 -298 81q-73 70 -71 160q1 73 51 130q-23 2 -35 15q-29 31 -29 74q0 53 40 101q36 44 112 85q69 37 143 50q17 3 33 3q49 0 80 -27q28 -25 29 -60zM190 450l46 19q45 19 88 43q0 6 -8 21q-14 14 -47 4
q-85 -26 -85 -67q0 -10 6 -20z" />
    <glyph glyph-name="ra.ii" horiz-adv-x="681" 
d="M247 297q-30 -27 -30 -63q0 -47 49 -74q40 -22 91 -21q52 1 91 27t39 71q0 36 -32 64q-42 37 -109 33q-62 -3 -99 -37zM442 606q21 21 49 32q18 7 41 7q63 0 94 -37q14 -17 14 -37q0 -13 -7 -25q-18 -30 -55 -54q-27 -18 -39 -24q-23 -13 -42 -18q11 -5 43 -21
q71 -34 105 -86t34 -115t-33.5 -115.5t-102.5 -83.5t-156 -35q-204 -9 -298 81q-73 70 -71 160q1 73 51 130q-21 0 -35 15q-28 30 -28 77q0 64 46 117q43 49 94 78q55 31 123 42q19 3 37 3q55 0 93 -25.5t43 -65.5zM190 450l46 19q16 7 36 16q-17 4 -28 17q-7 9 -12 28
q-9 -4 -26 -16q-28 -19 -28 -43q0 -16 12 -21zM318 532q15 0 29 9.5t14 23.5q0 22 -29 22q-14 0 -28 -9.5t-14 -23.5q0 -22 28 -22z" />
    <glyph glyph-name="ra.ae" horiz-adv-x="1076" 
d="M224 469q40 22 89 55q26 18 63 50q15 15 30.5 29.5t32.5 21t40 6.5q63 0 94 -37q14 -17 14 -37q0 -15 -7 -25q-21 -29 -40 -44q-22 -17 -59 -38q24 -4 59 -21q71 -34 105 -86t34 -115t-33.5 -115.5t-102.5 -83.5t-156 -35q-204 -9 -298 81q-73 70 -71 160q2 85 65 144
q35 33 78 57q32 17 63 33zM247 297q-30 -27 -30 -63q0 -47 49 -74q40 -22 91 -21q52 1 91 27t39 71q0 36 -32 64q-42 37 -109 33q-62 -3 -99 -37zM845 630q113 0 166 -12q38 -9 52 -35q8 -16 8 -36q0 -24 -12 -40q-27 -34 -78 -105q-43 -68 -66 -123q-33 -77 -33 -109
q0 -21 19 -21q9 0 49 25q15 10 37 10q24 0 44 -12q25 -15 31.5 -34.5t6.5 -34.5q0 -33 -26 -58q-50 -49 -167 -48q-79 1 -128 31q-66 40 -63 129q3 105 131 288q12 18 12 24q0 9 -17 9q-8 0 -81 -4q-82 -4 -106 15t-24 55q0 53 42 69.5t203 16.5z" />
    <glyph glyph-name="ra.aee" horiz-adv-x="1076" 
d="M224 469q40 22 89 55q26 18 63 50q15 15 30.5 29.5t32.5 21t40 6.5q63 0 94 -37q14 -17 14 -37q0 -15 -7 -25q-21 -29 -40 -44q-22 -17 -59 -38q24 -4 59 -21q71 -34 105 -86t34 -115t-33.5 -115.5t-102.5 -83.5t-156 -35q-204 -9 -298 81q-73 70 -71 160q2 85 65 144
q35 33 78 57q32 17 63 33zM247 297q-30 -27 -30 -63q0 -47 49 -74q40 -22 91 -21q52 1 91 27t39 71q0 36 -32 64q-42 37 -109 33q-62 -3 -99 -37zM845 630q113 0 166 -12q38 -9 52 -35q8 -16 8 -36q0 -24 -11.5 -39t-61.5 -47q-58 -37 -68 -46q30 5 57 5q58 0 67.5 -23
t9.5 -41q0 -38 -40 -63q-30 -16 -61 -32q-81 -50 -81 -95q0 -17 19 -17q9 0 49 25q15 10 37 10q24 0 44 -12q25 -15 31.5 -34.5t6.5 -34.5q0 -33 -26 -58q-50 -49 -167 -48q-79 1 -128 31q-66 40 -63 129q1 44 34 84q28 34 61 49q-15 -1 -26 -1q-37 0 -54 14q-20 16 -22 58
q-2 31 35 61q22 18 64 40q28 14 20 14q-30 0 -67 -2q-82 -4 -106 15t-24 55q0 53 42 69.5t203 16.5z" />
    <glyph glyph-name="da.aa" horiz-adv-x="900" 
d="M73 407q22 28 77 43q62 17 175 8q59 -4 94 -16q56 -19 87.5 -56.5t31.5 -82.5q0 -15 -4 -31q-12 -49 -78 -74q-24 -9 -62 -12l-64 -4q-25 -1 -64 -5q-28 -4 -27 -16q1 -9 37 -14q18 -2 56 -1q36 1 61 8q20 6 39 12q14 3 27 3q43 0 65 -33q16 -24 16 -49q0 -45 -42 -67
q-31 -16 -84 -23q-17 -2 -60 -7q-30 -3 -30 -17q0 -17 39 -17q17 0 41 4q9 2 48 19q32 15 64 9q57 -10 59 -75q1 -47 -61 -86q-70 -44 -232 -36q-188 9 -188 118q0 31 19 56.5t45 32.5q-77 11 -116 51q-34 35 -34 86q0 41 23 76t62 52q45 20 96 24q32 0 63 1q85 2 92 21
q5 15 -39 15q-3 0 -65 -5q-13 -1 -45 -9q-25 -7 -58 -6q-32 1 -53.5 19t-21.5 48q0 21 11 36zM587 316q-48 16 -48 63q0 17 8 31q26 49 123 49q21 0 44 -3q97 -11 143 -87q39 -64 33 -151q-6 -86 -53 -144q-53 -66 -144 -74q-75 -6 -115 20q-27 18 -27 57q0 34 29 50
q14 8 48 15t54.5 36t20.5 63q0 26 -13 48q-11 17 -23.5 23t-39.5 3t-40 1z" />
    <glyph glyph-name="da.ae" horiz-adv-x="944" 
d="M73 407q22 28 77 43q62 17 175 8q59 -4 94 -16q56 -19 87.5 -56.5t31.5 -82.5q0 -15 -4 -31q-12 -49 -78 -74q-24 -9 -62 -12l-64 -4q-25 -1 -64 -5q-28 -4 -27 -16q1 -9 37 -14q18 -2 56 -1q36 1 61 8q20 6 39 12q14 3 27 3q43 0 65 -33q16 -24 16 -49q0 -45 -42 -67
q-31 -16 -84 -23q-17 -2 -60 -7q-30 -3 -30 -17q0 -17 39 -17q17 0 41 4q9 2 48 19q32 15 64 9q57 -10 59 -75q1 -47 -61 -86q-70 -44 -232 -36q-188 9 -188 118q0 31 19 56.5t45 32.5q-77 11 -116 51q-34 35 -34 86q0 41 23 76t62 52q45 20 96 24q32 0 63 1q85 2 92 21
q5 15 -39 15q-3 0 -65 -5q-13 -1 -45 -9q-25 -7 -58 -6q-32 1 -53.5 19t-21.5 48q0 21 11 36zM587 447q25 10 62 10q40 -1 81 -1q138 2 158 -9q43 -25 43 -68q0 -19 -12 -34q-25 -32 -108 -100q-64 -53 -64 -78q0 -18 19 -18q9 0 50 25q13 8 32 8q25 0 48.5 -13.5t31 -32
t7.5 -34.5q0 -31 -26 -57q-50 -49 -167 -48q-81 1 -131 31q-68 41 -60 129q7 73 100 141q20 14 20 19q0 2 -9 2q-3 0 -17 -1t-23 -1q-34 0 -52 13q-26 18 -26 52q0 48 43 65z" />
    <glyph glyph-name="da.aee" horiz-adv-x="944" 
d="M73 407q22 28 77 43q62 17 175 8q59 -4 94 -16q56 -19 87.5 -56t31.5 -83q0 -15 -4 -31q-12 -49 -78 -74q-24 -9 -62 -12l-64 -4q-25 -1 -64 -5q-28 -4 -27 -16q1 -9 37 -14q18 -2 56 -1q36 1 61 8q20 6 39 12q14 3 27 3q43 0 65 -33q16 -24 16 -49q0 -45 -42 -67
q-31 -16 -84 -23q-17 -2 -60 -7q-30 -3 -30 -17q0 -17 39 -17q17 0 41 4q9 2 48 19q32 15 64 9q57 -10 59 -75q1 -47 -61 -86q-70 -44 -232 -36q-188 9 -188 118q0 31 19 56.5t45 32.5q-77 11 -116 51q-34 35 -34 86q0 41 23 76t62 52q45 20 96 24q32 0 63 1q85 2 92 21
q5 15 -39 15q-3 0 -65 -5q-13 -1 -45 -9q-25 -7 -58 -6q-32 1 -53.5 19t-21.5 48q0 21 11 36zM587 447q25 10 62 10q40 -1 81 -1q138 2 158 -9q43 -25 43 -68q0 -19 -12 -34q-4 -6 -69 -29q-20 -5 -41 -10q-36 -9 -43 -16q-5 -5 19 -5q12 0 54 2q34 2 41 1q25 -5 25 -25
q0 -28 -42 -47q-34 -12 -67 -24q-47 -19 -47 -31t19 -12q18 0 50 17t50 17q28 0 49 -27q18 -24 18 -54q0 -31 -26 -57q-50 -49 -167 -48q-125 1 -170 67q-18 26 -18 53q0 12 2 27q4 26 35 51q26 20 57 31q-5 -2 -34 -2q-58 0 -58 30q0 26 44 48q13 6 42.5 12.5t42.5 13.5
q6 3 6 5q0 5 -39 3q-21 -2 -42 -3q-28 -1 -40 7q-26 18 -26 48q0 42 43 59z" />
    <glyph glyph-name="da.u" horiz-adv-x="555" 
d="M158 -2q-67 9 -111.5 56.5t-37.5 99.5q10 77 84 109q45 20 96 24q32 0 63 1q85 2 92 21q5 15 -39 15q-3 0 -65 -5q-13 -1 -45 -9q-25 -7 -58 -6q-32 1 -53.5 19t-21.5 48q0 21 11 36q22 28 77 43q62 17 175 8q59 -4 94 -16q56 -19 87.5 -56t31.5 -83q0 -15 -4 -31
q-12 -49 -78 -74q-24 -9 -62 -12l-64 -4q-25 -1 -64 -5q-28 -4 -27 -16q1 -9 37 -14q18 -2 56 -1q36 1 61 8q20 6 39 12q13 3 24 3q40 0 68 -33q24 -27 19 -83l-14 -140q-6 -57 -6 -58q-4 -29 -15 -36q-21 -15 -69 -13q-52 2 -175 2q-59 0 -111 -4q-44 -4 -64 -3
q-42 2 -62 20t-20 54q0 28 13 45q22 28 75 33.5t92 4.5q47 -2 93 -4q25 -1 39 2t13 11q5 18 5 41q-63 -13 -124 -13q-29 0 -55 3z" />
    <glyph glyph-name="da.uu" horiz-adv-x="555" 
d="M42 55q-40 44 -33 99q10 77 84 109q45 20 96 24q32 0 63 1q85 2 92 21q5 15 -39 15q-3 0 -65 -5q-13 -1 -45 -9q-25 -7 -58 -6q-32 1 -53.5 19t-21.5 48q0 21 11 36q22 28 77 43q62 17 175 8q59 -4 94 -16q56 -19 87.5 -56t31.5 -83q0 -15 -4 -31q-12 -49 -78 -74
q-24 -9 -62 -12l-64 -4q-25 -1 -64 -5q-28 -4 -27 -16q1 -9 37 -14q18 -2 56 -1q36 1 61 8q20 6 39 12q13 3 25 3q42 0 70 -33q24 -27 19 -83l-12 -140q-3 -31 -6.5 -63t-14.5 -39q-24 -17 -82 -17q-47 0 -67 18q-25 23 -26 24q-12 8 -32 8t-50 -13q-20 -10 -40 -19
q-59 -24 -109 -24q-21 0 -36 4q-18 5 -26 9q-13 7 -25 20q-20 22 -20 66q0 25 7 40q16 34 47 45q16 6 31 6t34 -7q25 -9 31 -10q15 -3 28 -3q21 0 42 8q15 6 29 12q29 11 51 4q16 -5 35 -24q6 50 6 54q-79 -17 -136 -17q-109 0 -163 60z" />
    <glyph glyph-name="da.oo" horiz-adv-x="900" 
d="M635 457v0q-16 50 -3 132q9 62 32 85q20 20 50 26q20 4 38 4q46 0 70 -22q18 -16 18 -42q0 -1 -5 -39q-1 -5 -2 -46q-1 -9 -2 -23q-5 -53 -6 -63q-6 -34 -19 -46q94 -64 84 -205q-6 -86 -53 -144q-53 -66 -144 -74q-75 -6 -115 20q-27 18 -27 57q0 34 29 50q14 8 48 15
t54.5 36t20.5 63q0 26 -13 48q-11 17 -23.5 23t-39.5 3t-40 1q-48 16 -48 63q0 17 8 31q20 38 88 47zM73 407q22 28 77 43q62 17 175 8q59 -4 94 -16q56 -19 87.5 -56t31.5 -83q0 -15 -4 -31q-12 -49 -78 -74q-24 -9 -62 -12l-64 -4q-25 -1 -64 -5q-28 -4 -27 -16
q1 -9 37 -14q18 -2 56 -1q36 1 61 8q20 6 39 12q14 3 27 3q43 0 65 -33q16 -24 16 -49q0 -45 -42 -67q-31 -16 -84 -23q-17 -2 -60 -7q-30 -3 -30 -17q0 -17 39 -17q17 0 41 4q9 2 48 19q32 15 64 9q57 -10 59 -75q1 -47 -61 -86q-70 -44 -232 -36q-188 9 -188 118
q0 31 19 56.5t45 32.5q-77 11 -116 51q-34 35 -34 86q0 41 23 76t62 52q45 20 96 24q32 0 63 1q85 2 92 21q5 15 -39 15q-3 0 -65 -5q-13 -1 -45 -9q-25 -7 -58 -6q-32 1 -53.5 19t-21.5 48q0 21 11 36z" />
    <glyph glyph-name="da.i" horiz-adv-x="549" 
d="M19 507q0 76 73 114q62 32 153 35q157 5 230 -35q63 -35 63 -108q0 -74 -60 -104q60 -39 60 -106q0 -15 -4 -31q-12 -49 -78 -74q-24 -9 -62 -12l-64 -4q-25 -1 -64 -5q-28 -4 -27 -16q1 -9 37 -14q18 -2 56 -1q36 1 61 8q20 6 39 12q14 3 27 3q43 0 65 -33
q16 -24 16 -49q0 -45 -42 -67q-31 -16 -84 -23q-17 -2 -60 -7q-30 -3 -30 -17q0 -17 39 -17q17 0 41 4q9 2 48 19q32 15 64 9q57 -10 59 -75q1 -47 -61 -86q-70 -44 -232 -36q-188 9 -188 118q0 31 19 56.5t45 32.5q-77 11 -116 51q-34 35 -34 86q0 41 23 76t62 52
q45 20 96 24q32 0 63 1q85 2 92 21q5 15 -39 15q-3 0 -65 -5q-13 -1 -45 -9q-25 -7 -58 -6q-39 1 -60 25q-16 18 -16 43q0 22 13 37q-55 35 -55 98zM191 454q54 7 107 4q27 -1 54 -6q16 7 16 30q0 21 -33 30q-17 5 -59 4q-43 -1 -59 -7q-33 -13 -33 -36q0 -10 7 -19z" />
    <glyph glyph-name="da.ii" horiz-adv-x="552" 
d="M19 507q0 76 73 114q62 32 153 35q163 5 242 -38q63 -35 63 -113q0 -79 -61 -107q49 -41 49 -93q0 -16 -4 -33q-12 -49 -78 -74q-24 -9 -62 -12l-64 -4q-25 -1 -64 -5q-28 -4 -27 -16q1 -9 37 -14q18 -2 56 -1q36 1 61 8q20 6 39 12q14 3 27 3q43 0 65 -33q16 -24 16 -49
q0 -45 -42 -67q-31 -16 -84 -23q-17 -2 -60 -7q-31 -3 -34.5 -9.5t-3.5 -10.5q0 -14 31 -14q16 0 40 4q9 2 48 19q32 15 64 9q57 -10 59 -75q1 -47 -61 -86q-70 -44 -232 -36q-71 3 -119 24q-68 30 -68 90q0 31 25 59q23 25 55 34q-77 11 -116 51q-34 35 -34 86q0 41 23 76
t62 52q45 20 96 24q32 0 63 1q85 2 92 21q5 15 -39 15q-3 0 -65 -5q-13 -1 -45 -9q-25 -7 -58 -6q-39 1 -60 25q-16 18 -16 43q0 22 13 37q-55 35 -55 98zM191 454q45 5 74 5q-6 10 -9 24q-2 12 2 32q-25 1 -47 -6q-26 -9 -26 -36q0 -11 6 -19zM332 490q0 -14 11.5 -23.5
t28.5 -9.5t28.5 9.5t11.5 23.5q0 13 -11.5 22.5t-28.5 9.5t-28.5 -9.5t-11.5 -22.5z" />
    <glyph glyph-name="la.u" horiz-adv-x="740" 
d="M662 80q54 -5 58 -62q2 -29 -5 -100q-9 -85 -30 -100t-69 -13q-52 2 -172 2q-53 0 -189 -4q-120 -4 -143 -3q-42 2 -62 20t-20 54q0 28 13 45q21 27 76 34q57 7 343 0q25 -1 38.5 2t13.5 11q0 18 -42 18q-7 0 -46 -3q-42 -3 -116 -3q-140 0 -192 22q-85 36 -105 146
q-10 55 7 112q15 49 55 94q32 35 88 62q88 42 197 45q155 4 244 -33q40 -16 73 -53q39 -43 43 -91q5 -54 -17 -91q-34 -58 -140 -83q-72 -17 -151 -6q-131 19 -140 94q-7 62 53 92q41 20 81 7q11 -4 27 -20q13 -13 29 -13q36 0 36 26q0 14 -14 25q-25 20 -79 20
q-75 0 -123 -29q-57 -35 -57 -105q0 -21 7 -41q25 -71 140 -84q68 -8 138 -4q16 1 63 6q39 5 63 5q14 0 26 -1z" />
    <glyph glyph-name="la.uu" horiz-adv-x="740" 
d="M662 80q54 -5 58 -62q2 -29 -5 -100t-26 -100q-10 -15 -21.5 -19.5t-40.5 -6.5q-90 -5 -115 8q-10 5 -19 18q-11 18 -15 22q-12 12 -31 12q-20 0 -53 -14q-27 -12 -52.5 -23.5t-63.5 -20.5q-77 -18 -132 -12q-80 9 -106 44q-18 25 -18 58q0 25 12 44q22 35 66 43
q12 2 24 2q19 0 70 -23q28 -13 44 -14q57 -3 98 6q92 21 117 20q39 -2 55 -32q1 3 6 40q3 22 -31 22q-8 0 -57 -5l-108 -11q-21 -2 -43 -2q-95 0 -157 26q-85 36 -105 146q-10 55 7 112t53 94t94 65q82 39 193 42q155 4 244 -33q40 -16 73 -53q39 -43 43 -91q5 -54 -17 -91
q-34 -58 -140 -83q-72 -17 -151 -6q-131 19 -140 94q-7 62 53 92q41 20 81 7q11 -4 27 -20q13 -13 29 -13q36 0 36 26q0 14 -14 25q-26 21 -81 21q-73 0 -121 -30q-57 -35 -57 -105q0 -21 7 -41q25 -71 140 -84q68 -8 138 -4q16 1 63 6q39 5 63 5q14 0 26 -1z" />
    <glyph glyph-name="La.u" horiz-adv-x="912" 
d="M777 552q130 -96 124 -279q-2 -70 -41.5 -134t-96.5 -98q-76 -45 -247 -45q-23 0 -43 1q-70 4 -127 25q-65 25 -91 65q-21 34 -21 77q0 49 35 82q32 29 83 39q43 8 42 14q-1 7 -9.5 8.5t-22.5 0.5q-18 -2 -19 -2q-47 0 -64 14q-8 6 -13 14q-33 -15 -50 -41
q-25 -38 -25 -100q0 -18 2 -35q6 -43 26 -74q8 -13 8 -27q0 -26 -31 -44q-27 -16 -55 -16q-17 0 -36 5q-49 14 -78 79q-26 61 -21 144q4 69 45 129q32 47 85 71q45 21 108 21q44 0 76 -10q27 6 69 7q80 1 139.5 -37t59.5 -98q0 -11 -2 -22q-15 -79 -100 -96q-34 -7 -33 -23
q2 -26 75 -28q63 -2 111 32q54 38 63 105q2 14 2 27q0 43 -23 82q-20 -9 -43 -9q-42 0 -69 20q-34 25 -60 75q-20 38 -47 42q-49 8 -49 49q0 33 31 57q28 22 63 24q84 5 187 -39q29 -12 83 -52zM642 465q-10 14 -33 42q-28 27 -72 35q29 -18 54 -54q5 -10 21 -18t30 -5z" />
    <glyph glyph-name="Ta.i" horiz-adv-x="698" 
d="M479 599q2 5 2 10q0 21 -24.5 36.5t-72.5 22.5q-57 10 -103 3q-47 -7 -81 -30q-42 -28 -42 -70q0 -30 20 -50q23 -23 64 -23q12 0 25 2q-11 10 -29 13q-52 8 -47 54q3 28 28.5 51t63.5 25q98 5 196 -44zM291 461q-42 -9 -81 -9q-84 0 -134 39.5t-47 107.5q3 65 81 108
q72 39 171 41q288 5 355 -86q26 -36 26 -82q0 -60 -45 -90q70 -91 74 -217q2 -85 -26 -151q-32 -74 -96 -103q-52 -24 -103 -24q-19 0 -46 3q-58 5 -81 44q-49 -52 -154 -45q-104 7 -148 78q-35 57 -33 132q2 74 31 126q35 63 91 89q44 20 89 20q13 0 27 -1q43 -4 69 -31
q23 -24 23 -52q0 -22 -17.5 -39t-39.5 -20q-60 -7 -68 -89q-2 -22 2 -42q7 -27 24 -30q21 -3 26 34v30q2 22 18 36q23 21 69 20q37 -1 56 -22q28 -32 20 -78q-2 -10 5 -15.5t18 -4.5q19 2 32.5 42t11.5 96q-1 32 -13 67q-11 30 -21 42q-10 -8 -33 -8q-52 0 -78 19
q-33 25 -55 65zM420 465q-10 19 -35 42q-28 26 -72 35q29 -17 54 -54q12 -24 43 -24q5 0 10 1z" />
    <glyph glyph-name="Ta.ii" horiz-adv-x="698" 
d="M339 641q1 15 6 31q-40 3 -64 -1q-47 -7 -81 -30q-42 -28 -42 -70q0 -30 20 -50q23 -23 64 -23q12 0 25 2q-11 10 -29 13q-52 8 -47 54q3 28 28.5 51t63.5 25q27 1 56 -2zM291 461q-42 -9 -81 -9q-84 0 -134 39.5t-47 107.5q3 65 81 108q72 39 171 41q288 5 355 -86
q24 -32 24 -75q0 -62 -46 -93q73 -91 77 -221q2 -85 -26 -151q-32 -74 -96 -103q-52 -24 -103 -24q-19 0 -46 3q-58 5 -81 44q-49 -52 -154 -45q-104 7 -148 78q-35 57 -33 132q2 74 31 126q35 63 91 89q44 20 89 20q13 0 27 -1q43 -4 69 -31q23 -24 23 -52q0 -22 -17.5 -39
t-39.5 -20q-60 -7 -68 -89q-2 -22 2 -42q7 -27 24 -30q21 -3 26 34v30q2 22 18 36q23 21 69 20q37 -1 56 -22q28 -32 20 -78q-2 -10 5 -15.5t18 -4.5q19 2 32.5 42t11.5 96q-1 32 -13 67q-11 30 -21 42q-10 -8 -33 -8q-52 0 -78 19q-33 25 -55 65zM420 465q-10 19 -35 42
q-28 26 -72 35q29 -17 54 -54q12 -24 43 -24q5 0 10 1zM429 646q-2 -13 9 -25t29 -15q19 -3 33.5 4t17.5 21q2 13 -9.5 25t-29.5 15t-33 -4t-17 -21z" />
    <glyph glyph-name="Ja.al" 
d="M364 428q-58 -1 -80 24q-9 10 -14 27q-15 53 -3 134q11 74 31 92.5t51 22.5q59 8 88 -17q13 -11 13 -37q0 -4 -6 -49q-1 -9 -7 -42q56 68 111 89q34 13 68 13q26 0 46 -9q51 -24 44 -109q-4 -46 -43 -59q-29 -1 -89 -12q-41 -14 -50 -39q14 4 34 4q62 0 89 -21
q36 -29 45 -70q6 -27 6 -54q0 -82 -56 -140q11 -22 11 -46q0 -64 -81 -99q-87 -38 -260 -35q-160 2 -223 42q-73 46 -77 110q-2 30 8 55q13 32 54 56q23 14 64 24t41 24q0 12 -14 10q-56 -7 -86 1q-49 13 -49 59q0 52 81 73q57 15 117 2q43 -9 78 -44q32 -32 32 -80
q0 -11 -2 -20q-10 -42 -50 -78q-14 -13 -43 -30q-16 -9 -16 -24q0 -10 7 -18q23 -26 107 -24q43 1 64 6q39 9 45 32q-63 33 -80 88q-12 37 -12 95q0 42 6 73zM508 336q0 -21 19 -37q15 -13 31 -13t28.5 12.5t11.5 33.5q-3 40 -40 46q-20 3 -35 -9.5t-15 -32.5z" />
    <glyph glyph-name="Ja.i" 
d="M340 555q-19 11 -49 11q-28 0 -49 -10q-27 -12 -27 -37q0 -17 23 -40q8 -8 2 -26q28 -12 66 -45q33 -28 33 -78q0 -12 -3 -22q-10 -42 -50 -78q-14 -13 -43 -30q-16 -9 -16 -24q0 -10 7 -18q23 -26 107 -24q43 1 64 6q39 9 45 32q-63 33 -80 88l-16 46q-9 35 -7 102
q2 77 33 132q-17 0 -24.5 4.5t-15.5 10.5zM522 684q28 7 54 7q39 0 76 -17q61 -28 54 -107q-4 -47 -43 -55q-4 -1 -24 1q-24 2 -37 2q-34 0 -48 -11q-23 -18 -30 -47q14 4 34 4q62 0 89 -21q36 -29 45 -70q6 -27 6 -54q0 -82 -56 -140q11 -22 11 -46q0 -64 -81 -99
q-87 -38 -260 -35q-160 2 -223 42q-73 46 -77 110q-2 30 8 55q13 32 54 56q23 14 64 24t41 24q0 12 -14 10q-56 -7 -86 1q-49 13 -49 59q0 47 68 67q-73 31 -73 106q0 72 78 117q61 35 153 38q52 2 104 -13q62 -18 94 -52q32 35 68 44zM508 336q0 -21 19 -37q15 -13 31 -13
t28.5 12.5t11.5 33.5q-3 40 -40 46q-20 3 -35 -9.5t-15 -32.5z" />
    <glyph glyph-name="Ja.ii" 
d="M357 388q5 12 15 50q-14 0 -44 19q-42 27 -42 75q0 16 5 34q-28 0 -49 -10q-27 -12 -27 -37q0 -17 23 -40q8 -8 2 -26q28 -12 66 -45q33 -28 33 -78q0 -12 -3 -22q-10 -42 -50 -78q-14 -13 -43 -30q-16 -9 -16 -24q0 -10 7 -18q23 -26 107 -24q43 1 64 6q39 9 45 32
q-63 33 -80 87t-17 83q0 21 4 46zM256 705q60 2 123 -10q82 -16 113 -49q35 37 107 37q34 0 53 -9q61 -28 54 -107q-4 -47 -43 -55l-42 -2q-35 -3 -52.5 -17t-30.5 -36q12 3 28 3q55 0 81 -20q36 -29 45 -70q6 -27 6 -54q0 -82 -56 -140q11 -22 11 -46q0 -64 -81 -99
q-87 -38 -260 -35q-160 2 -223 42q-73 46 -77 110q-2 30 8 55q13 32 54 56q23 14 64 24t41 24q0 12 -14 10q-56 -7 -86 1q-49 13 -49 59q0 47 68 67q-73 31 -73 106q0 72 78 117q61 35 153 38zM508 336q0 -21 19 -37q15 -13 31 -13t28.5 12.5t11.5 33.5q-3 40 -40 46
q-20 3 -35 -9.5t-15 -32.5zM356 538q0 -12 11.5 -20.5t28.5 -8.5q39 0 39 29t-39 29q-17 0 -28.5 -8.5t-11.5 -20.5z" />
    <glyph glyph-name="kha.al" horiz-adv-x="678" 
d="M438 194q29 -7 40 84q1 9 1 19q0 79 -65 138q-35 32 -137 37q-41 2 -111 -1q-82 -5 -99 -5q-19 0 -32 2q-22 3 -22 32q0 34 29 38q24 3 29 5q13 4 14 13q1 12 -16.5 21t-18.5 26q-2 56 103 75q61 11 168 14q68 2 144 -5q92 -7 126 -23q22 -10 38 -30t13 -38
q-7 -43 -60 -49q-25 -3 -71 6q-63 12 -90 15q-105 10 -168 -1q-17 -3 -17 -8q0 -9 25 -10q39 2 136 1q108 -6 159 -37q66 -39 92 -101q22 -52 22 -138q0 -151 -97 -241q-37 -34 -93 -34q-23 0 -41 7q-22 9 -44 34q-18 21 -31 21q-7 0 -14 -2q-17 -8 -9 -33q8 -23 8 -21
q0 -6 -11 -13q-19 -12 -53 -12q-30 0 -37 12q-24 42 -24 104q0 81 39 130q8 10 14 22q9 18 4 30q-4 10 -17 15q-13 4 -23 0q-19 -7 -29 -21q-23 -31 -23 -69q0 -21 8 -52q6 -18 11.5 -36.5t5.5 -33.5q0 -17 -6 -37q-15 -50 -81 -50q-47 0 -76 36q-45 56 -45 167q0 22 2 41
q6 73 49 131q59 80 168 85q158 7 198 -90q17 -40 13 -76q-6 -52 -46 -78q11 3 18 3q10 0 17 -9t13 -10z" />
    <glyph glyph-name="kha.i" horiz-adv-x="678" 
d="M438 194q17 -4 29 25q10 25 11 59q3 95 -66 157q-38 35 -166 38q-48 -1 -143 3q-92 11 -92 78q0 68 82 102q77 32 226 36q68 2 144 -5q92 -7 126 -23q22 -10 38 -30t13 -38q-7 -43 -60 -49q-25 -3 -71 6q-63 12 -90 15q-94 9 -164 -3q-18 -3 -18 -8q0 -7 22 -8
q39 2 136 1q108 -6 159 -37q70 -42 96 -101q22 -51 20 -139q-4 -153 -97 -240q-37 -34 -93 -34q-23 0 -41 7q-22 9 -44 34q-18 21 -31 21q-7 0 -14 -2q-17 -8 -9 -33q8 -23 8 -21q0 -6 -11 -13q-19 -12 -53 -12q-30 0 -37 12q-24 42 -24 104q0 81 39 130q8 10 14 22
q9 18 4 30q-4 10 -17 15q-13 4 -23 0q-19 -7 -29 -21q-23 -31 -23 -69q0 -21 8 -52q6 -18 11.5 -36.5t5.5 -33.5q0 -17 -6 -37q-15 -50 -81 -50q-47 0 -76 36q-45 56 -45 167q0 22 2 41q6 73 49 131q59 80 168 85q158 7 198 -90q17 -40 13 -76q-6 -52 -46 -78q11 3 18 3
q10 0 17 -9t13 -10z" />
    <glyph glyph-name="kha.ii" horiz-adv-x="678" 
d="M438 194q17 -4 29 25q10 25 11 59q1 57 -17 95q-14 31 -49 62q-38 35 -166 38q-48 -1 -143 3q-92 11 -92 78q0 68 82 102q77 32 226 36q195 5 270 -34q47 -24 53 -65q4 -27 -10 -51q-18 -30 -60 -43q101 -58 98 -225q-3 -153 -97 -241q-37 -34 -93 -34q-23 0 -41 7
q-22 9 -44 34q-18 21 -31 21q-7 0 -14 -2q-17 -8 -9 -33q8 -23 8 -21q0 -6 -11 -13q-19 -12 -53 -12q-30 0 -37 12q-24 42 -24 104q0 81 39 130q8 10 14 22q9 18 4 30q-4 10 -17 15q-13 4 -23 0q-19 -7 -29 -21q-23 -31 -23 -69q0 -21 8 -52q6 -18 11.5 -36.5t5.5 -33.5
q0 -17 -6 -37q-15 -50 -81 -50q-47 0 -76 36q-45 56 -45 168q0 21 2 40q6 73 49 131q59 80 168 85q158 7 198 -90q17 -40 13 -76q-6 -52 -46 -78q11 3 18 3q10 0 17 -9t13 -10zM320 584q-57 0 -90 -8q-17 -4 -17 -14q0 -12 24 -13q8 0 33 1q32 1 53 1q-8 17 -3 33zM393 573
q-2 -25 35 -28q46 -4 46 20t-42 24q-38 0 -39 -16z" />
    <glyph glyph-name="cha.al" 
d="M315 142q59 -1 107 31q54 38 63 103q2 13 2 25q0 82 -58 134q-35 32 -137 37q-41 2 -111 -1q-82 -5 -99 -5q-19 0 -32 2q-22 3 -22 32q0 34 29 38q24 3 29 5q13 4 14 13q1 12 -16.5 21t-18.5 26q-2 56 103 75q61 11 168 14q68 2 144 -5q92 -7 126 -23q22 -10 38 -30
t13 -38q-7 -43 -60 -49q-25 -3 -71 6q-63 12 -90 15q-105 10 -168 -1q-17 -3 -17 -8q0 -9 25 -10q39 2 136 1q108 -6 159 -37q66 -40 92 -102q23 -53 21 -138q-1 -69 -40.5 -133.5t-96.5 -98.5q-76 -45 -247 -45q-22 0 -43 1q-213 11 -213 105q0 53 49 72q-53 -2 -85 27
q-11 10 -11 34q0 29 23 45q28 19 75 17q1 0 51 -4q30 -3 50 0q29 4 33 16q2 7 -14 8q-12 0 -26 -3q-24 -5 -51 -5q-49 0 -74 17t-25 45q0 41 50 64.5t148 20.5q81 -2 140 -44.5t59 -103.5q0 -47 -29 -80.5t-76 -44.5q-28 -7 -47 -10q-7 -1 -20 -9q-3 -3 -3 -6q0 -15 54 -16z
" />
    <glyph glyph-name="cha.i" 
d="M315 142q60 -1 107 30q55 37 63 104q2 15 2 29q0 74 -62 130q-38 35 -166 38q-48 -1 -143 3q-92 11 -92 78q0 68 82 102q77 32 226 36q68 2 144 -5q92 -7 126 -23q22 -10 38 -30t13 -38q-7 -43 -60 -49q-25 -3 -71 6q-63 12 -90 15q-94 9 -164 -3q-18 -3 -18 -8
q0 -7 22 -8q39 2 136 1q108 -6 159 -37q70 -42 96 -101q22 -50 20 -139q-1 -70 -41 -135t-97 -97q-79 -45 -243 -45q-23 0 -45 1q-213 11 -213 105q0 53 49 72q-53 -2 -85 27q-11 10 -11 34q0 29 23 45q28 19 75 17q1 0 51 -4q30 -3 50 0q29 4 33 16q2 7 -14 8q-12 0 -26 -3
q-24 -5 -51 -5q-49 0 -74 17t-25 45q0 41 50 64.5t148 20.5q81 -2 140 -44.5t59 -103.5q0 -47 -29 -80.5t-76 -44.5q-28 -7 -47 -10q-7 -1 -20 -9q-3 -3 -3 -6q0 -15 54 -16z" />
    <glyph glyph-name="cha.ii" 
d="M315 142q61 -1 111 31q59 38 64 105q4 56 -15 95q-15 29 -52 63t-165 37q-48 -1 -143 3q-92 11 -92 78q0 68 82 102q77 32 226 36q195 5 270 -34q47 -24 53 -65q4 -27 -10 -51q-18 -30 -60 -43q101 -58 98 -227q-1 -70 -40.5 -134.5t-96.5 -96.5q-79 -45 -243 -45
q-23 0 -45 1q-213 11 -213 105q0 53 49 72q-53 -2 -85 27q-11 10 -11 34q0 29 23 45q28 19 75 17q1 0 51 -4q30 -3 50 0q29 4 33 16q2 7 -14 8q-12 0 -26 -3q-24 -5 -51 -5q-49 0 -74 17t-25 45q0 41 50 64.5t148 20.5q81 -2 140 -44.5t59 -103.5q0 -47 -29 -80.5t-76 -44.5
q-28 -7 -47 -10q-7 -1 -20 -9q-3 -3 -3 -6q0 -15 54 -16zM332 584q-57 0 -90 -8q-17 -4 -17 -14q0 -12 24 -13q8 0 33 1q32 1 53 1q-8 17 -3 33zM405 573q-2 -25 35 -28q46 -4 46 20t-42 24q-38 0 -39 -16z" />
    <glyph glyph-name="ja.al" 
d="M390 390q-60 -1 -81 24q-9 11 -14 27q-13 43 -3 157q2 26 11 59q10 39 21 49q19 18 50 22q59 8 88 -17q14 -12 14 -43q0 -10 -4 -43q-2 -16 -9 -81q-1 -35 -8 -101q21 9 47 14q-20 33 -20 78q0 63 28.5 97.5t67.5 44.5q37 10 74 0q55 -15 55 -84q0 -12 -1 -26
q-5 -49 -43 -50q-29 -1 -42 -10q-20 -14 -11 -31q8 -16 44 -30q17 -7 30 -25t13 -33q0 -62 -61 -74q-21 -4 -44 6q-10 -9 -6 -22q4 -11 25 -29q25 -20 27 -23q28 -30 33 -68q6 -45 -20.5 -84.5t-78.5 -62.5q-87 -38 -260 -35q-160 2 -223 42q-73 46 -77 110q-2 24 8 55
q8 26 49 54q11 7 40 22q14 6 37 17q8 4 8 11q0 12 -14 10q-41 -5 -61 1q-49 16 -49 60q0 52 75 72q53 14 117 -2q40 -10 68 -30q63 -44 59 -97q-4 -55 -55 -95q-24 -19 -44.5 -32.5t-20.5 -23.5q0 -21 48 -31q32 -6 64 -5q55 2 78 10.5t36 21.5q16 17 1 43q-16 27 -34 48
q-49 56 -45 95q2 19 13 38z" />
    <glyph glyph-name="ja.i" 
d="M256 705q52 2 104 -13q62 -18 94 -52q39 34 64 40q33 8 63 8q40 0 71 -14q61 -28 54 -107q-4 -47 -43 -55q-4 -1 -25 3t-32 4q-21 0 -27.5 -9.5t-6.5 -19.5q0 -33 51 -34q23 -6 31 -10q17 -7 30 -25t13 -33q0 -62 -61 -74q-21 -4 -44 6q-10 -9 -6 -22q29 -35 52 -52
q28 -30 33 -68q6 -45 -20.5 -84.5t-78.5 -62.5q-87 -38 -260 -35q-68 1 -120 9q-70 11 -116 42q-60 39 -64 101q-2 30 8 55q13 32 54 56q45 19 65 24q40 10 40 24q0 12 -14 10q-56 -7 -86 1q-49 13 -49 59q0 47 68 67q-73 31 -73 106q0 72 78 117q61 35 153 38zM401 541
q-36 0 -61 14q-19 11 -49 11q-28 0 -49 -10q-27 -12 -27 -37q0 -17 23 -40q8 -8 2 -26q49 -8 86 -34q52 -37 48 -99q-5 -67 -73 -102q-41 -21 -50 -26q-21 -12 -21 -23q0 -21 47 -30q32 -6 64 -5q55 2 78 10.5t36 21.5q16 17 1 43q-16 27 -34 48q-37 42 -32 95q4 40 44 73
q-34 21 -38 82q-1 18 5 34z" />
    <glyph glyph-name="ja.ii" 
d="M256 705q60 2 123 -10q82 -16 113 -49q26 43 80 48q49 4 80 -12q61 -33 54 -115q-4 -47 -43 -55q-4 -1 -25 3t-32 4q-21 0 -27.5 -9.5t-6.5 -19.5q0 -33 51 -34q9 -1 31 -10q17 -7 30 -25t13 -33q0 -62 -61 -74q-21 -4 -44 6q-10 -9 -6 -22q4 -11 25 -29q25 -20 27 -23
q28 -30 33 -68q6 -45 -20.5 -84.5t-78.5 -62.5q-87 -38 -260 -35q-160 2 -223 42q-73 46 -77 110q-2 30 8 55q13 32 54 56q23 14 64 24t41 24q0 12 -14 10q-56 -7 -86 1q-49 13 -49 59q0 47 68 67q-73 31 -73 106q0 72 78 117q61 35 153 38zM432 448q-11 -7 -34 -7
q-47 0 -70 16q-42 28 -42 75q0 17 5 34q-28 0 -49 -10q-27 -12 -27 -37q0 -17 23 -40q8 -8 2 -26q49 -8 86 -34q52 -37 48 -99q-5 -67 -73 -102q-17 -9 -50 -26q-21 -12 -21 -23q0 -21 47 -30q33 -6 64 -5q55 2 78 10.5t36 21.5q16 17 1 43q-16 27 -34 48q-37 42 -32 95
q4 40 44 73q-2 7 -2 23zM356 538q0 -12 11.5 -20.5t28.5 -8.5t28.5 8.5t11.5 20.5t-11.5 20.5t-28.5 8.5t-28.5 -8.5t-11.5 -20.5z" />
    <glyph glyph-name="Dha.i" horiz-adv-x="705" 
d="M488 599q2 5 2 10q0 21 -24.5 36.5t-72.5 22.5q-57 10 -103 3q-47 -7 -81 -30q-42 -28 -42 -70q0 -30 20 -50q23 -23 64 -23q12 0 24 1q-11 11 -29 14q-52 8 -47 54q3 28 28.5 51t63.5 25q99 5 197 -44zM300 461q-42 -9 -81 -9q-84 0 -134 39.5t-47 107.5q3 65 81 108
q72 39 171 41q288 5 355 -86q26 -36 26 -82q0 -60 -45 -90q76 -96 74 -219q-2 -82 -32 -147q-35 -73 -97 -105q-46 -24 -103 -24q-20 0 -48 3q-59 5 -82 44q-49 -52 -152 -45q-113 8 -149 66q-9 14 -9 37q0 58 45 76q-36 -1 -65 25q-11 10 -11 34q0 29 23 45q28 19 75 17
q13 0 39 -5q18 -3 37 -1q24 3 24 13q0 16 -46 10q-57 -7 -83.5 11t-26.5 46q0 43 49 64q30 13 88 13q73 0 133 -36q71 -42 75 -112q2 -28 -18.5 -50.5t-44.5 -28.5q-29 -6 -83 -25q-19 -10 -19 -33q0 -26 22 -25q21 1 26 21q6 26 30 39t65 15q47 2 60 -20q11 -17 3 -35
q-2 -4 -2 -8q0 -14 19 -12q20 3 38 43.5t19 94.5q1 58 -34 109q-18 -9 -42 -9q-44 0 -69 20q-32 25 -54 65zM428 465q-11 19 -35 42q-28 26 -72 35q29 -17 54 -54q12 -25 42 -25q6 0 11 2z" />
    <glyph glyph-name="Dha.ii" horiz-adv-x="705" 
d="M350 640q1 16 6 32q-40 3 -64 -1q-47 -7 -81 -30q-42 -28 -42 -70q0 -30 20 -50q23 -23 64 -23q11 0 23 1q-12 11 -30 14q-52 8 -47 54q3 28 28.5 51t63.5 25q29 1 59 -3zM301 461q-42 -9 -80 -9q-84 0 -134 39.5t-47 107.5q3 65 81 108q72 39 171 41q288 5 355 -86
q24 -32 24 -75q0 -63 -48 -94q79 -97 77 -222q-2 -82 -32 -147q-35 -73 -97 -105q-46 -24 -103 -24q-20 0 -48 3q-59 5 -82 44q-49 -52 -152 -45q-113 8 -149 66q-9 14 -9 37q0 58 45 76q-36 -1 -65 25q-11 10 -11 34q0 29 23 45q28 19 75 17q13 0 39 -5q18 -3 37 -1
q24 3 24 13q0 16 -46 10q-57 -7 -83.5 11t-26.5 46q0 43 49 64q30 13 88 13q73 0 133 -36q71 -42 75 -112q2 -28 -18.5 -50.5t-44.5 -28.5q-29 -6 -83 -25q-19 -10 -19 -33q0 -26 22 -25q21 1 26 21q6 26 30 39t65 15q47 2 60 -20q11 -17 3 -35q-2 -4 -2 -8q0 -14 19 -12
q20 3 38 43.5t19 94.5q1 58 -34 109q-18 -9 -42 -9q-44 0 -69 20q-31 25 -53 65zM428 465q-11 19 -35 42q-28 26 -72 35q29 -17 54 -54q12 -25 42 -25q6 0 11 2zM440 646q-2 -13 9 -25t29 -15q19 -3 33.5 4t17.5 21q2 13 -9.5 25t-29.5 15t-33 -4t-17 -21z" />
    <glyph glyph-name="Tha.i" 
d="M483 602q1 4 1 7q0 21 -24.5 36.5t-72.5 22.5q-57 10 -103 3q-47 -7 -81 -30q-42 -28 -42 -70q0 -30 20 -50q23 -23 64 -23q15 0 31 3q-11 9 -28 12q-48 8 -48 48q0 29 26 54.5t67 27.5q87 5 186 -39zM300 462q-45 -10 -87 -10q-84 0 -134 39.5t-47 107.5q3 65 81 108
q72 39 171 41q288 5 355 -86q26 -36 26 -82q0 -57 -41 -87q70 -92 64 -220q-3 -73 -46 -140q-45 -70 -111 -101q-75 -35 -191 -35q-196 0 -279 97q-16 19 -30 55.5t-15 64.5q-3 61 27 117q33 61 107 91q36 14 72 14q16 0 33 -2q72 -10 72 -75q0 -10 -2 -19
q-4 -17 -19.5 -31.5t-32.5 -15.5t-33 -19q-20 -20 -20 -49q0 -12 4 -24q21 -53 92 -61q62 -7 112 30.5t60 105.5q2 12 2 25q0 57 -23 84q-10 -8 -33 -8q-52 0 -78 19q-34 25 -56 66zM428 465q-17 27 -33 42q-27 26 -72 35q29 -17 54 -54q12 -23 51 -23z" />
    <glyph glyph-name="Tha.ii" 
d="M344 642q1 15 6 30q-40 3 -64 -1q-47 -7 -81 -30q-42 -28 -42 -70q0 -30 20 -50q23 -23 64 -23q14 0 29 2q-11 10 -28 13q-48 8 -48 48q0 29 26 54.5t67 27.5q25 1 51 -1zM300 462q-44 -10 -85 -10q-84 0 -134 39.5t-47 107.5q3 65 81 108q72 39 171 41q288 5 355 -86
q24 -32 24 -75q0 -60 -43 -91q72 -92 66 -223q-3 -73 -46 -140q-45 -70 -111 -101q-75 -35 -191 -35q-196 0 -279 97q-16 19 -30 55.5t-15 64.5q-3 61 27 117q33 61 107 91q36 14 72 14q16 0 33 -2q72 -10 72 -75q0 -10 -2 -19q-4 -17 -19.5 -31.5t-32.5 -15.5t-33 -19
q-20 -20 -20 -49q0 -12 4 -24q21 -53 92 -61q62 -7 112 30.5t60 105.5q2 12 2 25q0 57 -23 84q-10 -8 -33 -8q-52 0 -78 19q-34 25 -56 66zM428 465q-17 27 -33 42q-27 26 -72 35q29 -17 54 -54q12 -23 51 -23zM434 646q-2 -13 9 -25t29 -15q19 -3 33.5 4t17.5 21
q2 13 -9.5 25t-29.5 15t-33 -4t-17 -21z" />
    <glyph glyph-name="gna.aa" horiz-adv-x="1652" 
d="M764 191q23 50 73 72q45 20 96 24q32 0 63 1q85 2 92 21q6 17 -50 17q-37 0 -53.5 -3t-63.5 -19q-47 -22 -79 -20q-19 1 -37 12q-22 13 -41 18q-6 1 -12 1q-18 0 -32.5 -10.5t-15.5 -24.5q7 -2 31 -26t29 -63zM863 440q11 2 34 7q70 19 172 11q59 -4 94 -16
q56 -19 87.5 -56t31.5 -83q0 -15 -4 -31q-12 -49 -78 -74q-24 -9 -62 -12l-64 -4q-25 -1 -64 -5q-28 -4 -27 -16q1 -9 37 -14q18 -2 56 -1q36 1 61 8q20 6 39 12q14 3 27 3q43 0 65 -33q16 -24 16 -49q0 -45 -42 -67q-31 -16 -84 -23q-17 -2 -60 -7q-30 -3 -30 -17
q0 -17 39 -17q17 0 41 4q9 2 48 19q32 15 64 9q57 -10 59 -75q1 -47 -61 -86q-70 -44 -232 -36q-188 9 -188 118q0 31 19 56.5t45 32.5q-143 20 -150 128q-23 -54 -67 -82q-55 -35 -101.5 -41t-91.5 -6q-113 0 -174 36.5t-75 89.5q-11 42 -11 88q0 57 25 119
q-26 -15 -41 -37q-25 -38 -25 -100q0 -18 2 -35q6 -43 26 -74q8 -13 8 -27q0 -26 -31 -44q-27 -16 -55 -16q-17 0 -36 5q-49 14 -78 79q-26 61 -21 144q4 69 45 129q34 50 85 73q42 19 104 21q-34 -1 80 -1q17 0 36 1q29 9 44 10q82 5 112 -41q8 -12 8 -24q0 -17 -22 -50
q-28 -41 -37 -63q-16 -39 -16 -73q0 -67 60 -69q55 -2 55 26q0 17 -20 19q-26 2 -34 16.5t-8 36.5q0 34 18 79q15 37 31 56q36 44 92 70q38 17 106 17q60 0 97 -11q10 -3 21 -7zM1335 316q-48 16 -48 63q0 17 8 31q26 49 123 49q21 0 44 -3q97 -11 143 -87q39 -64 33 -151
q-6 -86 -53 -144q-53 -66 -144 -74q-75 -6 -115 20q-27 18 -27 57q0 34 29 50q14 8 48 15t54.5 36t20.5 63q0 26 -13 48q-11 17 -23.5 23t-39.5 3t-40 1z" />
    <glyph glyph-name="kna.aa" horiz-adv-x="1674" 
d="M783 185q22 54 76 78q45 20 96 24q32 0 63 1q85 2 92 21q6 16 -53 16q-19 0 -61 -3q-33 -3 -47 -6q-21 -5 -53 -20q-38 -18 -49 -18q-19 0 -45 15q-31 17 -42 20q-40 9 -67 -4q30 -9 56 -41t34 -83zM869 436q11 5 29 10q78 21 193 12q59 -4 94 -16q56 -19 87.5 -56
t31.5 -83q0 -15 -4 -31q-12 -49 -78 -74q-24 -9 -62 -12l-64 -4q-25 -1 -64 -5q-28 -4 -27 -16q1 -9 37 -14q18 -2 56 -1q36 1 61 8q20 6 39 12q14 3 27 3q43 0 65 -33q16 -24 16 -49q0 -45 -42 -67q-31 -16 -84 -23q-17 -2 -60 -7q-30 -3 -30 -17q0 -17 39 -17q17 0 41 4
q9 2 48 19q32 15 64 9q57 -10 59 -75q1 -47 -61 -86q-70 -44 -232 -36q-188 9 -188 118q0 31 19 56.5t45 32.5q-129 18 -148 111q-16 -48 -56 -78q-53 -40 -124 -33q-70 7 -84 36q-29 -37 -119 -37q-55 0 -80 15.5t-25 46.5q0 12 5 23q9 15 -1 15q-4 0 -11 -4q-4 -2 -13 2.5
t-13 9.5q-12 15 -15 46q-4 38 21 63q40 40 83 70q25 17 59 39q-11 10 -39 -3q-22 -10 -39 -10q-37 0 -58 25q-34 -16 -51 -42q-25 -38 -25 -100q0 -18 2 -35q6 -43 26 -74q8 -13 8 -27q0 -26 -31 -44q-27 -16 -55 -16q-17 0 -36 5q-49 14 -78 79q-26 61 -21 144q4 69 45 129
q32 47 85 71q40 18 98 21q12 1 80 -1q34 14 86 14q78 0 120 -26q11 -6 30 -22q32 20 81 34q43 12 111 12q63 0 97 -10q18 -5 30 -11zM434 157q10 0 9 -4q-2 -17 12 -17q5 0 11 2q2 1 5 13.5t14.5 18t30.5 5.5q22 1 33 -8q5 -4 15 -27q4 -6 13 -3q7 3 10 8q13 17 1 54
q-12 36 -50 38q-28 -15 -58 -41q-20 -16 -46 -39zM1356 316q-48 16 -48 63q0 17 8 31q26 49 123 49q21 0 44 -3q97 -11 143 -87q39 -64 33 -151q-6 -86 -53 -144q-53 -66 -144 -74q-75 -6 -115 20q-27 18 -27 57q0 34 29 50q14 8 48 15t54.5 36t20.5 63q0 26 -13 48
q-11 17 -23.5 23t-39.5 3t-40 1z" />
    <glyph glyph-name="kna.u" horiz-adv-x="1322" 
d="M783 185q22 54 76 78q45 20 96 24q32 0 63 1q85 2 92 21q6 16 -53 16q-19 0 -61 -3q-33 -3 -47 -6q-21 -5 -53 -20q-38 -18 -49 -18q-19 0 -45 15q-31 17 -42 20q-40 9 -67 -4q30 -9 56 -41t34 -83zM776 109q-16 -48 -56 -78q-53 -40 -124 -33q-70 7 -84 36
q-29 -37 -119 -37q-55 0 -80 15.5t-25 46.5q0 12 5 23q9 15 -1 15q-4 0 -11 -4q-4 -2 -13 2.5t-13 9.5q-12 15 -15 46q-4 38 21 63q40 40 83 70q25 17 59 39q-11 10 -39 -3q-22 -10 -39 -10q-37 0 -58 25q-34 -16 -51 -42q-25 -38 -25 -100q0 -18 2 -35q6 -43 26 -74
q8 -13 8 -27q0 -26 -31 -44q-27 -16 -55 -16q-17 0 -36 5q-49 14 -78 79q-26 61 -21 144q4 69 45 129q32 47 85 71q40 18 98 21q12 1 80 -1q34 14 86 14q78 0 120 -26q11 -6 30 -22q32 20 81 34q43 12 111 12q63 0 97 -10q18 -5 30 -11q11 5 29 10q78 21 193 12
q59 -4 94 -16q56 -19 87.5 -56t31.5 -83q0 -15 -4 -31q-12 -49 -78 -74q-24 -9 -62 -12l-64 -4q-25 -1 -64 -5q-28 -4 -27 -16q1 -9 37 -14q18 -2 56 -1q36 1 61 8l38 12q13 3 24 3q40 0 68 -33q24 -27 19 -83l-14 -140q-6 -57 -6 -58q-4 -29 -15 -36q-21 -15 -69 -13
q-52 2 -175 2q-59 0 -111 -4q-44 -4 -64 -3q-42 2 -62 20t-20 54q0 28 13 45q22 28 75 33.5t92 4.5q47 -2 93 -4q25 -1 39 2t13 11q5 18 5 41q-60 -13 -126 -13q-28 0 -53 3q-63 7 -103 40q-35 29 -44 71zM434 157q10 0 9 -4q-2 -17 12 -17q5 0 11 2q2 1 5 13.5t14.5 18
t30.5 5.5q22 1 33 -8q5 -4 15 -27q4 -6 13 -3q7 3 10 8q13 17 1 54q-12 36 -50 38q-28 -15 -58 -41q-20 -16 -46 -39z" />
    <glyph glyph-name="kna.uu" horiz-adv-x="1322" 
d="M783 185q22 54 76 78q45 20 96 24q32 0 63 1q85 2 92 21q6 16 -53 16q-19 0 -61 -3q-33 -3 -47 -6q-21 -5 -53 -20q-38 -18 -49 -18q-19 0 -45 15q-31 17 -42 20q-40 9 -67 -4q30 -9 56 -41t34 -83zM776 109q-16 -48 -56 -78q-53 -40 -124 -33q-70 7 -84 36
q-29 -37 -119 -37q-55 0 -80 15.5t-25 46.5q0 12 5 23q9 15 -1 15q-4 0 -11 -4q-4 -2 -13 2.5t-13 9.5q-12 15 -15 46q-4 38 21 63q40 40 83 70q25 17 59 39q-11 10 -39 -3q-22 -10 -39 -10q-37 0 -58 25q-34 -16 -51 -42q-25 -38 -25 -100q0 -18 2 -35q6 -43 26 -74
q8 -13 8 -27q0 -26 -31 -44q-27 -16 -55 -16q-17 0 -36 5q-49 14 -78 79q-26 61 -21 144q4 69 45 129q32 47 85 71q40 18 98 21q12 1 80 -1q34 14 86 14q78 0 120 -26q11 -6 30 -22q32 20 81 34q43 12 111 12q63 0 97 -10q18 -5 30 -11q11 5 29 10q78 21 193 12
q59 -4 94 -16q56 -19 87.5 -56t31.5 -83q0 -15 -4 -31q-12 -49 -78 -74q-24 -9 -62 -12l-64 -4q-25 -1 -64 -5q-28 -4 -27 -16q1 -9 37 -14q18 -2 56 -1q36 1 61 8l38 12q12 2 23 2q40 0 69 -33q25 -28 20 -82l-12 -140q-3 -31 -6.5 -63t-14.5 -39q-24 -17 -82 -17
q-47 0 -67 18q-25 23 -26 24q-12 8 -32 8t-50 -13q-20 -10 -40 -19q-59 -24 -109 -24q-21 0 -36 4q-18 5 -26 9q-13 7 -25 20q-20 22 -20 66q0 25 7 40q16 34 47 45q16 6 31 6t34 -7q25 -9 31 -10q15 -3 28 -3q21 0 42 8q15 6 29 12q29 11 51 4q16 -5 35 -24q6 50 6 54
q-78 -17 -137 -17q-25 0 -46 3q-126 15 -145 111zM434 157q10 0 9 -4q-2 -17 12 -17q5 0 11 2q2 1 5 13.5t14.5 18t30.5 5.5q22 1 33 -8q5 -4 15 -27q4 -6 13 -3q7 3 10 8q13 17 1 54q-12 36 -50 38q-28 -15 -58 -41q-20 -16 -46 -39z" />
    </font>
</defs>
</svg>
