<?xml version="1.0" standalone="no"?>
<!DOCTYPE svg PUBLIC "-//W3C//DTD SVG 1.1//EN" "http://www.w3.org/Graphics/SVG/1.1/DTD/svg11.dtd" >
<svg xmlns="http://www.w3.org/2000/svg" xmlns:xlink="http://www.w3.org/1999/xlink" version="1.1">
<metadata>
Created by FontForge 20201107 at Thu Jan  9 14:53:07 2020
 By 
Generated by Fontographer 4.1 by Pushpananda Ekanayaka - The Font master - September 2002
</metadata>
<defs>
<font id="UN-Rashmi" horiz-adv-x="622" >
  <font-face 
    font-family="UN-Rashmi"
    font-weight="700"
    font-stretch="normal"
    units-per-em="1000"
    panose-1="0 0 7 0 0 0 0 0 0 0"
    ascent="800"
    descent="-200"
    bbox="-713 -191 1644.23 896"
    underline-thickness="20"
    underline-position="-143"
    unicode-range="U+0020-25CC"
  />
<missing-glyph horiz-adv-x="377" 
 />
    <glyph glyph-name=".notdef" horiz-adv-x="377" 
 />
    <glyph glyph-name=".null" horiz-adv-x="0" 
 />
    <glyph glyph-name="nonmarkingreturn" horiz-adv-x="333" 
 />
    <glyph glyph-name="space" unicode=" " horiz-adv-x="377" 
 />
    <glyph glyph-name="exclaim" unicode="!" horiz-adv-x="202" 
d="M125 729v-618h-53v618h53zM70 0v65h55v-65h-55z" />
    <glyph glyph-name="quote" unicode="&#x22;" horiz-adv-x="408" 
d="M266 388l-24 194q-4 30 -5 35v10q0 48 39 49q23 1 32 -14q7 -11 8 -36q0 -4 -0.5 -9t-3.5 -31l-23 -198h-23zM168 608v-11q-1 -6 -1 -9l-24 -200h-22l-25 198q-4 32 -4 48q0 17 10.5 29.5t27.5 12.5q22 0 31 -13t9 -36q0 -1 -2 -19z" />
    <glyph glyph-name="hash" unicode="#" horiz-adv-x="500" 
d="M279 246l45 168h-106l-45 -168h106zM8 246h106l47 169h-107l8 36h107l58 210h60l-58 -210h105l57 210h59l-58 -210h107l-10 -36h-106l-45 -169h106l-10 -37h-105l-57 -209h-61l59 209h-106l-57 -209h-59l57 209h-105z" />
    <glyph glyph-name="percentage" unicode="%" horiz-adv-x="384" 
d="M299 585h51l-267 -586l-51 1zM52 568q28 23 64 23q48 0 78 -37q23 -28 23 -64q0 -48 -37 -78q-28 -23 -64 -23q-48 0 -78 37q-23 28 -23 64q0 48 37 78zM205 174q28 23 64 23q48 0 78 -37q23 -28 23 -64q0 -48 -37 -78q-28 -23 -64 -23q-48 0 -78 37q-23 28 -23 64
q0 48 37 78zM76 519q-10 -13 -10 -30q0 -25 19 -39q13 -10 30 -10q26 0 40 20q10 13 10 29q0 25 -20 39q-13 10 -30 10q-25 0 -39 -19zM230 125q-10 -13 -10 -30q0 -25 19 -39q13 -10 30 -10q26 0 40 20q10 13 10 29q0 25 -20 39q-13 10 -30 10q-25 0 -39 -19z" />
    <glyph glyph-name="apostrophe" unicode="'" horiz-adv-x="180" 
d="M124 629q0 -4 -0.5 -6t-2.5 -20l-24 -215h-17l-26 198l-3 24q0 16 -1 24q0 15 7 28.5t29 13.5t30 -13.5t8 -33.5z" />
    <glyph glyph-name="bracket_open" unicode="(" horiz-adv-x="294" 
d="M224 720h64q-93 -87 -143 -198q-48 -107 -49 -238q-1 -102 49 -220q53 -124 145 -215h-69q-62 71 -95 137q-36 71 -55 132q-26 82 -26 169q0 61 13 122q40 194 166 311z" />
    <glyph glyph-name="bracket_close" unicode=")" horiz-adv-x="294" 
d="M71 720q126 -117 166 -311q13 -61 13 -122q0 -87 -26 -169q-19 -61 -55 -132q-33 -66 -95 -137h-69q92 91 145 215q50 118 49 220q-1 131 -49 238q-50 111 -143 198h64z" />
    <glyph glyph-name="asterisk" unicode="*" horiz-adv-x="383" 
d="M193 641q32 0 31 -40q0 -13 -8 -30q-9 -21 -11 -28q-7 -29 -8 -54q12 7 39 31q9 14 39 45q12 10 30 10q34 0 34 -29q0 -35 -47 -40q-53 -7 -89 -25q20 -12 66 -20q43 -7 56 -18.5t13 -27.5q0 -32 -31 -32q-25 0 -49 35q-20 27 -60 52q-1 -22 4 -48q2 -9 12 -32
q9 -19 9 -30q0 -39 -30 -40q-31 -1 -35 38q-2 15 6 33q11 24 13 33q4 13 9 45q-24 -8 -39.5 -28t-47.5 -50q-10 -6 -22 -6q-31 0 -31 29q0 36 49 42l34 4q13 2 53 20q-12 7 -44 18q-27 2 -75 17q-18 11 -18 31q0 30 32 30q20 0 41 -21q15 -19 31 -38q6 -7 37 -28q2 29 -5 55
q-2 7 -13 27q-8 16 -8 31q0 39 33 39z" />
    <glyph glyph-name="plus" unicode="+" horiz-adv-x="472" 
d="M203 48v192h-190v58h189v181h66v-181h188v-58h-188v-192h-65z" />
    <glyph glyph-name="comma" unicode="," horiz-adv-x="148" 
d="M24 -113q9 18 21 56q15 46 12 58h-27v72h81v-59q0 -30 -15 -73t-29 -54h-43z" />
    <glyph glyph-name="minus" unicode="-" horiz-adv-x="461" 
d="M98 238v47h257v-47h-257z" />
    <glyph glyph-name="dot" unicode="." horiz-adv-x="143" 
d="M110 1h-76v72h76v-72z" />
    <glyph glyph-name="slash" unicode="/" horiz-adv-x="352" 
d="M32 -125l219 788h51l-220 -788h-50z" />
    <glyph glyph-name="0" unicode="0" horiz-adv-x="556" 
d="M278 647q-160 0 -160 -301t160 -301t160 301t-160 301zM278 707q230 0 230 -361t-230 -361t-230 361t230 361z" />
    <glyph glyph-name="1" unicode="1" horiz-adv-x="556" 
d="M116 518v65q84 34 159 109h62v-692h-65v622q-61 -58 -156 -104z" />
    <glyph glyph-name="2" unicode="2" horiz-adv-x="556" 
d="M485 0h-435v68q122 110 212 212q144 164 144 244q0 58 -41 92q-39 31 -98 31q-62 0 -101 -38.5t-39 -99.5h-70q0 90 60 144t152 54q88 0 145 -44q62 -49 62 -135q0 -104 -134 -256q-32 -37 -214 -212h357v-60z" />
    <glyph glyph-name="3" unicode="3" horiz-adv-x="556" 
d="M225 329v63q14 -2 29 -2q67 0 111 31q51 36 51 101q0 58 -46 93q-43 32 -107 32q-137 0 -151 -126h-70q0 84 66 137q60 49 146 49q97 0 160 -44q72 -51 72 -145q0 -60 -42 -103q-38 -40 -99 -53v-2q68 -15 110 -61t42 -114q0 -92 -75 -149q-68 -51 -162 -51
q-96 0 -158 50q-67 53 -70 148h70q1 -62 49 -101q45 -37 108 -37q73 0 120.5 38.5t47.5 109.5q0 68 -51 106q-45 33 -114 33q-18 0 -37 -3z" />
    <glyph glyph-name="4" unicode="4" horiz-adv-x="556" 
d="M347 161h-325v53l308 478h82v-471h111v-60h-111v-161h-65v161zM347 221v395h-2l-244 -395h246z" />
    <glyph glyph-name="5" unicode="5" horiz-adv-x="556" 
d="M76 291l16 401h381v-60h-319l-11 -247l2 -2q63 73 152 73q95 0 153 -67.5t58 -163.5q0 -102 -61 -171t-161 -69q-95 0 -154 43q-67 49 -70 142h70q3 -60 44 -92.5t103 -32.5q77 0 120 54q39 49 39 129q0 77 -38 122q-41 46 -117 46q-51 0 -89 -28q-41 -29 -51 -77h-67z
" />
    <glyph glyph-name="6" unicode="6" horiz-adv-x="556" 
d="M296 394q-80 0 -124.5 -51.5t-44.5 -131.5q0 -67 45 -116.5t111 -49.5q74 0 117 49q41 46 41 122q0 75 -34 123q-39 55 -111 55zM297 707q89 0 144 -43q60 -48 61 -134h-70q-2 53 -39.5 85t-92.5 32q-185 0 -185 -311h2q46 113 182 113q100 0 156 -63.5t56 -165.5
t-58 -167q-60 -68 -160 -68q-134 0 -196 101q-52 83 -52 225q0 172 42 264q60 132 210 132z" />
    <glyph glyph-name="7" unicode="7" horiz-adv-x="556" 
d="M492 692v-58l-269 -634h-76l277 632h-373v60h441z" />
    <glyph glyph-name="8" unicode="8" horiz-adv-x="556" 
d="M278 45q70 0 115 34q50 39 50 109t-50 109q-45 34 -115 34t-115 -34q-50 -39 -50 -109t50 -109q45 -34 115 -34zM278 652q-65 0 -109 -31q-51 -35 -51 -100q0 -63 46 -97q42 -33 114 -33t116 33.5t44 96.5q0 65 -51 100q-44 31 -109 31zM194 359v2q-60 6 -100.5 52
t-40.5 108q0 90 71 141q62 45 154 45t154 -45q71 -51 71 -141q0 -61 -39 -103.5t-100 -56.5v-1q149 -39 149 -172q0 -98 -74 -154q-65 -49 -161 -49t-161 49q-74 56 -74 154q0 66 41 111t110 60z" />
    <glyph glyph-name="9" unicode="9" horiz-adv-x="556" 
d="M267 647q-74 0 -115 -49q-37 -46 -37 -122q0 -69 40 -112t108 -43q72 0 119.5 46t47.5 118q0 71 -46 116.5t-117 45.5zM47 170h70q4 -125 150 -125q103 0 147 124q28 81 28 203h-2q-54 -106 -183 -106q-93 0 -152.5 61t-59.5 154q0 100 60.5 163t160.5 63q246 0 246 -342
q0 -380 -263 -380q-90 0 -142.5 50t-59.5 135z" />
    <glyph glyph-name="colon" unicode=":" horiz-adv-x="181" 
d="M128 103h-76v72h76v-72zM128 403h-76v72h76v-72z" />
    <glyph glyph-name="semicolon" unicode=";" horiz-adv-x="176" 
d="M40 -113q9 18 21 56q15 46 12 58h-27v72h81v-59q0 -30 -15 -73t-29 -54h-43zM118 241h-76v72h76v-72z" />
    <glyph glyph-name="lessthan" unicode="&#x3c;" horiz-adv-x="564" 
d="M535 66v-74l-505 247v27l505 248v-75l-374 -186z" />
    <glyph glyph-name="equals" unicode="=" horiz-adv-x="394" 
d="M55 214v58h285v-58h-285zM342 410v-57h-287v57h287z" />
    <glyph glyph-name="greaterthan" unicode="&#x3e;" horiz-adv-x="564" 
d="M9 439v75l544 -248v-27l-544 -247v74l413 187z" />
    <glyph glyph-name="question" unicode="?" horiz-adv-x="420" 
d="M179 211q4 45 40 92l62 62q51 59 56 121q6 67 -35 102q-37 32 -106 32q-64 0 -101 -35q-24 -23 -24 -73q0 -30 9 -50h-54q-7 25 -7 55q0 70 50 111q47 39 124 40q101 2 145 -39q50 -46 53 -129q3 -66 -35 -122q-40 -43 -98 -108q-24 -30 -27 -68q-1 -13 -1 -57v-24h-53
v48q0 20 2 42zM177 2v66h56v-66h-56z" />
    <glyph glyph-name="at" unicode="@" horiz-adv-x="921" 
d="M426 176q52 0 93 92q35 77 36 139q1 55 -54 55q-54 0 -97 -84q-38 -73 -38 -133q0 -69 60 -69zM90 308q0 160 128 267q120 100 283 101q131 1 226.5 -75t95.5 -199q0 -90 -55 -171q-62 -90 -148 -90q-53 0 -78 32q-15 20 -17 47q-11 -32 -45 -56t-68 -24q-60 0 -95.5 39
t-35.5 99q0 81 62 151t142 70q31 0 57 -16.5t34 -44.5l16 49h80l-26 -83q-11 -33 -30 -95q-20 -70 -20 -90q0 -17 13 -29.5t30 -12.5q64 0 109 84q39 71 39 140q1 110 -88 176q-79 60 -193 61q-129 1 -235 -91q-113 -98 -114 -238q-1 -133 95 -213q90 -75 226 -75
q48 0 101 13q86 21 145 67l19 -28q-138 -87 -280 -87q-147 0 -256 86q-117 93 -117 236z" />
    <glyph glyph-name="backslash" unicode="\" horiz-adv-x="407" 
d="M355 -32h-40l-267 639h41z" />
    <glyph glyph-name="brace_open" unicode="{" horiz-adv-x="416" 
d="M315 670v-20q-21 -1 -34 -14q-4 -3 -21 -23.5t-17 -87.5v-59q0 -41 -5 -59q-6 -22 -26.5 -45.5t-52.5 -32.5q-6 -2 -67 -13q88 -18 106 -40q47 -57 47 -106v-65q0 -56 23 -86q15 -19 47 -32v-23h-20q-44 0 -91 34q-18 13 -31 46q-14 37 -14 79v61q0 57 -21 82
q-25 29 -97 38v24q70 12 96 37q22 21 22 84v61q0 82 42 117q50 42 114 43z" />
    <glyph glyph-name="brace_close" unicode="}" horiz-adv-x="416" 
d="M97 670q64 -1 114 -43q42 -35 42 -117v-61q0 -63 22 -84q26 -25 96 -37v-24q-72 -9 -97 -38q-21 -25 -21 -82v-61q0 -93 -45 -125q-48 -34 -91 -34h-20v23q32 13 47 32q23 30 23 86v65q0 50 47 106q19 22 106 40q-61 11 -67 12q-32 10 -52.5 33.5t-26.5 45.5q-5 18 -5 59
v59q0 67 -18 86q-17 23 -19 25q-14 13 -35 14v20z" />
    <glyph glyph-name="degree" unicode="&#xb0;" horiz-adv-x="248" 
d="M53 684q26 27 64 27q31 0 54 -20q28 -25 28 -62q0 -31 -22 -55q-25 -27 -62 -27q-31 0 -55 21q-29 25 -29 62q0 31 22 54zM70 661q-11 -14 -11 -32q0 -28 23 -45q14 -11 33 -11q29 0 46 22q11 14 11 32q0 28 -23 45q-15 11 -34 11q-28 0 -45 -22z" />
    <glyph glyph-name="paragraphsign" unicode="&#xb6;" horiz-adv-x="453" 
d="M432 643q-28 -1 -41 -13q-20 -17 -27 -75q-6 -47 -6 -134v-272q0 -118 -30 -180q-56 -115 -212 -115q-50 0 -76 17q-27 14 -28 44q-1 17 13 31q14 11 32 11q43 0 45 -43q1 -14 -11 -29q54 -1 76 56q11 30 17 113q1 11 2 60v167q-89 0 -148 51.5t-59 139.5q0 53 26.5 96.5
t73.5 66.5q30 14 75 21q41 6 121 6h157v-19zM215 475v-295q0 -142 -2 -162q-12 -102 -68 -136l1 -6q100 19 132 109q19 54 19 195v187q0 104 4 165q6 85 34 111h-80q-7 0 -19 -22q-10 -17 -13 -28q-5 -18 -7 -75q0 -16 -1 -43z" />
    <glyph glyph-name="middledot" unicode="&#xb7;" horiz-adv-x="250" 
d="M167 332q0 -25 -16.5 -41.5t-41.5 -16.5t-41 16.5t-16 41.5q0 24 15.5 40t39.5 17t42 -16t18 -41z" />
    <glyph glyph-name="multiply" unicode="&#xd7;" horiz-adv-x="438" 
d="M425 501l-164 -240l162 -259h-78l-129 219l-134 -219h-72l163 255l-162 244h66l138 -207l143 207h67z" />
    <glyph glyph-name="divide" unicode="&#xf7;" horiz-adv-x="434" 
d="M13 297h407v-61h-407v61zM216 197q17 0 28.5 -11t11.5 -29q0 -13 -8 -24q-11 -14 -31 -14q-15 0 -26 8q-14 11 -14 31q0 39 39 39zM216 408q17 0 28.5 -11.5t11.5 -28.5q0 -16 -11.5 -27.5t-28.5 -11.5q-16 0 -28 11.5t-12 28.5t11.5 28t28.5 11z" />
    <glyph glyph-name="anusa" unicode="&#xd82;" horiz-adv-x="432" 
d="M219 391q-74 0 -116 -46.5t-41 -123.5q2 -176 153 -176q68 0 110 40q47 46 46 130q-1 83 -39.5 129.5t-112.5 46.5zM68 382q47 49 132 54q101 6 157 -41q67 -57 65 -186q-2 -98 -46 -149q-56 -64 -163 -64q-80 0 -132 44q-75 64 -71 185q3 100 58 157z" />
    <glyph glyph-name="visar" unicode="&#xd83;" horiz-adv-x="224" 
d="M21 460q0 38 27 65t64 27t64 -27t27 -65q0 -37 -26.5 -63.5t-64.5 -26.5t-64.5 26.5t-26.5 63.5zM66 461q0 -18 13.5 -31.5t31.5 -13.5q19 0 32.5 13.5t13.5 32.5q0 18 -13.5 31.5t-31.5 13.5t-32 -13.5t-14 -32.5zM21 136q0 38 27 65t64 27t64 -27t27 -65
q0 -37 -26.5 -63.5t-64.5 -26.5t-64.5 26.5t-26.5 63.5zM66 137q0 -18 13.5 -31.5t31.5 -13.5q19 0 32.5 13.5t13.5 32.5q0 18 -13.5 31.5t-31.5 13.5t-32 -13.5t-14 -32.5z" />
    <glyph glyph-name="v_a" unicode="&#xd85;" horiz-adv-x="617" 
d="M394 400h-127q-136 0 -177 -56q-35 -48 -33 -114q3 -90 58 -137q35 -30 104 -41q61 -10 175 -4v352zM443 278q17 -4 32 -4q37 0 57 24.5t19 60.5q0 15 -25.5 64t-25.5 77q0 21 13 38q-49 6 -63 -34q-7 -19 -7 -76v-150zM89 441h-48q-7 57 40 100q53 48 164 44
q51 -2 92 -23q49 -25 61 -69q1 35 23 61t61 31q14 2 40 -1q30 -3 40 -3q15 0 26 3v-50q-14 5 -25.5 -9.5t-11.5 -29.5q0 -27 15 -46q38 -49 38 -99q0 -24 -9 -47q-29 -78 -123 -78q-16 0 -30 3v-179q67 6 139 27v-53q-61 -17 -139 -23v-158h-49v156q-62 -2 -162 4
q-66 4 -118 32q-67 35 -91 102q-16 45 -16 94q0 60 24 108q52 105 184 105h142q-1 48 -39 75q-30 20 -64 21q-84 2 -123 -21q-14 -8 -27 -28q-15 -25 -14 -49z" />
    <glyph glyph-name="v_aa" unicode="&#xd86;" horiz-adv-x="500" 
d="M279 246l45 168h-106l-45 -168h106zM8 246h106l47 169h-107l8 36h107l58 210h60l-58 -210h105l57 210h59l-58 -210h107l-10 -36h-106l-45 -169h106l-10 -37h-105l-57 -209h-61l59 209h-106l-57 -209h-59l57 209h-105z" />
    <glyph glyph-name="v_ae" unicode="&#xd87;" horiz-adv-x="500" 
d="M279 246l45 168h-106l-45 -168h106zM8 246h106l47 169h-107l8 36h107l58 210h60l-58 -210h105l57 210h59l-58 -210h107l-10 -36h-106l-45 -169h106l-10 -37h-105l-57 -209h-61l59 209h-106l-57 -209h-59l57 209h-105z" />
    <glyph glyph-name="v_aee" unicode="&#xd88;" horiz-adv-x="500" 
d="M279 246l45 168h-106l-45 -168h106zM8 246h106l47 169h-107l8 36h107l58 210h60l-58 -210h105l57 210h59l-58 -210h107l-10 -36h-106l-45 -169h106l-10 -37h-105l-57 -209h-61l59 209h-106l-57 -209h-59l57 209h-105z" />
    <glyph glyph-name="v_i" unicode="&#xd89;" horiz-adv-x="605" 
d="M315 200q23 22 23 75q0 60 -25 108h54q26 -38 25 -97q-1 -46 -8 -70q-14 -42 -54 -71t-116 -29q-31 0 -57 6q-93 21 -128 112q-18 45 -18 101q0 92 53 157q78 96 215 96q90 0 142 -17q74 -24 121 -90q45 -62 50 -181q2 -46 -11 -99q-15 -60 -45 -99q-32 -43 -78 -62
q63 -18 58 -103q-2 -33 -29 -61q-24 -24 -56 -35q-55 -18 -146 -18q-105 0 -154 33q-55 38 -55 112q0 16 3 30h51q-3 -12 -3 -24q0 -46 38.5 -74t97.5 -30q193 -6 193 80q0 6 -1 13q-5 28 -57 35q-23 3 -89 2l-61 -1v50q70 1 93 4q55 6 92 26q54 29 83 95q24 55 24 114
q0 172 -129 237q-38 19 -103 19q-106 0 -169 -46q-77 -56 -77 -160q0 -47 19 -94q15 -38 57 -60q38 -19 83 -19q56 0 94 35z" />
    <glyph glyph-name="v_ii" unicode="&#xd8a;" horiz-adv-x="603" 
d="M94 755q28 43 78 43q27 0 50 -15q43 -28 43 -78q0 -27 -15 -50q-28 -43 -78 -43q-27 0 -50 15q-43 28 -43 78q0 27 15 50zM433 695q28 43 78 43q27 0 50 -15q43 -28 43 -78q0 -27 -15 -50q-28 -43 -78 -43q-27 0 -50 15q-43 28 -43 78q0 27 15 50zM57 284q3 -118 75 -182
q64 -55 160 -55q101 0 170.5 64.5t70.5 166.5q1 132 -62 201q-61 65 -171 65q-104 0 -171 -63q-75 -71 -72 -197zM298 -3q-103 0 -164 37q-36 22 -58 50q-62 79 -67 185q-7 150 73 236q51 55 119 78q48 16 99 64q23 22 47.5 59t30.5 58h54q-3 -24 -23 -62.5t-42 -61.5
t-28 -28q-18 -18 -33 -24q128 6 204 -77q26 -29 48 -78q23 -56 26 -107q10 -185 -106 -275q-70 -54 -180 -54zM471 644q0 -18 12 -30t30 -12q17 0 29.5 12.5t12.5 30.5q0 17 -12 29t-30 12t-30 -12t-12 -30zM129 706q0 -18 12 -30t30 -12q17 0 29.5 12.5t12.5 30.5
q0 17 -12 29t-30 12t-30 -12t-12 -30z" />
    <glyph glyph-name="v_u" unicode="&#xd8b;" horiz-adv-x="613" 
d="M546 147h52q0 -48 -4 -76q-9 -65 -47 -117q-34 -47 -105 -73q-43 -16 -135 -16q-45 0 -72 5q-82 15 -131 53q-86 68 -93 216q-4 92 27 162q30 67 105 97q45 18 114 18h253q0 38 -29 71q-26 28 -63 41q-24 8 -80 11q-53 1 -77 -3q-66 -12 -92 -45q-18 -24 -20 -66h-51
q-1 86 66 126q57 34 164 33q94 -1 154 -36q76 -44 81 -135q1 -17 1 -40h-256q-129 0 -171 -31q-36 -26 -56 -70q-17 -37 -18 -95q-1 -63 13 -113q24 -85 92 -122q57 -31 141 -29q111 2 158 37q55 41 72 111q13 53 7 86z" />
    <glyph glyph-name="v_uu" unicode="&#xd8c;" horiz-adv-x="500" 
d="M279 246l45 168h-106l-45 -168h106zM8 246h106l47 169h-107l8 36h107l58 210h60l-58 -210h105l57 210h59l-58 -210h107l-10 -36h-106l-45 -169h106l-10 -37h-105l-57 -209h-61l59 209h-106l-57 -209h-59l57 209h-105z" />
    <glyph glyph-name="v_iru" unicode="&#xd8d;" horiz-adv-x="984" 
d="M288 150v70h50v-70q0 -43 23 -71q26 -32 72 -30q62 3 97 43q41 46 38 132q-3 79 -40 117q-15 15 -55 31q-18 7 -92 7h-131q-100 0 -137 -26q-55 -39 -56 -132q-1 -73 28 -119q33 -53 98 -53q50 0 79 31q26 29 26 70zM37 429q-2 10 -2 22q0 56 42.5 98.5t122.5 35.5
q88 -8 110 -82q6 27 33 50q22 19 46 26q21 6 50 6q44 0 76 -15q27 -13 45.5 -46t18.5 -71q0 -12 -2 -24h-47q2 9 2 20q0 34 -21 60q-24 30 -65 30q-48 0 -76 -28q-35 -35 -33 -88q125 1 158 -8q87 -24 111 -109q12 -42 12 -95q0 -47 -10 -80q-36 -122 -165 -132
q-46 -4 -82.5 13t-50.5 43q-32 -59 -125 -57q-146 3 -174 149q-4 23 -4 54q0 74 16 112q47 110 178 110h78q1 40 -22 76q-28 44 -76 41q-103 -7 -97 -111h-47zM675 412h-44q-7 69 31.5 118.5t124.5 52.5q114 5 152 -60q26 -44 28 -155v-114q0 -224 6 -254h-43q-10 34 -10 64
q-37 -74 -162 -68q-39 2 -70 24t-44 56q-15 40 -15 97q0 71 23 107q50 80 164 80q56 0 102 -21q0 85 -3 104q-16 103 -115 97q-60 -4 -89 -26q-39 -31 -36 -102zM886 86q22 25 28 60q7 39 4 145q-32 24 -111 24q-19 0 -31 -3q-85 -23 -96 -97q-3 -22 -3 -43q0 -83 46 -113
q22 -15 62 -15q65 0 101 42z" />
    <glyph glyph-name="v_iruu" unicode="&#xd8e;" horiz-adv-x="500" 
d="M279 246l45 168h-106l-45 -168h106zM8 246h106l47 169h-107l8 36h107l58 210h60l-58 -210h105l57 210h59l-58 -210h107l-10 -36h-106l-45 -169h106l-10 -37h-105l-57 -209h-61l59 209h-106l-57 -209h-59l57 209h-105z" />
    <glyph glyph-name="v_ilu" unicode="&#xd8f;" horiz-adv-x="908" 
d="M224 62q-10 -62 -72 -62q-10 0 -22 2q-44 9 -73 107q-28 92 -28 206q0 108 33 190q45 113 138 113q53 0 77 -37q34 8 71 5q74 -6 106 -68q28 51 78 63t98 1q25 36 77 36q84 0 130 -95q35 -71 40 -167q1 -20 1 -41q0 -114 -28 -206q-29 -98 -73 -107q-12 -2 -22 -2
q-63 0 -72 63q-19 -17 -45 -33q-55 -34 -185 -34q-119 0 -179 32q-28 15 -50 34zM231 560q-8 8 -31 9q-45 3 -80 -67q-32 -62 -36 -134q-2 -36 -2 -67q0 -106 26 -173q17 34 57 30q-6 20 -9 42q-6 43 2 87q11 66 66 105q23 16 53 24q37 10 147 8q1 45 -24 79t-62 36
q-46 3 -79 -26q-36 -31 -30 -83h-49q-2 10 -2 22q0 69 53 108zM743 158q39 4 56 -30q26 67 26 174q0 30 -2 66q-4 72 -36 134q-35 70 -80 67q-11 0 -31 -9q46 -39 46 -106q0 -12 -2 -24h-50q8 108 -88 108q-11 0 -22 -2q-36 -5 -59.5 -41t-20.5 -71q125 1 158 -8
q82 -22 108 -111q15 -52 8 -98q-4 -27 -11 -49zM702 231q0 50 -13.5 78.5t-46 49.5t-98.5 21h-172q-76 0 -111 -24q-59 -40 -56 -118q4 -103 81 -154q54 -36 165 -36q50 0 101 11q55 12 78 31q72 61 72 141zM128 74q0 -26 24 -26t24 26t-24 26t-24 -26zM779 74q0 26 -24 26
t-24 -26t24 -26t24 26z" />
    <glyph glyph-name="v_iluu" unicode="&#xd90;" horiz-adv-x="500" 
d="M279 246l45 168h-106l-45 -168h106zM8 246h106l47 169h-107l8 36h107l58 210h60l-58 -210h105l57 210h59l-58 -210h107l-10 -36h-106l-45 -169h106l-10 -37h-105l-57 -209h-61l59 209h-106l-57 -209h-59l57 209h-105z" />
    <glyph glyph-name="v_e" unicode="&#xd91;" horiz-adv-x="606" 
d="M305 556q30 -15 60 -15q69 0 96 63q-30 43 -108 67q-63 19 -111 17q-2 -30 11 -67q18 -48 52 -65zM309 459q34 -48 26 -123h-137q-56 0 -96.5 -43t-35.5 -98q5 -63 37 -95t86 -45q42 -10 103 -8q113 3 176 61q80 72 74 240q-2 59 -18 127q-15 61 -31 88q-9 -27 -51 -48.5
t-82 -21.5q-74 0 -130 62q-37 40 -44 133q-12 2 -49 2v45q72 6 135 -1q136 -15 202 -70q103 -86 119 -292q2 -22 2 -44q0 -175 -89 -261q-72 -70 -225 -70q-143 0 -209 57q-54 46 -59 130q-2 32 5 65q4 21 23.5 47t44.5 39h-96v47h290q2 37 -30.5 70t-72.5 33
q-48 0 -76.5 -21.5t-28.5 -57.5q0 -9 2 -18h-51q-2 11 -2 22q0 35 19 63q14 21 44 38.5t87 17.5q41 0 72 -13q35 -13 66 -57z" />
    <glyph glyph-name="v_ee" unicode="&#xd92;" horiz-adv-x="606" 
d="M511 626v168h53v-270q31 -90 31 -196q0 -175 -89 -261q-72 -70 -225 -70q-143 0 -209 57q-54 46 -59 130q-2 32 5 65q4 21 23.5 47t44.5 39h-96v47h290q2 37 -30.5 70t-72.5 33q-48 0 -76.5 -21.5t-28.5 -57.5q0 -9 2 -18h-51q-2 11 -2 22q0 35 19 63q14 21 44 38.5
t87 17.5q41 0 72 -13q35 -13 66 -57q34 -48 26 -123h-137q-56 0 -96.5 -43t-35.5 -98q5 -63 37 -95t86 -45q42 -10 103 -8q113 3 176 61q80 72 74 240q-2 59 -18 127q-15 61 -31 88q-9 -27 -51 -48.5t-82 -21.5q-74 0 -130 62q-37 40 -44 133q-12 2 -49 2v45q72 6 135 -1
q136 -15 202 -70q20 -17 37 -38zM305 556q30 -15 60 -15q69 0 96 63q-30 43 -108 67q-63 19 -111 17q-2 -30 11 -67q18 -48 52 -65z" />
    <glyph glyph-name="v_ei" unicode="&#xd93;" horiz-adv-x="500" 
d="M279 246l45 168h-106l-45 -168h106zM8 246h106l47 169h-107l8 36h107l58 210h60l-58 -210h105l57 210h59l-58 -210h107l-10 -36h-106l-45 -169h106l-10 -37h-105l-57 -209h-61l59 209h-106l-57 -209h-59l57 209h-105z" />
    <glyph glyph-name="v_o" unicode="&#xd94;" horiz-adv-x="634" 
d="M70 374q-12 -68 -9 -134q5 -109 50 -163q24 -29 80 -29q30 0 44 12q40 33 40 83v64h52v-59q0 -63 35.5 -82.5t66.5 -16.5q38 4 68.5 34t43.5 73q21 69 21 173q0 28 -2 53q-12 159 -65 232q-39 54 -102 73q-44 14 -118 13q-68 -1 -122 -31q-60 -34 -72 -89h-51
q14 61 50.5 96.5t105.5 56.5q39 12 108 12q105 0 154 -27t77 -61q32 -38 55 -106q28 -81 31 -179q4 -122 -14 -196q-21 -84 -54 -124q-45 -54 -127 -55q-91 -1 -116 69q-10 -38 -52 -57q-35 -16 -78 -12q-102 10 -138 110q-23 65 -23 157q0 51 7 99q18 114 94 156
q37 20 84 20q44 0 67 -16q27 -19 27 -58q0 -16 -5 -30q-2 -5 -18 -21.5t-19 -32.5q-1 -7 -1 -14q0 -24 16 -41q13 -15 31 -17q43 -6 68 23q21 25 21 68t-15.5 65t-46.5 22q-11 0 -24 -3v44q21 6 40 6q38 0 60 -23q31 -32 37 -93q1 -13 1 -25q0 -63 -41 -101q-32 -29 -90 -29
q-50 0 -75 19q-36 28 -36 80q0 22 7 42q3 10 24 32q17 18 15 30q-4 25 -51 25q-23 0 -38 -7q-63 -29 -78 -110z" />
    <glyph glyph-name="v_oo" unicode="&#xd95;" horiz-adv-x="634" 
d="M541 156q21 70 21 172q0 28 -2 54q-9 107 -77 163q-46 38 -169 38h-275v45h54q-12 12 -23.5 25t-8.5 37q10 88 245 84q100 -2 148 -14q74 -18 106 -68q22 -35 22 -90h-50q8 57 -46 91q-35 21 -82.5 28.5t-118.5 7.5q-72 -1 -114 -9q-22 -4 -37 -17q-18 -13 -18 -30
q0 -21 30 -41h174q108 0 167 -28q44 -21 76 -68q42 -61 48 -164q7 -111 -14 -195.5t-54 -124.5q-45 -54 -127 -55q-91 -1 -116 69q-10 -38 -52 -57q-35 -16 -78 -12q-102 10 -138 110q-23 65 -23 157q0 51 7 99q18 114 94 156q37 20 84 20q44 0 67 -16q27 -19 27 -58
q0 -16 -5 -30q-2 -5 -18 -21.5t-19 -32.5q-1 -7 -1 -14q0 -24 16 -41q13 -15 31 -17q43 -6 68 23q21 25 21 68t-15.5 65t-46.5 22q-11 0 -24 -3v44q21 6 40 6q38 0 60 -23q31 -32 37 -93q1 -13 1 -25q0 -63 -41 -101q-32 -29 -90 -29q-50 0 -75 19q-36 28 -36 80q0 22 7 42
q3 10 24 32q17 18 15 30q-4 25 -51 25q-23 0 -38 -7q-63 -29 -78 -110q-12 -68 -9 -134q5 -109 50 -163q24 -29 80 -29q30 0 44 12q40 33 40 83v64h52v-59q0 -63 35.5 -82.5t66.5 -16.5q38 4 68.5 34t43.5 73z" />
    <glyph glyph-name="v_ou" unicode="&#xd96;" horiz-adv-x="500" 
d="M279 246l45 168h-106l-45 -168h106zM8 246h106l47 169h-107l8 36h107l58 210h60l-58 -210h105l57 210h59l-58 -210h107l-10 -36h-106l-45 -169h106l-10 -37h-105l-57 -209h-61l59 209h-106l-57 -209h-59l57 209h-105z" />
    <glyph glyph-name="ka" unicode="&#xd9a;" horiz-adv-x="712" 
d="M365 51q41 -5 66 36.5t25 122.5q0 27 -3 57q-14 148 -117 183q-24 8 -74 8q-40 -33 -191 -175h61q-19 -17 -39 -55q-22 -42 -24 -73q-5 -98 81 -106q34 -3 64.5 25.5t30.5 68.5v88h51v-88q0 -36 21 -62.5t48 -29.5zM586 74q29 23 47 83t18 123q0 30 -4 55
q-18 101 -72 160q-40 43 -127 43q-32 0 -65 -7q-27 -6 -74 -34q68 5 124.5 -50t71.5 -169q4 -30 4 -62q0 -86 -25 -146q-13 -31 -50 -55q-24 -15 -70 -15q-37 0 -59 12q-29 16 -38 44q-8 -22 -34 -38q-32 -19 -74 -19q-94 0 -125 62q-16 33 -16 83q0 62 29 96h-38v48
q32 32 107 100q52 50 120 113q-3 14 -24 26.5t-47 12.5q-25 0 -46 -13q-42 -24 -42 -83q0 -18 5 -35h-51q-7 25 -6 53q3 56 41.5 89.5t99.5 33.5q47 0 75 -17q24 -15 38 -34q38 27 74 38q44 13 92 13q181 0 235 -159q22 -66 22 -149q0 -38 -4 -71q-18 -133 -98 -185
q-38 -24 -108 -23v51q54 -8 94 25z" />
    <glyph glyph-name="kha" unicode="&#xd9b;" horiz-adv-x="628" 
d="M195 146q12 80 64 124q15 13 65 42q33 18 40.5 40.5t7.5 45.5q0 55 -39.5 91.5t-98.5 34.5q-160 -5 -171 -249q-2 -49 10 -102q13 -56 34 -81q29 -34 66 -40v-51q-28 -5 -66 18q-52 31 -76 99q-26 75 -18 192q7 99 44 163t103 87q35 12 76 12q77 0 125 -39
q58 -47 60 -132q1 -60 -25 -95q-14 -19 -67 -50q-34 -20 -44 -29q-20 -18 -31 -49t-7 -49q14 13 44 13q21 0 31 -6q15 -8 40.5 -39t46.5 -41q12 -5 24 -5q33 0 63.5 37.5t44.5 94.5q17 68 17 158q0 27 -2 51q-13 143 -55 209q-68 107 -224 98q-163 -9 -196 -119h-52
q13 64 59 103q41 35 98 51q40 11 106 11q106 0 155.5 -27t78.5 -62q32 -39 55 -106q28 -83 30 -178q2 -123 -16 -192q-27 -100 -63.5 -141t-95.5 -41q-14 0 -30 2q-33 5 -72 49q-37 40 -54 39q-32 -3 -32 -42q0 -10 6 -45h-51q-6 20 -9 70q-3 51 1 75z" />
    <glyph glyph-name="ga" unicode="&#xd9c;" horiz-adv-x="714" 
d="M273 538q-15 2 -30 2q-92 0 -132 -56q-43 -59 -48 -162q-3 -55 8 -113q14 -71 42 -107q43 -55 135 -55q50 0 90 34q55 47 51 143q-2 44 -21.5 71t-46.5 27q-7 0 -15 -2q-15 -5 -23 -31q-10 -31 -16 -37h-45q13 20 13 54q0 123 44 192q60 94 197 86q88 -5 136 -50
q84 -78 84 -242q0 -96 -19 -150q-23 -66 -73.5 -104.5t-159.5 -38.5v49q92 0 138 39q66 56 64 226q-1 63 -25.5 120t-60.5 79q-41 25 -102 25q-88 0 -126 -46q-15 -18 -28 -57q-15 -43 -13 -73q10 7 29 7q48 0 74 -25q42 -40 45 -102q8 -157 -86 -213q-52 -31 -134 -29
q-87 2 -138 59q-38 43 -53 108q-18 80 -15 139q3 66 9 97q16 74 61 126q53 62 190 56v-46z" />
    <glyph glyph-name="gha" unicode="&#xd9d;" horiz-adv-x="625" 
d="M443 -1q-75 -6 -113 40q-23 27 -16 80q6 43 34 58l32 16q12 7 12 15q-2 33 -85 33q-76 0 -80 -29q-2 -12 7 -20q6 -5 30 -18q28 -15 35 -56q10 -57 -12 -83q-34 -38 -102 -37zM365 107q-2 -24 9 -38q16 -22 59 -20q62 3 97 43q41 46 38 132q-3 79 -40 117q-15 15 -55 31
q-18 7 -92 7h-131q-100 0 -137 -26q-55 -39 -56 -132q-1 -73 28 -119q33 -53 98 -53q66 0 66 47q0 25 -18 40q-2 2 -39 24q-21 12 -21 45q0 26 15 42q35 38 128 36q94 -2 125 -43q9 -12 9 -29q0 -29 -19.5 -41.5t-40.5 -23.5q-21 -15 -23 -39zM185 -2q-146 3 -174 149
q-4 23 -4 54q0 74 16 112q23 54 47 66h-76v44h285q1 40 -22 76q-28 44 -76 41q-103 -7 -97 -111h-47q-2 10 -2 22q0 56 42.5 98.5t122.5 35.5q88 -8 110 -82q6 27 33 50q22 19 46 26q21 6 50 6q44 0 76 -15q27 -13 45.5 -46t18.5 -71q0 -12 -2 -24h-47q2 9 2 20q0 34 -21 60
q-24 30 -65 30q-48 0 -76 -28q-35 -35 -33 -88q125 1 158 -8q87 -24 111 -109q12 -42 12 -95q0 -47 -10 -80q-36 -122 -165 -132z" />
    <glyph glyph-name="knaasi" unicode="&#xd9e;" horiz-adv-x="806" 
d="M202 303q23 74 117 94q18 4 58 6q49 2 63 3q34 4 34 27q0 30 -41 53q-19 11 -61 18q-36 7 -59 6q-108 -3 -162 -37q-84 -53 -86 -147q19 20 60 20q63 0 77 -43zM194 170q-28 -30 -73 -30q-36 0 -59 18q-48 38 -48 142q0 61 13 98q20 58 75 100q73 56 208 56q69 0 125 -18
q39 -12 64 -39q28 -30 28 -70q0 -37 -34 -54q-28 -14 -70 -16q-29 0 -57 -1q-37 -1 -56 -10q-67 -32 -69 -105q-5 -145 73 -183q17 -8 39 -8q28 0 52.5 11t33.5 27q19 35 19 77v69h53v-65q0 -65 25 -92t66 -27q44 0 78 41q27 33 41 82q19 66 19 154t-24 180q-15 59 -37 94
q-34 54 -90 78t-139 22q-78 -2 -132 -39q-50 -34 -58 -82h-52q14 61 50.5 96.5t105.5 56.5q39 12 108 12q105 0 154 -27t77 -62q32 -38 55 -106q24 -71 31 -178q7 -111 -14 -195.5t-54 -124.5q-45 -54 -127 -55t-112 68q-9 -32 -56.5 -53t-87.5 -15q-123 17 -144 173z
M81 275q-9 -13 -9 -29q0 -26 21 -41q13 -9 29 -9q28 0 42 22q8 13 8 28q0 26 -21 41q-13 9 -29 9q-26 0 -41 -21z" />
    <glyph glyph-name="nga" unicode="&#xd9f;" horiz-adv-x="830" 
d="M219 539q-81 -9 -122 -87q-33 -63 -33 -152q0 -93 27 -187q26 -90 56 -109h-56q-34 33 -58 126q-21 83 -21 152q0 212 112 278q40 24 181 24h93v-46q-15 2 -30 2q-92 0 -132 -56q-43 -59 -48 -162q-3 -55 8 -113q14 -71 42 -107q43 -55 135 -55q50 0 90 34q55 47 51 143
q-2 44 -21.5 71t-46.5 27q-7 0 -15 -2q-15 -5 -23 -31q-10 -31 -16 -37h-45q13 20 13 54q0 123 44 192q60 94 197 86q88 -5 136 -50q84 -78 84 -242q0 -96 -19 -150q-23 -66 -73.5 -104.5t-159.5 -38.5v49q92 0 138 39q66 56 64 226q-1 63 -25.5 120t-60.5 79
q-41 25 -102 25q-88 0 -126 -46q-15 -18 -28 -57q-15 -43 -13 -73q10 7 29 7q48 0 74 -25q42 -40 45 -102q8 -157 -86 -213q-52 -31 -134 -29q-87 2 -138 59q-38 43 -53 108q-18 80 -15 139q3 66 10 96q15 75 60 127q7 8 11 11z" />
    <glyph glyph-name="cha" unicode="&#xda0;" horiz-adv-x="606" 
d="M32 415q-1 22 5 42q18 53 69 79q32 16 88 16q66 0 102 -29t51 -96q3 -14 3 -62h-128q-156 0 -164 -128q-4 -58 21 -103.5t71.5 -65.5t147.5 -20q67 0 123 28q60 29 84 79q47 97 42 220q-7 182 -80 257q-59 61 -168 62q-86 1 -139 -26q-75 -39 -92 -105h-46q15 97 110 143
q63 30 148 32q112 2 172 -32t96 -106q39 -77 46 -202q8 -140 -37 -249q-37 -90 -137 -131q-45 -19 -149 -19q-73 0 -106 10q-56 16 -92 48q-65 58 -65 171q0 97 72 138h-87v43h305q-1 37 -24 66q-17 21 -33.5 27.5t-46.5 6.5q-36 0 -60.5 -10.5t-41 -34.5t-14.5 -49h-46z
" />
    <glyph glyph-name="Ja" unicode="&#xda1;" 
d="M279 379h-50q-76 0 -111 -24q-59 -40 -56 -118q4 -103 81 -154q54 -36 165 -36q50 0 101 11q55 12 78 31q72 61 72 141q0 55 -17 85q-19 -39 -54 -57q-42 -22 -82 -22q-24 0 -47 9q-58 21 -76 93q-4 16 -4 41zM570 366q23 -26 33 -62q15 -53 8 -98q-10 -64 -37 -104.5
t-79 -72.5q-55 -34 -185 -34q-119 0 -179 32q-103 55 -118 172q-6 43 2 87q11 66 66 105q23 16 53 24q37 10 147 8q1 45 -24 79t-62 36q-46 3 -79 -26q-36 -31 -30 -83h-49q-2 10 -2 22q0 56 42.5 98.5t127.5 35.5q74 -6 106 -68q27 51 77 63q8 2 13 2q49 18 62 25
q34 18 49 43q9 17 19 35q13 22 29 26h67q-42 -21 -59.5 -66t-70.5 -67q87 -29 86 -147q0 -25 -13 -65zM526 395q5 20 5 40q0 44 -23 75t-63 31q-54 0 -90 -50q-19 -27 -24 -68q107 2 139 -7q20 -5 56 -21zM329 379q5 -60 43 -85q16 -10 35 -10q28 0 56 18.5t45 46.5
q-23 16 -58 23q-43 9 -121 7z" />
    <glyph glyph-name="ja" unicode="&#xda2;" 
d="M559 230q0 50 -13.5 78.5t-46 49.5t-98.5 21h-172q-76 0 -111 -24q-59 -40 -56 -118q4 -103 81 -154q54 -36 165 -36q50 0 101 11q55 12 78 31q72 61 72 141zM401 582q49 18 62 25q34 18 49 43q9 17 19 35q13 22 29 26h67q-42 -21 -59.5 -66t-70.5 -67q12 -4 18 -7
q27 -14 45.5 -47t18.5 -71q0 -12 -2 -24h-50q8 108 -88 108q-11 0 -22 -2q-36 -5 -59.5 -41t-20.5 -71q125 1 158 -8q82 -22 108 -111q15 -52 8 -98q-10 -64 -37 -104.5t-79 -72.5q-55 -34 -185 -34q-119 0 -179 32q-103 55 -118 172q-6 43 2 87q11 66 66 105q23 16 53 24
q37 10 147 8q1 45 -24 79t-62 36q-46 3 -79 -26q-36 -31 -30 -83h-49q-2 10 -2 22q0 56 42.5 98.5t127.5 35.5q74 -6 106 -68q27 51 77 63q8 2 13 2z" />
    <glyph glyph-name="kdha" unicode="&#xda3;" horiz-adv-x="1128" 
d="M365 51q41 -5 66 36.5t25 122.5q0 27 -3 57q-14 148 -117 183q-24 8 -74 8q-40 -33 -191 -175h61q-19 -17 -39 -55q-22 -42 -24 -73q-5 -98 81 -106q34 -3 64.5 25.5t30.5 68.5v88h51v-88q0 -36 21 -62.5t48 -29.5zM751 473q6 41 -205 58q-85 7 -153 -8q-64 -14 -84 -26
q68 5 124.5 -50t71.5 -169q4 -30 4 -62q0 -86 -25 -146q-13 -31 -50 -55q-24 -15 -70 -15q-37 0 -59 12q-29 16 -38 44q-8 -22 -34 -38q-32 -19 -74 -19q-94 0 -125 62q-16 33 -16 83q0 62 29 96h-38v48q32 32 107 100q52 50 120 113q-3 14 -24 26.5t-47 12.5q-25 0 -46 -13
q-42 -24 -42 -83q0 -18 5 -35h-51q-7 25 -6 53q3 56 41.5 89.5t99.5 33.5q47 0 75 -17q24 -15 38 -34q20 14 80 32q37 11 122 11q153 0 248 -30q60 -19 72 -56q8 -24 2 -41q-12 -36 -78 -41q-84 -7 -103 -18q-58 -34 -58 -150q0 -60 17 -109q20 -56 56 -74q17 -8 39 -8
q28 0 52.5 11t33.5 27q19 35 19 77v69h53v-65q0 -65 25 -92t66 -27q44 0 78 41q27 33 41 82q19 66 19 154t-24 180q-15 59 -37 94q-34 54 -90 78t-139 22q-77 -2 -129 -34q-47 -30 -55 -72h-58q14 55 51 87q34 29 105 51q39 12 108 12q105 0 154 -27t77 -62q32 -38 55 -106
q24 -71 31 -178q7 -111 -14 -195.5t-54 -124.5q-45 -54 -127 -55t-112 68q-9 -32 -53.5 -52.5t-84.5 -15.5q-65 9 -99 47q-41 45 -51 141q-10 90 9 162q15 58 72 86q13 7 89 16q62 8 64 24z" />
    <glyph glyph-name="kna" unicode="&#xda4;" horiz-adv-x="1142" 
d="M497 51q41 -5 66 36.5t25 122.5q0 27 -3 57q-14 148 -117 183q-24 8 -74 8q-40 -33 -191 -175h61q-19 -17 -39 -55q-22 -42 -24 -73q-5 -98 81 -106q34 -3 64.5 25.5t30.5 68.5v88h51v-88q0 -36 21 -62.5t48 -29.5zM676 454q-10 55 -43 70t-57 15q-23 0 -61 -8
q-27 -6 -74 -34q68 5 124.5 -50t71.5 -169q4 -30 4 -62q0 -86 -25 -146q-13 -31 -50 -55q-24 -15 -70 -15q-37 0 -59 12q-29 16 -38 44q-8 -22 -34 -38q-32 -19 -74 -19q-94 0 -125 62q-16 33 -16 83q0 62 29 96h-38v48q32 32 107 100q52 50 120 113q-3 14 -24 26.5
t-47 12.5q-25 0 -46 -13q-42 -24 -42 -83q0 -18 5 -35h-51q-7 25 -6 53q2 39 22 67q-61 -24 -91 -95q-24 -58 -24 -134q0 -93 27 -187q26 -90 56 -109h-56q-34 33 -58 126q-21 83 -21 152q0 211 112 278q39 23 108 23q16 0 31 -1q17 3 35 3q47 0 75 -17q24 -15 38 -34
q38 27 74 38q44 13 92 13q92 0 127 -66q3 4 10 13q47 53 180 53q116 0 160 -61q23 -32 29 -67q3 -16 4 -65h-245q-53 0 -94 -42q-45 -47 -47 -125q-2 -116 78 -157q39 -20 128 -20q46 0 95 5q68 7 105 29v-55q-43 -22 -176 -28q-18 -21 -18 -48q0 -30 24 -50q27 -23 79 -24
q87 -2 121 44q11 15 11 46q0 18 -6 27h54q5 -19 5 -38q0 -58 -38 -88q-42 -33 -121 -39q-15 -1 -29 -1q-91 0 -130 43q-26 28 -26 77q0 31 15 51q-88 5 -133 31q-76 44 -88 147q-2 20 -2 39q0 91 40 144t103 68q27 7 89 7h149q0 55 -45 83q-37 23 -92 23q-153 0 -168 -102
h-50q0 10 1 15z" />
    <glyph glyph-name="gna" unicode="&#xda5;" horiz-adv-x="1052" 
d="M674 564q44 21 138 21q116 0 160 -61q23 -32 29 -67q3 -16 4 -65h-245q-53 0 -94 -42q-45 -47 -47 -125q-2 -116 78 -157q39 -20 128 -20q46 0 95 5q68 7 105 29v-55q-43 -22 -176 -28q-18 -21 -18 -48q0 -30 24 -50q27 -23 79 -24q87 -2 121 44q11 15 11 46q0 18 -6 27
h54q5 -19 5 -38q0 -58 -38 -88q-42 -33 -121 -39q-15 -1 -29 -1q-91 0 -130 43q-26 28 -26 77q0 31 15 51q-88 5 -133 31q-76 44 -88 147q-2 20 -2 39q0 91 40 144t103 68q27 7 89 7h149q0 55 -45 83q-37 23 -92 23q-153 0 -168 -102h-50q-2 44 38 92q-25 8 -54 8
q-81 0 -120 -48q-15 -18 -28 -57q-15 -43 -13 -73q10 7 29 7q48 0 74 -25q42 -40 45 -102q8 -157 -86 -213q-52 -31 -134 -29q-87 2 -138 59q-38 43 -53 108q-18 80 -15 139q3 66 10 96q15 75 60 127q7 8 11 11q-81 -9 -122 -87q-33 -63 -33 -152q0 -93 27 -187
q26 -90 56 -109h-56q-34 33 -58 126q-21 83 -21 152q0 212 112 278q40 24 181 24h93v-46q-15 2 -30 2q-92 0 -132 -56q-43 -59 -48 -162q-3 -55 8 -113q14 -71 42 -107q43 -55 135 -55q50 0 90 34q55 47 51 143q-2 44 -21.5 71t-46.5 27q-7 0 -15 -2q-15 -5 -23 -31
q-10 -31 -16 -37h-45q13 20 13 54q0 123 44 192q60 95 197 86q42 -3 73 -20z" />
    <glyph glyph-name="nja" unicode="&#xda6;" 
d="M559 230q0 50 -13.5 78.5t-46 49.5t-98.5 21h-172q-76 0 -111 -24q-59 -40 -56 -118q4 -103 81 -154q54 -36 165 -36q50 0 101 11q55 12 78 31q72 61 72 141zM401 582q49 18 62 25q34 18 49 43q9 17 19 35q13 22 29 26h67q-42 -21 -59.5 -66t-70.5 -67q12 -4 18 -7
q27 -14 45.5 -47t18.5 -71q0 -12 -2 -24h-50q8 108 -88 108q-11 0 -22 -2q-36 -5 -59.5 -41t-20.5 -71q125 1 158 -8q82 -22 108 -111q15 -52 8 -98q-10 -64 -37 -104.5t-79 -72.5q-55 -34 -185 -34q-119 0 -179 32q-103 55 -118 172q-6 43 2 87q11 66 66 105q23 16 53 24
q37 10 147 8q1 45 -24 79t-62 36q-46 3 -79 -26q-36 -31 -30 -83h-49q-2 10 -2 22q0 56 42.5 98.5t127.5 35.5q74 -6 106 -68q27 51 77 63q8 2 13 2z" />
    <glyph glyph-name="ta" unicode="&#xda7;" horiz-adv-x="606" 
d="M15 234q-16 144 41 223q62 86 174 86h82v-43q-77 0 -105 -4q-48 -8 -84 -37q-64 -51 -64 -165q0 -54 15 -107q21 -77 87 -115q48 -28 143 -26q90 2 141 39q55 40 81 119q12 35 17 104q4 60 2 95q-11 150 -76 229q-27 33 -85 50q-45 13 -94 13q-80 0 -128 -24
q-79 -39 -90 -108q-25 -1 -50 0q15 97 110 143q63 30 148 32q112 2 172 -32q57 -32 96 -105.5t46 -202.5q8 -144 -36 -251q-41 -99 -137 -134q-44 -16 -132 -16q-89 0 -126 17q-130 59 -148 220z" />
    <glyph glyph-name="Ta" unicode="&#xda8;" 
d="M509 567q-9 -27 -51 -48.5t-82 -21.5q-74 0 -130 62q-37 40 -44 133q-12 2 -49 2v45q72 6 135 -1q136 -15 202 -70q70 -58 100 -168q17 -62 21 -128q7 -111 -14 -195.5t-54 -124.5q-45 -54 -127 -55t-112 68q-9 -32 -53.5 -52t-84.5 -16q-132 13 -152 179q-10 79 6 154
q10 48 40 89q60 82 170 82h82v-43q-82 0 -102 -3q-47 -6 -80 -33q-69 -57 -69 -188q0 -59 18 -106q20 -52 57 -70q19 -9 42 -9q59 0 83 39q19 31 19 77v69h53v-65q0 -65 25 -92t66 -27q84 0 118 122q20 70 20 156q0 56 -14 125q-16 79 -39 114zM321 560q30 -15 60 -15
q69 0 96 63q-30 43 -108 67q-63 19 -111 17q-2 -30 11 -67q18 -48 52 -65z" />
    <glyph glyph-name="Da" unicode="&#xda9;" 
d="M65 242q-2 -18 -2 -34q0 -62 25 -106q30 -53 87 -53q27 0 52 11.5t34 27.5q19 35 19 77v69h53v-65q0 -65 25 -92t66 -27q44 0 78 41q27 33 41 82q19 66 19 154t-24 180q-15 59 -37 94q-34 54 -90 78t-139 22q-78 -2 -132 -39q-50 -34 -58 -82h-52q14 61 50.5 96.5
t105.5 56.5q39 12 108 12q105 0 154 -27t77 -62q32 -38 55 -106q24 -71 31 -178q7 -111 -14 -195.5t-54 -124.5q-45 -54 -127 -55t-112 68q-9 -32 -51.5 -52t-82.5 -16q-152 15 -160 192q-5 120 67 170h-84v48h308q-1 53 -40 84q-21 17 -67 17q-36 0 -54 -9q-61 -29 -57 -88
h-52q-2 23 6 46q18 53 69 79q32 16 90 16q66 0 103.5 -29t52.5 -96q1 -3 5 -69h-138q-63 0 -91 -17q-56 -34 -63 -99z" />
    <glyph glyph-name="Dha" unicode="&#xdaa;" 
d="M321 560q30 -15 60 -15q69 0 96 63q-30 43 -108 67q-63 19 -111 17q-2 -30 11 -67q18 -48 52 -65zM509 567q-9 -27 -51 -48.5t-82 -21.5q-74 0 -130 62q-37 40 -44 133q-12 2 -49 2v45q72 6 135 -1q136 -15 202 -70q108 -90 119 -292q7 -124 -12 -200q-21 -84 -54 -124
q-45 -54 -127 -55t-112 68q-9 -32 -51.5 -52t-82.5 -16q-156 16 -160 192q-2 108 67 146h-84v48h308q-1 53 -40 84q-21 17 -67 17q-36 0 -54 -9q-61 -29 -57 -88h-52q-2 23 6 46q18 53 69 79q32 16 90 16q66 0 103.5 -29t52.5 -96q1 -3 5 -69h-135q-66 0 -94 -17
q-48 -29 -58 -76q-5 -25 -5 -50q0 -55 27 -96q30 -46 83 -46q27 0 52 11.5t34 27.5q19 35 19 77v69h53v-65q0 -65 25 -92t66 -27q44 0 78 41q27 33 41 82q18 65 18 160q0 56 -13 122q-15 76 -39 112z" />
    <glyph glyph-name="Na" unicode="&#xdab;" horiz-adv-x="884" 
d="M620 538q25 48 97 48q79 0 110 -61q40 -80 38 -238q-2 -138 -34 -205q-27 -57 -86 -77q-20 -7 -57 -7q-62 0 -93 23q-36 27 -50 67q-11 31 -11 91h49q0 -55 18 -90q9 -18 38 -31t59 -10q69 7 96 74q24 59 23 193q-1 230 -108 225q-44 -2 -61 -40q-7 -16 -7 -156h-46
q0 131 -10 162q-4 12 -17.5 23t-28.5 11q-47 0 -53 -53q11 -16 25 -65.5t15.5 -77t1.5 -50.5q0 -145 -61 -222q-52 -65 -157 -73q-141 -10 -214 79q-10 12 -25 12q-25 0 -57 -32v61l73 105q-23 16 -38 57.5t-15 89.5t16 88q50 126 209 126q70 0 86 -9l88 109h52l-94 -119
q41 -14 61 -40q20 65 101 60q52 -3 67 -48zM313 534q-27 7 -56 7q-109 0 -154 -81q-21 -38 -21 -87q0 -76 36 -104zM243 360q-8 -13 -8 -28q0 -29 23 -43q13 -8 27 -8q29 0 44 24q8 13 8 27q0 22 -14.5 36.5t-35.5 14.5q-29 0 -44 -23zM380 359q5 -19 5 -43q0 -38 -11.5 -70
t-42.5 -55q-27 -21 -57 -26q-21 -4 -41 -4q-50 0 -110 33l-41 -60q5 1 10 1q28 0 59 -34q50 -55 138 -52q113 4 154 78q37 68 35 176q-2 92 -32.5 149t-82.5 71l-68 -92q66 -3 85 -72zM194 296l-44 -59q8 -11 41 -21.5t58 -6.5q48 7 65 35q-19 -7 -39 -7q-27 0 -50 14
t-31 45z" />
    <glyph glyph-name="nDa" unicode="&#xdac;" horiz-adv-x="753" 
d="M198 508q-134 -25 -134 -209q0 -93 26.5 -184.5t56.5 -110.5h-56q-34 33 -58 126q-21 83 -21 152q0 183 112 249q39 23 108 23q28 0 53 -4q68 8 108 -6q69 -24 89 -117q1 -3 5 -69h-138q-63 0 -91 -17q-56 -34 -63 -99q-2 -18 -2 -34q0 -62 25 -106q30 -53 87 -53
q27 0 52 11.5t34 27.5q19 35 19 77v69h53v-65q0 -65 25 -92t66 -27q44 0 78 41q27 33 41 82q19 66 19 154t-24 180q-15 59 -37 94q-34 54 -90 78t-139 22q-78 -2 -132 -39q-50 -34 -58 -82h-52q14 61 50.5 96.5t105.5 56.5q39 12 108 12q105 0 154 -27t77 -62
q32 -38 55 -106q24 -71 31 -178q7 -111 -14 -195.5t-54 -124.5q-45 -54 -127 -55t-112 68q-9 -32 -51.5 -52t-82.5 -16q-152 15 -160 192q-5 120 67 170h-84v48h308q-1 53 -40 84q-21 17 -67 17q-36 0 -54 -9q-61 -29 -57 -88h-52q-2 23 6 46q10 30 31 51z" />
    <glyph glyph-name="tha" unicode="&#xdad;" horiz-adv-x="718" 
d="M252 438l-180 -185h53q-24 -49 -24 -89q0 -54 41.5 -84.5t109.5 -30.5q65 0 113 39q56 45 62 125q1 17 1 32q0 98 -48 150q-42 45 -105 45q-11 0 -23 -2zM88 406h-52q-9 52 0 85q12 42 39 64q40 33 91 30q83 -4 110 -57q16 14 58 36q36 19 92 22q76 5 119 -14
q61 -27 93 -67q19 -25 43 -83q21 -51 21 -146q0 -109 -41 -181q-33 -57 -87 -78q-41 -16 -120 -17v49q57 0 85 10q64 23 90 86q18 45 21 127q3 72 -17 129q-23 66 -64.5 102t-132.5 36q-33 0 -54 -7q-41 -13 -82 -48q30 3 78 -20q26 -12 51 -44q23 -27 32 -50
q22 -56 22 -130q0 -23 -2 -45q-8 -75 -52 -126q-63 -74 -174 -72q-103 1 -163 51q-50 41 -50 111q0 27 12 46h-43v53l223 234q-8 45 -70 47q-36 1 -59 -29.5t-23 -68.5q0 -18 6 -35z" />
    <glyph glyph-name="Tha" unicode="&#xdae;" horiz-adv-x="606" 
d="M305 556q30 -15 60 -15q69 0 96 63q-30 43 -108 67q-63 19 -111 17q-2 -30 11 -67q18 -48 52 -65zM118 103q29 -30 79 -45q41 -13 95 -11q118 3 176 57q41 38 60 108q16 61 14 136q-2 59 -18 127q-15 61 -31 88q-9 -27 -51 -48.5t-82 -21.5q-74 0 -130 62q-37 40 -44 133
q-12 2 -49 2v45q72 6 135 -1q136 -15 202 -70q103 -86 119 -292q7 -91 -13 -171q-21 -85 -75 -137q-69 -67 -224 -67q-123 0 -194 61q-53 46 -68 126q-15 78 0 149q10 48 40 84q65 78 171 78h82v-43q-80 0 -103 -3q-47 -7 -80 -33q-46 -37 -60 -91q-9 -34 -6 -91
q2 -38 21 -79q16 -33 34 -52z" />
    <glyph glyph-name="da" unicode="&#xdaf;" horiz-adv-x="493" 
d="M85 439h-50q-2 47 39 93q46 53 180 53q116 0 160 -61q23 -32 29 -67q3 -16 4 -65h-245q-53 0 -94 -42q-45 -47 -47 -125q-2 -116 78 -157q39 -20 128 -20q46 0 95 5q68 7 105 29v-55q-43 -22 -176 -28q-18 -21 -18 -48q0 -30 24 -50q27 -23 79 -24q87 -2 121 44
q11 15 11 46q0 18 -6 27h54q5 -19 5 -38q0 -58 -38 -88q-42 -33 -121 -39q-15 -1 -29 -1q-91 0 -130 43q-26 28 -26 77q0 31 15 51q-88 5 -133 31q-76 44 -88 147q-2 20 -2 39q0 91 40 144t103 68q27 7 89 7h149q0 55 -45 83q-37 23 -92 23q-153 0 -168 -102z" />
    <glyph glyph-name="dha" unicode="&#xdb0;" 
d="M21 359q11 60 40 100q61 84 169 84h82v-43q-80 0 -100 -3q-44 -7 -79 -36q-70 -58 -70 -220q0 -60 17 -109q20 -56 56 -74q17 -8 39 -8q28 0 52.5 11t33.5 27q19 35 19 77v69h53v-65q0 -65 25 -92t66 -27q44 0 78 41q27 33 41 82q19 66 19 154t-24 180q-15 59 -37 94
q-34 54 -90 78t-139 22q-78 -2 -132 -39q-50 -34 -58 -82h-52q14 61 50.5 96.5t105.5 56.5q39 12 108 12q105 0 154 -27t77 -62q32 -38 55 -106q24 -71 31 -178q7 -111 -14 -195.5t-54 -124.5q-45 -54 -127 -55t-112 68q-9 -32 -53.5 -52.5t-84.5 -15.5q-65 9 -99 47
q-41 45 -51 141q-10 92 5 174z" />
    <glyph glyph-name="na" unicode="&#xdb1;" horiz-adv-x="712" 
d="M416 241q-4 76 -48 116q-39 34 -93 29q-31 -60 -91 -87q-26 -12 -64 -12q-41 0 -58 19q-7 -81 15 -148q16 -50 61 -81t109 -31q67 0 114 42q60 53 55 153zM86 421h-51q-2 71 29 114q35 49 108 49q62 0 92 -35q15 -18 20 -42q20 28 49 49q44 32 118 30q67 -1 107 -22
q60 -31 99 -111q31 -64 33 -150q1 -70 -16 -135q-37 -138 -152 -163q-32 -7 -80 -4v49q98 0 132 37q26 27 44 82.5t18 116.5q0 24 -3 47q-27 197 -179 206q-45 3 -86 -23q-46 -28 -69 -84q35 1 73 -17t58 -45q40 -55 40 -138q0 -91 -44 -153q-39 -54 -98 -72
q-34 -10 -79 -10q-89 0 -131 27q-28 18 -39 31q-23 23 -43 69q-13 30 -20 87q-7 51 -5 82q1 30 8 83h45q-1 -41 60 -41q18 0 33.5 5t38 25t31.5 37q17 32 17 50q0 27 -15.5 56.5t-58.5 29.5q-22 0 -39 -10t-31 -34q-15 -27 -15 -57q0 -8 1 -16z" />
    <glyph glyph-name="nda" unicode="&#xdb3;" horiz-adv-x="613" 
d="M204 537q-74 -15 -111 -91q-29 -62 -29 -146q0 -94 26.5 -185.5t56.5 -110.5h-56q-34 33 -58 126q-21 83 -21 152q0 211 112 278q39 23 107 23q29 0 57 -5q31 7 92 7q116 0 160 -61q23 -32 29 -67q3 -16 4 -65h-245q-53 0 -94 -42q-45 -47 -47 -125q-2 -116 78 -157
q39 -20 128 -20q46 0 95 5q68 7 105 29v-55q-43 -22 -176 -28q-18 -21 -18 -48q0 -30 24 -50q27 -23 79 -24q87 -2 121 44q11 15 11 46q0 18 -6 27h54q5 -19 5 -38q0 -58 -38 -88q-42 -33 -121 -39q-15 -1 -29 -1q-91 0 -130 43q-26 28 -26 77q0 31 15 51q-88 5 -133 31
q-76 44 -88 147q-2 20 -2 39q0 91 40 144t103 68q27 7 89 7h149q0 55 -45 83q-37 23 -92 23q-153 0 -168 -102h-50q-2 42 39 93q2 2 4 5z" />
    <glyph glyph-name="pa" unicode="&#xdb4;" 
d="M611 206q-10 -64 -37 -104.5t-79 -72.5q-55 -34 -185 -34q-119 0 -179 32q-103 55 -118 172q-6 43 2 87q11 66 66 105q23 16 53 24q37 10 147 8q1 45 -24 79t-62 36q-46 3 -79 -26q-36 -31 -30 -83h-49q-2 10 -2 22q0 56 42.5 98.5t127.5 35.5q74 -6 106 -68q28 51 77 63
q24 6 53 6q44 0 74 -15q27 -14 45.5 -47t18.5 -71q0 -12 -2 -24h-50q8 108 -88 108q-11 0 -22 -2q-36 -5 -59.5 -41t-20.5 -71q125 1 158 -8q82 -22 108 -111q15 -52 8 -98zM559 230q0 50 -13.5 78.5t-46 49.5t-98.5 21h-172q-76 0 -111 -24q-59 -40 -56 -118
q4 -103 81 -154q54 -36 165 -36q50 0 101 11q55 12 78 31q72 61 72 141z" />
    <glyph glyph-name="pha" unicode="&#xdb5;" horiz-adv-x="606" 
d="M305 556q30 -15 60 -15q69 0 96 63q-30 43 -108 67q-63 19 -111 17q-2 -30 11 -67q18 -48 52 -65zM309 459q34 -48 26 -123h-153q-55 0 -88 -42.5t-28 -98.5q5 -63 37 -95t86 -45q42 -10 103 -8q113 3 176 61q80 72 74 240q-2 59 -18 127q-15 61 -31 88q-9 -27 -51 -48.5
t-82 -21.5q-74 0 -130 62q-37 40 -44 133q-12 2 -49 2v45q72 6 135 -1q136 -15 202 -70q103 -86 119 -292q2 -22 2 -44q0 -175 -89 -261q-72 -70 -225 -70q-143 0 -209 57q-54 46 -59 130q-3 41 3 68q11 53 49 88q45 42 133 42h82q2 37 -30.5 70t-72.5 33q-48 0 -76.5 -21.5
t-28.5 -57.5q0 -9 2 -18h-51q-2 11 -2 22q0 35 19 63q14 21 44 38.5t87 17.5q41 0 72 -13q35 -13 66 -57z" />
    <glyph glyph-name="ba" unicode="&#xdb6;" horiz-adv-x="628" 
d="M203 134q-3 16 -3 33q0 79 48 113q22 16 79 36q42 15 46.5 34t4.5 37q0 58 -41 99t-101 39q-166 -6 -174 -250q-2 -49 12 -103t35 -79q36 -42 113 -44v-45q-18 -5 -38 -5q-47 0 -85 28q-44 31 -65 91q-22 64 -22 158q0 18 1 34q15 210 147 250q37 11 77 11q77 0 124 -38
q29 -23 49 -66.5t20 -86.5q0 -47 -25 -79q-15 -20 -80 -36q-33 -8 -53.5 -36t-16.5 -71q11 -110 114 -110q138 0 172 135q17 68 17 158q0 27 -2 51q-13 143 -55 209q-68 107 -224 98q-163 -9 -196 -119h-52q13 64 59 103q41 35 98 51q40 11 106 11q106 0 155.5 -27t78.5 -62
q32 -39 55 -106q28 -83 30 -178q2 -127 -16 -192q-24 -85 -58 -122q-47 -54 -142 -60q-18 -1 -32 -1q-87 0 -129 54q-13 17 -23 51q-8 25 -8 32z" />
    <glyph glyph-name="bha" unicode="&#xdb7;" horiz-adv-x="714" 
d="M272 380q-106 0 -146 -22.5t-53 -61.5q-10 -29 -10 -66q0 -79 40.5 -131t149.5 -52q74 0 114 34q55 47 51 143q-2 44 -21.5 71t-46.5 27q-7 0 -15 -2q-16 -5 -21 -29q-8 -33 -13 -39h-43q4 6 11 54q4 49 9 98q6 58 24 94q25 49 77 72q46 19 98 16q84 -5 135 -52
q84 -78 84 -242q0 -96 -19 -150q-23 -66 -73.5 -104.5t-149.5 -38.5v49q82 0 128 39q66 56 64 226q-1 63 -25.5 120t-60.5 79q-46 29 -101 29q-69 0 -104 -46q-14 -18 -26 -60.5t-10 -73.5q10 7 30 7q48 0 74 -25q42 -40 45 -102q8 -157 -86 -213q-53 -32 -158 -29t-153 57
q-34 38 -49 104q-13 57 -4 113q12 76 65 106h-90v44h232q2 37 -9 74q-13 42 -61 42q-16 0 -32 -6q-20 -8 -32 -34.5t-12 -49.5q0 -9 2 -14h-48q-1 9 -1 18q0 53 30 89q36 43 102 42q81 -1 103 -88q14 -54 5 -116z" />
    <glyph glyph-name="ma" unicode="&#xdb8;" 
d="M281 488v41q8 4 38 5q54 1 86 -47q25 -38 25 -105q0 -70 -36 -111t-106 -41q-84 0 -112 69q-5 12 -5 31q0 40 21.5 61.5t21.5 49.5q0 38 -35 42q-37 5 -71 -37q-29 -35 -41 -78q-7 -27 -7 -66q0 -75 17 -121q51 -134 216 -134t221 132q34 80 29 192q-8 180 -75 260
q-51 61 -167 63q-91 2 -147 -28q-31 -17 -56 -49q-21 -29 -27 -54q-24 -1 -49 0q15 97 110 143q63 30 148 32q112 2 172 -32q57 -32 96 -105.5t46 -202.5q8 -144 -36 -251q-41 -99 -137 -134q-44 -16 -132 -16q-89 0 -126 17q-130 59 -148 220q-8 69 1 123q5 34 23 71
q22 49 55 73q37 27 80 27q58 0 79 -42q11 -22 11 -44q0 -39 -26 -68q-17 -19 -17 -42t18.5 -40.5t48.5 -17.5q44 -1 69 30q23 28 25 71q3 57 -26 96q-16 21 -54 21q-11 0 -21 -4z" />
    <glyph glyph-name="mba" unicode="&#xdb9;" horiz-adv-x="634" 
d="M416 -3q-77 -1 -99 40q-9 16 -9 33q0 44 42 70q25 15 25 31q0 31 -69 31q-34 0 -53.5 -10.5t-19.5 -24.5q0 -12 15 -22q44 -29 44 -78q0 -19 -9.5 -36t-42.5 -27.5t-70 -6.5q-102 10 -138 110q-23 65 -23 157q0 51 7 99q18 114 94 156q37 20 84 20q44 0 67 -16
q27 -19 27 -58q0 -16 -5 -30q-2 -5 -18 -21.5t-19 -32.5q-1 -7 -1 -14q0 -24 16 -41q13 -15 31 -17q43 -6 68 23q21 25 21 68t-15.5 65t-46.5 22q-11 0 -24 -3v44q21 6 40 6q38 0 60 -23q31 -32 37 -93q1 -13 1 -25q0 -63 -41 -101q-32 -29 -90 -29q-50 0 -75 19
q-36 28 -36 80q0 22 7 42q3 10 24 32q17 18 15 30q-4 25 -51 25q-23 0 -38 -7q-63 -29 -78 -110q-12 -68 -9 -134q5 -109 50 -163q24 -29 79 -29q49 0 49 27q0 21 -18 32q-23 15 -33.5 27.5t-10.5 32.5q0 29 24 52q30 28 107 28q72 0 96.5 -26t25.5 -45q2 -31 -20 -48
q-16 -13 -31 -23t-15 -27q0 -9 5 -13q22 -20 60 -16t68.5 34t43.5 73q21 69 21 173q0 28 -2 53q-12 159 -65 232q-39 54 -102 73q-44 14 -118 13q-68 -1 -122 -31q-60 -34 -72 -89h-51q14 61 50.5 96.5t105.5 56.5q39 12 108 12q105 0 154 -27t77 -61q32 -38 55 -106
q28 -81 31 -179q4 -122 -14 -196q-21 -84 -54 -124q-45 -54 -127 -55z" />
    <glyph glyph-name="ya" unicode="&#xdba;" horiz-adv-x="630" 
d="M250 540q-47 0 -64 -3q-43 -8 -70 -37q-58 -62 -57 -215q2 -236 117 -236q114 0 114 112v59h50v-59q0 -54 26 -83q28 -33 82 -28q49 5 81 38q42 45 41 135q-2 122 -90 147q-35 10 -94 10h-121q-6 109 46 159q38 37 83 43q77 11 125 -12q27 -13 45.5 -46t18.5 -71
q0 -12 -2 -24h-47q2 11 2 21q0 43 -27 67t-66 24q-55 0 -90 -29q-39 -33 -38 -90q151 2 184 -7q87 -24 111 -109q12 -42 12 -95q0 -47 -10 -80q-36 -122 -165 -132q-46 -4 -82.5 13t-50.5 43q-32 -59 -125 -57q-66 1 -103 29q-40 30 -62 103q-19 63 -15 177q5 135 43 190
q28 39 54 57q50 34 144 31v-45z" />
    <glyph glyph-name="ra" unicode="&#xdbb;" horiz-adv-x="600" 
d="M57 284q3 -118 75 -182q64 -55 160 -55q101 0 170.5 64.5t70.5 166.5q1 132 -62 201q-61 65 -171 65q-104 0 -171 -63q-75 -71 -72 -197zM298 -3q-103 0 -164 37q-36 22 -58 50q-62 79 -67 185q-7 150 73 236q49 53 126 79q58 20 125 63q29 18 51 49t20 52h56
q-1 -52 -55 -108q-27 -28 -82 -52q69 0 114 -20q37 -17 73 -57q26 -29 48 -78q23 -56 26 -107q10 -185 -106 -275q-70 -54 -180 -54z" />
    <glyph glyph-name="la" unicode="&#xdbd;" horiz-adv-x="623" 
d="M323 -127q-128 2 -193 54q-95 76 -114 217q-12 89 2 175q12 76 45 130t81 88q68 49 182 49q77 0 127 -20q91 -37 131 -136q21 -53 21 -130q0 -57 -12 -98q-33 -111 -141 -136q-28 -7 -57 -7q-107 0 -147 73q-22 40 -24 87q-3 76 26 113h-79v47h247v-46h-105
q-14 -10 -25 -35q-11 -29 -11 -60q2 -124 111 -129q68 -3 113 41q57 54 52 162q-5 115 -68 174q-58 55 -158 54q-125 -1 -193 -82q-39 -46 -55.5 -108t-16.5 -135q0 -90 32 -159q59 -126 225 -131q47 -1 97 16q47 16 72 39q17 15 34.5 44.5t19.5 43.5h56q-7 -31 -24 -62
q-38 -71 -113 -106q-62 -28 -138 -27z" />
    <glyph glyph-name="va" unicode="&#xdc0;" horiz-adv-x="606" 
d="M31 411q-2 23 6 46q18 53 69 79q32 16 88 16q66 0 102 -29t51 -96q3 -14 3 -62h-134q-150 0 -158 -128q-4 -58 21 -103.5t71.5 -65.5t147.5 -20q67 0 123 28q60 29 84 79q47 97 42 220q-7 182 -80 257q-59 61 -168 62q-86 1 -139 -26q-75 -39 -92 -105h-46q15 97 110 143
q63 30 148 32q112 2 172 -32t96 -106q39 -77 46 -202q8 -140 -37 -249q-37 -90 -137 -131q-45 -19 -149 -19q-73 0 -106 10q-56 16 -92 48q-65 58 -65 171q0 99 67 146q50 35 116 35h107q-1 37 -24 66q-17 21 -33.5 27.5t-46.5 6.5q-36 0 -62 -11q-31 -12 -46 -45
q-11 -24 -10 -42h-45z" />
    <glyph glyph-name="sha" unicode="&#xdc1;" horiz-adv-x="714" 
d="M273 538q-15 2 -30 2q-92 0 -132 -56q-43 -59 -48 -162q-3 -55 8 -113q14 -71 42 -107q43 -55 135 -55q50 0 90 34q55 47 51 143q-2 44 -21.5 71t-46.5 27q-7 0 -15 -2q-15 -5 -23 -31q-10 -31 -16 -37h-45q13 20 13 54q0 123 44 192q60 94 197 86q88 -5 136 -50
q84 -78 84 -242q0 -96 -19 -150q-23 -66 -73.5 -104.5t-159.5 -38.5v49q62 0 98 15q-34 7 -61 35q-36 36 -36 89q0 15 3 31q8 46 47 74q35 25 81 25q40 0 70 -21v17q-1 63 -25.5 120t-60.5 79q-41 25 -102 25q-88 0 -126 -46q-15 -18 -28 -57q-15 -43 -13 -73q10 7 29 7
q48 0 74 -25q42 -40 45 -102q8 -157 -86 -213q-52 -31 -134 -29q-87 2 -138 59q-38 43 -53 108q-18 80 -15 139q3 66 9 97q16 74 61 126q53 62 190 56v-46zM643 241q-26 31 -68 31q-35 0 -59 -24t-24 -57q0 -25 14 -49q24 -40 86 -44q24 25 38 62q11 30 13 81z" />
    <glyph glyph-name="Sha" unicode="&#xdc2;" 
d="M559 230q0 69 -34 108q-28 -10 -57 -19q-42 -12 -81 -13q36 -2 61 -22q29 -23 29 -59q0 -9 -2 -18q-9 -45 -73 -69q-47 -17 -97 -17q-57 0 -102 19q-52 22 -62 62q-3 13 -3 25q0 51 54 79q31 16 150 31q102 13 137 30q-34 12 -78 12h-172q-76 0 -111 -24
q-59 -40 -56 -118q4 -103 81 -154q54 -36 165 -36q50 0 101 11q55 12 78 31q72 61 72 141zM527 429q10 108 -89 108q-10 0 -21 -2q-36 -5 -59.5 -41t-20.5 -71q124 1 158 -8q6 -2 22 -8q9 10 10 22zM558 379q32 -31 45 -75q15 -53 8 -98q-10 -64 -37 -104.5t-79 -72.5
q-55 -34 -185 -34q-119 0 -179 32q-103 55 -118 172q-6 43 2 87q11 66 66 105q23 16 53 24q37 10 147 8q1 45 -24 79t-62 36q-46 3 -79 -26q-36 -31 -30 -83h-49q-2 10 -2 22q0 56 42.5 98.5t127.5 35.5q74 -6 106 -68q28 51 77 63q24 6 53 6q44 0 73 -14.5t47 -47.5t18 -71
q0 -12 -2 -24q-5 -31 -19 -50zM297 277q-50 -2 -67 -7q-34 -9 -40 -38q-7 -34 35 -53q35 -16 83 -14q117 5 119 59q1 30 -44 44q-36 11 -86 9z" />
    <glyph glyph-name="sa" unicode="&#xdc3;" horiz-adv-x="625" 
d="M288 150v70h50v-70q0 -43 23 -71q26 -32 72 -30q62 3 97 43q41 46 38 132q-3 79 -40 117q-15 15 -55 31q-18 7 -92 7h-131q-100 0 -137 -26q-55 -39 -56 -132q-1 -73 28 -119q33 -53 98 -53q50 0 79 31q26 29 26 70zM37 429q-2 10 -2 22q0 56 42.5 98.5t122.5 35.5
q88 -8 110 -82q6 27 33 50q22 19 46 26q21 6 50 6q44 0 76 -15q27 -13 45.5 -46t18.5 -71q0 -12 -2 -24h-47q2 9 2 20q0 34 -21 60q-24 30 -65 30q-48 0 -76 -28q-35 -35 -33 -88q125 1 158 -8q87 -24 111 -109q12 -42 12 -95q0 -47 -10 -80q-36 -122 -165 -132
q-46 -4 -82.5 13t-50.5 43q-32 -59 -125 -57q-146 3 -174 149q-4 23 -4 54q0 74 16 112q23 54 47 66h-76v44h285q1 40 -22 76q-28 44 -76 41q-103 -7 -97 -111h-47z" />
    <glyph glyph-name="ha" unicode="&#xdc4;" horiz-adv-x="714" 
d="M272 380q-167 13 -199 -84q-10 -29 -10 -66q0 -79 40.5 -131t149.5 -52q74 0 114 34q55 47 51 143q-2 44 -21.5 71t-46.5 27q-7 0 -15 -2q-15 -5 -20 -31q-5 -31 -12 -37h-45q13 20 13 54q0 130 31 192q24 49 77 72q45 19 98 16q84 -5 135 -52q84 -78 84 -242
q0 -96 -19 -150q-23 -66 -73.5 -104.5t-149.5 -38.5v49q82 0 128 39q66 56 64 226q-1 63 -25.5 120t-60.5 79q-46 29 -101 29q-69 0 -104 -46q-14 -18 -26 -60.5t-10 -73.5q10 7 30 7q48 0 74 -25q42 -40 45 -102q8 -157 -86 -213q-53 -32 -158 -29t-153 57q-34 38 -49 104
q-13 58 -4 113q14 87 78 124q51 29 129 26q2 37 -9 74q-13 42 -61 42q-16 0 -32 -6q-20 -8 -32 -34.5t-12 -49.5q0 -9 2 -14h-48q-1 9 -1 18q0 53 30 89q36 43 102 42q81 -1 103 -88q14 -54 5 -116z" />
    <glyph glyph-name="La" unicode="&#xdc5;" horiz-adv-x="631" 
d="M308 435q1 49 -16 77q-20 31 -59 28t-59 -50q-14 -32 -12 -58q12 3 22 3h124zM413 539q-61 -4 -59 -104h139q-5 109 -80 104zM111 351q-45 -42 -45 -153q0 -69 20 -123q23 -62 85 -106q70 -49 154 -50q75 -1 135 41q54 37 74 91q17 44 21 112h50q2 -98 -48 -180
q-31 -50 -92 -80q-64 -32 -140 -32q-114 0 -194 60q-84 63 -108 178q-13 64 -5 143q7 62 40 114q24 38 52 54q-2 19 7 57.5t23 57.5q37 50 105 50q71 0 87 -45q10 13 36 34q30 16 77 7q98 -19 98 -156q0 -19 -2 -35h-352q-8 0 -26 -10q-6 -44 9 -113q9 -42 37 -80
q25 -34 51 -48.5t65 -14.5q90 0 128 61q11 17 22 51.5t11 57.5h49q0 -38 -10 -71q-14 -45 -40 -80q-20 -26 -56 -45q-43 -22 -100 -22q-38 0 -66 9q-75 24 -116 102q-38 73 -36 164z" />
    <glyph glyph-name="fa" unicode="&#xdc6;" horiz-adv-x="649" 
d="M33 460q21 58 66 91.5t102 33.5q59 0 94 -24q27 -18 33 -49q8 30 40 53q36 25 95 21q116 -9 152 -128q20 -66 20 -147q0 -36 -4 -69q-9 -72 -24 -110q-18 -49 -58 -86q-53 -50 -181 -46v49q54 0 82 7q41 10 71.5 38.5t47.5 92.5q14 55 14 113q0 112 -35.5 176t-97.5 64
q-98 0 -98 -137v-154h-50v154q0 60 -22 96q-26 41 -75 41q-133 0 -141 -216q-5 -150 51 -219q47 -58 166 -56v-49q-126 -2 -183 44q-76 61 -84 204q-8 137 19 212z" />
    <glyph glyph-name="al" unicode="&#xdca;" horiz-adv-x="4" 
d="M-99 511v234h48v-307q-17 32 -23 41q-11 17 -25 32z" />
    <glyph glyph-name="aa" unicode="&#xdcf;" horiz-adv-x="273" 
d="M158 41q-54 -46 -168 -39v46q120 0 165 66q49 72 49 195q0 62 -21 121q-19 56 -45 79q-36 32 -149 32v45q70 -2 75 -2q46 -2 66 -11q60 -25 92 -98q31 -69 32 -167q1 -184 -96 -267z" />
    <glyph glyph-name="ae" unicode="&#xdd0;" horiz-adv-x="340" 
d="M30 342q27 64 78 111q60 55 119 80h-209v45h300v-44q-161 -72 -220 -170q-26 -44 -34 -87q-7 -34 -5 -93q2 -53 25 -91q27 -42 71 -45q98 -6 116 87q10 50 -8 107h52q14 -46 8 -106q-9 -87 -69 -122q-38 -22 -115 -16q-51 4 -84 37q-43 43 -47 147q-4 100 22 160z" />
    <glyph glyph-name="aee" unicode="&#xdd1;" horiz-adv-x="340" 
d="M43 303q22 32 65 61t82 39h-164v45l173 86h-181v44h300v-37l-192 -90h191v-43q-42 -10 -100.5 -37.5t-91.5 -52.5q-65 -50 -65 -144q0 -118 87 -126q111 -10 124 88q8 65 -8 106h52q14 -46 8 -106q-9 -87 -69 -122q-38 -22 -116 -16q-56 4 -88 36q-45 45 -41 149
q3 74 34 120z" />
    <glyph glyph-name="i" unicode="&#xdd2;" horiz-adv-x="4" 
d="M-60 587h-51q6 62 -19 89q-41 46 -182 46q-157 0 -208 -49q-22 -21 -22 -67q0 -12 2 -20h-51q-3 17 -3 33q0 78 77 119q58 31 194 31q103 0 165 -20q46 -15 74.5 -51.5t28.5 -78.5q0 -17 -5 -32z" />
    <glyph glyph-name="ii" unicode="&#xdd3;" horiz-adv-x="4" 
d="M-272 670q-2 -24 15.5 -40t53.5 -18q75 -4 86 36q2 8 2 15q0 45 -72 50q-45 3 -68 -13q-15 -10 -17 -30zM-190 571q-73 0 -109 33q-27 24 -25 65q1 30 17 47h-76q-77 0 -108 -21q-42 -28 -42 -73q0 -17 6 -34h-53q-13 56 6.5 94t59.5 60q44 24 198 24q137 0 171 -11
q55 -18 71 -53q11 -23 11 -45q0 -37 -26 -61.5t-101 -24.5z" />
    <glyph glyph-name="u" unicode="&#xdd4;" horiz-adv-x="4" 
d="M-35 189v-364h-531v51l479 1v208q16 39 52 104z" />
    <glyph glyph-name="uu" unicode="&#xdd6;" horiz-adv-x="4" 
d="M-45 -177h-43q-44 69 -108 69q-13 0 -26 -3q-36 -7 -83 -29q-60 -29 -68 -32q-57 -20 -111 -9q-100 21 -90 148h53q-1 -9 -1 -18q0 -41 27.5 -63t65.5 -18q29 3 84 29q67 32 74 34q32 11 73 11q83 0 103 -32v174l50 85v-346z" />
    <glyph glyph-name="gp" unicode="&#xdd8;" horiz-adv-x="369" 
d="M57 412h-44q-7 69 31.5 118.5t124.5 52.5q114 5 152 -60q26 -44 28 -155v-114q0 -224 6 -254h-43q-10 34 -10 64q-37 -74 -162 -68q-39 2 -70 24t-44 56q-15 40 -15 97q0 71 23 107q50 80 164 80q56 0 102 -21q0 85 -3 104q-16 103 -115 97q-60 -4 -89 -26
q-39 -31 -36 -102zM268 86q22 25 28 60q7 39 4 145q-32 24 -111 24q-19 0 -31 -3q-85 -23 -96 -97q-3 -22 -3 -43q0 -83 46 -113q22 -15 62 -15q65 0 101 42z" />
    <glyph glyph-name="e" unicode="&#xdd9;" horiz-adv-x="505" 
d="M328 368q-26 3 -63 -8q-40 -12 -57 -32v55q25 22 70 30q21 4 42 4q55 0 92 -24t58 -73q19 -43 19 -93q0 -81 -34 -137q-35 -59 -107 -82q-34 -11 -92 -11q-69 0 -104 15q-79 33 -116 123q-25 60 -24 158q1 113 43 181q70 113 211 113q59 0 100 -12q95 -28 108 -145h-51
q-3 66 -76 102q-19 9 -66 9q-67 0 -92 -11q-116 -52 -127 -202q-2 -21 -2 -41q0 -100 36 -161q48 -83 164 -80q146 4 172 132q5 26 5 50q0 59 -30 96.5t-79 43.5z" />
    <glyph glyph-name="ee" unicode="&#xdda;" horiz-adv-x="4" 
d="M-99 511v234h48v-307q-17 32 -23 41q-11 17 -25 32z" />
    <glyph glyph-name="ei" unicode="&#xddb;" horiz-adv-x="1009" 
d="M832 368q-26 3 -63 -8q-40 -12 -57 -32v55q25 22 70 30q21 4 42 4q55 0 92 -24t58 -73q19 -43 19 -93q0 -81 -34 -137q-35 -59 -107 -82q-34 -11 -92 -11q-69 0 -104 15q-79 33 -116 123q-25 60 -24 158q1 113 43 181q70 113 211 113q59 0 100 -12q95 -28 108 -145h-51
q-3 66 -76 102q-19 9 -66 9q-67 0 -92 -11q-116 -52 -127 -202q-2 -21 -2 -41q0 -100 36 -161q48 -83 164 -80q146 4 172 132q5 26 5 50q0 59 -30 96.5t-79 43.5zM328 368q-26 3 -63 -8q-40 -12 -57 -32v55q25 22 70 30q21 4 42 4q55 0 92 -24t58 -73q19 -43 19 -93
q0 -81 -34 -137q-35 -59 -107 -82q-34 -11 -92 -11q-69 0 -104 15q-79 33 -116 123q-25 60 -24 158q1 113 43 181q70 113 211 113q59 0 100 -12q95 -28 108 -145h-51q-3 66 -76 102q-19 9 -66 9q-67 0 -92 -11q-116 -52 -127 -202q-2 -21 -2 -41q0 -100 36 -161
q48 -83 164 -80q146 4 172 132q5 26 5 50q0 59 -30 96.5t-79 43.5z" />
    <glyph glyph-name="o" unicode="&#xddc;" horiz-adv-x="273" 
d="M158 41q-54 -46 -168 -39v46q120 0 165 66q49 72 49 195q0 62 -21 121q-19 56 -45 79q-36 32 -149 32v45q70 -2 75 -2q46 -2 66 -11q60 -25 92 -98q31 -69 32 -167q1 -184 -96 -267z" />
    <glyph glyph-name="oo" unicode="&#xddd;" horiz-adv-x="273" 
d="M158 41q-54 -46 -168 -39v46q120 0 165 66q49 72 49 195q0 62 -21 121q-19 56 -45 79q-36 32 -149 32v45q70 -2 75 -2q46 -2 66 -11q60 -25 92 -98q31 -69 32 -167q1 -184 -96 -267zM188 511v234h48v-307q-17 32 -23 41q-11 17 -25 32z" />
    <glyph glyph-name="ou" unicode="&#xdde;" horiz-adv-x="408" 
d="M245 540q-28 -1 -41 -29q-10 -22 -9 -51q21 -6 31 -43q7 -29 6 -57q-4 -97 -106 -98q-93 -1 -112 104q-5 29 -4 72q2 62 19 91q33 56 90 56q10 0 21 -1v-44q-74 2 -80 -94q-8 -122 55 -134q8 -1 15 -1q28 0 42 20t13 51q-1 15 -11.5 28.5t-20.5 15.5q-5 8 -5 31
q0 80 33 107q25 21 63 21q12 0 27 -2q71 -9 102 -113q21 -69 20 -158q-1 -118 -17 -177q-28 -99 -106 -125q-42 -14 -84 -14q-77 0 -124 40q-50 43 -50 139q0 23 3 47h53q-6 -25 -6 -49q0 -56 32.5 -90t88.5 -34q86 0 124 62q35 57 35 178q0 110 -27 181t-70 70z" />
    <glyph glyph-name="gk" unicode="&#xddf;" horiz-adv-x="408" 
d="M245 540q-28 -1 -41 -29q-10 -22 -9 -51q21 -6 31 -43q7 -29 6 -57q-4 -97 -106 -98q-93 -1 -112 104q-5 29 -4 72q2 62 19 91q33 56 90 56q10 0 21 -1v-44q-74 2 -80 -94q-8 -122 55 -134q8 -1 15 -1q28 0 42 20t13 51q-1 15 -11.5 28.5t-20.5 15.5q-5 8 -5 31
q0 80 33 107q25 21 63 21q12 0 27 -2q71 -9 102 -113q21 -69 20 -158q-1 -118 -17 -177q-28 -99 -106 -125q-42 -14 -84 -14q-77 0 -124 40q-50 43 -50 139q0 23 3 47h53q-6 -25 -6 -49q0 -56 32.5 -90t88.5 -34q86 0 124 62q35 57 35 178q0 110 -27 181t-70 70z" />
    <glyph glyph-name="dgp" unicode="&#xdf2;" horiz-adv-x="369" 
d="M57 412h-44q-7 69 31.5 118.5t124.5 52.5q114 5 152 -60q26 -44 28 -155v-114q0 -224 6 -254h-43q-10 34 -10 64q-37 -74 -162 -68q-39 2 -70 24t-44 56q-15 40 -15 97q0 71 23 107q50 80 164 80q56 0 102 -21q0 85 -3 104q-16 103 -115 97q-60 -4 -89 -26
q-39 -31 -36 -102zM268 86q22 25 28 60q7 39 4 145q-32 24 -111 24q-19 0 -31 -3q-85 -23 -96 -97q-3 -22 -3 -43q0 -83 46 -113q22 -15 62 -15q65 0 101 42z" />
    <glyph glyph-name="dgk" unicode="&#xdf3;" horiz-adv-x="408" 
d="M245 540q-28 -1 -41 -29q-10 -22 -9 -51q21 -6 31 -43q7 -29 6 -57q-4 -97 -106 -98q-93 -1 -112 104q-5 29 -4 72q2 62 19 91q33 56 90 56q10 0 21 -1v-44q-74 2 -80 -94q-8 -122 55 -134q8 -1 15 -1q28 0 42 20t13 51q-1 15 -11.5 28.5t-20.5 15.5q-5 8 -5 31
q0 80 33 107q25 21 63 21q12 0 27 -2q71 -9 102 -113q21 -69 20 -158q-1 -118 -17 -177q-28 -99 -106 -125q-42 -14 -84 -14q-77 0 -124 40q-50 43 -50 139q0 23 3 47l162 -5q-27 -56 -60 -89q-14 -31 -2 -55t68 -24q86 0 124 62q35 57 35 178q0 110 -27 181t-70 70z" />
    <glyph glyph-name="kundaliya" unicode="&#xdf4;" horiz-adv-x="1760" 
d="M108 28q7 -7 17 -7q6 0 39 13q20 8 70 48q47 38 67 42q32 7 46 -18l78 138l34 -98l125 167l30 -121l136 157l30 -149l147 168l14 -190l172 159l-24 -189l168 108l-34 -142l145 92l-32 -100q15 13 32 13q34 0 64 -45q15 -22 43.5 -39t57.5 -17q13 0 25 4q-15 23 -15 45
q0 45 49 47q23 1 38.5 -14.5t13.5 -39.5q-4 -69 -118 -64q-49 2 -100 46q-49 41 -72 40q-27 -1 -49 -14q-15 -11 -31 -22l26 90l-149 -92l30 136l-156 -103l18 166l-158 -149l-14 176l-135 -148l-30 145l-132 -149l-28 111l-113 -149l-30 86l-62 -110q-20 34 -38 34
q-4 0 -8 -2q-43 -26 -85 -52q-62 -38 -100 -40q-24 -2 -46 14t-30 38q-3 8 -3 20q0 58 51 56q17 -1 31 -18.5t14 -38.5q0 -24 -19 -39z" />
    <glyph glyph-name="zwj" unicode="&#x200d;" horiz-adv-x="377" 
 />
    <glyph glyph-name="hyphen" unicode="&#x2010;" horiz-adv-x="461" 
d="M98 238v47h257v-47h-257z" />
    <glyph glyph-name="dash_en" unicode="&#x2013;" horiz-adv-x="464" 
d="M43 234h370v-47h-370v47z" />
    <glyph glyph-name="quoteleft" unicode="&#x2018;" horiz-adv-x="148" 
d="M117 741q-9 -18 -21 -56q-15 -46 -12 -58h27v-72h-81v59q0 30 15 73t29 54h43z" />
    <glyph glyph-name="quoteright" unicode="&#x2019;" horiz-adv-x="148" 
d="M31 555q9 18 21 56q15 46 12 58h-27v72h81v-59q0 -30 -15 -73t-29 -54h-43z" />
    <glyph glyph-name="dblquote_left" unicode="&#x201c;" horiz-adv-x="245" 
d="M117 741q-9 -18 -21 -56q-15 -46 -12 -58h27v-72h-81v59q0 30 15 73t29 54h43zM220 740q-9 -18 -21 -56q-15 -46 -12 -58h27v-72h-81v59q0 30 15 73t29 54h43z" />
    <glyph glyph-name="dblquote_right" unicode="&#x201d;" horiz-adv-x="245" 
d="M129 555q9 18 21 56q15 46 12 58h-27v72h81v-59q0 -30 -15 -73t-29 -54h-43zM26 556q9 18 21 56q15 46 12 58h-27v72h81v-59q0 -30 -15 -73t-29 -54h-43z" />
    <glyph glyph-name="bullet" unicode="&#x2022;" horiz-adv-x="350" 
d="M261 422q34 -31 34 -80q0 -50 -33 -83t-83 -33q-49 0 -81.5 33t-32.5 83q0 47 31.5 80t78.5 34t86 -34z" />
    <glyph glyph-name="dottedcircle" unicode="&#x25cc;" horiz-adv-x="377" 
 />
    <glyph glyph-name="ra.i" horiz-adv-x="600" 
d="M57 284q3 -118 75 -182q64 -55 160 -55q101 0 170.5 64.5t70.5 166.5q1 132 -62 201q-61 65 -171 65q-104 0 -171 -63q-75 -71 -72 -197zM136 551q35 21 72 33q32 11 83 38q15 25 15 55q0 21 -8 39q-19 39 -68 39q-52 0 -107 -36q-69 -45 -67 -95q1 -30 25 -50.5
t55 -22.5zM348 658q61 51 56 90h56q-1 -52 -55 -108q-27 -28 -82 -52q69 0 114 -20q37 -17 73 -57q26 -29 48 -78q23 -56 26 -107q10 -185 -106 -275q-70 -54 -180 -54q-103 0 -164 37q-36 22 -58 50q-62 79 -67 185q-7 151 73 236q4 5 13 13q-59 8 -80 60q-10 24 -10 48
q0 62 69 118q29 23 73 40q48 17 91 17q72 0 98 -50q17 -32 17 -57q0 -15 -5 -36z" />
    <glyph glyph-name="ra.ii" horiz-adv-x="600" 
d="M57 284q3 -118 75 -182q64 -55 160 -55q101 0 170.5 64.5t70.5 166.5q1 132 -62 201q-61 65 -171 65q-104 0 -171 -63q-75 -71 -72 -197zM136 551q36 21 72 33q7 2 28 11q-54 -4 -83 39q-15 23 -15 58q0 23 8 39q-14 -6 -23 -12q-69 -45 -67 -95q1 -30 25 -50.5t55 -22.5
zM348 658q61 51 56 90h56q-1 -52 -55 -108q-27 -28 -82 -52q69 0 114 -20q37 -17 73 -57q26 -29 48 -78q23 -56 26 -107q10 -185 -106 -275q-70 -54 -180 -54q-103 0 -164 37q-36 22 -58 50q-62 79 -67 185q-7 151 73 236q4 5 13 13q-59 8 -80 60q-10 24 -10 48q0 62 69 118
q29 23 73 40q48 17 91 17q72 0 98 -50q22 -42 12 -93zM199 730q-12 -15 -12 -35q0 -29 22 -47q15 -12 36 -12q30 0 47 22q12 15 12 35q0 30 -23 47q-16 12 -36 12q-28 0 -46 -22z" />
    <glyph glyph-name="ra.ae" horiz-adv-x="928" 
d="M508 743h347v-40q-97 -103 -137 -178q-32 -60 -51 -113q-27 -75 -28 -174q-1 -93 32 -143q29 -44 77 -46q91 -5 108 84q8 40 2 108q-1 17 -11 46h50q9 -26 11 -47q4 -58 0 -101q-9 -88 -69 -123q-42 -25 -117 -15q-47 6 -75 36q-43 46 -54 137q-3 26 -3 57q0 135 45 235
q27 60 67 123q36 57 83 107h-277v47zM57 284q3 -118 75 -182q64 -55 160 -55q101 0 170.5 64.5t70.5 166.5q1 132 -62 201q-61 65 -171 65q-104 0 -171 -63q-75 -71 -72 -197zM298 -3q-103 0 -164 37q-36 22 -58 50q-62 79 -67 185q-7 150 73 236q49 53 126 79q58 20 125 63
q29 18 51 49t20 52h56q-1 -52 -55 -108q-27 -28 -82 -52q69 0 114 -20q37 -17 73 -57q26 -29 48 -78q23 -56 26 -107q10 -185 -106 -275q-70 -54 -180 -54z" />
    <glyph glyph-name="ra.aee" horiz-adv-x="928" 
d="M508 743h347v-35l-181 -147h171v-44q-40 -26 -119 -97q-89 -80 -89 -192q0 -176 113 -180q41 -2 72.5 26.5t35.5 77.5q4 56 -1 92q-3 23 -10 43h50q8 -23 11 -47q7 -60 1 -104q-11 -84 -71 -119q-33 -19 -86 -19q-73 0 -108 37q-49 52 -55 138q-2 27 -2 48q0 93 45 168
q15 26 58.5 66.5t74.5 57.5h-178v45l177 137h-256v48zM57 284q3 -118 75 -182q64 -55 160 -55q101 0 170.5 64.5t70.5 166.5q1 132 -62 201q-61 65 -171 65q-104 0 -171 -63q-75 -71 -72 -197zM298 -3q-103 0 -164 37q-36 22 -58 50q-62 79 -67 185q-7 150 73 236
q49 53 126 79q58 20 125 63q29 18 51 49t20 52h56q-1 -52 -55 -108q-27 -28 -82 -52q69 0 114 -20q37 -17 73 -57q26 -29 48 -78q23 -56 26 -107q10 -185 -106 -275q-70 -54 -180 -54z" />
    <glyph glyph-name="da.aa" horiz-adv-x="768" 
d="M85 439h-50q-2 47 39 93q46 53 180 53q116 0 160 -61q23 -32 29 -67q3 -16 4 -65h-245q-53 0 -94 -42q-45 -47 -47 -125q-2 -116 78 -157q39 -20 128 -20q46 0 95 5q68 7 105 29v-55q-43 -22 -176 -28q-18 -21 -18 -48q0 -30 24 -50q27 -23 79 -24q87 -2 121 44
q11 15 11 46q0 18 -6 27h54q5 -19 5 -38q0 -58 -38 -88q-42 -33 -121 -39q-15 -1 -29 -1q-91 0 -130 43q-26 28 -26 77q0 31 15 51q-88 5 -133 31q-76 44 -88 147q-2 20 -2 39q0 91 40 144t103 68q27 7 89 7h149q0 55 -45 83q-37 23 -92 23q-153 0 -168 -102zM658 41
q-54 -46 -168 -39v46q120 0 165 66q49 72 49 195q0 62 -21 121q-19 56 -45 79q-36 32 -149 32v45q70 -2 75 -2q46 -2 66 -11q60 -25 92 -98q31 -69 32 -167q1 -184 -96 -267z" />
    <glyph glyph-name="da.ae" horiz-adv-x="800" 
d="M85 439h-50q-2 47 39 93q46 53 180 53q116 0 160 -61q23 -32 29 -67q3 -16 4 -65h-245q-53 0 -94 -42q-45 -47 -47 -125q-2 -116 78 -157q39 -20 128 -20q46 0 95 5q68 7 105 29v-55q-43 -22 -176 -28q-18 -21 -18 -48q0 -30 24 -50q27 -23 79 -24q87 -2 121 44
q11 15 11 46q0 18 -6 27h54q5 -19 5 -38q0 -58 -38 -88q-42 -33 -121 -39q-15 -1 -29 -1q-91 0 -130 43q-26 28 -26 77q0 31 15 51q-88 5 -133 31q-76 44 -88 147q-2 20 -2 39q0 91 40 144t103 68q27 7 89 7h149q0 55 -45 83q-37 23 -92 23q-153 0 -168 -102zM490 342
q27 64 78 111q60 55 119 80h-251v45h342v-44q-161 -72 -220 -170q-26 -44 -34 -87q-7 -34 -5 -93q2 -53 25 -91q27 -42 71 -45q98 -6 116 87q10 50 -8 107h52q14 -46 8 -106q-9 -87 -69 -122q-38 -22 -115 -16q-51 4 -84 37q-43 43 -47 147q-4 100 22 160z" />
    <glyph glyph-name="da.aee" horiz-adv-x="816" 
d="M85 439h-50q-2 47 39 93q46 53 180 53q116 0 160 -61q23 -32 29 -67q3 -16 4 -65h-245q-53 0 -94 -42q-45 -47 -47 -125q-2 -116 78 -157q39 -20 128 -20q46 0 95 5q68 7 105 29v-55q-43 -22 -176 -28q-18 -21 -18 -48q0 -30 24 -50q27 -23 79 -24q87 -2 121 44
q11 15 11 46q0 18 -6 27h54q5 -19 5 -38q0 -58 -38 -88q-42 -33 -121 -39q-15 -1 -29 -1q-91 0 -130 43q-26 28 -26 77q0 31 15 51q-88 5 -133 31q-76 44 -88 147q-2 20 -2 39q0 91 40 144t103 68q27 7 89 7h149q0 55 -45 83q-37 23 -92 23q-153 0 -168 -102zM515 303
q22 32 65 61t82 39h-164v45l173 86h-181v44h300v-37l-192 -90h191v-43q-42 -10 -100.5 -37.5t-91.5 -52.5q-65 -50 -65 -144q0 -118 87 -126q111 -10 124 88q8 65 -8 106h52q14 -46 8 -106q-9 -87 -69 -122q-38 -22 -116 -16q-56 4 -88 36q-45 45 -41 149q3 74 34 120z" />
    <glyph glyph-name="da.u" horiz-adv-x="493" 
d="M467 82q2 1 9 8v-265h-448v51h399v137q-43 -10 -136 -14q-33 -1 -59 0q-88 5 -133 31q-76 44 -88 147q-2 20 -2 39q0 91 40 144t103 68q27 7 89 7h149q0 55 -45 83q-37 23 -92 23q-153 0 -168 -102h-50q-2 47 39 93q46 53 180 53q116 0 160 -61q23 -32 29 -67
q3 -16 4 -65h-245q-53 0 -94 -42q-45 -47 -47 -125q-2 -116 78 -157q39 -20 128 -20q46 0 96 5t104 29z" />
    <glyph glyph-name="da.uu" horiz-adv-x="493" 
d="M467 82q2 1 9 8v-261h-44q-14 39 -61 55q-11 4 -25 4q-40 0 -83 -30q-55 -38 -121 -38q-29 0 -52 10q-66 29 -66 113q0 13 2 28h51q-2 -41 4 -58q12 -31 52 -39q12 -2 22 -2q26 0 77 26q84 44 125 43q48 -1 70 -28v100q-43 -10 -136 -14q-33 -1 -59 0q-88 5 -133 31
q-76 44 -88 147q-2 20 -2 39q0 91 40 144t103 68q27 7 89 7h149q0 55 -45 83q-37 23 -92 23q-153 0 -168 -102h-50q-2 47 39 93q46 53 180 53q116 0 160 -61q23 -32 29 -67q3 -16 4 -65h-245q-53 0 -94 -42q-45 -47 -47 -125q-2 -116 78 -157q39 -20 128 -20q46 0 96 5
t104 29z" />
    <glyph glyph-name="da.oo" horiz-adv-x="772" 
d="M685 536v209h48v-292q22 -63 23 -145q1 -184 -96 -267q-54 -46 -168 -39v46q120 0 165 66q49 72 49 195q0 62 -21 121q-19 56 -45 79q-36 32 -149 32v45q70 -2 75 -2q46 -2 66 -11q30 -12 53 -37zM85 439h-50q-2 47 39 93q46 53 180 53q116 0 160 -61q23 -32 29 -67
q3 -16 4 -65h-245q-53 0 -94 -42q-45 -47 -47 -125q-2 -116 78 -157q39 -20 128 -20q46 0 95 5q68 7 105 29v-55q-43 -22 -176 -28q-18 -21 -18 -48q0 -30 24 -50q27 -23 79 -24q87 -2 121 44q11 15 11 46q0 18 -6 27h54q5 -19 5 -38q0 -58 -38 -88q-42 -33 -121 -39
q-15 -1 -29 -1q-91 0 -130 43q-26 28 -26 77q0 31 15 51q-88 5 -133 31q-76 44 -88 147q-2 20 -2 39q0 91 40 144t103 68q27 7 89 7h149q0 55 -45 83q-37 23 -92 23q-153 0 -168 -102z" />
    <glyph glyph-name="da.i" horiz-adv-x="493" 
d="M112 562q45 23 142 23q85 0 133 -34q14 18 10 39q-8 43 -57 63q-42 17 -101 15q-154 -5 -144 -77q3 -18 17 -29zM421 514q18 -28 23 -61q2 -14 3 -61h-245q-53 0 -94 -42q-45 -47 -47 -125q-2 -116 78 -157q39 -20 128 -20q46 0 95 5q68 7 105 29v-55q-43 -22 -176 -28
q-18 -21 -18 -48q0 -30 24 -50q27 -23 79 -24q87 -2 121 44q11 15 11 46q0 18 -6 27h54q5 -19 5 -38q0 -58 -38 -88q-42 -33 -121 -39q-15 -1 -29 -1q-91 0 -130 43q-26 28 -26 77q0 31 15 51q-88 5 -133 31q-76 44 -88 147q-2 20 -2 39q0 91 40 144t103 68q27 7 89 7h149
q0 55 -45 83q-37 23 -92 23q-153 0 -168 -102h-50q-2 52 39 93l1 1q-33 26 -30 77q6 105 206 105q73 0 127 -27q70 -34 70 -100q0 -42 -27 -74z" />
    <glyph glyph-name="da.ii" horiz-adv-x="493" 
d="M112 562q45 23 142 23q13 0 41 -2q-15 13 -18 35q-4 32 23 48q-23 3 -61 2q-154 -4 -144 -77q3 -18 17 -29zM395 546q36 -34 46 -80q5 -20 6 -74h-245q-53 0 -94 -42q-45 -47 -47 -125q-2 -116 78 -157q39 -20 128 -20q46 0 95 5q68 7 105 29v-55q-43 -22 -176 -28
q-18 -21 -18 -48q0 -30 24 -50q27 -23 79 -24q87 -2 121 44q11 15 11 46q0 18 -6 27h54q5 -19 5 -38q0 -58 -38 -88q-42 -33 -121 -39q-15 -1 -29 -1q-91 0 -130 43q-26 28 -26 77q0 31 15 51q-88 5 -133 31q-76 44 -88 147q-2 20 -2 39q0 91 40 144t103 68q27 7 89 7h149
q0 55 -45 83q-37 23 -92 23q-153 0 -168 -102h-50q-2 52 39 93l1 1q-33 26 -30 77q6 105 206 105q206 0 202 -114q-1 -21 -20 -36.5t-38 -18.5zM342 649q-19 -8 -15 -35q5 -30 37 -30t38 25q4 16 -10 29.5t-33 13.5q-9 0 -17 -3z" />
    <glyph glyph-name="la.u" horiz-adv-x="623" 
d="M67 280q-2 -247 194 -283q33 -6 67 -6q69 0 125 23q60 25 89 70h48v-261h-549v51h499v138q-51 -55 -166 -67q-21 -2 -46 -2q-101 0 -164 30q-151 72 -149 309q1 161 112 248q71 56 199 56q77 0 127 -20q93 -37 132 -135q18 -46 18 -103q0 -51 -14 -96q-20 -62 -74 -97
q-50 -31 -117 -31q-77 0 -125 42q-13 12 -27.5 38.5t-16.5 47.5q-7 64 21 100h-79v47h247v-46h-105q-32 -21 -32 -74q0 -9 2 -19q14 -86 133 -83q43 1 83 34q52 44 54 121q3 114 -63 174q-61 55 -163 54q-127 -1 -197 -78q-62 -68 -63 -182z" />
    <glyph glyph-name="la.uu" horiz-adv-x="623" 
d="M67 280q-2 -247 194 -283q33 -6 67 -6q69 0 125 23q60 25 89 70h48v-261h-47q-25 47 -98 47q-65 0 -143 -28q-90 -32 -158 -24q-45 5 -72.5 34.5t-27.5 75.5q0 13 3 28h51q-2 -10 -2 -22q0 -50 36 -62q20 -6 46 -6q49 0 104 19q106 37 166 34q63 -4 92 -24v117
q-51 -55 -166 -67q-21 -2 -46 -2q-101 0 -164 30q-151 72 -149 309q1 161 112 248q71 56 199 56q77 0 127 -20q93 -37 132 -135q18 -46 18 -103q0 -51 -14 -96q-20 -62 -74 -97q-50 -31 -117 -31q-77 0 -125 42q-13 12 -27.5 38.5t-16.5 47.5q-7 64 21 100h-79v47h247v-46
h-105q-32 -21 -32 -74q0 -9 2 -19q14 -86 133 -83q43 1 83 34q52 44 54 121q3 114 -63 174q-61 55 -163 54q-127 -1 -197 -78q-62 -68 -63 -182z" />
    <glyph glyph-name="La.u" horiz-adv-x="720" 
d="M417 556q30 -15 60 -15q69 0 96 63q-30 43 -108 67q-63 19 -111 17q-2 -30 11 -67q18 -48 52 -65zM158 481q-94 -21 -94 -181q0 -93 27 -187q26 -90 56 -109h-56q-34 33 -58 126q-21 83 -21 152q0 83 8 115q19 77 88 117q30 18 82 18q28 0 56 -6q61 7 103 -8
q39 -13 72.5 -60t25.5 -122h-153q-55 0 -88 -42.5t-28 -98.5q5 -63 37 -95t86 -45q42 -10 103 -8q113 3 176 61q80 72 74 240q-2 59 -18 127q-15 61 -31 88q-9 -27 -51 -48.5t-82 -21.5q-74 0 -130 62q-37 40 -44 133q-12 2 -49 2v45q72 6 135 -1q136 -15 202 -70
q103 -86 119 -292q2 -22 2 -44q0 -175 -89 -261q-72 -70 -225 -70q-143 0 -209 57q-54 46 -59 130q-3 41 3 68q11 53 49 88q45 42 133 42h82q2 37 -30.5 70t-72.5 33q-48 0 -76.5 -21.5t-28.5 -57.5q0 -9 2 -18h-51q-2 12 -2 22q0 36 19 63q2 3 6 8z" />
    <glyph glyph-name="Ta.i" 
d="M484 673q13 33 -1 55q-25 39 -96 51q-54 9 -118 9q-104 0 -138 -19q-25 -14 -28 -17q-20 -18 -26 -50q-1 -8 -1 -16q0 -28 18.5 -52.5t44.5 -31.5t84 -3q-17 45 -21 93q-12 2 -49 2v45q72 6 135 -1q131 -14 196 -65zM536 672h-51l5 -4q69 -56 100 -168q17 -62 21 -128
q7 -111 -14 -195.5t-54 -124.5q-45 -54 -127 -55t-112 68q-9 -32 -53.5 -52t-84.5 -16q-132 13 -152 179q-10 79 6 154q10 48 40 89q60 82 170 82h82v-43q-82 0 -102 -3q-47 -6 -80 -33q-69 -57 -69 -188q0 -59 18 -106q20 -52 57 -70q19 -9 42 -9q59 0 83 39q19 31 19 77
v69h53v-65q0 -65 25 -92t66 -27q84 0 118 122q20 70 20 156q0 56 -14 125q-16 79 -39 114q-9 -27 -51 -48.5t-82 -21.5q-73 0 -129 61q-29 -6 -61 -6q-55 0 -88 16q-72 34 -71 117q1 54 23 84q12 14 44 34q48 29 171 29q92 0 160 -16t91 -49q18 -25 21 -52q0 -6 -1 -43z
M321 560q30 -15 60 -15q69 0 96 63q-30 43 -108 67q-63 19 -111 17q-2 -30 11 -67q18 -48 52 -65z" />
    <glyph glyph-name="Ta.ii" 
d="M344 730q-8 41 15 59q-67 3 -96 2q-89 -4 -129 -19q-57 -21 -57 -77q0 -60 58 -85q29 -13 86 -4q-16 43 -19 86q-12 2 -49 2v45q72 6 135 -1q31 -3 56 -8zM542 698q-14 -22 -45 -33l-2 -1q66 -58 95 -164q17 -62 21 -128q7 -111 -14 -195.5t-54 -124.5q-45 -54 -127 -55
t-112 68q-9 -32 -53.5 -52t-84.5 -16q-132 13 -152 179q-10 79 6 154q10 48 40 89q60 82 170 82h82v-43q-82 0 -102 -3q-47 -6 -80 -33q-69 -57 -69 -188q0 -59 18 -106q20 -52 57 -70q19 -9 42 -9q59 0 83 39q19 31 19 77v69h53v-65q0 -65 25 -92t66 -27q84 0 118 122
q20 70 20 156q0 56 -14 125q-16 79 -39 114q-8 -29 -49 -49.5t-82 -20.5q-82 0 -135 65q-30 -5 -61 -5q-53 0 -84 15q-72 34 -71 117q1 79 70 118q51 29 168 29q90 0 170 -11q73 -10 97 -42q21 -28 21 -51q0 -17 -11 -34zM321 560q30 -15 60 -15q69 0 96 63q-30 43 -108 67
q-63 19 -111 17q-2 -30 11 -67q18 -48 52 -65zM396 737q5 -16 24 -27q27 -15 56 -4q21 8 21 31q0 19 -19.5 31.5t-39.5 12.5t-33.5 -12.5t-8.5 -31.5z" />
    <glyph glyph-name="Ja.al" 
d="M279 379h-50q-76 0 -111 -24q-59 -40 -56 -118q4 -103 81 -154q54 -36 165 -36q50 0 101 11q55 12 78 31q72 61 72 141q0 55 -17 85q-19 -39 -54 -57q-42 -22 -82 -22q-24 0 -47 9q-58 21 -76 93q-4 16 -4 41zM526 395q5 20 5 40q0 44 -23 75t-63 31q-54 0 -90 -50
q-19 -27 -24 -68q107 2 139 -7q20 -5 56 -21zM329 379q5 -60 43 -85q16 -10 35 -10q28 0 56 18.5t45 46.5q-23 16 -58 23q-43 9 -121 7zM373 575q17 7 28 7q49 18 62 25q34 18 49 43q9 17 19 35q13 22 29 26h67q-42 -21 -59.5 -66t-70.5 -67q87 -29 86 -147q0 -25 -13 -65
q23 -26 33 -62q15 -53 8 -98q-10 -64 -37 -104.5t-79 -72.5q-55 -34 -185 -34q-119 0 -179 32q-103 55 -118 172q-6 43 2 87q11 66 66 105q23 16 53 24q37 10 147 8q1 45 -24 79t-62 36q-46 3 -79 -26q-36 -31 -30 -83h-49q-2 10 -2 22q0 56 42.5 98.5t127.5 35.5
q74 -6 106 -68q5 9 12 18v220h50v-180z" />
    <glyph glyph-name="Ja.i" 
d="M279 379h-50q-76 0 -111 -24q-59 -40 -56 -118q4 -103 81 -154q54 -36 165 -36q50 0 101 11q55 12 78 31q72 61 72 141q0 55 -17 85q-19 -39 -54 -57q-42 -22 -82 -22q-24 0 -47 9q-58 21 -76 93q-4 16 -4 41zM526 395q5 20 5 40q0 44 -23 75t-63 31q-54 0 -90 -50
q-19 -27 -24 -68q107 2 139 -7q20 -5 56 -21zM329 379q5 -60 43 -85q16 -10 35 -10q28 0 56 18.5t45 46.5q-23 16 -58 23q-43 9 -121 7zM94 562q-28 37 -28 77q0 18 5 38q15 58 80 79q42 13 119 13q141 0 175 -76q12 -26 12 -49q0 -21 -10 -44q32 13 34 15q16 10 31 35
q9 17 19 35q13 22 29 26h67q-42 -21 -59.5 -66t-70.5 -67q87 -29 86 -147q0 -25 -13 -65q23 -26 33 -62q15 -53 8 -98q-10 -64 -37 -104.5t-79 -72.5q-55 -34 -185 -34q-119 0 -179 32q-103 55 -118 172q-6 43 2 87q11 66 66 105q23 16 53 24q37 10 147 8q1 45 -24 79
t-62 36q-46 3 -79 -26q-36 -31 -30 -83h-49q-2 10 -2 22q0 56 43 99q5 7 16 12zM142 581q31 7 63 4q74 -7 106 -68q24 47 72 62q21 22 22 59q1 44 -46 66q-37 18 -91 18q-130 0 -144 -60q-3 -13 -3 -24q0 -32 21 -57z" />
    <glyph glyph-name="Ja.ii" 
d="M279 379h-50q-76 0 -111 -24q-59 -40 -56 -118q4 -103 81 -154q54 -36 165 -36q50 0 101 11q55 12 78 31q72 61 72 141q0 55 -17 85q-19 -39 -54 -57q-42 -22 -82 -22q-24 0 -47 9q-58 21 -76 93q-4 16 -4 41zM526 395q5 20 5 40q0 44 -23 75t-63 31q-54 0 -90 -50
q-19 -27 -24 -68q107 2 139 -7q20 -5 56 -21zM329 379q5 -60 43 -85q16 -10 35 -10q28 0 56 18.5t45 46.5q-23 16 -58 23q-43 9 -121 7zM94 562q-28 37 -28 77q0 18 5 38q15 58 80 79q42 13 119 13q151 0 182 -70q9 -21 9 -43q0 -28 -14 -56q32 13 34 15q16 10 31 35
q9 17 19 35q13 22 29 26h67q-42 -21 -59.5 -66t-70.5 -67q87 -29 86 -147q0 -25 -13 -65q23 -26 33 -62q15 -53 8 -98q-10 -64 -37 -104.5t-79 -72.5q-55 -34 -185 -34q-119 0 -179 32q-103 55 -118 172q-6 43 2 87q11 66 66 105q23 16 53 24q37 10 147 8q1 45 -24 79
t-62 36q-46 3 -79 -26q-36 -31 -30 -83h-49q-2 10 -2 22q0 56 43 99q5 7 16 12zM142 581q31 7 63 4q74 -7 106 -68q22 43 55 54q-9 -2 -17 -2q-51 0 -76 39q-16 25 -16 52q0 41 26 62h-15q-130 0 -144 -60q-3 -13 -3 -24q0 -32 21 -57zM308 664q0 -52 57 -57q17 -1 31.5 11
t16.5 29q3 26 -16 45t-44 19q-45 0 -45 -47z" />
    <glyph glyph-name="kha.al" horiz-adv-x="628" 
d="M563 536q20 -29 33.5 -77.5t14.5 -86.5q2 -123 -16 -192q-27 -100 -63.5 -141t-95.5 -41q-14 0 -30 2q-33 5 -72 49q-37 40 -54 39q-32 -3 -32 -42q0 -10 6 -45h-51q-6 20 -9 70q-3 51 1 75q12 80 64 124q17 14 62 39q29 16 35.5 35t6.5 37q0 46 -36.5 77.5t-94.5 29.5
q-156 -5 -169 -213q-3 -48 10 -103t34 -80q29 -34 66 -40v-51q-28 -5 -66 18q-52 31 -76 99q-26 74 -18 192q5 69 42 127q42 66 103 87q35 12 76 12q77 0 125 -39q64 -53 57 -132q-4 -40 -27 -67q-12 -14 -60 -42q-34 -20 -44 -29q-20 -18 -31 -49t-7 -49q14 13 44 13
q21 0 31 -6q15 -8 40.5 -39t46.5 -41q12 -5 24 -5q33 0 63.5 37.5t44.5 94.5q17 68 17 158q0 27 -2 51q-9 101 -73 153q-46 38 -169 38h-275v45h54q-12 12 -23.5 25t-8.5 37q10 88 245 84q100 -2 148 -14q74 -18 106 -68q22 -35 22 -90h-50q8 57 -46 91q-35 21 -82.5 28.5
t-118.5 7.5q-72 -1 -114 -9q-22 -4 -37 -17q-18 -13 -18 -30q0 -21 30 -41h174q108 0 167 -28q44 -21 76 -68z" />
    <glyph glyph-name="kha.i" horiz-adv-x="628" 
d="M563 536q20 -29 33.5 -77.5t14.5 -86.5q2 -123 -16 -192q-27 -100 -63.5 -141t-95.5 -41q-14 0 -30 2q-33 5 -72 49q-37 40 -54 39q-32 -3 -32 -42q0 -10 6 -45h-51q-6 20 -9 70q-3 51 1 75q12 80 64 124q17 14 62 39q29 16 35.5 35t6.5 37q0 46 -36.5 77.5t-94.5 29.5
q-156 -5 -169 -213q-3 -48 10 -103t34 -80q29 -34 66 -40v-51q-28 -5 -66 18q-52 31 -76 99q-26 74 -18 192q5 69 42 127q42 66 103 87q35 12 76 12q77 0 125 -39q64 -53 57 -132q-4 -40 -27 -67q-12 -14 -60 -42q-34 -20 -44 -29q-20 -18 -31 -49t-7 -49q14 13 44 13
q21 0 31 -6q15 -8 40.5 -39t46.5 -41q12 -5 24 -5q33 0 63.5 37.5t44.5 94.5q17 68 17 158q0 27 -2 51q-9 101 -73 153q-46 38 -169 38h-190q-86 0 -86 76q0 120 268 115q100 -2 148 -14q74 -18 106 -68q22 -35 22 -90h-50q8 57 -46 91q-35 21 -84 29q-34 5 -92 5
q-105 0 -161 -13.5t-56 -48.5q0 -33 51 -33h176q108 0 167 -28q44 -21 76 -68z" />
    <glyph glyph-name="kha.ii" horiz-adv-x="628" 
d="M446 721q-11 -13 -11 -28q0 -24 20 -40t43 -16q34 0 34 31q0 25 -30 38q-25 11 -56 15zM385 662q-4 10 -4 22q0 29 14 41q-34 3 -65 3q-116 1 -180 -14q-57 -14 -57 -49q0 -33 51 -33h176q51 0 95 -6q-18 10 -30 36zM563 536q20 -29 33.5 -77.5t14.5 -86.5
q2 -123 -16 -192q-27 -100 -63.5 -141t-95.5 -41q-14 0 -30 2q-33 5 -72 49q-37 40 -54 39q-32 -3 -32 -42q0 -10 6 -45h-51q-6 20 -9 70q-3 51 1 75q12 80 64 124q17 14 62 39q29 16 35.5 35t6.5 37q0 46 -36.5 77.5t-94.5 29.5q-156 -5 -169 -213q-3 -48 10 -103t34 -80
q29 -34 66 -40v-51q-28 -5 -66 18q-52 31 -76 99q-26 74 -18 192q5 69 42 127q42 66 103 87q35 12 76 12q77 0 125 -39q64 -53 57 -132q-4 -40 -27 -67q-12 -14 -60 -42q-34 -20 -44 -29q-20 -18 -31 -49t-7 -49q14 13 44 13q21 0 31 -6q15 -8 40.5 -39t46.5 -41
q12 -5 24 -5q33 0 63.5 37.5t44.5 94.5q17 68 17 158q0 27 -2 51q-9 101 -73 153q-46 38 -169 38h-190q-86 0 -86 76q0 117 268 117q130 0 185 -17q46 -14 69 -36t23 -57q0 -18 -7.5 -33t-30.5 -26.5t-47 -8.5q38 -22 65 -62z" />
    <glyph glyph-name="cha.al" horiz-adv-x="606" 
d="M461 545q-46 38 -169 38h-275v45h54q-12 12 -23.5 25t-8.5 37q10 88 245 84q100 -2 148 -14q74 -18 106 -68q22 -35 22 -90h-50q8 57 -46 91q-35 21 -82.5 28.5t-118.5 7.5q-72 -1 -114 -9q-22 -4 -37 -17q-18 -13 -18 -30q0 -21 30 -41h174q108 0 167 -28q44 -21 76 -68
q44 -65 48 -163q5 -134 -32 -224t-137 -131q-45 -19 -149 -19q-73 0 -106 10q-56 16 -92 48q-65 58 -65 171q0 97 72 138h-87v43h305q-1 37 -24 66q-17 21 -33.5 27.5t-46.5 6.5q-36 0 -60.5 -10.5t-41 -34.5t-14.5 -49h-46q-1 22 5 42q18 53 69 79q32 16 88 16
q66 0 102 -29t51 -96q3 -14 3 -62h-128q-156 0 -164 -128q-4 -58 21 -103.5t71.5 -65.5t147.5 -20q67 0 123 28q60 29 84 79q34 70 34 186q0 140 -78 204z" />
    <glyph glyph-name="cha.i" horiz-adv-x="606" 
d="M102 583q-86 0 -86 76q0 120 268 115q100 -2 148 -14q74 -18 106 -68q22 -35 22 -90h-50q8 57 -46 91q-35 21 -84 29q-34 5 -92 5q-105 0 -161 -13.5t-56 -48.5q0 -33 51 -33h176q108 0 167 -28q44 -21 76 -68q44 -65 48 -163q5 -134 -32 -224t-137 -131
q-45 -19 -149 -19q-73 0 -106 10q-56 16 -92 48q-65 58 -65 171q0 97 72 138h-87v43h305q-1 37 -24 66q-17 21 -33.5 27.5t-46.5 6.5q-36 0 -60.5 -10.5t-41 -34.5t-14.5 -49h-46q-1 22 5 42q18 53 69 79q32 16 88 16q66 0 102 -29t51 -96q3 -14 3 -62h-128
q-156 0 -164 -128q-4 -58 21 -103.5t71.5 -65.5t147.5 -20q67 0 123 28q60 29 84 79q34 70 34 186q0 140 -78 204q-46 38 -169 38h-190z" />
    <glyph glyph-name="cha.ii" horiz-adv-x="606" 
d="M589 373q5 -134 -32 -224t-137 -131q-45 -19 -149 -19q-73 0 -106 10q-56 16 -92 48q-65 58 -65 171q0 97 72 138h-87v43h305q-1 37 -24 66q-17 21 -33.5 27.5t-46.5 6.5q-36 0 -60.5 -10.5t-41 -34.5t-14.5 -49h-46q-1 22 5 42q18 53 69 79q32 16 88 16q66 0 102 -29
t51 -96q3 -14 3 -62h-128q-156 0 -164 -128q-4 -58 21 -103.5t71.5 -65.5t147.5 -20q67 0 123 28q60 29 84 79q34 70 34 186q0 140 -78 204q-46 38 -169 38h-190q-86 0 -86 76q0 117 268 117q130 0 185 -17q46 -14 69 -36t23 -57q0 -18 -7.5 -33t-30.5 -26.5t-47 -8.5
q40 -23 65 -62q19 -29 33 -77t15 -86zM424 721q-11 -13 -11 -28q0 -24 20 -40t43 -16q34 0 34 31q0 25 -30 38q-25 11 -56 15zM363 662q-4 10 -4 22q0 29 14 41q-34 3 -65 3q-116 1 -180 -14q-57 -14 -57 -49q0 -33 51 -33h176q51 0 95 -6q-18 10 -30 36z" />
    <glyph glyph-name="ja.al" 
d="M559 230q0 50 -13.5 78.5t-46 49.5t-98.5 21h-172q-76 0 -111 -24q-59 -40 -56 -118q4 -103 81 -154q54 -36 165 -36q50 0 101 11q55 12 78 31q72 61 72 141zM373 575q17 7 28 7q49 18 62 25q34 18 49 43q9 17 19 35q13 22 29 26h67q-42 -21 -59.5 -66t-70.5 -67
q12 -4 18 -7q27 -14 45.5 -47t18.5 -71q0 -12 -2 -24h-50q8 108 -88 108q-11 0 -22 -2q-36 -5 -59.5 -41t-20.5 -71q125 1 158 -8q82 -22 108 -111q15 -52 8 -98q-10 -64 -37 -104.5t-79 -72.5q-55 -34 -185 -34q-119 0 -179 32q-103 55 -118 172q-6 43 2 87q11 66 66 105
q23 16 53 24q37 10 147 8q1 45 -24 79t-62 36q-46 3 -79 -26q-36 -31 -30 -83h-49q-2 10 -2 22q0 56 42.5 98.5t127.5 35.5q74 -6 106 -68q5 10 12 17v221h50v-180z" />
    <glyph glyph-name="ja.i" 
d="M559 230q0 50 -13.5 78.5t-46 49.5t-98.5 21h-172q-76 0 -111 -24q-59 -40 -56 -118q4 -103 81 -154q54 -36 165 -36q50 0 101 11q55 12 78 31q72 61 72 141zM447 600q47 20 65 50q9 17 19 35q13 22 29 26h67q-42 -21 -59.5 -66t-70.5 -67q12 -4 18 -7q27 -14 45.5 -47
t18.5 -71q0 -12 -2 -24h-50q8 108 -88 108q-11 0 -22 -2q-36 -5 -59.5 -41t-20.5 -71q125 1 158 -8q82 -22 108 -111q15 -52 8 -98q-10 -64 -37 -104.5t-79 -72.5q-55 -34 -185 -34q-119 0 -179 32q-103 55 -118 172q-6 43 2 87q11 66 66 105q23 16 53 24q37 10 147 8
q1 45 -24 79t-62 36q-46 3 -79 -26q-36 -31 -30 -83h-49q-2 10 -2 22q0 56 43 99q8 8 16 12q-28 37 -28 77q0 18 5 38q15 58 80 79q42 13 119 13q141 0 175 -76q12 -26 12 -49q0 -21 -10 -44zM142 581q31 7 63 4q74 -7 106 -68q24 47 72 62q21 22 22 59q1 44 -46 66
q-37 18 -91 18q-130 0 -144 -60q-3 -13 -3 -24q0 -32 21 -57z" />
    <glyph glyph-name="ja.ii" 
d="M559 230q0 50 -13.5 78.5t-46 49.5t-98.5 21h-172q-76 0 -111 -24q-59 -40 -56 -118q4 -103 81 -154q54 -36 165 -36q50 0 101 11q55 12 78 31q72 61 72 141zM447 600q47 20 65 50q9 17 19 35q13 22 29 26h67q-42 -21 -59.5 -66t-70.5 -67q12 -4 18 -7q27 -14 45.5 -47
t18.5 -71q0 -12 -2 -24h-50q8 108 -88 108q-11 0 -22 -2q-36 -5 -59.5 -41t-20.5 -71q125 1 158 -8q82 -22 108 -111q15 -52 8 -98q-10 -64 -37 -104.5t-79 -72.5q-55 -34 -185 -34q-119 0 -179 32q-103 55 -118 172q-6 43 2 87q11 66 66 105q23 16 53 24q37 10 147 8
q1 45 -24 79t-62 36q-46 3 -79 -26q-36 -31 -30 -83h-49q-2 10 -2 22q0 56 43 99q8 8 16 12q-28 37 -28 77q0 18 5 38q15 58 80 79q42 13 119 13q151 0 182 -70q9 -21 9 -43q0 -28 -14 -56zM142 581q31 7 63 4q74 -7 106 -68q22 43 55 54q-9 -2 -17 -2q-51 0 -76 39
q-16 25 -16 52q0 41 26 62h-15q-130 0 -144 -60q-3 -13 -3 -24q0 -32 21 -57zM308 664q0 -52 57 -57q17 -1 31.5 11t16.5 29q3 26 -16 45t-44 19q-45 0 -45 -47z" />
    <glyph glyph-name="Dha.i" 
d="M539 672h-52q14 33 -1 56q-25 39 -96 51q-54 9 -118 9q-59 0 -119 -16q-64 -17 -73 -70q-1 -8 -1 -16q0 -28 18.5 -52.5t44.5 -31.5t81 -3q-17 45 -21 93q-12 2 -49 2v45q72 6 135 -1q136 -15 202 -70q108 -90 119 -292q7 -124 -12 -200q-21 -84 -54 -124
q-45 -54 -127 -55t-112 68q-9 -32 -51.5 -52t-82.5 -16q-156 16 -160 192q-2 108 67 146h-84v48h308q-1 53 -40 84q-21 17 -67 17q-36 0 -54 -9q-61 -29 -57 -88h-52q-2 23 6 46q18 53 69 79q32 16 90 16q66 0 103.5 -29t52.5 -96q1 -3 5 -69h-135q-66 0 -94 -17
q-48 -29 -58 -76q-5 -25 -5 -50q0 -55 27 -96q30 -46 83 -46q27 0 52 11.5t34 27.5q19 35 19 77v69h53v-65q0 -65 25 -92t66 -27q44 0 78 41q27 33 41 82q18 65 18 160q0 56 -13 122q-15 76 -39 112q-9 -27 -51 -48.5t-82 -21.5q-73 0 -128 60q-29 -5 -59 -5q-55 0 -88 16
q-72 34 -71 117q1 81 70 119q51 28 168 28q92 0 160 -16t91 -49q18 -25 21 -52q0 -6 -1 -43zM321 560q30 -15 60 -15q69 0 96 63q-30 43 -108 67q-63 19 -111 17q-2 -30 11 -67q18 -48 52 -65z" />
    <glyph glyph-name="Dha.ii" 
d="M343 730q-6 41 16 58q-67 3 -96 2q-89 -4 -129 -19q-57 -21 -57 -77q0 -60 58 -85q29 -13 86 -4q-16 43 -19 87q-12 2 -49 2v45q72 6 135 -1q31 -3 55 -8zM542 697q-14 -22 -45 -33l-2 -1q103 -91 114 -287q7 -124 -12 -200q-21 -84 -54 -124q-45 -54 -127 -55t-112 68
q-9 -32 -51.5 -52t-82.5 -16q-156 16 -160 192q-2 108 67 146h-84v48h308q-1 53 -40 84q-21 17 -67 17q-36 0 -54 -9q-61 -29 -57 -88h-52q-2 23 6 46q18 53 69 79q32 16 90 16q66 0 103.5 -29t52.5 -96q1 -3 5 -69h-135q-66 0 -94 -17q-48 -29 -58 -76q-5 -25 -5 -50
q0 -55 27 -96q30 -46 83 -46q27 0 52 11.5t34 27.5q19 35 19 77v69h53v-65q0 -65 25 -92t66 -27q44 0 78 41q27 33 41 82q18 65 18 160q0 56 -13 122q-15 76 -39 112q-9 -27 -51 -48.5t-82 -21.5q-76 0 -130 62l-2 2q-31 -5 -62 -5q-53 0 -84 15q-72 34 -71 117q1 79 69 118
q51 29 169 29q90 0 170 -11q73 -10 97 -42q21 -28 21 -51q0 -17 -11 -34zM321 560q30 -15 60 -15q69 0 96 63q-30 43 -108 67q-63 19 -111 17q-2 -30 11 -67q18 -48 52 -65zM396 736q5 -16 24 -27q27 -15 56 -4q21 8 21 31q0 19 -19.5 31.5t-39.5 12.5t-33.5 -12.5
t-8.5 -31.5z" />
    <glyph glyph-name="Tha.i" horiz-adv-x="606" 
d="M519 671h-52q14 33 -1 56q-25 39 -96 51q-54 9 -118 9q-59 0 -119 -16q-64 -17 -73 -70q-1 -8 -1 -16q0 -28 18.5 -52.5t44.5 -31.5t84 -3q-16 45 -20 90q-12 2 -49 2v45q72 6 135 -1q136 -15 202 -70q103 -86 119 -292q7 -91 -13 -171q-21 -85 -75 -137
q-69 -67 -224 -67q-123 0 -194 61q-53 46 -68 126q-15 78 0 149q10 48 40 84q65 78 171 78h82v-43q-80 0 -103 -3q-47 -7 -80 -33q-46 -37 -60 -91q-9 -34 -6 -91q2 -38 21 -79q16 -33 34 -52q29 -30 79 -45q41 -13 95 -11q118 3 176 57q41 38 60 108q16 61 14 136
q-2 59 -18 127q-15 61 -31 88q-9 -27 -51 -48.5t-82 -21.5q-75 0 -130 62l-1 1q-29 -5 -60 -5q-55 0 -88 16q-72 34 -71 117q1 81 70 119q51 28 168 28q92 0 160 -16t91 -49q18 -25 21 -52q0 -6 -1 -43zM305 556q30 -15 60 -15q69 0 96 63q-30 43 -108 67q-63 19 -111 17
q-2 -30 11 -67q18 -48 52 -65z" />
    <glyph glyph-name="Tha.ii" horiz-adv-x="606" 
d="M326 726q-6 41 16 58q-67 3 -96 2q-89 -4 -129 -19q-57 -21 -57 -77q0 -60 58 -85q29 -13 87 -4q-16 43 -19 87q-12 2 -49 2v45q72 6 135 -1q30 -3 54 -8zM525 693q-13 -22 -46 -33q99 -87 114 -288q7 -91 -13 -171q-21 -85 -75 -137q-69 -67 -224 -67q-123 0 -194 61
q-53 46 -68 126q-15 78 0 149q10 48 40 84q65 78 171 78h82v-43q-80 0 -103 -3q-47 -7 -80 -33q-46 -37 -60 -91q-9 -34 -6 -91q2 -38 21 -79q16 -33 34 -52q29 -30 79 -45q41 -13 95 -11q118 3 176 57q41 38 60 108q16 61 14 136q-2 59 -18 127q-15 61 -31 88
q-9 -27 -51 -48.5t-82 -21.5q-76 0 -130 62l-2 2q-31 -5 -63 -5q-53 0 -84 15q-72 34 -71 117q1 79 69 118q51 29 169 29q90 0 170 -11q73 -10 97 -42q21 -28 21 -51q0 -17 -11 -34zM305 556q30 -15 60 -15q69 0 96 63q-30 43 -108 67q-63 19 -111 17q-2 -30 11 -67
q18 -48 52 -65zM379 732q5 -16 24 -27q27 -15 56 -4q21 8 21 31q0 19 -19.5 31.5t-39.5 12.5t-33.5 -12.5t-8.5 -31.5z" />
    <glyph glyph-name="gna.aa" horiz-adv-x="1326" 
d="M674 564q44 21 138 21q116 0 160 -61q23 -32 29 -67q3 -16 4 -65h-245q-53 0 -94 -42q-45 -47 -47 -125q-2 -116 78 -157q39 -20 128 -20q46 0 95 5q68 7 105 29v-55q-43 -22 -176 -28q-18 -21 -18 -48q0 -30 24 -50q27 -23 79 -24q87 -2 121 44q11 15 11 46q0 18 -6 27
h54q5 -19 5 -38q0 -58 -38 -88q-42 -33 -121 -39q-15 -1 -29 -1q-91 0 -130 43q-26 28 -26 77q0 31 15 51q-88 5 -133 31q-76 44 -88 147q-2 20 -2 39q0 91 40 144t103 68q27 7 89 7h149q0 55 -45 83q-37 23 -92 23q-153 0 -168 -102h-50q-2 44 38 92q-25 8 -54 8
q-81 0 -120 -48q-15 -18 -28 -57q-15 -43 -13 -73q10 7 29 7q48 0 74 -25q42 -40 45 -102q8 -157 -86 -213q-52 -31 -134 -29q-87 2 -138 59q-38 43 -53 108q-18 80 -15 139q3 66 10 96q15 75 60 127q7 8 11 11q-81 -9 -122 -87q-33 -63 -33 -152q0 -93 27 -187
q26 -90 56 -109h-56q-34 33 -58 126q-21 83 -21 152q0 212 112 278q40 24 181 24h93v-46q-15 2 -30 2q-92 0 -132 -56q-43 -59 -48 -162q-3 -55 8 -113q14 -71 42 -107q43 -55 135 -55q50 0 90 34q55 47 51 143q-2 44 -21.5 71t-46.5 27q-7 0 -15 -2q-15 -5 -23 -31
q-10 -31 -16 -37h-45q13 20 13 54q0 123 44 192q60 95 197 86q42 -3 73 -20zM1216 41q-54 -46 -168 -39v46q120 0 165 66q49 72 49 195q0 62 -21 121q-19 56 -45 79q-36 32 -149 32v45q70 -2 75 -2q46 -2 66 -11q60 -25 92 -98q31 -69 32 -167q1 -184 -96 -267z" />
    <glyph glyph-name="kna.aa" horiz-adv-x="1408" 
d="M497 51q41 -5 66 36.5t25 122.5q0 27 -3 57q-14 148 -117 183q-24 8 -74 8q-40 -33 -191 -175h61q-19 -17 -39 -55q-22 -42 -24 -73q-5 -98 81 -106q34 -3 64.5 25.5t30.5 68.5v88h51v-88q0 -36 21 -62.5t48 -29.5zM676 454q-10 55 -43 70t-57 15q-23 0 -61 -8
q-27 -6 -74 -34q68 5 124.5 -50t71.5 -169q4 -30 4 -62q0 -86 -25 -146q-13 -31 -50 -55q-24 -15 -70 -15q-37 0 -59 12q-29 16 -38 44q-8 -22 -34 -38q-32 -19 -74 -19q-94 0 -125 62q-16 33 -16 83q0 62 29 96h-38v48q32 32 107 100q52 50 120 113q-3 14 -24 26.5
t-47 12.5q-25 0 -46 -13q-42 -24 -42 -83q0 -18 5 -35h-51q-7 25 -6 53q2 39 22 67q-61 -24 -91 -95q-24 -58 -24 -134q0 -93 27 -187q26 -90 56 -109h-56q-34 33 -58 126q-21 83 -21 152q0 211 112 278q39 23 108 23q16 0 31 -1q17 3 35 3q47 0 75 -17q24 -15 38 -34
q38 27 74 38q44 13 92 13q92 0 127 -66q3 4 10 13q47 53 180 53q116 0 160 -61q23 -32 29 -67q3 -16 4 -65h-245q-53 0 -94 -42q-45 -47 -47 -125q-2 -116 78 -157q39 -20 128 -20q46 0 95 5q68 7 105 29v-55q-43 -22 -176 -28q-18 -21 -18 -48q0 -30 24 -50q27 -23 79 -24
q87 -2 121 44q11 15 11 46q0 18 -6 27h54q5 -19 5 -38q0 -58 -38 -88q-42 -33 -121 -39q-15 -1 -29 -1q-91 0 -130 43q-26 28 -26 77q0 31 15 51q-88 5 -133 31q-76 44 -88 147q-2 20 -2 39q0 91 40 144t103 68q27 7 89 7h149q0 55 -45 83q-37 23 -92 23q-153 0 -168 -102
h-50q0 10 1 15zM1296 41q-54 -46 -168 -39v46q120 0 165 66q49 72 49 195q0 62 -21 121q-19 56 -45 79q-36 32 -149 32v45q70 -2 75 -2q46 -2 66 -11q60 -25 92 -98q31 -69 32 -167q1 -184 -96 -267z" />
    <glyph glyph-name="kna.u" horiz-adv-x="1142" 
d="M497 51q41 -5 66 36.5t25 122.5q0 27 -3 57q-14 148 -117 183q-24 8 -74 8q-40 -33 -191 -175h61q-19 -17 -39 -55q-22 -42 -24 -73q-5 -98 81 -106q34 -3 64.5 25.5t30.5 68.5v88h51v-88q0 -36 21 -62.5t48 -29.5zM700 225q-3 -115 78 -157q39 -20 128 -20q46 0 96 5
t104 29q2 1 9 8v-265h-448v51h399v137q-44 -10 -136 -14q-34 -1 -59 0q-88 5 -133 31q-76 44 -88 147q-2 19 -2 38q0 90 40.5 144t103.5 69q27 7 89 7h149q0 55 -45 83q-37 23 -92 23q-153 0 -168 -102h-50q0 10 1 15q-10 55 -43 70t-57 15q-23 0 -61 -8q-27 -6 -74 -34
q68 5 124.5 -50t71.5 -169q4 -30 4 -62q0 -86 -25 -146q-13 -31 -50 -55q-24 -15 -70 -15q-37 0 -59 12q-29 16 -38 44q-8 -22 -34 -38q-32 -19 -74 -19q-94 0 -125 62q-16 33 -16 83q0 62 29 96h-38v48q32 32 107 100q52 50 120 113q-3 14 -24 26.5t-47 12.5q-25 0 -46 -13
q-42 -24 -42 -83q0 -18 5 -35h-51q-7 25 -6 53q2 39 22 67q-61 -24 -91 -95q-24 -58 -24 -134q0 -93 27 -187q26 -90 56 -109h-56q-34 33 -58 126q-21 83 -21 152q0 211 112 278q39 23 108 23q16 0 31 -1q17 3 35 3q47 0 75 -17q24 -15 38 -34q38 27 74 38q44 13 92 13
q92 0 127 -66q3 4 10 13q47 53 180 53q116 0 160 -61q23 -32 29 -67q3 -16 4 -65h-245q-53 0 -94 -42q-46 -47 -48 -125z" />
    <glyph glyph-name="kna.uu" horiz-adv-x="1142" 
d="M497 51q41 -5 66 36.5t25 122.5q0 27 -3 57q-14 148 -117 183q-24 8 -74 8q-40 -33 -191 -175h61q-19 -17 -39 -55q-22 -42 -24 -73q-5 -98 81 -106q34 -3 64.5 25.5t30.5 68.5v88h51v-88q0 -36 21 -62.5t48 -29.5zM699 225q-3 -115 78 -157q39 -20 128 -20q46 0 96 5
t104 29q2 1 9 8v-261h-44q-14 39 -61 55q-11 4 -25 4q-40 0 -83 -30q-55 -38 -121 -38q-29 0 -52 10q-66 29 -66 113q0 13 2 28h51q-2 -41 4 -58q12 -31 52 -39q12 -2 22 -2q26 0 77 26q84 44 125 43q48 -1 70 -28v100q-44 -10 -136 -14q-34 -1 -59 0q-88 5 -133 31
q-76 44 -88 147q-2 19 -2 37q0 90 42 146q40 53 103 68q27 7 89 7h149q0 55 -45 83q-37 23 -92 23q-153 0 -168 -102h-50q0 10 1 15q-10 55 -43 70t-57 15q-23 0 -61 -8q-27 -6 -74 -34q68 5 124.5 -50t71.5 -169q4 -30 4 -62q0 -86 -25 -146q-13 -31 -50 -55
q-24 -15 -70 -15q-37 0 -59 12q-29 16 -38 44q-8 -22 -34 -38q-32 -19 -74 -19q-94 0 -125 62q-16 33 -16 83q0 62 29 96h-38v48q32 32 107 100q52 50 120 113q-3 14 -24 26.5t-47 12.5q-25 0 -46 -13q-42 -24 -42 -83q0 -18 5 -35h-51q-7 25 -6 53q2 39 22 67
q-61 -24 -91 -95q-24 -58 -24 -134q0 -93 27 -187q26 -90 56 -109h-56q-34 33 -58 126q-21 83 -21 152q0 211 112 278q39 23 108 23q16 0 31 -1q17 3 35 3q47 0 75 -17q24 -15 38 -34q38 27 74 38q44 13 92 13q92 0 127 -66q3 4 10 13q47 53 180 53q116 0 160 -61
q23 -32 29 -67q3 -16 4 -65h-245q-53 0 -94 -42q-47 -47 -49 -125z" />
    <glyph glyph-name="knaasi.al" horiz-adv-x="806" 
d="M202 303q23 74 117 94q18 4 58 6q49 2 63 3q34 4 34 27q0 30 -41 53q-19 11 -61 18q-36 7 -59 6q-108 -3 -162 -37q-84 -53 -86 -147q19 20 60 20q63 0 77 -43zM81 275q-9 -13 -9 -29q0 -26 21 -41q13 -9 29 -9q28 0 42 22q8 13 8 28q0 26 -21 41q-13 9 -29 9
q-26 0 -41 -21zM736 371q-11 120 -77 174q-46 38 -169 38h-275v45h54q-12 12 -23.5 25t-8.5 37q10 88 245 84q100 -2 148 -14q74 -18 106 -68q22 -35 22 -90h-50q8 57 -46 91q-35 21 -82.5 28.5t-118.5 7.5q-72 -1 -114 -9q-22 -4 -37 -17q-18 -13 -18 -30q0 -21 30 -41h174
q108 0 167 -28q44 -21 76 -68q42 -61 48 -164q7 -117 -12 -196q-21 -84 -54 -124q-45 -54 -127 -55t-112 68q-9 -32 -56.5 -53t-87.5 -15q-123 17 -144 173q-28 -30 -73 -30q-36 0 -59 18q-48 38 -48 142q0 61 13 98q20 58 75 100q73 56 208 56q69 0 125 -18q39 -12 64 -39
q28 -30 28 -70q0 -37 -34 -54q-28 -14 -70 -16q-29 0 -57 -1q-37 -1 -56 -10q-67 -32 -69 -105q-5 -145 73 -183q17 -8 39 -8q28 0 52.5 11t33.5 27q19 35 19 77v69h53v-65q0 -65 25 -92t66 -27q44 0 78 41q27 33 41 82q17 61 17 146q0 27 -2 52z" />
    <glyph glyph-name="pha.i" horiz-adv-x="606" 
d="M519 677h-52q14 33 -1 56q-25 39 -96 51q-54 9 -118 9q-59 0 -119 -16q-64 -17 -73 -70q-1 -8 -1 -16q0 -28 18.5 -52.5t44.5 -31.5t82 -3q-15 43 -18 84q-12 2 -49 2v45q72 6 135 -1q136 -15 202 -70q103 -86 119 -292q2 -22 2 -44q0 -175 -89 -261q-72 -70 -225 -70
q-143 0 -209 57q-54 46 -59 130q-3 41 3 68q11 53 49 88q45 42 133 42h82q2 37 -30.5 70t-72.5 33q-48 0 -76.5 -21.5t-28.5 -57.5q0 -9 2 -18h-51q-2 11 -2 22q0 35 19 63q14 21 44 38.5t87 17.5q41 0 72 -13q35 -13 66 -57q34 -48 26 -123h-153q-55 0 -88 -42.5t-28 -98.5
q5 -63 37 -95t86 -45q42 -10 103 -8q113 3 176 61q80 72 74 240q-2 59 -18 127q-15 61 -31 88q-9 -27 -51 -48.5t-82 -21.5q-86 0 -135 69q-27 -5 -56 -5q-55 0 -88 16q-72 34 -71 117q1 81 70 119q51 28 168 28q92 0 160 -16t91 -49q18 -25 21 -52q0 -6 -1 -43zM305 556
q30 -15 60 -15q69 0 96 63q-30 43 -108 67q-63 19 -111 17q-2 -30 11 -67q18 -48 52 -65z" />
    <glyph glyph-name="pha.ii" horiz-adv-x="606" 
d="M329 726q-6 40 16 58q-67 3 -96 2q-89 -4 -129 -19q-57 -21 -57 -77q0 -60 58 -85q28 -12 84 -5q-15 44 -19 88q-12 2 -49 2v45q72 6 135 -1q32 -3 57 -8zM528 693q-14 -22 -45 -33l-3 -1q98 -87 113 -287q2 -22 2 -44q0 -175 -89 -261q-72 -70 -225 -70q-143 0 -209 57
q-54 46 -59 130q-3 41 3 68q11 53 49 88q45 42 133 42h82q2 37 -30.5 70t-72.5 33q-48 0 -76.5 -21.5t-28.5 -57.5q0 -9 2 -18h-51q-2 11 -2 22q0 35 19 63q14 21 44 38.5t87 17.5q41 0 72 -13q35 -13 66 -57q34 -48 26 -123h-153q-55 0 -88 -42.5t-28 -98.5q5 -63 37 -95
t86 -45q42 -10 103 -8q113 3 176 61q80 72 74 240q-2 59 -18 127q-15 61 -31 88q-9 -27 -51 -48.5t-82 -21.5q-76 0 -130 62l-2 2q-30 -5 -60 -5q-53 0 -84 15q-72 34 -71 117q1 79 69 118q51 29 169 29q90 0 170 -11q73 -10 97 -42q21 -28 21 -51q0 -17 -11 -34zM305 556
q30 -15 60 -15q69 0 96 63q-30 43 -108 67q-63 19 -111 17q-2 -30 11 -67q18 -48 52 -65zM382 732q5 -16 24 -27q27 -15 56 -4q21 8 21 31q0 19 -19.5 31.5t-39.5 12.5t-33.5 -12.5t-8.5 -31.5z" />
    <glyph glyph-name="ta.al" horiz-adv-x="606" 
d="M538 392q-12 101 -75 153q-46 38 -169 38h-275v45h54q-12 12 -23.5 25t-8.5 37q10 88 245 84q100 -2 148 -14q74 -18 106 -68q22 -35 22 -90h-50q8 57 -46 91q-35 21 -82.5 28.5t-118.5 7.5q-72 -1 -114 -9q-22 -4 -37 -17q-18 -13 -18 -30q0 -21 30 -41h174
q108 0 167 -28q44 -21 76 -68q44 -65 48 -163q5 -134 -33 -226q-41 -99 -137 -134q-44 -16 -132 -16q-89 0 -126 17q-130 59 -148 220q-16 144 41 223q62 86 174 86h82v-43q-77 0 -105 -4q-48 -8 -84 -37q-64 -51 -64 -165q0 -54 15 -107q21 -77 87 -115q48 -28 143 -26
q90 2 141 39q55 40 81 119q11 35 14 99q2 53 -2 89z" />
    <glyph glyph-name="ta.i" horiz-adv-x="606" 
d="M102 583q-86 0 -86 76q0 120 268 115q100 -2 148 -14q74 -18 106 -68q22 -35 22 -90h-50q8 57 -46 91q-35 21 -84 29q-34 5 -92 5q-105 0 -161 -13.5t-56 -48.5q0 -33 51 -33h178q108 0 167 -28q44 -21 76 -68q44 -65 48 -163q5 -134 -33 -226q-41 -99 -137 -134
q-44 -16 -132 -16q-89 0 -126 17q-130 59 -148 220q-16 144 41 223q62 86 174 86h82v-43q-77 0 -105 -4q-48 -8 -84 -37q-64 -51 -64 -165q0 -54 15 -107q21 -77 87 -115q48 -28 143 -26q90 2 141 39q55 40 81 119q11 35 14 99q2 53 -2 89q-12 101 -75 153q-46 38 -169 38
h-192z" />
    <glyph glyph-name="ta.ii" horiz-adv-x="606" 
d="M292 583h-190q-86 0 -86 76q0 117 268 117q130 0 185 -17q46 -14 69 -36t23 -57q0 -18 -7.5 -33t-30.5 -26.5t-47 -8.5q44 -25 67 -62q45 -70 48 -163q5 -134 -33 -226q-41 -99 -137 -134q-44 -16 -132 -16q-89 0 -126 17q-130 59 -148 220q-16 144 41 223q62 86 174 86
h82v-43q-77 0 -105 -4q-48 -8 -84 -37q-64 -51 -64 -165q0 -54 15 -107q21 -77 87 -115q48 -28 143 -26q90 2 141 39q55 40 81 119q11 35 14 99q2 53 -2 89q-12 103 -75 153q-48 38 -171 38zM424 721q-11 -13 -11 -28q0 -24 20 -40t43 -16q34 0 34 31q0 25 -30 38
q-25 11 -56 15zM363 662q-4 10 -4 22q0 29 14 41q-34 3 -65 3q-116 1 -180 -14q-57 -14 -57 -49q0 -33 51 -33h176q51 0 95 -6q-18 10 -30 36z" />
    <glyph glyph-name="Da.al" 
d="M483 545q-46 38 -169 38h-275v45h54q-12 12 -23.5 25t-8.5 37q10 88 245 84q100 -2 148 -14q74 -18 106 -68q22 -35 22 -90h-50q8 57 -46 91q-35 21 -82.5 28.5t-118.5 7.5q-72 -1 -114 -9q-22 -4 -37 -17q-18 -13 -18 -30q0 -21 30 -41h174q108 0 167 -28q44 -21 76 -68
q42 -61 48 -164q7 -111 -14 -195.5t-54 -124.5q-45 -54 -127 -55t-112 68q-9 -32 -51.5 -52t-82.5 -16q-152 15 -160 192q-5 120 67 170h-84v48h308q-1 53 -40 84q-21 17 -67 17q-36 0 -54 -9q-61 -29 -57 -88h-52q-2 23 6 46q18 53 69 79q32 16 90 16q66 0 103.5 -29
t52.5 -96q1 -3 5 -69h-138q-63 0 -91 -17q-56 -34 -63 -99q-2 -18 -2 -34q0 -62 25 -106q30 -53 87 -53q27 0 52 11.5t34 27.5q19 35 19 77v69h53v-65q0 -65 25 -92t66 -27q44 0 78 41q27 33 41 82q19 66 19 154q0 22 -2 44q-9 118 -77 174z" />
    <glyph glyph-name="Da.i" 
d="M124 583q-86 0 -86 76q0 120 268 115q100 -2 148 -14q74 -18 106 -68q22 -35 22 -90h-50q8 57 -46 91q-35 21 -84 29q-34 5 -92 5q-105 0 -161 -13.5t-56 -48.5q0 -33 51 -33h176q108 0 167 -28q44 -21 76 -68q42 -61 48 -164q7 -111 -14 -195.5t-54 -124.5
q-45 -54 -127 -55t-112 68q-9 -32 -51.5 -52t-82.5 -16q-152 15 -160 192q-5 120 67 170h-84v48h308q-1 53 -40 84q-21 17 -67 17q-36 0 -54 -9q-61 -29 -57 -88h-52q-2 23 6 46q18 53 69 79q32 16 90 16q66 0 103.5 -29t52.5 -96q1 -3 5 -69h-138q-63 0 -91 -17
q-56 -34 -63 -99q-2 -18 -2 -34q0 -62 25 -106q30 -53 87 -53q27 0 52 11.5t34 27.5q19 35 19 77v69h53v-65q0 -65 25 -92t66 -27q44 0 78 41q27 33 41 82q19 66 19 154q0 22 -2 44q-9 118 -77 174q-46 38 -169 38h-190z" />
    </font>
</defs>
</svg>
