<?xml version="1.0" standalone="no"?>
<!DOCTYPE svg PUBLIC "-//W3C//DTD SVG 1.1//EN" "http://www.w3.org/Graphics/SVG/1.1/DTD/svg11.dtd" >
<svg xmlns="http://www.w3.org/2000/svg" xmlns:xlink="http://www.w3.org/1999/xlink" version="1.1">
<metadata>
Created by FontForge 20201107 at Mon Jun 28 14:39:08 2021
 By 
Copyright 2021 The Yaldevi Project Authors (https://github.com/mooniak/yaldevi-font)
</metadata>
<defs>
<font id="Yaldevi-Light" horiz-adv-x="652" >
  <font-face 
    font-family="Yaldevi Light"
    font-weight="300"
    font-stretch="normal"
    units-per-em="1000"
    panose-1="0 0 0 0 0 0 0 0 0 0"
    ascent="800"
    descent="-200"
    x-height="569"
    cap-height="768"
    bbox="-828 -324 2262 1086"
    underline-thickness="50"
    underline-position="-141"
    unicode-range="U+000D-111F4"
  />
<missing-glyph horiz-adv-x="719" 
d="M661 -105v963h-604v-963h604zM302 85q0 -13 10 -23t24 -10q13 0 23 10t10 23q0 14 -10 24t-23 10q-14 0 -24 -10t-10 -24zM606 804v-856h-495v856h495zM235 527q10 13 24 28t36.5 26t55.5 11q35 0 61 -17t40 -44t14 -59q0 -65 -41.5 -90.5t-117.5 -26.5v-202h56v153
q26 1 54 11.5t51.5 31t38.5 53t14 75.5q-1 71 -45 117.5t-123 46.5q-40 0 -70 -13t-50.5 -32t-33.5 -35z" />
    <glyph glyph-name="fi" unicode="fi" horiz-adv-x="559" 
d="M120 0v678q0 76 38.5 116t95.5 40q21 0 43 -5.5t44 -17.5l-22 -43q-16 7 -31 11.5t-29 4.5q-38 0 -58.5 -30.5t-20.5 -89.5v-664h-60zM407 0v569h59v-569h-59zM37 520v49h403v-49h-403zM437 684q-20 0 -32.5 14t-12.5 36q0 21 12.5 35t32.5 14t32 -14t12 -35
q0 -22 -12 -36t-32 -14z" />
    <glyph glyph-name="fl" unicode="fl" horiz-adv-x="590" 
d="M37 520v49h286v-49h-286zM505 -8q-42 0 -69.5 27.5t-27.5 81.5v724h59v-717q0 -34 12.5 -51t35.5 -17q9 0 19.5 2.5t22.5 7.5l14 -44q-18 -7 -34.5 -10.5t-31.5 -3.5zM120 0v678q0 76 38.5 116t95.5 40q21 0 43 -5.5t44 -17.5l-22 -43q-16 7 -31 11.5t-29 4.5
q-38 0 -58.5 -30.5t-20.5 -89.5v-664h-60z" />
    <glyph glyph-name=".notdef" horiz-adv-x="719" 
d="M661 -105v963h-604v-963h604zM302 85q0 -13 10 -23t24 -10q13 0 23 10t10 23q0 14 -10 24t-23 10q-14 0 -24 -10t-10 -24zM606 804v-856h-495v856h495zM235 527q10 13 24 28t36.5 26t55.5 11q35 0 61 -17t40 -44t14 -59q0 -65 -41.5 -90.5t-117.5 -26.5v-202h56v153
q26 1 54 11.5t51.5 31t38.5 53t14 75.5q-1 71 -45 117.5t-123 46.5q-40 0 -70 -13t-50.5 -32t-33.5 -35z" />
    <glyph glyph-name=".null" horiz-adv-x="0" 
 />
    <glyph glyph-name="nonmarkingreturn" horiz-adv-x="333" 
 />
    <glyph glyph-name="NULL" horiz-adv-x="682" 
 />
    <glyph glyph-name="CR" unicode="&#xd;" horiz-adv-x="682" 
 />
    <glyph glyph-name="space" unicode=" " horiz-adv-x="220" 
 />
    <glyph glyph-name="exclam" unicode="!" horiz-adv-x="275" 
d="M159 183h-49l-11 612h71zM135 -7q-21 0 -33.5 14.5t-12.5 37.5t12.5 36.5t33.5 13.5t34 -13.5t13 -36.5t-13 -37.5t-34 -14.5z" />
    <glyph glyph-name="quotedbl" unicode="&#x22;" horiz-adv-x="323" 
d="M109 603h-43l-12 224h67zM258 603h-43l-12 224h67z" />
    <glyph glyph-name="numbersign" unicode="#" horiz-adv-x="744" 
d="M385 768l-222 -768h-54l223 768h53zM627 768l-220 -768h-55l222 768h53zM723 553v-44h-623v44h623zM643 278v-42l-621 -1v43h621z" />
    <glyph glyph-name="dollar" unicode="$" horiz-adv-x="583" 
d="M284 -9q-50 0 -100.5 16t-95.5 47l30 47q42 -29 84.5 -43t85.5 -14q66 0 106 35t40 104q0 41 -18 68.5t-47 47t-64 35.5t-70 33t-64 40t-47 56.5t-18 82.5q0 61 31 102.5t79.5 63t101.5 21.5q40 0 76 -11.5t63.5 -34.5t42.5 -59l-49 -26q-19 40 -56 59t-81 19
q-38 0 -71.5 -15.5t-53.5 -44.5t-20 -72q0 -45 23.5 -73.5t61 -48t79.5 -38.5t79.5 -43.5t61 -62.5t23.5 -97q0 -63 -28.5 -106.5t-76.5 -65.5t-108 -22zM278 -100v114h45v-114h-45zM278 707v117h45v-117h-45z" />
    <glyph glyph-name="percent" unicode="%" horiz-adv-x="912" 
d="M342 609q0 83 -32.5 127.5t-92.5 44.5q-62 0 -95.5 -44t-33.5 -127q0 -79 34.5 -126.5t93.5 -47.5q56 0 91 47.5t35 125.5zM397 610q0 -65 -23 -114t-64.5 -76.5t-94.5 -27.5q-55 0 -96 27t-63.5 75.5t-22.5 114.5q0 102 50 160t134 58q85 0 132.5 -56.5t47.5 -160.5z
M824 208q0 83 -32.5 128.5t-92.5 45.5q-62 0 -96 -45t-34 -128q0 -79 35 -126.5t94 -47.5q56 0 91 47.5t35 125.5zM879 208q0 -63 -23.5 -112.5t-64.5 -77t-94 -27.5q-55 0 -96 26.5t-63.5 75.5t-22.5 115q0 101 50 159.5t134 58.5q85 0 132.5 -57t47.5 -161zM721 836h-56
l-475 -847l59 -2z" />
    <glyph glyph-name="ampersand" unicode="&#x26;" horiz-adv-x="743" 
d="M305 -9q-63 0 -117 27t-87 78.5t-33 123.5q0 52 23 94t59 78t77 69.5t77 67.5t59 73t23 84q0 50 -26 74.5t-64 24.5q-41 0 -69.5 -25t-29.5 -74q0 -42 25 -95t67 -112t94.5 -119.5t107.5 -119t106.5 -110t91.5 -92.5l-42 -41q-42 42 -96 95.5t-111.5 114t-111.5 124
t-97.5 126.5t-69 121t-25.5 107q0 50 22.5 83t58.5 49.5t77 16.5t76 -16t56.5 -49t21.5 -83q0 -51 -23.5 -93.5t-59.5 -78t-76.5 -69t-77 -68t-59.5 -73t-23 -83.5q0 -56 25.5 -96t67.5 -61.5t90 -21.5t93.5 21t83 64.5t60 113t22.5 166.5h58q0 -108 -27.5 -186.5t-74 -129
t-104.5 -75.5t-118 -25z" />
    <glyph glyph-name="quotesingle" unicode="'" horiz-adv-x="174" 
d="M108 603h-43l-12 224h67z" />
    <glyph glyph-name="parenleft" unicode="(" horiz-adv-x="304" 
d="M287 -171l-51 -26q-74 122 -111 257t-37 272q0 140 37.5 276t111.5 258l50 -25q-70 -115 -105.5 -244t-35.5 -261q0 -133 35.5 -262.5t105.5 -244.5z" />
    <glyph glyph-name="parenright" unicode=")" horiz-adv-x="304" 
d="M21 852l51 26q74 -121 111 -256.5t37 -272.5q0 -140 -37 -275.5t-112 -258.5l-50 25q70 116 105.5 244.5t35.5 260.5q0 133 -35.5 262.5t-105.5 244.5z" />
    <glyph glyph-name="asterisk" unicode="*" horiz-adv-x="422" 
d="M196 676l-19 136q24 10 39 6.5t21.5 -17t1.5 -34.5l-17 -91h-26zM181 645l-137 22q-2 27 5.5 40.5t23 14.5t33.5 -10l82 -44zM204 620l-64 -121q-25 6 -35.5 17.5t-7 26.5t18.5 29l69 65zM236 635l97 -100q-12 -23 -26.5 -29t-27.5 2.5t-21 27.5l-42 84zM231 669l123 61
q17 -20 18.5 -35.5t-10 -24.5t-32.5 -11l-91 -14z" />
    <glyph glyph-name="plus" unicode="+" horiz-adv-x="522" 
d="M233 73v442h58v-442h-58zM33 268v52h457v-52h-457z" />
    <glyph glyph-name="comma" unicode="," horiz-adv-x="201" 
d="M56 -138l-24 19q13 19 23.5 37.5t17 37t9.5 35.5q-20 6 -29 20t-9 30q0 27 15.5 40.5t33.5 13.5q19 0 34.5 -14.5t15.5 -46.5q0 -25 -10.5 -55.5t-30 -61t-46.5 -55.5z" />
    <glyph glyph-name="hyphen" unicode="-" horiz-adv-x="371" 
d="M318 329v-49h-266v49h266z" />
    <glyph glyph-name="period" unicode="." horiz-adv-x="215" 
d="M107 -7q-21 0 -33 14.5t-12 37.5t12 36.5t33 13.5t34 -13.5t13 -36.5t-13 -37.5t-34 -14.5z" />
    <glyph glyph-name="slash" unicode="/" horiz-adv-x="434" 
d="M413 825l-325 -905l-56 1l328 904h53z" />
    <glyph glyph-name="zero" unicode="0" horiz-adv-x="559" 
d="M435 345q0 103 -20 167t-55 94.5t-80 30.5t-80.5 -30.5t-55.5 -95.5t-20 -170q0 -106 20.5 -173t55.5 -98.5t77 -31.5q43 0 78.5 31t57.5 98.5t22 177.5zM492 346q0 -123 -27.5 -201.5t-75.5 -115.5t-112 -37q-95 0 -152.5 84t-57.5 262q0 180 58 262.5t157 82.5
t154.5 -82t55.5 -255z" />
    <glyph glyph-name="one" unicode="1" horiz-adv-x="376" 
d="M211 625l-17 15v-640h54v675h-45l-167 -91l17 -45zM78 0h268v42h-268v-42z" />
    <glyph glyph-name="two" unicode="2" horiz-adv-x="439" 
d="M41 1v28l142 213q20 30 44 65t46 71.5t35.5 72t13.5 67.5q0 38 -16.5 64.5t-43.5 39.5t-57 13q-32 0 -64.5 -16t-53.5 -49l-45 22q20 31 46 51t56.5 29.5t61.5 9.5q44 0 83.5 -18.5t64 -55t24.5 -88.5q0 -39 -16.5 -80.5t-42 -82.5t-53 -79t-48.5 -71l-107 -169l-6 10
h282v-47h-346z" />
    <glyph glyph-name="three" unicode="3" horiz-adv-x="468" 
d="M202 -8q-42 0 -85 15.5t-82 47.5l34 38q31 -27 65.5 -40t68.5 -13q40 0 75 18.5t56 52.5t21 82q0 38 -17 71t-49.5 53t-80.5 20h-61v45h39q47 0 79 19t48 50t16 66q0 38 -16.5 64.5t-43 41t-57.5 14.5t-61.5 -17t-50.5 -51l-45 24q28 47 70.5 68.5t88.5 21.5
q44 0 82.5 -19t63.5 -55t25 -87q0 -42 -19 -80t-56 -62t-88 -24l-1 14q64 0 106 -24.5t63.5 -64.5t21.5 -86q0 -63 -29.5 -108.5t-77 -70t-103.5 -24.5z" />
    <glyph glyph-name="four" unicode="4" horiz-adv-x="522" 
d="M332 0v608h17l-259 -395l-8 10l404 1v-47h-442l-9 39l303 459h48v-675h-54z" />
    <glyph glyph-name="five" unicode="5" horiz-adv-x="460" 
d="M191 -8q-34 0 -70.5 10.5t-71.5 33.5l29 41q29 -19 58.5 -28t55.5 -9q52 0 87.5 25t54 65.5t18.5 85.5q0 43 -19 82t-57.5 64.5t-98.5 25.5q-21 0 -44 -4t-47 -12v303h280v-46h-226v-203q14 3 28.5 4.5t28.5 1.5q71 0 118.5 -31t70.5 -80t23 -103q0 -56 -23.5 -108
t-72 -85t-122.5 -33z" />
    <glyph glyph-name="six" unicode="6" horiz-adv-x="529" 
d="M271 -8q-71 0 -116.5 40.5t-68 111t-22.5 162.5q0 69 13.5 136t41.5 121.5t73.5 87t109.5 32.5q46 0 86 -18.5t66 -52.5l-37 -30q-21 27 -51.5 41t-63.5 14q-54 0 -90.5 -30.5t-56.5 -80t-28 -108.5t-7 -118l-14 1q26 68 76 100t103 32q49 0 92.5 -26.5t71 -74
t27.5 -113.5q0 -58 -24.5 -110t-70 -84.5t-110.5 -32.5zM274 38q36 0 69.5 20t55 59t21.5 97q0 55 -19.5 94t-52 59t-71.5 20q-35 0 -70 -18.5t-57.5 -56t-22.5 -96.5q0 -56 21.5 -96t55 -61t70.5 -21z" />
    <glyph glyph-name="seven" unicode="7" horiz-adv-x="436" 
d="M172 -4l-58 9q46 164 104.5 318.5t126.5 311.5l4 -13h-317v53h368v-40q-76 -173 -131.5 -331t-96.5 -308z" />
    <glyph glyph-name="eight" unicode="8" horiz-adv-x="521" 
d="M256 -8q-57 0 -102 23t-70.5 65t-25.5 98q0 47 18.5 84.5t47.5 63t61 35.5q-26 10 -49.5 30.5t-38.5 51t-15 70.5q0 55 25 93t66.5 57.5t91.5 19.5t89 -19.5t62 -56t23 -90.5q0 -59 -30.5 -101t-77.5 -57q35 -7 64.5 -31t48 -62t18.5 -88q0 -55 -28 -97t-75 -65.5
t-103 -23.5zM260 38q41 0 74.5 18t52.5 50.5t19 73.5q0 51 -19.5 85.5t-53 53t-74.5 18.5q-40 0 -73.5 -18t-53.5 -53t-20 -85q0 -42 20 -74t53 -50.5t75 -18.5zM262 381q55 0 90 34.5t35 99.5q0 61 -35.5 92t-88.5 31q-54 0 -90.5 -31.5t-36.5 -94.5t37 -97t89 -34z" />
    <glyph glyph-name="nine" unicode="9" horiz-adv-x="528" 
d="M258 683q71 0 116.5 -38.5t67 -107.5t21.5 -162q0 -75 -14 -143.5t-43 -123t-73.5 -85.5t-104.5 -31q-44 0 -84.5 18t-67.5 55l36 29q22 -28 54 -42t64 -14q51 0 86 29.5t55.5 78.5t29 109t6.5 122l12 -1q-26 -68 -75.5 -100t-101.5 -32q-49 0 -92.5 26.5t-70 75
t-26.5 113.5q0 59 23.5 109.5t69.5 82.5t112 32zM254 637q-35 0 -68.5 -18t-55 -56t-21.5 -99q0 -59 20.5 -97.5t53.5 -57.5t68 -19q36 0 70.5 19.5t56.5 57.5t22 97q0 57 -21 95t-54.5 58t-70.5 20z" />
    <glyph glyph-name="colon" unicode=":" horiz-adv-x="245" 
d="M123 344q-21 0 -33 14.5t-12 37.5t12 36.5t33 13.5t34 -13.5t13 -36.5t-13 -37.5t-34 -14.5zM123 -7q-21 0 -33 14.5t-12 37.5t12 36.5t33 13.5t34 -13.5t13 -36.5t-13 -37.5t-34 -14.5z" />
    <glyph glyph-name="semicolon" unicode=";" horiz-adv-x="243" 
d="M86 -134l-23 19q12 18 22.5 36.5t17 37t8.5 34.5q-18 6 -27 20t-9 29q0 25 14.5 39t33.5 14q20 0 34.5 -15t14.5 -44q0 -38 -23.5 -85.5t-62.5 -84.5zM121 322q-21 0 -33 14.5t-12 37.5t12 37t33 14q22 0 34.5 -14t12.5 -37t-13 -37.5t-34 -14.5z" />
    <glyph glyph-name="less" unicode="&#x3c;" horiz-adv-x="485" 
d="M360 583l40 -39l-263 -262l263 -251l-40 -43l-299 293z" />
    <glyph glyph-name="equal" unicode="=" horiz-adv-x="624" 
d="M83 343v52h458v-52h-458zM83 191v53h458v-53h-458z" />
    <glyph glyph-name="greater" unicode="&#x3e;" horiz-adv-x="488" 
d="M126 -13l-41 39l263 262l-263 251l41 43l299 -293z" />
    <glyph glyph-name="question" unicode="?" horiz-adv-x="493" 
d="M107 163q-5 20 -7 34t-2 25q0 54 19.5 90.5t49 62.5t63 48.5t63.5 46.5t49 55.5t19 77.5q0 50 -21.5 86t-56 55t-72.5 19q-37 0 -73.5 -19.5t-58.5 -63.5l-51 24q22 38 52.5 63t65 37t70.5 12q53 0 100.5 -25.5t77.5 -72.5t30 -113q0 -50 -19.5 -86t-50.5 -65t-66 -53.5
t-65.5 -50t-50.5 -56t-20 -72.5q0 -8 2 -20.5t6 -31.5zM142 -7q-21 0 -33.5 14.5t-12.5 37.5t12.5 36.5t33.5 13.5t33.5 -13.5t12.5 -36.5t-12.5 -37.5t-33.5 -14.5z" />
    <glyph glyph-name="at" unicode="@" horiz-adv-x="875" 
d="M444 -59q-90 0 -160 28.5t-118 84t-72.5 134.5t-24.5 178q0 87 29 161.5t80.5 129.5t122 85.5t155.5 29.5q78 0 143 -26t112.5 -73t74 -114t26.5 -150q0 -96 -23.5 -160.5t-66.5 -96t-101 -31.5q-53 0 -75 25t-22 75l20 -3q-20 -49 -60.5 -73t-83.5 -24q-36 0 -66.5 15
t-49.5 45.5t-19 74.5q0 63 49.5 100t140.5 37q22 0 45 -1.5t42 -3.5v-39q-20 3 -42 4t-45 1q-51 0 -79.5 -13t-40.5 -35t-12 -48q0 -51 26 -72.5t59 -21.5q29 0 54.5 13t42 38t16.5 62v180q0 48 -26 70t-66 22q-30 0 -63.5 -9.5t-62.5 -27.5l-21 38q34 22 75 32.5t77 10.5
q57 0 98.5 -32.5t41.5 -101.5v-232q0 -34 12 -48.5t41 -14.5q71 0 100 66t29 178q0 97 -38.5 168.5t-106 110.5t-156.5 39q-72 0 -132 -26t-104 -74.5t-68.5 -115t-24.5 -144.5q0 -89 21 -159.5t61.5 -119.5t100.5 -74.5t138 -25.5q44 0 90.5 8.5t87.5 25.5l18 -42
q-44 -19 -96.5 -29t-102.5 -9z" />
    <glyph glyph-name="A" unicode="A" horiz-adv-x="591" 
d="M9 0l244 768h86l241 -768h-67l-178 575q-5 15 -10.5 36.5t-12 44t-12.5 43.5l-10 35h8q-5 -14 -10.5 -35t-12 -44t-12.5 -44t-11 -37l-178 -574h-65zM119 198v50h350v-50h-350z" />
    <glyph glyph-name="B" unicode="B" horiz-adv-x="578" 
d="M220 -3q-28 0 -60 0.5t-67 2.5v768q41 2 86.5 2h89.5q88 0 139 -25.5t73.5 -67.5t22.5 -90q0 -53 -25.5 -95.5t-66.5 -67t-88 -24.5v9q66 0 111.5 -26.5t68.5 -69.5t23 -91q0 -70 -31.5 -121t-99 -77.5t-176.5 -26.5zM154 40l-15 15q29 -3 56 -4.5t49 -1.5
q64 0 112.5 16.5t77 53t28.5 99.5q0 70 -47.5 113t-149.5 43h-143v50h130q94 0 141 43.5t47 107.5q0 66 -42 104.5t-136 38.5q-30 0 -60.5 -1t-63.5 -3l16 16v-690z" />
    <glyph glyph-name="C" unicode="C" horiz-adv-x="581" 
d="M530 114l26 -46q-61 -40 -115.5 -58.5t-107.5 -18.5q-88 0 -152.5 47t-100.5 134.5t-36 209.5q0 96 22 169.5t61.5 123.5t93.5 76t118 26q78 0 139.5 -40.5t93.5 -125.5l-59 -20q-28 70 -73.5 100.5t-102.5 30.5q-105 0 -165.5 -90t-60.5 -250q0 -159 61 -246.5
t169 -87.5q45 0 90 15.5t99 50.5z" />
    <glyph glyph-name="D" unicode="D" horiz-adv-x="640" 
d="M276 772q88 0 149 -30t99 -83.5t55.5 -124.5t17.5 -152q0 -80 -19.5 -150t-59.5 -123t-101 -82.5t-143 -29.5q-41 0 -85 1t-96 2v768q52 1 97 2.5t86 1.5zM274 51q91 0 147.5 44.5t82.5 120t26 166.5q0 69 -14 130t-44 107t-78.5 72t-117.5 26q-27 0 -63 -0.5t-74 -1.5
l15 15v-692l-15 15q38 -1 72.5 -1.5t62.5 -0.5z" />
    <glyph glyph-name="E" unicode="E" horiz-adv-x="527" 
d="M139 53h328v-53h-374v768h364v-53h-318l15 16v-317l-15 13h285v-52h-285l15 15v-353z" />
    <glyph glyph-name="F" unicode="F" horiz-adv-x="503" 
d="M459 715h-320l15 15v-308l-15 14h287v-52h-287l15 13v-397h-61v768h366v-53z" />
    <glyph glyph-name="G" unicode="G" horiz-adv-x="641" 
d="M519 56v269l15 -15h-197v53h243v-307q-65 -34 -124 -50t-108 -16q-91 0 -159.5 46t-106.5 133.5t-38 212.5t39.5 213t107.5 135t155 47q77 0 138.5 -40.5t95.5 -125.5l-58 -21q-30 69 -75.5 100.5t-102.5 31.5q-71 0 -123.5 -42t-81.5 -118t-29 -180q0 -108 30.5 -183.5
t85.5 -114.5t129 -39q46 0 93 15.5t104 45.5z" />
    <glyph glyph-name="H" unicode="H" horiz-adv-x="686" 
d="M530 768h61v-768h-61v386l16 -12h-407l15 12v-386h-61v768h61v-355l-15 12h407l-16 -12v355z" />
    <glyph glyph-name="I" unicode="I" horiz-adv-x="257" 
d="M159 768v-768h-61v768h61z" />
    <glyph glyph-name="J" unicode="J" horiz-adv-x="327" 
d="M107 -9q-23 0 -48.5 6.5t-52.5 20.5l20 51q43 -25 78 -25q33 0 52 28t19 82v614h61v-624q0 -75 -36.5 -114t-92.5 -39z" />
    <glyph glyph-name="K" unicode="K" horiz-adv-x="592" 
d="M586 -6q-13 -3 -26 -3q-25 0 -42.5 13.5t-32.5 40.5l-205 345l19 -10h-160l15 12v-392h-61v768h61v-350l-15 13h159l-16 -8l217 345h64l-241 -382l4 40l208 -353q12 -20 22.5 -28t26.5 -6z" />
    <glyph glyph-name="L" unicode="L" horiz-adv-x="454" 
d="M138 53h306v-53h-351v768h61v-730z" />
    <glyph glyph-name="M" unicode="M" horiz-adv-x="791" 
d="M27 0l108 768h66l160 -520q8 -25 14.5 -51.5l13 -53t13.5 -49.5h-12q8 24 15.5 50.5t15 53.5t15.5 51l169 519h65l93 -768h-63l-56 476q-5 49 -11 102t-11 100h8q-16 -47 -31 -100.5t-32 -102.5l-148 -445l-54 -3l-139 449q-15 50 -29.5 103.5t-29.5 101.5h7
q-6 -48 -13 -102.5t-14 -103.5l-62 -475h-58z" />
    <glyph glyph-name="N" unicode="N" horiz-adv-x="696" 
d="M547 -8l-403 678h7v-670h-58v768l57 8l399 -665h-5v657h59v-768z" />
    <glyph glyph-name="O" unicode="O" horiz-adv-x="671" 
d="M335 -9q-100 0 -164 51.5t-95 140t-31 199.5q0 83 19.5 155t57 125.5t92.5 84t125 30.5q97 0 161 -52.5t95 -141.5t31 -201q0 -82 -19 -153t-56.5 -124.5t-91.5 -83.5t-124 -30zM335 46q74 0 124 44.5t75.5 120.5t25.5 171q0 97 -24.5 173.5t-74 121.5t-123.5 45
t-124.5 -45.5t-76.5 -122t-26 -172.5t24.5 -172t74.5 -120t125 -44z" />
    <glyph glyph-name="P" unicode="P" horiz-adv-x="543" 
d="M94 0v768q41 2 84 2h87q98 0 153.5 -27t79 -74.5t23.5 -106.5q0 -66 -29 -119t-84 -83.5t-133 -30.5h-152v53h125q108 0 158 46t50 122q0 81 -43.5 124.5t-153.5 43.5q-30 0 -61 -1t-59 -3l16 16v-730h-61z" />
    <glyph glyph-name="Q" unicode="Q" horiz-adv-x="669" 
d="M335 -9q-100 0 -164 51.5t-95 140t-31 199.5q0 83 19.5 155t57 125.5t91.5 84t125 30.5q97 0 161 -52.5t95.5 -141.5t31.5 -201q0 -82 -19 -153t-56.5 -124.5t-92 -83.5t-123.5 -30zM608 -113q-53 -18 -102.5 -20.5t-86 14t-54.5 54t-10 97.5h59q-8 -48 5.5 -73.5
t41.5 -34t63 -4.5t70 17zM335 46q74 0 124 44.5t75.5 120.5t25.5 171q0 97 -24.5 173.5t-74 121.5t-123.5 45t-124.5 -45.5t-76.5 -122t-26 -172.5t24.5 -172t74.5 -120t125 -44z" />
    <glyph glyph-name="R" unicode="R" horiz-adv-x="573" 
d="M94 0v768q41 2 84 2h87q86 0 144 -21.5t87 -67t29 -116.5q0 -65 -29 -116t-86.5 -80.5t-144.5 -29.5h-142v53h134q101 0 151.5 42.5t50.5 122.5q0 82 -44 121.5t-156 39.5q-30 0 -61 -1t-59 -3l16 16v-730h-61zM287 367l59 7l153 -302q8 -18 18 -25.5t25 -7.5h3.5h3.5
l3 -45q-6 -2 -14 -2.5t-15 -0.5q-25 0 -43 13t-33 41z" />
    <glyph glyph-name="S" unicode="S" horiz-adv-x="519" 
d="M248 -9q-48 0 -99.5 16.5t-98.5 49.5l29 47q44 -29 88 -44.5t84 -15.5q65 0 108 39t43 111q0 44 -18.5 73t-48.5 50t-65 38t-71 35t-66 42.5t-48.5 60t-18.5 87.5q0 64 32.5 108t82.5 66.5t102 22.5q39 0 75 -12t64.5 -36t44.5 -63l-50 -25q-22 43 -59.5 63t-78.5 20
q-37 0 -71.5 -16.5t-56.5 -48t-22 -77.5q0 -41 18.5 -69t48.5 -47.5t65.5 -36t71.5 -35.5t65.5 -44.5t48 -62.5t18.5 -91q0 -67 -30 -113t-79 -69t-108 -23z" />
    <glyph glyph-name="T" unicode="T" horiz-adv-x="466" 
d="M455 769v-53h-207l15 15v-731h-62v731l15 -15h-207v53h446z" />
    <glyph glyph-name="U" unicode="U" horiz-adv-x="683" 
d="M339 -10q-70 0 -126.5 28.5t-89 93.5t-32.5 172v484h61v-484q0 -92 25.5 -144t68 -73.5t92.5 -21.5q88 0 140 53.5t52 173.5v496h61v-497q0 -96 -32.5 -158t-89.5 -92.5t-130 -30.5z" />
    <glyph glyph-name="V" unicode="V" horiz-adv-x="591" 
d="M253 0l-241 768h67l160 -523q8 -26 16 -53t17 -54.5t16.5 -54t12.5 -48.5h-10l14 52t14.5 53t15 53t14.5 50l166 525h63l-246 -768h-79z" />
    <glyph glyph-name="W" unicode="W" horiz-adv-x="860" 
d="M191 0l-173 768h64l116 -526q6 -26 11.5 -61.5t12 -71t10.5 -62.5h-11q6 27 13 62.5t15 71.5t16 64l141 495l53 2l134 -498q7 -26 14.5 -62t14.5 -71.5t12 -61.5h-12q6 27 12 63t12.5 71.5t12.5 61.5l123 523h59l-184 -768h-61l-131 493q-7 26 -14.5 58.5t-13.5 65.5
t-11 59h10q-5 -26 -12 -59t-14.5 -65.5t-15.5 -59.5l-140 -492h-63z" />
    <glyph glyph-name="X" unicode="X" horiz-adv-x="598" 
d="M594 -4q-7 -2 -13.5 -3t-13.5 -1q-22 0 -39 12t-35 41l-215 332l-255 391h70l222 -346l230 -349q12 -18 21 -25t25 -6zM8 0l262 414l20 12l212 342h64l-240 -386l-20 -11l-232 -371h-66z" />
    <glyph glyph-name="Y" unicode="Y" horiz-adv-x="525" 
d="M229 0v291l-228 477h66l128 -271q23 -46 40.5 -88.5t33.5 -83.5h-15q18 44 35.5 84.5t39.5 85.5l131 273h65l-236 -478v-290h-60z" />
    <glyph glyph-name="Z" unicode="Z" horiz-adv-x="534" 
d="M494 57v-57h-457v52l393 662h-384v55h452v-52l-391 -660h387z" />
    <glyph glyph-name="bracketleft" unicode="[" horiz-adv-x="311" 
d="M100 -197v1062h179v-51h-122v-960h122v-51h-179z" />
    <glyph glyph-name="backslash" unicode="\" horiz-adv-x="440" 
d="M25 825h55l333 -904l-56 -1z" />
    <glyph glyph-name="bracketright" unicode="]" horiz-adv-x="310" 
d="M210 872v-1062h-179v51h122v960h-122v51h179z" />
    <glyph glyph-name="asciicircum" unicode="^" horiz-adv-x="581" 
d="M516 452l-40 -28l-198 291h26l-200 -292l-39 26l226 328z" />
    <glyph glyph-name="underscore" unicode="_" horiz-adv-x="570" 
d="M570 -185v-47h-571v47h571z" />
    <glyph glyph-name="grave" unicode="`" horiz-adv-x="390" 
d="M280 656l-173 115l39 49l163 -125z" />
    <glyph glyph-name="a" unicode="a" horiz-adv-x="487" 
d="M340 115l21 -5q-16 -40 -44 -66.5t-61 -39.5t-66 -13q-48 0 -85.5 19.5t-58.5 57.5t-21 92q0 72 62 118.5t173 46.5q27 0 51 -1.5t47 -6.5v-44q-25 4 -47.5 6t-51.5 2q-65 0 -102.5 -16.5t-53.5 -44t-16 -60.5q0 -59 30 -89t85 -30q27 0 58.5 15t53.5 46.5t22 81.5v223
q0 62 -32 91t-82 29q-34 0 -73 -13t-76 -36l-25 45q42 27 90 41t89 14q47 0 85.5 -18t61 -55.5t22.5 -94.5v-289q0 -42 11 -63t44 -21q5 0 9 0.5t9 1.5l2 -45q-8 -2 -16.5 -2.5t-16.5 -0.5q-54 0 -76 30.5t-22 93.5z" />
    <glyph glyph-name="b" unicode="b" horiz-adv-x="557" 
d="M272 -9q-50 0 -98.5 14t-81.5 33v787h59v-401h-26q28 80 76 117t108 37q56 0 100.5 -31.5t71 -91t26.5 -144.5q0 -94 -29 -166.5t-82 -113t-124 -40.5zM267 41q57 0 96.5 34t60.5 95t21 141q0 74 -21.5 122.5t-55.5 72t-70 23.5q-38 0 -71.5 -22t-54.5 -65t-21 -109v-262
q28 -15 59.5 -22.5t56.5 -7.5z" />
    <glyph glyph-name="c" unicode="c" horiz-adv-x="436" 
d="M254 -9q-97 0 -153.5 76.5t-56.5 217.5q0 91 26.5 156.5t75 101t112.5 35.5q54 0 100 -30t76 -88l-48 -26q-21 43 -56 68.5t-74 25.5q-73 0 -112 -66.5t-39 -178.5q0 -117 43 -179t119 -62q30 0 64.5 9.5t73.5 30.5l19 -42q-47 -26 -90 -37.5t-80 -11.5z" />
    <glyph glyph-name="d" unicode="d" horiz-adv-x="548" 
d="M457 825v-720q0 -40 10 -55t42 -11l2 -46q-39 -5 -63.5 4.5t-36 34.5t-11.5 67v47h27q-25 -79 -74.5 -117t-112.5 -38q-56 0 -101 32.5t-71 92.5t-26 143q0 69 16.5 127t46.5 101.5t73.5 67t97.5 23.5q48 0 91 -13.5t76 -33.5l-42 -33q-28 15 -61 22.5t-58 7.5
q-56 0 -96 -34t-61 -94t-21 -139q0 -73 21.5 -122t55 -73.5t70.5 -24.5q38 0 71.5 19.5t55 60.5t21.5 105v599h58z" />
    <glyph glyph-name="e" unicode="e" horiz-adv-x="500" 
d="M285 -9q-71 0 -125 34t-83.5 100t-29.5 161q0 87 27 152.5t76 102.5t116 37q72 0 116 -34.5t63.5 -96.5t19.5 -142v-25h-385l1 48l324 2q0 36 -6.5 71.5t-22.5 64t-43 46t-68 17.5q-74 0 -115 -67t-41 -179q0 -117 50.5 -179t134.5 -62q35 0 69.5 9t71.5 27l19 -43
q-44 -22 -86.5 -33t-82.5 -11z" />
    <glyph glyph-name="f" unicode="f" horiz-adv-x="337" 
d="M120 0v678q0 76 38.5 116t95.5 40q26 0 52 -7.5t53 -24.5l-23 -42q-21 12 -40.5 18t-36.5 6q-38 0 -58.5 -30.5t-20.5 -89.5v-664h-60zM37 520v49h294v-49h-294z" />
    <glyph glyph-name="g" unicode="g" horiz-adv-x="518" 
d="M384 376q0 52 -18 85.5t-47 50.5t-61 17q-31 0 -60 -17t-47.5 -50.5t-18.5 -85.5q0 -48 18.5 -81t47.5 -49.5t61 -16.5t60.5 16.5t46.5 49t18 81.5zM441 376q0 -64 -26 -107.5t-68 -66t-89 -22.5q-48 0 -89.5 22t-67.5 65.5t-26 108.5q0 67 26.5 111.5t69 67t88.5 22.5
q48 0 89.5 -23t67 -67.5t25.5 -110.5zM494 577v-49l-143 2l-93 39zM177 64l25 -26q-47 -25 -72.5 -56.5t-25.5 -69.5q0 -49 41.5 -76.5t108.5 -27.5q81 0 129 34t48 93q0 45 -36.5 72.5t-99.5 25.5l-93 -2q-37 -1 -63 12t-39.5 33.5t-13.5 44.5q0 31 24 61t74 42l17 -30
q-32 -7 -47.5 -26t-15.5 -37q0 -20 15.5 -35t42.5 -15l101 1q91 1 141.5 -39t50.5 -106q0 -53 -29 -93.5t-82.5 -63t-126.5 -22.5q-61 0 -107 18.5t-72 52t-26 78.5q0 49 34.5 87.5t96.5 69.5z" />
    <glyph glyph-name="h" unicode="h" horiz-adv-x="563" 
d="M415 1v384q0 72 -31.5 108.5t-84.5 36.5q-38 0 -72 -22.5t-55 -67t-21 -111.5v-329h-58v825h58l-1 -406h-20q22 81 70.5 120t107.5 39q52 0 88.5 -21.5t56.5 -63.5t20 -103v-389h-58z" />
    <glyph glyph-name="i" unicode="i" horiz-adv-x="244" 
d="M93 0v569h57v-569h-57zM122 684q-20 0 -32 14t-12 36q0 21 12 35t32 14t32.5 -14t12.5 -35q0 -22 -12.5 -36t-32.5 -14z" />
    <glyph glyph-name="j" unicode="j" horiz-adv-x="249" 
d="M24 -242q-23 0 -49.5 7.5t-54.5 22.5l24 46q20 -12 39 -18.5t36 -6.5q37 0 57.5 29t20.5 83v648h60v-646q0 -77 -37 -121t-96 -44zM128 685q-20 0 -32 14.5t-12 36.5q0 21 12 35t32 14t32.5 -14t12.5 -35q0 -22 -12.5 -36.5t-32.5 -14.5z" />
    <glyph glyph-name="k" unicode="k" horiz-adv-x="497" 
d="M152 0h-59v825h59v-825zM393 45l-149 264h-124v48h141l144 212h63l-179 -258v28l152 -268q11 -19 18 -26.5t18 -7.5h6h8v-44q-6 -1 -11.5 -1.5t-12.5 -0.5q-24 0 -40.5 13t-33.5 41z" />
    <glyph glyph-name="l" unicode="l" horiz-adv-x="267" 
d="M93 101v724h58v-717q0 -34 12.5 -51t36.5 -17q10 0 21.5 2.5t25.5 7.5l1 -47q-14 -5 -28.5 -8t-29.5 -3q-43 0 -70 27.5t-27 81.5z" />
    <glyph glyph-name="m" unicode="m" horiz-adv-x="869" 
d="M778 0h-58v383q0 73 -30.5 110t-78.5 37q-37 0 -69.5 -22.5t-52.5 -68t-20 -113.5v-326h-59v383q0 73 -30.5 110t-82.5 37q-37 0 -70.5 -22.5t-54.5 -68t-21 -113.5v-326h-58v569h55l1 -149h-20q14 53 40.5 88t61.5 52.5t74 17.5q47 0 81 -20.5t55.5 -57.5t26.5 -87h-22
q14 57 40.5 93.5t60.5 54t72 17.5q49 0 84.5 -21.5t55 -63.5t19.5 -103v-390z" />
    <glyph glyph-name="n" unicode="n" horiz-adv-x="565" 
d="M416 0v383q0 72 -31 109.5t-84 37.5q-38 0 -72 -23t-54.5 -68.5t-20.5 -112.5v-326h-60v569h55l2 -149h-19q22 82 69.5 120t108.5 38q51 0 88 -21.5t57 -63.5t20 -103v-390h-59z" />
    <glyph glyph-name="o" unicode="o" horiz-adv-x="549" 
d="M444 283q0 71 -19 126.5t-56 87t-92 31.5q-54 0 -92.5 -32t-58.5 -87t-20 -126q0 -70 19 -125t57 -86t92 -31q56 0 94 31.5t57 86t19 124.5zM507 283q0 -84 -27.5 -150.5t-79.5 -104t-127 -37.5q-78 0 -129 37.5t-75.5 103.5t-24.5 151t28 152t81 105t126 38
q78 0 127.5 -38t75 -104.5t25.5 -152.5z" />
    <glyph glyph-name="p" unicode="p" horiz-adv-x="557" 
d="M92 -232v801h57l2 -148l-27 -1q28 80 75.5 119t109.5 39q55 0 100 -31.5t71.5 -90.5t26.5 -145q0 -93 -29 -166t-82 -113.5t-125 -40.5q-48 0 -95.5 14.5t-79.5 33.5l52 34q28 -14 61 -23t58 -9q57 0 96.5 34.5t60.5 95.5t21 140q0 74 -21.5 122t-55.5 71.5t-70 23.5
q-37 0 -71 -22.5t-55 -66t-21 -106.5v-565h-59z" />
    <glyph glyph-name="q" unicode="q" horiz-adv-x="548" 
d="M277 578q50 0 99 -14t81 -33v-787h-58l-1 404l25 1q-25 -80 -73.5 -119t-108.5 -39q-55 0 -100.5 31.5t-72 91t-26.5 144.5q0 94 29.5 166.5t82 113t123.5 40.5zM283 528q-56 0 -96 -33.5t-61 -94.5t-21 -142q0 -74 21.5 -122t55 -71.5t70.5 -23.5q38 0 71.5 22.5
t54.5 66.5t21 107v261q-28 15 -59.5 22.5t-56.5 7.5z" />
    <glyph glyph-name="r" unicode="r" horiz-adv-x="331" 
d="M93 0v570h54l2 -150h-16q15 73 59.5 115.5t100.5 42.5q10 0 19.5 -1t19.5 -5l-7 -54q-22 7 -41 7q-39 0 -69.5 -25t-47 -68t-16.5 -99v-333h-58z" />
    <glyph glyph-name="s" unicode="s" horiz-adv-x="432" 
d="M211 -9q-43 0 -86.5 14.5t-81.5 42.5l25 42q35 -24 72.5 -37t71.5 -13q45 0 78 28t33 77q0 36 -19 59.5t-49 40t-63 32.5t-63.5 35.5t-49 49t-18.5 73.5q0 46 24 78t61.5 48.5t79.5 16.5q46 0 90.5 -21t68.5 -66l-46 -25q-19 33 -51 48t-64 15q-27 0 -51 -10.5t-39 -31
t-15 -51.5q0 -35 19 -57t49 -39t63 -32.5t63 -36t49 -50t19 -74.5q0 -50 -24.5 -85t-63 -53t-82.5 -18z" />
    <glyph glyph-name="t" unicode="t" horiz-adv-x="350" 
d="M241 -9q-55 0 -89 37.5t-34 111.5v583h59v-569q0 -56 21 -84.5t57 -28.5q14 0 29.5 4.5t32.5 13.5l18 -39q-26 -15 -49.5 -22t-44.5 -7zM24 520v49h294v-49h-294z" />
    <glyph glyph-name="u" unicode="u" horiz-adv-x="575" 
d="M421 121h10q-24 -65 -70 -97.5t-100 -32.5q-82 0 -126.5 49t-44.5 139v390h59v-386q0 -70 32.5 -108t86.5 -38q40 0 74 24t55 69t21 110v329h59v-448q0 -42 11 -63t45 -21q4 0 8.5 0.5t8.5 1.5l3 -45q-9 -2 -17.5 -2.5t-16.5 -0.5q-54 0 -76 31t-22 99z" />
    <glyph glyph-name="v" unicode="v" horiz-adv-x="473" 
d="M410 569h58l-210 -569h-49l-205 569h62l179 -502h-17z" />
    <glyph glyph-name="w" unicode="w" horiz-adv-x="776" 
d="M187 0l-182 569h60l155 -502h-17l158 496l56 4l156 -500h-16l157 502h57l-189 -569h-42l-160 508h16l-168 -508h-41z" />
    <glyph glyph-name="x" unicode="x" horiz-adv-x="472" 
d="M463 -7q-7 -1 -14 -1.5t-13 -0.5q-22 0 -39 11.5t-36 42.5l-146 225l-201 299h70l171 -263l159 -239q13 -18 21.5 -23.5t18.5 -5.5h2.5t2.5 1zM8 0l204 300l14 13l168 256h62l-198 -296l-13 -13l-175 -260h-62z" />
    <glyph glyph-name="y" unicode="y" horiz-adv-x="455" 
d="M459 569l-226 -610q-36 -94 -79.5 -147.5t-111.5 -53.5q-23 0 -49.5 6.5t-59.5 21.5l21 46q26 -13 47 -18t40 -5q37 0 63.5 23.5t49 68t46.5 108.5l-203 560h63l178 -506h-18l180 506h59z" />
    <glyph glyph-name="z" unicode="z" horiz-adv-x="456" 
d="M417 49v-49h-380v34l306 487h-295v48h369v-34l-304 -486h304z" />
    <glyph glyph-name="braceleft" unicode="{" horiz-adv-x="308" 
d="M233 -207q-60 0 -82.5 34t-22.5 104v302q0 44 -19.5 63.5t-61.5 19.5v44q42 1 61.5 20.5t19.5 62.5v295q0 70 22.5 103.5t82.5 33.5q13 0 26 -1t24 -4l-3 -47q-6 1 -12 1h-19q-38 0 -51 -22.5t-13 -69.5v-297q0 -54 -29 -79t-84 -25v14q55 0 84 -25t29 -79v-304
q0 -47 13 -69.5t51 -22.5q13 0 19 0.5t12 1.5l3 -49q-11 -1 -24 -3t-26 -2z" />
    <glyph glyph-name="bar" unicode="|" horiz-adv-x="353" 
d="M202 825v-905h-52l3 905h49z" />
    <glyph glyph-name="braceright" unicode="}" horiz-adv-x="307" 
d="M73 874q60 0 82.5 -34t22.5 -104v-302q0 -44 19.5 -63.5t62.5 -19.5v-44q-42 0 -61.5 -20t-19.5 -63v-295q0 -70 -23 -103.5t-83 -33.5q-12 0 -25 1t-24 4l2 47q6 -1 12.5 -1h18.5q39 0 52 23t13 69v297q0 54 29 79t83 25v-14q-54 0 -83.5 25t-29.5 79v304q0 47 -13 69.5
t-51 22.5h-18.5t-12.5 -2l-2 49q11 2 24 3.5t25 1.5z" />
    <glyph glyph-name="asciitilde" unicode="~" horiz-adv-x="582" 
d="M401 241q-32 0 -58.5 9.5t-52 21.5t-51 21.5t-54.5 9.5q-27 0 -51.5 -9.5t-47.5 -30.5l-33 35q32 31 64 46.5t69 15.5q32 0 59.5 -9.5t53.5 -21.5t51 -21.5t51 -9.5t49 10.5t45 31.5l34 -34q-30 -35 -61 -50t-67 -15z" />
    <glyph glyph-name="uni00A0" unicode="&#xa0;" horiz-adv-x="220" 
 />
    <glyph glyph-name="exclamdown" unicode="&#xa1;" horiz-adv-x="275" 
d="M117 388h48l11 -611h-71zM141 579q20 0 32.5 -14t12.5 -38q0 -23 -12.5 -36.5t-33.5 -13.5t-33.5 13.5t-12.5 36.5q0 24 13 38t34 14z" />
    <glyph glyph-name="cent" unicode="&#xa2;" horiz-adv-x="491" 
d="M259 14q-97 0 -154.5 75t-57.5 207q0 85 27 148.5t75.5 98.5t113.5 35q54 0 100 -30t75 -88l-47 -26q-21 43 -56 68.5t-75 25.5q-48 0 -81.5 -30t-51 -82t-17.5 -121q0 -108 43 -169t118 -61q30 0 64.5 9.5t73.5 30.5l19 -43q-46 -26 -89.5 -37t-79.5 -11zM279 34v-111
h-45v111h45zM279 663v-111h-45v111h45z" />
    <glyph glyph-name="sterling" unicode="&#xa3;" horiz-adv-x="519" 
d="M25 0v53h85l-8 -8v487q0 86 28 140t74 79.5t101 25.5q42 0 85.5 -14t82.5 -41l-27 -47q-34 23 -69.5 35.5t-69.5 12.5q-39 0 -72 -21t-52 -66t-19 -118v-473l-9 8h311v-53h-441zM24 366v52h361v-52h-361z" />
    <glyph glyph-name="currency" unicode="&#xa4;" horiz-adv-x="614" 
d="M300 25q-78 0 -129.5 36t-76 95t-24.5 127t28.5 127.5t81 96.5t125.5 37q77 0 127.5 -36.5t75 -96t24.5 -128.5q0 -67 -27 -126.5t-79 -95.5t-126 -36zM87 -11l-35 29l91 111l33 -31zM521 -9l-93 114l29 34l99 -120zM301 75q56 0 93.5 30t56.5 77.5t19 100.5
q0 54 -18.5 102.5t-55.5 78.5t-92 30t-93 -30.5t-58 -78.5t-20 -102q0 -53 19 -101t56.5 -77.5t92.5 -29.5zM147 440l-94 115l35 29l95 -115zM461 440l-32 33l91 111l35 -30z" />
    <glyph glyph-name="yen" unicode="&#xa5;" horiz-adv-x="594" 
d="M253 0v291l-227 477h67l127 -271q22 -46 40 -88.5t34 -83.5h-16q18 44 36 84.5t40 85.5l129 273h65l-234 -478v-290h-61zM78 160v48h411v-48h-411zM78 290v48h411v-48h-411z" />
    <glyph glyph-name="brokenbar" unicode="&#xa6;" horiz-adv-x="353" 
d="M202 264v-344h-52l3 344h49zM202 825v-342h-52l3 342h49z" />
    <glyph glyph-name="section" unicode="&#xa7;" horiz-adv-x="442" 
d="M313 142l-18 38q19 15 27.5 38.5t8.5 49.5q0 36 -18.5 65t-47.5 54.5t-61.5 51t-62 54t-47.5 63.5t-18 78q0 46 23.5 77.5t61 48.5t78.5 17q32 0 62.5 -10t56.5 -32l-34 -36q-18 15 -41 22t-46 7q-39 0 -71 -23t-32 -70q0 -33 18.5 -61t47.5 -53.5t61.5 -51t61.5 -54.5
t47.5 -63.5t18.5 -78.5q0 -45 -21 -79.5t-55 -51.5zM196 -92q-60 0 -124 32l22 47q26 -13 52.5 -21t51.5 -8q45 0 77 28t33 77q0 35 -18.5 63t-47.5 52t-61.5 48t-61.5 51t-47 61t-18 77q0 33 12 58t33 43t47 27l20 -34q-23 -10 -39 -34t-16 -55q0 -34 18.5 -62t47.5 -52
t62 -49t62 -52.5t47.5 -61.5t18.5 -78q0 -50 -23 -85t-61.5 -53.5t-86.5 -18.5z" />
    <glyph glyph-name="dieresis" unicode="&#xa8;" horiz-adv-x="444" 
d="M124 686q-19 0 -30.5 13.5t-11.5 33.5q0 21 11.5 34t30.5 13t30.5 -13t11.5 -34q0 -20 -12 -33.5t-30 -13.5zM319 686q-19 0 -30 13.5t-11 33.5q0 21 11.5 34t29.5 13q19 0 31 -13t12 -34q0 -20 -12 -33.5t-31 -13.5z" />
    <glyph glyph-name="copyright" unicode="&#xa9;" horiz-adv-x="864" 
d="M435 -2q-81 0 -151.5 29t-122 82t-81 125t-29.5 158t29.5 158t82 124.5t122.5 81.5t152 29q80 0 149 -29t121 -81.5t81.5 -124t29.5 -156.5q0 -86 -29.5 -158.5t-81.5 -126t-121.5 -82.5t-150.5 -29zM436 131q-61 0 -106.5 30t-71 87t-25.5 138q0 83 26 142.5t73 91.5
t107 32q50 0 94.5 -29t72.5 -85l-45 -25q-20 43 -54 67.5t-71 24.5q-69 0 -107 -58.5t-38 -161.5q0 -99 41.5 -153.5t112.5 -54.5q27 0 60.5 10t70.5 30l20 -40q-44 -25 -85.5 -35.5t-74.5 -10.5zM436 44q70 0 129 25.5t103 72.5t68 111t24 140q0 75 -24.5 138t-68.5 110
t-103 72.5t-128 25.5q-70 0 -129.5 -25.5t-104 -72t-69.5 -109.5t-25 -138q0 -76 25 -140t69.5 -111t104.5 -73t129 -26z" />
    <glyph glyph-name="ordfeminine" unicode="&#xaa;" horiz-adv-x="370" 
d="M257 439l15 -4q-18 -43 -53.5 -65t-70.5 -22q-54 0 -87.5 32.5t-33.5 91.5q0 55 45 89t127 34q20 0 37.5 -1t34.5 -5v-39q-18 4 -35.5 5t-37.5 1q-65 0 -90.5 -25t-25.5 -58q0 -40 20.5 -60.5t54.5 -20.5q19 0 40.5 10.5t37 32t15.5 54.5v162q0 43 -23 62.5t-57 19.5
q-25 0 -53 -9t-54 -24l-22 39q35 20 69 29t65 9q55 0 91.5 -30.5t36.5 -91.5v-211q0 -26 8 -39.5t29 -13.5h5.5t6.5 1l2 -42q-7 -1 -13 -1.5t-12 -0.5q-39 0 -55.5 22t-16.5 69z" />
    <glyph glyph-name="guillemotleft" unicode="&#xab;" horiz-adv-x="532" 
d="M124 300l139 -168l-40 -36l-165 203l168 204l40 -34zM305 300l144 -168l-40 -36l-170 203l173 204l39 -34z" />
    <glyph glyph-name="logicalnot" unicode="&#xac;" horiz-adv-x="544" 
d="M39 269v52h454v-52h-454zM435 131v190h58v-190h-58z" />
    <glyph glyph-name="uni00AD" unicode="&#xad;" horiz-adv-x="682" 
d="M318 329v-49h-266v49h266z" />
    <glyph glyph-name="registered" unicode="&#xae;" horiz-adv-x="867" 
d="M295 126v523q29 2 63 2.5t64 0.5q89 0 132.5 -34.5t43.5 -105.5q0 -45 -19 -80.5t-58.5 -55.5t-98.5 -20h-97v41h92q61 0 94.5 28t33.5 81q0 52 -29 78t-99 26q-20 0 -41.5 -1t-40.5 -1l11 15v-497h-51zM427 376l51 5l105 -206q6 -13 10.5 -16.5t13.5 -3.5h3h3l3 -33
q-7 -1 -13 -1.5t-11 -0.5q-21 0 -33.5 10t-21.5 26zM432 -2q-81 0 -150.5 29t-121.5 82t-81.5 125t-29.5 158t29.5 158t82 124.5t122.5 81.5t151 29t150.5 -29t121 -81.5t80.5 -124t29 -156.5q0 -86 -29 -158.5t-81 -126t-122 -82.5t-151 -29zM434 44q70 0 129 25.5
t102.5 72.5t68 111t24.5 140q0 75 -25 138t-69 110t-103 72.5t-128 25.5t-129 -25.5t-104 -72t-68.5 -109.5t-24.5 -138q0 -76 24.5 -140t68.5 -111t104 -73t130 -26z" />
    <glyph glyph-name="macron" unicode="&#xaf;" horiz-adv-x="408" 
d="M346 758v-49h-284v49h284z" />
    <glyph glyph-name="degree" unicode="&#xb0;" horiz-adv-x="398" 
d="M334 698q0 -45 -20 -75.5t-52 -46.5t-66 -16q-33 0 -63 15t-49.5 45.5t-19.5 75.5q0 47 20 78.5t51.5 46.5t65.5 15q33 0 63.5 -15t50 -46t19.5 -77zM286 695q0 49 -28 72t-59 23q-33 0 -60 -22t-27 -68q0 -48 28 -70.5t59 -22.5t59 21.5t28 66.5z" />
    <glyph glyph-name="plusminus" unicode="&#xb1;" horiz-adv-x="552" 
d="M45 28v53h462v-53h-462zM248 152v407h58v-407h-58zM45 330v52h462v-52h-462z" />
    <glyph glyph-name="uni00B2" unicode="&#xb2;" horiz-adv-x="388" 
d="M41 307v27l135 147q43 47 71.5 82.5t28.5 75.5q0 44 -29.5 68.5t-67.5 24.5q-27 0 -52 -13.5t-44 -40.5l-42 24q26 39 64.5 57t77.5 18q38 0 72 -16t55.5 -47t21.5 -75q0 -34 -18.5 -65t-46.5 -61.5t-57 -61.5l-97 -112l-8 17h233v-49h-297z" />
    <glyph glyph-name="uni00B3" unicode="&#xb3;" horiz-adv-x="408" 
d="M189 296q-38 0 -78.5 14t-75.5 42l28 38q28 -24 60 -35.5t63 -11.5q46 0 78.5 25t32.5 72q0 35 -28.5 63t-90.5 28h-49v43h30q60 0 88 26t28 57q0 37 -27.5 56.5t-61.5 19.5q-28 0 -55.5 -12.5t-43.5 -40.5l-40 24q23 38 61.5 55.5t78.5 17.5q37 0 69.5 -13t53 -39
t20.5 -64q0 -28 -15.5 -53.5t-46 -41.5t-77.5 -16v11q55 0 90.5 -17.5t53 -45.5t17.5 -60q0 -46 -22.5 -77.5t-59.5 -48t-81 -16.5z" />
    <glyph glyph-name="acute" unicode="&#xb4;" horiz-adv-x="380" 
d="M133 656l-28 39l162 125l40 -49z" />
    <glyph glyph-name="uni00B5" unicode="&#xb5;" horiz-adv-x="586" 
d="M93 -232v801h58v-386q0 -70 32.5 -108t85.5 -38q40 0 74.5 24t55 69t20.5 110v329h60v-448q0 -42 11 -63t44 -21q5 0 9 0.5t9 1.5l3 -45q-10 -2 -18 -2.5t-16 -0.5q-54 0 -76 31t-22 99h11q-25 -64 -69.5 -97t-99.5 -33q-46 0 -77.5 18.5t-52.5 51.5h14l2 -293h-58z" />
    <glyph glyph-name="paragraph" unicode="&#xb6;" horiz-adv-x="515" 
d="M235 0v438l9 -10q-77 0 -125 21t-70 58.5t-22 90.5q0 45 22 84t64 62.5t103 23.5h78v-768h-59zM361 0v768h60v-768h-60z" />
    <glyph glyph-name="periodcentered" unicode="&#xb7;" horiz-adv-x="218" 
d="M108 265q-18 0 -35 14t-17 43t17 42.5t36 13.5t36 -13.5t17 -42.5q0 -19 -8 -31.5t-20 -19t-26 -6.5z" />
    <glyph glyph-name="cedilla" unicode="&#xb8;" horiz-adv-x="409" 
d="M165 -219q-11 0 -22 1t-24 4l2 46q10 -1 18.5 -2t17.5 -1q43 0 67 20t24 48q0 30 -27.5 60.5t-85.5 48.5h53q54 -14 81 -47t27 -70q0 -28 -15 -52.5t-44 -40t-72 -15.5z" />
    <glyph glyph-name="uni00B9" unicode="&#xb9;" horiz-adv-x="323" 
d="M188 720l-19 19v-432h54v461h-43l-144 -60l17 -45zM71 307h221v44h-221v-44z" />
    <glyph glyph-name="ordmasculine" unicode="&#xba;" horiz-adv-x="426" 
d="M327 562q0 49 -12.5 88t-37 61.5t-62.5 22.5t-64 -23t-39 -61.5t-13 -87.5q0 -74 28.5 -122t85.5 -48q38 0 63.5 22t38 60.5t12.5 87.5zM383 562q0 -62 -20 -111t-58 -76t-94 -27q-57 0 -94 27.5t-55 75.5t-18 111q0 62 20 110.5t59 76.5t93 28q57 0 93.5 -28t55 -76
t18.5 -111z" />
    <glyph glyph-name="guillemotright" unicode="&#xbb;" horiz-adv-x="531" 
d="M386 299l-139 168l40 36l165 -203l-168 -204l-40 34zM205 299l-144 168l40 36l171 -203l-174 -204l-39 34z" />
    <glyph glyph-name="onequarter" unicode="&#xbc;" horiz-adv-x="874" 
d="M169 720l-19 19v-432h54v461h-43l-144 -60l17 -45zM52 307h221v44h-221v-44zM700 836h-56l-475 -847l58 -2zM731 0v416h15l-181 -270l-12 12h288v-45l-324 -1l-5 36l212 315h61v-463h-54z" />
    <glyph glyph-name="onehalf" unicode="&#xbd;" horiz-adv-x="904" 
d="M558 3v27l135 148q42 46 70.5 81.5t28.5 75.5q0 44 -29 69t-67 25q-27 0 -52.5 -13.5t-43.5 -41.5l-42 25q26 39 64 56.5t78 17.5q38 0 71.5 -16t55 -47t21.5 -75q0 -34 -18.5 -65t-46.5 -61t-56 -62l-98 -111l-7 16h232v-49h-296zM169 720l-19 19v-432h55v461h-44
l-144 -60l17 -45zM52 307h222v44h-222v-44zM727 836h-56l-475 -847l59 -2z" />
    <glyph glyph-name="threequarters" unicode="&#xbe;" horiz-adv-x="911" 
d="M189 296q-38 0 -78.5 14t-75.5 42l28 38q28 -24 60 -35.5t63 -11.5q46 0 78.5 25t32.5 72q0 35 -28.5 63t-90.5 28h-49v43h30q60 0 88 26t28 57q0 37 -27.5 56.5t-61.5 19.5q-28 0 -55.5 -12.5t-43.5 -40.5l-40 24q23 38 61.5 55.5t78.5 17.5q37 0 69.5 -13t53 -39
t20.5 -64q0 -28 -15.5 -53.5t-46 -41.5t-77.5 -16v11q55 0 90.5 -17.5t53 -45.5t17.5 -60q0 -46 -22.5 -77.5t-59.5 -48t-81 -16.5zM739 836h-56l-475 -847l58 -2zM768 0v416h15l-181 -270l-12 12h288v-45l-324 -1l-5 36l212 315h61v-463h-54z" />
    <glyph glyph-name="questiondown" unicode="&#xbf;" horiz-adv-x="493" 
d="M385 409q6 -20 7.5 -33.5t1.5 -25.5q0 -53 -19 -90t-49 -63t-63 -48.5t-63 -46.5t-49 -55.5t-19 -77.5q0 -50 21.5 -86t55.5 -55t72 -19t74.5 20t58.5 63l51 -24q-21 -38 -52 -63t-66 -37t-70 -12q-53 0 -100.5 25.5t-77.5 72.5t-30 113q0 50 19.5 86t50.5 65t65.5 53.5
t65.5 50t50.5 56.5t19.5 72q0 8 -1.5 21t-6.5 31zM351 579q21 0 33 -14t12 -38q0 -23 -12 -36.5t-33 -13.5t-34 13.5t-13 36.5q0 24 13 38t34 14z" />
    <glyph glyph-name="Agrave" unicode="&#xc0;" horiz-adv-x="591" 
d="M359 823l-174 115l40 49l162 -125zM9 0l244 768h86l241 -768h-67l-178 575q-5 15 -10.5 36.5t-12 44t-12.5 43.5l-10 35h8q-5 -14 -10.5 -35t-12 -44t-12.5 -44t-11 -37l-178 -574h-65zM119 198v50h350v-50h-350z" />
    <glyph glyph-name="Aacute" unicode="&#xc1;" horiz-adv-x="591" 
d="M9 0l244 768h86l241 -768h-67l-178 575q-5 15 -10.5 36.5t-12 44t-12.5 43.5l-10 35h8q-5 -14 -10.5 -35t-12 -44t-12.5 -44t-11 -37l-178 -574h-65zM119 198v50h350v-50h-350zM258 823l-28 39l162 125l40 -49z" />
    <glyph glyph-name="Acircumflex" unicode="&#xc2;" horiz-adv-x="591" 
d="M9 0l244 768h86l241 -768h-67l-178 575q-5 15 -10.5 36.5t-12 44t-12.5 43.5l-10 35h8q-5 -14 -10.5 -35t-12 -44t-12.5 -44t-11 -37l-178 -574h-65zM119 198v50h350v-50h-350zM447 857l-30 -39l-123 95h10l-120 -94l-29 36l147 124z" />
    <glyph glyph-name="Atilde" unicode="&#xc3;" horiz-adv-x="591" 
d="M9 0l244 768h86l241 -768h-67l-178 575q-5 15 -10.5 36.5t-12 44t-12.5 43.5l-10 35h8q-5 -14 -10.5 -35t-12 -44t-12.5 -44t-11 -37l-178 -574h-65zM119 198v50h350v-50h-350zM430 934l28 -31q-19 -23 -41 -36t-47 -13q-29 0 -50 10.5t-40.5 21t-43.5 10.5
q-18 0 -34.5 -7t-34.5 -21l-28 29q23 24 47 36.5t53 12.5q27 0 47 -10.5t39 -20.5t42 -11q17 0 33 7.5t30 22.5z" />
    <glyph glyph-name="Adieresis" unicode="&#xc4;" horiz-adv-x="591" 
d="M9 0l244 768h86l241 -768h-67l-178 575q-5 15 -10.5 36.5t-12 44t-12.5 43.5l-10 35h8q-5 -14 -10.5 -35t-12 -44t-12.5 -44t-11 -37l-178 -574h-65zM119 198v50h350v-50h-350zM199 853q-19 0 -30.5 13.5t-11.5 33.5q0 21 11.5 34t30.5 13t30.5 -13t11.5 -34
q0 -20 -12 -33.5t-30 -13.5zM394 853q-19 0 -30 13.5t-11 33.5q0 21 11.5 34t29.5 13q19 0 31 -13t12 -34q0 -20 -12 -33.5t-31 -13.5z" />
    <glyph glyph-name="Aring" unicode="&#xc5;" horiz-adv-x="591" 
d="M9 0l244 768h86l241 -768h-67l-178 575q-5 15 -10.5 36.5t-12 44t-12.5 43.5l-10 35h8q-5 -14 -10.5 -35t-12 -44t-12.5 -44t-11 -37l-178 -574h-65zM119 198v50h350v-50h-350zM297 760q-27 0 -52 12t-40 37t-15 62t16 62.5t41.5 38t52.5 12.5t51.5 -12.5t40 -37
t15.5 -62.5q0 -37 -16 -62t-41 -37.5t-53 -12.5zM298 798q25 0 45.5 18t20.5 55t-20.5 55t-45.5 18t-44.5 -18t-19.5 -55q0 -36 20 -54.5t44 -18.5z" />
    <glyph glyph-name="AE" unicode="&#xc6;" horiz-adv-x="924" 
d="M9 0l443 768h85l-46 -34h4q-28 -50 -55 -99t-55 -98l-307 -537h-69zM168 200l19 50h333v-49zM536 53h328v-53h-373v768h363v-53h-318l16 16v-317l-16 13h285v-52h-285l16 15v-353z" />
    <glyph glyph-name="Ccedilla" unicode="&#xc7;" horiz-adv-x="581" 
d="M530 114l26 -46q-61 -40 -115.5 -58.5t-107.5 -18.5q-88 0 -152.5 47t-100.5 134.5t-36 209.5q0 96 22 169.5t61.5 123.5t93.5 76t118 26q78 0 139.5 -40.5t93.5 -125.5l-59 -20q-28 70 -73.5 100.5t-102.5 30.5q-105 0 -165.5 -90t-60.5 -250q0 -159 61 -246.5
t169 -87.5q45 0 90 15.5t99 50.5zM310 -219q-11 0 -22 1t-24 4l2 46q10 -1 18.5 -2t17.5 -1q43 0 67 20t24 48q0 30 -27.5 60.5t-85.5 48.5h53q54 -14 81 -47t27 -70q0 -28 -15 -52.5t-44 -40t-72 -15.5z" />
    <glyph glyph-name="Egrave" unicode="&#xc8;" horiz-adv-x="527" 
d="M339 823l-174 115l40 49l162 -125zM139 53h328v-53h-374v768h364v-53h-318l15 16v-317l-15 13h285v-52h-285l15 15v-353z" />
    <glyph glyph-name="Eacute" unicode="&#xc9;" horiz-adv-x="527" 
d="M139 53h328v-53h-374v768h364v-53h-318l15 16v-317l-15 13h285v-52h-285l15 15v-353zM238 823l-28 39l162 125l40 -49z" />
    <glyph glyph-name="Ecircumflex" unicode="&#xca;" horiz-adv-x="527" 
d="M139 53h328v-53h-374v768h364v-53h-318l15 16v-317l-15 13h285v-52h-285l15 15v-353zM427 857l-30 -39l-123 95h10l-120 -94l-29 36l147 124z" />
    <glyph glyph-name="Edieresis" unicode="&#xcb;" horiz-adv-x="527" 
d="M139 53h328v-53h-374v768h364v-53h-318l15 16v-317l-15 13h285v-52h-285l15 15v-353zM178 853q-19 0 -30.5 13.5t-11.5 33.5q0 21 11.5 34t30.5 13t30.5 -13t11.5 -34q0 -20 -12 -33.5t-30 -13.5zM373 853q-19 0 -30 13.5t-11 33.5q0 21 11.5 34t29.5 13q19 0 31 -13
t12 -34q0 -20 -12 -33.5t-31 -13.5z" />
    <glyph glyph-name="Igrave" unicode="&#xcc;" horiz-adv-x="257" 
d="M191 823l-174 115l40 49l162 -125zM159 768v-768h-61v768h61z" />
    <glyph glyph-name="Iacute" unicode="&#xcd;" horiz-adv-x="257" 
d="M159 768v-768h-61v768h61zM90 823l-28 39l162 125l40 -49z" />
    <glyph glyph-name="Icircumflex" unicode="&#xce;" horiz-adv-x="244" 
d="M259 857l-30 -39l-111 95h11l-109 -93l-28 35l135 124zM159 768v-768h-61v768h61z" />
    <glyph glyph-name="Idieresis" unicode="&#xcf;" horiz-adv-x="244" 
d="M35 853q-19 0 -30.5 13.5t-11.5 33.5q0 21 11.5 34.5t30.5 13.5t30.5 -13.5t11.5 -34.5q0 -20 -11.5 -33.5t-30.5 -13.5zM207 853q-17 0 -29 13.5t-12 33.5q0 21 12 34.5t29 13.5q20 0 31.5 -13.5t11.5 -34.5q0 -20 -11.5 -33.5t-31.5 -13.5zM159 768v-768h-61v768h61z
" />
    <glyph glyph-name="Eth" unicode="&#xd0;" horiz-adv-x="644" 
d="M335 426v-50h-328v50h328zM280 772q87 0 148 -30t99 -83.5t55.5 -124.5t17.5 -152q0 -80 -19.5 -150t-59 -123t-100.5 -82.5t-144 -29.5q-41 0 -84.5 1t-95.5 2v768q52 1 96.5 2.5t86.5 1.5zM278 51q91 0 147 44.5t82 120t26 166.5q0 69 -14 130t-44 107t-78.5 72
t-116.5 26q-27 0 -63.5 -0.5t-74.5 -1.5l16 15v-692l-16 15q38 -1 73 -1.5t63 -0.5z" />
    <glyph glyph-name="Ntilde" unicode="&#xd1;" horiz-adv-x="696" 
d="M547 -8l-403 678h7v-670h-58v768l57 8l399 -665h-5v657h59v-768zM476 934l28 -31q-19 -23 -41 -36t-47 -13q-29 0 -50 10.5t-40.5 21t-43.5 10.5q-18 0 -34.5 -7t-34.5 -21l-28 29q23 24 47 36.5t53 12.5q27 0 47 -10.5t39 -20.5t42 -11q17 0 33 7.5t30 22.5z" />
    <glyph glyph-name="Ograve" unicode="&#xd2;" horiz-adv-x="671" 
d="M401 813l-174 114l40 50l162 -125zM335 -9q-100 0 -164 51.5t-95 140t-31 199.5q0 83 19.5 155t57 125.5t92.5 84t125 30.5q97 0 161 -52.5t95 -141.5t31 -201q0 -82 -19 -153t-56.5 -124.5t-91.5 -83.5t-124 -30zM335 46q74 0 124 44.5t75.5 120.5t25.5 171
q0 97 -24.5 173.5t-74 121.5t-123.5 45t-124.5 -45.5t-76.5 -122t-26 -172.5t24.5 -172t74.5 -120t125 -44z" />
    <glyph glyph-name="Oacute" unicode="&#xd3;" horiz-adv-x="671" 
d="M335 -9q-100 0 -164 51.5t-95 140t-31 199.5q0 83 19.5 155t57 125.5t92.5 84t125 30.5q97 0 161 -52.5t95 -141.5t31 -201q0 -82 -19 -153t-56.5 -124.5t-91.5 -83.5t-124 -30zM335 46q74 0 124 44.5t75.5 120.5t25.5 171q0 97 -24.5 173.5t-74 121.5t-123.5 45
t-124.5 -45.5t-76.5 -122t-26 -172.5t24.5 -172t74.5 -120t125 -44zM300 813l-28 39l162 125l40 -49z" />
    <glyph glyph-name="Ocircumflex" unicode="&#xd4;" horiz-adv-x="671" 
d="M335 -9q-100 0 -164 51.5t-95 140t-31 199.5q0 83 19.5 155t57 125.5t92.5 84t125 30.5q97 0 161 -52.5t95 -141.5t31 -201q0 -82 -19 -153t-56.5 -124.5t-91.5 -83.5t-124 -30zM335 46q74 0 124 44.5t75.5 120.5t25.5 171q0 97 -24.5 173.5t-74 121.5t-123.5 45
t-124.5 -45.5t-76.5 -122t-26 -172.5t24.5 -172t74.5 -120t125 -44zM489 847l-30 -39l-123 95h10l-120 -94l-29 36l147 124z" />
    <glyph glyph-name="Otilde" unicode="&#xd5;" horiz-adv-x="671" 
d="M335 -9q-100 0 -164 51.5t-95 140t-31 199.5q0 83 19.5 155t57 125.5t92.5 84t125 30.5q97 0 161 -52.5t95 -141.5t31 -201q0 -82 -19 -153t-56.5 -124.5t-91.5 -83.5t-124 -30zM335 46q74 0 124 44.5t75.5 120.5t25.5 171q0 97 -24.5 173.5t-74 121.5t-123.5 45
t-124.5 -45.5t-76.5 -122t-26 -172.5t24.5 -172t74.5 -120t125 -44zM472 924l28 -31q-19 -23 -41 -36t-47 -13q-29 0 -50 10.5t-40.5 21t-43.5 10.5q-18 0 -34.5 -7t-34.5 -21l-28 29q23 24 47 36.5t53 12.5q27 0 47 -10.5t39 -20.5t42 -11q17 0 33 7.5t30 22.5z" />
    <glyph glyph-name="Odieresis" unicode="&#xd6;" horiz-adv-x="671" 
d="M335 -9q-100 0 -164 51.5t-95 140t-31 199.5q0 83 19.5 155t57 125.5t92.5 84t125 30.5q97 0 161 -52.5t95 -141.5t31 -201q0 -82 -19 -153t-56.5 -124.5t-91.5 -83.5t-124 -30zM335 46q74 0 124 44.5t75.5 120.5t25.5 171q0 97 -24.5 173.5t-74 121.5t-123.5 45
t-124.5 -45.5t-76.5 -122t-26 -172.5t24.5 -172t74.5 -120t125 -44zM241 843q-19 0 -30.5 13.5t-11.5 33.5q0 21 11.5 34t30.5 13t30.5 -13t11.5 -34q0 -20 -12 -33.5t-30 -13.5zM436 843q-19 0 -30 13.5t-11 33.5q0 21 11.5 34t29.5 13q19 0 31 -13t12 -34q0 -20 -12 -33.5
t-31 -13.5z" />
    <glyph glyph-name="multiply" unicode="&#xd7;" horiz-adv-x="510" 
d="M112 477l324 -325l-38 -38l-325 325zM436 439l-324 -325l-38 37l325 325z" />
    <glyph glyph-name="Oslash" unicode="&#xd8;" horiz-adv-x="671" 
d="M523 835l-328 -917l-46 15l329 916zM335 -9q-100 0 -164 51.5t-95 140t-31 199.5q0 83 19.5 155t57 125.5t92.5 84t125 30.5q97 0 161 -52.5t95 -141.5t31 -201q0 -82 -19 -153t-56.5 -124.5t-91.5 -83.5t-124 -30zM335 46q74 0 124 44.5t75.5 120.5t25.5 171
q0 97 -24.5 173.5t-74 121.5t-123.5 45t-124.5 -45.5t-76.5 -122t-26 -172.5t24.5 -172t74.5 -120t125 -44z" />
    <glyph glyph-name="Ugrave" unicode="&#xd9;" horiz-adv-x="683" 
d="M404 823l-174 115l40 49l162 -125zM339 -10q-70 0 -126.5 28.5t-89 93.5t-32.5 172v484h61v-484q0 -92 25.5 -144t68 -73.5t92.5 -21.5q88 0 140 53.5t52 173.5v496h61v-497q0 -96 -32.5 -158t-89.5 -92.5t-130 -30.5z" />
    <glyph glyph-name="Uacute" unicode="&#xda;" horiz-adv-x="683" 
d="M339 -10q-70 0 -126.5 28.5t-89 93.5t-32.5 172v484h61v-484q0 -92 25.5 -144t68 -73.5t92.5 -21.5q88 0 140 53.5t52 173.5v496h61v-497q0 -96 -32.5 -158t-89.5 -92.5t-130 -30.5zM303 823l-28 39l162 125l40 -49z" />
    <glyph glyph-name="Ucircumflex" unicode="&#xdb;" horiz-adv-x="683" 
d="M339 -10q-70 0 -126.5 28.5t-89 93.5t-32.5 172v484h61v-484q0 -92 25.5 -144t68 -73.5t92.5 -21.5q88 0 140 53.5t52 173.5v496h61v-497q0 -96 -32.5 -158t-89.5 -92.5t-130 -30.5zM492 857l-30 -39l-123 95h10l-120 -94l-29 36l147 124z" />
    <glyph glyph-name="Udieresis" unicode="&#xdc;" horiz-adv-x="683" 
d="M339 -10q-70 0 -126.5 28.5t-89 93.5t-32.5 172v484h61v-484q0 -92 25.5 -144t68 -73.5t92.5 -21.5q88 0 140 53.5t52 173.5v496h61v-497q0 -96 -32.5 -158t-89.5 -92.5t-130 -30.5zM243 853q-19 0 -30.5 13.5t-11.5 33.5q0 21 11.5 34t30.5 13t30.5 -13t11.5 -34
q0 -20 -12 -33.5t-30 -13.5zM438 853q-19 0 -30 13.5t-11 33.5q0 21 11.5 34t29.5 13q19 0 31 -13t12 -34q0 -20 -12 -33.5t-31 -13.5z" />
    <glyph glyph-name="Yacute" unicode="&#xdd;" horiz-adv-x="525" 
d="M229 0v291l-228 477h66l128 -271q23 -46 40.5 -88.5t33.5 -83.5h-15q18 44 35.5 84.5t39.5 85.5l131 273h65l-236 -478v-290h-60zM225 823l-28 39l162 125l40 -49z" />
    <glyph glyph-name="Thorn" unicode="&#xde;" horiz-adv-x="548" 
d="M123 179v54h125q108 0 158 46.5t50 122.5q0 80 -43.5 124t-153.5 43l-137 -1v53l143 1q98 1 153.5 -27t79 -75t23.5 -107q0 -66 -29 -119t-84 -84t-133 -31h-152zM94 0v768h61v-768h-61z" />
    <glyph glyph-name="germandbls" unicode="&#xdf;" horiz-adv-x="623" 
d="M415 -9q-29 0 -64 10.5t-68 30.5l22 44q31 -17 60.5 -26.5t51.5 -9.5q24 0 46 13.5t37 39t15 62.5q0 35 -16.5 60.5t-41.5 45.5t-54 38.5t-54 39t-41 47.5t-16 64t16 61.5t39.5 42t47.5 35.5t40 42t16 62q0 32 -19.5 53t-50 32t-64.5 11q-59 0 -98 -36.5t-39 -118.5v-634
h-60v640q0 50 16 86.5t43.5 60.5t63.5 35.5t78 11.5q47 0 90.5 -15t71 -45.5t27.5 -77.5q0 -42 -16 -71t-40 -49.5t-48 -38t-40 -37.5t-16 -48t16 -48t41.5 -38.5t54 -37t54 -42t42 -54.5t16.5 -75q0 -55 -24 -92t-61 -55.5t-74 -18.5zM37 520v49h118v-49h-118z" />
    <glyph glyph-name="agrave" unicode="&#xe0;" horiz-adv-x="487" 
d="M291 656l-174 115l40 49l162 -125zM340 115l21 -5q-16 -40 -44 -66.5t-61 -39.5t-66 -13q-48 0 -85.5 19.5t-58.5 57.5t-21 92q0 72 62 118.5t173 46.5q27 0 51 -1.5t47 -6.5v-44q-25 4 -47.5 6t-51.5 2q-65 0 -102.5 -16.5t-53.5 -44t-16 -60.5q0 -59 30 -89t85 -30
q27 0 58.5 15t53.5 46.5t22 81.5v223q0 62 -32 91t-82 29q-34 0 -73 -13t-76 -36l-25 45q42 27 90 41t89 14q47 0 85.5 -18t61 -55.5t22.5 -94.5v-289q0 -42 11 -63t44 -21q5 0 9 0.5t9 1.5l2 -45q-8 -2 -16.5 -2.5t-16.5 -0.5q-54 0 -76 30.5t-22 93.5z" />
    <glyph glyph-name="aacute" unicode="&#xe1;" horiz-adv-x="487" 
d="M340 115l21 -5q-16 -40 -44 -66.5t-61 -39.5t-66 -13q-48 0 -85.5 19.5t-58.5 57.5t-21 92q0 72 62 118.5t173 46.5q27 0 51 -1.5t47 -6.5v-44q-25 4 -47.5 6t-51.5 2q-65 0 -102.5 -16.5t-53.5 -44t-16 -60.5q0 -59 30 -89t85 -30q27 0 58.5 15t53.5 46.5t22 81.5v223
q0 62 -32 91t-82 29q-34 0 -73 -13t-76 -36l-25 45q42 27 90 41t89 14q47 0 85.5 -18t61 -55.5t22.5 -94.5v-289q0 -42 11 -63t44 -21q5 0 9 0.5t9 1.5l2 -45q-8 -2 -16.5 -2.5t-16.5 -0.5q-54 0 -76 30.5t-22 93.5zM190 656l-28 39l162 125l40 -49z" />
    <glyph glyph-name="acircumflex" unicode="&#xe2;" horiz-adv-x="487" 
d="M340 115l21 -5q-16 -40 -44 -66.5t-61 -39.5t-66 -13q-48 0 -85.5 19.5t-58.5 57.5t-21 92q0 72 62 118.5t173 46.5q27 0 51 -1.5t47 -6.5v-44q-25 4 -47.5 6t-51.5 2q-65 0 -102.5 -16.5t-53.5 -44t-16 -60.5q0 -59 30 -89t85 -30q27 0 58.5 15t53.5 46.5t22 81.5v223
q0 62 -32 91t-82 29q-34 0 -73 -13t-76 -36l-25 45q42 27 90 41t89 14q47 0 85.5 -18t61 -55.5t22.5 -94.5v-289q0 -42 11 -63t44 -21q5 0 9 0.5t9 1.5l2 -45q-8 -2 -16.5 -2.5t-16.5 -0.5q-54 0 -76 30.5t-22 93.5zM379 690l-30 -39l-123 95h10l-120 -94l-29 36l147 124z
" />
    <glyph glyph-name="atilde" unicode="&#xe3;" horiz-adv-x="487" 
d="M340 115l21 -5q-16 -40 -44 -66.5t-61 -39.5t-66 -13q-48 0 -85.5 19.5t-58.5 57.5t-21 92q0 72 62 118.5t173 46.5q27 0 51 -1.5t47 -6.5v-44q-25 4 -47.5 6t-51.5 2q-65 0 -102.5 -16.5t-53.5 -44t-16 -60.5q0 -59 30 -89t85 -30q27 0 58.5 15t53.5 46.5t22 81.5v223
q0 62 -32 91t-82 29q-34 0 -73 -13t-76 -36l-25 45q42 27 90 41t89 14q47 0 85.5 -18t61 -55.5t22.5 -94.5v-289q0 -42 11 -63t44 -21q5 0 9 0.5t9 1.5l2 -45q-8 -2 -16.5 -2.5t-16.5 -0.5q-54 0 -76 30.5t-22 93.5zM362 767l28 -31q-19 -23 -41 -36t-47 -13q-29 0 -50 10.5
t-40.5 21t-43.5 10.5q-18 0 -34.5 -7t-34.5 -21l-28 29q23 24 47 36.5t53 12.5q27 0 47 -10.5t39 -20.5t42 -11q17 0 33 7.5t30 22.5z" />
    <glyph glyph-name="adieresis" unicode="&#xe4;" horiz-adv-x="487" 
d="M340 115l21 -5q-16 -40 -44 -66.5t-61 -39.5t-66 -13q-48 0 -85.5 19.5t-58.5 57.5t-21 92q0 72 62 118.5t173 46.5q27 0 51 -1.5t47 -6.5v-44q-25 4 -47.5 6t-51.5 2q-65 0 -102.5 -16.5t-53.5 -44t-16 -60.5q0 -59 30 -89t85 -30q27 0 58.5 15t53.5 46.5t22 81.5v223
q0 62 -32 91t-82 29q-34 0 -73 -13t-76 -36l-25 45q42 27 90 41t89 14q47 0 85.5 -18t61 -55.5t22.5 -94.5v-289q0 -42 11 -63t44 -21q5 0 9 0.5t9 1.5l2 -45q-8 -2 -16.5 -2.5t-16.5 -0.5q-54 0 -76 30.5t-22 93.5zM131 686q-19 0 -30.5 13.5t-11.5 33.5q0 21 11.5 34
t30.5 13t30.5 -13t11.5 -34q0 -20 -12 -33.5t-30 -13.5zM326 686q-19 0 -30 13.5t-11 33.5q0 21 11.5 34t29.5 13q19 0 31 -13t12 -34q0 -20 -12 -33.5t-31 -13.5z" />
    <glyph glyph-name="aring" unicode="&#xe5;" horiz-adv-x="487" 
d="M340 115l21 -5q-16 -40 -44 -66.5t-61 -39.5t-66 -13q-48 0 -85.5 19.5t-58.5 57.5t-21 92q0 72 62 118.5t173 46.5q27 0 51 -1.5t47 -6.5v-44q-25 4 -47.5 6t-51.5 2q-65 0 -102.5 -16.5t-53.5 -44t-16 -60.5q0 -59 30 -89t85 -30q27 0 58.5 15t53.5 46.5t22 81.5v223
q0 62 -32 91t-82 29q-34 0 -73 -13t-76 -36l-25 45q42 27 90 41t89 14q47 0 85.5 -18t61 -55.5t22.5 -94.5v-289q0 -42 11 -63t44 -21q5 0 9 0.5t9 1.5l2 -45q-8 -2 -16.5 -2.5t-16.5 -0.5q-54 0 -76 30.5t-22 93.5zM231 628q-27 0 -52 12t-40 37t-15 62t16 62.5t41.5 38
t52.5 12.5t51.5 -12.5t40 -37t15.5 -62.5q0 -37 -16 -62t-41 -37.5t-53 -12.5zM232 666q25 0 45.5 18t20.5 55t-20.5 55t-45.5 18t-44.5 -18t-19.5 -55q0 -36 20 -54.5t44 -18.5z" />
    <glyph glyph-name="ae" unicode="&#xe6;" horiz-adv-x="787" 
d="M190 -9q-48 0 -85.5 19.5t-58.5 57.5t-21 92q0 72 62 118.5t173 46.5q27 0 51 -1.5t47 -6.5v-45q-25 5 -47.5 6.5t-51.5 1.5q-65 0 -102.5 -16t-53.5 -43.5t-16 -60.5q0 -59 30 -89t85 -30q27 0 58.5 15t53.5 46.5t22 81.5v223q0 62 -32 91t-82 29q-34 0 -73 -13t-76 -36
l-25 45q42 27 90 41t89 14q62 0 107.5 -33t54.5 -101h-20q25 62 72 98t112 36q72 0 116 -34.5t64 -96.5t20 -142v-24h-386v47l325 2q0 36 -6.5 71.5t-23 64t-43 46t-67.5 17.5q-50 0 -85 -30.5t-53 -85.5t-18 -130q0 -117 50.5 -179t133.5 -62q35 0 69.5 9t71.5 27l19 -43
q-44 -22 -86.5 -33t-81.5 -11q-71 0 -124 34.5t-82 98.5h3q-14 -46 -44.5 -75.5t-66 -43.5t-68.5 -14z" />
    <glyph glyph-name="ccedilla" unicode="&#xe7;" horiz-adv-x="436" 
d="M254 -9q-97 0 -153.5 76.5t-56.5 217.5q0 91 26.5 156.5t75 101t112.5 35.5q54 0 100 -30t76 -88l-48 -26q-21 43 -56 68.5t-74 25.5q-73 0 -112 -66.5t-39 -178.5q0 -117 43 -179t119 -62q30 0 64.5 9.5t73.5 30.5l19 -42q-47 -26 -90 -37.5t-80 -11.5zM223 -219
q-11 0 -22 1t-24 4l2 46q10 -1 18.5 -2t17.5 -1q43 0 67 20t24 48q0 30 -27.5 60.5t-85.5 48.5h53q54 -14 81 -47t27 -70q0 -28 -15 -52.5t-44 -40t-72 -15.5z" />
    <glyph glyph-name="egrave" unicode="&#xe8;" horiz-adv-x="500" 
d="M336 656l-174 115l40 49l162 -125zM285 -9q-71 0 -125 34t-83.5 100t-29.5 161q0 87 27 152.5t76 102.5t116 37q72 0 116 -34.5t63.5 -96.5t19.5 -142v-25h-385l1 48l324 2q0 36 -6.5 71.5t-22.5 64t-43 46t-68 17.5q-74 0 -115 -67t-41 -179q0 -117 50.5 -179t134.5 -62
q35 0 69.5 9t71.5 27l19 -43q-44 -22 -86.5 -33t-82.5 -11z" />
    <glyph glyph-name="eacute" unicode="&#xe9;" horiz-adv-x="500" 
d="M285 -9q-71 0 -125 34t-83.5 100t-29.5 161q0 87 27 152.5t76 102.5t116 37q72 0 116 -34.5t63.5 -96.5t19.5 -142v-25h-385l1 48l324 2q0 36 -6.5 71.5t-22.5 64t-43 46t-68 17.5q-74 0 -115 -67t-41 -179q0 -117 50.5 -179t134.5 -62q35 0 69.5 9t71.5 27l19 -43
q-44 -22 -86.5 -33t-82.5 -11zM235 656l-28 39l162 125l40 -49z" />
    <glyph glyph-name="ecircumflex" unicode="&#xea;" horiz-adv-x="500" 
d="M285 -9q-71 0 -125 34t-83.5 100t-29.5 161q0 87 27 152.5t76 102.5t116 37q72 0 116 -34.5t63.5 -96.5t19.5 -142v-25h-385l1 48l324 2q0 36 -6.5 71.5t-22.5 64t-43 46t-68 17.5q-74 0 -115 -67t-41 -179q0 -117 50.5 -179t134.5 -62q35 0 69.5 9t71.5 27l19 -43
q-44 -22 -86.5 -33t-82.5 -11zM424 690l-30 -39l-123 95h10l-120 -94l-29 36l147 124z" />
    <glyph glyph-name="edieresis" unicode="&#xeb;" horiz-adv-x="500" 
d="M285 -9q-71 0 -125 34t-83.5 100t-29.5 161q0 87 27 152.5t76 102.5t116 37q72 0 116 -34.5t63.5 -96.5t19.5 -142v-25h-385l1 48l324 2q0 36 -6.5 71.5t-22.5 64t-43 46t-68 17.5q-74 0 -115 -67t-41 -179q0 -117 50.5 -179t134.5 -62q35 0 69.5 9t71.5 27l19 -43
q-44 -22 -86.5 -33t-82.5 -11zM175 686q-19 0 -30.5 13.5t-11.5 33.5q0 21 11.5 34t30.5 13t30.5 -13t11.5 -34q0 -20 -12 -33.5t-30 -13.5zM370 686q-19 0 -30 13.5t-11 33.5q0 21 11.5 34t29.5 13q19 0 31 -13t12 -34q0 -20 -12 -33.5t-31 -13.5z" />
    <glyph glyph-name="igrave" unicode="&#xec;" horiz-adv-x="244" 
d="M169 656l-174 115l40 49l162 -125zM93 0v569h57v-569h-57z" />
    <glyph glyph-name="iacute" unicode="&#xed;" horiz-adv-x="244" 
d="M93 0v569h57v-569h-57zM84 656l-28 39l162 125l40 -49z" />
    <glyph glyph-name="icircumflex" unicode="&#xee;" horiz-adv-x="244" 
d="M258 687l-32 -36l-107 95h10l-107 -94l-31 32l136 128zM93 0v569h57v-569h-57z" />
    <glyph glyph-name="idieresis" unicode="&#xef;" horiz-adv-x="244" 
d="M39 686q-20 0 -31.5 13.5t-11.5 33.5q0 21 11.5 34t31.5 13q18 0 29.5 -13t11.5 -34q0 -20 -11.5 -33.5t-29.5 -13.5zM205 686q-17 0 -29 13.5t-12 33.5q0 21 12 34t29 13q20 0 32 -13t12 -34q0 -20 -12 -33.5t-32 -13.5zM93 0v569h57v-569h-57z" />
    <glyph glyph-name="eth" unicode="&#xf0;" horiz-adv-x="549" 
d="M274 -9q-74 0 -125.5 35t-78 98t-26.5 143q0 79 29 141.5t81.5 99t124.5 36.5q35 0 70 -13.5t62.5 -40t41.5 -65.5h-8q-6 120 -41 198.5t-93 117t-130 38.5q-18 0 -40 -2.5t-40 -7.5l-14 48q23 6 48.5 9.5t48.5 3.5q103 0 175.5 -57.5t110.5 -162t38 -248.5
q0 -192 -61 -281.5t-173 -89.5zM274 43q56 0 94 30.5t57.5 83.5t19.5 117q0 60 -18.5 109t-55.5 79t-94 30q-54 0 -92.5 -31t-58 -81.5t-19.5 -113.5q0 -62 19 -112.5t56.5 -80.5t91.5 -30zM202 646l-25 38l250 176l26 -36z" />
    <glyph glyph-name="ntilde" unicode="&#xf1;" horiz-adv-x="565" 
d="M416 0v383q0 72 -31 109.5t-84 37.5q-38 0 -72 -23t-54.5 -68.5t-20.5 -112.5v-326h-60v569h55l2 -149h-19q22 82 69.5 120t108.5 38q51 0 88 -21.5t57 -63.5t20 -103v-390h-59zM421 767l28 -31q-19 -23 -41 -36t-47 -13q-29 0 -50 10.5t-40.5 21t-43.5 10.5
q-18 0 -34.5 -7t-34.5 -21l-28 29q23 24 47 36.5t53 12.5q27 0 47 -10.5t39 -20.5t42 -11q17 0 33 7.5t30 22.5z" />
    <glyph glyph-name="ograve" unicode="&#xf2;" horiz-adv-x="549" 
d="M340 656l-174 115l40 49l162 -125zM444 283q0 71 -19 126.5t-56 87t-92 31.5q-54 0 -92.5 -32t-58.5 -87t-20 -126q0 -70 19 -125t57 -86t92 -31q56 0 94 31.5t57 86t19 124.5zM507 283q0 -84 -27.5 -150.5t-79.5 -104t-127 -37.5q-78 0 -129 37.5t-75.5 103.5t-24.5 151
t28 152t81 105t126 38q78 0 127.5 -38t75 -104.5t25.5 -152.5z" />
    <glyph glyph-name="oacute" unicode="&#xf3;" horiz-adv-x="549" 
d="M444 283q0 71 -19 126.5t-56 87t-92 31.5q-54 0 -92.5 -32t-58.5 -87t-20 -126q0 -70 19 -125t57 -86t92 -31q56 0 94 31.5t57 86t19 124.5zM507 283q0 -84 -27.5 -150.5t-79.5 -104t-127 -37.5q-78 0 -129 37.5t-75.5 103.5t-24.5 151t28 152t81 105t126 38
q78 0 127.5 -38t75 -104.5t25.5 -152.5zM239 656l-28 39l162 125l40 -49z" />
    <glyph glyph-name="ocircumflex" unicode="&#xf4;" horiz-adv-x="549" 
d="M444 283q0 71 -19 126.5t-56 87t-92 31.5q-54 0 -92.5 -32t-58.5 -87t-20 -126q0 -70 19 -125t57 -86t92 -31q56 0 94 31.5t57 86t19 124.5zM507 283q0 -84 -27.5 -150.5t-79.5 -104t-127 -37.5q-78 0 -129 37.5t-75.5 103.5t-24.5 151t28 152t81 105t126 38
q78 0 127.5 -38t75 -104.5t25.5 -152.5zM428 690l-30 -39l-123 95h10l-120 -94l-29 36l147 124z" />
    <glyph glyph-name="otilde" unicode="&#xf5;" horiz-adv-x="549" 
d="M444 283q0 71 -19 126.5t-56 87t-92 31.5q-54 0 -92.5 -32t-58.5 -87t-20 -126q0 -70 19 -125t57 -86t92 -31q56 0 94 31.5t57 86t19 124.5zM507 283q0 -84 -27.5 -150.5t-79.5 -104t-127 -37.5q-78 0 -129 37.5t-75.5 103.5t-24.5 151t28 152t81 105t126 38
q78 0 127.5 -38t75 -104.5t25.5 -152.5zM411 767l28 -31q-19 -23 -41 -36t-47 -13q-29 0 -50 10.5t-40.5 21t-43.5 10.5q-18 0 -34.5 -7t-34.5 -21l-28 29q23 24 47 36.5t53 12.5q27 0 47 -10.5t39 -20.5t42 -11q17 0 33 7.5t30 22.5z" />
    <glyph glyph-name="odieresis" unicode="&#xf6;" horiz-adv-x="549" 
d="M444 283q0 71 -19 126.5t-56 87t-92 31.5q-54 0 -92.5 -32t-58.5 -87t-20 -126q0 -70 19 -125t57 -86t92 -31q56 0 94 31.5t57 86t19 124.5zM507 283q0 -84 -27.5 -150.5t-79.5 -104t-127 -37.5q-78 0 -129 37.5t-75.5 103.5t-24.5 151t28 152t81 105t126 38
q78 0 127.5 -38t75 -104.5t25.5 -152.5zM179 686q-19 0 -30.5 13.5t-11.5 33.5q0 21 11.5 34t30.5 13t30.5 -13t11.5 -34q0 -20 -12 -33.5t-30 -13.5zM374 686q-19 0 -30 13.5t-11 33.5q0 21 11.5 34t29.5 13q19 0 31 -13t12 -34q0 -20 -12 -33.5t-31 -13.5z" />
    <glyph glyph-name="divide" unicode="&#xf7;" horiz-adv-x="583" 
d="M46 268v53h491v-53h-491zM291 67q-21 0 -33.5 14.5t-12.5 37.5q0 22 13 35.5t33 13.5q21 0 33 -13.5t12 -35.5q0 -23 -12 -37.5t-33 -14.5zM291 417q-21 0 -33.5 14t-12.5 37t13 36.5t33 13.5q21 0 33 -13.5t12 -36.5t-12 -37t-33 -14z" />
    <glyph glyph-name="oslash" unicode="&#xf8;" horiz-adv-x="549" 
d="M429 652l-261 -734l-45 15l263 733zM444 283q0 71 -19 126.5t-56 87t-92 31.5q-54 0 -92.5 -32t-58.5 -87t-20 -126q0 -70 19 -125t57 -86t92 -31q56 0 94 31.5t57 86t19 124.5zM507 283q0 -84 -27.5 -150.5t-79.5 -104t-127 -37.5q-78 0 -129 37.5t-75.5 103.5
t-24.5 151t28 152t81 105t126 38q78 0 127.5 -38t75 -104.5t25.5 -152.5z" />
    <glyph glyph-name="ugrave" unicode="&#xf9;" horiz-adv-x="575" 
d="M351 656l-174 115l40 49l162 -125zM421 121h10q-24 -65 -70 -97.5t-100 -32.5q-82 0 -126.5 49t-44.5 139v390h59v-386q0 -70 32.5 -108t86.5 -38q40 0 74 24t55 69t21 110v329h59v-448q0 -42 11 -63t45 -21q4 0 8.5 0.5t8.5 1.5l3 -45q-9 -2 -17.5 -2.5t-16.5 -0.5
q-54 0 -76 31t-22 99z" />
    <glyph glyph-name="uacute" unicode="&#xfa;" horiz-adv-x="575" 
d="M421 121h10q-24 -65 -70 -97.5t-100 -32.5q-82 0 -126.5 49t-44.5 139v390h59v-386q0 -70 32.5 -108t86.5 -38q40 0 74 24t55 69t21 110v329h59v-448q0 -42 11 -63t45 -21q4 0 8.5 0.5t8.5 1.5l3 -45q-9 -2 -17.5 -2.5t-16.5 -0.5q-54 0 -76 31t-22 99zM250 656l-28 39
l162 125l40 -49z" />
    <glyph glyph-name="ucircumflex" unicode="&#xfb;" horiz-adv-x="575" 
d="M421 121h10q-24 -65 -70 -97.5t-100 -32.5q-82 0 -126.5 49t-44.5 139v390h59v-386q0 -70 32.5 -108t86.5 -38q40 0 74 24t55 69t21 110v329h59v-448q0 -42 11 -63t45 -21q4 0 8.5 0.5t8.5 1.5l3 -45q-9 -2 -17.5 -2.5t-16.5 -0.5q-54 0 -76 31t-22 99zM439 690l-30 -39
l-123 95h10l-120 -94l-29 36l147 124z" />
    <glyph glyph-name="udieresis" unicode="&#xfc;" horiz-adv-x="575" 
d="M421 121h10q-24 -65 -70 -97.5t-100 -32.5q-82 0 -126.5 49t-44.5 139v390h59v-386q0 -70 32.5 -108t86.5 -38q40 0 74 24t55 69t21 110v329h59v-448q0 -42 11 -63t45 -21q4 0 8.5 0.5t8.5 1.5l3 -45q-9 -2 -17.5 -2.5t-16.5 -0.5q-54 0 -76 31t-22 99zM191 686
q-19 0 -30.5 13.5t-11.5 33.5q0 21 11.5 34t30.5 13t30.5 -13t11.5 -34q0 -20 -12 -33.5t-30 -13.5zM386 686q-19 0 -30 13.5t-11 33.5q0 21 11.5 34t29.5 13q19 0 31 -13t12 -34q0 -20 -12 -33.5t-31 -13.5z" />
    <glyph glyph-name="yacute" unicode="&#xfd;" horiz-adv-x="455" 
d="M459 569l-226 -610q-36 -94 -79.5 -147.5t-111.5 -53.5q-23 0 -49.5 6.5t-59.5 21.5l21 46q26 -13 47 -18t40 -5q37 0 63.5 23.5t49 68t46.5 108.5l-203 560h63l178 -506h-18l180 506h59zM191 656l-28 39l162 125l40 -49z" />
    <glyph glyph-name="thorn" unicode="&#xfe;" horiz-adv-x="557" 
d="M92 -232v1057h59v-404l-27 -1q28 80 75.5 119t109.5 39q55 0 100 -31.5t71.5 -90.5t26.5 -145q0 -93 -29 -166t-82 -113.5t-125 -40.5q-48 0 -95.5 14.5t-79.5 33.5l52 34q28 -14 61 -23t58 -9q57 0 96.5 34.5t60.5 95.5t21 140q0 74 -21.5 122t-55.5 71.5t-70 23.5
q-37 0 -71 -22.5t-55 -66t-21 -106.5v-565h-59z" />
    <glyph glyph-name="ydieresis" unicode="&#xff;" horiz-adv-x="455" 
d="M459 569l-226 -610q-36 -94 -79.5 -147.5t-111.5 -53.5q-23 0 -49.5 6.5t-59.5 21.5l21 46q26 -13 47 -18t40 -5q37 0 63.5 23.5t49 68t46.5 108.5l-203 560h63l178 -506h-18l180 506h59zM132 686q-19 0 -30.5 13.5t-11.5 33.5q0 21 11.5 34t30.5 13t30.5 -13t11.5 -34
q0 -20 -12 -33.5t-30 -13.5zM327 686q-19 0 -30 13.5t-11 33.5q0 21 11.5 34t29.5 13q19 0 31 -13t12 -34q0 -20 -12 -33.5t-31 -13.5z" />
    <glyph glyph-name="Amacron" unicode="&#x100;" horiz-adv-x="591" 
d="M9 0l244 768h86l241 -768h-67l-178 575q-5 15 -10.5 36.5t-12 44t-12.5 43.5l-10 35h8q-5 -14 -10.5 -35t-12 -44t-12.5 -44t-11 -37l-178 -574h-65zM119 198v50h350v-50h-350zM440 925v-49h-284v49h284z" />
    <glyph glyph-name="amacron" unicode="&#x101;" horiz-adv-x="487" 
d="M340 115l21 -5q-16 -40 -44 -66.5t-61 -39.5t-66 -13q-48 0 -85.5 19.5t-58.5 57.5t-21 92q0 72 62 118.5t173 46.5q27 0 51 -1.5t47 -6.5v-44q-25 4 -47.5 6t-51.5 2q-65 0 -102.5 -16.5t-53.5 -44t-16 -60.5q0 -59 30 -89t85 -30q27 0 58.5 15t53.5 46.5t22 81.5v223
q0 62 -32 91t-82 29q-34 0 -73 -13t-76 -36l-25 45q42 27 90 41t89 14q47 0 85.5 -18t61 -55.5t22.5 -94.5v-289q0 -42 11 -63t44 -21q5 0 9 0.5t9 1.5l2 -45q-8 -2 -16.5 -2.5t-16.5 -0.5q-54 0 -76 30.5t-22 93.5zM372 758v-49h-284v49h284z" />
    <glyph glyph-name="Abreve" unicode="&#x102;" horiz-adv-x="591" 
d="M9 0l244 768h86l241 -768h-67l-178 575q-5 15 -10.5 36.5t-12 44t-12.5 43.5l-10 35h8q-5 -14 -10.5 -35t-12 -44t-12.5 -44t-11 -37l-178 -574h-65zM119 198v50h350v-50h-350zM212 969q3 -41 29 -61.5t57 -20.5q29 0 55.5 19.5t30.5 58.5l44 -2q-1 -41 -21 -68.5
t-49.5 -41.5t-61.5 -14q-33 0 -62 14t-47.5 41.5t-19.5 68.5z" />
    <glyph glyph-name="abreve" unicode="&#x103;" horiz-adv-x="487" 
d="M340 115l21 -5q-16 -40 -44 -66.5t-61 -39.5t-66 -13q-48 0 -85.5 19.5t-58.5 57.5t-21 92q0 72 62 118.5t173 46.5q27 0 51 -1.5t47 -6.5v-44q-25 4 -47.5 6t-51.5 2q-65 0 -102.5 -16.5t-53.5 -44t-16 -60.5q0 -59 30 -89t85 -30q27 0 58.5 15t53.5 46.5t22 81.5v223
q0 62 -32 91t-82 29q-34 0 -73 -13t-76 -36l-25 45q42 27 90 41t89 14q47 0 85.5 -18t61 -55.5t22.5 -94.5v-289q0 -42 11 -63t44 -21q5 0 9 0.5t9 1.5l2 -45q-8 -2 -16.5 -2.5t-16.5 -0.5q-54 0 -76 30.5t-22 93.5zM144 802q3 -41 29 -61.5t57 -20.5q29 0 55.5 19.5
t30.5 58.5l44 -2q-1 -41 -21 -68.5t-49.5 -41.5t-61.5 -14q-33 0 -62 14t-47.5 41.5t-19.5 68.5z" />
    <glyph glyph-name="Aogonek" unicode="&#x104;" horiz-adv-x="591" 
d="M9 0l244 768h86l241 -768h-67l-178 575q-5 15 -10.5 36.5t-12 44t-12.5 43.5l-10 35h8q-5 -14 -10.5 -35t-12 -44t-12.5 -44t-11 -37l-178 -574h-65zM119 198v50h350v-50h-350zM544 -223q-31 0 -57.5 10.5t-42 32.5t-15.5 55q0 34 22.5 67.5t72.5 63.5l57 -6
q-51 -25 -74.5 -55t-23.5 -59q0 -27 19.5 -45.5t55.5 -18.5q9 0 18.5 1t19.5 3l3 -42q-13 -3 -27.5 -5t-27.5 -2z" />
    <glyph glyph-name="aogonek" unicode="&#x105;" horiz-adv-x="490" 
d="M428 -218q-58 0 -89 28t-31 66q0 35 29 71t89 58l49 -11q-61 -19 -87.5 -46.5t-26.5 -57.5q0 -25 20.5 -44.5t59.5 -19.5q9 0 18.5 1t18.5 4l4 -42q-14 -4 -28 -5.5t-26 -1.5zM340 115l21 -5q-16 -40 -44 -66.5t-61 -39.5t-66 -13q-48 0 -85.5 19.5t-58.5 57.5t-21 92
q0 72 62 118.5t173 46.5q27 0 51 -1.5t47 -6.5v-44q-25 4 -47.5 6t-51.5 2q-65 0 -102.5 -16.5t-53.5 -44t-16 -60.5q0 -59 30 -89t85 -30q27 0 58.5 15t53.5 46.5t22 81.5v223q0 62 -32 91t-82 29q-34 0 -73 -13t-76 -36l-25 45q42 27 90 41t89 14q47 0 85.5 -18t61 -55.5
t22.5 -94.5v-289q0 -42 11 -63t44 -21q5 0 9 0.5t9 1.5l2 -45q-8 -2 -16.5 -2.5t-16.5 -0.5q-54 0 -76 30.5t-22 93.5z" />
    <glyph glyph-name="Cacute" unicode="&#x106;" horiz-adv-x="581" 
d="M530 114l26 -46q-61 -40 -115.5 -58.5t-107.5 -18.5q-88 0 -152.5 47t-100.5 134.5t-36 209.5q0 96 22 169.5t61.5 123.5t93.5 76t118 26q78 0 139.5 -40.5t93.5 -125.5l-59 -20q-28 70 -73.5 100.5t-102.5 30.5q-105 0 -165.5 -90t-60.5 -250q0 -159 61 -246.5
t169 -87.5q45 0 90 15.5t99 50.5zM301 823l-28 39l162 125l40 -49z" />
    <glyph glyph-name="cacute" unicode="&#x107;" horiz-adv-x="436" 
d="M254 -9q-97 0 -153.5 76.5t-56.5 217.5q0 91 26.5 156.5t75 101t112.5 35.5q54 0 100 -30t76 -88l-48 -26q-21 43 -56 68.5t-74 25.5q-73 0 -112 -66.5t-39 -178.5q0 -117 43 -179t119 -62q30 0 64.5 9.5t73.5 30.5l19 -42q-47 -26 -90 -37.5t-80 -11.5zM223 656l-28 39
l162 125l40 -49z" />
    <glyph glyph-name="Ccaron" unicode="&#x10c;" horiz-adv-x="581" 
d="M530 114l26 -46q-61 -40 -115.5 -58.5t-107.5 -18.5q-88 0 -152.5 47t-100.5 134.5t-36 209.5q0 96 22 169.5t61.5 123.5t93.5 76t118 26q78 0 139.5 -40.5t93.5 -125.5l-59 -20q-28 70 -73.5 100.5t-102.5 30.5q-105 0 -165.5 -90t-60.5 -250q0 -159 61 -246.5
t169 -87.5q45 0 90 15.5t99 50.5zM193 941l30 39l123 -96h-11l122 94l28 -35l-148 -125z" />
    <glyph glyph-name="ccaron" unicode="&#x10d;" horiz-adv-x="436" 
d="M254 -9q-97 0 -153.5 76.5t-56.5 217.5q0 91 26.5 156.5t75 101t112.5 35.5q54 0 100 -30t76 -88l-48 -26q-21 43 -56 68.5t-74 25.5q-73 0 -112 -66.5t-39 -178.5q0 -117 43 -179t119 -62q30 0 64.5 9.5t73.5 30.5l19 -42q-47 -26 -90 -37.5t-80 -11.5zM115 774l30 39
l123 -96h-11l122 94l28 -35l-148 -125z" />
    <glyph glyph-name="Dcaron" unicode="&#x10e;" horiz-adv-x="640" 
d="M276 772q88 0 149 -30t99 -83.5t55.5 -124.5t17.5 -152q0 -80 -19.5 -150t-59.5 -123t-101 -82.5t-143 -29.5q-41 0 -85 1t-96 2v768q52 1 97 2.5t86 1.5zM274 51q91 0 147.5 44.5t82.5 120t26 166.5q0 69 -14 130t-44 107t-78.5 72t-117.5 26q-27 0 -63 -0.5t-74 -1.5
l15 15v-692l-15 15q38 -1 72.5 -1.5t62.5 -0.5zM149 941l30 39l123 -96h-11l122 94l28 -35l-148 -125z" />
    <glyph glyph-name="dcaron" unicode="&#x10f;" horiz-adv-x="580" 
d="M534 587l-21 18q11 16 21 33t16 34t8 33q-18 5 -26 17.5t-8 27.5q0 25 13.5 37t30.5 12t31 -13t14 -42q0 -23 -9.5 -51t-27.5 -55.5t-42 -50.5zM457 825v-720q0 -40 10 -55t42 -11l2 -46q-39 -5 -63.5 4.5t-36 34.5t-11.5 67v47h27q-25 -79 -74.5 -117t-112.5 -38
q-56 0 -101 32.5t-71 92.5t-26 143q0 69 16.5 127t46.5 101.5t73.5 67t97.5 23.5q48 0 91 -13.5t76 -33.5l-42 -33q-28 15 -61 22.5t-58 7.5q-56 0 -96 -34t-61 -94t-21 -139q0 -73 21.5 -122t55 -73.5t70.5 -24.5q38 0 71.5 19.5t55 60.5t21.5 105v599h58z" />
    <glyph glyph-name="Dcroat" unicode="&#x110;" horiz-adv-x="644" 
d="M335 426v-50h-328v50h328zM280 772q87 0 148 -30t99 -83.5t55.5 -124.5t17.5 -152q0 -80 -19.5 -150t-59 -123t-100.5 -82.5t-144 -29.5q-41 0 -84.5 1t-95.5 2v768q52 1 96.5 2.5t86.5 1.5zM278 51q91 0 147 44.5t82 120t26 166.5q0 69 -14 130t-44 107t-78.5 72
t-116.5 26q-27 0 -63.5 -0.5t-74.5 -1.5l16 15v-692l-16 15q38 -1 73 -1.5t63 -0.5z" />
    <glyph glyph-name="dcroat" unicode="&#x111;" horiz-adv-x="547" 
d="M536 708v-47h-318v47h318zM457 825v-720q0 -40 10 -55t42 -11l2 -46q-39 -5 -63.5 4.5t-36 34.5t-11.5 67v47h27q-25 -79 -74.5 -117t-112.5 -38q-56 0 -101 32.5t-71 92.5t-26 143q0 69 16.5 127t46.5 101.5t73.5 67t97.5 23.5q48 0 91 -13.5t76 -33.5l-42 -33
q-28 15 -61 22.5t-58 7.5q-56 0 -96 -34t-61 -94t-21 -139q0 -73 21.5 -122t55 -73.5t70.5 -24.5q38 0 71.5 19.5t55 60.5t21.5 105v599h58z" />
    <glyph glyph-name="Emacron" unicode="&#x112;" horiz-adv-x="527" 
d="M139 53h328v-53h-374v768h364v-53h-318l15 16v-317l-15 13h285v-52h-285l15 15v-353zM419 925v-49h-284v49h284z" />
    <glyph glyph-name="emacron" unicode="&#x113;" horiz-adv-x="500" 
d="M285 -9q-71 0 -125 34t-83.5 100t-29.5 161q0 87 27 152.5t76 102.5t116 37q72 0 116 -34.5t63.5 -96.5t19.5 -142v-25h-385l1 48l324 2q0 36 -6.5 71.5t-22.5 64t-43 46t-68 17.5q-74 0 -115 -67t-41 -179q0 -117 50.5 -179t134.5 -62q35 0 69.5 9t71.5 27l19 -43
q-44 -22 -86.5 -33t-82.5 -11zM416 758v-49h-284v49h284z" />
    <glyph glyph-name="Edotaccent" unicode="&#x116;" horiz-adv-x="527" 
d="M139 53h328v-53h-374v768h364v-53h-318l15 16v-317l-15 13h285v-52h-285l15 15v-353zM264 864q-15 6 -20.5 20t-0.5 30q4 15 16.5 22.5t28.5 1.5q15 -6 20 -20.5t1 -28.5q-5 -16 -17 -23.5t-28 -1.5z" />
    <glyph glyph-name="edotaccent" unicode="&#x117;" horiz-adv-x="500" 
d="M285 -9q-71 0 -125 34t-83.5 100t-29.5 161q0 87 27 152.5t76 102.5t116 37q72 0 116 -34.5t63.5 -96.5t19.5 -142v-25h-385l1 48l324 2q0 36 -6.5 71.5t-22.5 64t-43 46t-68 17.5q-74 0 -115 -67t-41 -179q0 -117 50.5 -179t134.5 -62q35 0 69.5 9t71.5 27l19 -43
q-44 -22 -86.5 -33t-82.5 -11zM261 697q-15 6 -20.5 20t-0.5 30q4 15 16.5 22.5t28.5 1.5q15 -6 20 -20.5t1 -28.5q-5 -16 -17 -23.5t-28 -1.5z" />
    <glyph glyph-name="Eogonek" unicode="&#x118;" horiz-adv-x="527" 
d="M139 53h328v-53h-374v768h364v-53h-318l15 16v-317l-15 13h285v-52h-285l15 15v-353zM430 -223q-31 0 -57.5 10.5t-42 32.5t-15.5 55q0 34 22.5 67.5t72.5 63.5l57 -6q-51 -25 -74.5 -55t-23.5 -59q0 -27 19.5 -45.5t55.5 -18.5q9 0 18.5 1t19.5 3l3 -42q-13 -3 -27.5 -5
t-27.5 -2z" />
    <glyph glyph-name="eogonek" unicode="&#x119;" horiz-adv-x="499" 
d="M393 -223q-58 0 -87 29t-29 69q0 36 24 74.5t72 65.5l78 20q-58 -27 -89 -69t-31 -78q0 -29 19.5 -47.5t57.5 -18.5q8 0 17.5 1t19.5 3l2 -42q-13 -3 -27 -5t-27 -2zM285 -9q-71 0 -125 34t-83.5 100t-29.5 161q0 87 27 152.5t76 102.5t116 37q72 0 116 -34.5t63.5 -96.5
t19.5 -142v-25h-385l1 48l324 2q0 36 -6.5 71.5t-22.5 64t-43 46t-68 17.5q-74 0 -115 -67t-41 -179q0 -117 50.5 -179t134.5 -62q35 0 69.5 9t71.5 27l19 -43q-44 -22 -86.5 -33t-82.5 -11z" />
    <glyph glyph-name="Ecaron" unicode="&#x11a;" horiz-adv-x="527" 
d="M139 53h328v-53h-374v768h364v-53h-318l15 16v-317l-15 13h285v-52h-285l15 15v-353zM130 941l30 39l123 -96h-11l122 94l28 -35l-148 -125z" />
    <glyph glyph-name="ecaron" unicode="&#x11b;" horiz-adv-x="500" 
d="M285 -9q-71 0 -125 34t-83.5 100t-29.5 161q0 87 27 152.5t76 102.5t116 37q72 0 116 -34.5t63.5 -96.5t19.5 -142v-25h-385l1 48l324 2q0 36 -6.5 71.5t-22.5 64t-43 46t-68 17.5q-74 0 -115 -67t-41 -179q0 -117 50.5 -179t134.5 -62q35 0 69.5 9t71.5 27l19 -43
q-44 -22 -86.5 -33t-82.5 -11zM127 774l30 39l123 -96h-11l122 94l28 -35l-148 -125z" />
    <glyph glyph-name="Gbreve" unicode="&#x11e;" horiz-adv-x="641" 
d="M519 56v269l15 -15h-197v53h243v-307q-65 -34 -124 -50t-108 -16q-91 0 -159.5 46t-106.5 133.5t-38 212.5t39.5 213t107.5 135t155 47q77 0 138.5 -40.5t95.5 -125.5l-58 -21q-30 69 -75.5 100.5t-102.5 31.5q-71 0 -123.5 -42t-81.5 -118t-29 -180q0 -108 30.5 -183.5
t85.5 -114.5t129 -39q46 0 93 15.5t104 45.5zM260 969q3 -41 29 -61.5t57 -20.5q29 0 55.5 19.5t30.5 58.5l44 -2q-1 -41 -21 -68.5t-49.5 -41.5t-61.5 -14q-33 0 -62 14t-47.5 41.5t-19.5 68.5z" />
    <glyph glyph-name="gbreve" unicode="&#x11f;" horiz-adv-x="518" 
d="M384 376q0 52 -18 85.5t-47 50.5t-61 17q-31 0 -60 -17t-47.5 -50.5t-18.5 -85.5q0 -48 18.5 -81t47.5 -49.5t61 -16.5t60.5 16.5t46.5 49t18 81.5zM441 376q0 -64 -26 -107.5t-68 -66t-89 -22.5q-48 0 -89.5 22t-67.5 65.5t-26 108.5q0 67 26.5 111.5t69 67t88.5 22.5
q48 0 89.5 -23t67 -67.5t25.5 -110.5zM494 577v-49l-143 2l-93 39zM177 64l25 -26q-47 -25 -72.5 -56.5t-25.5 -69.5q0 -49 41.5 -76.5t108.5 -27.5q81 0 129 34t48 93q0 45 -36.5 72.5t-99.5 25.5l-93 -2q-37 -1 -63 12t-39.5 33.5t-13.5 44.5q0 31 24 61t74 42l17 -30
q-32 -7 -47.5 -26t-15.5 -37q0 -20 15.5 -35t42.5 -15l101 1q91 1 141.5 -39t50.5 -106q0 -53 -29 -93.5t-82.5 -63t-126.5 -22.5q-61 0 -107 18.5t-72 52t-26 78.5q0 49 34.5 87.5t96.5 69.5zM180 802q3 -41 29 -61.5t57 -20.5q29 0 55.5 19.5t30.5 58.5l44 -2
q-1 -41 -21 -68.5t-49.5 -41.5t-61.5 -14q-33 0 -62 14t-47.5 41.5t-19.5 68.5z" />
    <glyph glyph-name="uni0122" unicode="&#x122;" horiz-adv-x="641" 
d="M295 -271l-22 18q12 17 21.5 34t16 33.5t8.5 32.5q-18 5 -26 18t-8 27q0 25 13.5 37.5t30.5 12.5t31 -13.5t14 -42.5q0 -23 -9.5 -51t-27.5 -55.5t-42 -50.5zM519 56v269l15 -15h-197v53h243v-307q-65 -34 -124 -50t-108 -16q-91 0 -159.5 46t-106.5 133.5t-38 212.5
t39.5 213t107.5 135t155 47q77 0 138.5 -40.5t95.5 -125.5l-58 -21q-30 69 -75.5 100.5t-102.5 31.5q-71 0 -123.5 -42t-81.5 -118t-29 -180q0 -108 30.5 -183.5t85.5 -114.5t129 -39q46 0 93 15.5t104 45.5z" />
    <glyph glyph-name="uni0123" unicode="&#x123;" horiz-adv-x="518" 
d="M282 871l21 -18q-11 -16 -21 -33t-16 -34t-8 -32q17 -5 25.5 -18t8.5 -27q0 -25 -13.5 -37.5t-30.5 -12.5t-31.5 13.5t-14.5 41.5q0 24 10 52t28 55.5t42 49.5zM384 376q0 52 -18 85.5t-47 50.5t-61 17q-31 0 -60 -17t-47.5 -50.5t-18.5 -85.5q0 -48 18.5 -81t47.5 -49.5
t61 -16.5t60.5 16.5t46.5 49t18 81.5zM441 376q0 -64 -26 -107.5t-68 -66t-89 -22.5q-48 0 -89.5 22t-67.5 65.5t-26 108.5q0 67 26.5 111.5t69 67t88.5 22.5q48 0 89.5 -23t67 -67.5t25.5 -110.5zM494 577v-49l-143 2l-93 39zM177 64l25 -26q-47 -25 -72.5 -56.5
t-25.5 -69.5q0 -49 41.5 -76.5t108.5 -27.5q81 0 129 34t48 93q0 45 -36.5 72.5t-99.5 25.5l-93 -2q-37 -1 -63 12t-39.5 33.5t-13.5 44.5q0 31 24 61t74 42l17 -30q-32 -7 -47.5 -26t-15.5 -37q0 -20 15.5 -35t42.5 -15l101 1q91 1 141.5 -39t50.5 -106q0 -53 -29 -93.5
t-82.5 -63t-126.5 -22.5q-61 0 -107 18.5t-72 52t-26 78.5q0 49 34.5 87.5t96.5 69.5z" />
    <glyph glyph-name="Imacron" unicode="&#x12a;" horiz-adv-x="244" 
d="M243 925v-49h-242v49h242zM159 768v-768h-61v768h61z" />
    <glyph glyph-name="imacron" unicode="&#x12b;" horiz-adv-x="244" 
d="M243 758v-49h-242v49h242zM93 0v569h57v-569h-57z" />
    <glyph glyph-name="Iogonek" unicode="&#x12e;" horiz-adv-x="257" 
d="M159 768v-768h-61v768h61zM122 -223q-31 0 -57.5 10.5t-42 32.5t-15.5 55q0 34 22.5 67.5t72.5 63.5l57 -6q-51 -25 -74.5 -55t-23.5 -59q0 -27 19.5 -45.5t55.5 -18.5q9 0 18.5 1t19.5 3l3 -42q-13 -3 -27.5 -5t-27.5 -2z" />
    <glyph glyph-name="iogonek" unicode="&#x12f;" horiz-adv-x="244" 
d="M93 0v569h57v-569h-57zM110 697q-15 6 -20.5 20t-0.5 30q4 15 16.5 22.5t28.5 1.5q15 -6 20 -20.5t1 -28.5q-5 -16 -17 -23.5t-28 -1.5zM114 -223q-31 0 -57.5 10.5t-42 32.5t-15.5 55q0 34 22.5 67.5t72.5 63.5l57 -6q-51 -25 -74.5 -55t-23.5 -59q0 -27 19.5 -45.5
t55.5 -18.5q9 0 18.5 1t19.5 3l3 -42q-13 -3 -27.5 -5t-27.5 -2z" />
    <glyph glyph-name="Idotaccent" unicode="&#x130;" horiz-adv-x="257" 
d="M159 768v-768h-61v768h61zM110 830q-15 6 -20.5 20t-0.5 30q4 15 16.5 22.5t28.5 1.5q15 -6 20 -20.5t1 -28.5q-5 -16 -17 -23.5t-28 -1.5z" />
    <glyph glyph-name="dotlessi" unicode="&#x131;" horiz-adv-x="244" 
d="M93 0v569h57v-569h-57z" />
    <glyph glyph-name="uni0136" unicode="&#x136;" horiz-adv-x="592" 
d="M270 -271l-21 18q11 17 21 34t16 33.5t8 32.5q-17 5 -25.5 18t-8.5 27q0 25 13.5 37.5t30.5 12.5t31.5 -13.5t14.5 -42.5q0 -23 -10 -51t-28 -55.5t-42 -50.5zM586 -6q-13 -3 -26 -3q-25 0 -42.5 13.5t-32.5 40.5l-205 345l19 -10h-160l15 12v-392h-61v768h61v-350
l-15 13h159l-16 -8l217 345h64l-241 -382l4 40l208 -353q12 -20 22.5 -28t26.5 -6z" />
    <glyph glyph-name="uni0137" unicode="&#x137;" horiz-adv-x="497" 
d="M242 -271l-21 18q11 17 21 34t16 33.5t8 32.5q-17 5 -25.5 18t-8.5 27q0 25 13.5 37.5t30.5 12.5t31.5 -13.5t14.5 -42.5q0 -23 -10 -51t-28 -55.5t-42 -50.5zM152 0h-59v825h59v-825zM393 45l-149 264h-124v48h141l144 212h63l-179 -258v28l152 -268q11 -19 18 -26.5
t18 -7.5h6h8v-44q-6 -1 -11.5 -1.5t-12.5 -0.5q-24 0 -40.5 13t-33.5 41z" />
    <glyph glyph-name="Lacute" unicode="&#x139;" horiz-adv-x="454" 
d="M138 53h306v-53h-351v768h61v-730zM110 823l-28 39l162 125l40 -49z" />
    <glyph glyph-name="lacute" unicode="&#x13a;" horiz-adv-x="267" 
d="M93 101v724h58v-717q0 -34 12.5 -51t36.5 -17q10 0 21.5 2.5t25.5 7.5l1 -47q-14 -5 -28.5 -8t-29.5 -3q-43 0 -70 27.5t-27 81.5zM86 871l-28 39l162 125l40 -49z" />
    <glyph glyph-name="uni013B" unicode="&#x13b;" horiz-adv-x="454" 
d="M241 -271l-21 18q11 17 21 34t16 33.5t8 32.5q-17 5 -25.5 18t-8.5 27q0 25 14 37.5t30 12.5q18 0 32 -13.5t14 -42.5q0 -23 -9.5 -51t-27.5 -55.5t-43 -50.5zM138 53h306v-53h-351v768h61v-730z" />
    <glyph glyph-name="uni013C" unicode="&#x13c;" horiz-adv-x="267" 
d="M129 -271l-21 18q11 17 21 34t16 33.5t8 32.5q-18 5 -26 18t-8 27q0 25 13.5 37.5t30.5 12.5t31 -13.5t14 -42.5q0 -23 -9.5 -51t-27.5 -55.5t-42 -50.5zM93 101v724h58v-717q0 -34 12.5 -51t36.5 -17q10 0 21.5 2.5t25.5 7.5l1 -47q-14 -5 -28.5 -8t-29.5 -3
q-43 0 -70 27.5t-27 81.5z" />
    <glyph glyph-name="Lcaron" unicode="&#x13d;" horiz-adv-x="454" 
d="M342 565l-21 18q11 16 20.5 33t16 34t8.5 33q-18 5 -26 17.5t-8 27.5q0 24 13.5 36.5t30.5 12.5t31 -13.5t14 -41.5q0 -23 -9.5 -51t-27.5 -55.5t-42 -50.5zM138 53h306v-53h-351v768h61v-730z" />
    <glyph glyph-name="lcaron" unicode="&#x13e;" horiz-adv-x="276" 
d="M228 587l-21 18q11 16 21 33t16 34t8 33q-17 5 -25.5 17.5t-8.5 27.5q0 25 13.5 37t30.5 12t31.5 -13t14.5 -42q0 -23 -10 -51t-28 -55.5t-42 -50.5zM93 101v724h58v-717q0 -34 12.5 -51t36.5 -17q10 0 21.5 2.5t25.5 7.5l1 -47q-14 -5 -28.5 -8t-29.5 -3q-43 0 -70 27.5
t-27 81.5z" />
    <glyph glyph-name="Lslash" unicode="&#x141;" horiz-adv-x="471" 
d="M316 428l-322 -134l-16 43l321 135zM138 53h306v-53h-351v768h61v-730z" />
    <glyph glyph-name="lslash" unicode="&#x142;" horiz-adv-x="271" 
d="M25 340l194 83l6 -17l-194 -82zM93 101v724h58v-717q0 -34 12.5 -51t36.5 -17q10 0 21.5 2.5t25.5 7.5l1 -47q-14 -5 -28.5 -8t-29.5 -3q-43 0 -70 27.5t-27 81.5z" />
    <glyph glyph-name="Nacute" unicode="&#x143;" horiz-adv-x="696" 
d="M547 -8l-403 678h7v-670h-58v768l57 8l399 -665h-5v657h59v-768zM305 823l-28 39l162 125l40 -49z" />
    <glyph glyph-name="nacute" unicode="&#x144;" horiz-adv-x="565" 
d="M416 0v383q0 72 -31 109.5t-84 37.5q-38 0 -72 -23t-54.5 -68.5t-20.5 -112.5v-326h-60v569h55l2 -149h-19q22 82 69.5 120t108.5 38q51 0 88 -21.5t57 -63.5t20 -103v-390h-59zM249 656l-28 39l162 125l40 -49z" />
    <glyph glyph-name="uni0145" unicode="&#x145;" horiz-adv-x="696" 
d="M314 -271l-21 18q11 17 21 34t16 33.5t8 32.5q-17 5 -25.5 18t-8.5 27q0 25 13.5 37.5t30.5 12.5t31.5 -13.5t14.5 -42.5q0 -23 -10 -51t-28 -55.5t-42 -50.5zM547 -8l-403 678h7v-670h-58v768l57 8l399 -665h-5v657h59v-768z" />
    <glyph glyph-name="uni0146" unicode="&#x146;" horiz-adv-x="568" 
d="M257 -271l-21 18q11 17 21 34t16 33.5t8 32.5q-17 5 -25.5 18t-8.5 27q0 25 13.5 37.5t30.5 12.5t31.5 -13.5t14.5 -42.5q0 -23 -10 -51t-28 -55.5t-42 -50.5zM416 0v383q0 72 -31 109.5t-84 37.5q-38 0 -72 -23t-54.5 -68.5t-20.5 -112.5v-326h-60v569h55l2 -149h-19
q22 82 69.5 120t108.5 38q51 0 88 -21.5t57 -63.5t20 -103v-390h-59z" />
    <glyph glyph-name="Ncaron" unicode="&#x147;" horiz-adv-x="696" 
d="M547 -8l-403 678h7v-670h-58v768l57 8l399 -665h-5v657h59v-768zM196 941l30 39l123 -96h-11l122 94l28 -35l-148 -125z" />
    <glyph glyph-name="ncaron" unicode="&#x148;" horiz-adv-x="565" 
d="M416 0v383q0 72 -31 109.5t-84 37.5q-38 0 -72 -23t-54.5 -68.5t-20.5 -112.5v-326h-60v569h55l2 -149h-19q22 82 69.5 120t108.5 38q51 0 88 -21.5t57 -63.5t20 -103v-390h-59zM141 774l30 39l123 -96h-11l122 94l28 -35l-148 -125z" />
    <glyph glyph-name="Omacron" unicode="&#x14c;" horiz-adv-x="671" 
d="M335 -9q-100 0 -164 51.5t-95 140t-31 199.5q0 83 19.5 155t57 125.5t92.5 84t125 30.5q97 0 161 -52.5t95 -141.5t31 -201q0 -82 -19 -153t-56.5 -124.5t-91.5 -83.5t-124 -30zM335 46q74 0 124 44.5t75.5 120.5t25.5 171q0 97 -24.5 173.5t-74 121.5t-123.5 45
t-124.5 -45.5t-76.5 -122t-26 -172.5t24.5 -172t74.5 -120t125 -44zM482 915v-49h-284v49h284z" />
    <glyph glyph-name="omacron" unicode="&#x14d;" horiz-adv-x="549" 
d="M444 283q0 71 -19 126.5t-56 87t-92 31.5q-54 0 -92.5 -32t-58.5 -87t-20 -126q0 -70 19 -125t57 -86t92 -31q56 0 94 31.5t57 86t19 124.5zM507 283q0 -84 -27.5 -150.5t-79.5 -104t-127 -37.5q-78 0 -129 37.5t-75.5 103.5t-24.5 151t28 152t81 105t126 38
q78 0 127.5 -38t75 -104.5t25.5 -152.5zM421 758v-49h-284v49h284z" />
    <glyph glyph-name="Ohungarumlaut" unicode="&#x150;" horiz-adv-x="671" 
d="M335 -9q-100 0 -164 51.5t-95 140t-31 199.5q0 83 19.5 155t57 125.5t92.5 84t125 30.5q97 0 161 -52.5t95 -141.5t31 -201q0 -82 -19 -153t-56.5 -124.5t-91.5 -83.5t-124 -30zM335 46q74 0 124 44.5t75.5 120.5t25.5 171q0 97 -24.5 173.5t-74 121.5t-123.5 45
t-124.5 -45.5t-76.5 -122t-26 -172.5t24.5 -172t74.5 -120t125 -44zM231 813l-30 35l151 136l42 -45zM425 813l-30 35l151 136l43 -45z" />
    <glyph glyph-name="ohungarumlaut" unicode="&#x151;" horiz-adv-x="549" 
d="M444 283q0 71 -19 126.5t-56 87t-92 31.5q-54 0 -92.5 -32t-58.5 -87t-20 -126q0 -70 19 -125t57 -86t92 -31q56 0 94 31.5t57 86t19 124.5zM507 283q0 -84 -27.5 -150.5t-79.5 -104t-127 -37.5q-78 0 -129 37.5t-75.5 103.5t-24.5 151t28 152t81 105t126 38
q78 0 127.5 -38t75 -104.5t25.5 -152.5zM170 656l-30 35l151 136l42 -45zM364 656l-30 35l151 136l43 -45z" />
    <glyph glyph-name="OE" unicode="&#x152;" horiz-adv-x="887" 
d="M362 -8q-109 0 -179.5 45t-104 132t-33.5 213q0 113 34 201.5t104 139.5t177 51q37 0 72.5 -3.5t65.5 -3.5l-17 -61q-23 5 -53 8.5t-66 3.5q-86 0 -142 -42.5t-82.5 -118t-26.5 -175.5q0 -167 62 -250t192 -83q25 0 54 2.5t59 8.5l12 -60q-29 -1 -65.5 -4.5t-62.5 -3.5z
M499 53h328v-53h-374v768h364v-53h-318l16 16v-317l-16 13h285v-52h-285l16 15v-353z" />
    <glyph glyph-name="oe" unicode="&#x153;" horiz-adv-x="897" 
d="M273 -9q-78 0 -129 37.5t-75.5 103.5t-24.5 151t28 152t81 105t126 38q83 0 133 -44.5t70 -119.5h-14q22 76 72 120t123 44t117 -34.5t63.5 -96.5t19.5 -142v-25h-385v48l324 2q1 36 -6 71.5t-23 64t-43 46t-68 17.5q-75 0 -115 -67t-40 -179q0 -117 50.5 -179t133.5 -62
q34 0 69 9t72 27l19 -43q-43 -21 -85.5 -32.5t-82.5 -11.5q-78 0 -133.5 41.5t-80.5 121.5h11q-23 -74 -74.5 -118.5t-132.5 -44.5zM274 41q56 0 94 31.5t57 86t19 124.5q0 71 -19 126.5t-56 87t-92 31.5q-54 0 -92.5 -32t-58.5 -87t-20 -126q0 -70 19 -125t57 -86t92 -31z
" />
    <glyph glyph-name="Racute" unicode="&#x154;" horiz-adv-x="573" 
d="M94 0v768q41 2 84 2h87q86 0 144 -21.5t87 -67t29 -116.5q0 -65 -29 -116t-86.5 -80.5t-144.5 -29.5h-142v53h134q101 0 151.5 42.5t50.5 122.5q0 82 -44 121.5t-156 39.5q-30 0 -61 -1t-59 -3l16 16v-730h-61zM287 367l59 7l153 -302q8 -18 18 -25.5t25 -7.5h3.5h3.5
l3 -45q-6 -2 -14 -2.5t-15 -0.5q-25 0 -43 13t-33 41zM238 823l-28 39l162 125l40 -49z" />
    <glyph glyph-name="racute" unicode="&#x155;" horiz-adv-x="331" 
d="M93 0v570h54l2 -150h-16q15 73 59.5 115.5t100.5 42.5q10 0 19.5 -1t19.5 -5l-7 -54q-22 7 -41 7q-39 0 -69.5 -25t-47 -68t-16.5 -99v-333h-58zM132 656l-28 39l162 125l40 -49z" />
    <glyph glyph-name="uni0156" unicode="&#x156;" horiz-adv-x="573" 
d="M260 -271l-21 18q11 17 21 34t16 33.5t8 32.5q-18 5 -26 18t-8 27q0 25 13.5 37.5t30.5 12.5t31 -13.5t14 -42.5q0 -23 -9.5 -51t-27.5 -55.5t-42 -50.5zM94 0v768q41 2 84 2h87q86 0 144 -21.5t87 -67t29 -116.5q0 -65 -29 -116t-86.5 -80.5t-144.5 -29.5h-142v53h134
q101 0 151.5 42.5t50.5 122.5q0 82 -44 121.5t-156 39.5q-30 0 -61 -1t-59 -3l16 16v-730h-61zM287 367l59 7l153 -302q8 -18 18 -25.5t25 -7.5h3.5h3.5l3 -45q-6 -2 -14 -2.5t-15 -0.5q-25 0 -43 13t-33 41z" />
    <glyph glyph-name="uni0157" unicode="&#x157;" horiz-adv-x="331" 
d="M111 -271l-21 18q11 17 21 34t16 33.5t8 32.5q-17 5 -25.5 18t-8.5 27q0 25 14 37.5t30 12.5q18 0 32 -13.5t14 -42.5q0 -23 -9.5 -51t-27.5 -55.5t-43 -50.5zM93 0v570h54l2 -150h-16q15 73 59.5 115.5t100.5 42.5q10 0 19.5 -1t19.5 -5l-7 -54q-22 7 -41 7
q-39 0 -69.5 -25t-47 -68t-16.5 -99v-333h-58z" />
    <glyph glyph-name="Rcaron" unicode="&#x158;" horiz-adv-x="573" 
d="M94 0v768q41 2 84 2h87q86 0 144 -21.5t87 -67t29 -116.5q0 -65 -29 -116t-86.5 -80.5t-144.5 -29.5h-142v53h134q101 0 151.5 42.5t50.5 122.5q0 82 -44 121.5t-156 39.5q-30 0 -61 -1t-59 -3l16 16v-730h-61zM287 367l59 7l153 -302q8 -18 18 -25.5t25 -7.5h3.5h3.5
l3 -45q-6 -2 -14 -2.5t-15 -0.5q-25 0 -43 13t-33 41zM130 941l30 39l123 -96h-11l122 94l28 -35l-148 -125z" />
    <glyph glyph-name="rcaron" unicode="&#x159;" horiz-adv-x="331" 
d="M93 0v570h54l2 -150h-16q15 73 59.5 115.5t100.5 42.5q10 0 19.5 -1t19.5 -5l-7 -54q-22 7 -41 7q-39 0 -69.5 -25t-47 -68t-16.5 -99v-333h-58zM42 774l30 39l123 -96h-11l122 94l28 -35l-148 -125z" />
    <glyph glyph-name="Sacute" unicode="&#x15a;" horiz-adv-x="519" 
d="M248 -9q-48 0 -99.5 16.5t-98.5 49.5l29 47q44 -29 88 -44.5t84 -15.5q65 0 108 39t43 111q0 44 -18.5 73t-48.5 50t-65 38t-71 35t-66 42.5t-48.5 60t-18.5 87.5q0 64 32.5 108t82.5 66.5t102 22.5q39 0 75 -12t64.5 -36t44.5 -63l-50 -25q-22 43 -59.5 63t-78.5 20
q-37 0 -71.5 -16.5t-56.5 -48t-22 -77.5q0 -41 18.5 -69t48.5 -47.5t65.5 -36t71.5 -35.5t65.5 -44.5t48 -62.5t18.5 -91q0 -67 -30 -113t-79 -69t-108 -23zM229 823l-28 39l162 125l40 -49z" />
    <glyph glyph-name="sacute" unicode="&#x15b;" horiz-adv-x="432" 
d="M211 -9q-43 0 -86.5 14.5t-81.5 42.5l25 42q35 -24 72.5 -37t71.5 -13q45 0 78 28t33 77q0 36 -19 59.5t-49 40t-63 32.5t-63.5 35.5t-49 49t-18.5 73.5q0 46 24 78t61.5 48.5t79.5 16.5q46 0 90.5 -21t68.5 -66l-46 -25q-19 33 -51 48t-64 15q-27 0 -51 -10.5t-39 -31
t-15 -51.5q0 -35 19 -57t49 -39t63 -32.5t63 -36t49 -50t19 -74.5q0 -50 -24.5 -85t-63 -53t-82.5 -18zM168 656l-28 39l162 125l40 -49z" />
    <glyph glyph-name="Scedilla" unicode="&#x15e;" horiz-adv-x="519" 
d="M248 -9q-48 0 -99.5 16.5t-98.5 49.5l29 47q44 -29 88 -44.5t84 -15.5q65 0 108 39t43 111q0 44 -18.5 73t-48.5 50t-65 38t-71 35t-66 42.5t-48.5 60t-18.5 87.5q0 64 32.5 108t82.5 66.5t102 22.5q39 0 75 -12t64.5 -36t44.5 -63l-50 -25q-22 43 -59.5 63t-78.5 20
q-37 0 -71.5 -16.5t-56.5 -48t-22 -77.5q0 -41 18.5 -69t48.5 -47.5t65.5 -36t71.5 -35.5t65.5 -44.5t48 -62.5t18.5 -91q0 -67 -30 -113t-79 -69t-108 -23zM235 -219q-11 0 -22 1t-24 4l2 46q10 -1 18.5 -2t17.5 -1q43 0 67 20t24 48q0 30 -27.5 60.5t-85.5 48.5h53
q54 -14 81 -47t27 -70q0 -28 -15 -52.5t-44 -40t-72 -15.5z" />
    <glyph glyph-name="scedilla" unicode="&#x15f;" horiz-adv-x="432" 
d="M211 -9q-43 0 -86.5 14.5t-81.5 42.5l25 42q35 -24 72.5 -37t71.5 -13q45 0 78 28t33 77q0 36 -19 59.5t-49 40t-63 32.5t-63.5 35.5t-49 49t-18.5 73.5q0 46 24 78t61.5 48.5t79.5 16.5q46 0 90.5 -21t68.5 -66l-46 -25q-19 33 -51 48t-64 15q-27 0 -51 -10.5t-39 -31
t-15 -51.5q0 -35 19 -57t49 -39t63 -32.5t63 -36t49 -50t19 -74.5q0 -50 -24.5 -85t-63 -53t-82.5 -18zM177 -219q-11 0 -22 1t-24 4l2 46q10 -1 18.5 -2t17.5 -1q43 0 67 20t24 48q0 30 -27.5 60.5t-85.5 48.5h53q54 -14 81 -47t27 -70q0 -28 -15 -52.5t-44 -40t-72 -15.5z
" />
    <glyph glyph-name="Scaron" unicode="&#x160;" horiz-adv-x="519" 
d="M248 -9q-48 0 -99.5 16.5t-98.5 49.5l29 47q44 -29 88 -44.5t84 -15.5q65 0 108 39t43 111q0 44 -18.5 73t-48.5 50t-65 38t-71 35t-66 42.5t-48.5 60t-18.5 87.5q0 64 32.5 108t82.5 66.5t102 22.5q39 0 75 -12t64.5 -36t44.5 -63l-50 -25q-22 43 -59.5 63t-78.5 20
q-37 0 -71.5 -16.5t-56.5 -48t-22 -77.5q0 -41 18.5 -69t48.5 -47.5t65.5 -36t71.5 -35.5t65.5 -44.5t48 -62.5t18.5 -91q0 -67 -30 -113t-79 -69t-108 -23zM121 941l30 39l123 -96h-11l122 94l28 -35l-148 -125z" />
    <glyph glyph-name="scaron" unicode="&#x161;" horiz-adv-x="432" 
d="M211 -9q-43 0 -86.5 14.5t-81.5 42.5l25 42q35 -24 72.5 -37t71.5 -13q45 0 78 28t33 77q0 36 -19 59.5t-49 40t-63 32.5t-63.5 35.5t-49 49t-18.5 73.5q0 46 24 78t61.5 48.5t79.5 16.5q46 0 90.5 -21t68.5 -66l-46 -25q-19 33 -51 48t-64 15q-27 0 -51 -10.5t-39 -31
t-15 -51.5q0 -35 19 -57t49 -39t63 -32.5t63 -36t49 -50t19 -74.5q0 -50 -24.5 -85t-63 -53t-82.5 -18zM100 774l30 39l123 -96h-11l122 94l28 -35l-148 -125z" />
    <glyph glyph-name="uni0162" unicode="&#x162;" horiz-adv-x="466" 
d="M155 -214l2 46q10 -1 18 -2t16 -1q45 0 69 20.5t24 47.5t-18.5 52t-64.5 51h62q30 -20 48.5 -48.5t18.5 -61.5q0 -28 -14.5 -52.5t-43.5 -40.5t-72 -16q-11 0 -22 1.5t-23 3.5zM455 769v-53h-207l15 15v-731h-62v731l15 -15h-207v53h446z" />
    <glyph glyph-name="uni0163" unicode="&#x163;" horiz-adv-x="359" 
d="M132 -214l2 46q10 -1 18.5 -2t16.5 -1q46 0 69 19t23 49q0 27 -19.5 56t-60.5 53h38q47 -21 68.5 -53.5t21.5 -66.5q0 -27 -15.5 -51t-45 -39t-70.5 -15q-11 0 -22 1t-24 4zM241 -9q-55 0 -89 37.5t-34 111.5v583h59v-569q0 -56 21 -84.5t57 -28.5q14 0 29.5 4.5
t32.5 13.5l18 -39q-26 -15 -49.5 -22t-44.5 -7zM24 520v49h294v-49h-294z" />
    <glyph glyph-name="Tcaron" unicode="&#x164;" horiz-adv-x="466" 
d="M455 769v-53h-207l15 15v-731h-62v731l15 -15h-207v53h446zM87 941l30 39l123 -96h-11l122 94l28 -35l-148 -125z" />
    <glyph glyph-name="tcaron" unicode="&#x165;" horiz-adv-x="350" 
d="M274 599l-20 18q11 16 20.5 32.5t15.5 33t8 31.5q-17 5 -25 17.5t-8 26.5q0 24 13 36t30 12q16 0 30 -13t14 -41q0 -22 -9.5 -49.5t-27 -54.5t-41.5 -49zM241 -9q-55 0 -89 37.5t-34 111.5v583h59v-569q0 -56 21 -84.5t57 -28.5q14 0 29.5 4.5t32.5 13.5l18 -39
q-26 -15 -49.5 -22t-44.5 -7zM24 520v49h294v-49h-294z" />
    <glyph glyph-name="Umacron" unicode="&#x16a;" horiz-adv-x="683" 
d="M339 -10q-70 0 -126.5 28.5t-89 93.5t-32.5 172v484h61v-484q0 -92 25.5 -144t68 -73.5t92.5 -21.5q88 0 140 53.5t52 173.5v496h61v-497q0 -96 -32.5 -158t-89.5 -92.5t-130 -30.5zM484 925v-49h-284v49h284z" />
    <glyph glyph-name="umacron" unicode="&#x16b;" horiz-adv-x="575" 
d="M421 121h10q-24 -65 -70 -97.5t-100 -32.5q-82 0 -126.5 49t-44.5 139v390h59v-386q0 -70 32.5 -108t86.5 -38q40 0 74 24t55 69t21 110v329h59v-448q0 -42 11 -63t45 -21q4 0 8.5 0.5t8.5 1.5l3 -45q-9 -2 -17.5 -2.5t-16.5 -0.5q-54 0 -76 31t-22 99zM432 758v-49h-284
v49h284z" />
    <glyph glyph-name="Uring" unicode="&#x16e;" horiz-adv-x="683" 
d="M339 -10q-70 0 -126.5 28.5t-89 93.5t-32.5 172v484h61v-484q0 -92 25.5 -144t68 -73.5t92.5 -21.5q88 0 140 53.5t52 173.5v496h61v-497q0 -96 -32.5 -158t-89.5 -92.5t-130 -30.5zM343 795q-27 0 -52 12t-40 37t-15 62t16 62.5t41.5 38t52.5 12.5t51.5 -12.5t40 -37
t15.5 -62.5q0 -37 -16 -62t-41 -37.5t-53 -12.5zM344 833q25 0 45.5 18t20.5 55t-20.5 55t-45.5 18t-44.5 -18t-19.5 -55q0 -36 20 -54.5t44 -18.5z" />
    <glyph glyph-name="uring" unicode="&#x16f;" horiz-adv-x="575" 
d="M421 121h10q-24 -65 -70 -97.5t-100 -32.5q-82 0 -126.5 49t-44.5 139v390h59v-386q0 -70 32.5 -108t86.5 -38q40 0 74 24t55 69t21 110v329h59v-448q0 -42 11 -63t45 -21q4 0 8.5 0.5t8.5 1.5l3 -45q-9 -2 -17.5 -2.5t-16.5 -0.5q-54 0 -76 31t-22 99zM291 628
q-27 0 -52 12t-40 37t-15 62t16 62.5t41.5 38t52.5 12.5t51.5 -12.5t40 -37t15.5 -62.5q0 -37 -16 -62t-41 -37.5t-53 -12.5zM292 666q25 0 45.5 18t20.5 55t-20.5 55t-45.5 18t-44.5 -18t-19.5 -55q0 -36 20 -54.5t44 -18.5z" />
    <glyph glyph-name="Uhungarumlaut" unicode="&#x170;" horiz-adv-x="683" 
d="M339 -10q-70 0 -126.5 28.5t-89 93.5t-32.5 172v484h61v-484q0 -92 25.5 -144t68 -73.5t92.5 -21.5q88 0 140 53.5t52 173.5v496h61v-497q0 -96 -32.5 -158t-89.5 -92.5t-130 -30.5zM234 823l-30 35l151 136l42 -45zM428 823l-30 35l151 136l43 -45z" />
    <glyph glyph-name="uhungarumlaut" unicode="&#x171;" horiz-adv-x="575" 
d="M421 121h10q-24 -65 -70 -97.5t-100 -32.5q-82 0 -126.5 49t-44.5 139v390h59v-386q0 -70 32.5 -108t86.5 -38q40 0 74 24t55 69t21 110v329h59v-448q0 -42 11 -63t45 -21q4 0 8.5 0.5t8.5 1.5l3 -45q-9 -2 -17.5 -2.5t-16.5 -0.5q-54 0 -76 31t-22 99zM173 656l-30 35
l151 136l42 -45zM367 656l-30 35l151 136l43 -45z" />
    <glyph glyph-name="Uogonek" unicode="&#x172;" horiz-adv-x="683" 
d="M339 -10q-70 0 -126.5 28.5t-89 93.5t-32.5 172v484h61v-484q0 -92 25.5 -144t68 -73.5t92.5 -21.5q88 0 140 53.5t52 173.5v496h61v-497q0 -96 -32.5 -158t-89.5 -92.5t-130 -30.5zM379 -223q-31 0 -57.5 10.5t-42 32.5t-15.5 55q0 34 22.5 67.5t72.5 63.5l57 -6
q-51 -25 -74.5 -55t-23.5 -59q0 -27 19.5 -45.5t55.5 -18.5q9 0 18.5 1t19.5 3l3 -42q-13 -3 -27.5 -5t-27.5 -2z" />
    <glyph glyph-name="uogonek" unicode="&#x173;" horiz-adv-x="579" 
d="M507 -218q-58 0 -89 28t-31 66q0 32 27.5 66t79.5 57v-6q-41 8 -56 39.5t-15 88.5h11q-25 -65 -71 -97.5t-101 -32.5q-81 0 -125 49t-44 139v390h58v-386q0 -70 32.5 -108t85.5 -38q40 0 74.5 24t55 69t20.5 110v329h60v-448q0 -42 11 -63t44 -21q5 0 9 0.5t9 1.5l3 -45
q-61 -18 -87.5 -46t-26.5 -58q0 -25 20.5 -44.5t60.5 -19.5q8 0 17.5 1t19.5 4l2 -42q-27 -7 -54 -7z" />
    <glyph glyph-name="Ydieresis" unicode="&#x178;" horiz-adv-x="525" 
d="M229 0v291l-228 477h66l128 -271q23 -46 40.5 -88.5t33.5 -83.5h-15q18 44 35.5 84.5t39.5 85.5l131 273h65l-236 -478v-290h-60zM165 853q-19 0 -30.5 13.5t-11.5 33.5q0 21 11.5 34t30.5 13t30.5 -13t11.5 -34q0 -20 -12 -33.5t-30 -13.5zM360 853q-19 0 -30 13.5
t-11 33.5q0 21 11.5 34t29.5 13q19 0 31 -13t12 -34q0 -20 -12 -33.5t-31 -13.5z" />
    <glyph glyph-name="Zacute" unicode="&#x179;" horiz-adv-x="534" 
d="M494 57v-57h-457v52l393 662h-384v55h452v-52l-391 -660h387zM234 823l-28 39l162 125l40 -49z" />
    <glyph glyph-name="zacute" unicode="&#x17a;" horiz-adv-x="456" 
d="M417 49v-49h-380v34l306 487h-295v48h369v-34l-304 -486h304zM207 656l-28 39l162 125l40 -49z" />
    <glyph glyph-name="Zdotaccent" unicode="&#x17b;" horiz-adv-x="534" 
d="M494 57v-57h-457v52l393 662h-384v55h452v-52l-391 -660h387zM260 864q-15 6 -20.5 20t-0.5 30q4 15 16.5 22.5t28.5 1.5q15 -6 20 -20.5t1 -28.5q-5 -16 -17 -23.5t-28 -1.5z" />
    <glyph glyph-name="zdotaccent" unicode="&#x17c;" horiz-adv-x="456" 
d="M417 49v-49h-380v34l306 487h-295v48h369v-34l-304 -486h304zM233 697q-15 6 -20.5 20t-0.5 30q4 15 16.5 22.5t28.5 1.5q15 -6 20 -20.5t1 -28.5q-5 -16 -17 -23.5t-28 -1.5z" />
    <glyph glyph-name="Zcaron" unicode="&#x17d;" horiz-adv-x="534" 
d="M494 57v-57h-457v52l393 662h-384v55h452v-52l-391 -660h387zM126 941l30 39l123 -96h-11l122 94l28 -35l-148 -125z" />
    <glyph glyph-name="zcaron" unicode="&#x17e;" horiz-adv-x="456" 
d="M417 49v-49h-380v34l306 487h-295v48h369v-34l-304 -486h304zM99 774l30 39l123 -96h-11l122 94l28 -35l-148 -125z" />
    <glyph glyph-name="florin" unicode="&#x192;" horiz-adv-x="484" 
d="M26 -241q-40 0 -84 24l21 43q17 -9 32.5 -13t28.5 -4q37 0 60.5 32t32.5 88l101 748q11 75 55.5 116t106.5 41q22 0 46 -5.5t48 -17.5l-20 -44q-44 17 -73 17q-90 0 -107 -121l-101 -748q-10 -73 -51 -114.5t-96 -41.5zM64 421v48h335v-48h-335z" />
    <glyph glyph-name="uni0218" unicode="&#x218;" horiz-adv-x="519" 
d="M243 -271l-21 18q11 17 21 34t16 33.5t8 32.5q-17 5 -25.5 18t-8.5 27q0 25 13.5 37.5t30.5 12.5t31.5 -13.5t14.5 -42.5q0 -23 -10 -51t-28 -55.5t-42 -50.5zM248 -9q-48 0 -99.5 16.5t-98.5 49.5l29 47q44 -29 88 -44.5t84 -15.5q65 0 108 39t43 111q0 44 -18.5 73
t-48.5 50t-65 38t-71 35t-66 42.5t-48.5 60t-18.5 87.5q0 64 32.5 108t82.5 66.5t102 22.5q39 0 75 -12t64.5 -36t44.5 -63l-50 -25q-22 43 -59.5 63t-78.5 20q-37 0 -71.5 -16.5t-56.5 -48t-22 -77.5q0 -41 18.5 -69t48.5 -47.5t65.5 -36t71.5 -35.5t65.5 -44.5t48 -62.5
t18.5 -91q0 -67 -30 -113t-79 -69t-108 -23z" />
    <glyph glyph-name="uni0219" unicode="&#x219;" horiz-adv-x="432" 
d="M213 -271l-21 18q12 17 21.5 34t15.5 33.5t9 32.5q-18 5 -26.5 18t-8.5 27q0 25 14 37.5t31 12.5t31 -13.5t14 -42.5q0 -23 -9.5 -51t-27.5 -55.5t-43 -50.5zM211 -9q-43 0 -86.5 14.5t-81.5 42.5l25 42q35 -24 72.5 -37t71.5 -13q45 0 78 28t33 77q0 36 -19 59.5t-49 40
t-63 32.5t-63.5 35.5t-49 49t-18.5 73.5q0 46 24 78t61.5 48.5t79.5 16.5q46 0 90.5 -21t68.5 -66l-46 -25q-19 33 -51 48t-64 15q-27 0 -51 -10.5t-39 -31t-15 -51.5q0 -35 19 -57t49 -39t63 -32.5t63 -36t49 -50t19 -74.5q0 -50 -24.5 -85t-63 -53t-82.5 -18z" />
    <glyph glyph-name="uni021A" unicode="&#x21a;" horiz-adv-x="466" 
d="M200 -271l-21 18q11 17 21 34t16 33.5t8 32.5q-17 5 -25.5 18t-8.5 27q0 25 13.5 37.5t30.5 12.5t31.5 -13.5t14.5 -42.5q0 -23 -10 -51t-28 -55.5t-42 -50.5zM455 769v-53h-207l15 15v-731h-62v731l15 -15h-207v53h446z" />
    <glyph glyph-name="uni021B" unicode="&#x21b;" horiz-adv-x="350" 
d="M180 -271l-21 18q11 17 21 34t16 33.5t8 32.5q-17 5 -25.5 18t-8.5 27q0 25 13.5 37.5t30.5 12.5t31.5 -13.5t14.5 -42.5q0 -23 -10 -51t-28 -55.5t-42 -50.5zM241 -9q-55 0 -89 37.5t-34 111.5v583h59v-569q0 -56 21 -84.5t57 -28.5q14 0 29.5 4.5t32.5 13.5l18 -39
q-26 -15 -49.5 -22t-44.5 -7zM24 520v49h294v-49h-294z" />
    <glyph glyph-name="circumflex" unicode="&#x2c6;" horiz-adv-x="508" 
d="M400 690l-30 -39l-123 95h10l-120 -94l-29 36l147 124z" />
    <glyph glyph-name="caron" unicode="&#x2c7;" horiz-adv-x="508" 
d="M108 774l30 39l123 -96h-11l122 94l28 -35l-148 -125z" />
    <glyph glyph-name="uni02C9" unicode="&#x2c9;" horiz-adv-x="408" 
d="M346 758v-49h-284v49h284z" />
    <glyph glyph-name="breve" unicode="&#x2d8;" horiz-adv-x="433" 
d="M131 802q3 -41 29 -61.5t57 -20.5q29 0 55.5 19.5t30.5 58.5l44 -2q-1 -41 -21 -68.5t-49.5 -41.5t-61.5 -14q-33 0 -62 14t-47.5 41.5t-19.5 68.5z" />
    <glyph glyph-name="dotaccent" unicode="&#x2d9;" horiz-adv-x="280" 
d="M128 697q-15 6 -20.5 20t-0.5 30q4 15 16.5 22.5t28.5 1.5q15 -6 20 -20.5t1 -28.5q-5 -16 -17 -23.5t-28 -1.5z" />
    <glyph glyph-name="ring" unicode="&#x2da;" horiz-adv-x="440" 
d="M218 628q-27 0 -52 12t-40 37t-15 62t16 62.5t41.5 38t52.5 12.5t51.5 -12.5t40 -37t15.5 -62.5q0 -37 -16 -62t-41 -37.5t-53 -12.5zM219 666q25 0 45.5 18t20.5 55t-20.5 55t-45.5 18t-44.5 -18t-19.5 -55q0 -36 20 -54.5t44 -18.5z" />
    <glyph glyph-name="ogonek" unicode="&#x2db;" horiz-adv-x="317" 
d="M191 -223q-31 0 -57.5 10.5t-42 32.5t-15.5 55q0 34 22.5 67.5t72.5 63.5l57 -6q-51 -25 -74.5 -55t-23.5 -59q0 -27 19.5 -45.5t55.5 -18.5q9 0 18.5 1t19.5 3l3 -42q-13 -3 -27.5 -5t-27.5 -2z" />
    <glyph glyph-name="tilde" unicode="&#x2dc;" horiz-adv-x="413" 
d="M338 767l28 -31q-19 -23 -41 -36t-47 -13q-29 0 -50 10.5t-40.5 21t-43.5 10.5q-18 0 -34.5 -7t-34.5 -21l-28 29q23 24 47 36.5t53 12.5q27 0 47 -10.5t39 -20.5t42 -11q17 0 33 7.5t30 22.5z" />
    <glyph glyph-name="hungarumlaut" unicode="&#x2dd;" horiz-adv-x="527" 
d="M116 656l-30 35l151 136l42 -45zM310 656l-30 35l151 136l43 -45z" />
    <glyph glyph-name="pi" unicode="&#x3c0;" horiz-adv-x="605" 
d="M177 0h-59v569h57zM43 520v49h517v-49h-517zM426 101v468h59v-461q0 -34 12 -51t36 -17q10 0 20 2.5t22 7.5l14 -44q-17 -7 -33.5 -10.5t-31.5 -3.5q-44 0 -71 27.5t-27 81.5z" />
    <glyph glyph-name="taRupee" unicode="&#xbf9;" horiz-adv-x="997" 
d="M406 1v580h224v-580h57v580h150v56h-489v-636h58zM560 1029q66 1 115.5 -11.5t83.5 -31t53 -36.5q13 -13 22 -24t14.5 -32.5t6.5 -66.5q1 -37 -24 -63.5t-67 -26.5q-38 0 -64.5 27t-26.5 66q0 43 26 70t63 27q44 0 69 -26t24 -74l36 1q0 37 -18 71.5t-47.5 57t-64.5 22.5
q-41 0 -73 -19t-51 -53t-19 -78q0 -40 19 -73t52 -52.5t75 -19.5q65 0 105.5 41.5t40.5 109.5q0 73 -42.5 129.5t-120 89t-187.5 32.5q-107 0 -200 -50t-163 -144.5t-109.5 -227t-39.5 -297.5q0 -151 33.5 -274t96.5 -212t153 -137t201 -48q96 0 173 32.5t131.5 92
t83.5 139.5t29 174q0 54 -8.5 103t-27.5 87t-50 60.5t-78 22.5q-43 0 -71 -19.5t-44.5 -48.5t-23.5 -58.5t-9 -49.5l50 -27q0 52 13.5 85t35.5 48.5t46 15.5q34 0 55 -20t33 -52.5t17 -70t5 -74.5q0 -79 -23.5 -148.5t-70 -122t-112.5 -82t-152 -29.5q-105 0 -185 47
t-134 131t-81.5 195t-27.5 240q0 134 30 252t88 209.5t142.5 145t193.5 55.5z" />
    <glyph glyph-name="sinCandrabindu" unicode="&#xd81;" horiz-adv-x="0" 
d="M-547 675q73 0 133 24.5t96 72t36 114.5h-53q0 -47 -27 -83.5t-74.5 -56t-110.5 -19.5q-106 0 -167 44t-61 115h-53q0 -67 36 -114.5t100 -72t145 -24.5zM-551 795q-22 0 -38 16t-16 39t16 38.5t38 15.5q23 0 39 -15.5t16 -38.5t-16 -39t-39 -16z" />
    <glyph glyph-name="sinAnusvara" unicode="&#xd82;" horiz-adv-x="320" 
d="M79 302q0 28 6.5 58t24 50.5t50.5 20.5q34 0 51 -20.5t23.5 -50.5t6.5 -58q0 -27 -6.5 -57t-23.5 -50.5t-51 -20.5q-33 0 -50.5 20.5t-24 50.5t-6.5 57zM28 302q0 -54 13.5 -94.5t42.5 -63t76 -22.5t76 22.5t42.5 63t13.5 94.5t-15.5 94.5t-45 63.5t-71.5 23t-71 -23
t-45 -63.5t-16 -94.5z" />
    <glyph glyph-name="sinVisarga" unicode="&#xd83;" horiz-adv-x="262" 
d="M82 171q0 20 15 35t35 15t34.5 -15t14.5 -35q0 -19 -14.5 -34t-34.5 -15t-35 15t-15 34zM36 171q0 -26 12.5 -47.5t34.5 -34.5t49 -13t48.5 13t34 34.5t12.5 47.5q0 27 -12.5 48.5t-34 35t-48.5 13.5t-49 -13.5t-34.5 -35t-12.5 -48.5zM82 463q0 19 15 34t35 15t34.5 -15
t14.5 -34q0 -20 -14.5 -35t-34.5 -15t-35 15t-15 35zM36 463q0 -26 12.5 -48t34.5 -34.5t49 -12.5t48.5 12.5t34 34.5t12.5 48q0 27 -12.5 48.5t-34 34t-48.5 12.5t-49 -12.5t-34.5 -34t-12.5 -48.5z" />
    <glyph glyph-name="sinA" unicode="&#xd85;" horiz-adv-x="626" 
d="M421 -233v700q3 38 19 70t38 53.5t39 28.5q-4 -12 -4 -25q0 -21 7 -43.5t13.5 -44t6.5 -37.5q0 -28 -17.5 -45t-54.5 -17q-11 0 -24.5 2.5t-27.5 10.5v-46q12 -6 29.5 -10t29.5 -4q40 0 65 14t36.5 38t11.5 54q0 25 -8 49.5t-16 48t-8 42.5q0 14 4.5 25.5t14.5 19.5
l-17 33q-29 -5 -54 -17.5t-45.5 -29.5t-35.5 -35.5t-25 -37.5q-7 -12 -14.5 -32.5t-12 -39t-5.5 -27.5l2 -698h53zM36 242q0 -72 33 -125.5t90.5 -83.5t132.5 -30q61 0 106.5 13t79 33.5t56.5 42t38 37.5l-33 36q-17 -17 -47 -43t-78.5 -45.5t-121.5 -19.5q-59 0 -105 23
t-72 64.5t-26 97.5q0 46 21.5 86t60.5 65t92 25h42.5h45.5h36.5h14.5q8 23 12 46.5t4 48.5q0 56 -20.5 91t-53 52.5t-70.5 17.5q-34 0 -66 -15.5t-51.5 -46t-19.5 -75.5q0 -43 17 -70.5t28 -38.5l35 28q-8 8 -20.5 27.5t-12.5 52.5q0 44 28.5 66.5t61.5 22.5q39 0 68 -27
t29 -84q0 -12 -2 -24t-4 -21h-31t-38 0.5t-33 0.5q-69 0 -120.5 -33t-79 -84.5t-27.5 -110.5z" />
    <glyph glyph-name="sinAa" unicode="&#xd86;" horiz-adv-x="907" 
d="M409 -233v700q3 38 19 70t38 53.5t39 28.5q-4 -12 -4 -25q0 -21 7 -43.5t13.5 -44t6.5 -37.5q0 -28 -17.5 -45t-54.5 -17q-11 0 -24.5 2.5t-27.5 10.5v-46q12 -6 29.5 -10t29.5 -4q40 0 65 14t36.5 38t11.5 54q0 25 -8 49.5t-16 48t-8 42.5q0 14 4.5 25.5t14.5 19.5
l-17 33q-29 -5 -54 -17.5t-45.5 -29.5t-35.5 -35.5t-25 -37.5q-7 -12 -14.5 -32.5t-12 -39t-5.5 -27.5l2 -698h53zM24 242q0 -72 33 -125.5t90.5 -83.5t132.5 -30q61 0 106.5 13t79 33.5t56.5 42t38 37.5l-33 36q-17 -17 -47 -43t-78.5 -45.5t-121.5 -19.5q-59 0 -105 23
t-72 64.5t-26 97.5q0 46 21.5 86t60.5 65t92 25h42.5h45.5h36.5h14.5q8 23 12 46.5t4 48.5q0 56 -20.5 91t-53 52.5t-70.5 17.5q-34 0 -66 -15.5t-51.5 -46t-19.5 -75.5q0 -43 17 -70.5t28 -38.5l35 28q-8 8 -20.5 27.5t-12.5 52.5q0 44 28.5 66.5t61.5 22.5q39 0 68 -27
t29 -84q0 -12 -2 -24t-4 -21h-31t-38 0.5t-33 0.5q-69 0 -120.5 -33t-79 -84.5t-27.5 -110.5zM656 552q7 10 20.5 17.5t28.5 7.5q31 0 54.5 -28.5t36.5 -85t13 -140.5t-13 -140.5t-36.5 -85.5t-54.5 -29q-15 0 -28.5 8t-20.5 17l-35 -32q17 -25 40.5 -34.5t44.5 -9.5
q34 0 62.5 19t49.5 57.5t32.5 96t11.5 133.5t-11.5 133t-32.5 95.5t-49.5 58t-62.5 19.5q-21 0 -44.5 -9.5t-40.5 -35.5z" />
    <glyph glyph-name="sinAe" unicode="&#xd87;" horiz-adv-x="1013" 
d="M421 -233v700q3 38 19 70t38 53.5t39 28.5q-4 -12 -4 -25q0 -21 7 -43.5t13.5 -44t6.5 -37.5q0 -28 -17.5 -45t-54.5 -17q-11 0 -24.5 2.5t-27.5 10.5v-46q12 -6 29.5 -10t29.5 -4q40 0 65 14t36.5 38t11.5 54q0 25 -8 49.5t-16 48t-8 42.5q0 14 4.5 25.5t14.5 19.5
l-17 33q-29 -5 -54 -17.5t-45.5 -29.5t-35.5 -35.5t-25 -37.5q-7 -12 -14.5 -32.5t-12 -39t-5.5 -27.5l2 -698h53zM36 242q0 -72 33 -125.5t90.5 -83.5t132.5 -30q61 0 106.5 13t79 33.5t56.5 42t38 37.5l-33 36q-17 -17 -47 -43t-78.5 -45.5t-121.5 -19.5q-59 0 -105 23
t-72 64.5t-26 97.5q0 46 21.5 86t60.5 65t92 25h42.5h45.5h36.5h14.5q8 23 12 46.5t4 48.5q0 56 -20.5 91t-53 52.5t-70.5 17.5q-34 0 -66 -15.5t-51.5 -46t-19.5 -75.5q0 -43 17 -70.5t28 -38.5l35 28q-8 8 -20.5 27.5t-12.5 52.5q0 44 28.5 66.5t61.5 22.5q39 0 68 -27
t29 -84q0 -12 -2 -24t-4 -21h-31t-38 0.5t-33 0.5q-69 0 -120.5 -33t-79 -84.5t-27.5 -110.5zM827 1q-38 0 -67.5 12.5t-50 36t-31 57t-10.5 74.5q0 58 19.5 115.5t54.5 123.5t82 147h-153v51h217v-50q-53 -90 -90.5 -158t-57.5 -122.5t-20 -106.5q0 -63 29 -94t79 -31
q32 0 51.5 14t31 36.5t16 47.5t4.5 47h51q0 -29 -6 -64t-22.5 -65.5t-47.5 -50.5t-79 -20z" />
    <glyph glyph-name="sinAae" unicode="&#xd88;" horiz-adv-x="991" 
d="M421 -233v700q3 38 19 70t38 53.5t39 28.5q-4 -12 -4 -25q0 -21 7 -43.5t13.5 -44t6.5 -37.5q0 -28 -17.5 -45t-54.5 -17q-11 0 -24.5 2.5t-27.5 10.5v-46q12 -6 29.5 -10t29.5 -4q40 0 65 14t36.5 38t11.5 54q0 25 -8 49.5t-16 48t-8 42.5q0 14 4.5 25.5t14.5 19.5
l-17 33q-29 -5 -54 -17.5t-45.5 -29.5t-35.5 -35.5t-25 -37.5q-7 -12 -14.5 -32.5t-12 -39t-5.5 -27.5l2 -698h53zM36 242q0 -72 33 -125.5t90.5 -83.5t132.5 -30q61 0 106.5 13t79 33.5t56.5 42t38 37.5l-33 36q-17 -17 -47 -43t-78.5 -45.5t-121.5 -19.5q-59 0 -105 23
t-72 64.5t-26 97.5q0 46 21.5 86t60.5 65t92 25h42.5h45.5h36.5h14.5q8 23 12 46.5t4 48.5q0 56 -20.5 91t-53 52.5t-70.5 17.5q-34 0 -66 -15.5t-51.5 -46t-19.5 -75.5q0 -43 17 -70.5t28 -38.5l35 28q-8 8 -20.5 27.5t-12.5 52.5q0 44 28.5 66.5t61.5 22.5q39 0 68 -27
t29 -84q0 -12 -2 -24t-4 -21h-31t-38 0.5t-33 0.5q-69 0 -120.5 -33t-79 -84.5t-27.5 -110.5zM654 168q0 -37 10 -68t29 -52.5t48 -33t65 -11.5q50 0 80.5 19t46.5 50t21.5 65.5t5.5 63.5h-51q0 -21 -4 -46.5t-15.5 -48t-31.5 -37t-52 -14.5q-47 0 -74 30t-27 86
q0 41 18 80.5t45.5 70.5t59 49.5t59.5 18.5v33q-38 0 -79 -20t-76 -55t-56.5 -81t-21.5 -99zM891 390v50h-218v-50h218zM663 569h131l-121 -129h66l119 129v49h-195v-49z" />
    <glyph glyph-name="sinI" unicode="&#xd89;" horiz-adv-x="620" 
d="M149 -153q31 -39 68.5 -57.5t73.5 -18.5q46 0 80 20.5t52.5 54.5t18.5 77q0 62 -30 95t-68 34l-61 14l-25 -37q8 1 14.5 1t12.5 -1q46 -4 68.5 -20.5t29 -39.5t6.5 -45q0 -42 -26.5 -71.5t-73.5 -29.5q-25 0 -51.5 13.5t-48.5 41.5zM45 424q0 -55 13 -96t38 -73l44 -8
l-11 42l-5.5 11.5t-13 30.5t-13 44t-5.5 52q0 50 24 93.5t71.5 71t117.5 27.5q62 0 112 -26t80 -82.5t30 -148.5q0 -78 -25.5 -131.5t-66.5 -86.5t-88 -48t-90 -15l1 -52q17 2 32 4t30.5 4.5t31.5 5.5q48 13 89.5 39t73 65.5t49 93t17.5 121.5q0 111 -37 179.5t-100 100
t-139 31.5q-68 0 -117 -22t-80.5 -58.5t-47 -80.5t-15.5 -88zM116 340q0 39 27.5 66.5t66.5 27.5q38 0 65.5 -27.5t27.5 -66.5q0 -38 -27.5 -65t-65.5 -27q-39 0 -66.5 27t-27.5 65zM71 317q0 -4 0.5 -9t1.5 -11q10 -28 30 -50.5t48 -35t59 -12.5q40 0 72.5 19t51.5 52
t19 72q0 34 -15 63.5t-41 49.5q-17 14 -38.5 21t-45.5 7q-38 0 -67 -17t-45.5 -46.5t-17.5 -65.5q-5 -9 -8.5 -17.5t-3.5 -19.5z" />
    <glyph glyph-name="sinIi" unicode="&#xd8a;" horiz-adv-x="566" 
d="M446 658q-18 0 -30.5 12.5t-12.5 29.5q0 18 12.5 31t30.5 13t30 -13t12 -31q0 -17 -12 -29.5t-30 -12.5zM185 748q-17 0 -29.5 12.5t-12.5 29.5q0 19 12.5 31.5t29.5 12.5q19 0 31 -12.5t12 -31.5q0 -17 -12 -29.5t-31 -12.5zM62 276l27 25q0 54 14 99t34 80.5t40 60.5
t33 38q61 61 104 111t66 96.5t23 97.5h-52q0 -32 -11 -62.5t-32.5 -60.5t-52.5 -64t-70 -72q-69 -69 -109 -147t-40 -177zM89 301q0 33 10 76.5t33 83t62 65.5t100 26q52 0 89 -30.5t57.5 -84t20.5 -123.5q0 -71 -21.5 -129.5t-63.5 -93t-102 -34.5q-59 0 -100 30.5
t-63 85.5t-22 128zM36 301q0 -86 27.5 -153.5t80 -106t129.5 -38.5q79 0 132.5 41.5t81 112.5t27.5 157q0 47 -8.5 88.5t-24.5 75.5q-18 40 -45.5 67.5t-62 41.5t-74.5 14q-42 0 -72.5 -10.5t-53.5 -31.5q-9 -6 -19.5 -10.5t-21 -10t-18.5 -11t-13 -13.5q-24 -30 -38.5 -69
t-20.5 -77t-6 -67z" />
    <glyph glyph-name="sinU" unicode="&#xd8b;" horiz-adv-x="618" 
d="M37 151q0 -61 16.5 -119.5t50.5 -104t87 -72.5t125 -27q83 0 138 31t86.5 79t43.5 99l-54 9q-9 -39 -35.5 -77t-71 -62.5t-107.5 -24.5q-58 0 -100 22.5t-69 61t-40 86.5t-13 99q0 92 32.5 151t85.5 87.5t113 28.5h42h46h36.5h14.5q8 23 12.5 46.5t4.5 49.5
q0 55 -21 90.5t-54 52.5t-71 17q-34 0 -65 -15.5t-50.5 -46t-19.5 -75.5q0 -43 16.5 -70.5t27.5 -37.5l35 27q-8 8 -20 28t-12 52q0 45 27.5 67.5t60.5 22.5q39 0 68 -27.5t29 -83.5q0 -12 -1.5 -24.5t-3.5 -21.5q-20 1 -51 1h-51q-58 0 -109.5 -19.5t-92 -59t-63.5 -99.5
t-23 -141z" />
    <glyph glyph-name="sinUu" unicode="&#xd8c;" horiz-adv-x="988" 
d="M37 151q0 -61 16.5 -119.5t50.5 -104t87 -72.5t125 -27q83 0 138 31t86.5 79t43.5 99l-54 9q-9 -39 -35.5 -77t-71 -62.5t-107.5 -24.5q-58 0 -100 22.5t-69 61t-40 86.5t-13 99q0 92 32.5 151t85.5 87.5t113 28.5h42h46h36.5h14.5q8 23 12.5 46.5t4.5 49.5
q0 55 -21 90.5t-54 52.5t-71 17q-34 0 -65 -15.5t-50.5 -46t-19.5 -75.5q0 -43 16.5 -70.5t27.5 -37.5l35 27q-8 8 -20 28t-12 52q0 45 27.5 67.5t60.5 22.5q39 0 68 -27.5t29 -83.5q0 -12 -1.5 -24.5t-3.5 -21.5q-20 1 -51 1h-51q-58 0 -109.5 -19.5t-92 -59t-63.5 -99.5
t-23 -141zM598 411q0 -36 8.5 -66.5t28 -49t54.5 -18.5q38 0 57 20.5t27.5 52.5t11.5 64q6 53 19 79.5t39 26.5q32 0 47.5 -26.5t21 -69.5t5.5 -91q0 -144 -33 -211.5t-105 -67.5q-25 0 -39.5 7.5t-22 18t-11.5 15.5l-38 -29q6 -8 17 -23.5t33.5 -27.5t60.5 -12
q48 0 83 19.5t58.5 60t35 103t11.5 147.5q0 36 -4.5 77.5t-17 78.5t-37 60.5t-64.5 23.5q-50 0 -75.5 -39.5t-32.5 -109.5q-2 -24 -6 -46.5t-13.5 -36.5t-27.5 -14t-27 13.5t-11.5 33.5t-2.5 38q0 46 8 69t21.5 31.5t29.5 8.5v49q-29 0 -54.5 -16t-40 -50.5t-14.5 -92.5z
" />
    <glyph glyph-name="sinRVocalic" unicode="&#xd8d;" horiz-adv-x="979" 
d="M194 3q-52 0 -87 29.5t-52 79.5t-17 111q0 39 7 80.5t23.5 77.5t45.5 57q15 12 33.5 18.5t41.5 6.5h277q22 0 41 -6.5t33 -18.5q30 -21 46 -57t23 -77.5t7 -80.5q0 -61 -17 -111t-51 -79.5t-88 -29.5q-38 0 -63 13.5t-39.5 34t-21.5 41t-9 34.5q-2 -14 -9 -34.5
t-21.5 -41t-39 -34t-63.5 -13.5zM194 57q37 0 58 19t32 49.5t15 66t4 67.5h48q1 -32 5 -67.5t14.5 -66t32 -49.5t57.5 -19q53 0 78.5 48t25.5 118q0 25 -3.5 57t-14.5 62t-31 50t-54 20h-268q-33 0 -53.5 -20t-31.5 -50t-14.5 -62t-3.5 -57q0 -70 26 -118t78 -48zM126 412
q-25 21 -40.5 55t-15.5 69q0 45 19.5 76t50.5 46t66 15q48 0 89 -29t52 -90q2 -8 2.5 -16.5t0.5 -18.5q0 -19 -3 -37t-8.5 -35t-11.5 -35l-24 47q0 14 0.5 27.5t0.5 27.5q0 58 -29.5 84.5t-68.5 26.5q-33 0 -61 -22.5t-28 -66.5q0 -28 13 -54.5t33 -42.5zM767 6
q-32 0 -53.5 16t-33 41t-16 52t-4.5 49q0 47 15 83t42.5 56.5t62.5 20.5q28 0 52.5 -9.5t37.5 -26.5l-10 -48q-17 20 -36 27.5t-35 7.5q-39 0 -59 -32.5t-20 -77.5q0 -52 16.5 -79.5t52.5 -27.5q14 0 37 7.5t41 7.5q5 0 9.5 -0.5t8.5 -2.5l27 -64q-8 13 -17 18t-19 5
q-19 0 -43 -11.5t-56 -11.5zM528 412l-38 27q21 16 34 42t13 55q0 44 -27.5 66.5t-61.5 22.5q-38 0 -67.5 -27t-29.5 -84v-27.5v-27.5l-24 -47q-6 18 -11 35t-8.5 35t-3.5 37t3 35q12 61 52.5 90t89.5 29q34 0 65 -15t50.5 -46t19.5 -76q0 -35 -15 -69t-41 -55zM902 6
q-29 40 -39.5 79t-10.5 82q0 38 5.5 82t10.5 96t5 112q0 62 -19.5 90t-57.5 28q-45 0 -62 -33t-17 -79q0 -9 0.5 -20t1.5 -22h-50q-1 12 -2 21.5t-1 20.5q0 46 12 83t40.5 58.5t77.5 21.5q61 0 94.5 -40t33.5 -130t-9 -160t-9 -125q0 -39 8 -72.5t29 -65.5z" />
    <glyph glyph-name="sinRrVocalic" unicode="&#xd8e;" horiz-adv-x="1299" 
d="M194 3q-52 0 -87 29.5t-52 79.5t-17 111q0 39 7 80.5t24 77.5t45 57q15 12 33.5 18.5t40.5 6.5h278q22 0 41 -6.5t33 -18.5q30 -21 46 -57t23.5 -77.5t7.5 -80.5q0 -61 -17.5 -111t-51.5 -79.5t-88 -29.5q-38 0 -63 13.5t-39 34t-21.5 41t-9.5 34.5q-2 -14 -9 -34.5
t-21.5 -41t-39 -34t-63.5 -13.5zM194 57q37 0 58 19.5t32 50t15 66t4 67.5h48q1 -32 5 -67.5t14.5 -66t32 -50t57.5 -19.5q53 0 78.5 48t25.5 118q0 25 -3.5 57t-14.5 62t-31 50t-54 20h-268q-33 0 -53.5 -20t-31.5 -50t-14.5 -62t-3.5 -57q0 -70 26 -118t78 -48zM126 412
q-25 21 -40.5 55t-15.5 69q0 45 19.5 76t51 46t65.5 15q48 0 89 -29t52 -90q2 -7 2.5 -16.5t0.5 -18.5q0 -20 -3 -37.5t-8.5 -34.5t-11.5 -35l-24 47q1 14 1 27.5v27.5q0 58 -29.5 84.5t-67.5 26.5q-34 0 -62 -22.5t-28 -66.5q0 -29 13 -55t33 -42zM528 412l-37 27
q21 16 33.5 42t12.5 55q0 44 -28 66.5t-62 22.5q-37 0 -66.5 -27t-29.5 -84v-27.5v-27.5l-24 -47q-6 18 -11.5 35t-8.5 34.5t-3 37.5q0 9 1 18.5t3 16.5q11 61 51.5 90t88.5 29q35 0 66 -15t50.5 -46t19.5 -76q0 -35 -15.5 -69t-40.5 -55zM971 164q0 -22 5 -49t17 -52
t32.5 -41t53.5 -16q32 0 55.5 11.5t43.5 11.5q10 0 19.5 -5t18.5 -18l-29 64q-4 1 -8.5 1.5t-10.5 0.5q-17 0 -39.5 -7.5t-38.5 -7.5q-34 0 -51.5 28t-17.5 80q0 45 20.5 78t59.5 33q15 0 34.5 -7.5t37.5 -27.5l9 47q-13 17 -37 26.5t-53 9.5q-35 0 -62 -20.5t-43 -56.5
t-16 -83zM1031 421q-1 11 -1.5 22t-0.5 20q0 46 17 79t63 33q36 0 56 -28t20 -90q0 -60 -5 -112t-10 -95.5t-5 -81.5q0 -43 10.5 -82.5t40.5 -79.5l39 26q-21 32 -28.5 66t-7.5 73q0 55 8 125t8 160t-33 130t-93 40q-49 0 -77.5 -21.5t-41 -58.5t-12.5 -83q0 -11 0.5 -20.5
t1.5 -21.5h51zM661 164q0 -22 4.5 -49t16 -52t33 -41t53.5 -16t56 11.5t43 11.5q10 0 19 -5t19 -18l-29 64q-3 1 -8 1.5t-10 0.5q-18 0 -41 -7.5t-37 -7.5q-35 0 -52 28t-17 80q0 45 20 78t59 33q16 0 35 -7.5t37 -27.5l10 47q-30 36 -91 36q-35 0 -62.5 -20.5t-42.5 -56.5
t-15 -83zM720 421q-1 11 -1 22v20q0 46 16.5 79t61.5 33q38 0 58 -28t20 -90q0 -60 -5 -112t-10.5 -95.5t-5.5 -81.5q0 -43 10.5 -82.5t40.5 -79.5l40 26q-22 32 -29.5 66t-7.5 73q0 55 8.5 125t8.5 160t-33 130t-95 40q-49 0 -77.5 -21.5t-40 -58.5t-11.5 -83
q0 -11 0.5 -20.5t1.5 -21.5h50z" />
    <glyph glyph-name="sinLVocalic" unicode="&#xd8f;" horiz-adv-x="1008" 
d="M765 113q0 25 18 44t44 19t43.5 -19t17.5 -44t-17.5 -43t-43.5 -18t-44 18t-18 43zM717 113q0 -30 15 -55.5t40 -40t55 -14.5t54 14.5t38 40t14 55.5q0 22 -8 41.5t-22 34.5t-34 24t-43 9q-29 0 -54 -14.5t-40 -39t-15 -55.5zM911 323q0 -58 -3 -102t-9 -78
q-1 -52 -20.5 -72.5t-51.5 -20.5v-47q37 0 62.5 17.5t42 56t24 99.5t7.5 148q0 98 -12 163.5t-32 103.5t-45.5 54t-51.5 16q-34 0 -58 -16.5t-36 -43.5t-12 -59l41 -9q1 25 9.5 41.5t23 25t32.5 8.5q40 0 64.5 -74t24.5 -211zM481 519q0 -19 3.5 -37t9 -35t10.5 -35l23 47
v26v29q0 57 29.5 84t68.5 27q34 0 61.5 -22.5t27.5 -66.5q0 -29 -12.5 -55t-33.5 -42l37 -27q25 21 40.5 55t15.5 69q0 45 -19.5 76t-50.5 46t-66 15q-48 0 -88.5 -29t-52.5 -90q-1 -8 -2 -16.5t-1 -18.5zM264 255q0 41 14.5 76t44 56t74.5 21h213q46 0 75.5 -21t44 -56
t14.5 -76q0 -63 -30.5 -110.5t-84 -73.5t-125.5 -26q-71 0 -125 26t-84.5 73.5t-30.5 110.5zM212 255q0 -55 18 -102q5 -4 8 -9t4 -10q1 -3 1 -5.5t1 -5.5q24 -41 62 -71t88.5 -45.5t109.5 -15.5q60 0 110 15.5t88.5 45.5t61.5 71q0 3 0.5 5.5t1.5 5.5q1 5 4 10t8 9
q19 47 19 102q0 56 -21 102t-62 74t-103 28h-215q-61 0 -102 -28t-61.5 -74t-20.5 -102zM247 536q0 -35 15 -69t41 -55l37 27q-21 16 -33.5 42t-12.5 55q0 44 28 66.5t62 22.5q38 0 67.5 -27t29.5 -84v-29v-26l23 -47q6 18 11 35t8.5 35t3.5 37q0 10 -0.5 18.5t-2.5 16.5
q-12 61 -52 90t-89 29q-34 0 -65.5 -15t-51 -46t-19.5 -76zM46 324q0 -87 7.5 -148t23 -99.5t41.5 -56t62 -17.5l1 47q-32 0 -51.5 20.5t-20.5 72.5q-6 34 -9 78t-3 102q0 137 24.5 211t65.5 74q18 0 32 -8.5t23 -25t9 -41.5l41 9q-1 32 -12.5 59t-34.5 43.5t-59 16.5
q-26 0 -51.5 -16t-45.5 -54t-31.5 -103.5t-11.5 -163.5zM120 113q0 25 18 44t43 19q26 0 43.5 -19t17.5 -44t-17.5 -43t-43.5 -18q-25 0 -43 18t-18 43zM75 113q0 -30 14.5 -55.5t38.5 -40t52 -14.5q31 0 56 14.5t40 40t15 55.5q0 31 -14.5 55.5t-39.5 39t-55 14.5
q-23 0 -43 -9t-34 -24t-22 -34.5t-8 -41.5z" />
    <glyph glyph-name="sinLlVocalic" unicode="&#xd90;" horiz-adv-x="1415" 
d="M767 113q0 25 18 44t44 19t43.5 -19t17.5 -44t-17.5 -43t-43.5 -18t-44 18t-18 43zM719 113q0 -30 15 -55.5t40 -40t55 -14.5t54 14.5t38 40t14 55.5q0 22 -8 41.5t-22 34.5t-34 24t-43 9q-29 0 -54 -14.5t-40 -39t-15 -55.5zM913 323q0 -58 -3 -102t-9 -78
q-1 -52 -20.5 -72.5t-51.5 -20.5v-47q37 0 62.5 17.5t42 56t24 99.5t7.5 148q0 98 -12 163.5t-32 103.5t-45.5 54t-51.5 16q-34 0 -58 -16.5t-36 -43.5t-12 -59l41 -9q1 25 9.5 41.5t23 25t32.5 8.5q40 0 64.5 -74t24.5 -211zM483 519q0 -19 3.5 -37t9 -35t10.5 -35l23 47
v26v29q0 57 29.5 84t68.5 27q34 0 61.5 -22.5t27.5 -66.5q0 -29 -12.5 -55t-33.5 -42l37 -27q25 21 40.5 55t15.5 69q0 45 -19.5 76t-50.5 46t-66 15q-48 0 -88.5 -29t-52.5 -90q-1 -8 -2 -16.5t-1 -18.5zM266 255q0 41 14.5 76t44 56t74.5 21h213q46 0 75.5 -21t44 -56
t14.5 -76q0 -63 -30.5 -110.5t-84 -73.5t-125.5 -26q-71 0 -125 26t-84.5 73.5t-30.5 110.5zM214 255q0 -55 18 -102q5 -4 8 -9t4 -10q1 -3 1 -5.5t1 -5.5q24 -41 62 -71t88.5 -45.5t109.5 -15.5q60 0 110 15.5t88.5 45.5t61.5 71q0 3 0.5 5.5t1.5 5.5q1 5 4 10t8 9
q19 47 19 102q0 56 -21 102t-62 74t-103 28h-215q-61 0 -102 -28t-61.5 -74t-20.5 -102zM249 536q0 -35 15 -69t41 -55l37 27q-21 16 -33.5 42t-12.5 55q0 44 28 66.5t62 22.5q38 0 67.5 -27t29.5 -84v-29v-26l23 -47q6 18 11 35t8.5 35t3.5 37q0 10 -0.5 18.5t-2.5 16.5
q-12 61 -52 90t-89 29q-34 0 -65.5 -15t-51 -46t-19.5 -76zM48 324q0 -87 7.5 -148t23 -99.5t41.5 -56t62 -17.5l1 47q-32 0 -51.5 20.5t-20.5 72.5q-6 34 -9 78t-3 102q0 137 24.5 211t65.5 74q18 0 32 -8.5t23 -25t9 -41.5l41 9q-1 32 -12.5 59t-34.5 43.5t-59 16.5
q-26 0 -51.5 -16t-45.5 -54t-31.5 -103.5t-11.5 -163.5zM122 113q0 25 18 44t43 19q26 0 43.5 -19t17.5 -44t-17.5 -43t-43.5 -18q-25 0 -43 18t-18 43zM77 113q0 -30 14.5 -55.5t38.5 -40t52 -14.5q31 0 56 14.5t40 40t15 55.5q0 31 -14.5 55.5t-39.5 39t-55 14.5
q-23 0 -43 -9t-34 -24t-22 -34.5t-8 -41.5zM1013 411q0 -36 8.5 -66.5t28 -49t54.5 -18.5q38 0 57 20.5t27.5 52.5t11.5 64q6 53 19 79.5t39 26.5q32 0 47.5 -26.5t21 -69.5t5.5 -91q0 -144 -33 -211.5t-105 -67.5q-25 0 -39.5 7.5t-22 18t-11.5 15.5l-38 -29q6 -8 17 -23.5
t33.5 -27.5t60.5 -12q48 0 83 19.5t58.5 60t35 103t11.5 147.5q0 36 -4.5 77.5t-17 78.5t-37 60.5t-64.5 23.5q-50 0 -75.5 -39.5t-32.5 -109.5q-2 -24 -6 -46.5t-13.5 -36.5t-27.5 -14t-27 13.5t-11.5 33.5t-2.5 38q0 46 8 69t21.5 31.5t29.5 8.5v49q-29 0 -54.5 -16
t-40 -50.5t-14.5 -92.5z" />
    <glyph glyph-name="sinE" unicode="&#xd91;" horiz-adv-x="614" 
d="M302 3q-75 0 -124 22.5t-76.5 59t-39 76.5t-11.5 74q0 55 13.5 88.5t28.5 51t21 21.5h-78v48l309 -1l12 -47h-144q-29 0 -54.5 -20t-40.5 -55t-15 -83q0 -27 9 -58.5t30.5 -59t60.5 -45.5t99 -18q59 0 102.5 23t73 66t44.5 104.5t15 138.5q0 47 -5 91t-14 85l-8 33
q-17 63 -44.5 118.5t-63.5 97.5q-30 41 -66 69l31 36q52 -41 93.5 -98.5t70 -127.5t44 -147.5t15.5 -156.5q0 -90 -18.5 -161.5t-54.5 -121.5t-90 -76.5t-125 -26.5zM357 396l-44 34q0 3 0.5 5.5t0.5 4.5q0 56 -29 83.5t-69 27.5q-34 0 -57 -19t-23 -56q0 -13 3 -23.5
t8 -19.5l-41 -20q-8 14 -13 30t-5 33q0 59 38 90t90 31q38 0 71 -17t53.5 -52.5t20.5 -90.5q0 -11 -1 -21t-3 -20zM521 558q-12 -2 -24.5 -2.5t-24.5 -0.5q-46 2 -81.5 20.5t-56 48t-20.5 63.5q0 37 12.5 64t25 49t12.5 40q0 10 -5.5 21t-22.5 22l78 -18l-9 -50
q-1 -17 -11 -35.5t-20 -41t-10 -52.5q0 -32 30 -58t82 -27q8 0 16.5 1t18.5 2l28 -10z" />
    <glyph glyph-name="sinEe" unicode="&#xd92;" horiz-adv-x="617" 
d="M523 565v87q0 27 -2 63t-2 77q0 54 -0.5 101.5t-0.5 89.5h48v-16l-5 -18v-190l5 -22v-172h-43zM586 719q-26 0 -50 7l9 45q6 -1 16 -3.5t24 -2.5q29 0 50 19.5t21 67.5q0 41 -16 59t-37 22t-38 4h-5h-4l-22 24l32 22q15 0 38 -3t46 -14.5t38 -38.5t15 -75q0 -71 -35 -102
t-82 -31zM302 3q-75 0 -124 22.5t-76.5 59t-39 76.5t-11.5 74q0 55 13.5 88.5t28.5 51t21 21.5h-78v48l309 -1l12 -47h-144q-29 0 -54.5 -20t-40.5 -55t-15 -83q0 -27 9 -58.5t30.5 -59t60.5 -45.5t99 -18q59 0 102.5 23t73 66t44.5 104.5t15 138.5q0 47 -5 91t-14 85l-8 33
q-17 63 -44.5 118.5t-63.5 97.5q-30 41 -66 69l31 36q52 -41 93.5 -98.5t70 -127.5t44 -147.5t15.5 -156.5q0 -90 -18.5 -161.5t-54.5 -121.5t-90 -76.5t-125 -26.5zM357 396l-44 34q0 3 0.5 5.5t0.5 4.5q0 56 -29 83.5t-69 27.5q-34 0 -57 -19t-23 -56q0 -13 3 -23.5
t8 -19.5l-41 -20q-8 14 -13 30t-5 33q0 59 38 90t90 31q38 0 71 -17t53.5 -52.5t20.5 -90.5q0 -11 -1 -21t-3 -20zM521 558q-12 -2 -24.5 -2.5t-24.5 -0.5q-46 2 -81.5 20.5t-56 48t-20.5 63.5q0 37 12.5 64t25 49t12.5 40q0 10 -5.5 21t-22.5 22l78 -18l-9 -50
q-1 -17 -11 -35.5t-20 -41t-10 -52.5q0 -32 30 -58t82 -27q8 0 16.5 1t18.5 2l28 -10z" />
    <glyph glyph-name="sinAi" unicode="&#xd93;" horiz-adv-x="1118" 
d="M271 306q0 30 21.5 51.5t51.5 21.5t52 -21.5t22 -51.5t-22 -52t-52 -22t-51.5 22t-21.5 52zM222 307q0 -35 18.5 -64t46.5 -45q13 -6 27.5 -9.5t27.5 -3.5q32 0 58 17.5t39 44.5q5 9 10 18.5t8.5 20.5t3.5 21q0 33 -16 61t-42 45t-59 17t-61 -17t-44.5 -45t-16.5 -61z
M39 319q0 -92 27 -163.5t81.5 -112t133.5 -40.5q53 0 91.5 20t63.5 53.5t37 74.5t12 83q0 95 -40 145.5t-101 50.5v-51q31 0 50.5 -17.5t30 -50t10.5 -76.5t-15.5 -85t-50 -67.5t-88.5 -26.5q-62 0 -104.5 34t-64 93.5t-21.5 135.5q0 77 26.5 141t73.5 103.5t110 39.5
q47 0 79.5 -20.5t58.5 -53.5l40 32q-30 44 -75.5 69.5t-102.5 25.5q-59 0 -107.5 -27t-83 -73.5t-53 -107t-18.5 -129.5zM808 3q-75 0 -124 22.5t-76.5 59t-39 76.5t-11.5 74q0 55 13.5 88.5t28.5 51t21 21.5h-78v48l309 -1l12 -47h-144q-29 0 -54.5 -20t-40.5 -55t-15 -83
q0 -27 9 -58.5t30.5 -59t60.5 -45.5t99 -18q59 0 102.5 23t73 66t44.5 104.5t15 138.5q0 47 -5 91t-14 85l-8 33q-17 63 -44.5 118.5t-63.5 97.5q-30 41 -66 69l31 36q52 -41 93.5 -98.5t70 -127.5t44 -147.5t15.5 -156.5q0 -90 -18.5 -161.5t-54.5 -121.5t-90 -76.5
t-125 -26.5zM863 396l-44 34q0 3 0.5 5.5t0.5 4.5q0 56 -29 83.5t-69 27.5q-34 0 -57 -19t-23 -56q0 -13 3 -23.5t8 -19.5l-41 -20q-8 14 -13 30t-5 33q0 59 38 90t90 31q38 0 71 -17t53.5 -52.5t20.5 -90.5q0 -11 -1 -21t-3 -20zM1027 558q-12 -2 -24.5 -2.5t-24.5 -0.5
q-46 2 -81.5 20.5t-56 48t-20.5 63.5q0 37 12.5 64t25 49t12.5 40q0 10 -5.5 21t-22.5 22l78 -18l-9 -50q-1 -17 -11 -35.5t-20 -41t-10 -52.5q0 -32 30 -58t82 -27q8 0 16.5 1t18.5 2l28 -10z" />
    <glyph glyph-name="sinO" unicode="&#xd94;" horiz-adv-x="644" 
d="M38 286q0 -44 4 -93.5t18 -92.5t42.5 -70t77.5 -27q39 0 63.5 13.5t39 34t21.5 41t9 34.5q2 -14 9 -34.5t21.5 -41t39.5 -34t63 -13.5q45 0 75 18.5t47.5 50.5t25.5 74.5t10.5 90.5t2.5 96q0 176 -33 291t-100.5 172t-172.5 57q-49 0 -94.5 -19.5t-80.5 -53t-52 -78.5
l50 -18q13 33 40.5 59t63 41t73.5 15q86 0 142 -51t83 -154t27 -261q0 -51 -2.5 -99.5t-13 -88.5t-32.5 -64t-59 -24q-36 0 -57 19t-31.5 49.5t-14.5 66t-5 67.5h-48q-1 -32 -5 -67.5t-14.5 -66t-32 -49.5t-57.5 -19q-33 0 -51 22.5t-26.5 58t-11 75.5t-2.5 75q0 48 4.5 94
t15 83.5t27.5 59.5t41 22q23 0 39 -15.5t16 -55.5l47 11q0 26 -10.5 51.5t-33 42t-59.5 16.5q-39 0 -65.5 -26.5t-43 -70.5t-23.5 -99.5t-7 -114.5zM230 422q0 -42 21 -73t72 -31q33 0 53 16t28.5 39t10.5 46.5t2 37.5q0 15 -2.5 38.5t-11 46t-28 38.5t-51.5 16
q-39 0 -59 -25t-24 -58l36 -12q3 23 15.5 35t30.5 12q17 0 26.5 -10.5t14 -26t5.5 -30t1 -23.5t-1 -24t-5.5 -30t-14 -25.5t-25.5 -10.5q-29 0 -37.5 19t-8.5 39q0 13 1 32t1 29l-47 -11q0 -18 -1.5 -29.5t-1.5 -24.5z" />
    <glyph glyph-name="sinOo" unicode="&#xd95;" horiz-adv-x="644" 
d="M77 849q0 -36 22 -65.5t47 -46.5l40 -10v35q-20 14 -38 35.5t-18 48.5q0 18 15.5 38.5t55 34.5t110.5 14q60 0 107.5 -16t75 -44t27.5 -65q0 -29 -16.5 -50.5t-42.5 -31.5l-25 -32l34 -14q21 6 40 18t33 28t22.5 37t8.5 45q0 51 -35 91t-94.5 62.5t-134.5 22.5
q-68 0 -113 -13t-71.5 -33t-38 -43.5t-11.5 -45.5zM38 286q0 -44 4 -93.5t18.5 -92.5t43 -70t77.5 -27q38 0 62.5 13.5t39 34t21.5 41t9 34.5q3 -14 9.5 -34.5t21 -41t39.5 -34t64 -13.5q45 0 74.5 18.5t47 50.5t25.5 74.5t10.5 90.5t2.5 96q0 135 -27.5 222.5t-74.5 137
t-105 70t-119 20.5q-32 0 -67.5 -8.5t-70 -25.5t-64.5 -43l33 -41q32 26 71 46t95 20q51 0 100 -17.5t88.5 -61t63 -121.5t23.5 -198q0 -51 -2.5 -99.5t-13 -88.5t-32 -64t-58.5 -24t-58 19t-31.5 49.5t-14.5 66t-5 67.5h-48q-1 -32 -5 -67.5t-14.5 -66t-31.5 -49.5t-58 -19
q-32 0 -50.5 22.5t-27 58t-11 75.5t-2.5 75q0 48 5 94t15 83.5t27 59.5t41 22q23 0 39.5 -15.5t16.5 -55.5l47 11q0 26 -11 51.5t-33.5 42t-59.5 16.5q-38 0 -65 -26.5t-43.5 -70.5t-23.5 -99.5t-7 -114.5zM231 422q0 -42 21 -73t71 -31q34 0 53.5 16t28 39t11 46.5
t2.5 37.5q0 15 -3 38.5t-11.5 46t-28 38.5t-51.5 16q-39 0 -58.5 -25t-24.5 -58l37 -12q3 23 15.5 35t29.5 12t27 -10.5t14 -26t5 -30t1 -23.5t-1 -24t-5.5 -30t-14 -25.5t-25.5 -10.5q-28 0 -36.5 19t-8.5 39q0 13 1 32t1 29l-47 -11q0 -18 -1.5 -29.5t-1.5 -24.5z" />
    <glyph glyph-name="sinAu" unicode="&#xd96;" horiz-adv-x="990" 
d="M38 286q0 -44 4 -93.5t18 -92.5t42.5 -70t77.5 -27q39 0 63.5 13.5t39 34t21.5 41t9 34.5q2 -14 9 -34.5t21.5 -41t39.5 -34t63 -13.5q45 0 75 18.5t47.5 50.5t25.5 74.5t10.5 90.5t2.5 96q0 176 -33 291t-100.5 172t-172.5 57q-49 0 -94.5 -19.5t-80.5 -53t-52 -78.5
l50 -18q13 33 40.5 59t63 41t73.5 15q86 0 142 -51t83 -154t27 -261q0 -51 -2.5 -99.5t-13 -88.5t-32.5 -64t-59 -24q-36 0 -57 19t-31.5 49.5t-14.5 66t-5 67.5h-48q-1 -32 -5 -67.5t-14.5 -66t-32 -49.5t-57.5 -19q-33 0 -51 22.5t-26.5 58t-11 75.5t-2.5 75q0 48 4.5 94
t15 83.5t27.5 59.5t41 22q23 0 39 -15.5t16 -55.5l47 11q0 26 -10.5 51.5t-33 42t-59.5 16.5q-39 0 -65.5 -26.5t-43 -70.5t-23.5 -99.5t-7 -114.5zM230 422q0 -42 21 -73t72 -31q33 0 53 16t28.5 39t10.5 46.5t2 37.5q0 15 -2.5 38.5t-11 46t-28 38.5t-51.5 16
q-39 0 -59 -25t-24 -58l36 -12q3 23 15.5 35t30.5 12q17 0 26.5 -10.5t14 -26t5.5 -30t1 -23.5t-1 -24t-5.5 -30t-14 -25.5t-25.5 -10.5q-29 0 -37.5 19t-8.5 39q0 13 1 32t1 29l-47 -11q0 -18 -1.5 -29.5t-1.5 -24.5zM664 411q0 -36 8.5 -66.5t28 -49t54.5 -18.5
q38 0 57 20.5t27.5 52.5t11.5 64q6 53 19 79.5t39 26.5q32 0 47.5 -26.5t21 -69.5t5.5 -91q0 -144 -33 -211.5t-105 -67.5q-25 0 -39.5 7.5t-22 18t-11.5 15.5l-38 -29q6 -8 17 -23.5t33.5 -27.5t60.5 -12q48 0 83 19.5t58.5 60t35 103t11.5 147.5q0 36 -4.5 77.5t-17 78.5
t-37 60.5t-64.5 23.5q-50 0 -75.5 -39.5t-32.5 -109.5q-2 -24 -6 -46.5t-13.5 -36.5t-27.5 -14t-27 13.5t-11.5 33.5t-2.5 38q0 46 8 69t21.5 31.5t29.5 8.5v49q-29 0 -54.5 -16t-40 -50.5t-14.5 -92.5z" />
    <glyph glyph-name="sinKa" unicode="&#xd9a;" horiz-adv-x="790" 
d="M570 3q-40 0 -67 13.5t-42 35.5t-21 47l44 18q3 -16 12.5 -30t27.5 -23t46 -9q34 0 61.5 26t44 82t16.5 147q0 112 -25.5 180t-67.5 98.5t-92 30.5q-38 0 -70.5 -18t-61.5 -47.5t-57 -63.5l-223 -276l-37 -42l-25 44l249 310q31 39 66.5 72.5t75 54t84.5 20.5
q64 0 117.5 -36t86.5 -115.5t33 -211.5q0 -101 -19.5 -170t-58.5 -103t-97 -34zM177 3q-39 0 -60.5 15t-29.5 41t-8 57q0 5 0.5 13t0.5 15q0 12 -3 22t-10 10q-4 0 -9 -4l9 38l19 11l14 -2q15 -1 19.5 -23t4.5 -44v-25q0 -29 10.5 -50t42.5 -21q28 0 42.5 18t21 46.5
t6.5 60.5v20h49v-20q1 -31 7 -60t21 -47t42 -18q31 0 47.5 19.5t24.5 48t10 57t2 44.5q0 77 -16.5 123t-44 66.5t-59.5 20.5q-33 0 -51 -9t-32 -21l-21 26q22 22 48 37.5t61 15.5q32 0 62.5 -13.5t54 -43.5t37.5 -80t14 -122q0 -32 -5.5 -70.5t-19 -73.5t-40.5 -56.5
t-70 -21.5q-33 0 -53.5 13.5t-31 33t-12.5 36.5q0 -16 -10 -36t-30.5 -33.5t-53.5 -13.5zM210 410l-17 -40q-69 12 -113.5 55t-44.5 112q0 45 19.5 75.5t51 45.5t65.5 15q38 0 71 -17t53.5 -52.5t20.5 -90.5l-48 -60v61q0 56 -29 83.5t-68 27.5q-33 0 -61 -22.5t-28 -66.5
q0 -53 34 -84.5t94 -41.5z" />
    <glyph glyph-name="sinKha" unicode="&#xd9b;" horiz-adv-x="653" 
d="M287 186q9 -8 14.5 -23t11.5 -33t13 -36q10 -23 24.5 -44t39 -34t63.5 -13q35 0 61 16.5t44 47t29.5 71.5t16 90.5t4.5 104.5q0 176 -33 291t-100.5 172t-171.5 57q-49 0 -94.5 -19.5t-80.5 -53t-52 -78.5l50 -18q13 33 40 59t63 41t74 15q86 0 141.5 -51t83 -154
t27.5 -261q0 -82 -13 -144t-36.5 -96.5t-54.5 -34.5q-38 0 -58 19t-31 46q-9 21 -17.5 45t-21.5 45zM45 250q0 -77 13.5 -132t43 -85t75.5 -30q41 0 65 20.5t36.5 54t20.5 72.5l-27 19q-7 -58 -28.5 -87.5t-58.5 -29.5q-45 0 -66.5 51.5t-21.5 146.5q0 94 18.5 149
t49.5 78.5t67 23.5q61 0 84 -28.5t23 -84.5q0 -36 -11 -61t-25 -47.5t-25 -52.5q-10 -32 -17 -66.5t-7 -78.5q0 -29 4.5 -71t11.5 -78l54 4q-10 34 -14.5 76t-4.5 70q0 50 6.5 79.5t21.5 61.5q11 27 25 48.5t24 48t10 67.5q0 81 -36.5 123t-122.5 42q-51 0 -94 -28
t-68.5 -94t-25.5 -181z" />
    <glyph glyph-name="sinGa" unicode="&#xd9c;" horiz-adv-x="730" 
d="M279 277q38 16 58 39.5t26 50.5t6 54q0 9 -0.5 17.5t-0.5 15.5q1 41 14 76.5t39.5 57t67.5 21.5q31 0 57.5 -12t48 -42t33.5 -84t12 -139q0 -83 -12 -137.5t-32 -84.5t-45 -42t-53 -12q-29 0 -49.5 13.5t-32.5 34t-14 41.5l-32 -62q10 -22 27.5 -40.5t43 -29t57.5 -10.5
q38 0 73 14t62.5 50.5t43.5 101t16 163.5q0 101 -16.5 165.5t-45.5 100t-65.5 50t-76.5 14.5q-45 0 -84.5 -24.5t-63.5 -70t-24 -109.5q0 -6 0.5 -14.5t0.5 -19.5q0 -26 -9.5 -57t-47.5 -49zM38 316q0 -95 18 -156.5t48.5 -96t68.5 -47.5t78 -13q66 0 106 30t58 75.5
t18 91.5q0 42 -14 73.5t-35 50t-42 20.5l-26 -39q29 -3 47 -33t18 -72q0 -34 -13 -67.5t-41 -55t-76 -21.5q-30 0 -58.5 11t-52 39.5t-36.5 79.5t-13 130q0 89 11.5 146t31.5 89.5t45.5 45t52.5 12.5q29 0 49.5 -13.5t32.5 -34t14 -41.5l45 22q-5 31 -22.5 58.5t-47 44.5
t-71.5 17q-38 0 -72.5 -15.5t-62 -53.5t-43.5 -105t-16 -172z" />
    <glyph glyph-name="sinGha" unicode="&#xd9d;" horiz-adv-x="665" 
d="M205 3q-53 0 -87 29.5t-51 79.5t-17 111q0 37 6.5 75t19.5 69t30 46h-68v50h439q41 0 70 -20.5t47 -55t26 -77.5t8 -87q0 -61 -17 -111t-50.5 -79.5t-87.5 -29.5q-29 0 -51.5 14t-35 36.5t-12.5 49.5q0 23 5.5 38t11 27.5t5.5 25.5q0 23 -17 30.5t-40 7.5t-40 -7.5
t-17 -30.5q0 -13 5.5 -25.5t11 -27.5t5.5 -38q0 -27 -12.5 -49.5t-35 -36.5t-51.5 -14zM205 52q22 0 36 15t14 37q0 21 -5.5 34.5t-10.5 27t-5 32.5q0 45 29 61t76 16t76 -16t29 -61q0 -19 -5 -32.5t-10.5 -27t-5.5 -34.5q0 -22 14 -37t36 -15q36 0 58.5 22t33.5 59.5
t11 84.5q0 24 -3.5 56t-14.5 62.5t-31.5 50.5t-53.5 20h-252q-39 0 -62.5 -20t-35.5 -50.5t-16.5 -63t-4.5 -55.5q0 -47 11 -84.5t34 -59.5t58 -22zM338 415l-22 44v27.5v27.5q-1 57 -30.5 84t-67.5 27q-33 0 -61 -22.5t-28 -66.5q0 -32 11.5 -53t19.5 -30l-33 -25
q-11 11 -27.5 38.5t-16.5 70.5q0 45 19 75.5t50 45.5t66 15q33 0 63 -13.5t51.5 -40.5t27.5 -67zM339 435l-21 117q7 41 28 67.5t51 40t63 13.5q35 0 66 -15t50.5 -46t19.5 -76q0 -35 -15 -69t-41 -55l-37 27q21 16 33.5 42t12.5 55q0 44 -27.5 66.5t-61.5 22.5
q-38 0 -67.5 -27t-29.5 -84v-27.5v-27.5z" />
    <glyph glyph-name="sinNga" unicode="&#xd9e;" horiz-adv-x="687" 
d="M37 206q0 -41 7.5 -77.5t24.5 -65t44.5 -44.5t66.5 -16t63.5 13.5t39.5 34t21.5 41t9.5 34.5q2 -14 9 -34.5t21 -41t39.5 -34t62.5 -13.5q45 0 75 18.5t47.5 50.5t25.5 74.5t10.5 90.5t2.5 96q0 176 -33 291t-100.5 172t-172.5 57q-48 0 -94 -19.5t-81 -53t-52 -78.5
l50 -18q14 33 41 59t62.5 41t73.5 15q86 0 142 -51t83 -154t27 -261q0 -51 -2.5 -99.5t-13 -88.5t-32 -64t-59.5 -24q-36 0 -57 19t-32 49.5t-14.5 66t-4.5 67.5h-48q-1 -32 -5 -67.5t-14.5 -66t-32 -49.5t-57.5 -19q-33 0 -53 20.5t-29.5 54.5t-9.5 75q0 55 18 87.5
t45.5 47.5t58.5 15q22 0 34.5 -2t25.5 -4t36 -2q24 0 48 10t39.5 33.5t15.5 64.5q0 34 -13.5 57.5t-38.5 39t-57.5 22.5t-69.5 7q-64 0 -111.5 -14.5t-70.5 -64.5l37 -41q0 26 18 42t43 23q11 3 22.5 4.5t22.5 1.5q11 2 23 3t22 1q57 0 90 -17t33 -64q0 -29 -16.5 -44.5
t-39.5 -15.5q-21 0 -31 2t-23 4t-42 2q-4 0 -8.5 -0.5t-9.5 -1.5q-2 -5 -11 -10t-21 -5q-4 0 -7.5 1t-7.5 2q-25 -9 -49.5 -31t-40.5 -59.5t-16 -94.5zM89 459q0 25 18 43.5t44 18.5q25 0 42.5 -18.5t17.5 -43.5t-17.5 -44t-42.5 -19q-26 0 -44 19t-18 44zM41 459
q0 -30 14.5 -55t39.5 -39.5t55 -14.5t55 14.5t39.5 39.5t14.5 55t-13.5 54t-38 38t-56.5 14q-34 0 -59 -13t-38 -37t-13 -56z" />
    <glyph glyph-name="sinNnga" unicode="&#xd9f;" horiz-adv-x="902" 
d="M452 277q39 16 58 39.5t26 50.5t7 54q0 9 -0.5 17.5t-0.5 15.5q0 41 13 76.5t40 57t67 21.5q31 0 58 -12t48 -42t33 -84t12 -139q0 -83 -11.5 -137.5t-31.5 -84.5t-45.5 -42t-52.5 -12q-29 0 -49.5 13.5t-32.5 34t-14 41.5l-33 -62q11 -22 28 -40.5t42 -29t59 -10.5
q38 0 72.5 14t62 50.5t43.5 101t16 163.5q0 101 -16.5 165.5t-45 100t-65.5 50t-77 14.5q-45 0 -84 -24.5t-63 -70t-25 -109.5q0 -6 0.5 -15t0.5 -19q0 -26 -9.5 -57t-48.5 -49zM210 316q0 -95 18.5 -156.5t48.5 -96t68.5 -47.5t78.5 -13q67 0 106.5 30t57.5 75.5t18 91.5
q0 42 -14 73.5t-35 50t-42 20.5l-26 -39q30 -3 47.5 -33t17.5 -72q0 -34 -12.5 -67.5t-41 -55t-76.5 -21.5q-29 0 -58 11t-52 39.5t-36.5 79.5t-13.5 130q0 89 12 146t31.5 89.5t45.5 45t52 12.5q30 0 50.5 -13.5t32 -34t13.5 -41.5l46 22q-6 31 -23.5 58.5t-47 44.5
t-71.5 17q-38 0 -72.5 -15.5t-62 -53.5t-44 -105t-16.5 -172zM36 320q0 -86 10.5 -145t29 -96t43 -55t52.5 -21v52q-23 4 -41.5 30t-30 83.5t-11.5 151.5q0 112 15.5 173.5t39 86t48.5 24.5q18 0 31.5 -8.5t22 -25t9.5 -41.5l41 9q0 33 -12 60t-34.5 42.5t-57.5 15.5
q-29 0 -56.5 -15.5t-50 -53t-35.5 -103t-13 -164.5z" />
    <glyph glyph-name="sinCa" unicode="&#xda0;" horiz-adv-x="598" 
d="M51 235q0 -34 10.5 -74t36.5 -76.5t71.5 -59t116.5 -22.5q133 0 204 102.5t72 297.5q0 133 -22 220t-60.5 137.5t-88.5 71.5t-107 21q-36 0 -77.5 -14.5t-78.5 -47.5t-59 -89l50 -18q19 51 63.5 83t101.5 32q46 0 86.5 -18t71 -63t48 -121.5t17.5 -193.5
q0 -169 -57 -257.5t-164 -88.5q-55 0 -91 18t-56 45.5t-28 59t-8 58.5q0 48 15 83t40.5 55t55.5 20h143l-12 47l-309 1v-48h78q-6 -4 -21 -22t-28.5 -51.5t-13.5 -87.5zM88 476q0 -17 5 -33t13 -30l41 20q-5 9 -8 19.5t-3 23.5q0 37 23 56t57 19q40 0 69 -27.5t29 -83.5
q0 -2 -0.5 -4.5t-0.5 -5.5l44 -34q2 10 3 20t1 21q0 55 -20.5 90.5t-53.5 52.5t-71 17q-52 0 -90 -31t-38 -90z" />
    <glyph glyph-name="sinCha" unicode="&#xda1;" horiz-adv-x="681" 
d="M506 627q44 46 76.5 87t50.5 82.5t18 87.5h-52q0 -30 -9 -57t-26.5 -54t-43 -56.5t-57.5 -62.5zM305 519q0 -19 3.5 -37t9 -35t11.5 -35l23 47v26v29q0 57 29.5 84t67.5 27q35 0 58 -22t34.5 -55t11.5 -66q0 -59 -18 -107.5t-48 -77t-68 -28.5q-35 0 -50.5 21.5
t-15.5 48.5q0 22 11 42.5t32 28.5l-33 29q-30 -14 -45 -42t-15 -59q0 -29 12.5 -55.5t38 -43.5t64.5 -17q55 0 96 33.5t64 92.5t23 134q0 49 -15.5 93t-49 71t-86.5 27q-49 0 -89.5 -29t-51.5 -90q-2 -8 -3 -16.5t-1 -18.5zM89 255q0 41 14 76t43.5 56t75.5 21h213
q46 0 75.5 -21t44 -56t14.5 -76q0 -63 -30.5 -110.5t-84 -73.5t-125.5 -26q-71 0 -125.5 26t-84.5 73.5t-30 110.5zM36 255q0 -60 21.5 -109t60 -83.5t92.5 -53t119 -18.5q64 0 118 18.5t93 53t60 83t21 109.5q0 55 -20.5 101.5t-61.5 74.5t-103 28h-215q-61 0 -102.5 -28
t-62 -74t-20.5 -102zM71 536q0 -35 15.5 -69t40.5 -55l38 27q-21 16 -34 42t-13 55q0 44 28 66.5t61 22.5q39 0 68.5 -27t29.5 -84v-29t-1 -26l25 -47q6 18 11 35t8.5 35t3.5 37q0 10 -0.5 18.5t-2.5 16.5q-12 61 -53 90t-89 29q-34 0 -65.5 -15t-51 -46t-19.5 -76z" />
    <glyph glyph-name="sinJa" unicode="&#xda2;" horiz-adv-x="681" 
d="M506 627q44 46 76.5 87t50.5 82.5t18 87.5h-52q0 -30 -9 -57t-26.5 -54t-43 -56.5t-57.5 -62.5zM305 519q0 -19 3.5 -37t9 -35t11.5 -35l23 47v26v29q0 57 29.5 84t67.5 27q34 0 61.5 -22.5t27.5 -66.5q0 -29 -12.5 -55t-32.5 -42l36 -27q26 21 41 55t15 69
q0 45 -19.5 76t-50.5 46t-65 15q-49 0 -89.5 -29t-51.5 -90q-2 -8 -3 -16.5t-1 -18.5zM89 255q0 41 14 76t43.5 56t75.5 21h213q46 0 75.5 -21t44 -56t14.5 -76q0 -63 -30.5 -110.5t-84 -73.5t-125.5 -26q-71 0 -125.5 26t-84.5 73.5t-30 110.5zM36 255q0 -60 21.5 -109
t60 -83.5t92.5 -53t119 -18.5q64 0 118 18.5t93 53t60 83t21 109.5q0 55 -20.5 101.5t-61.5 74.5t-103 28h-215q-61 0 -102.5 -28t-62 -74t-20.5 -102zM71 536q0 -35 15.5 -69t40.5 -55l38 27q-21 16 -34 42t-13 55q0 44 28 66.5t61 22.5q39 0 68.5 -27t29.5 -84v-29t-1 -26
l25 -47q6 18 11 35t8.5 35t3.5 37q0 10 -0.5 18.5t-2.5 16.5q-12 61 -53 90t-89 29q-34 0 -65.5 -15t-51 -46t-19.5 -76z" />
    <glyph glyph-name="sinJha" unicode="&#xda3;" horiz-adv-x="1159" 
d="M697 3q-43 0 -71.5 21.5t-45 57.5t-24 79t-7.5 85q0 44 8 83t23 68q25 54 64 84.5t84 30.5q18 0 35 -4.5t34 -13.5l-21 -47q-24 12 -47 12q-31 0 -58 -23.5t-45 -62.5q-11 -26 -17.5 -58t-6.5 -69q0 -45 9 -89t30 -72t56 -28q37 0 58 19t31.5 49.5t14.5 66t5 67.5h48
q1 -32 5 -67.5t14.5 -66t31.5 -49.5t58 -19t58.5 24t32 64t13 88.5t2.5 99.5q0 158 -27 261t-83 154t-142 51q-37 0 -73 -15t-63.5 -41t-39.5 -59l-50 18q16 45 51 78.5t81 53t94 19.5q105 0 172.5 -57t100.5 -172t33 -291q0 -48 -2.5 -96t-10.5 -90.5t-25.5 -74.5
t-47 -50.5t-74.5 -18.5q-39 0 -64 13.5t-39.5 34t-21 41t-9.5 34.5q-2 -14 -9 -34.5t-21 -41t-39 -34t-63 -13.5zM180 3q-39 0 -60.5 15t-29.5 41t-8 57v13v15q0 12 -2.5 22t-9.5 10q-4 0 -9 -4l9 38l28 9h5q11 0 16 -10.5t6.5 -26t1.5 -31.5v-24q0 -29 10.5 -50t42.5 -21
q28 0 42.5 18t21 46.5t6.5 60.5v20h49v-20q1 -31 7 -60t21.5 -47t41.5 -18q31 0 47.5 19.5t24.5 48t10 57t2 44.5q0 77 -16.5 123t-44 66t-59.5 20q-33 0 -50.5 -8.5t-31.5 -21.5l-22 27q22 22 48 37.5t61 15.5q32 0 62.5 -13.5t54 -43.5t37.5 -80t14 -122q0 -32 -5 -70.5
t-19 -73.5t-41 -56.5t-70 -21.5q-33 0 -53.5 13.5t-31 33t-12.5 36.5q0 -16 -10 -36t-30 -33.5t-54 -13.5zM196 370q-69 12 -113 55t-44 112q0 45 19 75.5t50.5 45.5t65.5 15q38 0 71 -17t53.5 -52.5t20.5 -90.5l-48 -60v61q0 56 -29 83.5t-68 27.5q-33 0 -61 -22.5
t-28 -66.5q0 -53 34 -84.5t94 -41.5zM36 216l249 310q43 55 97.5 91t123.5 36t128.5 -41.5t91.5 -132.5l-50 -20q-23 70 -70 105.5t-106 35.5q-54 0 -97 -31t-82 -79q-24 -31 -51 -65t-56.5 -69.5t-58.5 -72t-58 -72.5l-36 -39z" />
    <glyph glyph-name="sinNya" unicode="&#xda4;" horiz-adv-x="1183" 
d="M259 172l-25 44l248 310q44 55 99 91t118 36q41 0 79 -16.5t66.5 -48t41.5 -78.5l-43 -11q-16 49 -56 75t-88 26q-52 0 -96.5 -31t-82.5 -79q-24 -31 -51.5 -65.5t-57 -70t-59 -72t-59.5 -72.5zM171 6q-28 3 -52.5 21t-43 54.5t-29 96t-10.5 145.5q0 98 12 163.5
t32 103.5t45.5 54t51.5 16q35 0 58.5 -16t35.5 -43t12 -60l-41 -9q-1 26 -9.5 42.5t-22.5 25t-33 8.5q-40 0 -64 -73.5t-24 -211.5q0 -95 12.5 -152t31.5 -83.5t38 -29.5v-52zM378 3q-39 0 -60.5 15t-29.5 41t-8 57v13v15q0 12 -2.5 22t-9.5 10q-5 0 -9 -4l9 38l28 9h5
q15 -1 19.5 -23t4.5 -45v-24q0 -29 10.5 -50t42.5 -21q27 0 42 18t21.5 46.5t6.5 60.5v20h49v-20q1 -31 7 -60t21 -47t42 -18q31 0 47.5 19.5t24.5 48t10 57t2 44.5q0 77 -16.5 123t-44 66t-59.5 20q-33 0 -50.5 -8.5t-32.5 -21.5l-21 27q22 22 48.5 37.5t60.5 15.5
q33 0 63 -13.5t53.5 -43.5t37.5 -80t14 -122q0 -32 -5.5 -70.5t-19 -73.5t-40.5 -56.5t-71 -21.5q-32 0 -52.5 13.5t-30.5 33t-12 36.5q-1 -16 -10.5 -36t-30.5 -33.5t-54 -13.5zM394 370q-69 12 -113.5 55t-44.5 112q0 45 19.5 75.5t51 45.5t65.5 15q38 0 71 -17
t53.5 -52.5t20.5 -90.5l-48 -60v61q0 56 -29 83.5t-68 27.5q-33 0 -60.5 -22.5t-27.5 -66.5q0 -53 33.5 -84.5t93.5 -41.5zM1049 -220q-46 0 -81 21.5t-54 57t-19 76.5q0 27 7.5 51t27.5 51l42 5l3 -25q-17 -20 -22.5 -39t-5.5 -41q0 -43 28.5 -74.5t73.5 -31.5
q42 0 71.5 19t53.5 60l40 -30q-31 -51 -70.5 -75.5t-94.5 -24.5zM966 3q-58 0 -111 28t-86 82t-33 129q0 59 27 110.5t78.5 84.5t121.5 33q25 0 50.5 -0.5t51.5 -0.5q2 9 3.5 21t1.5 24q0 57 -29 84t-68 27q-33 0 -60.5 -22.5t-27.5 -66.5q0 -33 12.5 -52.5t19.5 -27.5
l-35 -28q-11 11 -27.5 38.5t-16.5 70.5q0 45 19.5 75.5t50.5 46t65 15.5q38 0 71 -17.5t53.5 -52.5t20.5 -91q0 -25 -4 -48.5t-12 -46.5h-139q-53 0 -92.5 -25t-60.5 -65t-21 -86q0 -58 25.5 -99.5t66.5 -62.5t86 -21q42 0 81.5 19t66.5 58l41 -32q-34 -50 -85 -75.5
t-105 -25.5z" />
    <glyph glyph-name="sinJnya" unicode="&#xda5;" horiz-adv-x="1095" 
d="M806 -65q0 -41 19.5 -76.5t54 -57t80.5 -21.5q56 0 95 24.5t71 75.5l-40 30q-24 -41 -53.5 -60t-72.5 -19q-44 0 -72.5 31.5t-28.5 74.5q0 22 5.5 41t22.5 39l-3 25l-42 -5q-21 -27 -28.5 -51t-7.5 -51zM648 242q0 -75 33 -129t86 -82t111 -28q54 0 105 25.5t85 75.5
l-42 32q-27 -39 -66 -58t-81 -19q-45 0 -86 21t-66.5 62.5t-25.5 99.5q0 46 21 86t60.5 65t92.5 25h41.5h46h37h14.5q8 23 12.5 46.5t4.5 48.5q0 56 -21 91t-54 52.5t-71 17.5q-34 0 -65 -15.5t-50.5 -46t-19.5 -75.5q0 -43 16.5 -70.5t27.5 -38.5l35 28q-7 8 -20 27.5
t-13 52.5q0 44 28 66.5t61 22.5q39 0 68 -27t29 -84q0 -12 -1.5 -24t-3.5 -21q-20 0 -51 0.5t-51 0.5q-70 0 -121.5 -33t-78.5 -84.5t-27 -110.5zM448 277q38 16 57.5 39.5t26 50.5t6.5 54q0 9 -0.5 17.5t-0.5 15.5q1 41 13 76.5t37.5 57t63.5 21.5q40 0 69.5 -22t30.5 -56
l46 4q-2 41 -22 69t-52.5 43t-71.5 15q-44 0 -81.5 -24.5t-60.5 -70t-23 -109.5q0 -6 0.5 -14.5t0.5 -19.5q0 -26 -10 -57t-48 -49zM206 316q0 -95 18 -156.5t48.5 -96t68.5 -47.5t79 -13q66 0 105.5 30t57.5 75.5t18 91.5q0 42 -14 73.5t-34.5 50t-41.5 20.5l-26 -39
q29 -3 46.5 -33t17.5 -72q0 -34 -12.5 -67.5t-41 -55t-75.5 -21.5q-30 0 -58.5 11t-52 39.5t-36.5 79.5t-13 130q0 89 11.5 146t31.5 89.5t45.5 45t52.5 12.5q29 0 49.5 -13.5t32.5 -34t13 -41.5l45 22q-5 31 -22.5 58.5t-46.5 44.5t-71 17q-38 0 -72.5 -15.5t-62.5 -53.5
t-44 -105t-16 -172zM37 323q0 -86 10.5 -145.5t29 -96t43 -54.5t52.5 -21v52q-19 3 -38 29.5t-31.5 83.5t-12.5 152q0 138 24 211.5t65 73.5q18 0 32 -8.5t23 -25t9 -42.5l41 9q-1 33 -12.5 60t-34.5 43t-59 16q-26 0 -51.5 -16t-45.5 -54t-32 -103.5t-12 -163.5z" />
    <glyph glyph-name="sinNyja" unicode="&#xda6;" horiz-adv-x="848" 
d="M672 627q44 46 76.5 87t50.5 82.5t18 87.5h-52q0 -30 -9 -57t-26.5 -54t-42.5 -56.5t-58 -62.5zM472 519q0 -19 3.5 -37t9 -35t10.5 -35l23 47v26v29q0 57 29.5 84t67.5 27q34 0 61.5 -22.5t27.5 -66.5q0 -29 -12 -55t-33 -42l36 -27q26 21 41 55t15 69q0 45 -19.5 76
t-50 46t-65.5 15q-49 0 -89 -29t-52 -90q-1 -8 -2 -16.5t-1 -18.5zM254 255q0 41 14.5 76t44 56t74.5 21h213q46 0 75.5 -21t44 -56t14.5 -76q0 -63 -30.5 -110.5t-84 -73.5t-125.5 -26q-71 0 -125 26t-84.5 73.5t-30.5 110.5zM202 255q0 -60 21.5 -109t60 -83.5t92.5 -53
t119 -18.5t119 18.5t92.5 53t59.5 83t21 109.5q0 55 -20.5 101.5t-61.5 74.5t-103 28h-215q-61 0 -102.5 -28t-62 -74t-20.5 -102zM237 536q0 -35 15.5 -69t40.5 -55l38 27q-21 16 -34 42t-13 55q0 44 28.5 66.5t61.5 22.5q39 0 68.5 -27t29.5 -84v-29t-1 -26l24 -47
q6 18 11 35t8.5 35t3.5 37q0 10 -0.5 18.5t-2.5 16.5q-12 61 -52.5 90t-88.5 29q-34 0 -66 -15t-51.5 -46t-19.5 -76zM36 323q0 -86 10.5 -145.5t29 -96t43 -54.5t52.5 -21v52q-19 3 -38.5 29.5t-31.5 83.5t-12 152q0 138 24 211.5t64 73.5q19 0 33 -8.5t22.5 -25t9.5 -42.5
l40 9q0 33 -11.5 60t-35 43t-58.5 16q-26 0 -51.5 -16t-45.5 -54t-32 -103.5t-12 -163.5z" />
    <glyph glyph-name="sinTta" unicode="&#xda7;" horiz-adv-x="597" 
d="M36 270q0 -46 13.5 -93t42 -86.5t74.5 -63.5t111 -24q133 0 204 102.5t71 297.5q0 133 -21.5 220t-60 137.5t-88.5 71.5t-108 21q-36 0 -77.5 -14.5t-78 -47.5t-58.5 -89l49 -18q20 51 64.5 83t100.5 32q47 0 87 -18t70.5 -63t48 -121.5t17.5 -193.5q0 -169 -56.5 -257.5
t-163.5 -88.5q-51 0 -86.5 19t-58 50.5t-33 69t-10.5 74.5q0 89 34.5 139t82.5 50q22 0 46 -12l22 47q-18 9 -35 13.5t-34 4.5q-45 0 -83.5 -28.5t-62 -82.5t-23.5 -131z" />
    <glyph glyph-name="sinTtha" unicode="&#xda8;" horiz-adv-x="662" 
d="M189 1q-45 0 -74.5 22t-46.5 57.5t-24.5 79t-7.5 86.5q0 52 12.5 99t36 85t56.5 60t74 22q18 0 35 -4.5t34 -13.5l-21 -47q-24 12 -47 12q-31 0 -54.5 -18.5t-39.5 -50t-24.5 -69t-8.5 -75.5q0 -46 9 -89.5t31.5 -72.5t60.5 -29q34 0 54 19t30 50.5t14 66.5t5 68h48
q1 -33 5 -68.5t14 -66.5t31.5 -50t57.5 -19q39 0 62.5 20.5t34.5 55t14 77t3 86.5q0 88 -10 165t-27 140q-16 68 -41.5 121.5t-58.5 92.5q-15 21 -32 38.5t-35 31.5l32 36q55 -41 97 -104t70.5 -143.5t43 -176t14.5 -201.5q0 -43 -2.5 -85.5t-11 -80t-26.5 -66t-49 -45
t-78 -16.5q-38 0 -63 14t-39.5 34t-21 40.5t-9.5 34.5q-2 -14 -9 -34.5t-21 -40.5t-37.5 -34t-59.5 -14zM562 594l-18 -36q-13 -2 -25 -2.5t-23 -0.5q-47 2 -83 20.5t-56 48t-20 63.5q0 27 7.5 49t17.5 40.5t17 33.5t7 30q0 10 -5.5 21t-21.5 22l77 -18l-9 -50
q0 -17 -10.5 -35.5t-20.5 -41t-10 -52.5q0 -33 31.5 -59t84.5 -27q8 0 17 1.5t18 2.5z" />
    <glyph glyph-name="sinDda" unicode="&#xda9;" 
d="M37 205q0 -41 7.5 -77t24.5 -64.5t44.5 -44.5t66.5 -16t63.5 13.5t39.5 34t21.5 41t9.5 34.5q2 -14 9 -34.5t21 -41t39.5 -34t62.5 -13.5q45 0 75 18.5t47.5 50.5t25.5 74.5t10.5 90.5t2.5 96q0 176 -33 291t-100.5 172t-172.5 57q-48 0 -94 -19.5t-81 -53t-52 -78.5
l50 -18q14 33 41 59t62.5 41t73.5 15q86 0 142 -51t83 -154t27 -261q0 -51 -2.5 -99.5t-13 -88.5t-32 -64t-59.5 -24q-36 0 -57 19t-32 49.5t-14.5 66t-4.5 67.5h-48q-1 -32 -5 -67.5t-14.5 -66t-32 -49.5t-57.5 -19q-33 0 -53 20t-29.5 54t-9.5 75q0 24 4.5 56.5t16.5 62.5
t35.5 50.5t62.5 20.5h158l-13 47h-317v-47h61q-19 -15 -32 -46t-20.5 -69.5t-7.5 -75.5zM97 476q0 -26 11 -50.5t25 -38.5l36 26q-10 11 -18 26.5t-8 36.5q0 37 23.5 56t57.5 19q40 0 68.5 -27.5t28.5 -83.5v-5v-5l45 -34q2 10 3 20t1 21q0 55 -20.5 90.5t-54 52.5t-71.5 17
q-52 0 -89.5 -31t-37.5 -90z" />
    <glyph glyph-name="sinDdha" unicode="&#xdaa;" horiz-adv-x="660" 
d="M181 3q-39 0 -66.5 16t-44.5 44.5t-24.5 65t-7.5 77.5q0 37 7 75t19.5 69t30.5 46h-58v47h317l13 -47h-158q-39 0 -62.5 -20.5t-35.5 -50.5t-16.5 -62.5t-4.5 -56.5q0 -41 9.5 -75t29.5 -54t53 -20q36 0 57.5 19t32 49.5t14.5 66t5 67.5h48q2 -32 5.5 -67.5t14 -66
t31.5 -49.5t57 -19q40 0 63 20.5t34 54.5t14 76.5t3 85.5q0 88 -10 165t-27 140q-16 68 -42 121.5t-58 92.5q-15 21 -31.5 38.5t-34.5 31.5l30 36q56 -41 98.5 -104t71 -143.5t43 -176t14.5 -201.5q0 -42 -2.5 -84.5t-11.5 -79.5t-27 -66t-49 -45t-78 -16q-38 0 -63 13.5
t-39 34t-21 41t-9 34.5q-3 -14 -9.5 -34.5t-21.5 -41t-39.5 -34t-63.5 -13.5zM134 387q-14 14 -25 38.5t-11 50.5q0 59 37.5 90t89.5 31q38 0 71.5 -17t54 -52.5t20.5 -90.5q0 -11 -1 -21t-3 -20l-44 34v5.5v4.5q0 56 -29 83.5t-69 27.5q-34 0 -57.5 -19t-23.5 -56
q0 -21 8 -36.5t18 -26.5zM559 594l-17 -36q-12 -2 -24.5 -2.5t-24.5 -0.5q-46 2 -81.5 20.5t-56 48t-20.5 63.5q0 27 8 49t17.5 40.5t17 33.5t7.5 30q0 10 -6 21t-21 22l76 -18q-1 -13 -4 -29.5t-4 -20.5q-1 -17 -11 -35.5t-20 -41t-10 -52.5q0 -33 31 -59t84 -27
q9 0 17.5 1.5t18.5 2.5z" />
    <glyph glyph-name="sinNna" unicode="&#xdab;" horiz-adv-x="983" 
d="M112 8l-34 32q8 9 18 17t20 14q12 6 25.5 8.5t26.5 2.5q33 0 68 -8.5t65 -8.5q91 0 144 65.5t53 191.5q0 99 -29.5 161t-77 90t-103.5 28q-64 0 -108.5 -27t-68 -70t-24.5 -92q0 -21 3 -40.5t8 -35.5q6 -27 13.5 -45t6.5 -21l-29 -33q-25 32 -37.5 72.5t-12.5 95.5
q0 44 14.5 88.5t45.5 80.5t78 58.5t111 22.5q70 0 130.5 -34t97 -107.5t36.5 -191.5q0 -77 -18 -134.5t-51 -96.5t-78.5 -58.5t-100.5 -19.5q-28 0 -53 5t-46 10t-40 5q-15 0 -28 -5.5t-25 -19.5zM112 8l-50 10q8 53 16.5 86.5t21.5 54t31.5 35t45.5 29.5l31 -33
q-22 -11 -38.5 -23.5t-27.5 -31.5t-18 -49.5t-12 -77.5zM204 180q-48 0 -85.5 28t-52.5 71q-1 5 -1.5 10t-0.5 10q0 19 5 38t12 36q12 40 45 66.5t80 26.5q24 0 46 -7.5t39 -21.5q25 -19 40 -49t15 -65q0 -39 -19 -72t-51 -52t-72 -19zM203 230q39 0 67 28t28 66
q0 39 -28 67t-67 28q-38 0 -66 -28t-28 -67q0 -38 28 -66t66 -28zM744 8q-58 0 -91 15.5t-50.5 39t-27 47t-20 39t-29.5 15.5q-9 0 -23 -5l-7 43q10 6 20 8t18 2q31 0 47 -15.5t27.5 -37.5t25 -45t39 -38t71.5 -15q50 0 79 23t42 61t16 83.5t3 89.5q0 26 -2 62.5t-9.5 72.5
t-23.5 60.5t-46 24.5q-27 0 -41.5 -16.5t-21 -42t-8 -52.5t-1.5 -46v-83h-51v83q0 19 -1.5 46t-7.5 52.5t-19.5 42t-38.5 16.5q-27 0 -41 -17.5t-18 -45t-4 -58.5q0 -18 1 -36.5t1 -34.5q0 -10 -0.5 -19t-2.5 -17l-47 1v65q0 63 7 111.5t30.5 76t72.5 27.5q41 0 65.5 -27.5
t27.5 -56.5q3 30 29 57t72 27q41 0 66.5 -22.5t39.5 -61t20 -87.5t6 -102q0 -43 -3 -86.5t-12 -83.5t-29.5 -72t-56.5 -50t-93 -18zM401 602l-37 33q33 33 58.5 62t43 56.5t26.5 55t9 57.5h52q0 -48 -19 -90.5t-53 -84.5t-80 -89z" />
    <glyph glyph-name="sinNndda" unicode="&#xdac;" horiz-adv-x="801" 
d="M186 206q0 -41 8 -77.5t24.5 -65t44.5 -44.5t67 -16t63.5 13.5t39 34t21.5 41t9 34.5q2 -14 9 -34.5t21 -41t39.5 -34t62.5 -13.5q46 0 76 18.5t47.5 50.5t25.5 74.5t10.5 90.5t2.5 96q0 176 -33 291t-101 172t-172 57q-49 0 -94.5 -19.5t-80.5 -53t-52 -78.5l49 -18
q14 33 41.5 59t63 41t73.5 15q86 0 142 -51t83 -154t27 -261q0 -51 -2.5 -99.5t-13 -88.5t-32.5 -64t-60 -24q-36 0 -57 19t-31.5 49.5t-14 66t-5.5 67.5h-47q-1 -32 -5 -67.5t-14.5 -66t-32 -49.5t-57.5 -19q-33 0 -53.5 20t-29.5 54t-9 75q0 24 4 56.5t16 62.5t35.5 50.5
t62.5 20.5h158l-13 47h-317v-47h59q-18 -15 -31 -46t-20 -69t-7 -75zM246 476q0 -26 11.5 -50.5t24.5 -38.5l36 26q-10 11 -18 26.5t-8 36.5q0 37 24 56t57 19q40 0 68.5 -27.5t28.5 -83.5v-5t1 -5l44 -34q2 10 3 20t1 21q0 55 -20.5 90.5t-54 52.5t-71.5 17q-51 0 -89 -31
t-38 -90zM38 323q0 -86 10.5 -145.5t29 -96t43 -54.5t51.5 -21v52q-18 3 -37.5 29.5t-32 83.5t-12.5 152q0 109 25 168t67 59q18 0 32 -8.5t23 -25t9 -41.5l43 9q0 33 -12 59.5t-35.5 42.5t-59.5 16t-69.5 -24.5t-54 -84.5t-20.5 -170z" />
    <glyph glyph-name="sinTa" unicode="&#xdad;" horiz-adv-x="781" 
d="M534 3q-39 0 -69 13.5t-49 35.5t-25 47l44 18q5 -24 31 -43.5t66 -19.5q42 0 76.5 26.5t55 82.5t20.5 147q0 113 -25.5 180t-66 96.5t-85.5 29.5q-39 0 -71 -17.5t-59.5 -46.5t-54.5 -62l-223 -276l-36 -39l-25 43l259 323q24 30 55 59t70 49.5t85 20.5q47 0 88.5 -19.5
t73.5 -61.5t49.5 -111t17.5 -168q0 -76 -13 -133.5t-38 -96.5t-63 -58t-88 -19zM270 3q-58 0 -97 18.5t-59 50.5t-20 71q0 14 -5.5 23.5t-16.5 9.5q-2 1 -4.5 1t-4.5 -2l8 35l24 13q4 0 6 1t4 1q24 -9 30.5 -30t6.5 -44q0 -39 31 -67t98 -28q10 0 27 2t37.5 11t39 27.5
t30 50t11.5 79.5q0 69 -14.5 110.5t-38 60.5t-51.5 19q-30 0 -47 -8.5t-31 -20.5l-18 32q22 16 48 30.5t58 14.5q28 0 54 -12.5t47 -40.5t33.5 -74t12.5 -111q0 -61 -14 -101.5t-37 -65t-49.5 -37t-52.5 -16t-46 -3.5zM199 371q-71 11 -115.5 54t-44.5 112q0 45 19.5 75.5
t50.5 45.5t66 15q37 0 69 -16.5t52 -51.5t20 -90l-44 -62v61q0 57 -29.5 84.5t-67.5 27.5q-33 0 -61.5 -23t-28.5 -67q0 -53 34 -84.5t94 -41.5z" />
    <glyph glyph-name="sinTha" unicode="&#xdae;" horiz-adv-x="616" 
d="M294 3q-69 0 -118.5 24t-80 63.5t-45 86.5t-14.5 93q0 77 23.5 131t62 82.5t83.5 28.5q17 0 34 -4.5t35 -13.5l-22 -47q-24 12 -46 12q-48 0 -82.5 -50t-34.5 -139q0 -37 11.5 -74.5t36 -69t63.5 -50.5t94 -19q58 0 102 23t73 66t43.5 104.5t14.5 138.5q0 47 -4.5 91
t-14.5 85l-8 33q-15 63 -42.5 118.5t-64.5 97.5q-30 40 -65 69l30 36q52 -41 93 -98.5t69.5 -127.5t44 -147.5t15.5 -156.5q0 -90 -18 -161.5t-54 -121.5t-89.5 -76.5t-124.5 -26.5zM530 594l-18 -36q-13 -2 -25 -2.5t-23 -0.5q-47 2 -83 20.5t-56 48t-20 63.5q0 37 12.5 64
t25 49t12.5 40q0 10 -6 21t-21 22l76 -18l-8 -49q-1 -17 -11.5 -35.5t-20.5 -41.5t-10 -53q0 -33 31.5 -59t84.5 -27q8 1 21 2t23 2z" />
    <glyph glyph-name="sinDa" unicode="&#xdaf;" horiz-adv-x="486" 
d="M38 242q0 -75 33 -129t85.5 -82t110.5 -28q54 0 105.5 25.5t85.5 75.5l-42 32q-27 -39 -66 -58t-82 -19q-45 0 -85.5 21t-66 62.5t-25.5 99.5q0 46 21 86t60 65t93 25h42h46h36h14q8 23 12.5 46.5t4.5 48.5q0 56 -20.5 91t-53.5 52.5t-71 17.5q-34 0 -65.5 -15.5t-51 -46
t-19.5 -75.5q0 -43 16.5 -70.5t27.5 -38.5l36 28q-8 8 -20.5 27.5t-12.5 52.5q0 44 28 66.5t61 22.5q39 0 68 -27t29 -84q0 -12 -1.5 -24t-3.5 -21h-32t-38 0.5t-32 0.5q-70 0 -121 -33t-78.5 -84.5t-27.5 -110.5zM196 -65q0 -41 19.5 -76.5t54 -57t80.5 -21.5q55 0 95 24.5
t71 75.5l-41 30q-23 -41 -52.5 -60t-72.5 -19q-44 0 -73 31.5t-29 74.5q0 22 5.5 41t23.5 39l-3 25l-42 -5q-21 -27 -28.5 -51t-7.5 -51z" />
    <glyph glyph-name="sinDha" unicode="&#xdb0;" horiz-adv-x="655" 
d="M37 246q0 -42 7 -85t24 -79t45 -57.5t71 -21.5q39 0 63.5 13.5t39 34t21.5 41t9 34.5q3 -14 9.5 -34.5t21 -41t39.5 -34t63 -13.5q45 0 74.5 18.5t47 50.5t26 74.5t10.5 90.5t2 96q0 176 -33 291t-100 172t-172 57q-48 0 -94 -19.5t-80.5 -53t-51.5 -78.5l49 -18
q14 33 40.5 59t62.5 41t74 15q87 0 142 -51t82.5 -154t27.5 -261q0 -51 -3 -99.5t-13 -88.5t-31.5 -64t-59.5 -24q-36 0 -57.5 19t-32 49.5t-14 66t-4.5 67.5h-49q-1 -32 -4.5 -67.5t-14.5 -66t-32 -49.5t-57 -19t-57 28t-29.5 72t-8.5 89q0 37 6 69t18 58q18 39 45 62.5
t58 23.5q22 0 46 -12l22 47q-18 9 -35 13.5t-34 4.5q-45 0 -84.5 -30.5t-63.5 -84.5q-14 -29 -22.5 -68t-8.5 -83z" />
    <glyph glyph-name="sinNa" unicode="&#xdb1;" horiz-adv-x="782" 
d="M534 3q-39 0 -69 13.5t-48.5 35.5t-24.5 47l43 18q5 -16 17.5 -30t33 -23t48.5 -9q42 0 75.5 24.5t54 80.5t20.5 150q0 114 -26 182t-67.5 97.5t-89.5 29.5q-43 0 -72.5 -17t-50 -46t-39.5 -66q-16 -32 -29 -68.5t-27 -72.5t-31.5 -65t-44 -46.5t-65.5 -17.5q-16 0 -35 5
t-35 17.5t-24 36.5l39 16q3 -16 19.5 -21t32.5 -5q34 0 55.5 23t36.5 59.5t29 79t32 81.5q21 43 48 79.5t66.5 59t94.5 22.5q47 0 88.5 -19t75 -61.5t52.5 -112.5t19 -170q0 -78 -13 -136.5t-38.5 -96t-63 -56t-87.5 -18.5zM250 3q-72 0 -119 34t-70.5 90t-24.5 122
q0 15 1.5 31t3.5 32l51 -1q-2 -13 -3 -27t-1 -28q0 -53 17.5 -98.5t53 -73.5t91.5 -28q73 0 118 42t45 129q0 94 -27 131.5t-64 38.5q-9 0 -19 -3t-20 -7l-10 41q16 7 34.5 12t36.5 4q31 -1 59 -21t45.5 -67t17.5 -129q0 -77 -28.5 -127t-77 -73.5t-110.5 -23.5zM252 365
q-14 0 -26.5 1.5t-26.5 4.5q-66 16 -106 58.5t-40 107.5q0 45 19.5 75t50.5 45t65 15q38 0 71.5 -17t54 -52.5t20.5 -90.5l-51 -53q0 14 1.5 27t1.5 27q0 57 -29 84t-69 27q-33 0 -60.5 -22t-27.5 -66q0 -48 29 -79t82 -44q11 -3 22 -4.5t25 -1.5z" />
    <glyph glyph-name="sinNda" unicode="&#xdb3;" horiz-adv-x="634" 
d="M344 -65q0 -41 19.5 -76.5t54.5 -57t80 -21.5q57 0 96 24.5t70 75.5l-40 30q-23 -41 -53 -60t-73 -19q-44 0 -73 31.5t-29 74.5q0 22 6 41t24 39l-3 25l-42 -5q-21 -27 -29 -51t-8 -51zM186 242q0 -75 33 -129t86 -82t112 -28q54 0 104.5 25.5t84.5 75.5l-42 32
q-26 -39 -65.5 -58t-81.5 -19q-45 0 -85.5 21t-66.5 62.5t-26 99.5q0 46 21.5 86t60 65t92.5 25h42.5h45.5h36.5h14.5q9 23 13 46.5t4 48.5q0 56 -20.5 91t-53.5 52.5t-71 17.5q-35 0 -66 -15.5t-50.5 -46t-19.5 -75.5q0 -43 17 -70.5t27 -38.5l35 28q-7 8 -19.5 27.5
t-12.5 52.5q0 44 28 66.5t61 22.5q38 0 67.5 -27t29.5 -84q0 -12 -2 -24t-4 -21q-19 0 -50 0.5t-52 0.5q-70 0 -121 -33t-78.5 -84.5t-27.5 -110.5zM47 323q0 -86 10 -145.5t28.5 -96t43 -54.5t52.5 -21v52q-19 3 -38 29.5t-31.5 83.5t-12.5 152q0 138 31 211.5t82 73.5
q22 0 38.5 -8.5t27 -25t11.5 -42.5l41 9q-1 33 -14 60t-39 43t-65 16q-31 0 -60.5 -16t-53.5 -54t-37.5 -103.5t-13.5 -163.5z" />
    <glyph glyph-name="sinPa" unicode="&#xdb4;" horiz-adv-x="673" 
d="M312 519q0 -19 3 -37t9 -35t12 -35l23 47v26v29q0 57 29.5 84t67.5 27q34 0 61.5 -22.5t27.5 -66.5q0 -29 -12.5 -55t-33.5 -42l37 -27q26 21 41 55t15 69q0 45 -19.5 76t-50.5 46t-65 15q-49 0 -89.5 -29t-51.5 -90q-2 -8 -3 -16.5t-1 -18.5zM96 255q0 41 14 76t43.5 56
t75.5 21h212q46 0 76 -21t44 -56t14 -76q0 -63 -30 -110.5t-83.5 -73.5t-125.5 -26t-126 26t-84 73.5t-30 110.5zM43 255q0 -60 21.5 -109t60 -83.5t92.5 -53t119 -18.5q64 0 118 18.5t93 53t60 83t21 109.5q0 55 -20.5 101.5t-61.5 74.5t-104 28h-214q-61 0 -102.5 -28
t-62 -74t-20.5 -102zM78 536q0 -35 15.5 -69t40.5 -55l38 27q-21 16 -34 42t-13 55q0 44 28 66.5t61 22.5q39 0 68.5 -27t29.5 -84q0 -14 -0.5 -29t-0.5 -26l25 -47q6 18 11 35t8 35t3 37q0 10 -0.5 18.5t-2.5 16.5q-11 61 -52 90t-89 29q-35 0 -66 -15t-50.5 -46t-19.5 -76
z" />
    <glyph glyph-name="sinPha" unicode="&#xdb5;" horiz-adv-x="634" 
d="M300 3q-79 0 -130 25.5t-78.5 64.5t-38 81t-10.5 75q0 55 17 97.5t47 66.5q18 14 41 21.5t49 7.5h131l28 -46h-153q-52 0 -80 -41t-28 -105q0 -26 8.5 -59.5t30.5 -64t62.5 -50t103.5 -19.5q59 0 102.5 23t73.5 66t44.5 104.5t14.5 138.5q0 47 -4.5 91t-14.5 85l-7 33
q-17 63 -44 118.5t-65 97.5q-29 40 -65 69l31 36q52 -41 93.5 -98.5t70 -127.5t44 -147.5t15.5 -156.5q0 -90 -18.5 -161.5t-55 -121.5t-90.5 -76.5t-125 -26.5zM360 437q0 -11 -1 -21t-3 -20l-45 28q1 3 1.5 6.5t-0.5 9.5q-4 56 -31 83.5t-67 27.5q-34 0 -57 -19t-23 -56
q0 -21 7.5 -36.5t17.5 -26.5l-36 -26q-13 14 -24.5 38.5t-11.5 50.5q0 59 38 90t89 31q38 0 71.5 -17t54 -52.5t20.5 -90.5zM520 558q-13 -2 -25 -2.5t-24 -0.5q-46 2 -82 20.5t-56 48t-20 63.5q0 37 12.5 64t25 49t12.5 40q0 10 -6 21t-22 22l77 -18l-9 -50
q-1 -17 -11 -35.5t-20 -41t-10 -52.5q0 -32 31 -58.5t83 -26.5q7 0 16 1t17 2l28 -10z" />
    <glyph glyph-name="sinBa" unicode="&#xdb6;" horiz-adv-x="651" 
d="M43 250q0 -117 34 -182t108 -65q52 0 80 34t37 81l-37 19q-6 -31 -27 -56.5t-53 -25.5q-30 0 -50 22.5t-29.5 66t-9.5 106.5q0 94 18.5 149t49.5 78.5t67 23.5q54 0 80.5 -29t26.5 -84q0 -35 -12 -59.5t-28.5 -47t-28 -50t-11.5 -69.5q0 -46 15.5 -82t50.5 -56.5
t90 -20.5q46 0 79 16.5t55 47t35 71.5t18.5 90.5t5.5 104.5q0 176 -33 291t-101 172t-172 57q-49 0 -94.5 -19.5t-80.5 -53t-52 -78.5l50 -18q13 33 40.5 59t63 41t73.5 15q86 0 142 -51t83 -154t27 -261q0 -81 -12 -143.5t-42.5 -98.5t-85.5 -36q-42 0 -73.5 25t-31.5 82
q0 37 12.5 62t28.5 47.5t28.5 49.5t12.5 67q0 81 -39.5 123t-119.5 42q-50 0 -93 -28t-69 -94t-26 -181z" />
    <glyph glyph-name="sinBha" unicode="&#xdb7;" horiz-adv-x="760" 
d="M521 3q-33 0 -58 10.5t-42.5 29t-28.5 39.5l33 63q2 -21 13.5 -42t32.5 -35t50 -14q27 0 52.5 12.5t45.5 42.5t32 85t12 138q0 85 -12.5 139t-33.5 84t-48 42t-58 12q-50 0 -76.5 -27.5t-36 -72t-10.5 -95.5q-1 -30 -6.5 -65t-25 -66t-59.5 -49l-21 39q27 16 39.5 41
t17 53.5t5.5 53.5q1 47 8.5 90t26.5 77t52.5 54t85.5 20q40 0 77 -14.5t65.5 -50t45.5 -100t17 -165.5q0 -99 -16 -163.5t-44 -101t-62.5 -50.5t-72.5 -14zM268 3q-66 0 -113.5 29t-73.5 80.5t-26 117.5q0 32 7.5 68t22.5 67.5t39 47.5h-81v48h328v-48l-145 -1
q-41 0 -67 -25t-38.5 -65.5t-12.5 -86.5q0 -52 19 -92.5t55 -63.5t86 -23q49 0 78 19.5t42 48.5t13 58q0 32 -11.5 54.5t-34.5 22.5q-15 0 -33 -11l-15 39q15 8 29.5 11t27.5 3q27 0 47 -14t31.5 -40.5t11.5 -65.5q0 -30 -10 -61.5t-32 -58t-58 -42.5t-86 -16zM360 415
l-29 42q1 14 1.5 28t-0.5 29q0 57 -32 83t-74 26q-33 0 -60 -22t-27 -67q0 -33 11.5 -54.5t19.5 -29.5l-30 -29q-12 10 -31 39.5t-19 75.5q0 45 19.5 76t50.5 46t66 15q53 0 96.5 -31t54.5 -95q1 -7 1.5 -13.5t0.5 -14.5q0 -28 -4.5 -53.5t-14.5 -50.5z" />
    <glyph glyph-name="sinMa" unicode="&#xdb8;" horiz-adv-x="630" 
d="M45 333q0 -38 7 -83t24 -89t47 -79.5t76 -57t111 -21.5q133 0 204 102.5t71 297.5q0 133 -21.5 220t-59.5 137.5t-88.5 71.5t-107.5 21q-36 0 -77.5 -14.5t-78 -47.5t-58.5 -89l49 -18q19 51 63.5 83t101.5 32q46 0 86.5 -18t71 -63t48 -121.5t17.5 -193.5
q0 -169 -57 -257.5t-164 -88.5q-53 0 -90.5 18.5t-62 48.5t-37.5 66.5t-18.5 74t-5.5 68.5q0 57 6 97.5t16.5 65t25.5 36t32 11.5q27 0 35 -15t8 -36q0 -24 -5 -50.5t-5 -49.5q0 -34 8.5 -64t31 -48.5t63.5 -18.5q36 0 57 19t30.5 48.5t12.5 59t3 50.5q0 52 -14 86t-38 51.5
t-55 17.5q-28 0 -46 -11t-31 -24l29 -37q7 13 18.5 19t28.5 6q24 0 42 -28t18 -80q0 -30 -3 -60t-14.5 -50t-36.5 -20q-35 0 -46.5 24t-11.5 61q0 24 5 52t5 56q0 37 -18.5 63t-70.5 26q-29 0 -53 -14.5t-41.5 -46t-27 -80t-9.5 -116.5z" />
    <glyph glyph-name="sinMba" unicode="&#xdb9;" 
d="M38 286q0 -44 4 -93.5t18 -92.5t42.5 -70t78.5 -27q29 0 51.5 14t35 36.5t12.5 49.5q0 23 -5.5 38t-11 27.5t-5.5 25.5q0 23 16.5 30.5t39.5 7.5q24 0 41 -7.5t17 -30.5q0 -13 -5.5 -25.5t-11 -27.5t-5.5 -38q0 -27 12.5 -49.5t35 -36.5t51.5 -14q44 0 73 18.5t46 50.5
t25.5 74.5t11 90.5t2.5 96q0 176 -33 291t-100.5 172t-172.5 57q-49 0 -94.5 -19.5t-80.5 -53t-52 -78.5l50 -18q13 33 40.5 59t63 41t73.5 15q86 0 142 -51t83 -154t27 -261q0 -51 -2.5 -99.5t-13 -88.5t-31.5 -64t-57 -24q-22 0 -36 15t-14 37q0 21 5 34.5t10.5 26.5
t5.5 32q0 46 -29.5 62t-76.5 16q-46 0 -75.5 -16t-29.5 -62q0 -19 5.5 -32t11 -26.5t5.5 -34.5q0 -22 -14 -37t-36 -15q-33 0 -51 22.5t-26.5 58t-11 75.5t-2.5 75q0 48 4.5 94t15 83.5t27.5 59.5t40 22q24 0 40 -15.5t16 -55.5l47 11q0 26 -10.5 51.5t-33 42t-59.5 16.5
q-39 0 -65.5 -26.5t-43 -70.5t-23.5 -99.5t-7 -114.5zM230 422q0 -41 21 -72t72 -31q33 0 52.5 16t28 38.5t11 46t2.5 37.5q0 15 -3 38.5t-11.5 46t-27.5 38.5t-51 16q-39 0 -59 -25t-24 -58l36 -12q6 47 46 47q17 0 26.5 -10.5t14 -26t5.5 -30.5t1 -24q0 -8 -1 -23
t-5.5 -30t-14 -25.5t-25.5 -10.5q-29 0 -37.5 18.5t-8.5 39.5q0 13 1 32t1 29l-47 -11q0 -18 -1.5 -29.5t-1.5 -24.5z" />
    <glyph glyph-name="sinYa" unicode="&#xdba;" horiz-adv-x="638" 
d="M195 3q-47 0 -77.5 21t-48 58.5t-24.5 86.5t-7 105q0 103 28.5 164.5t72.5 88t91 26.5q31 0 60.5 -10.5t51.5 -29.5l-31 -37q-15 11 -36 18t-44 7q-26 0 -51.5 -12.5t-45.5 -39t-32 -70t-12 -105.5q0 -44 4.5 -83t16 -69t32 -47.5t52.5 -17.5q37 0 58 19t32 49.5t15 66
t5 67.5h47q1 -32 5 -67.5t14.5 -66t32 -49.5t57.5 -19q53 0 78.5 48t25.5 118q0 25 -3.5 57t-14 62t-31 50t-54.5 20h-139l-9 51h153q23 0 41.5 -6.5t32.5 -18.5q30 -21 46 -57t23.5 -77.5t7.5 -80.5q0 -61 -17.5 -111t-51.5 -79.5t-88 -29.5q-38 0 -63 13.5t-39.5 34
t-21 41t-9.5 34.5q-2 -14 -9 -34.5t-21.5 -41t-39 -34t-63.5 -13.5zM529 412l-37 27q21 16 33.5 42t12.5 55q0 44 -27 66.5t-62 22.5q-38 0 -67.5 -27t-29.5 -84q0 -14 2 -27t6 -25l-37 -50q-8 27 -13.5 50t-5.5 52q0 12 1.5 22t2.5 18q12 61 52.5 90t89.5 29q34 0 65 -15
t50.5 -46t19.5 -76q0 -35 -15 -69t-41 -55z" />
    <glyph glyph-name="sinRa" unicode="&#xdbb;" horiz-adv-x="549" 
d="M62 276l27 25q0 54 14 99t34 80.5t40 60.5t33 38q61 61 104 111t66 96.5t23 97.5h-52q0 -32 -11 -62.5t-32.5 -60.5t-52.5 -64t-70 -72q-69 -69 -109 -147t-40 -177zM89 301q0 33 10 76.5t33 83t62 65.5t100 26q52 0 89 -30.5t57.5 -84t20.5 -123.5q0 -71 -21.5 -129.5
t-63.5 -93t-102 -34.5q-59 0 -100 30.5t-63 85.5t-22 128zM36 301q0 -86 27.5 -153.5t80 -106t129.5 -38.5q79 0 132.5 41.5t81 112.5t27.5 157q0 47 -8.5 88.5t-24.5 75.5q-18 40 -45.5 67.5t-62 41.5t-74.5 14q-42 0 -72.5 -10.5t-53.5 -31.5q-9 -6 -19.5 -10.5t-21 -10
t-18.5 -11t-13 -13.5q-24 -30 -38.5 -69t-20.5 -77t-6 -67z" />
    <glyph glyph-name="sinLa" unicode="&#xdbd;" 
d="M339 -171q-77 0 -133.5 30.5t-94 85t-55.5 129t-18 163.5q0 86 17.5 164.5t54.5 140t95 96.5t138 35q70 0 121.5 -26.5t85 -70t50 -95.5t16.5 -103q0 -75 -21 -135t-63.5 -95.5t-108.5 -35.5q-51 0 -84 22.5t-48 56.5t-15 68q0 36 17 67.5t50 49.5h-100v48h188v-51
q-54 -9 -78.5 -43t-24.5 -69q0 -40 28 -68t67 -28q42 0 69.5 19t42.5 50.5t21 69t6 74.5q0 68 -28 122.5t-77.5 86.5t-113.5 32q-66 0 -113.5 -29.5t-78.5 -81.5t-45.5 -121.5t-14.5 -149.5q0 -107 29 -186t84.5 -123t134.5 -44q64 0 108 24.5t71 62t37 76.5l51 -8
q-11 -51 -42.5 -99t-86.5 -79.5t-138 -31.5z" />
    <glyph glyph-name="sinVa" unicode="&#xdc0;" horiz-adv-x="600" 
d="M286 3q-77 0 -126 25.5t-76 64.5t-37 81t-10 75q0 55 16.5 97.5t47.5 66.5q18 14 40.5 21.5t48.5 7.5h129l31 -46h-154q-52 0 -79.5 -41t-27.5 -105q0 -26 8 -59.5t29 -64t60 -50t100 -19.5q107 0 163.5 88.5t56.5 257.5q0 117 -17.5 193.5t-48 121.5t-70.5 63t-86 18
q-57 0 -101 -32t-64 -83l-50 18q22 56 58.5 89t78.5 47.5t78 14.5q57 0 107 -21t88.5 -71.5t60.5 -137.5t22 -220q0 -195 -71 -297.5t-205 -102.5zM117 387q-14 14 -25 38.5t-11 50.5q0 59 37.5 90t89.5 31q38 0 71 -17t53.5 -52.5t20.5 -90.5q0 -11 -0.5 -21t-2.5 -20
l-44 34v5.5t-1 4.5q-3 56 -30.5 83.5t-66.5 27.5q-34 0 -57.5 -19t-23.5 -56q0 -21 7.5 -36.5t18.5 -26.5z" />
    <glyph glyph-name="sinSha" unicode="&#xdc1;" horiz-adv-x="772" 
d="M481 166q0 -24 5 -51t17 -51.5t33 -40t53 -15.5q30 0 46 7t28 7q9 0 15.5 -5t18.5 -15l18 41q-14 14 -27.5 19.5t-26.5 5.5q-16 0 -31.5 -5.5t-31.5 -5.5q-34 0 -51 29t-17 80q0 45 20 79.5t60 34.5q15 0 33.5 -7t36.5 -28l9 47q-13 17 -36.5 26t-50.5 9q-36 0 -63 -22
t-42.5 -58t-15.5 -81zM279 277q38 16 57.5 39.5t26 50.5t6.5 54q0 9 -0.5 17.5t-0.5 15.5q0 41 17 76.5t48.5 57t73.5 21.5q32 0 59.5 -12.5t49 -42.5t33.5 -83.5t12 -135.5q0 -18 -0.5 -35t-2.5 -33q-2 -41 -6 -73t-4 -59q0 -20 2.5 -37.5t9.5 -35.5q5 -16 14.5 -30.5
t22.5 -29.5l38 28q-19 26 -26.5 47t-7.5 47q0 34 6.5 82t6.5 129q0 97 -16 161t-44.5 100t-66.5 51t-80 15q-46 0 -90 -24.5t-72 -70t-29 -109.5q0 -6 0.5 -14.5t0.5 -19.5q0 -26 -9 -57t-48 -49zM38 316q0 -95 18 -156.5t48.5 -96t68.5 -47.5t78 -13q66 0 106 30t57.5 75.5
t17.5 91.5q0 42 -14 73.5t-34.5 50t-41.5 20.5l-26 -39q29 -3 47 -33t18 -72q0 -34 -13 -67.5t-41 -55t-76 -21.5q-30 0 -58.5 11t-52 39.5t-37 79.5t-13.5 130q0 89 12 146t32 89.5t45.5 45t52.5 12.5q29 0 49.5 -13.5t32.5 -34t14 -41.5l45 22q-6 31 -23 58.5t-46.5 44.5
t-71.5 17q-38 0 -72.5 -15.5t-62 -53.5t-43.5 -105t-16 -172z" />
    <glyph glyph-name="sinSsa" unicode="&#xdc2;" horiz-adv-x="659" 
d="M274 17l29 27q-5 17 -7.5 32.5t-2.5 30.5q0 49 21 90.5t54 75.5t70.5 63.5t69.5 53.5l-7 31l-29 -4q-34 -26 -74 -57t-76 -68t-58.5 -81.5t-22.5 -98.5q0 -15 2.5 -32t8.5 -35zM307 519q0 -19 3 -37t9 -35t11 -35l24 47q-1 11 -1 26v29q0 57 29.5 84t68.5 27
q34 0 61.5 -22.5t27.5 -66.5q0 -29 -12.5 -55t-33.5 -42l37 -27q25 21 40.5 55t15.5 69q0 45 -19.5 76t-51 46t-65.5 15q-49 0 -89 -29t-52 -90q-2 -8 -2.5 -16.5t-0.5 -18.5zM90 255q0 41 14 76t44 56t75 21h213q46 0 75.5 -21t44 -56t14.5 -76q0 -63 -30.5 -110.5
t-84 -73.5t-125.5 -26q-71 0 -125 26t-84.5 73.5t-30.5 110.5zM38 255q0 -60 21 -109t59.5 -83.5t92.5 -53t119 -18.5t119 18.5t92.5 53t60 83t21.5 109.5q0 55 -20.5 101.5t-62 74.5t-103.5 28h-214q-62 0 -103 -28t-61.5 -74t-20.5 -102zM73 536q0 -35 15 -69t41 -55
l37 27q-21 16 -33.5 42t-12.5 55q0 44 27.5 66.5t61.5 22.5q38 0 67.5 -27t29.5 -84v-29v-26l24 -47q6 18 11 35t8.5 35t3.5 37q0 10 -0.5 18.5t-2.5 16.5q-12 61 -52.5 90t-89.5 29q-34 0 -65 -15t-50.5 -46t-19.5 -76z" />
    <glyph glyph-name="sinSa" unicode="&#xdc3;" horiz-adv-x="665" 
d="M206 3q-53 0 -87.5 29.5t-52 79.5t-17.5 111q0 37 6.5 75t20 69t30.5 46h-69v50h440q23 0 41.5 -6.5t33.5 -18.5q29 -21 45.5 -57t23.5 -77.5t7 -80.5q0 -61 -17 -111t-51.5 -79.5t-87.5 -29.5q-38 0 -63 13.5t-39.5 34t-21 41t-9.5 34.5q-3 -14 -9.5 -34.5t-21.5 -41
t-39.5 -34t-62.5 -13.5zM206 57q36 0 57.5 19t32 49.5t14.5 66t5 67.5h47q2 -32 5.5 -67.5t14 -66t32 -49.5t58.5 -19q52 0 77.5 48t25.5 118q0 25 -3.5 57t-14 62t-31 50t-53.5 20h-253q-39 0 -62.5 -20t-35.5 -50t-16 -62.5t-4 -56.5q0 -70 25.5 -118t78.5 -48zM339 425
l-24 34q1 14 1 27.5t-1 27.5q0 57 -29.5 84t-67.5 27q-34 0 -61.5 -22.5t-27.5 -66.5q0 -32 11.5 -53t19.5 -30l-33 -25q-11 11 -28 38.5t-17 70.5q0 45 19.5 75.5t50.5 45.5t65 15q49 0 89.5 -29t52.5 -90q2 -8 2.5 -16.5t0.5 -18.5q0 -19 -3.5 -34t-9 -28.5t-10.5 -31.5z
M539 412l-36 27q21 16 33 42t12 55q0 44 -27 66.5t-62 22.5q-38 0 -67.5 -27t-29.5 -84v-27.5v-27.5l-23 -34q-6 18 -11.5 31.5t-9 28.5t-3.5 34q0 10 1 18.5t2 16.5q12 61 52.5 90t89.5 29q34 0 65 -15t50.5 -46t19.5 -76q0 -35 -15 -69t-41 -55z" />
    <glyph glyph-name="sinHa" unicode="&#xdc4;" horiz-adv-x="721" 
d="M491 3q-34 0 -59 10.5t-42.5 29t-27.5 39.5l33 63q2 -21 13.5 -42t32.5 -35t50 -14q27 0 52.5 12.5t45.5 42.5t32 85t12 138q0 85 -12.5 139t-33.5 84t-48 42t-58 12q-51 0 -77 -27.5t-35.5 -72t-10.5 -95.5q-1 -30 -6.5 -65t-25 -66t-60.5 -49l-20 39q26 16 39.5 41
t17.5 53.5t4 53.5q1 47 9 90t27 77t52.5 54t85.5 20q40 0 77 -14.5t65.5 -50t45 -100t16.5 -165.5q0 -99 -16 -163.5t-43.5 -101t-62 -50.5t-72.5 -14zM238 3q-66 0 -111 29t-68 82t-23 125q0 57 16.5 112t59.5 87q15 12 33.5 18.5t41.5 6.5h153l-10 -51h-138q-34 0 -55 -18
t-31.5 -45.5t-14.5 -56.5t-4 -52q0 -58 16.5 -99t50.5 -63t84 -22q49 0 78 19t42 48.5t13 58.5q0 32 -11.5 54.5t-34.5 22.5q-15 0 -33 -11l-16 39q16 8 30.5 11t27.5 3q27 0 47 -14t31 -40.5t11 -65.5q0 -30 -10 -61.5t-31.5 -58t-57 -42.5t-86.5 -16zM125 412
q-26 21 -41 55t-15 69q0 45 19.5 76t50.5 46t65 15q49 0 89.5 -29t51.5 -90q2 -8 3.5 -18t1.5 -22q0 -29 -5.5 -52t-14.5 -50l-29 50q1 13 1 25.5v26.5q0 57 -29.5 84t-67.5 27q-34 0 -61.5 -22.5t-27.5 -66.5q0 -29 12.5 -55t32.5 -42z" />
    <glyph glyph-name="sinLla" unicode="&#xdc5;" horiz-adv-x="621" 
d="M316 -172q-72 0 -125 26.5t-87 72.5t-50 104t-16 120q0 67 19 120.5t50 90.5t69 56.5t76 19.5h285v-51h-282q-44 0 -81.5 -28t-60 -81t-22.5 -127q0 -51 13.5 -99.5t41.5 -87t70 -61t100 -22.5q64 0 108.5 24.5t71.5 62.5t36 78l52 -9q-12 -51 -43.5 -99.5t-86.5 -79
t-138 -30.5zM353 177q-60 0 -98 20t-56 53.5t-18 71.5q0 32 13.5 56t41.5 46l25 -35q-14 -2 -22.5 -22t-8.5 -43q0 -39 29 -67.5t93 -28.5q58 0 87 23t29 56h51q0 -34 -18.5 -64t-55.5 -48t-92 -18zM537 387l-28 15l-10 35q3 19 5.5 40t2.5 40q0 42 -13.5 73t-47.5 31
q-24 0 -37.5 -13.5t-19.5 -34.5t-8 -43v-21v-18v-93h-48v93q0 10 -0.5 19.5t-1.5 19.5q-5 46 -20.5 68.5t-49.5 22.5q-30 0 -46 -25.5t-16 -63.5q0 -18 5.5 -40t16 -38t23.5 -17l14 -20l-16 -20q-7 0 -15 2t-16 6t-14 9q-23 17 -35 50.5t-12 69.5t11 68t35.5 51.5t63.5 19.5
q41 0 64.5 -20t32.5 -51q9 32 30.5 51.5t59.5 19.5q54 0 80 -45.5t26 -116.5q0 -29 -3.5 -60t-12.5 -64z" />
    <glyph glyph-name="sinFa" unicode="&#xdc6;" horiz-adv-x="671" 
d="M45 333q0 -97 22 -171.5t73 -116.5t136 -42v54q-52 0 -87 21.5t-55 59.5t-28.5 88.5t-8.5 106.5q0 57 4.5 108.5t16 92t32 63t52.5 22.5q37 0 58 -19t32 -49.5t15 -66t5 -68.5h47q1 33 5 68.5t14.5 66t32 49.5t57.5 19q32 0 52.5 -22.5t32 -63t16 -92t4.5 -108.5
q0 -56 -8.5 -106.5t-28.5 -88.5t-55 -59.5t-88 -21.5v-54q87 0 138 42t73 116.5t22 171.5q0 69 -6 131t-22.5 109t-48 73.5t-81.5 26.5q-38 0 -63 -13.5t-39.5 -34t-21.5 -41t-9 -34.5q-2 14 -9 34.5t-21.5 41t-39 34t-63.5 13.5q-50 0 -81 -26.5t-47.5 -73.5t-22.5 -109
t-6 -131z" />
    <glyph glyph-name="sinVirama" unicode="&#xdca;" horiz-adv-x="7" 
d="M-52 719q-13 0 -25 1.5t-24 4.5l9 46q6 -1 16 -3.5t23 -2.5q30 0 50.5 20t20.5 67q0 32 -10.5 49.5t-25 25t-29.5 9t-25 1.5h-5h-5l-21 24l31 22q15 0 38 -3t46 -14.5t38 -38.5t15 -75q0 -71 -35 -102t-82 -31zM-121 522v461h49v-16l-5 -18v-190l5 -22v-215h-49z" />
    <glyph glyph-name="sinMatraAa" unicode="&#xdcf;" horiz-adv-x="282" 
d="M37 552q7 10 20.5 17.5t28.5 7.5q31 0 54.5 -28.5t36.5 -85t13 -140.5t-13 -140.5t-36.5 -85.5t-54.5 -29q-15 0 -28.5 8t-20.5 17l-35 -32q17 -25 40.5 -34.5t44.5 -9.5q34 0 62.5 19t49.5 57.5t32.5 96t11.5 133.5t-11.5 133t-32.5 95.5t-49.5 58t-62.5 19.5
q-21 0 -44.5 -9.5t-40.5 -35.5z" />
    <glyph glyph-name="sinMatraAe" unicode="&#xdd0;" horiz-adv-x="389" 
d="M202 1q-38 0 -67.5 12.5t-50 36t-31 57t-10.5 74.5q0 58 19.5 115.5t54.5 123.5t82 147h-153v51h217v-50q-53 -90 -90.5 -158t-57.5 -122.5t-20 -106.5q0 -63 29 -94t79 -31q32 0 51.5 14t31 36.5t16 47.5t4.5 47h51q0 -29 -6 -64t-22.5 -65.5t-47.5 -50.5t-79 -20z" />
    <glyph glyph-name="sinMatraAae" unicode="&#xdd1;" horiz-adv-x="368" 
d="M29 168q0 -37 10 -68t29 -52.5t48 -33t65 -11.5q50 0 80.5 19t46.5 50t21.5 65.5t5.5 63.5h-51q0 -21 -4 -46.5t-15.5 -48t-31.5 -37t-52 -14.5q-47 0 -74 30t-27 86q0 41 18 80.5t45.5 70.5t59 49.5t59.5 18.5v33q-38 0 -79 -20t-76 -55t-56.5 -81t-21.5 -99zM266 390
v50h-218v-50h218zM38 569h131l-121 -129h66l119 129v49h-195v-49z" />
    <glyph glyph-name="sinMatraI" unicode="&#xdd2;" horiz-adv-x="0" 
d="M-592 777q0 -30 12 -60t32.5 -55t48.5 -37l36 4v27q-36 16 -56 50.5t-20 70.5q0 45 27.5 79.5t76.5 53.5t114 19t114 -19t76.5 -53.5t27.5 -79.5q0 -36 -20 -70.5t-56 -50.5v-27l35 -4q29 12 50 37t32.5 55t11.5 60q0 65 -36.5 111t-98 70.5t-136.5 24.5
q-76 0 -137 -24.5t-97.5 -70.5t-36.5 -111z" />
    <glyph glyph-name="sinMatraIi" unicode="&#xdd3;" horiz-adv-x="0" 
d="M-237 741q0 27 19 46t46 19q26 0 45 -19t19 -46t-19 -46t-45 -19q-27 0 -46 19t-19 46zM-288 741q0 -32 15.5 -58t41.5 -41.5t58 -15.5t57.5 15.5t41.5 41.5t16 58q0 9 -3.5 16t-8 13t-10.5 10.5t-12 8.5q-4 24 -28 44.5t-56 20.5q-30 0 -55.5 -15t-41 -40.5t-15.5 -57.5
zM-592 777q0 -30 12 -60t32.5 -55t48.5 -37l36 4v27q-36 16 -56 50.5t-20 70.5q0 45 27.5 79.5t76.5 54t114 19.5q53 0 93.5 -11t69.5 -31.5t43.5 -48.5t14.5 -62q2 -12 5.5 -18t3.5 -19q0 -35 -27 -53.5t-60 -22.5l-17 -29l41 -7q40 6 63 31t32 57t9 61q0 65 -36.5 111
t-98 70.5t-136.5 24.5q-76 0 -137 -24.5t-97.5 -70.5t-36.5 -111z" />
    <glyph glyph-name="sinMatraU" unicode="&#xdd4;" horiz-adv-x="0" 
d="M-540 -138q0 -41 18.5 -66.5t67.5 -25.5h360v52h-355q-22 0 -30.5 15t-8.5 36q0 12 1.5 25t4.5 25l-51 7q-3 -17 -5 -34t-2 -34zM-103 -230h52v486l-43 -30l-9 -57v-399z" />
    <glyph glyph-name="sinMatraUu" unicode="&#xdd6;" horiz-adv-x="0" 
d="M-542 -138q0 -41 27.5 -66.5t70.5 -25.5q28 0 56.5 11.5t56.5 27t56 27t55 11.5q29 0 58 -16.5t57 -60.5l29 42q-35 49 -70.5 68t-70.5 19q-29 0 -58 -11.5t-56.5 -27t-54.5 -27t-54 -11.5q-23 0 -36 15t-13 36q0 12 1.5 25t3.5 25l-50 6q-4 -16 -6 -33t-2 -34z
M-105 -230h53v486l-38 -30l-15 -57v-399z" />
    <glyph glyph-name="sinMatraR" unicode="&#xdd8;" horiz-adv-x="316" 
d="M0 164q0 -22 4.5 -49t16.5 -52t33 -41t53 -16t56 11.5t43 11.5q10 0 19 -5t19 -18l-29 64q-3 2 -8 2.5t-10 0.5q-17 0 -40 -7.5t-38 -7.5q-34 0 -51 27.5t-17 79.5q0 45 20 77.5t59 32.5q15 0 34 -7.5t38 -27.5l9 48q-29 36 -91 36q-35 0 -62.5 -20.5t-42.5 -56.5
t-15 -83zM59 421q-1 11 -1 22v20q0 46 16.5 79t62.5 33q37 0 56.5 -28t19.5 -90q0 -60 -5.5 -112t-10.5 -96t-5 -82q0 -43 11 -82t41 -79l40 27q-21 32 -29 65.5t-8 72.5q0 55 8.5 125t8.5 160t-33 130t-94 40q-49 0 -77.5 -21.5t-40.5 -58.5t-12 -83q0 -11 0.5 -20.5
t1.5 -21.5h50z" />
    <glyph glyph-name="sinMatraE" unicode="&#xdd9;" horiz-adv-x="533" 
d="M271 306q0 30 21.5 51.5t51.5 21.5t52 -21.5t22 -51.5t-22 -52t-52 -22t-51.5 22t-21.5 52zM222 307q0 -35 18.5 -64t46.5 -45q13 -6 27.5 -9.5t27.5 -3.5q32 0 58 17.5t39 44.5q5 9 10 18.5t8.5 20.5t3.5 21q0 33 -16 61t-42 45t-59 17t-61 -17t-44.5 -45t-16.5 -61z
M39 319q0 -92 27 -163.5t81.5 -112t133.5 -40.5q53 0 91.5 20t63.5 53.5t37 74.5t12 83q0 95 -40 145.5t-101 50.5v-51q31 0 50.5 -17.5t30 -50t10.5 -76.5t-15.5 -85t-50 -67.5t-88.5 -26.5q-62 0 -104.5 34t-64 93.5t-21.5 135.5q0 77 26.5 141t73.5 103.5t110 39.5
q47 0 79.5 -20.5t58.5 -53.5l40 32q-30 44 -75.5 69.5t-102.5 25.5q-59 0 -107.5 -27t-83 -73.5t-53 -107t-18.5 -129.5z" />
    <glyph glyph-name="sinMatraEe" unicode="&#xdda;" horiz-adv-x="901" 
d="M777 718q-13 0 -25 1.5t-24 4.5l9 46q6 -1 16 -3.5t23 -2.5q30 0 50.5 20t20.5 67q0 32 -10.5 49.5t-25 25t-29.5 9t-25 1.5h-5h-5l-21 24l31 22q15 0 38 -3t46 -14.5t38 -38.5t15 -75q0 -71 -35 -102t-82 -31zM708 521v461h49v-16l-5 -18v-190l5 -22v-215h-49zM271 306
q0 30 21.5 51.5t51.5 21.5t52 -21.5t22 -51.5t-22 -52t-52 -22t-51.5 22t-21.5 52zM222 307q0 -35 18.5 -64t46.5 -45q13 -6 27.5 -9.5t27.5 -3.5q32 0 58 17.5t39 44.5q5 9 10 18.5t8.5 20.5t3.5 21q0 33 -16 61t-42 45t-59 17t-61 -17t-44.5 -45t-16.5 -61zM39 319
q0 -92 27 -163.5t81.5 -112t133.5 -40.5q53 0 91.5 20t63.5 53.5t37 74.5t12 83q0 95 -40 145.5t-101 50.5v-51q31 0 50.5 -17.5t30 -50t10.5 -76.5t-15.5 -85t-50 -67.5t-88.5 -26.5q-62 0 -104.5 34t-64 93.5t-21.5 135.5q0 77 26.5 141t73.5 103.5t110 39.5
q47 0 79.5 -20.5t58.5 -53.5l40 32q-30 44 -75.5 69.5t-102.5 25.5q-59 0 -107.5 -27t-83 -73.5t-53 -107t-18.5 -129.5zM661 234q-27 0 -49.5 13.5t-35.5 36.5t-13 51t13 51t35.5 36.5t49.5 13.5q29 0 51.5 -13.5t35.5 -36.5t13 -51t-13 -51t-35.5 -36.5t-51.5 -13.5z" />
    <glyph glyph-name="sinMatraAi" unicode="&#xddb;" horiz-adv-x="1015" 
d="M271 306q0 30 21.5 51.5t51.5 21.5t52 -21.5t22 -51.5t-22 -52t-52 -22t-51.5 22t-21.5 52zM222 307q0 -35 18.5 -64t46.5 -45q13 -6 27.5 -9.5t27.5 -3.5q32 0 58 17.5t39 44.5q5 9 10 18.5t8.5 20.5t3.5 21q0 33 -16 61t-42 45t-59 17t-61 -17t-44.5 -45t-16.5 -61z
M39 319q0 -92 27 -163.5t81.5 -112t133.5 -40.5q53 0 91.5 20t63.5 53.5t37 74.5t12 83q0 95 -40 145.5t-101 50.5v-51q31 0 50.5 -17.5t30 -50t10.5 -76.5t-15.5 -85t-50 -67.5t-88.5 -26.5q-62 0 -104.5 34t-64 93.5t-21.5 135.5q0 77 26.5 141t73.5 103.5t110 39.5
q47 0 79.5 -20.5t58.5 -53.5l40 32q-30 44 -75.5 69.5t-102.5 25.5q-59 0 -107.5 -27t-83 -73.5t-53 -107t-18.5 -129.5zM777 306q0 30 21.5 51.5t51.5 21.5t52 -21.5t22 -51.5t-22 -52t-52 -22t-51.5 22t-21.5 52zM728 307q0 -35 18.5 -64t46.5 -45q13 -6 27.5 -9.5
t27.5 -3.5q32 0 58 17.5t39 44.5q5 9 10 18.5t8.5 20.5t3.5 21q0 33 -16 61t-42 45t-59 17t-61 -17t-44.5 -45t-16.5 -61zM545 319q0 -92 27 -163.5t81.5 -112t133.5 -40.5q53 0 91.5 20t63.5 53.5t37 74.5t12 83q0 95 -40 145.5t-101 50.5v-51q31 0 50.5 -17.5t30 -50
t10.5 -76.5t-15.5 -85t-50 -67.5t-88.5 -26.5q-62 0 -104.5 34t-64 93.5t-21.5 135.5q0 77 26.5 141t73.5 103.5t110 39.5q47 0 79.5 -20.5t58.5 -53.5l40 32q-30 44 -75.5 69.5t-102.5 25.5q-59 0 -107.5 -27t-83 -73.5t-53 -107t-18.5 -129.5z" />
    <glyph glyph-name="sinMatraO" unicode="&#xddc;" horiz-adv-x="1162" 
d="M271 306q0 30 21.5 51.5t51.5 21.5t52 -21.5t22 -51.5t-22 -52t-52 -22t-51.5 22t-21.5 52zM222 307q0 -35 18.5 -64t46.5 -45q13 -6 27.5 -9.5t27.5 -3.5q32 0 58 17.5t39 44.5q5 9 10 18.5t8.5 20.5t3.5 21q0 33 -16 61t-42 45t-59 17t-61 -17t-44.5 -45t-16.5 -61z
M39 319q0 -92 27 -163.5t81.5 -112t133.5 -40.5q53 0 91.5 20t63.5 53.5t37 74.5t12 83q0 95 -40 145.5t-101 50.5v-51q31 0 50.5 -17.5t30 -50t10.5 -76.5t-15.5 -85t-50 -67.5t-88.5 -26.5q-62 0 -104.5 34t-64 93.5t-21.5 135.5q0 77 26.5 141t73.5 103.5t110 39.5
q47 0 79.5 -20.5t58.5 -53.5l40 32q-30 44 -75.5 69.5t-102.5 25.5q-59 0 -107.5 -27t-83 -73.5t-53 -107t-18.5 -129.5zM694 234q-27 0 -49.5 13.5t-35.5 36.5t-13 51t13 51t35.5 36.5t49.5 13.5q29 0 51.5 -13.5t35.5 -36.5t13 -51t-13 -51t-35.5 -36.5t-51.5 -13.5z
M924 552q7 10 20.5 17.5t28.5 7.5q31 0 54.5 -28.5t36.5 -85t13 -140.5t-13 -140.5t-36.5 -85.5t-54.5 -29q-15 0 -28.5 8t-20.5 17l-35 -32q17 -25 40.5 -34.5t44.5 -9.5q34 0 62.5 19t49.5 57.5t32.5 96t11.5 133.5t-11.5 133t-32.5 95.5t-49.5 58t-62.5 19.5
q-21 0 -44.5 -9.5t-40.5 -35.5z" />
    <glyph glyph-name="sinMatraOo" unicode="&#xddd;" horiz-adv-x="1142" 
d="M271 306q0 30 21.5 51.5t51.5 21.5t52 -21.5t22 -51.5t-22 -52t-52 -22t-51.5 22t-21.5 52zM222 307q0 -35 18.5 -64t46.5 -45q13 -6 27.5 -9.5t27.5 -3.5q32 0 58 17.5t39 44.5q5 9 10 18.5t8.5 20.5t3.5 21q0 33 -16 61t-42 45t-59 17t-61 -17t-44.5 -45t-16.5 -61z
M39 319q0 -92 27 -163.5t81.5 -112t133.5 -40.5q53 0 91.5 20t63.5 53.5t37 74.5t12 83q0 95 -40 145.5t-101 50.5v-51q31 0 50.5 -17.5t30 -50t10.5 -76.5t-15.5 -85t-50 -67.5t-88.5 -26.5q-62 0 -104.5 34t-64 93.5t-21.5 135.5q0 77 26.5 141t73.5 103.5t110 39.5
q47 0 79.5 -20.5t58.5 -53.5l40 32q-30 44 -75.5 69.5t-102.5 25.5q-59 0 -107.5 -27t-83 -73.5t-53 -107t-18.5 -129.5zM694 234q-27 0 -49.5 13.5t-35.5 36.5t-13 51t13 51t35.5 36.5t49.5 13.5q29 0 51.5 -13.5t35.5 -36.5t13 -51t-13 -51t-35.5 -36.5t-51.5 -13.5z
M946 18q-18 0 -39.5 8t-37.5 30l30 37q7 -9 19.5 -16t25.5 -7q33 0 57 28.5t37.5 85t13.5 140.5q0 85 -13.5 141t-37.5 84.5t-57 28.5q-13 0 -25.5 -6.5t-19.5 -16.5l-30 37q16 23 37.5 30.5t39.5 7.5q34 0 63 -19.5t50.5 -57.5t34 -95.5t12.5 -133.5t-12.5 -133.5
t-34 -95.5t-50.5 -57.5t-63 -19.5zM916 610v373h48v-16l-5 -18v-190l5 -22v-127h-48zM984 719q-12 0 -24.5 1.5t-24.5 4.5l9 46q6 -1 15.5 -3.5t23.5 -2.5q29 0 49.5 20t20.5 67q0 32 -9.5 49.5t-24.5 25t-29.5 9t-25.5 1.5q-3 0 -6 -0.5t-6 -1.5l-19 26l31 22q15 0 38 -3
t46 -14.5t38 -38.5t15 -75q0 -71 -35 -102t-82 -31z" />
    <glyph glyph-name="sinMatraAu" unicode="&#xdde;" horiz-adv-x="1219" 
d="M271 306q0 30 21.5 51.5t51.5 21.5t52 -21.5t22 -51.5t-22 -52t-52 -22t-51.5 22t-21.5 52zM222 307q0 -35 18.5 -64t46.5 -45q13 -6 27.5 -9.5t27.5 -3.5q32 0 58 17.5t39 44.5q5 9 10 18.5t8.5 20.5t3.5 21q0 33 -16 61t-42 45t-59 17t-61 -17t-44.5 -45t-16.5 -61z
M39 319q0 -92 27 -163.5t81.5 -112t133.5 -40.5q53 0 91.5 20t63.5 53.5t37 74.5t12 83q0 95 -40 145.5t-101 50.5v-51q31 0 50.5 -17.5t30 -50t10.5 -76.5t-15.5 -85t-50 -67.5t-88.5 -26.5q-62 0 -104.5 34t-64 93.5t-21.5 135.5q0 77 26.5 141t73.5 103.5t110 39.5
q47 0 79.5 -20.5t58.5 -53.5l40 32q-30 44 -75.5 69.5t-102.5 25.5q-59 0 -107.5 -27t-83 -73.5t-53 -107t-18.5 -129.5zM694 234q-27 0 -49.5 13.5t-35.5 36.5t-13 51t13 51t35.5 36.5t49.5 13.5q29 0 51.5 -13.5t35.5 -36.5t13 -51t-13 -51t-35.5 -36.5t-51.5 -13.5z
M911 411q0 -36 8.5 -66.5t28 -49t54.5 -18.5q38 0 57 20.5t27.5 52.5t11.5 64q6 53 19 79.5t39 26.5q32 0 47.5 -26.5t21 -69.5t5.5 -91q0 -144 -33 -211.5t-105 -67.5q-25 0 -39.5 7.5t-22 18t-11.5 15.5l-38 -29q6 -8 17 -23.5t33.5 -27.5t60.5 -12q48 0 83 19.5t58.5 60
t35 103t11.5 147.5q0 36 -4.5 77.5t-17 78.5t-37 60.5t-64.5 23.5q-50 0 -75.5 -39.5t-32.5 -109.5q-2 -24 -6 -46.5t-13.5 -36.5t-27.5 -14t-27 13.5t-11.5 33.5t-2.5 38q0 46 8 69t21.5 31.5t29.5 8.5v49q-29 0 -54.5 -16t-40 -50.5t-14.5 -92.5z" />
    <glyph glyph-name="sinMatraLs" unicode="&#xddf;" horiz-adv-x="429" 
d="M24 411q0 -36 8.5 -66.5t28 -49t54.5 -18.5q38 0 57 20.5t27.5 52.5t11.5 64q6 53 19 79.5t39 26.5q32 0 47.5 -26.5t21 -69.5t5.5 -91q0 -144 -33 -211.5t-105 -67.5q-25 0 -39.5 7.5t-22 18t-11.5 15.5l-38 -29q6 -8 17 -23.5t33.5 -27.5t60.5 -12q48 0 83 19.5
t58.5 60t35 103t11.5 147.5q0 36 -4.5 77.5t-17 78.5t-37 60.5t-64.5 23.5q-50 0 -75.5 -39.5t-32.5 -109.5q-2 -24 -6 -46.5t-13.5 -36.5t-27.5 -14t-27 13.5t-11.5 33.5t-2.5 38q0 46 8 69t21.5 31.5t29.5 8.5v49q-29 0 -54.5 -16t-40 -50.5t-14.5 -92.5z" />
    <glyph glyph-name="sinZerolith" unicode="&#xde6;" horiz-adv-x="325" 
d="M148 201v147q14 -6 26.5 -9t24.5 -3q49 0 72 28t23 63q0 38 -19 61.5t-47.5 37t-58 22.5t-50.5 17v-345zM148 522q48 -19 70 -44t22 -54q0 -14 -5.5 -27.5t-18 -22.5t-32.5 -9q-11 0 -19.5 2.5t-16.5 6.5v148zM119 548l-1 -412l30 1v560q-22 -13 -43 -21t-37.5 -16.5
t-26.5 -20.5t-10 -33q0 -16 9 -28t24 -21t32 -16t33 -12l10 26q-34 9 -57 20.5t-23 30.5q0 9 10 23.5t49 22.5z" />
    <glyph glyph-name="sinOnelith" unicode="&#xde7;" horiz-adv-x="796" 
d="M276 288q0 23 19.5 39.5t45.5 16.5t45.5 -16.5t19.5 -39.5q0 -22 -19.5 -39t-45.5 -17t-45.5 17t-19.5 39zM39 244q0 -75 36.5 -131.5t100 -87.5t143.5 -31q85 0 143 25.5t88 70.5t30 103q0 61 -30.5 102.5t-80.5 62.5t-112 21q-50 0 -85 -26t-35 -69q0 -26 15 -46
t39 -31.5t51 -11.5q26 0 49.5 10t38.5 30t15 47q0 14 -5 29t-17 26q44 -7 76.5 -36t32.5 -75q0 -48 -31.5 -79t-80 -45.5t-101.5 -14.5q-63 0 -114 24.5t-81 66t-30 90.5q0 48 22 84.5t59 61.5t83.5 37t97.5 12q71 0 137 -23.5t118.5 -77t83 -144t30.5 -224.5h35
q0 138 -32.5 235t-89 157.5t-129.5 89t-153 28.5q-64 0 -121 -18t-101 -52t-69.5 -82t-25.5 -108z" />
    <glyph glyph-name="sinTwolith" unicode="&#xde8;" horiz-adv-x="1133" 
d="M1067 190q0 -82 -36 -132t-100 -50q-21 0 -36.5 4t-24.5 10v-32q11 -7 28 -11t32 -4q62 0 100.5 32.5t57.5 85t19 112.5q0 31 -4 68.5t-15.5 75.5t-34 69t-59 50t-90.5 19q-39 0 -75.5 -16.5t-64 -49.5t-40.5 -85t-6 -122l7 -58l30 -70q-2 24 -4.5 47t-2.5 44
q0 68 13 116.5t47 74.5t96 26q53 0 89 -26.5t55 -72.5t19 -105zM276 288q0 23 19.5 39.5t45.5 16.5t45.5 -16.5t19.5 -39.5q0 -22 -19.5 -39t-45.5 -17t-45.5 17t-19.5 39zM39 244q0 -75 36.5 -131.5t100 -87.5t143.5 -31q85 0 143 25.5t88 70.5t30 103q0 61 -30.5 102.5
t-80.5 62.5t-112 21q-50 0 -85 -26t-35 -69q0 -26 15 -46t39 -31.5t51 -11.5q26 0 49.5 10t38.5 30t15 47q0 14 -5 29t-17 26q44 -7 76.5 -36t32.5 -75q0 -48 -31.5 -79t-80 -45.5t-101.5 -14.5q-63 0 -114 24.5t-81 66t-30 90.5q0 48 22 84.5t59 61.5t83.5 37t97.5 12
q71 0 137 -23.5t118.5 -77t83 -144t30.5 -224.5h35q0 138 -32.5 235t-89 157.5t-129.5 89t-153 28.5q-64 0 -121 -18t-101 -52t-69.5 -82t-25.5 -108z" />
    <glyph glyph-name="sinThreelith" unicode="&#xde9;" horiz-adv-x="1522" 
d="M1164 123q0 -61 36 -95.5t95 -34.5q80 0 121 62.5t41 175.5t-41 176.5t-121 63.5q-35 0 -65 -16t-48 -45.5t-18 -70.5v-13t1 -13h32q-1 5 -1 9v8q0 29 11 49.5t28.5 31.5t37.5 11q32 0 53.5 -21t31.5 -63t10 -107q0 -64 -10 -106.5t-31.5 -63t-53.5 -20.5
q-24 0 -41.5 10.5t-26.5 31.5t-9 49v9.5t1 8.5h-32q-1 -7 -1 -13.5v-13.5zM276 288q0 23 19.5 39.5t45.5 16.5t45.5 -16.5t19.5 -39.5q0 -22 -19.5 -39t-45.5 -17t-45.5 17t-19.5 39zM39 244q0 -75 36.5 -131.5t100 -87.5t143.5 -31q85 0 143 25.5t88 70.5t30 103
q0 61 -30.5 102.5t-80.5 62.5t-112 21q-50 0 -85 -26t-35 -69q0 -26 15 -46t39 -31.5t51 -11.5q26 0 49.5 10t38.5 30t15 47q0 14 -5 29t-17 26q44 -7 76.5 -36t32.5 -75q0 -48 -31.5 -79t-80 -45.5t-101.5 -14.5q-63 0 -114 24.5t-81 66t-30 90.5q0 48 22 84.5t59 61.5
t83.5 37t97.5 12q71 0 137 -23.5t118.5 -77t83 -144t30.5 -224.5h35q0 138 -32.5 235t-89 157.5t-129.5 89t-153 28.5q-64 0 -121 -18t-101 -52t-69.5 -82t-25.5 -108zM1067 190q0 -82 -36 -132t-100 -50q-21 0 -36.5 4t-24.5 10v-32q11 -7 28 -11t32 -4q62 0 100.5 32.5
t57.5 85t19 112.5q0 31 -4 68.5t-15.5 75.5t-34 69t-59 50t-90.5 19q-39 0 -75.5 -16.5t-64 -49.5t-40.5 -85t-6 -122l7 -58l30 -70q-2 24 -4.5 47t-2.5 44q0 68 13 116.5t47 74.5t96 26q53 0 89 -26.5t55 -72.5t19 -105z" />
    <glyph glyph-name="sinFourlith" unicode="&#xdea;" horiz-adv-x="690" 
d="M27 196q0 -56 25.5 -94.5t69.5 -62t100.5 -34t117.5 -10.5q56 0 109 10.5t95.5 34t67.5 61.5t25 92q0 51 -20 84t-53.5 52t-73.5 26.5t-81 7.5q-11 0 -19.5 -1t-16.5 -2q-3 17 -3 29q0 35 23 60.5t85 25.5q39 0 64 -15.5t25 -44.5q0 -23 -16 -37.5t-42 -14.5
q-29 0 -43.5 21t-14.5 51q0 42 12 73.5t28 53.5t29 35q23 23 47 36.5t45.5 23.5t34.5 19t13 21q0 10 -7.5 18.5t-23.5 8.5q-17 0 -44.5 -12t-58.5 -41q-26 -24 -51 -59t-41.5 -79.5t-16.5 -95.5q0 -25 9 -49.5t28.5 -40.5t51.5 -16q38 0 59 13t29.5 32t8.5 36q0 35 -20 56
t-47.5 30.5t-52.5 9.5q-40 0 -74 -11.5t-54.5 -38t-20.5 -72.5q0 -26 9 -55q13 1 29.5 3t35.5 2q68 0 108.5 -17t58 -44t17.5 -55q0 -37 -22.5 -62.5t-60 -41t-83.5 -22t-93 -6.5q-46 0 -91.5 6.5t-83 21.5t-60.5 40.5t-23 62.5q0 20 9.5 40.5t30 38t56.5 28t88 10.5
q8 0 18.5 -0.5t20.5 -1.5q3 11 4 23t1 22q0 59 -37 92.5t-96 33.5q-28 0 -54.5 -8.5t-44 -27t-17.5 -47.5q0 -22 12.5 -35t30.5 -13q23 0 34.5 13.5t21.5 34.5q6 14 20 24t33 10q22 0 35.5 -10t20 -26.5t6.5 -33.5q0 -7 -0.5 -12t-2.5 -11q-7 1 -10.5 1h-20.5
q-66 0 -112 -22.5t-70.5 -60.5t-24.5 -85z" />
    <glyph glyph-name="sinFivelith" unicode="&#xdeb;" horiz-adv-x="539" 
d="M282 -21q24 0 47 2t52 11q-41 -54 -62.5 -98t-21.5 -81q0 -34 14 -60.5t42 -42t71 -16.5q19 0 34.5 1.5t29.5 4.5v33q-37 9 -63.5 24.5t-40 40.5t-13.5 61q0 33 12.5 64t31 58.5t38 49.5t32.5 38l-27 20q-35 -40 -68 -57t-72 -17q-47 0 -86.5 21.5t-63.5 60.5t-24 88
q0 74 40 108t119 34h150q-16 85 -56.5 125t-116.5 40q-49 0 -81 -20t-32 -52q0 -19 12 -31t34 -12q14 0 27 7.5t22 26.5q8 17 21 27t30 10q38 0 63 -26t34 -67h-141q-106 0 -167 -40.5t-61 -134.5q0 -89 62.5 -145t178.5 -56z" />
    <glyph glyph-name="sinSixlith" unicode="&#xdec;" horiz-adv-x="828" 
d="M405 376q30 0 73 -4.5t88.5 -17t84.5 -35.5t63.5 -62t24.5 -96q0 -50 -16 -83.5t-41.5 -53.5t-53.5 -29t-52 -10v-24q34 0 70 11t66.5 36t49.5 65.5t19 100.5q0 73 -26.5 124.5t-69 85.5t-93 53t-100 26.5t-87.5 7.5q-39 0 -86.5 -9t-95.5 -29t-88.5 -54.5t-65 -85.5
t-24.5 -122q0 -57 18.5 -97.5t47.5 -65t63 -36t65 -11.5q68 0 104.5 35.5t36.5 94.5v14t-1 13h-32q1 -4 1 -8.5v-9.5q0 -50 -27.5 -78.5t-81.5 -28.5q-21 0 -46.5 7.5t-49.5 26t-39.5 50.5t-15.5 80q0 55 22 93t58 62.5t79 38.5t84.5 19.5t73.5 5.5zM576 -39q29 0 53.5 14.5
t39 38.5t14.5 53t-14.5 53.5t-39 39t-53.5 14.5t-53 -14.5t-38.5 -39t-14.5 -53.5q0 -43 31.5 -74.5t74.5 -31.5zM576 140q29 0 50 -21t21 -51t-21 -50.5t-50 -20.5q-30 0 -51 20.5t-21 50.5t21 51t51 21z" />
    <glyph glyph-name="sinSevenlith" unicode="&#xded;" horiz-adv-x="711" 
d="M284 484q-56 0 -92 -20t-36 -60q0 -18 12.5 -31t32.5 -13q23 0 33.5 10.5t17.5 21.5q13 20 30 30.5t40 10.5q31 0 53 -15t34 -40t12 -55h-111q-84 0 -145.5 -31.5t-95 -87t-33.5 -127.5q0 -66 27.5 -120t76.5 -93t112 -60t133 -21q67 0 123 20t96.5 56.5t62.5 86
t22 108.5h-33q0 -47 -18 -88.5t-51.5 -72.5t-78.5 -48.5t-99 -17.5q-78 0 -139.5 34t-96.5 93.5t-35 135.5q0 94 56 149t165 55h101v3v3q0 56 -21.5 97t-60.5 64t-94 23z" />
    <glyph glyph-name="sinEightlith" unicode="&#xdee;" horiz-adv-x="619" 
d="M42 189q0 -73 33.5 -129.5t92 -89t131.5 -32.5q80 0 142.5 36.5t98.5 97t36 132.5q0 50 -15.5 90.5t-47.5 75.5q-34 38 -77.5 58.5t-85.5 22.5q25 7 58.5 20t65.5 28.5t54 27.5q54 30 77 56t23 49q0 12 -9 18t-22 6q-14 0 -25 -9t-22.5 -23.5t-27 -32t-38.5 -33.5
q-49 -36 -99.5 -59t-96 -38.5t-80.5 -31.5q-45 -19 -83 -50.5t-60.5 -78t-22.5 -111.5zM85 220q0 45 20 82.5t53.5 64.5t75 41.5t83.5 14.5q55 0 98 -20.5t69 -60.5t26 -98q0 -62 -29.5 -109.5t-80 -74t-113.5 -26.5t-108.5 25t-69.5 67t-24 94z" />
    <glyph glyph-name="sinNinelith" unicode="&#xdef;" horiz-adv-x="1172" 
d="M718 676q0 33 23 54.5t55 21.5t55 -22t23 -54q0 -28 -22.5 -50.5t-55.5 -22.5q-34 0 -56 22.5t-22 50.5zM308 668q0 -44 34 -81t98 -52l7 12q-60 20 -83 50t-23 53q0 48 38 77t98.5 42.5t128.5 13.5q34 0 66.5 -3.5t56 -8.5t30.5 -9l19 20q-31 0 -52 -16.5t-32 -41
t-11 -49.5q0 -30 15.5 -54t41.5 -38t56 -14q48 0 81.5 31.5t33.5 78.5q0 46 -28 81t-73.5 59t-99.5 36t-106 12q-79 0 -135.5 -19t-92 -49t-52 -64.5t-16.5 -66.5zM276 288q0 23 19.5 39.5t45.5 16.5t45.5 -16.5t19.5 -39.5q0 -22 -19.5 -39t-45.5 -17t-45.5 17t-19.5 39z
M39 244q0 -75 36.5 -131.5t100 -87.5t143.5 -31q85 0 143 25.5t88 70.5t30 103q0 61 -30.5 102.5t-80.5 62.5t-112 21q-50 0 -85 -26t-35 -69q0 -26 15 -46t39 -31.5t51 -11.5q26 0 49.5 10t38.5 30t15 47q0 14 -5 29t-17 26q44 -7 76.5 -36t32.5 -75q0 -48 -31.5 -79
t-80 -45.5t-101.5 -14.5q-63 0 -114 24.5t-81 66t-30 90.5q0 48 22 84.5t59 61.5t83.5 37t97.5 12q71 0 137 -23.5t118.5 -77t83 -144t30.5 -224.5h35q0 138 -32.5 235t-89 157.5t-129.5 89t-153 28.5q-64 0 -121 -18t-101 -52t-69.5 -82t-25.5 -108zM1067 190
q0 -82 -36 -132t-100 -50q-21 0 -36.5 4t-24.5 10v-32q11 -7 28 -11t32 -4q62 0 100.5 32.5t57.5 85t19 112.5q0 31 -4 68.5t-15.5 75.5t-34 69t-59 50t-90.5 19q-39 0 -75.5 -16.5t-64 -49.5t-40.5 -85t-6 -122l7 -58l30 -70q-2 24 -4.5 47t-2.5 44q0 68 13 116.5t47 74.5
t96 26q53 0 89 -26.5t55 -72.5t19 -105z" />
    <glyph glyph-name="sinMatraRr" unicode="&#xdf2;" horiz-adv-x="667" 
d="M311 164q0 -22 4.5 -49t16.5 -52t33 -41t53 -16t56 11.5t44 11.5q10 0 19 -5t18 -18l-29 64q-3 1 -7.5 1.5t-10.5 0.5q-18 0 -40.5 -7.5t-37.5 -7.5q-35 0 -52 28t-17 80q0 45 20.5 78t59.5 33q15 0 34 -7.5t37 -27.5l9 47q-12 17 -36.5 26.5t-52.5 9.5
q-35 0 -62.5 -20.5t-43 -56.5t-15.5 -83zM370 421q-1 11 -1 22v20q0 46 16.5 79t62.5 33q37 0 57 -28t20 -90q0 -60 -5 -112t-10.5 -95.5t-5.5 -81.5q0 -43 10.5 -82.5t40.5 -79.5l40 26q-22 32 -29.5 66t-7.5 73q0 55 8.5 125t8.5 160t-33 130t-94 40q-49 0 -77.5 -21.5
t-40.5 -58.5t-12 -83q0 -11 0.5 -20.5t1.5 -21.5h50zM0 164q0 -22 4.5 -49t16.5 -52t33 -41t53 -16t56 11.5t43 11.5q10 0 19.5 -5t19.5 -18l-30 64q-3 1 -8 1.5t-10 0.5q-17 0 -40 -7.5t-38 -7.5q-35 0 -52 28t-17 80q0 45 20 78t60 33q15 0 34.5 -7.5t37.5 -27.5l9 47
q-29 36 -91 36q-35 0 -62.5 -20.5t-42.5 -56.5t-15 -83zM59 421q-1 11 -1 22v20q0 46 16.5 79t62.5 33q37 0 57 -28t20 -90q0 -60 -5.5 -112t-10.5 -95.5t-5 -81.5q0 -43 11 -82.5t41 -79.5l39 26q-21 32 -29 66t-8 73q0 55 8.5 125t8.5 160t-33 130t-94 40
q-49 0 -77.5 -21.5t-40.5 -58.5t-12 -83q0 -11 0.5 -20.5t1.5 -21.5h50z" />
    <glyph glyph-name="sinMatraLl" unicode="&#xdf3;" horiz-adv-x="438" 
d="M393 294q0 51 -4.5 100.5t-17 89.5t-37 64.5t-64.5 24.5q-50 0 -75.5 -39.5t-32.5 -109.5q-2 -24 -6 -46.5t-13.5 -36.5t-27.5 -14t-27 13.5t-11.5 33.5t-2.5 38q0 46 8 69t21.5 31.5t29.5 8.5v49q-29 0 -54.5 -16t-40 -50.5t-14.5 -92.5q0 -36 8.5 -66.5t28 -49
t54.5 -18.5q38 0 57 20.5t27.5 52.5t11.5 64q6 53 19 79.5t39 26.5q32 0 47.5 -28t21 -79t5.5 -119q0 -87 -16.5 -140.5t-43 -79t-58.5 -25.5t-46.5 15t-14.5 33q0 22 16 32.5t38 10.5q39 0 61.5 -18t30.5 -35l25 47q-11 14 -27.5 26.5t-39 21t-49.5 8.5q-48 0 -78 -26.5
t-30 -70.5q0 -43 29 -68.5t80 -25.5q54 0 92.5 31t59.5 96.5t21 167.5z" />
    <glyph glyph-name="sinkundaliya" unicode="&#xdf4;" horiz-adv-x="2300" 
d="M1770 121q0 -33 13.5 -56.5t37 -35.5t52.5 -12h302q49 0 68 25.5t19 66.5q0 17 -2 34t-6 34l-51 -6q3 -12 4.5 -25t1.5 -25q0 -21 -8.5 -37t-31.5 -16h-288q-25 0 -40 15t-15 46q0 7 1 15.5t3 17.5l37 184h-54l-39 -187q-2 -10 -3 -19.5t-1 -18.5zM1586 134q5 21 24 37.5
t46 27.5t55.5 21t52 20t34.5 24l46 53l-31 28q-5 -22 -26.5 -38t-51 -27.5t-59.5 -22t-52 -21.5t-29 -27l-36 -16zM1586 130l86 392h-54l-85 -392h53zM1386 307q5 23 24.5 38.5t47 27.5t56.5 21.5t53 19.5t36 23l47 54l-32 27q-6 -22 -28 -38t-52 -27.5t-60 -22t-53 -21.5
t-30 -27l-36 -16zM1372 236l103 466h-54l-103 -466h54zM1196 468q4 21 22.5 35.5t44.5 25t52.5 19.5t49 18.5t33.5 20.5l47 54l-31 27q-5 -20 -25.5 -34.5t-49 -25t-57 -20t-50 -20t-27.5 -24.5l-36 -17zM1163 318l103 464h-53l-104 -464h54zM1002 563q5 -14 26 -27.5
t45.5 -28t43 -31t18.5 -37.5q0 -6 -0.5 -12t-2.5 -13l41 48l-20 44q-4 11 -24 24t-44.5 27.5t-42.5 28.5t-18 28q0 6 1 14.5t2 9.5h-50zM935 220l95 431h-53l-96 -431h54zM751 387q6 -15 27 -28.5t47 -27t44.5 -30t18.5 -37.5q0 -6 -0.5 -12t-1.5 -13l41 47l-21 46
q-4 11 -24.5 23.5t-46 26.5t-44 28.5t-18.5 27.5q0 6 1 14.5t1 9.5h-49zM690 70l89 401h-55l-88 -401h54zM506 240q6 -14 27.5 -27.5t47.5 -28t44.5 -31t18.5 -37.5q0 -5 -0.5 -11t-1.5 -13l40 47l-20 45q-4 11 -25 24t-46.5 27t-44 28.5t-18.5 27.5q0 6 1.5 14.5t1.5 9.5
h-50zM36 96q0 -41 19 -67t69 -26h198q67 0 103.5 25.5t55.5 72t30 105.5l24 126h-54l-23 -124q-9 -43 -23 -77.5t-41.5 -55t-77.5 -20.5h-186q-24 0 -32.5 15.5t-8.5 36.5q0 12 2 25.5t5 24.5l-52 6q-4 -17 -6 -34t-2 -33z" />
    <glyph glyph-name="uni200C" unicode="&#x200c;" horiz-adv-x="0" 
d="M24 2v836h-50v-836h50z" />
    <glyph glyph-name="uni200D" unicode="&#x200d;" horiz-adv-x="0" 
d="M24 9v706h-51v-706h51zM203 810l-31 43l-365 -253l32 -44zM-172 854l-31 -44l366 -254l30 44z" />
    <glyph glyph-name="endash" unicode="&#x2013;" horiz-adv-x="570" 
d="M570 368v-54h-571v54h571z" />
    <glyph glyph-name="emdash" unicode="&#x2014;" horiz-adv-x="1138" 
d="M1139 368v-54h-1140v54h1140z" />
    <glyph glyph-name="quoteleft" unicode="&#x2018;" horiz-adv-x="196" 
d="M146 840l23 -19q-12 -18 -22.5 -36.5t-17.5 -37t-9 -35.5q19 -6 28 -20t9 -30q0 -26 -14.5 -39.5t-33.5 -13.5t-34.5 14.5t-15.5 45.5q0 26 11 56t30.5 60.5t45.5 54.5z" />
    <glyph glyph-name="quoteright" unicode="&#x2019;" horiz-adv-x="198" 
d="M65 605l-24 19q13 19 23.5 37.5t17 37t9.5 35.5q-20 6 -29 20t-9 30q0 27 15.5 40.5t33.5 13.5q19 0 34.5 -14.5t15.5 -46.5q0 -25 -10.5 -55.5t-30 -61t-46.5 -55.5z" />
    <glyph glyph-name="quotesinglbase" unicode="&#x201a;" horiz-adv-x="682" 
d="M56 -138l-24 19q13 19 23.5 37.5t17 37t9.5 35.5q-20 6 -29 20t-9 30q0 27 15.5 40.5t33.5 13.5q19 0 34.5 -14.5t15.5 -46.5q0 -25 -10.5 -55.5t-30 -61t-46.5 -55.5z" />
    <glyph glyph-name="quotedblleft" unicode="&#x201c;" horiz-adv-x="342" 
d="M146 840l23 -19q-12 -18 -22.5 -36.5t-17.5 -37t-9 -35.5q19 -6 28 -20t9 -30q0 -26 -14.5 -39.5t-33.5 -13.5t-34.5 14.5t-15.5 45.5q0 26 11 56t30.5 60.5t45.5 54.5zM287 840l23 -19q-13 -18 -23 -36.5t-17 -37t-9 -35.5q19 -5 28 -19.5t9 -29.5q0 -27 -14.5 -40.5
t-34.5 -13.5q-18 0 -33.5 14.5t-15.5 45.5q0 26 10.5 56t30.5 60.5t46 54.5z" />
    <glyph glyph-name="quotedblright" unicode="&#x201d;" horiz-adv-x="347" 
d="M212 605l-24 19q13 19 23.5 37.5t17 37t9.5 35.5q-20 6 -29 20t-9 30q0 27 15.5 40.5t33.5 13.5q19 0 34.5 -14.5t15.5 -46.5q0 -25 -10.5 -55.5t-30 -61t-46.5 -55.5zM81 605l-24 19q13 19 23.5 37.5t17 37t9.5 35.5q-20 6 -29 20t-9 30q0 27 15.5 40.5t33.5 13.5
q19 0 34.5 -14.5t15.5 -46.5q0 -25 -10.5 -55.5t-30 -61t-46.5 -55.5z" />
    <glyph glyph-name="quotedblbase" unicode="&#x201e;" horiz-adv-x="328" 
d="M192 -138l-24 19q13 19 23.5 37.5t17 37t9.5 35.5q-20 6 -29 20t-9 30q0 27 15.5 40.5t33.5 13.5q19 0 34.5 -14.5t15.5 -46.5q0 -25 -10.5 -55.5t-30 -61t-46.5 -55.5zM56 -138l-24 19q13 19 23.5 37.5t17 37t9.5 35.5q-20 6 -29 20t-9 30q0 27 15.5 40.5t33.5 13.5
q19 0 34.5 -14.5t15.5 -46.5q0 -25 -10.5 -55.5t-30 -61t-46.5 -55.5z" />
    <glyph glyph-name="dagger" unicode="&#x2020;" horiz-adv-x="511" 
d="M230 -63l-6 370l5 221l7 -7l-203 -3v53l203 -4l-7 -5l-5 230h64l-5 -230l-6 5l201 4v-53l-202 3l7 7l5 -221l-7 -370h-51z" />
    <glyph glyph-name="daggerdbl" unicode="&#x2021;" horiz-adv-x="511" 
d="M224 368l5 160l7 -7l-203 -3v53l203 -4l-7 -5l-5 230h64l-5 -230l-6 5l201 4v-53l-202 3l7 7l5 -160l-5 -166l-7 7l202 3v-53l-201 3l6 6l5 -231h-64l5 231l7 -6l-203 -3v53l203 -3l-7 -7z" />
    <glyph glyph-name="bullet" unicode="&#x2022;" horiz-adv-x="389" 
d="M193 234q-27 0 -49.5 13.5t-35.5 36.5t-13 51t13 51t35.5 36.5t49.5 13.5q29 0 51.5 -13.5t35.5 -36.5t13 -51t-13 -51t-35.5 -36.5t-51.5 -13.5z" />
    <glyph glyph-name="ellipsis" unicode="&#x2026;" horiz-adv-x="651" 
d="M319 -7q-21 0 -33 14.5t-12 37.5t12 36.5t33 13.5t34 -13.5t13 -36.5t-13 -37.5t-34 -14.5zM531 -7q-21 0 -33 14.5t-12 37.5t12 36.5t33 13.5t34 -13.5t13 -36.5t-13 -37.5t-34 -14.5zM107 -7q-21 0 -33 14.5t-12 37.5t12 36.5t33 13.5t34 -13.5t13 -36.5t-13 -37.5
t-34 -14.5z" />
    <glyph glyph-name="perthousand" unicode="&#x2030;" horiz-adv-x="1339" 
d="M1258 209q0 83 -32.5 128.5t-93.5 45.5q-62 0 -95.5 -45t-33.5 -128q0 -80 34.5 -127t93.5 -47q56 0 91.5 47t35.5 126zM1313 209q0 -63 -24 -112.5t-64.5 -77t-95.5 -27.5q-54 0 -94.5 27t-63.5 76t-23 114q0 101 50 159.5t135 58.5q84 0 132 -57t48 -161zM342 609
q0 83 -32.5 127.5t-92.5 44.5q-62 0 -95.5 -44t-33.5 -127q0 -79 34.5 -126.5t93.5 -47.5q56 0 91 47.5t35 125.5zM397 610q0 -65 -23 -114t-64.5 -76.5t-94.5 -27.5q-55 0 -96 27t-63.5 75.5t-22.5 114.5q0 102 50 160t134 58q85 0 132.5 -56.5t47.5 -160.5zM824 208
q0 83 -32.5 128.5t-92.5 45.5q-62 0 -96 -45t-34 -128q0 -79 35 -126.5t94 -47.5q56 0 91 47.5t35 125.5zM879 208q0 -63 -23.5 -112.5t-64.5 -77t-94 -27.5q-55 0 -96 26.5t-63.5 75.5t-22.5 115q0 101 50 159.5t134 58.5q85 0 132.5 -57t47.5 -161zM721 836h-56l-475 -847
l59 -2z" />
    <glyph glyph-name="guilsinglleft" unicode="&#x2039;" horiz-adv-x="291" 
d="M99 300l143 -168l-41 -36l-168 203l171 204l41 -35z" />
    <glyph glyph-name="guilsinglright" unicode="&#x203a;" horiz-adv-x="291" 
d="M191 298l-142 168l40 37l168 -204l-171 -203l-40 34z" />
    <glyph glyph-name="fraction" unicode="&#x2044;" horiz-adv-x="609" 
d="M563 836h-56l-475 -847l58 -2z" />
    <glyph glyph-name="uni2074" unicode="&#x2074;" horiz-adv-x="400" 
d="M254 307v416h15l-181 -270l-12 12h288v-45l-324 -1l-5 36l212 315h61v-463h-54z" />
    <glyph glyph-name="Euro" unicode="&#x20ac;" horiz-adv-x="640" 
d="M372 -8q-65 0 -116 28t-86 80t-54 122.5t-19 155.5q0 79 17.5 151t52.5 128t87.5 88t122.5 32q57 0 112 -27.5t91 -83.5l-47 -37q-29 47 -71.5 69.5t-86.5 22.5q-56 0 -96.5 -27t-66 -74.5t-37.5 -108t-12 -126.5q0 -103 25 -178.5t74 -116.5t118 -41q40 0 83.5 13.5
t92.5 45.5l27 -46q-57 -38 -110.5 -54t-100.5 -16zM19 291v48h447l-10 -48h-437zM19 421v48h481l-10 -48h-471z" />
    <glyph glyph-name="uni20BA" unicode="&#x20ba;" horiz-adv-x="648" 
d="M297 -3q-39 0 -76.5 1t-90.5 2v768h62v-730l-16 15q38 -1 66.5 -1.5t55.5 -0.5q68 0 113 25t71.5 69t38 100.5t13.5 118.5h64q-3 -74 -18.5 -140.5t-50.5 -117.5t-91.5 -80t-140.5 -29zM27 221v52l363 132v-51zM27 363v49l363 133v-51z" />
    <glyph glyph-name="uni20BD" unicode="&#x20bd;" horiz-adv-x="580" 
d="M103 0v768q42 2 84.5 2h86.5q97 0 153 -27t79.5 -74.5t23.5 -106.5q0 -66 -29 -118t-83.5 -82t-133.5 -30h-128v48h101q109 0 158.5 47t49.5 123q0 81 -44 124.5t-154 43.5q-29 0 -60.5 -1t-58.5 -3l16 16v-730h-61zM24 201v49h362v-49h-362zM24 332v48h87v-48h-87z" />
    <glyph glyph-name="uni2113" unicode="&#x2113;" horiz-adv-x="366" 
d="M43 152l-31 40q60 50 109.5 114t85 133.5t55.5 136.5t20 123q0 50 -14.5 81t-48.5 31q-33 0 -47 -37.5t-14 -102.5l2 -524q0 -55 21.5 -80t55.5 -25q22 0 46 12t49 37l30 -35q-29 -34 -64.5 -49.5t-68.5 -15.5q-34 0 -63 17t-46.5 50.5t-17.5 82.5l-3 527
q0 90 28.5 141.5t90.5 51.5q60 0 88.5 -43.5t28.5 -113.5q0 -65 -22 -139.5t-61.5 -149.5t-92.5 -143t-116 -120z" />
    <glyph glyph-name="trademark" unicode="&#x2122;" horiz-adv-x="848" 
d="M308 769v-39h-127l9 8v-457h-50v457l9 -8h-125v39h284zM308 281l69 487h48l102 -329q6 -24 12 -50t13 -48h-15q8 23 14.5 49t13.5 49l109 329h45l60 -487h-48l-35 302q-4 31 -7 64.5t-7 64.5h15q-10 -31 -19.5 -64.5t-20.5 -65.5l-95 -283l-41 -1l-88 285
q-10 31 -19 65.5t-19 64.5h15q-4 -30 -8.5 -64.5t-9.5 -65.5l-40 -302h-44z" />
    <glyph glyph-name="uni2126" unicode="&#x2126;" horiz-adv-x="719" 
d="M60 0v53h160v-7q-46 34 -81.5 86t-55 118.5t-19.5 139.5q0 81 20 151t58.5 123t94.5 83t127 30q75 0 130.5 -29.5t91 -82t53 -122.5t17.5 -152q0 -73 -21 -140t-58 -119.5t-83 -84.5v6h166v-53h-228l-3 55q49 27 84.5 75t55.5 114t20 143q0 96 -24.5 171.5t-74.5 119.5
t-127 44q-76 0 -128 -44.5t-78.5 -120t-26.5 -170.5q0 -77 19 -143t54.5 -114t84.5 -74v-56h-228z" />
    <glyph glyph-name="estimated" unicode="&#x212e;" horiz-adv-x="821" 
d="M422 28q51 0 101 14.5t94.5 42.5t79.5 66l28 -28q-44 -45 -95 -75t-105 -44.5t-109 -14.5q-73 0 -138.5 26.5t-115 77.5t-78 124t-28.5 167q0 74 23 145t69.5 128.5t115.5 91.5t162 34q66 0 128 -23.5t112.5 -70.5t80 -118t29.5 -166h-585v-277q48 -51 107.5 -75.5
t123.5 -24.5zM426 743q-66 0 -128 -24.5t-107 -75.5v-198h450v213q-44 44 -100 64.5t-115 20.5z" />
    <glyph glyph-name="partialdiff" unicode="&#x2202;" horiz-adv-x="607" 
d="M283 -9q-60 0 -108.5 29.5t-76.5 82.5t-28 123q0 49 15.5 96t45.5 84.5t74.5 60t101.5 22.5q38 0 74.5 -15.5t66 -48t47.5 -83.5l-18 -3q1 16 1.5 30.5t0.5 28.5q0 85 -27 155t-77 120.5t-119 77.5l23 49q93 -38 151.5 -104.5t85.5 -152t27 -182.5q0 -76 -16.5 -143
t-49.5 -118t-81.5 -80t-112.5 -29zM287 43q43 0 84 23t67.5 70t26.5 118q0 61 -23 101.5t-59.5 61.5t-76.5 21q-41 0 -81 -21.5t-66 -67.5t-26 -119q0 -63 22 -104.5t57.5 -62t74.5 -20.5z" />
    <glyph glyph-name="uni2206" unicode="&#x2206;" horiz-adv-x="662" 
d="M11 0l282 772h79l279 -772h-640zM90 40l-7 10h491l-5 -8l-242 684h6z" />
    <glyph glyph-name="product" unicode="&#x220f;" horiz-adv-x="707" 
d="M38 720v52h632v-52h-127l14 14v-933h-62v933l13 -14h-310l14 14v-933h-61v933l15 -14h-128z" />
    <glyph glyph-name="summation" unicode="&#x2211;" horiz-adv-x="550" 
d="M29 -160l322 464l2 -27l-298 454v40h452v-53h-388l7 13l284 -437l-314 -454l-6 14h397v-53h-458v39z" />
    <glyph glyph-name="minus" unicode="&#x2212;" horiz-adv-x="595" 
d="M78 321h438v-53h-438v53z" />
    <glyph glyph-name="uni2215" unicode="&#x2215;" horiz-adv-x="609" 
d="M563 836h-56l-475 -847l58 -2z" />
    <glyph glyph-name="uni2219" unicode="&#x2219;" horiz-adv-x="389" 
d="M193 234q-27 0 -49.5 13.5t-35.5 36.5t-13 51t13 51t35.5 36.5t49.5 13.5q29 0 51.5 -13.5t35.5 -36.5t13 -51t-13 -51t-35.5 -36.5t-51.5 -13.5z" />
    <glyph glyph-name="radical" unicode="&#x221a;" horiz-adv-x="717" 
d="M271 -137l-186 515l11 -8l-79 -30l-17 48l125 46l181 -504h-16l222 911h204v-50h-166l11 10l-241 -938h-49z" />
    <glyph glyph-name="infinity" unicode="&#x221e;" horiz-adv-x="958" 
d="M239 133q-60 0 -99 25t-57.5 64.5t-18.5 82.5q0 47 21 89t61.5 68t99.5 26q47 0 89 -22t82 -56t77.5 -73t74.5 -73t73.5 -56t72.5 -22q39 0 65 18t39 46.5t13 58.5q0 31 -13 60t-37.5 47t-60.5 18t-70.5 -19t-69.5 -49t-72 -63l-33 39q43 37 81 70.5t78.5 54.5t89.5 21
q57 0 94 -25t56 -65t19 -83q0 -46 -21 -88t-61 -68t-99 -26q-45 0 -88 21.5t-84 56t-79.5 73t-76 72.5t-73 56t-69.5 22q-38 0 -64 -17.5t-39 -45t-13 -59.5q0 -31 13.5 -60t39.5 -47.5t64 -18.5q33 0 66 19t67 48t70 60l36 -40q-40 -33 -78.5 -65.5t-79 -53.5t-86.5 -21z
" />
    <glyph glyph-name="integral" unicode="&#x222b;" horiz-adv-x="332" 
d="M65 -243q-12 0 -25 2.5t-28 7.5l12 51q10 -4 20 -6t19 -2q45 0 61 43t14 109q-1 56 -3.5 126.5t-5.5 147t-5.5 153t-4 146t-1.5 126.5q0 90 35 143t99 53q13 0 27 -2t30 -7l-14 -51q-11 4 -20 6t-19 2q-30 0 -47.5 -20t-24.5 -54t-6 -79q2 -56 4.5 -125.5t5.5 -146
l6 -153t4.5 -146.5t1.5 -126q0 -88 -36.5 -143t-98.5 -55z" />
    <glyph glyph-name="approxequal" unicode="&#x2248;" horiz-adv-x="582" 
d="M495 409l34 -33q-30 -34 -61 -49.5t-68 -15.5q-31 0 -57.5 9.5t-52 21.5t-51 21.5t-55.5 9.5q-26 0 -50.5 -10t-47.5 -30l-33 35q32 31 64 46.5t69 15.5q32 0 59.5 -9.5t53 -22t51 -22t51.5 -9.5t49 10.5t45 31.5zM495 258l34 -34q-30 -35 -61 -50t-67 -15
q-32 0 -58.5 9.5t-52 22t-51 21.5t-54.5 9q-27 0 -51.5 -9.5t-47.5 -30.5l-33 34q32 32 64 47.5t69 15.5q32 0 59.5 -9t53.5 -21.5t51 -22t51 -9.5t49 10.5t45 31.5z" />
    <glyph glyph-name="notequal" unicode="&#x2260;" horiz-adv-x="624" 
d="M425 529l-171 -478h-55l172 478h54zM83 343v52h458v-52h-458zM83 191v53h458v-53h-458z" />
    <glyph glyph-name="lessequal" unicode="&#x2264;" horiz-adv-x="506" 
d="M75 28v53h356v-53h-356zM404 602l32 -42l-290 -203v14l288 -196l-33 -45l-332 233z" />
    <glyph glyph-name="greaterequal" unicode="&#x2265;" horiz-adv-x="506" 
d="M102 130l-31 42l290 202v-13l-289 195l33 46l333 -234zM77 28v53h356v-53h-356z" />
    <glyph glyph-name="lozenge" unicode="&#x25ca;" horiz-adv-x="581" 
d="M273 -3l-245 390l239 385h39l247 -387l-239 -388h-41zM299 61l15 32l176 288l-22 26l-184 300l-17 -33l-176 -286l22 -23z" />
    <glyph glyph-name="uni25CC" unicode="&#x25cc;" horiz-adv-x="755" 
d="M75 189q0 -18 13.5 -31t30.5 -13q19 0 31.5 13t12.5 31t-12.5 31t-31.5 13q-17 0 -30.5 -13t-13.5 -31zM185 80q0 -18 13.5 -31t30.5 -13q18 0 31 13t13 31t-13 30.5t-31 12.5q-17 0 -30.5 -12.5t-13.5 -30.5zM592 189q0 -18 13.5 -31t30.5 -13q19 0 31.5 13t12.5 31
t-12.5 31t-31.5 13q-17 0 -30.5 -13t-13.5 -31zM482 80q0 -18 13.5 -31t30.5 -13q19 0 31.5 13t12.5 31t-12.5 30.5t-31.5 12.5q-17 0 -30.5 -12.5t-13.5 -30.5zM75 487q0 -18 13.5 -31t30.5 -13q19 0 31.5 13t12.5 31q0 19 -12.5 31.5t-31.5 12.5q-17 0 -30.5 -12.5
t-13.5 -31.5zM185 596q0 -18 13.5 -30.5t30.5 -12.5q18 0 31 12.5t13 30.5q0 19 -13 31.5t-31 12.5q-17 0 -30.5 -12.5t-13.5 -31.5zM592 487q0 -18 13.5 -31t30.5 -13q19 0 31.5 13t12.5 31q0 19 -12.5 31.5t-31.5 12.5q-17 0 -30.5 -12.5t-13.5 -31.5zM482 596
q0 -18 13.5 -30.5t30.5 -12.5q19 0 31.5 12.5t12.5 30.5q0 19 -12.5 31.5t-31.5 12.5q-17 0 -30.5 -12.5t-13.5 -31.5zM36 338q0 -18 13 -31t30 -13q19 0 31.5 13t12.5 31q0 19 -12.5 31.5t-31.5 12.5q-17 0 -30 -12.5t-13 -31.5zM632 338q0 -18 13.5 -31t30.5 -13
q18 0 31 13t13 31q0 19 -13 31.5t-31 12.5q-17 0 -30.5 -12.5t-13.5 -31.5zM334 636q0 -18 13.5 -31t30.5 -13q18 0 30.5 13t12.5 31q0 19 -12.5 31.5t-30.5 12.5q-17 0 -30.5 -12.5t-13.5 -31.5zM334 40q0 -18 13.5 -31t30.5 -13q18 0 30.5 13t12.5 31t-12.5 31t-30.5 13
q-17 0 -30.5 -13t-13.5 -31z" />
    <glyph glyph-name="u111E1" unicode="&#x111e1;" horiz-adv-x="865" 
d="M726 479v-485h34v485h-34zM276 288q0 23 19.5 39.5t45.5 16.5t45.5 -16.5t19.5 -39.5q0 -22 -19.5 -39t-45.5 -17t-45.5 17t-19.5 39zM38 244q0 -75 36.5 -131.5t100 -87.5t143.5 -31q85 0 143 25.5t88 70.5t30 103q0 61 -30 102.5t-80 62.5t-112 21q-50 0 -85 -26
t-35 -69q0 -26 15 -46t39 -31.5t51 -11.5q26 0 49.5 10t38.5 30t15 47q0 14 -5 29t-17 26q44 -7 76 -36t32 -75q0 -48 -31.5 -79t-80 -45.5t-101.5 -14.5q-63 0 -113.5 24.5t-80.5 66t-30 90.5q0 48 22 84.5t59 61.5t83.5 37t96.5 12q72 0 138 -23.5t118 -77t82.5 -144
t31.5 -224.5h35q-1 138 -33.5 235t-88.5 157.5t-129 89t-154 28.5q-63 0 -120.5 -18t-101.5 -52t-69.5 -82t-25.5 -108z" />
    <glyph glyph-name="u111E2" unicode="&#x111e2;" horiz-adv-x="1142" 
d="M357 314q27 0 46.5 -16.5t19.5 -39.5q0 -22 -19.5 -38.5t-46.5 -16.5q-26 0 -45.5 16.5t-19.5 38.5q0 23 19.5 39.5t45.5 16.5zM56 215q0 -74 35.5 -130.5t98.5 -88.5t145 -32q81 0 139 24.5t90 69t32 106.5q0 55 -28 97t-78 65t-117 23q-52 0 -86 -26.5t-34 -67.5
q0 -37 31.5 -63.5t74.5 -26.5q44 0 73.5 25.5t29.5 62.5q0 16 -5.5 30t-16.5 25q49 -9 78.5 -39.5t29.5 -72.5q0 -41 -27 -72t-75 -48.5t-111 -17.5q-62 0 -113 24.5t-81 65.5t-30 91q0 57 33.5 101t93 69.5t134.5 25.5q82 0 139.5 -26t100.5 -83t80 -152q39 -97 71.5 -158
t63.5 -93t63.5 -44t70.5 -12q61 0 105 41.5t66 109.5l-34 17q-23 -39 -58.5 -63t-78.5 -24q-52 0 -91.5 23.5t-73 76t-69.5 139.5q-41 102 -89.5 165t-113 93t-152.5 30q-91 0 -162.5 -34t-112.5 -92.5t-41 -133.5z" />
    </font>
</defs>
</svg>
